<svg width="24" height="25" viewBox="0 0 24 25" fill="none" xmlns="http://www.w3.org/2000/svg">
<path d="M19 19.5H9C6.79086 19.5 5 17.7091 5 15.5V5.5" stroke="#172E55" stroke-width="1.5" stroke-linecap="round" stroke-linejoin="round"/>
<path d="M15.1191 7.75C14.7049 7.75 14.3691 8.08579 14.3691 8.5C14.3691 8.91421 14.7049 9.25 15.1191 9.25V7.75ZM19.0001 9.25C19.4144 9.25 19.7501 8.91421 19.7501 8.5C19.7501 8.08579 19.4144 7.75 19.0001 7.75V9.25ZM19.75 8.5C19.75 8.08579 19.4142 7.75 19 7.75C18.5858 7.75 18.25 8.08579 18.25 8.5H19.75ZM18.25 12.107C18.25 12.5212 18.5858 12.857 19 12.857C19.4142 12.857 19.75 12.5212 19.75 12.107H18.25ZM19.5757 8.97973C19.8407 8.66133 19.7974 8.18844 19.479 7.92349C19.1606 7.65855 18.6877 7.70188 18.4227 8.02027L19.5757 8.97973ZM14.9992 13.307L15.503 13.8626C15.529 13.839 15.5533 13.8137 15.5757 13.7867L14.9992 13.307ZM13.4302 13.368L12.9655 13.9567L12.9711 13.961L13.4302 13.368ZM12.3812 12.54L12.8459 11.9513L12.8421 11.9483L12.3812 12.54ZM10.6992 12.723L10.1219 12.2443C10.1145 12.2532 10.1073 12.2623 10.1003 12.2716L10.6992 12.723ZM10.5712 12.875L11.1067 13.4002C11.1105 13.3963 11.1143 13.3923 11.118 13.3884L10.5712 12.875ZM7.32979 15.1088C7.03975 15.4046 7.04435 15.8794 7.34007 16.1694C7.63579 16.4595 8.11064 16.4549 8.40068 16.1592L7.32979 15.1088ZM15.1191 8.5V9.25H19.0001V8.5V7.75H15.1191V8.5ZM19 8.5H18.25V12.107H19H19.75V8.5H19ZM18.9992 8.5L18.4227 8.02027L14.4227 12.8273L14.9992 13.307L15.5757 13.7867L19.5757 8.97973L18.9992 8.5ZM14.9992 13.307L14.4954 12.7514C14.3259 12.9052 14.0704 12.9151 13.8894 12.775L13.4302 13.368L12.9711 13.961C13.7273 14.5465 14.7946 14.505 15.503 13.8626L14.9992 13.307ZM13.4302 13.368L13.8949 12.7793L12.8459 11.9513L12.3812 12.54L11.9166 13.1287L12.9656 13.9567L13.4302 13.368ZM12.3812 12.54L12.8421 11.9483C12.0044 11.2957 10.7997 11.4268 10.1219 12.2443L10.6992 12.723L11.2766 13.2017C11.437 13.0082 11.7221 12.9772 11.9203 13.1317L12.3812 12.54ZM10.6992 12.723L10.1003 12.2716C10.0767 12.3029 10.0513 12.333 10.0245 12.3616L10.5712 12.875L11.118 13.3884C11.1819 13.3203 11.242 13.2489 11.2982 13.1744L10.6992 12.723ZM10.5712 12.875L10.0358 12.3498L7.32979 15.1088L7.86523 15.634L8.40068 16.1592L11.1067 13.4002L10.5712 12.875Z" fill="#172E55"/>
</svg>
