<svg width="24" height="25" viewBox="0 0 24 25" fill="none" xmlns="http://www.w3.org/2000/svg">
<path d="M8.43576 13.787C8.43576 13.3601 8.78184 13.014 9.20876 13.014H12.6443C13.0712 13.014 13.4173 13.3601 13.4173 13.787C13.4173 14.2139 13.0712 14.56 12.6443 14.56H9.20876C8.78184 14.56 8.43576 14.2139 8.43576 13.787Z" fill="#172E55"/>
<path d="M8.43576 16.7935C8.43576 16.3666 8.78184 16.0205 9.20876 16.0205H12.6443C13.0712 16.0205 13.4173 16.3666 13.4173 16.7935C13.4173 17.2204 13.0712 17.5665 12.6443 17.5665H9.20876C8.78184 17.5665 8.43576 17.2204 8.43576 16.7935Z" fill="#172E55"/>
<path fill-rule="evenodd" clip-rule="evenodd" d="M13.0987 4.04131C12.9071 3.99534 12.7122 3.99579 12.5474 3.99616L12.5043 3.99623H8.49102C8.03592 3.99622 7.64841 3.99621 7.33026 4.0222C6.99601 4.04951 6.67084 4.10932 6.35998 4.26771C5.89132 4.50651 5.51028 4.88755 5.27148 5.35622C5.11309 5.66708 5.05328 5.99225 5.02597 6.32649C4.99998 6.64463 4.99999 7.03212 5 7.48719V17.5112C4.99999 17.9662 4.99998 18.3538 5.02597 18.6719C5.05328 19.0062 5.11309 19.3314 5.27148 19.6422C5.51028 20.1109 5.89132 20.4919 6.35998 20.7307C6.67084 20.8891 6.99601 20.9489 7.33026 20.9762C7.6484 21.0022 8.0359 21.0022 8.49097 21.0022H15.5088C15.9639 21.0022 16.3514 21.0022 16.6696 20.9762C17.0038 20.9489 17.329 20.8891 17.6398 20.7307C18.1085 20.4919 18.4895 20.1109 18.7283 19.6422C18.8867 19.3314 18.9465 19.0062 18.9738 18.6719C18.9998 18.3538 18.9998 17.9663 18.9998 17.5112V10.4914L18.9999 10.4483C19.0003 10.2835 19.0007 10.0885 18.9547 9.89694C18.9147 9.73042 18.8488 9.57123 18.7593 9.42522C18.6564 9.25727 18.5182 9.1197 18.4014 9.00344L18.3708 8.97301L14.0225 4.62507L13.9921 4.59455C13.8758 4.47777 13.7383 4.33958 13.5703 4.23668C13.4243 4.14721 13.2652 4.08129 13.0987 4.04131ZM12.5156 5.54243C12.5119 5.54243 12.5081 5.54243 12.5043 5.54243H8.52141C8.02764 5.54243 7.70379 5.54303 7.45613 5.56327C7.21749 5.58276 7.11843 5.61657 7.06183 5.6454C6.88406 5.73598 6.73953 5.88052 6.64895 6.05829C6.62012 6.11488 6.58631 6.21395 6.56681 6.45259C6.54658 6.70025 6.54598 7.02409 6.54598 7.51787V17.481C6.54598 17.9747 6.54658 18.2986 6.56681 18.5463C6.58631 18.7849 6.62012 18.884 6.64895 18.9406C6.73953 19.1183 6.88406 19.2629 7.06183 19.3534C7.11843 19.3823 7.21749 19.4161 7.45613 19.4356C7.70379 19.4558 8.02764 19.4564 8.52141 19.4564H15.4784C15.9722 19.4564 16.296 19.4558 16.5437 19.4356C16.7823 19.4161 16.8814 19.3823 16.938 19.3534C17.1157 19.2629 17.2603 19.1183 17.3508 18.9406C17.3797 18.884 17.4135 18.7849 17.433 18.5463C17.4532 18.2986 17.4538 17.9747 17.4538 17.481V10.6955L14.6372 10.6955C14.4188 10.6955 14.2109 10.6956 14.0357 10.6812C13.8447 10.6656 13.6256 10.6292 13.4066 10.5176C13.0995 10.3612 12.8499 10.1115 12.6934 9.80448C12.5818 9.58549 12.5454 9.36638 12.5298 9.17535C12.5155 9.00018 12.5155 8.79231 12.5156 8.57389L12.5156 5.54243ZM16.3607 9.1495L14.0616 6.85059V9.06361C14.0616 9.11105 14.1 9.1495 14.1474 9.1495H16.3607Z" fill="#172E55"/>
</svg>
