<svg width="25" height="24" viewBox="0 0 25 24" fill="none" xmlns="http://www.w3.org/2000/svg">
<path fill-rule="evenodd" clip-rule="evenodd" d="M12.2908 4.37012C13.6827 4.36925 15.0448 4.77373 16.2107 5.53418C17.3766 6.29463 18.2958 7.37812 18.8561 8.65234C19.4163 9.92656 19.5934 11.3364 19.3657 12.7096C19.138 14.0828 18.5154 15.3599 17.5738 16.3851L19.8788 18.6851C19.9825 18.7887 20.0408 18.9292 20.0409 19.0758C20.041 19.2223 19.9829 19.3629 19.8793 19.4666C19.7757 19.5703 19.6352 19.6286 19.4886 19.6287C19.3421 19.6288 19.2015 19.5707 19.0978 19.4671L16.7648 17.1401C15.87 17.8556 14.8168 18.3462 13.6934 18.5709C12.57 18.7956 11.4092 18.7478 10.308 18.4316C9.2069 18.1153 8.19758 17.5398 7.36461 16.7533C6.53164 15.9667 5.89927 14.9921 5.52047 13.9109C5.14167 12.8297 5.02746 11.6734 5.18742 10.539C5.34738 9.40459 5.77685 8.32502 6.43985 7.39072C7.10285 6.45641 7.98008 5.69459 8.99807 5.16904C10.0161 4.6435 11.1451 4.36954 12.2908 4.37012ZM12.2908 5.47012C11.091 5.47012 9.91825 5.82588 8.9207 6.49242C7.92315 7.15896 7.14566 8.10634 6.68653 9.21476C6.22741 10.3232 6.10729 11.5428 6.34134 12.7195C6.5754 13.8962 7.15313 14.9771 8.00148 15.8254C8.84982 16.6738 9.93068 17.2515 11.1074 17.4856C12.2841 17.7196 13.5037 17.5995 14.6121 17.1404C15.7206 16.6813 16.6679 15.9038 17.3345 14.9062C18.001 13.9087 18.3568 12.7359 18.3568 11.5361C18.3549 9.92788 17.7152 8.38605 16.5781 7.24886C15.4409 6.11166 13.899 5.47197 12.2908 5.47012Z" fill="white" stroke="white" stroke-width="0.5"/>
</svg>
