<svg width="24" height="25" viewBox="0 0 24 25" fill="none" xmlns="http://www.w3.org/2000/svg">
<path fill-rule="evenodd" clip-rule="evenodd" d="M5 11.993C5.00364 8.89226 7.19698 6.22579 10.2388 5.62416C13.2807 5.02253 16.3239 6.65327 17.5077 9.5192C18.6915 12.3851 17.686 15.6881 15.1063 17.4085C12.5265 19.1288 9.09077 18.7874 6.9 16.593C5.68148 15.3725 4.99799 13.7177 5 11.993Z" stroke="#172E55" stroke-width="1.5" stroke-linecap="round" stroke-linejoin="round"/>
<path d="M15.5625 17.0664L19.0005 20.4914" stroke="#172E55" stroke-width="1.5" stroke-linecap="round" stroke-linejoin="round"/>
<path d="M12.25 9.16406C12.25 8.74985 11.9142 8.41406 11.5 8.41406C11.0858 8.41406 10.75 8.74985 10.75 9.16406L12.25 9.16406ZM10.75 11.9925C10.75 12.4067 11.0858 12.7425 11.5 12.7425C11.9142 12.7425 12.25 12.4067 12.25 11.9925L10.75 11.9925ZM12.25 11.9925C12.25 11.5783 11.9142 11.2425 11.5 11.2425C11.0858 11.2425 10.75 11.5783 10.75 11.9925L12.25 11.9925ZM10.75 14.8209C10.75 15.2351 11.0858 15.5709 11.5 15.5709C11.9142 15.5709 12.25 15.2351 12.25 14.8209H10.75ZM11.5 12.7425C11.9142 12.7425 12.25 12.4067 12.25 11.9925C12.25 11.5783 11.9142 11.2425 11.5 11.2425V12.7425ZM8.67157 11.2425C8.25736 11.2425 7.92157 11.5783 7.92157 11.9925C7.92157 12.4067 8.25736 12.7425 8.67157 12.7425L8.67157 11.2425ZM11.5 11.2425C11.0858 11.2425 10.75 11.5783 10.75 11.9925C10.75 12.4067 11.0858 12.7425 11.5 12.7425L11.5 11.2425ZM14.3284 12.7425C14.7426 12.7425 15.0784 12.4067 15.0784 11.9925C15.0784 11.5783 14.7426 11.2425 14.3284 11.2425L14.3284 12.7425ZM11.5 9.16406L10.75 9.16406L10.75 11.9925H11.5L12.25 11.9925L12.25 9.16406L11.5 9.16406ZM11.5 11.9925H10.75V14.8209H11.5H12.25L12.25 11.9925L11.5 11.9925ZM11.5 11.9925V11.2425L8.67157 11.2425L8.67157 11.9925L8.67157 12.7425L11.5 12.7425V11.9925ZM11.5 11.9925L11.5 12.7425L14.3284 12.7425L14.3284 11.9925L14.3284 11.2425H11.5L11.5 11.9925Z" fill="#172E55"/>
</svg>
