<svg width="24" height="24" viewBox="0 0 24 24" fill="none" xmlns="http://www.w3.org/2000/svg">
<path d="M21.2992 3.8984C21.2982 4.46047 21.1306 5.00963 20.8176 5.47648C20.5046 5.94332 20.0602 6.30691 19.5407 6.5213C19.0211 6.73569 18.4496 6.79125 17.8985 6.68097C17.3473 6.5707 16.8412 6.29953 16.4442 5.90173C16.0471 5.50393 15.7768 4.99735 15.6675 4.44601C15.5583 3.89467 15.6149 3.3233 15.8302 2.80412C16.0455 2.28493 16.4099 1.84123 16.8773 1.52907C17.3447 1.2169 17.8942 1.05029 18.4562 1.05029C19.2109 1.05102 19.9344 1.35148 20.4676 1.8856C21.0007 2.41971 21.2999 3.14373 21.2992 3.8984Z" fill="#FFCC24"/>
<path d="M8.42813 3.8984C8.42711 4.46047 8.25951 5.00963 7.9465 5.47648C7.63349 5.94332 7.18913 6.30691 6.66955 6.5213C6.14998 6.73569 5.57852 6.79125 5.02738 6.68097C4.47623 6.5707 3.97015 6.29953 3.57306 5.90173C3.17598 5.50393 2.90572 4.99735 2.79644 4.44601C2.68716 3.89467 2.74376 3.3233 2.95909 2.80412C3.17442 2.28493 3.53881 1.84123 4.00622 1.52907C4.47364 1.2169 5.02309 1.05029 5.58516 1.05029C6.33973 1.05134 7.06302 1.3519 7.59611 1.88594C8.12919 2.41999 8.42844 3.14383 8.42813 3.8984Z" fill="#FFCC24"/>
<path d="M16.6076 8.90771V15.1175C16.6076 17.7265 14.9213 19.8546 12.0203 19.8546C9.35479 19.8546 7.43548 17.8253 7.43548 15.3593V8.90771H3.73828V15.1175C3.73828 19.7593 7.05988 23.143 12.0203 23.143C17.0758 23.143 20.3024 19.7093 20.3024 15.1175V8.90771H16.6076Z" fill="#FFCC24"/>
</svg>
