<svg width="28" height="28" viewBox="0 0 28 28" fill="none" xmlns="http://www.w3.org/2000/svg">
<path d="M22.75 0H5.25C2.35051 0 0 2.35051 0 5.25V22.75C0 25.6495 2.35051 28 5.25 28H22.75C25.6495 28 28 25.6495 28 22.75V5.25C28 2.35051 25.6495 0 22.75 0Z" fill="#96622F"/>
<path d="M11.0308 20.6396H8.05908V22.2126H11.4458V23.3125H6.80981V17.1948H11.2964V18.2781H8.05908V19.5771H11.0308V20.6396Z" fill="white"/>
<path d="M22.0264 22.856C21.5698 23.2738 20.986 23.4827 20.2749 23.4827C19.395 23.4827 18.7033 23.2004 18.1997 22.636C17.6961 22.0688 17.4443 21.2913 17.4443 20.3035C17.4443 19.2354 17.7307 18.4123 18.3035 17.834C18.8015 17.3304 19.4351 17.0786 20.2043 17.0786C21.2336 17.0786 21.9862 17.4162 22.4622 18.0913C22.725 18.4704 22.8661 18.8508 22.8855 19.2327H21.6072C21.5242 18.9394 21.4176 18.718 21.2876 18.5686C21.0552 18.303 20.7107 18.1702 20.2542 18.1702C19.7893 18.1702 19.4227 18.3583 19.1543 18.7346C18.8859 19.1082 18.7517 19.638 18.7517 20.3242C18.7517 21.0104 18.8928 21.5251 19.175 21.8682C19.46 22.2085 19.8211 22.3787 20.2583 22.3787C20.7065 22.3787 21.0483 22.232 21.2834 21.9387C21.4135 21.781 21.5214 21.5444 21.6072 21.229H22.873C22.7624 21.8958 22.4801 22.4382 22.0264 22.856Z" fill="white"/>
<path d="M16.6423 17.1948V18.2781H14.812V23.3125H13.5254V18.2781H11.6868V17.1948H16.6423Z" fill="white"/>
<path fill-rule="evenodd" clip-rule="evenodd" d="M7.87518 13.825V5.075C7.87518 4.4625 7.99943 4.375 8.62856 4.375H10.9246C11.4732 4.375 11.4627 5.75837 12.5311 5.75837H18.7366C19.1074 5.76138 19.4619 5.91141 19.7223 6.17553C19.9826 6.43964 20.1275 6.79627 20.1252 7.16712V13.7428C20.1252 14.8313 20.1042 14.875 19.0428 14.875H8.73618C7.84018 14.875 7.87518 14.7184 7.87518 13.825ZM19.0533 10.045L18.2107 9.009H8.94706V7.26862H19.0533V10.045Z" fill="white"/>
</svg>
