<svg width="28" height="28" viewBox="0 0 28 28" fill="none" xmlns="http://www.w3.org/2000/svg">
<path d="M21 0H7C3.13401 0 0 3.13401 0 7V21C0 24.866 3.13401 28 7 28H21C24.866 28 28 24.866 28 21V7C28 3.13401 24.866 0 21 0Z" fill="#0973BA"/>
<path d="M12.374 6.17576C13.3596 6.24511 14.3215 6.51055 15.2031 6.95649C16.0848 7.40244 16.8686 8.01993 17.5085 8.77276C17.5085 8.77276 16.3911 4.96738 14.0356 5.02776C13.6659 4.98064 13.2917 5.07177 12.985 5.28365C12.6784 5.49554 12.4608 5.81323 12.374 6.17576Z" fill="white"/>
<path d="M17.8106 9.97978C17.8106 9.97978 15.1698 6.86915 11.6488 7.17102C11.6488 7.17102 8.77973 7.01965 9.14198 9.9194C9.14198 9.9194 12.7671 9.04441 14.6247 10.1312C14.6247 10.1312 9.29336 10.8259 9.59523 15.1449C9.59523 15.1449 9.50771 18.7692 14.1557 18.4699C14.1557 18.4699 19.1695 18.0473 18.5955 12.0369C19.2118 12.1074 19.8072 12.3027 20.3455 12.6109C20.3455 12.6109 21.1513 9.91328 17.8106 9.97978ZM14.9415 16.2614C12.3165 17.0769 12.3742 14.8422 12.3742 14.8422C12.5553 11.973 16.0895 11.882 16.0895 11.882C17.9007 15.0233 14.9415 16.2614 14.9415 16.2614Z" fill="white"/>
<path d="M14.2772 22.6628C14.961 22.6628 15.5153 22.1084 15.5153 21.4246C15.5153 20.7409 14.961 20.1865 14.2772 20.1865C13.5934 20.1865 13.0391 20.7409 13.0391 21.4246C13.0391 22.1084 13.5934 22.6628 14.2772 22.6628Z" fill="white"/>
</svg>
