<svg width="28" height="28" viewBox="0 0 28 28" fill="none" xmlns="http://www.w3.org/2000/svg">
<path d="M21 0H7C3.13401 0 0 3.13401 0 7V21C0 24.866 3.13401 28 7 28H21C24.866 28 28 24.866 28 21V7C28 3.13401 24.866 0 21 0Z" fill="#FEE500"/>
<g clip-path="url(#clip0_1656_7832)">
<path d="M13.997 6.67871C9.64997 6.67871 6.125 9.47533 6.125 12.9265C6.125 15.1578 7.59768 17.1125 9.81557 18.2222L9.01713 21.0932C9.01713 21.0932 9.00235 21.2271 9.08811 21.2777C9.17386 21.3282 9.27737 21.2896 9.27737 21.2896C9.52577 21.2539 12.1458 19.4004 12.6042 19.079C13.0567 19.1445 13.5268 19.1772 14.003 19.1772C18.35 19.1772 21.875 16.3806 21.875 12.9295C21.875 9.47831 18.3441 6.67871 13.997 6.67871Z" fill="black"/>
<path d="M13.997 6.67871C9.64997 6.67871 6.125 9.47533 6.125 12.9265C6.125 15.1578 7.59768 17.1125 9.81557 18.2222L9.01713 21.0932C9.01713 21.0932 9.00235 21.2271 9.08811 21.2777C9.17386 21.3282 9.27737 21.2896 9.27737 21.2896C9.52577 21.2539 12.1458 19.4004 12.6042 19.079C13.0567 19.1445 13.5268 19.1772 14.003 19.1772C18.35 19.1772 21.875 16.3806 21.875 12.9295C21.875 9.47831 18.3441 6.67871 13.997 6.67871Z" fill="black" fill-opacity="0.2"/>
<path d="M9.64387 15.1038C9.39251 15.1038 9.18846 14.9075 9.18846 14.6665V11.9502H8.47873C8.23329 11.9502 8.03516 11.7509 8.03516 11.5039C8.03516 11.257 8.23625 11.0577 8.47873 11.0577H10.806C11.0515 11.0577 11.2496 11.257 11.2496 11.5039C11.2496 11.7509 11.0485 11.9502 10.806 11.9502H10.0963V14.6665C10.0963 14.9045 9.88931 15.1038 9.64091 15.1038H9.64387ZM13.6272 15.0979C13.4379 15.0979 13.293 15.0205 13.2487 14.8956L13.0239 14.3006H11.64L11.4152 14.8956C11.3709 15.0205 11.226 15.0979 11.0367 15.0979C10.9362 15.0979 10.8386 15.0771 10.7469 15.0384C10.6227 14.9789 10.5015 14.8212 10.6404 14.3898L11.7257 11.5129C11.8026 11.2927 12.0362 11.0666 12.332 11.0606C12.6277 11.0547 12.8642 11.2927 12.9382 11.5129L14.0235 14.3898C14.1625 14.8212 14.0412 14.9848 13.917 15.0384C13.8283 15.08 13.7277 15.0979 13.6272 15.0979ZM12.7844 13.4913L12.332 12.1942L11.8795 13.4913H12.7844ZM14.7539 15.0384C14.5173 15.0384 14.3192 14.851 14.3192 14.6219V11.5129C14.3192 11.26 14.5262 11.0547 14.7835 11.0547C15.0407 11.0547 15.2477 11.2629 15.2477 11.5129V14.1964H16.2118C16.4484 14.1964 16.6465 14.3839 16.6465 14.6129C16.6465 14.842 16.4513 15.0295 16.2118 15.0295L14.7539 15.0384ZM16.821 14.6397V11.5158C16.821 11.2629 17.028 11.0577 17.2764 11.0577C17.5248 11.0577 17.7318 11.2659 17.7318 11.5158V12.4976L19.0034 11.2183C19.1433 11.0775 19.408 11.0898 19.5682 11.251C19.7187 11.4025 19.7579 11.6584 19.6007 11.8193L18.5598 12.8606L19.6776 14.3482C19.8278 14.5416 19.7914 14.8429 19.5889 14.9848C19.3893 15.1336 19.096 15.084 18.9531 14.8956L17.8885 13.4764L17.7318 13.6341V14.6308C17.7318 15.2245 16.821 15.2473 16.821 14.6397Z" fill="#FEE500"/>
</g>
<defs>
<clipPath id="clip0_1656_7832">
<rect width="15.75" height="15.75" fill="white" transform="translate(6.125 6.125)"/>
</clipPath>
</defs>
</svg>
