<svg width="28" height="28" viewBox="0 0 28 28" fill="none" xmlns="http://www.w3.org/2000/svg">
<path d="M22.75 0H5.25C2.35051 0 0 2.35051 0 5.25V22.75C0 25.6495 2.35051 28 5.25 28H22.75C25.6495 28 28 25.6495 28 22.75V5.25C28 2.35051 25.6495 0 22.75 0Z" fill="#3A3A3A"/>
<path d="M4.30261 17.3096H6.81824L7.78851 21.0721L8.7511 17.3096H11.265V23.5002H9.69873V18.7752L8.49112 23.5002H7.07288L5.86804 18.7752V23.5002H4.30176L4.30261 17.3096Z" fill="white"/>
<path d="M12.4778 17.3101H15.6575C16.2206 17.2668 16.7786 17.4441 17.2133 17.8045C17.3927 17.99 17.5313 18.2108 17.6203 18.453C17.7093 18.6951 17.747 18.9532 17.7305 19.2106C17.7459 19.4809 17.7036 19.7513 17.6064 20.004C17.5093 20.2567 17.3595 20.4859 17.167 20.6762C16.681 21.0639 16.0654 21.2517 15.4458 21.2012H14.3959V23.4981H12.4707L12.4778 17.3101ZM14.4027 19.9491H14.8718C15.1452 19.9754 15.4193 19.9074 15.6488 19.7566C15.7209 19.6969 15.7785 19.6217 15.8173 19.5365C15.8561 19.4513 15.8752 19.3584 15.8729 19.2648C15.8749 19.1737 15.8588 19.0831 15.8254 18.9982C15.7921 18.9133 15.742 18.8359 15.6785 18.7705C15.4707 18.6102 15.2086 18.5374 14.9479 18.5675H14.4027V19.9491Z" fill="white"/>
<path d="M20.1195 19.0955L18.4938 18.8042C18.6023 18.3267 18.8785 17.9041 19.2725 17.6133C19.7603 17.3092 20.3308 17.1646 20.9046 17.1994C21.5223 17.1465 22.1396 17.3057 22.6546 17.6509C22.8262 17.7861 22.9641 17.9591 23.0579 18.1564C23.1517 18.3537 23.1987 18.57 23.1953 18.7884C23.1977 19.0472 23.1211 19.3006 22.9756 19.5146C22.8027 19.7543 22.5754 19.9495 22.3123 20.0843C22.5045 20.1252 22.6894 20.1948 22.8609 20.2908C23.0619 20.4127 23.2274 20.5853 23.3405 20.7913C23.4611 21.0194 23.5213 21.2745 23.5155 21.5324C23.5145 21.8969 23.417 22.2547 23.2328 22.5693C23.0444 22.9004 22.7606 23.1668 22.4183 23.334C21.9786 23.5302 21.4993 23.6219 21.0182 23.6018C20.5655 23.6194 20.1135 23.5521 19.6856 23.4032C19.3734 23.2803 19.0974 23.0804 18.8833 22.8222C18.6583 22.5375 18.4936 22.21 18.3994 21.8596L20.1178 21.6313C20.1483 21.8974 20.2582 22.1483 20.4329 22.3514C20.5803 22.487 20.7751 22.559 20.9753 22.5518C21.0841 22.5541 21.192 22.5326 21.2917 22.4888C21.3913 22.4449 21.4803 22.3798 21.5521 22.298C21.7125 22.1107 21.7948 21.8689 21.7821 21.6225C21.7975 21.38 21.7182 21.141 21.5608 20.9558C21.4829 20.8761 21.3888 20.8137 21.285 20.773C21.1813 20.7323 21.07 20.7141 20.9586 20.7195C20.7692 20.7289 20.5818 20.7631 20.4013 20.8211L20.4889 19.596C20.563 19.6082 20.6379 19.6152 20.713 19.617C20.8164 19.6199 20.9194 19.6024 21.0161 19.5655C21.1128 19.5286 21.2011 19.4729 21.2763 19.4018C21.3478 19.3374 21.4051 19.2585 21.444 19.1704C21.4829 19.0824 21.5026 18.9871 21.5021 18.8908C21.5059 18.808 21.4931 18.7253 21.4641 18.6477C21.435 18.5701 21.3905 18.4992 21.3333 18.4393C21.2713 18.3811 21.1981 18.3362 21.1182 18.3071C21.0383 18.2781 20.9535 18.2656 20.8687 18.2704C20.7782 18.2667 20.6878 18.281 20.6029 18.3125C20.5181 18.3441 20.4402 18.3922 20.3741 18.4542C20.2238 18.6358 20.1347 18.8602 20.1195 19.0955Z" fill="white"/>
<path d="M15.9733 6.29173C15.3559 5.71564 14.9412 4.95539 14.7912 4.12436C14.7912 4.01575 14.7481 3.91159 14.6713 3.83479C14.5945 3.758 14.4902 3.71484 14.3816 3.71484C14.273 3.71484 14.169 3.758 14.0922 3.83479C14.0154 3.91159 13.9721 4.01575 13.9721 4.12436V12.0387C13.2521 11.6935 12.4342 11.6102 11.6594 11.8034C10.1518 12.1315 9.10707 13.213 9.32582 14.2184C9.54457 15.2237 10.9448 15.7723 12.4533 15.4433C13.9618 15.1143 14.9907 14.0486 14.7912 13.0494V7.95425C15.2379 8.00596 15.6625 8.17727 16.0199 8.45017C16.3774 8.72307 16.6545 9.08741 16.8221 9.50472C17.0853 10.0433 17.2093 10.6392 17.1829 11.2381C17.1564 11.837 16.9803 12.4197 16.6706 12.933C19.8959 9.47675 15.9733 6.29173 15.9733 6.29173Z" fill="white"/>
</svg>
