<svg width="28" height="28" viewBox="0 0 28 28" fill="none" xmlns="http://www.w3.org/2000/svg">
<path d="M22.75 0H5.25C2.35051 0 0 2.35051 0 5.25V22.75C0 25.6495 2.35051 28 5.25 28H22.75C25.6495 28 28 25.6495 28 22.75V5.25C28 2.35051 25.6495 0 22.75 0Z" fill="#5B5B5B"/>
<path d="M8.9649 20.3878H7.82822V22.3125H6.71695V16.9595H9.04843C9.58591 16.9595 10.0144 17.0975 10.334 17.3735C10.6536 17.6495 10.8134 18.0769 10.8134 18.6555C10.8134 19.2874 10.6536 19.7341 10.334 19.9955C10.0144 20.257 9.55806 20.3878 8.9649 20.3878ZM9.48785 19.2729C9.63312 19.1445 9.70575 18.9412 9.70575 18.6628C9.70575 18.3843 9.63191 18.1858 9.48422 18.0672C9.33896 17.9485 9.13438 17.8892 8.87048 17.8892H7.82822V19.4653H8.87048C9.13438 19.4653 9.34017 19.4012 9.48785 19.2729Z" fill="white"/>
<path d="M20.912 22.1818C20.6166 22.3633 20.2535 22.4541 19.8225 22.4541C19.1131 22.4541 18.5321 22.2084 18.0793 21.7169C17.6072 21.223 17.3712 20.5475 17.3712 19.6905C17.3712 18.8238 17.6097 18.1289 18.0866 17.606C18.5636 17.083 19.1942 16.8215 19.9787 16.8215C20.659 16.8215 21.2049 16.9946 21.6165 17.3409C22.0305 17.6846 22.2678 18.1144 22.3283 18.6301H21.2279C21.1432 18.2645 20.9362 18.0091 20.6069 17.8638C20.4229 17.7839 20.2184 17.744 19.9932 17.744C19.5622 17.744 19.2076 17.9074 18.9291 18.2342C18.6531 18.5586 18.5151 19.0477 18.5151 19.7014C18.5151 20.3599 18.6652 20.826 18.9655 21.0995C19.2657 21.3731 19.607 21.5099 19.9896 21.5099C20.3648 21.5099 20.6723 21.4022 20.912 21.1867C21.1517 20.9688 21.2994 20.6843 21.355 20.3333H20.1167V19.4399H22.3465V22.3125H21.6056L21.493 21.6443C21.2776 21.8985 21.0839 22.0777 20.912 22.1818Z" fill="white"/>
<path d="M16.4452 22.3125H15.3267L13.1404 18.5102V22.3125H12.0982V16.9595H13.2712L15.4029 20.6964V16.9595H16.4452V22.3125Z" fill="white"/>
<path d="M10.6675 5.9561C10.6672 6.30521 10.5439 6.63993 10.3247 6.8868C10.1055 7.13366 9.80818 7.27249 9.49812 7.27283L7.875 7.27283L7.875 13.1566C7.875 13.6124 8.03579 14.0494 8.322 14.3717C8.60821 14.694 8.99639 14.875 9.40114 14.875L18.6011 14.875C19.0055 14.8743 19.3931 14.693 19.6788 14.3708C19.9645 14.0486 20.125 13.6119 20.125 13.1566L20.125 6.09339C20.125 5.63798 19.9644 5.20119 19.6786 4.87898C19.3928 4.55677 19.005 4.37551 18.6006 4.375L10.6675 4.375L10.6675 5.9561Z" fill="white"/>
<path d="M10.6675 4.37561L10.6675 5.95671C10.6672 6.30582 10.5439 6.64054 10.3247 6.8874C10.1055 7.13427 9.80818 7.2731 9.49812 7.27344L7.875 7.27344L10.6675 4.37561Z" fill="#969696"/>
<path d="M11.375 11.375L11.375 12.25L12.25 12.25L12.25 11.375L11.375 11.375Z" fill="#5B5B5B"/>
<path d="M12.25 10.5L12.25 11.375L13.125 11.375L13.125 10.5L12.25 10.5Z" fill="#5B5B5B"/>
<path d="M11.375 9.625L11.375 10.5L12.25 10.5L12.25 9.625L11.375 9.625Z" fill="#5B5B5B"/>
<path d="M12.25 8.75L12.25 9.625L13.125 9.625L13.125 8.75L12.25 8.75Z" fill="#5B5B5B"/>
<path d="M11.375 7.875L11.375 8.75L12.25 8.75L12.25 7.875L11.375 7.875Z" fill="#5B5B5B"/>
<path d="M12.25 7L12.25 7.875L13.125 7.875L13.125 7L12.25 7Z" fill="#5B5B5B"/>
<path d="M13.125 11.375L13.125 12.25L14 12.25L14 11.375L13.125 11.375Z" fill="#5B5B5B"/>
<path d="M14 10.5L14 11.375L14.875 11.375L14.875 10.5L14 10.5Z" fill="#5B5B5B"/>
<path d="M13.125 9.625L13.125 10.5L14 10.5L14 9.625L13.125 9.625Z" fill="#5B5B5B"/>
<path d="M14 8.75L14 9.625L14.875 9.625L14.875 8.75L14 8.75Z" fill="#5B5B5B"/>
<path d="M13.125 7.875L13.125 8.75L14 8.75L14 7.875L13.125 7.875Z" fill="#5B5B5B"/>
<path d="M14 7L14 7.875L14.875 7.875L14.875 7L14 7Z" fill="#5B5B5B"/>
<path d="M14.875 11.375L14.875 12.25L15.75 12.25L15.75 11.375L14.875 11.375Z" fill="#5B5B5B"/>
<path d="M15.75 10.5L15.75 11.375L16.625 11.375L16.625 10.5L15.75 10.5Z" fill="#5B5B5B"/>
<path d="M14.875 9.625L14.875 10.5L15.75 10.5L15.75 9.625L14.875 9.625Z" fill="#5B5B5B"/>
<path d="M15.75 8.75L15.75 9.625L16.625 9.625L16.625 8.75L15.75 8.75Z" fill="#5B5B5B"/>
<path d="M14.875 7.875L14.875 8.75L15.75 8.75L15.75 7.875L14.875 7.875Z" fill="#5B5B5B"/>
<path d="M15.75 7L15.75 7.875L16.625 7.875L16.625 7L15.75 7Z" fill="#5B5B5B"/>
</svg>
