<svg width="28" height="28" viewBox="0 0 28 28" fill="none" xmlns="http://www.w3.org/2000/svg">
<path d="M21 0H7C3.13401 0 0 3.13401 0 7V21C0 24.866 3.13401 28 7 28H21C24.866 28 28 24.866 28 21V7C28 3.13401 24.866 0 21 0Z" fill="#FFCA1C"/>
<path d="M20.6671 0.30957H18.3291V1.4077H20.6671V0.30957Z" fill="white"/>
<path d="M23.004 1.4082H20.666V2.50633H23.004V1.4082Z" fill="white"/>
<path d="M20.6671 2.50586H18.3291V3.60398H20.6671V2.50586Z" fill="white"/>
<path d="M23.004 3.60449H20.666V4.70262H23.004V3.60449Z" fill="white"/>
<path d="M20.6732 4.70215C20.2232 4.70215 19.7916 4.88091 19.4734 5.19909C19.1553 5.51727 18.9766 5.94881 18.9766 6.39878V9.10165C18.9766 9.55174 19.1554 9.9834 19.4737 10.3017C19.7919 10.6199 20.2235 10.7987 20.6736 10.7987C21.1237 10.7987 21.5555 10.6199 21.8737 10.3017C22.192 9.9834 22.3706 9.55174 22.3706 9.10165V6.4014C22.371 6.1783 22.3274 5.95734 22.2422 5.75113C22.1571 5.54493 22.032 5.35754 21.8744 5.1997C21.7167 5.04187 21.5295 4.91667 21.3234 4.8313C21.1173 4.74592 20.8963 4.70203 20.6732 4.70215ZM21.2367 9.83841H20.1088V7.4164H21.2367V9.83841Z" fill="white"/>
<path d="M4.50372 14.0889H11.3497V15.6534L6.95547 20.2357H11.5108V21.9184H4.08203V20.2952L8.43076 15.761H4.50372V14.0889Z" fill="white"/>
<path d="M12.6963 14.0889H15.1209V21.9175H12.6963V14.0889Z" fill="white"/>
<path d="M16.8457 14.0892H20.8706C21.5828 14.0342 22.2885 14.2582 22.8385 14.714C23.0653 14.9485 23.2408 15.2277 23.3535 15.5339C23.4662 15.8401 23.5137 16.1664 23.493 16.492C23.5123 16.8338 23.4587 17.1758 23.3358 17.4953C23.2128 17.8148 23.0234 18.1045 22.7799 18.3452C22.166 18.8367 21.3877 19.0755 20.6038 19.0129H19.278V21.9179H16.8483L16.8457 14.0892ZM19.2755 17.4265H19.8678C20.2135 17.4596 20.5602 17.3738 20.8505 17.1832C20.9413 17.1074 21.0139 17.0121 21.0628 16.9044C21.1118 16.7967 21.1358 16.6794 21.1331 16.5611C21.1356 16.4459 21.1151 16.3313 21.0729 16.2241C21.0307 16.1168 20.9676 16.019 20.8872 15.9364C20.6244 15.7338 20.293 15.6418 19.9633 15.68H19.2746L19.2755 17.4265Z" fill="white"/>
</svg>
