<svg width="82" height="81" viewBox="0 0 82 81" fill="none" xmlns="http://www.w3.org/2000/svg">
<path d="M68.6911 14.4946C64.9004 10.3877 60.4142 7.30633 55.5805 5.26428C50.5983 3.15946 45.2469 2.15888 39.9074 2.27779C30.9748 2.47671 22.0756 5.80875 14.994 12.3453C-0.427566 26.5799 -1.38981 50.6209 12.8447 66.0424C27.0793 81.464 51.1203 82.4262 66.5419 68.1917C73.6235 61.6551 77.6561 53.0507 78.5683 44.1626" stroke="#E7E9ED" stroke-width="4" stroke-linecap="round"/>
<path d="M79.4496 24.9791L74.4999 20L69.5503 24.9791L69.1943 25.3643C66.8224 28.131 66.9407 32.3126 69.5503 34.9374C72.2838 37.6875 76.7161 37.6875 79.4496 34.9374C82.1835 32.1877 82.1835 27.7289 79.4496 24.9791Z" fill="#E7E9ED"/>
<path d="M29.5 53C32.4763 49.8484 36.096 48 40 48C43.904 48 47.5237 49.8484 50.5 53" stroke="#172E55" stroke-width="3.5" stroke-linecap="round"/>
<circle cx="50.25" cy="36.5" r="3.5" fill="#172E55"/>
<circle cx="30.25" cy="36.5" r="3.5" fill="#172E55"/>
</svg>
