<svg width="101" height="100" viewBox="0 0 101 100" fill="none" xmlns="http://www.w3.org/2000/svg">
<circle cx="50.5" cy="50" r="50" fill="#F3F3F3"/>
<path d="M77.5651 31.2519H57.0405C54.5102 31.2554 52.0316 31.9246 49.8859 33.1835C47.7319 31.9242 45.246 31.2552 42.7085 31.2519H22.1853C21.7383 31.2519 21.3097 31.4186 20.9936 31.7153C20.6776 32.012 20.5 32.4144 20.5 32.834V70.1788C20.5052 70.5969 20.6844 70.9965 20.9993 71.2921C21.3143 71.5878 21.7399 71.756 22.1853 71.7609H42.7085C44.9272 71.7588 47.086 72.4366 48.8571 73.6912C49.1477 73.904 49.5058 74.0197 49.8745 74.0197C50.2432 74.0197 50.6013 73.904 50.8919 73.6912C52.6646 72.4394 54.8223 71.762 57.0405 71.7609H77.5651C78.0121 71.7609 78.4408 71.5942 78.7568 71.2975C79.0729 71.0008 79.2504 70.5984 79.2504 70.1788C79.2504 70.1788 79.2504 34.5401 79.2504 32.8353C79.2504 31.1305 79.5005 31.2519 77.5651 31.2519Z" stroke="#C8C8C8" stroke-width="3" stroke-linecap="round"/>
<path d="M49.8789 32.2822V73.3649" stroke="#C8C8C8" stroke-width="3"/>
<path d="M58.8711 43.2578H70.6212" stroke="#C8C8C8" stroke-width="3" stroke-linecap="round"/>
<path d="M58.8711 51.5322H70.6212" stroke="#C8C8C8" stroke-width="3" stroke-linecap="round"/>
<path d="M58.8711 59.8057H70.6212" stroke="#C8C8C8" stroke-width="3" stroke-linecap="round"/>
<path d="M29.0312 43.2578H40.7813" stroke="#C8C8C8" stroke-width="3" stroke-linecap="round"/>
<path d="M29.0312 51.5322H40.7813" stroke="#C8C8C8" stroke-width="3" stroke-linecap="round"/>
<path d="M29.0312 59.8057H40.7813" stroke="#C8C8C8" stroke-width="3" stroke-linecap="round"/>
</svg>
