<svg width="120" height="128" viewBox="0 0 120 128" fill="none" xmlns="http://www.w3.org/2000/svg">
<path d="M47.9258 32.575C47.8424 32.2796 47.6923 32.0073 47.4871 31.7791C47.2819 31.5508 47.0271 31.3728 46.7422 31.2586L36.7422 27.2586C36.3394 27.0988 35.8957 27.0737 35.4774 27.1871C35.0592 27.3004 34.6889 27.5461 34.4219 27.8875L24.2109 41.0164C21.4885 44.5278 20.0076 48.8429 20 53.286V101.116C19.9999 101.379 20.0515 101.639 20.1519 101.882C20.2524 102.124 20.3997 102.345 20.5855 102.531C20.7712 102.716 20.9917 102.864 21.2345 102.964C21.4772 103.065 21.7373 103.116 22 103.116H34C34.2627 103.116 34.5228 103.065 34.7655 102.964C35.0083 102.864 35.2288 102.716 35.4145 102.531C35.6003 102.345 35.7476 102.124 35.8481 101.882C35.9485 101.639 36.0001 101.379 36 101.116V53.782C36.0047 51.1865 36.8465 48.6618 38.4004 46.5828L47.5996 34.3152C47.7838 34.0696 47.909 33.7849 47.9656 33.4831C48.0221 33.1814 48.0085 32.8706 47.9258 32.575Z" fill="#FFEBA7"/>
<path d="M105.166 24.164C96.5943 17.5497 86.1875 13.7472 75.3709 13.2773L66.9666 12.9003C66.6452 12.8863 66.3252 12.9498 66.0336 13.0855C65.7419 13.2211 65.4872 13.4249 65.2908 13.6796L48.2185 35.873C48.0229 36.128 47.8915 36.4264 47.8354 36.7428C47.7793 37.0593 47.8002 37.3846 47.8963 37.6914L50.4178 45.7167C53.6474 56.0513 59.9931 65.1347 68.5858 71.7226C69.0064 72.0457 69.5382 72.1886 70.0641 72.1197C70.5901 72.0509 71.0672 71.776 71.3905 71.3554L105.533 26.9687C105.856 26.548 105.999 26.0163 105.93 25.4903C105.861 24.9644 105.586 24.4873 105.166 24.164Z" fill="#FFEBA7"/>
<path d="M105.163 24.1672C103.159 22.6242 99.2879 21.7316 92.2567 26.2609C86.535 30.2 81.502 35.0554 77.3602 40.632C68.4949 52.1574 62.4051 66.9718 68.5829 71.7257C69.7173 72.5754 71.1056 73.0166 72.5224 72.9777C75.7676 72.7333 78.877 71.5732 81.4892 69.632C87.2121 65.6953 92.2453 60.8403 96.3857 55.2629C105.251 43.7355 111.341 28.9192 105.163 24.1672Z" fill="#FFE07A"/>
<path d="M52.9721 6.72982L51.3861 5.51108C48.8631 3.5709 45.6728 2.71242 42.5169 3.12449C39.3611 3.53656 36.4981 5.18541 34.5579 7.70834C32.6178 10.2313 31.7593 13.4216 32.1714 16.5775C32.5834 19.7333 34.2323 22.5963 36.7552 24.5365L38.3412 25.7552C38.7619 26.0784 39.2936 26.2212 39.8196 26.1524C40.3455 26.0835 40.8226 25.8086 41.1459 25.388L53.3393 9.53452C53.662 9.11372 53.8046 8.58205 53.7358 8.05622C53.6669 7.53038 53.3923 7.05335 52.9721 6.72982Z" fill="#FFEBA7"/>
<path d="M38 96H18C16.9396 96.0014 15.9229 96.4232 15.1731 97.1731C14.4232 97.9229 14.0014 98.9396 14 100V110C13.9999 110.263 14.0515 110.523 14.1519 110.766C14.2524 111.008 14.3997 111.229 14.5855 111.415C14.7712 111.6 14.9917 111.748 15.2345 111.848C15.4772 111.949 15.7373 112 16 112H40C40.2627 112 40.5228 111.949 40.7655 111.848C41.0083 111.748 41.2288 111.6 41.4145 111.415C41.6003 111.229 41.7476 111.008 41.8481 110.766C41.9485 110.523 42.0001 110.263 42 110V100C41.9986 98.9396 41.5768 97.9229 40.8269 97.1731C40.0771 96.4232 39.0604 96.0014 38 96Z" fill="#FFE07A"/>
<path d="M107.997 71.997C107.734 71.9973 107.474 71.9456 107.231 71.8451C106.989 71.7445 106.768 71.597 106.583 71.411L100.583 65.411C100.395 65.2259 100.245 65.0053 100.142 64.762C100.039 64.5186 99.9856 64.2573 99.9844 63.9932C99.9832 63.7291 100.034 63.4673 100.135 63.2231C100.235 62.9788 100.383 62.7569 100.57 62.5701C100.757 62.3833 100.979 62.2354 101.223 62.1349C101.467 62.0343 101.729 61.9832 101.993 61.9844C102.257 61.9856 102.519 62.0391 102.762 62.1418C103.005 62.2446 103.226 62.3945 103.411 62.583L109.411 68.583C109.691 68.8627 109.881 69.219 109.958 69.6069C110.035 69.9948 109.996 70.3969 109.844 70.7623C109.693 71.1277 109.437 71.44 109.108 71.6598C108.779 71.8795 108.392 71.9969 107.997 71.997Z" fill="#FFEBA7"/>
<path d="M94 82C93.7373 82.0001 93.4772 81.9485 93.2345 81.8481C92.9917 81.7476 92.7712 81.6003 92.5854 81.4146C92.3997 81.2288 92.2524 81.0083 92.1519 80.7655C92.0515 80.5228 91.9999 80.2627 92 80V70C92 69.4696 92.2107 68.9609 92.5858 68.5858C92.9609 68.2107 93.4696 68 94 68C94.5304 68 95.0391 68.2107 95.4142 68.5858C95.7893 68.9609 96 69.4696 96 70V80C96.0002 80.2627 95.9485 80.5228 95.8481 80.7655C95.7476 81.0083 95.6003 81.2288 95.4146 81.4146C95.2288 81.6003 95.0083 81.7476 94.7655 81.8481C94.5228 81.9485 94.2627 82.0001 94 82Z" fill="#FFEBA7"/>
<path d="M118 58H108C107.47 58 106.961 57.7893 106.586 57.4142C106.211 57.0391 106 56.5304 106 56C106 55.4696 106.211 54.9609 106.586 54.5858C106.961 54.2107 107.47 54 108 54H118C118.53 54 119.039 54.2107 119.414 54.5858C119.789 54.9609 120 55.4696 120 56C120 56.5304 119.789 57.0391 119.414 57.4142C119.039 57.7893 118.53 58 118 58Z" fill="#FFEBA7"/>
<path d="M76 96C73.3488 96.0031 70.8071 97.0577 68.9324 98.9324C67.0577 100.807 66.0031 103.349 66 106V110C65.9999 110.263 66.0515 110.523 66.1519 110.766C66.2524 111.008 66.3997 111.229 66.5854 111.415C66.7712 111.6 66.9917 111.748 67.2345 111.848C67.4772 111.949 67.7373 112 68 112H84C84.2627 112 84.5228 111.949 84.7655 111.848C85.0083 111.748 85.2288 111.6 85.4146 111.415C85.6003 111.229 85.7476 111.008 85.8481 110.766C85.9485 110.523 86.0001 110.263 86 110V106C85.9969 103.349 84.9423 100.807 83.0676 98.9324C81.1929 97.0577 78.6512 96.0031 76 96Z" fill="#FFE07A"/>
<path d="M70.875 10.0977C70.7752 9.3157 70.5214 8.56126 70.1282 7.87802C69.7349 7.19478 69.2101 6.59631 68.584 6.11723L62.2422 1.24027C60.9799 0.272603 59.3855 -0.155229 57.8084 0.0505197C56.2313 0.256268 54.8 1.07882 53.8282 2.33793L34.3184 27.7032C33.3507 28.9654 32.9229 30.5598 33.1286 32.137C33.3344 33.7141 34.1569 35.1454 35.4161 36.1172L41.7579 40.9941C43.0201 41.9617 44.6145 42.3895 46.1916 42.1838C47.7688 41.978 49.2 41.1555 50.1719 39.8965L69.6817 14.5313C70.1638 13.9079 70.5175 13.195 70.7224 12.434C70.9272 11.673 70.9791 10.8789 70.875 10.0977Z" fill="#FFE07A"/>
<path d="M89.5803 36.3036C88.5994 34.4418 87.1397 32.8753 85.3516 31.7656C82.4571 34.5022 79.7859 37.4657 77.3636 40.6278C74.9248 43.797 72.747 47.1586 70.8516 50.6797C72.5576 52.2558 74.6887 53.2965 76.9807 53.6727C79.1799 54.0424 81.4386 53.7908 83.5026 52.9463C85.5666 52.1019 87.3539 50.6981 88.6634 48.8929C89.9728 47.0878 90.7524 44.953 90.9144 42.7288C91.0764 40.5047 90.6144 38.2794 89.5803 36.3036Z" fill="#FFCC24"/>
<path d="M90 108H14C11.3488 108.003 8.80706 109.058 6.93237 110.932C5.05768 112.807 4.00311 115.349 4 118V126C3.99985 126.263 4.05148 126.523 4.15194 126.766C4.25239 127.008 4.39971 127.229 4.58545 127.415C4.7712 127.6 4.99174 127.748 5.23446 127.848C5.47718 127.949 5.73731 128 6 128H98C98.2627 128 98.5228 127.949 98.7655 127.848C99.0083 127.748 99.2288 127.6 99.4146 127.415C99.6003 127.229 99.7476 127.008 99.8481 126.766C99.9485 126.523 100 126.263 100 126V118C99.9969 115.349 98.9423 112.807 97.0676 110.932C95.1929 109.058 92.6512 108.003 90 108Z" fill="#FFEBA7"/>
<path d="M102 128H2C1.46957 128 0.960859 127.789 0.585786 127.414C0.210714 127.039 0 126.53 0 126C0 125.47 0.210714 124.961 0.585786 124.586C0.960859 124.211 1.46957 124 2 124H102C102.53 124 103.039 124.211 103.414 124.586C103.789 124.961 104 125.47 104 126C104 126.53 103.789 127.039 103.414 127.414C103.039 127.789 102.53 128 102 128Z" fill="#FFE07A"/>
</svg>
