<svg width="10" height="10" viewBox="0 0 10 10" fill="none" xmlns="http://www.w3.org/2000/svg">
<g clip-path="url(#clip0_1493_13710)">
<path d="M1.25 9.6875C1.76777 9.6875 2.1875 9.26777 2.1875 8.75C2.1875 8.23223 1.76777 7.8125 1.25 7.8125C0.732233 7.8125 0.3125 8.23223 0.3125 8.75C0.3125 9.26777 0.732233 9.6875 1.25 9.6875Z" fill="#C8C8C8"/>
<path d="M5 9.6875C5.51777 9.6875 5.9375 9.26777 5.9375 8.75C5.9375 8.23223 5.51777 7.8125 5 7.8125C4.48223 7.8125 4.0625 8.23223 4.0625 8.75C4.0625 9.26777 4.48223 9.6875 5 9.6875Z" fill="#C8C8C8"/>
<path d="M5 5.9375C5.51777 5.9375 5.9375 5.51777 5.9375 5C5.9375 4.48223 5.51777 4.0625 5 4.0625C4.48223 4.0625 4.0625 4.48223 4.0625 5C4.0625 5.51777 4.48223 5.9375 5 5.9375Z" fill="#C8C8C8"/>
<path d="M8.75 2.1875C9.26777 2.1875 9.6875 1.76777 9.6875 1.25C9.6875 0.732233 9.26777 0.3125 8.75 0.3125C8.23223 0.3125 7.8125 0.732233 7.8125 1.25C7.8125 1.76777 8.23223 2.1875 8.75 2.1875Z" fill="#C8C8C8"/>
<path d="M8.75 9.6875C9.26777 9.6875 9.6875 9.26777 9.6875 8.75C9.6875 8.23223 9.26777 7.8125 8.75 7.8125C8.23223 7.8125 7.8125 8.23223 7.8125 8.75C7.8125 9.26777 8.23223 9.6875 8.75 9.6875Z" fill="#C8C8C8"/>
<path d="M8.75 5.9375C9.26777 5.9375 9.6875 5.51777 9.6875 5C9.6875 4.48223 9.26777 4.0625 8.75 4.0625C8.23223 4.0625 7.8125 4.48223 7.8125 5C7.8125 5.51777 8.23223 5.9375 8.75 5.9375Z" fill="#C8C8C8"/>
</g>
<defs>
<clipPath id="clip0_1493_13710">
<rect width="10" height="10" fill="white"/>
</clipPath>
</defs>
</svg>
