<svg width="49" height="48" viewBox="0 0 49 48" fill="none" xmlns="http://www.w3.org/2000/svg">
<rect x="0.5" width="48" height="48" rx="24" fill="#FEE500"/>
<path d="M24.4953 12.3789C17.5952 12.3789 12 16.818 12 22.296C12 25.8378 14.3376 28.9405 17.8581 30.7019L16.5907 35.2591C16.5907 35.2591 16.5672 35.4716 16.7033 35.5519C16.8395 35.6321 17.0038 35.5707 17.0038 35.5707C17.398 35.5141 21.5569 32.572 22.2845 32.062C23.0026 32.1659 23.749 32.2178 24.5047 32.2178C31.4048 32.2178 37 27.7787 37 22.3007C37 16.8227 31.3954 12.3789 24.4953 12.3789Z" fill="black"/>
<path d="M24.4953 12.3789C17.5952 12.3789 12 16.818 12 22.296C12 25.8378 14.3376 28.9405 17.8581 30.7019L16.5907 35.2591C16.5907 35.2591 16.5672 35.4716 16.7033 35.5519C16.8395 35.6321 17.0038 35.5707 17.0038 35.5707C17.398 35.5141 21.5569 32.572 22.2845 32.062C23.0026 32.1659 23.749 32.2178 24.5047 32.2178C31.4048 32.2178 37 27.7787 37 22.3007C37 16.8227 31.3954 12.3789 24.4953 12.3789Z" fill="black" fill-opacity="0.2"/>
<path d="M17.5857 25.7495C17.1868 25.7495 16.8629 25.4378 16.8629 25.0553V20.7437H15.7363C15.3467 20.7437 15.0322 20.4273 15.0322 20.0354C15.0322 19.6434 15.3514 19.327 15.7363 19.327H19.4305C19.8201 19.327 20.1346 19.6434 20.1346 20.0354C20.1346 20.4273 19.8154 20.7437 19.4305 20.7437H18.3039V25.0553C18.3039 25.4331 17.9753 25.7495 17.581 25.7495H17.5857ZM23.9085 25.74C23.6081 25.74 23.3781 25.6173 23.3077 25.4189L22.9509 24.4744H20.7542L20.3974 25.4189C20.327 25.6173 20.097 25.74 19.7966 25.74C19.637 25.74 19.4821 25.707 19.3366 25.6456C19.1394 25.5511 18.947 25.3009 19.1676 24.6161L20.8903 20.0495C21.0123 19.7001 21.3831 19.3412 21.8525 19.3317C22.3219 19.3223 22.6975 19.7001 22.8148 20.0495L24.5375 24.6161C24.7581 25.3009 24.5656 25.5606 24.3685 25.6456C24.2277 25.7117 24.0681 25.74 23.9085 25.74ZM22.5707 23.1899L21.8525 21.131L21.1344 23.1899H22.5707ZM25.6969 25.6456C25.3214 25.6456 25.0069 25.3481 25.0069 24.9845V20.0495C25.0069 19.6481 25.3355 19.3223 25.7438 19.3223C26.1522 19.3223 26.4808 19.6528 26.4808 20.0495V24.3091H28.011C28.3865 24.3091 28.701 24.6067 28.701 24.9703C28.701 25.3339 28.3912 25.6314 28.011 25.6314L25.6969 25.6456ZM28.978 25.0128V20.0542C28.978 19.6528 29.3065 19.327 29.7008 19.327C30.0951 19.327 30.4237 19.6576 30.4237 20.0542V21.6126L32.4421 19.582C32.6643 19.3585 33.0843 19.3781 33.3386 19.6339C33.5776 19.8743 33.6397 20.2806 33.3903 20.5359L31.738 22.1888L33.5123 24.55C33.7507 24.857 33.6929 25.3352 33.3715 25.5606C33.0547 25.7967 32.5892 25.718 32.3623 25.4189L30.6725 23.1663L30.4237 23.4166V24.9986C30.4237 25.9409 28.978 25.9772 28.978 25.0128Z" fill="#FEE500"/>
</svg>
