<svg width="56" height="56" viewBox="0 0 56 56" fill="none" xmlns="http://www.w3.org/2000/svg">
<g clip-path="url(#clip0_1914_2933)">
<rect x="22.0001" y="6" width="22" height="42" rx="3" fill="white" stroke="#323232" stroke-width="2"/>
<rect x="29.0001" y="8" width="8" height="2" rx="1" fill="#323232"/>
<g clip-path="url(#clip1_1914_2933)">
<path d="M12.9352 37.1015L13.7838 30.8889C13.9142 29.9343 14.6751 29.1971 15.6336 29.0966C16.8864 28.9653 17.9891 29.9537 17.9972 31.2151L18.0155 34.0899L25.7662 26.3393C26.5058 25.5997 27.705 25.5997 28.4446 26.3393C29.1843 27.0789 29.1843 28.2781 28.4446 29.0177L25.9331 31.5292L26.7027 31.7912C27.0727 31.9171 27.4287 32.1157 27.6347 32.4489C28.2342 33.4186 28.1225 34.6967 27.2935 35.5258C27.7788 35.0405 28.5719 35.0468 29.065 35.5398C30.0512 36.526 30.0638 38.1123 29.0932 39.0829C29.5532 38.6229 30.3227 38.6927 30.7081 39.2293L30.9637 39.5852C31.6834 40.5874 31.5813 41.9516 30.7222 42.8107L28.5497 44.9833C26.6399 46.893 25.685 47.8479 24.6293 48.3126C23.0148 49.0231 21.1659 49.0113 19.5423 48.2801C18.4805 47.8019 17.5133 46.8347 15.579 44.9004C14.5646 43.886 14.0573 43.3788 13.6877 42.8043C13.1239 41.9278 12.7848 40.9277 12.7011 39.8939C12.6463 39.2163 12.7426 38.5114 12.9352 37.1015Z" fill="white"/>
<path d="M25.9331 31.5292L28.4446 29.0177C29.1843 28.2781 29.1843 27.0789 28.4446 26.3393C27.705 25.5997 26.5058 25.5997 25.7662 26.3393L18.0155 34.0899L17.9972 31.2151C17.9891 29.9537 16.8864 28.9653 15.6336 29.0966C14.6751 29.1971 13.9142 29.9343 13.7838 30.8889L12.9352 37.1015C12.7426 38.5114 12.6463 39.2163 12.7011 39.8939C12.7848 40.9277 13.1239 41.9278 13.6877 42.8043C14.0573 43.3788 14.5646 43.886 15.579 44.9004C17.5133 46.8347 18.4805 47.8019 19.5423 48.2801C21.1659 49.0113 23.0148 49.0231 24.6293 48.3126C25.685 47.8479 26.6399 46.893 28.5497 44.9833L30.7222 42.8107C31.5813 41.9516 31.6834 40.5874 30.9637 39.5852L30.7081 39.2293C30.3227 38.6927 29.5532 38.6229 29.0932 39.0829M25.9331 31.5292L26.7027 31.7912C27.0727 31.9171 27.4287 32.1157 27.6347 32.4489C28.2342 33.4186 28.1225 34.6967 27.2935 35.5258M25.9331 31.5292L23.7363 33.726M27.2935 35.5258L26.4148 36.4045M27.2935 35.5258C27.7788 35.0405 28.5719 35.0468 29.065 35.5398C30.0512 36.526 30.0638 38.1123 29.0932 39.0829M29.0932 39.0829L28.2145 39.9616" stroke="#323232" stroke-width="2" stroke-linecap="round" stroke-linejoin="round"/>
<rect x="12.0282" y="40.3984" width="13.4051" height="6.70256" rx="3.35128" transform="rotate(45 12.0282 40.3984)" fill="#FFE591" stroke="#323232" stroke-width="2"/>
<rect x="29.4067" y="20.3887" width="1.67564" height="3.35128" rx="0.837819" transform="rotate(19.4223 29.4067 20.3887)" fill="#323232"/>
<rect x="24.0397" y="20.9727" width="1.67564" height="3.35128" rx="0.837819" transform="rotate(-25.5777 24.0397 20.9727)" fill="#323232"/>
<rect x="33.4546" y="23.5918" width="1.67564" height="3.35128" rx="0.837819" transform="rotate(64.4223 33.4546 23.5918)" fill="#323232"/>
<rect x="34.4041" y="29.1016" width="1.67564" height="3.35128" rx="0.837819" transform="rotate(109.422 34.4041 29.1016)" fill="#323232"/>
</g>
</g>
<defs>
<clipPath id="clip0_1914_2933">
<rect width="56" height="56" fill="white"/>
</clipPath>
<clipPath id="clip1_1914_2933">
<rect width="40" height="40" fill="white" transform="translate(23.2843 9) rotate(45)"/>
</clipPath>
</defs>
</svg>
