<svg width="53" height="17" viewBox="0 0 53 17" fill="none" xmlns="http://www.w3.org/2000/svg">
<rect width="53" height="17" rx="4" fill="#94B2D8"/>
<path d="M5.18359 12H6.84759V9.78705H8.02859C8.36492 9.82465 8.70539 9.78948 9.02692 9.68392C9.34846 9.57836 9.64353 9.40489 9.89212 9.17526C10.1407 8.94564 10.337 8.66524 10.4677 8.35307C10.5984 8.04091 10.6604 7.70429 10.6496 7.36605C10.663 7.0307 10.6046 6.69635 10.4782 6.38543C10.3519 6.07451 10.1605 5.79421 9.91691 5.56332C9.67333 5.33243 9.3832 5.15629 9.06597 5.04673C8.74874 4.93716 8.41174 4.8967 8.07759 4.92805H5.18359V12ZM6.84759 8.46805V6.27805H7.72459C8.50859 6.27805 8.92459 6.69905 8.92459 7.36605C8.93255 7.52136 8.90611 7.67652 8.84715 7.82043C8.7882 7.96434 8.69818 8.09345 8.58354 8.19854C8.4689 8.30363 8.33247 8.3821 8.18398 8.42834C8.0355 8.47458 7.87863 8.48746 7.72459 8.46605L6.84759 8.46805ZM11.4756 12H13.1226V9.10005C13.1166 8.95847 13.1402 8.8172 13.1917 8.68521C13.2433 8.55322 13.3217 8.43339 13.422 8.33334C13.5224 8.23328 13.6424 8.15518 13.7746 8.104C13.9067 8.05282 14.048 8.02968 14.1896 8.03605C14.4102 8.03443 14.6299 8.06337 14.8426 8.12205V6.68205C14.6883 6.64741 14.5307 6.62897 14.3726 6.62705C14.0772 6.62557 13.7906 6.72819 13.5633 6.91691C13.336 7.10563 13.1825 7.36838 13.1296 7.65905H13.0746V6.70005H11.4746L11.4756 12ZM17.8116 12.1C18.3621 12.1716 18.9197 12.0378 19.3777 11.7242C19.8358 11.4106 20.1622 10.9392 20.2946 10.4H18.7616C18.6762 10.5657 18.5431 10.7019 18.3794 10.791C18.2157 10.8802 18.0291 10.9182 17.8436 10.9C17.6969 10.9082 17.5501 10.8847 17.4132 10.8312C17.2764 10.7776 17.1526 10.6953 17.0504 10.5897C16.9482 10.4842 16.8698 10.3579 16.8207 10.2194C16.7715 10.0809 16.7528 9.93344 16.7656 9.78705V9.75205H20.3156V9.33105C20.3532 8.97967 20.3142 8.62431 20.2012 8.28948C20.0882 7.95465 19.9038 7.64833 19.6609 7.39164C19.418 7.13496 19.1224 6.93403 18.7943 6.80272C18.4662 6.67141 18.1135 6.61284 17.7606 6.63105C17.402 6.61637 17.0445 6.67823 16.7117 6.81252C16.3789 6.9468 16.0785 7.15042 15.8305 7.40983C15.5826 7.66925 15.3927 7.9785 15.2736 8.31701C15.1544 8.65551 15.1088 9.01551 15.1396 9.37305C15.1056 9.7349 15.1509 10.0998 15.2724 10.4423C15.3939 10.7849 15.5886 11.0968 15.843 11.3564C16.0973 11.616 16.4052 11.817 16.7452 11.9455C17.0852 12.0739 17.4491 12.1266 17.8116 12.1ZM16.7656 8.78205C16.77 8.6514 16.8001 8.52291 16.8542 8.40391C16.9083 8.28492 16.9854 8.17777 17.081 8.0886C17.1765 7.99943 17.2888 7.92999 17.4112 7.88425C17.5337 7.83851 17.664 7.81737 17.7946 7.82205C17.9233 7.81642 18.0518 7.83722 18.1721 7.88317C18.2924 7.92911 18.4021 7.99922 18.4943 8.08917C18.5865 8.17912 18.6593 8.287 18.7082 8.40617C18.7571 8.52534 18.781 8.65326 18.7786 8.78205H16.7656ZM21.1646 12H22.8116V8.85405C22.7979 8.74427 22.8076 8.63285 22.8399 8.52706C22.8722 8.42127 22.9265 8.32347 22.9991 8.24006C23.0718 8.15665 23.1612 8.08949 23.2616 8.04296C23.3619 7.99644 23.471 7.97159 23.5816 7.97005C23.6858 7.967 23.7894 7.98632 23.8855 8.02672C23.9815 8.06711 24.0678 8.12764 24.1385 8.20421C24.2092 8.28079 24.2627 8.37164 24.2953 8.47062C24.3279 8.56961 24.3389 8.67444 24.3276 8.77805V12H25.9126V8.82005C25.8982 8.71243 25.9074 8.60298 25.9394 8.49924C25.9715 8.39551 26.0256 8.29995 26.0981 8.21915C26.1707 8.13836 26.2598 8.07425 26.3595 8.03124C26.4592 7.98824 26.5671 7.96736 26.6756 7.97005C26.7821 7.96638 26.8881 7.98596 26.9863 8.02742C27.0845 8.06887 27.1725 8.13121 27.2441 8.2101C27.3158 8.28899 27.3694 8.38254 27.4013 8.48425C27.4331 8.58595 27.4424 8.69338 27.4286 8.79905V12H29.0716V8.43005C29.095 8.19733 29.0683 7.9623 28.9933 7.74077C28.9183 7.51924 28.7966 7.31636 28.6366 7.1458C28.4766 6.97524 28.2818 6.84095 28.0655 6.75198C27.8492 6.66302 27.6163 6.62144 27.3826 6.63005C27.0399 6.6073 26.699 6.69586 26.4107 6.88254C26.1224 7.06922 25.9021 7.34403 25.7826 7.66605H25.7296C25.6482 7.35165 25.4593 7.07564 25.1958 6.88587C24.9322 6.69611 24.6106 6.60454 24.2866 6.62705C23.9577 6.61203 23.6329 6.7052 23.362 6.89231C23.0911 7.07941 22.889 7.35014 22.7866 7.66305H22.7276V6.70005H21.1646V12ZM30.1116 12H31.7586V6.70005H30.1116V12ZM30.0836 5.27005C30.0919 5.48828 30.1864 5.69432 30.3462 5.84311C30.5061 5.99191 30.7183 6.07135 30.9366 6.06405C31.1549 6.07135 31.3671 5.99191 31.527 5.84311C31.6868 5.69432 31.7813 5.48828 31.7896 5.27005C31.7813 5.05182 31.6868 4.84578 31.527 4.69698C31.3671 4.54819 31.1549 4.46875 30.9366 4.47605C30.7183 4.46875 30.5061 4.54819 30.3462 4.69698C30.1864 4.84578 30.0919 5.05182 30.0836 5.27005ZM36.2336 9.71405C36.2461 9.84069 36.2315 9.96854 36.191 10.0892C36.1504 10.2098 36.0847 10.3204 35.9982 10.4138C35.9118 10.5072 35.8065 10.5811 35.6893 10.6308C35.5722 10.6805 35.4458 10.7048 35.3186 10.702C35.1975 10.7059 35.0771 10.6835 34.9655 10.6362C34.854 10.589 34.7541 10.5181 34.6727 10.4284C34.5912 10.3387 34.5303 10.2324 34.494 10.1168C34.4578 10.0012 34.447 9.87917 34.4626 9.75905V6.70005H32.8156V10.08C32.7888 10.3334 32.8161 10.5896 32.8957 10.8316C32.9753 11.0737 33.1054 11.296 33.2773 11.484C33.4493 11.6721 33.6592 11.8214 33.8931 11.9223C34.1271 12.0231 34.3798 12.0731 34.6346 12.069C34.9808 12.0897 35.3245 11.9988 35.6153 11.8099C35.9061 11.6209 36.1288 11.3438 36.2506 11.019H36.3056V12H37.8766V6.70005H36.2336V9.71405ZM38.9336 12H40.5806V8.85405C40.5669 8.74427 40.5766 8.63285 40.6089 8.52706C40.6412 8.42127 40.6955 8.32347 40.7681 8.24006C40.8408 8.15665 40.9302 8.08949 41.0306 8.04296C41.1309 7.99644 41.24 7.97159 41.3506 7.97005C41.4548 7.967 41.5584 7.98632 41.6545 8.02672C41.7505 8.06711 41.8368 8.12764 41.9075 8.20421C41.9782 8.28079 42.0317 8.37164 42.0643 8.47062C42.0969 8.56961 42.1079 8.67444 42.0966 8.77805V12H43.6816V8.82005C43.6674 8.71251 43.6767 8.60317 43.7088 8.49955C43.7409 8.39594 43.7951 8.30051 43.8676 8.21983C43.9401 8.13915 44.0292 8.07513 44.1288 8.03219C44.2284 7.98924 44.3362 7.96838 44.4446 7.97105C44.5514 7.96694 44.6577 7.98618 44.7563 8.02744C44.8548 8.0687 44.9432 8.13097 45.0152 8.20992C45.0872 8.28886 45.1411 8.38257 45.1731 8.4845C45.2051 8.58643 45.2145 8.69412 45.2006 8.80005V12H46.8446V8.43005C46.868 8.19733 46.8413 7.9623 46.7663 7.74077C46.6913 7.51924 46.5696 7.31636 46.4096 7.1458C46.2495 6.97524 46.0548 6.84095 45.8385 6.75198C45.6222 6.66302 45.3893 6.62144 45.1556 6.63005C44.8129 6.6073 44.472 6.69586 44.1837 6.88254C43.8954 7.06922 43.6751 7.34403 43.5556 7.66605H43.5006C43.4186 7.35221 43.2295 7.07689 42.966 6.88771C42.7025 6.69853 42.3812 6.60739 42.0576 6.63005C41.7287 6.61503 41.4039 6.7082 41.133 6.89531C40.8621 7.08241 40.66 7.35314 40.5576 7.66605H40.5006V6.70005H38.9336V12Z" fill="#172E55"/>
</svg>
