<svg width="160" height="141" viewBox="0 0 160 141" fill="none" xmlns="http://www.w3.org/2000/svg">
<path d="M7.38477 1.23047H152.615C156.014 1.23047 158.77 3.98609 158.77 7.38477V84.9229H1.23047V7.38477C1.23047 3.98609 3.98609 1.23047 7.38477 1.23047Z" fill="white" stroke="#323232" stroke-width="2.46154"/>
<mask id="path-2-inside-1_2076_6208" fill="white">
<path d="M0 86.1538H160V109.538C160 113.617 156.694 116.923 152.615 116.923H7.38461C3.3062 116.923 0 113.617 0 109.538V86.1538Z"/>
</mask>
<path d="M0 86.1538H160V109.538C160 113.617 156.694 116.923 152.615 116.923H7.38461C3.3062 116.923 0 113.617 0 109.538V86.1538Z" fill="#EDF1F8"/>
<path d="M0 86.1538H160H0ZM162.462 109.538C162.462 114.976 158.053 119.385 152.615 119.385H7.38462C1.94673 119.385 -2.46154 114.976 -2.46154 109.538L2.46154 109.538C2.46154 112.257 4.66568 114.461 7.38462 114.461H152.615C155.334 114.461 157.538 112.257 157.538 109.538L162.462 109.538ZM7.38462 119.385C1.94673 119.385 -2.46154 114.976 -2.46154 109.538V86.1538H2.46154V109.538C2.46154 112.257 4.66568 114.461 7.38462 114.461L7.38462 119.385ZM162.462 86.1538V109.538C162.462 114.976 158.053 119.385 152.615 119.385L152.615 114.461C155.334 114.461 157.538 112.257 157.538 109.538V86.1538H162.462Z" fill="#323232" mask="url(#path-2-inside-1_2076_6208)"/>
<path d="M99.2825 115.692V116.918C99.2863 123.394 101.221 129.676 104.779 135.077C105.277 135.834 105.307 136.856 104.917 137.718C104.532 138.571 103.837 139.077 103.036 139.077H56.9719C56.1716 139.077 55.4755 138.571 55.0901 137.717C54.7 136.853 54.7306 135.83 55.2297 135.073C56.277 133.483 57.1878 131.811 57.9504 130.072C59.7781 125.904 60.7192 121.433 60.718 116.917V115.692H99.2825Z" fill="#EDF1F8" stroke="#323232" stroke-width="2.46154"/>
<rect x="70.7693" y="97.2307" width="18.4615" height="8.61539" rx="3.07692" fill="#323232"/>
<path d="M65.7115 19.0769C67.4109 19.0769 68.7885 17.6993 68.7885 16C68.7885 14.3006 67.4109 12.923 65.7115 12.923C64.0122 12.923 62.6346 14.3006 62.6346 16C62.6346 17.6993 64.0122 19.0769 65.7115 19.0769Z" fill="#FFCC24"/>
<path d="M50.4192 16.8153C50.9115 15.4769 52.8038 15.4769 53.3115 16.8153L54.1115 18.9846C54.2654 19.4 54.6038 19.7384 55.0192 19.8923L57.1885 20.6923C58.5269 21.1846 58.5269 23.0769 57.1885 23.5846L55.0192 24.3846C54.6038 24.5384 54.2654 24.8769 54.1115 25.2923L53.3115 27.4615C52.8192 28.8 50.9269 28.8 50.4192 27.4615L49.6192 25.2923C49.4654 24.8769 49.1269 24.5384 48.7115 24.3846L46.5423 23.5846C45.2038 23.0923 45.2038 21.2 46.5423 20.6923L48.7115 19.8923C49.1269 19.7384 49.4654 19.4 49.6192 18.9846L50.4192 16.8153Z" fill="#FFCC24"/>
<path d="M117.496 60.6961C117.988 59.3576 119.881 59.3576 120.388 60.6961L122.019 65.1115C122.173 65.5269 122.512 65.8653 122.927 66.0192L127.342 67.65C128.681 68.1423 128.681 70.0346 127.342 70.5423L122.927 72.173C122.512 72.3269 122.173 72.6653 122.019 73.0807L120.388 77.4961C119.896 78.8346 118.004 78.8346 117.496 77.4961L115.865 73.0807C115.712 72.6653 115.373 72.3269 114.958 72.173L110.542 70.5423C109.204 70.05 109.204 68.1576 110.542 67.65L114.958 66.0192C115.373 65.8653 115.712 65.5269 115.865 65.1115L117.496 60.6961Z" fill="#FFCC24"/>
<path d="M79.2163 61.8457H80.7827C93.5222 61.8457 103.896 71.9726 104.294 84.6152H55.7056C56.1044 71.9727 66.477 61.8459 79.2163 61.8457Z" fill="#FFF0BC" stroke="#323232" stroke-width="3.07692"/>
<circle cx="80" cy="22.7691" r="3.38462" fill="#FFCC24" stroke="#323232" stroke-width="3.07692"/>
<rect x="97.8462" y="40.6153" width="7.38462" height="12.3077" rx="3.69231" fill="#323232"/>
<rect x="54.7693" y="41.2307" width="7.38462" height="12.3077" rx="3.69231" fill="#323232"/>
<rect x="60.6154" y="31.6922" width="38.7692" height="30.1538" rx="10.7692" fill="white" stroke="#323232" stroke-width="3.07692"/>
<rect x="71.3846" y="41.8461" width="3.69231" height="6.15385" rx="1.84615" fill="#323232"/>
<rect x="84.9231" y="41.8461" width="3.69231" height="6.15385" rx="1.84615" fill="#323232"/>
<path d="M80.533 55.0768C80.2961 55.4871 79.704 55.4871 79.4671 55.0768L76.8024 50.4614C76.5656 50.0512 76.8616 49.5383 77.3354 49.5383L82.6647 49.5383C83.1385 49.5383 83.4345 50.0512 83.1977 50.4614L80.533 55.0768Z" fill="#323232"/>
<rect x="78.1538" y="26.4614" width="3.69231" height="4.92308" fill="#323232"/>
</svg>
