<svg width="161" height="140" viewBox="0 0 161 140" fill="none" xmlns="http://www.w3.org/2000/svg">
<path d="M7.88477 1.23047H153.115C156.514 1.23047 159.27 3.98609 159.27 7.38477V84.9229H1.73047V7.38477C1.73047 3.98609 4.48609 1.23047 7.88477 1.23047Z" fill="white" stroke="#323232" stroke-width="2.46154"/>
<mask id="path-2-inside-1_2076_6192" fill="white">
<path d="M0.5 86.1539H160.5V109.538C160.5 113.617 157.194 116.923 153.115 116.923H7.88461C3.8062 116.923 0.5 113.617 0.5 109.538V86.1539Z"/>
</mask>
<path d="M0.5 86.1539H160.5V109.538C160.5 113.617 157.194 116.923 153.115 116.923H7.88461C3.8062 116.923 0.5 113.617 0.5 109.538V86.1539Z" fill="#EDF1F8"/>
<path d="M0.5 86.1539H160.5H0.5ZM162.962 109.538C162.962 114.976 158.553 119.385 153.115 119.385H7.88462C2.44673 119.385 -1.96154 114.976 -1.96154 109.538L2.96154 109.538C2.96154 112.257 5.16568 114.462 7.88462 114.462H153.115C155.834 114.462 158.038 112.257 158.038 109.538L162.962 109.538ZM7.88462 119.385C2.44673 119.385 -1.96154 114.976 -1.96154 109.538V86.1539H2.96154V109.538C2.96154 112.257 5.16568 114.462 7.88462 114.462L7.88462 119.385ZM162.962 86.1539V109.538C162.962 114.976 158.553 119.385 153.115 119.385L153.115 114.462C155.834 114.462 158.038 112.257 158.038 109.538V86.1539H162.962Z" fill="#323232" mask="url(#path-2-inside-1_2076_6192)"/>
<path d="M100.09 115.692V116.859C100.094 123.109 101.981 129.172 105.452 134.402C105.958 135.164 105.992 136.202 105.6 137.081C105.212 137.949 104.511 138.461 103.707 138.461H57.9173C57.1137 138.461 56.4121 137.949 56.0237 137.079C55.6309 136.198 55.6653 135.16 56.1712 134.398C57.1603 132.908 58.0241 131.345 58.7532 129.721C60.5834 125.647 61.5269 121.275 61.5257 116.858V115.692H100.09Z" fill="#EDF1F8" stroke="#323232" stroke-width="2.46154"/>
<rect x="71.2692" y="97.2307" width="18.4615" height="8.61538" rx="3.07692" fill="#323232"/>
<rect x="58.9617" y="24.3074" width="16.6154" height="16.6154" rx="4.61538" stroke="#323232" stroke-width="3.07692"/>
<path d="M62.9614 32.128L66.2233 35.3845L71.5768 29.846" stroke="#323232" stroke-width="3.07692" stroke-linecap="round" stroke-linejoin="round"/>
<path d="M90.0386 59.2049L93.3004 62.4613L98.654 56.9229" stroke="#323232" stroke-width="3.07692" stroke-linecap="round" stroke-linejoin="round"/>
<rect x="86.0385" y="51.3846" width="16.6154" height="16.6154" rx="4.61538" stroke="#323232" stroke-width="3.07692"/>
<path d="M65.423 60.3075C65.423 60.9873 65.974 61.5383 66.6538 61.5383H80.4999C81.3496 61.5383 82.0384 62.2271 82.0384 63.0768V63.0768C82.0384 63.9264 81.3496 64.6152 80.4999 64.6152H65.423C63.7237 64.6152 62.3461 63.2376 62.3461 61.5383V46.4614C62.3461 45.6117 63.0349 44.9229 63.8845 44.9229V44.9229C64.7342 44.9229 65.423 45.6117 65.423 46.4614V60.3075Z" fill="#FFE591"/>
<path d="M96.1924 30.7691C96.1924 30.0894 95.6413 29.5384 94.9616 29.5384H81.1154C80.2658 29.5384 79.577 28.8496 79.577 27.9999V27.9999C79.577 27.1502 80.2658 26.4614 81.1154 26.4614H96.1924C97.8917 26.4614 99.2693 27.839 99.2693 29.5384V44.6153C99.2693 45.465 98.5805 46.1537 97.7308 46.1537V46.1537C96.8812 46.1537 96.1924 45.465 96.1924 44.6153V30.7691Z" fill="#FFE591"/>
</svg>
