<svg width="120" height="109" viewBox="0 0 120 109" fill="none" xmlns="http://www.w3.org/2000/svg">
<path d="M11.25 0C8.26631 0 5.40483 1.18526 3.29505 3.29505C1.18526 5.40483 0 8.26631 0 11.25L0 26.25C0 27.2446 0.395088 28.1984 1.09835 28.9016C1.80161 29.6049 2.75544 30 3.75 30H24.375V0H11.25Z" fill="#E1E1E1"/>
<path d="M88.125 0H11.25C14.2337 0 17.0952 1.18526 19.205 3.29505C21.3147 5.40483 22.5 8.26631 22.5 11.25V97.5C22.5 100.484 23.6853 103.345 25.795 105.455C27.9048 107.565 30.7663 108.75 33.75 108.75H99.375V11.25C99.375 8.26631 98.1897 5.40483 96.0799 3.29505C93.9702 1.18526 91.1087 0 88.125 0Z" fill="#F3F3F3"/>
<path d="M119.999 13.0313C120.003 14.7309 119.42 16.3798 118.349 17.7L92.5681 49.5375C89.4151 53.4076 85.1877 56.2584 80.4181 57.7313L78.7306 67.8C78.669 68.1906 78.4852 68.5516 78.2056 68.8312C77.926 69.1109 77.5649 69.2947 77.1743 69.3563L54.6743 73.1063C54.5751 73.1218 54.4747 73.1281 54.3743 73.125C54.1019 73.127 53.8323 73.0694 53.5845 72.9562C53.3367 72.843 53.1166 72.6769 52.9398 72.4697C52.7629 72.2625 52.6335 72.0191 52.5607 71.7565C52.4878 71.494 52.4733 71.2187 52.5181 70.95L56.2681 48.45C56.3296 48.0594 56.5134 47.6983 56.793 47.4187C57.0727 47.1391 57.4337 46.9553 57.8243 46.8938L67.8931 45.2063C69.3659 40.4366 72.2168 36.2092 76.0868 33.0562L107.924 7.27501C109.012 6.39489 110.327 5.84063 111.716 5.6763C113.106 5.51197 114.513 5.74429 115.777 6.3464C117.04 6.9485 118.106 7.8958 118.854 9.07876C119.601 10.2617 119.998 11.632 119.999 13.0313Z" fill="#FFEBA7"/>
<path d="M56.2681 48.4488L52.5181 70.9488C52.4733 71.2176 52.4878 71.4928 52.5607 71.7554C52.6335 72.0179 52.7629 72.2613 52.9398 72.4685C53.1166 72.6758 53.3367 72.8418 53.5845 72.955C53.8323 73.0682 54.1019 73.1258 54.3743 73.1238C54.4747 73.1269 54.5751 73.1207 54.6743 73.1051L77.1743 69.3551C77.5649 69.2935 77.926 69.1097 78.2056 68.8301C78.4852 68.5505 78.669 68.1894 78.7306 67.7988L80.4181 57.7301L67.8931 45.2051L57.8243 46.8926C57.4337 46.9541 57.0727 47.1379 56.793 47.4175C56.5134 47.6972 56.3296 48.0582 56.2681 48.4488Z" fill="#FFE07A"/>
<path d="M106.875 82.5H48.75C47.7554 82.5 46.8016 82.8951 46.0983 83.5983C45.3951 84.3016 45 85.2554 45 86.25V97.5C44.9976 100.483 43.8116 103.343 41.7023 105.452C39.5931 107.562 36.733 108.748 33.75 108.75H99.375C102.359 108.75 105.22 107.565 107.33 105.455C109.44 103.345 110.625 100.484 110.625 97.5V86.25C110.625 85.2554 110.23 84.3016 109.527 83.5983C108.823 82.8951 107.87 82.5 106.875 82.5Z" fill="#E1E1E1"/>
<path d="M66.95 58.6743C66.7759 58.5002 66.5692 58.362 66.3418 58.2678C66.1143 58.1735 65.8705 58.125 65.6243 58.125C65.3781 58.125 65.1343 58.1735 64.9068 58.2678C64.6793 58.362 64.4727 58.5002 64.2986 58.6743L52.6171 70.3559L52.5181 70.9499C52.4733 71.2187 52.4878 71.494 52.5607 71.7565C52.6335 72.019 52.7629 72.2624 52.9398 72.4697C53.1166 72.6769 53.3367 72.8429 53.5845 72.9561C53.8323 73.0693 54.1019 73.1269 54.3743 73.1249C54.4747 73.1281 54.5751 73.1218 54.6743 73.1062L55.2685 73.0072L66.95 61.3256C67.1241 61.1515 67.2622 60.9449 67.3565 60.7174C67.4507 60.49 67.4992 60.2462 67.4992 59.9999C67.4992 59.7537 67.4507 59.5099 67.3565 59.2825C67.2622 59.055 67.1241 58.8484 66.95 58.6743Z" fill="#FFCC24"/>
<path d="M80.7568 29.2763L96.3512 44.8706L113.106 24.1781L101.282 12.6562L80.7568 29.2763Z" fill="#FFE07A"/>
<path d="M45 69.375H35.625C35.1277 69.375 34.6508 69.5725 34.2992 69.9242C33.9475 70.2758 33.75 70.7527 33.75 71.25C33.75 71.7473 33.9475 72.2242 34.2992 72.5758C34.6508 72.9275 35.1277 73.125 35.625 73.125H45C45.4973 73.125 45.9742 72.9275 46.3258 72.5758C46.6775 72.2242 46.875 71.7473 46.875 71.25C46.875 70.7527 46.6775 70.2758 46.3258 69.9242C45.9742 69.5725 45.4973 69.375 45 69.375Z" fill="#E1E1E1"/>
<path d="M45 58.125H35.625C35.1277 58.125 34.6508 58.3225 34.2992 58.6742C33.9475 59.0258 33.75 59.5027 33.75 60C33.75 60.4973 33.9475 60.9742 34.2992 61.3258C34.6508 61.6775 35.1277 61.875 35.625 61.875H45C45.4973 61.875 45.9742 61.6775 46.3258 61.3258C46.6775 60.9742 46.875 60.4973 46.875 60C46.875 59.5027 46.6775 59.0258 46.3258 58.6742C45.9742 58.3225 45.4973 58.125 45 58.125Z" fill="#E1E1E1"/>
<path d="M45 46.875H35.625C35.1277 46.875 34.6508 47.0725 34.2992 47.4242C33.9475 47.7758 33.75 48.2527 33.75 48.75C33.75 49.2473 33.9475 49.7242 34.2992 50.0758C34.6508 50.4275 35.1277 50.625 35.625 50.625H45C45.4973 50.625 45.9742 50.4275 46.3258 50.0758C46.6775 49.7242 46.875 49.2473 46.875 48.75C46.875 48.2527 46.6775 47.7758 46.3258 47.4242C45.9742 47.0725 45.4973 46.875 45 46.875Z" fill="#E1E1E1"/>
<path d="M61.875 35.625H35.625C35.1277 35.625 34.6508 35.8225 34.2992 36.1742C33.9475 36.5258 33.75 37.0027 33.75 37.5C33.75 37.9973 33.9475 38.4742 34.2992 38.8258C34.6508 39.1775 35.1277 39.375 35.625 39.375H61.875C62.3723 39.375 62.8492 39.1775 63.2008 38.8258C63.5525 38.4742 63.75 37.9973 63.75 37.5C63.75 37.0027 63.5525 36.5258 63.2008 36.1742C62.8492 35.8225 62.3723 35.625 61.875 35.625Z" fill="#E1E1E1"/>
<path d="M76.875 9.375H35.625C34.5895 9.375 33.75 10.2145 33.75 11.25V26.25C33.75 27.2855 34.5895 28.125 35.625 28.125H76.875C77.9105 28.125 78.75 27.2855 78.75 26.25V11.25C78.75 10.2145 77.9105 9.375 76.875 9.375Z" fill="#E1E1E1"/>
</svg>
