<svg width="49" height="34" viewBox="0 0 49 34" fill="none" xmlns="http://www.w3.org/2000/svg">
<path d="M37.921 6.53906H5.92097C3.5419 6.53906 1.61328 8.46768 1.61328 10.8468V28.0775C1.61328 30.4566 3.5419 32.3852 5.92097 32.3852H37.921C40.3001 32.3852 42.2287 30.4566 42.2287 28.0775V10.8468C42.2287 8.46768 40.3001 6.53906 37.921 6.53906Z" fill="white" stroke="#323232" stroke-width="2" stroke-linecap="round" stroke-linejoin="round"/>
<path d="M42.845 1H10.845C8.12601 1 5.92188 3.20414 5.92188 5.92308V23.1539C5.92188 25.8728 8.12601 28.0769 10.845 28.0769H42.845C45.5639 28.0769 47.768 25.8728 47.768 23.1539V5.92308C47.768 3.20414 45.5639 1 42.845 1Z" fill="#FFE591"/>
<path d="M42.8468 1.61523H10.8468C8.46768 1.61523 6.53906 3.54385 6.53906 5.92293V23.1537C6.53906 25.5328 8.46768 27.4614 10.8468 27.4614H42.8468C45.2258 27.4614 47.1545 25.5328 47.1545 23.1537V5.92293C47.1545 3.54385 45.2258 1.61523 42.8468 1.61523Z" stroke="#323232" stroke-width="2" stroke-linecap="round" stroke-linejoin="round"/>
<path d="M16.6399 10.8443C16.6354 11.0026 16.6635 11.1601 16.7224 11.3071C16.7752 11.4336 16.855 11.547 16.9562 11.6394C17.0541 11.7271 17.1683 11.7949 17.2922 11.8388C17.4181 11.884 17.551 11.9069 17.6848 11.9065C17.8379 11.9083 17.9908 11.8956 18.1414 11.8683C18.2596 11.8463 18.3748 11.8108 18.4848 11.7625C18.5398 11.7371 18.6013 11.7067 18.6694 11.6714C18.7344 11.6372 18.8048 11.6143 18.8774 11.6037C19.0009 11.5778 19.1292 11.5885 19.2467 11.6345C19.3654 11.6868 19.4636 11.7768 19.5261 11.8905C19.5718 11.9583 19.602 12.0354 19.6143 12.1163C19.6267 12.1972 19.6209 12.2798 19.5974 12.3582C19.5502 12.5134 19.4566 12.6504 19.3291 12.7508C19.1044 12.9268 18.8447 13.0527 18.5673 13.12C18.2797 13.1989 17.983 13.2403 17.6848 13.2431C17.3616 13.2452 17.0395 13.2038 16.7273 13.12C16.4252 13.0392 16.142 12.8995 15.894 12.709C15.646 12.5151 15.4449 12.2677 15.3057 11.9853C15.1489 11.6519 15.0725 11.2864 15.083 10.9182V9.3428C15.0739 8.9756 15.151 8.61139 15.3082 8.27941C15.4474 7.99699 15.6485 7.74961 15.8965 7.55572C16.1445 7.36513 16.4276 7.22542 16.7297 7.14464C17.042 7.06088 17.364 7.01949 17.6873 7.02156C17.9861 7.01696 18.2841 7.05256 18.5734 7.12741C18.7871 7.17996 18.99 7.26952 19.1728 7.39203C19.3209 7.49229 19.4344 7.63587 19.4977 7.8031C19.5285 7.88314 19.5404 7.9692 19.5325 8.05458C19.5246 8.13997 19.4971 8.22238 19.4522 8.29541C19.3849 8.41894 19.279 8.51705 19.1507 8.5748C19.0301 8.6297 18.8955 8.64562 18.7654 8.62033C18.6858 8.60719 18.6084 8.58317 18.5353 8.54895L18.3507 8.4628C18.2593 8.42751 18.1644 8.40233 18.0676 8.38772C17.9411 8.37097 17.8136 8.36356 17.686 8.36557C17.5522 8.36511 17.4194 8.38801 17.2934 8.43326C17.1695 8.4772 17.0554 8.54493 16.9574 8.63264C16.8563 8.7251 16.7765 8.8385 16.7236 8.96495C16.6633 9.11205 16.634 9.27001 16.6374 9.42895L16.6399 10.8443ZM21.1051 13.1151C20.9144 13.1194 20.7239 13.0979 20.539 13.0511C20.4017 13.016 20.2765 12.9441 20.1771 12.8431C20.0821 12.7388 20.0159 12.6116 19.9851 12.4739C19.9421 12.2933 19.921 12.1081 19.9224 11.9225V7.7871C19.9199 7.67305 19.9418 7.55979 19.9864 7.4548C20.0259 7.36124 20.0851 7.27729 20.1599 7.20864C20.2338 7.14253 20.3205 7.09226 20.4147 7.06095C20.5093 7.02836 20.6087 7.01172 20.7088 7.01172C20.8089 7.01172 20.9083 7.02836 21.003 7.06095C21.0962 7.09257 21.1821 7.14281 21.2553 7.20864C21.3301 7.27729 21.3893 7.36124 21.4288 7.4548C21.4734 7.55979 21.4952 7.67305 21.4928 7.7871V11.5816C21.4847 11.6443 21.501 11.7078 21.5384 11.7588C21.5896 11.7924 21.651 11.8072 21.7119 11.8006H23.387C23.4844 11.7979 23.5812 11.8172 23.6701 11.8573C23.744 11.892 23.8086 11.9439 23.8584 12.0086C23.9065 12.072 23.9424 12.1438 23.9642 12.2203C23.9865 12.295 23.9982 12.3725 23.9987 12.4505C23.998 12.5297 23.9864 12.6083 23.9642 12.6843C23.9422 12.7637 23.905 12.8381 23.8547 12.9034C23.8041 12.9693 23.7398 13.0234 23.6664 13.0622C23.5796 13.105 23.4836 13.1257 23.387 13.1225L21.1051 13.1151ZM25.7144 7.63818C25.7815 7.4401 25.9196 7.27391 26.1021 7.17172C26.281 7.06736 26.4844 7.01216 26.6916 7.01172C26.8872 7.01323 27.0787 7.06813 27.2454 7.17049C27.4216 7.2759 27.553 7.44232 27.6147 7.63818L29.5839 13.1151H27.9224L27.6282 12.1797H25.691L25.4042 13.1151H23.7759L25.7144 7.63818ZM26.0836 10.9046H27.2381L26.6645 9.02649L26.0836 10.9046ZM31.1679 8.81233C31.1707 8.88971 31.1953 8.96472 31.2388 9.02874C31.2824 9.09275 31.3431 9.14317 31.4141 9.17418C31.6365 9.29942 31.8717 9.40051 32.1156 9.47572L32.4848 9.5988C32.6963 9.6743 32.8976 9.77558 33.0842 9.90033C33.2584 10.0168 33.4126 10.1606 33.5408 10.3262C33.6672 10.4907 33.762 10.6772 33.8202 10.8763C33.8818 11.093 33.9047 11.3188 33.8879 11.5434C33.8815 11.7879 33.8194 12.0277 33.7064 12.2446C33.5933 12.4615 33.4323 12.6498 33.2356 12.7951C32.7535 13.1159 32.1806 13.2722 31.6024 13.2406C31.2752 13.2424 30.949 13.2065 30.6301 13.1336C30.3488 13.0745 30.0837 12.9548 29.8534 12.7828C29.7833 12.7226 29.7224 12.6526 29.6725 12.5748C29.6232 12.4991 29.5862 12.416 29.563 12.3286C29.5403 12.241 29.5365 12.1495 29.5519 12.0603C29.568 11.9645 29.6041 11.8731 29.6577 11.792C29.7157 11.7075 29.7969 11.6417 29.8916 11.6025C29.9865 11.5588 30.0888 11.5333 30.1931 11.5274C30.3009 11.5177 30.4093 11.5386 30.5057 11.5877L30.7285 11.7108C30.8317 11.7735 30.9437 11.8204 31.0608 11.8499C31.2537 11.8936 31.4514 11.9127 31.6491 11.9065C31.8207 11.9167 31.9916 11.8774 32.1414 11.7933C32.1998 11.7532 32.247 11.699 32.2787 11.6357C32.3103 11.5724 32.3254 11.5021 32.3224 11.4314C32.3164 11.3564 32.2837 11.286 32.2301 11.2333C32.1628 11.1587 32.0823 11.0973 31.9925 11.0523C31.8765 10.991 31.7569 10.9368 31.6344 10.8899C31.499 10.8374 31.3533 10.7857 31.1974 10.7348L31.0054 10.6671C30.9373 10.6417 30.8807 10.6191 30.8356 10.5994C30.5752 10.4963 30.338 10.3423 30.1377 10.1465C29.9696 9.98003 29.8351 9.78281 29.7414 9.56557C29.6545 9.36152 29.6086 9.1424 29.6061 8.92064C29.6023 8.70799 29.6344 8.49622 29.7008 8.29418C29.8202 7.90171 30.0789 7.5664 30.4282 7.35141C30.8244 7.11887 31.2786 7.00363 31.7377 7.0191C31.9117 7.01875 32.0856 7.02861 32.2584 7.04864C32.3905 7.0633 32.5216 7.08591 32.651 7.11633C32.7519 7.14 32.8503 7.17296 32.9451 7.2148C33.0272 7.25254 33.1039 7.28905 33.1753 7.32433C33.346 7.41549 33.4876 7.55282 33.5839 7.72064C33.6316 7.79901 33.6619 7.88666 33.673 7.97772C33.684 8.06878 33.6755 8.16115 33.6479 8.24864C33.6106 8.38818 33.52 8.50751 33.3956 8.58095C33.2742 8.64734 33.1377 8.68126 32.9993 8.67941C32.9358 8.67774 32.8729 8.66739 32.8122 8.64864C32.7559 8.63492 32.7023 8.61205 32.6534 8.58095C32.5455 8.51242 32.4288 8.459 32.3064 8.42218C32.1274 8.37206 31.942 8.34924 31.7562 8.35449C31.6064 8.34619 31.4576 8.38446 31.3304 8.46403C31.2775 8.50383 31.2351 8.55588 31.2068 8.61569C31.1785 8.67551 31.1652 8.7413 31.1679 8.80741V8.81233ZM35.6417 8.81233C35.6445 8.88971 35.6691 8.96472 35.7127 9.02874C35.7562 9.09275 35.817 9.14317 35.8879 9.17418C36.1103 9.29942 36.3455 9.40051 36.5894 9.47572L36.9587 9.5988C37.1701 9.6743 37.3714 9.77558 37.5581 9.90033C37.7322 10.0168 37.8864 10.1606 38.0147 10.3262C38.1411 10.4907 38.2358 10.6772 38.2941 10.8763C38.3556 11.093 38.3786 11.3188 38.3618 11.5434C38.3553 11.7879 38.2932 12.0277 38.1802 12.2446C38.0672 12.4615 37.9062 12.6498 37.7094 12.7951C37.2273 13.1159 36.6544 13.2722 36.0762 13.2406C35.747 13.2429 35.4187 13.2069 35.0977 13.1336C34.8169 13.0743 34.5523 12.9546 34.3224 12.7828C34.2518 12.7227 34.1905 12.6526 34.1402 12.5748C34.0909 12.4991 34.0539 12.416 34.0307 12.3286C34.008 12.241 34.0042 12.1495 34.0196 12.0603C34.036 11.9653 34.0721 11.8748 34.1254 11.7945C34.183 11.7091 34.2643 11.6424 34.3593 11.6025C34.4542 11.5588 34.5565 11.5333 34.6608 11.5274C34.7686 11.5177 34.877 11.5386 34.9734 11.5877L35.1962 11.7108C35.2994 11.7735 35.4114 11.8204 35.5285 11.8499C35.7214 11.8936 35.9191 11.9127 36.1168 11.9065C36.2884 11.9167 36.4593 11.8774 36.6091 11.7933C36.6662 11.7526 36.7121 11.6983 36.7426 11.6353C36.7732 11.5723 36.7874 11.5026 36.7839 11.4326C36.782 11.359 36.7541 11.2884 36.7051 11.2333C36.6379 11.1587 36.5573 11.0973 36.4676 11.0523C36.3516 10.991 36.232 10.9368 36.1094 10.8899C35.9741 10.8374 35.8284 10.7857 35.6725 10.7348L35.4793 10.6622C35.4112 10.6367 35.3546 10.6142 35.3094 10.5945C35.0507 10.492 34.8148 10.3393 34.6153 10.1453C34.4472 9.9788 34.3126 9.78158 34.219 9.56434C34.1321 9.36029 34.0861 9.14117 34.0836 8.91941C34.0799 8.70676 34.1119 8.49498 34.1784 8.29295C34.2977 7.90048 34.5564 7.56517 34.9057 7.35018C35.3016 7.11786 35.7553 7.00263 36.2141 7.01787C36.3868 7.01807 36.5594 7.02834 36.731 7.04864C36.8631 7.0633 36.9942 7.08591 37.1236 7.11633C37.2245 7.14 37.323 7.17296 37.4178 7.2148C37.4998 7.25254 37.5765 7.28905 37.6479 7.32433C37.82 7.41612 37.9625 7.55481 38.059 7.72433C38.1067 7.8027 38.137 7.89035 38.1481 7.98142C38.1591 8.07248 38.1506 8.16485 38.123 8.25233C38.0857 8.39188 37.9951 8.5112 37.8707 8.58464C37.7493 8.65104 37.6127 8.68495 37.4744 8.6831C37.4103 8.68035 37.3469 8.66876 37.2861 8.64864C37.2298 8.63492 37.1762 8.61205 37.1273 8.58095C37.0205 8.51273 36.905 8.45932 36.7839 8.42218C36.605 8.37206 36.4195 8.34924 36.2337 8.35449C36.081 8.34438 35.929 8.38271 35.7993 8.46403C35.7473 8.50436 35.7059 8.55664 35.6784 8.61642C35.651 8.6762 35.6384 8.74172 35.6417 8.80741V8.81233ZM17.8805 19.9016C17.877 20.0605 17.9064 20.2185 17.9667 20.3656C18.0195 20.492 18.0993 20.6054 18.2005 20.6979C18.2985 20.7856 18.4126 20.8533 18.5365 20.8973C18.6624 20.9425 18.7953 20.9654 18.9291 20.965C19.0822 20.9668 19.2351 20.954 19.3857 20.9268C19.5039 20.9048 19.6191 20.8692 19.7291 20.821C19.7841 20.7955 19.8456 20.7652 19.9137 20.7299C19.9787 20.6957 20.0491 20.6728 20.1217 20.6622C20.2452 20.6363 20.3735 20.6469 20.491 20.693C20.6097 20.7453 20.7079 20.8353 20.7704 20.949C20.8161 21.0168 20.8463 21.0939 20.8586 21.1748C20.871 21.2557 20.8652 21.3383 20.8417 21.4166C20.7945 21.5719 20.7009 21.7089 20.5734 21.8093C20.3487 21.9853 20.089 22.1112 19.8116 22.1785C19.5237 22.2553 19.2271 22.2946 18.9291 22.2954C18.6059 22.2975 18.2838 22.2561 17.9716 22.1723C17.6695 22.0916 17.3863 21.9519 17.1384 21.7613C16.8903 21.5674 16.6892 21.32 16.55 21.0376C16.3932 20.7043 16.3169 20.3387 16.3273 19.9705V18.3951C16.3169 18.0269 16.3932 17.6613 16.55 17.328C16.6892 17.0456 16.8903 16.7982 17.1384 16.6043C17.3863 16.4137 17.6695 16.274 17.9716 16.1933C18.2838 16.1095 18.6059 16.0681 18.9291 16.0702C19.2279 16.0656 19.526 16.1012 19.8153 16.176C20.0285 16.2263 20.2313 16.3133 20.4147 16.4333C20.5627 16.5335 20.6762 16.6771 20.7396 16.8443C20.7704 16.9244 20.7823 17.0104 20.7744 17.0958C20.7665 17.1812 20.739 17.2636 20.6941 17.3366C20.6267 17.4602 20.5208 17.5583 20.3925 17.616C20.272 17.6709 20.1373 17.6869 20.0073 17.6616C19.9274 17.6465 19.8499 17.6204 19.7771 17.584L19.5925 17.4979C19.5004 17.462 19.4047 17.4364 19.307 17.4216C19.1805 17.4048 19.053 17.3974 18.9254 17.3994C18.7916 17.399 18.6588 17.4219 18.5328 17.4671C18.4098 17.5113 18.2965 17.5791 18.1993 17.6665C18.0981 17.7589 18.0183 17.8723 17.9654 17.9988C17.9051 18.1459 17.8758 18.3039 17.8793 18.4628L17.8805 19.9016ZM22.7002 16.7016C22.7638 16.4969 22.9029 16.324 23.0891 16.2179C23.2671 16.1161 23.4687 16.0626 23.6737 16.0628C23.8694 16.0643 24.0609 16.1192 24.2276 16.2216C24.4038 16.327 24.5352 16.4934 24.5968 16.6893L26.5685 22.1662H24.9107L24.6165 21.2308H22.6781L22.3913 22.1662H20.7617L22.7002 16.7016ZM23.0694 19.968H24.2301L23.6516 18.0776L23.0694 19.968ZM31.5039 18.1539C31.5118 18.487 31.4243 18.8154 31.2516 19.1003C31.0848 19.3676 30.8592 19.5932 30.5919 19.76L32.0257 22.1662H30.3199L29.1888 20.1366H28.2227V22.1662H26.6756V17.2862C26.6722 17.1008 26.6912 16.9156 26.7322 16.7348C26.763 16.5971 26.8292 16.4699 26.9242 16.3656C27.0238 16.2639 27.1494 16.1916 27.2873 16.1563C27.4722 16.1095 27.6627 16.088 27.8534 16.0923H29.2417C29.5475 16.0915 29.8519 16.133 30.1464 16.2154C30.4074 16.2856 30.6513 16.4088 30.8627 16.5773C31.0655 16.743 31.2269 16.9537 31.3341 17.1926C31.4525 17.4671 31.5104 17.7639 31.5039 18.0628V18.1539ZM28.2227 18.864H29.2073C29.3131 18.8723 29.4194 18.8576 29.519 18.8211C29.6186 18.7846 29.7092 18.727 29.7845 18.6523C29.909 18.5188 29.9777 18.3426 29.9765 18.16V18.101C29.9777 17.9184 29.909 17.7422 29.7845 17.6086C29.7095 17.5315 29.6185 17.4718 29.5179 17.4335C29.4174 17.3952 29.3097 17.3794 29.2024 17.3871H28.4405C28.3791 17.3816 28.3178 17.3977 28.267 17.4326C28.2296 17.4837 28.2133 17.5471 28.2214 17.6099L28.2227 18.864ZM34.3224 16.0936C34.6506 16.0935 34.9772 16.1403 35.2922 16.2326C35.6099 16.3242 35.9039 16.4838 36.1537 16.7003C36.4213 16.9374 36.6317 17.2319 36.7691 17.5619C36.9367 17.9814 37.0163 18.4309 37.003 18.8825V19.3748C37.0163 19.8264 36.9367 20.2759 36.7691 20.6954C36.6317 21.0254 36.4213 21.3199 36.1537 21.557C35.9039 21.7735 35.6099 21.933 35.2922 22.0246C34.9773 22.1178 34.6507 22.1655 34.3224 22.1662H33.1937C33.003 22.1705 32.8126 22.149 32.6276 22.1022C32.4903 22.0671 32.3652 21.9952 32.2657 21.8942C32.1707 21.7899 32.1045 21.6626 32.0737 21.525C32.0329 21.3445 32.0138 21.1598 32.0171 20.9748V17.2825C32.014 17.0983 32.0331 16.9144 32.0737 16.7348C32.1045 16.5971 32.1707 16.4699 32.2657 16.3656C32.365 16.2641 32.4901 16.1918 32.6276 16.1563C32.8126 16.1095 33.003 16.088 33.1937 16.0923L34.3224 16.0936ZM35.4608 18.7643C35.4848 18.3967 35.3672 18.0339 35.1322 17.7502C35.0225 17.6333 34.8888 17.5415 34.7403 17.4809C34.5919 17.4204 34.4321 17.3926 34.2719 17.3994H33.7796C33.7172 17.3913 33.6539 17.4057 33.6011 17.44C33.5637 17.4911 33.5474 17.5545 33.5556 17.6173V20.6425C33.5474 20.7052 33.5637 20.7687 33.6011 20.8197C33.6524 20.8534 33.7137 20.8681 33.7747 20.8616H34.267C34.4274 20.8686 34.5874 20.8409 34.7361 20.7803C34.8848 20.7198 35.0186 20.6278 35.1285 20.5108C35.3622 20.2266 35.4785 19.8638 35.4534 19.4966L35.4608 18.7643Z" fill="#33302B"/>
</svg>
