<svg width="40" height="40" viewBox="0 0 40 40" fill="none" xmlns="http://www.w3.org/2000/svg">
<rect width="40" height="40" rx="20" fill="#FFCC24"/>
<path d="M21.028 11.98L23.041 15.901C23.1262 16.0626 23.249 16.2015 23.399 16.3059C23.549 16.4103 23.7218 16.4772 23.903 16.501L28.403 17.13C28.6106 17.1514 28.8078 17.232 28.9709 17.3623C29.1341 17.4926 29.2563 17.667 29.3231 17.8648C29.3899 18.0626 29.3985 18.2754 29.3477 18.4779C29.297 18.6804 29.1891 18.8641 29.037 19.007L25.78 22.059C25.6482 22.181 25.5491 22.334 25.4916 22.5042C25.4342 22.6743 25.4202 22.8561 25.451 23.033L26.22 27.342C26.2493 27.5498 26.2204 27.7616 26.1366 27.9539C26.0529 28.1463 25.9175 28.3117 25.7455 28.4318C25.5735 28.5519 25.3716 28.6221 25.1622 28.6345C24.9527 28.6468 24.7439 28.601 24.559 28.502L20.534 26.467C20.3686 26.3839 20.1861 26.3406 20.001 26.3406C19.8159 26.3406 19.6334 26.3839 19.468 26.467L15.443 28.502C15.258 28.601 15.0492 28.6468 14.8398 28.6345C14.6304 28.6221 14.4284 28.5519 14.2564 28.4318C14.0844 28.3117 13.9491 28.1463 13.8653 27.9539C13.7816 27.7616 13.7527 27.5498 13.782 27.342L14.551 23.033C14.5816 22.856 14.5675 22.6742 14.5099 22.504C14.4522 22.3339 14.3529 22.1809 14.221 22.059L10.966 19.009C10.8138 18.8661 10.7059 18.6824 10.6552 18.4799C10.6045 18.2774 10.613 18.0646 10.6798 17.8668C10.7466 17.669 10.8689 17.4946 11.032 17.3643C11.1952 17.234 11.3923 17.1534 11.6 17.132L16.1 16.503C16.2812 16.4792 16.454 16.4123 16.604 16.3079C16.7539 16.2035 16.8767 16.0646 16.962 15.903L18.975 11.982C19.0749 11.7969 19.2229 11.6422 19.4035 11.5343C19.5841 11.4264 19.7905 11.3693 20.0009 11.3691C20.2112 11.3689 20.4178 11.4256 20.5986 11.5331C20.7794 11.6407 20.9277 11.7951 21.028 11.98Z" fill="white"/>
</svg>
