<svg width="40" height="40" viewBox="0 0 40 40" fill="none" xmlns="http://www.w3.org/2000/svg">
<path d="M40 20C40 8.9543 31.0457 0 20 0C8.9543 0 0 8.9543 0 20C0 31.0457 8.9543 40 20 40C31.0457 40 40 31.0457 40 20Z" fill="#94E360"/>
<path d="M21.0285 11.978L23.0415 15.899C23.1267 16.0607 23.2495 16.1995 23.3995 16.3039C23.5494 16.4083 23.7223 16.4752 23.9035 16.499L28.4035 17.1281C28.6111 17.1494 28.8083 17.2301 28.9714 17.3604C29.1346 17.4906 29.2568 17.665 29.3236 17.8628C29.3904 18.0606 29.399 18.2734 29.3482 18.4759C29.2975 18.6784 29.1896 18.8621 29.0375 19.0051L25.7805 22.057C25.6487 22.179 25.5496 22.3321 25.4921 22.5022C25.4346 22.6723 25.4207 22.8541 25.4515 23.031L26.2205 27.3401C26.2497 27.5478 26.2209 27.7596 26.1371 27.952C26.0534 28.1443 25.918 28.3097 25.746 28.4299C25.574 28.55 25.3721 28.6201 25.1626 28.6325C24.9532 28.6449 24.7444 28.5991 24.5595 28.5001L20.5345 26.4651C20.3691 26.3819 20.1865 26.3387 20.0015 26.3387C19.8164 26.3387 19.6338 26.3819 19.4685 26.4651L15.4435 28.5001C15.2585 28.5991 15.0497 28.6449 14.8403 28.6325C14.6309 28.6201 14.4289 28.55 14.2569 28.4299C14.0849 28.3097 13.9495 28.1443 13.8658 27.952C13.7821 27.7596 13.7532 27.5478 13.7825 27.3401L14.5515 23.031C14.5821 22.854 14.568 22.6722 14.5104 22.5021C14.4527 22.3319 14.3534 22.1789 14.2215 22.057L10.9665 19.0071C10.8143 18.8641 10.7064 18.6804 10.6557 18.4779C10.605 18.2754 10.6135 18.0626 10.6803 17.8648C10.7471 17.667 10.8694 17.4926 11.0325 17.3624C11.1957 17.2321 11.3928 17.1514 11.6005 17.1301L16.1005 16.5011C16.2817 16.4772 16.4545 16.4103 16.6044 16.3059C16.7544 16.2015 16.8772 16.0627 16.9625 15.901L18.9755 11.98C19.0754 11.7949 19.2234 11.6402 19.404 11.5323C19.5846 11.4245 19.791 11.3674 20.0014 11.3672C20.2117 11.367 20.4182 11.4236 20.599 11.5312C20.7798 11.6387 20.9282 11.7931 21.0285 11.978Z" fill="white"/>
</svg>
