<svg width="40" height="40" viewBox="0 0 40 40" fill="none" xmlns="http://www.w3.org/2000/svg">
<rect width="40" height="40" rx="20" fill="#F1F1F1"/>
<path d="M31.7366 20.753C31.7366 19.9291 31.6569 19.0786 31.524 18.2812H20.0156V22.9856H26.607C26.3412 24.5006 25.4642 25.8295 24.1618 26.68L28.0954 29.7365C30.4077 27.5836 31.7366 24.4474 31.7366 20.753Z" fill="#4280EF"/>
<path d="M20.0182 32.6582C23.3139 32.6582 26.078 31.5685 28.0979 29.708L24.1644 26.6781C23.0747 27.4222 21.666 27.8475 20.0182 27.8475C16.8288 27.8475 14.1444 25.6947 13.161 22.8242L9.12109 25.9339C11.1942 30.0535 15.3936 32.6582 20.0182 32.6582Z" fill="#34A353"/>
<path d="M13.1598 22.8023C12.6548 21.2873 12.6548 19.6395 13.1598 18.1245L9.11991 14.9883C7.39232 18.4434 7.39232 22.5099 9.11991 25.9385L13.1598 22.8023Z" fill="#F6B704"/>
<path d="M20.0182 13.0877C21.7457 13.0611 23.4468 13.7256 24.6959 14.9216L28.1777 11.4133C25.9717 9.34017 23.0481 8.22389 20.0182 8.25046C15.3936 8.25046 11.1942 10.8551 9.12109 14.9748L13.161 18.111C14.1444 15.214 16.8288 13.0877 20.0182 13.0877Z" fill="#E54335"/>
</svg>
