<svg width="40" height="11" viewBox="0 0 40 11" fill="none" xmlns="http://www.w3.org/2000/svg">
<path d="M0.898478 2.15039H1.26069L3.50277 5.47391V8.32708H4.67603V10.2885H0V8.32708H0.898478V2.15039Z" fill="#03205C"/>
<path d="M21.5909 0V3.25166H18.9555V1.9421H16.5186V3.97236H19.4125V5.92928H16.5186V8.32767H18.9555V6.96257H21.5909V10.2883H12.4062V8.33138H13.3692V1.94581H12.4062V0H21.5909Z" fill="#03205C"/>
<path d="M27.379 0V1.9421H26.5717V8.32767H28.5368V6.4589H31.0958V10.2846H22.5645V8.32767H23.4022V1.9421H22.5645V0H27.379Z" fill="#03205C"/>
<path d="M39.9975 3.8257H37.7584V1.9421H36.4785V8.32767H37.7428V10.2846H32.0772V8.32767H33.326V1.9421H32.0165V3.8257H29.7773V0H39.999L39.9975 3.8257Z" fill="#03205C"/>
<path d="M7.38853 10.2853L1.56294 1.8984H0.015625V0H4.38573L8.11739 5.40043V1.8984H7.08039V0H11.6653V1.8984H10.6624V10.2853H7.38853Z" fill="#E96D0A"/>
</svg>
