<svg width="40" height="40" viewBox="0 0 40 40" fill="none" xmlns="http://www.w3.org/2000/svg">
<path d="M30.4 7.0012H20.185C18.9256 7.00299 17.692 7.35774 16.624 8.0252C15.5521 7.35759 14.3148 7.00291 13.052 7.0012H2.838C2.61566 7.00147 2.40251 7.08998 2.24538 7.24729C2.08826 7.40461 2 7.61786 2 7.8402L2 27.6402C2.00209 27.8618 2.09104 28.0737 2.24775 28.2305C2.40446 28.3872 2.61639 28.4761 2.838 28.4782H13.052C14.1563 28.4773 15.2307 28.8369 16.112 29.5022C16.2567 29.6152 16.435 29.6765 16.6185 29.6765C16.802 29.6765 16.9803 29.6152 17.125 29.5022C18.0073 28.8387 19.0811 28.4794 20.185 28.4782H30.4C30.6222 28.4779 30.8352 28.3896 30.9923 28.2325C31.1494 28.0754 31.2377 27.8624 31.238 27.6402C31.238 27.6402 31.238 8.7482 31.238 7.8402C31.238 6.9322 31.362 7.0012 30.4 7.0012Z" fill="white" stroke="#323232" stroke-linecap="round"/>
<path d="M16.6191 7.54517V29.3232" stroke="#323232"/>
<path d="M6.01758 13.2861H11.8656" stroke="#323232" stroke-linecap="round"/>
<path d="M6.01758 17.6721H11.8656" stroke="#323232" stroke-linecap="round"/>
<path d="M6.01758 22.0581H11.8656" stroke="#323232" stroke-linecap="round"/>
<path d="M21.3711 13.2861H27.2191" stroke="#323232" stroke-linecap="round"/>
<path d="M21.3711 17.6721H27.2191" stroke="#323232" stroke-linecap="round"/>
<path d="M21.3711 22.0581H27.2191" stroke="#323232" stroke-linecap="round"/>
<path d="M31.3465 20.4373H20.0325C16.7127 20.4373 14.0215 23.1285 14.0215 26.4483C14.0215 29.768 16.7127 32.4593 20.0325 32.4593H31.3465C34.6663 32.4593 37.3575 29.768 37.3575 26.4483C37.3575 23.1285 34.6663 20.4373 31.3465 20.4373Z" fill="#FFD139"/>
<path d="M31.3465 20.9373H20.0325C16.9888 20.9373 14.5215 23.4046 14.5215 26.4483C14.5215 29.4919 16.9888 31.9593 20.0325 31.9593H31.3465C34.3901 31.9593 36.8575 29.4919 36.8575 26.4483C36.8575 23.4046 34.3901 20.9373 31.3465 20.9373Z" stroke="#323232"/>
<path d="M20.2303 28.9233H18.9363V25.0053H17.9883V23.9733H20.2303V28.9233ZM23.9503 25.9603C24.3149 26.0139 24.6504 26.1903 24.9013 26.4603C25.1228 26.7186 25.2401 27.0501 25.2303 27.3903C25.2323 27.6758 25.1513 27.9558 24.9973 28.1963C24.822 28.4582 24.5752 28.6643 24.2863 28.7903C23.9171 28.9496 23.5172 29.0251 23.1153 29.0113C22.7656 29.013 22.4172 28.9703 22.0783 28.8843C21.767 28.8075 21.4699 28.6816 21.1983 28.5113L21.6983 27.5113C21.8991 27.647 22.1197 27.7509 22.3523 27.8193C22.5896 27.8917 22.8362 27.9287 23.0843 27.9293C23.2989 27.9403 23.5122 27.8901 23.6993 27.7843C23.7693 27.744 23.8273 27.6856 23.867 27.6152C23.9068 27.5448 23.9269 27.4651 23.9253 27.3843C23.9253 27.0403 23.6496 26.8683 23.0983 26.8683H22.5283V26.0123L23.4613 25.0013H21.4613V23.9733H24.9973V24.8113L23.9503 25.9603ZM28.2063 28.9233H26.9123V25.0053H25.9643V23.9733H28.2063V28.9233ZM31.7063 25.7833C32.0061 25.7796 32.3027 25.846 32.5723 25.9773C32.8257 26.0998 33.0408 26.2893 33.1943 26.5253C33.3495 26.7677 33.4295 27.0505 33.4243 27.3383C33.4303 27.6519 33.3414 27.96 33.1693 28.2223C32.9983 28.4791 32.759 28.6831 32.4783 28.8113C32.1717 28.9492 31.8384 29.0175 31.5023 29.0113C31.1981 29.0272 30.894 28.9792 30.6096 28.8701C30.3251 28.7611 30.0668 28.5935 29.8513 28.3783C29.4213 27.8756 29.2058 27.2242 29.2513 26.5643C29.2377 26.0615 29.3494 25.5632 29.5763 25.1143C29.7803 24.7217 30.0982 24.3999 30.4883 24.1913C30.9042 23.9777 31.3668 23.8712 31.8343 23.8813C32.0997 23.8804 32.3642 23.9113 32.6223 23.9733C32.8488 24.024 33.0652 24.1126 33.2623 24.2353L32.7883 25.1833C32.515 25.0068 32.1944 24.9179 31.8693 24.9283C31.5896 24.9195 31.3138 24.9947 31.0773 25.1443C30.8562 25.2934 30.6936 25.5147 30.6173 25.7703C30.5986 25.8409 30.5749 25.9516 30.5463 26.1023C30.8916 25.8799 31.2958 25.7686 31.7063 25.7833ZM31.4303 28.0533C31.6227 28.0615 31.8114 27.9984 31.9603 27.8763C32.0279 27.8178 32.0815 27.7448 32.117 27.6627C32.1525 27.5806 32.169 27.4916 32.1653 27.4023C32.1696 27.3118 32.1534 27.2216 32.1179 27.1383C32.0824 27.055 32.0285 26.9808 31.9603 26.9213C31.8091 26.7984 31.6179 26.7354 31.4233 26.7443C31.2251 26.7359 31.0309 26.8015 30.8783 26.9283C30.8097 26.9864 30.755 27.0591 30.7184 27.1412C30.6817 27.2232 30.6639 27.3124 30.6663 27.4023C30.6624 27.4912 30.6783 27.5798 30.7129 27.6618C30.7475 27.7438 30.7999 27.817 30.8663 27.8763C31.0262 28.0032 31.2275 28.0663 31.4313 28.0533H31.4303Z" fill="#323232"/>
</svg>
