<svg width="40" height="40" viewBox="0 0 40 40" fill="none" xmlns="http://www.w3.org/2000/svg">
<path d="M4 7C4 5.89543 4.89543 5 6 5H32.2791C33.3836 5 34.2791 5.89543 34.2791 7V27.5116C34.2791 28.6162 33.3836 29.5116 32.2791 29.5116H6C4.89543 29.5116 4 28.6162 4 27.5116V7Z" fill="white" stroke="#323232"/>
<g clip-path="url(#clip0_2219_97744)">
<path d="M11.7996 16.0361V16.9888H13.842V17.9311H11.7996V19.4142H10.4883V15.0938H14.1205V16.0361H11.7996Z" fill="#323232"/>
<path d="M16.7594 18.2658H16.0457V19.4142H14.7344V15.0938H16.8522C18.1171 15.0938 18.9062 15.7065 18.9062 16.6952C18.9062 17.3338 18.5755 17.8024 18.001 18.0599L18.999 19.4193H17.5949L16.7536 18.271L16.7594 18.2658ZM16.771 16.0567H16.0457V17.3235H16.771C17.3106 17.3235 17.5833 17.0866 17.5833 16.6952C17.5833 16.3039 17.3106 16.0567 16.771 16.0567Z" fill="#323232"/>
<path d="M23.3442 18.4718V19.4142H19.625V15.0938H23.2572V16.0361H20.9247V16.7673H22.9787V17.6788H20.9247V18.4718H23.3442Z" fill="#323232"/>
<path d="M27.7896 18.4718V19.4142H24.0703V15.0938H27.7025V16.0361H25.37V16.7673H27.424V17.6788H25.37V18.4718H27.7896Z" fill="#323232"/>
</g>
<path d="M13.7344 35.2792C15.1762 33.5489 15.2964 30.7133 15.1762 29.5117H23.1065C23.1065 32.1071 24.0677 34.4381 24.5483 35.2792H13.7344Z" fill="white" stroke="#323232" stroke-linejoin="round"/>
<line x1="9.54688" y1="35.5" x2="27.2911" y2="35.5" stroke="#323232" stroke-linecap="round"/>
<line x1="10.9883" y1="35.5" x2="28.7325" y2="35.5" stroke="#323232" stroke-linecap="round"/>
<path d="M28.3014 28.271L26.3477 19.418L35.2295 21.6096L33.4272 23.4119L37.3995 27.3842L34.177 30.614L30.1253 26.5624L28.3014 28.271Z" fill="#FFD139"/>
<path d="M28.3014 28.271L26.3477 19.418L35.2295 21.6096L33.4272 23.4119L37.3995 27.3842L34.177 30.614L30.1253 26.5624L28.3014 28.271Z" stroke="#323232" stroke-linejoin="round"/>
<defs>
<clipPath id="clip0_2219_97744">
<rect width="17.3023" height="4.32558" fill="white" transform="translate(10.4883 15.0938)"/>
</clipPath>
</defs>
</svg>
