<svg width="40" height="40" viewBox="0 0 40 40" fill="none" xmlns="http://www.w3.org/2000/svg">
<rect x="0.5" y="0.5" width="39" height="39" rx="19.5" stroke="#E1E1E1"/>
<path d="M29.7937 11.9565C29.7929 11.7627 29.7154 11.577 29.578 11.4402C29.4406 11.3034 29.2546 11.2266 29.0607 11.2266L23.5377 11.2505C23.3433 11.2505 23.1569 11.3278 23.0194 11.4652C22.8819 11.6027 22.8047 11.7891 22.8047 11.9836C22.8047 12.178 22.8819 12.3644 23.0194 12.5019C23.1569 12.6393 23.3433 12.7166 23.5377 12.7166L27.2447 12.7006L20.5447 19.4855C20.4113 19.6245 20.3379 19.8104 20.3404 20.003C20.3429 20.1957 20.4212 20.3796 20.5583 20.5149C20.6953 20.6503 20.8802 20.7263 21.0729 20.7264C21.2655 20.7265 21.4505 20.6507 21.5877 20.5155L28.3327 13.6855L28.3497 17.6316C28.3505 17.8254 28.4281 18.0111 28.5655 18.1479C28.7029 18.2847 28.8889 18.3615 29.0827 18.3615C29.179 18.3611 29.2742 18.3418 29.363 18.3046C29.4518 18.2674 29.5324 18.2131 29.6002 18.1447C29.6679 18.0764 29.7216 17.9954 29.7581 17.9063C29.7946 17.8172 29.8131 17.7218 29.8127 17.6255L29.7937 11.9565Z" fill="#969696"/>
<path d="M26.8619 19.956C26.668 19.956 26.482 20.0328 26.3446 20.1696C26.2073 20.3065 26.1297 20.4922 26.1289 20.686L26.1069 26.358H14.6619V14.925L20.4259 14.947C20.6203 14.947 20.8067 14.8698 20.9442 14.7323C21.0816 14.5949 21.1589 14.4084 21.1589 14.214C21.1589 14.0196 21.0816 13.8332 20.9442 13.6957C20.8067 13.5582 20.6203 13.481 20.4259 13.481L13.9259 13.457C13.7315 13.457 13.545 13.5343 13.4076 13.6717C13.2701 13.8092 13.1929 13.9956 13.1929 14.19V27.09C13.1929 27.2844 13.2701 27.4709 13.4076 27.6083C13.545 27.7458 13.7315 27.823 13.9259 27.823H26.8259C27.0198 27.823 27.2057 27.7462 27.3431 27.6094C27.4805 27.4726 27.5581 27.2869 27.5589 27.093L27.5829 20.693C27.584 20.5 27.5088 20.3143 27.3738 20.1763C27.2388 20.0383 27.0549 19.9592 26.8619 19.956Z" fill="#969696"/>
</svg>
