<svg width="20" height="20" viewBox="0 0 20 20" fill="none" xmlns="http://www.w3.org/2000/svg">
<path d="M8.81188 6.66667C8.81188 7.58714 8.0583 8.33333 7.12871 8.33333C6.19912 8.33333 5.44554 7.58714 5.44554 6.66667M8.81188 6.66667C8.81188 5.74619 8.0583 5 7.12871 5C6.19912 5 5.44554 5.74619 5.44554 6.66667M8.81188 6.66667H17.5M5.44554 6.66667H2.5" stroke="black" stroke-width="1.5" stroke-linecap="round" stroke-linejoin="round"/>
<path d="M8.81188 6.66667C8.81188 7.58714 8.0583 8.33333 7.12871 8.33333C6.19912 8.33333 5.44554 7.58714 5.44554 6.66667M8.81188 6.66667C8.81188 5.74619 8.0583 5 7.12871 5C6.19912 5 5.44554 5.74619 5.44554 6.66667M8.81188 6.66667H17.5M5.44554 6.66667H2.5" stroke="black" stroke-opacity="0.2" stroke-width="1.5" stroke-linecap="round" stroke-linejoin="round"/>
<path d="M14.5545 13.3337C14.5545 14.2541 13.8009 15.0003 12.8713 15.0003C11.9417 15.0003 11.1881 14.2541 11.1881 13.3337M14.5545 13.3337C14.5545 12.4132 13.8009 11.667 12.8713 11.667C11.9417 11.667 11.1881 12.4132 11.1881 13.3337M14.5545 13.3337H17.5M11.1881 13.3337H2.5" stroke="black" stroke-width="1.5" stroke-linecap="round" stroke-linejoin="round"/>
<path d="M14.5545 13.3337C14.5545 14.2541 13.8009 15.0003 12.8713 15.0003C11.9417 15.0003 11.1881 14.2541 11.1881 13.3337M14.5545 13.3337C14.5545 12.4132 13.8009 11.667 12.8713 11.667C11.9417 11.667 11.1881 12.4132 11.1881 13.3337M14.5545 13.3337H17.5M11.1881 13.3337H2.5" stroke="black" stroke-opacity="0.2" stroke-width="1.5" stroke-linecap="round" stroke-linejoin="round"/>
</svg>
