<svg width="20" height="20" viewBox="0 0 20 20" fill="none" xmlns="http://www.w3.org/2000/svg">
<path d="M10 0.75C15.1086 0.75 19.25 4.89137 19.25 10C19.25 15.1086 15.1086 19.25 10 19.25C4.89137 19.25 0.75 15.1086 0.75 10C0.75 4.89137 4.89137 0.75 10 0.75Z" stroke="#191919" stroke-width="1.5"/>
<path d="M9.19272 11.0148C9.10581 11.4918 9.51227 11.8908 9.99711 11.8908C10.4812 11.8908 10.8484 11.4846 11.0101 11.0283C11.2234 10.4264 11.6561 10.0648 12.0869 9.70469C12.6843 9.20536 13.278 8.70907 13.278 7.57949C13.278 5.83147 11.8616 4.802 10.0583 4.802C8.4195 4.802 7.18353 5.66594 6.8223 7.06839C6.70133 7.53803 7.10837 7.93877 7.59334 7.93877C8.07707 7.93877 8.43241 7.52029 8.6567 7.09169C8.89781 6.63095 9.36146 6.36806 9.98923 6.36348C10.8529 6.37039 11.454 6.86785 11.454 7.64858C11.454 8.28084 11.0583 8.58182 10.5928 8.93602C10.0479 9.35058 9.40715 9.83803 9.19272 11.0148Z" fill="#191919"/>
<path d="M8.88376 14.0603C8.87685 14.6821 9.34667 15.1381 10.003 15.1381C10.6456 15.1381 11.1154 14.6821 11.1223 14.0603C11.1154 13.4385 10.6456 12.9825 10.003 12.9825C9.34667 12.9825 8.87685 13.4385 8.88376 14.0603Z" fill="#191919"/>
</svg>
