<svg width="320" height="150" viewBox="0 0 320 150" fill="none" xmlns="http://www.w3.org/2000/svg">
<mask id="path-1-inside-1_1998_483" fill="white">
<path d="M320 44.5C320 50.0229 315.255 54.2928 310.41 56.9447C304.207 60.3407 300 66.9291 300 74.5C300 82.0709 304.207 88.6593 310.41 92.0553C315.255 94.7072 320 98.9771 320 104.5V140C320 145.523 315.523 150 310 150H10C4.47715 150 0 145.523 0 140V10C0 4.47715 4.47715 0 10 0H310C315.523 0 320 4.47715 320 10V44.5Z"/>
</mask>
<path d="M320 44.5C320 50.0229 315.255 54.2928 310.41 56.9447C304.207 60.3407 300 66.9291 300 74.5C300 82.0709 304.207 88.6593 310.41 92.0553C315.255 94.7072 320 98.9771 320 104.5V140C320 145.523 315.523 150 310 150H10C4.47715 150 0 145.523 0 140V10C0 4.47715 4.47715 0 10 0H310C315.523 0 320 4.47715 320 10V44.5Z" fill="white"/>
<path d="M310.41 92.0553L310.89 91.1781L310.41 92.0553ZM310.41 56.9447L309.93 56.0675C303.419 59.6319 299 66.5492 299 74.5H300H301C301 67.309 304.995 61.0494 310.89 57.8219L310.41 56.9447ZM300 74.5H299C299 82.4508 303.419 89.3681 309.93 92.9325L310.41 92.0553L310.89 91.1781C304.995 87.9506 301 81.691 301 74.5H300ZM320 104.5H319V140H320H321V104.5H320ZM310 150V149H10V150V151H310V150ZM0 140H1V10H0H-1V140H0ZM10 0V1H310V0V-1H10V0ZM320 10H319V44.5H320H321V10H320ZM310 0V1C314.971 1 319 5.02944 319 10H320H321C321 3.92487 316.075 -1 310 -1V0ZM10 150V149C5.02944 149 1 144.971 1 140H0H-1C-1 146.075 3.92487 151 10 151V150ZM320 140H319C319 144.971 314.971 149 310 149V150V151C316.075 151 321 146.075 321 140H320ZM310.41 92.0553L309.93 92.9325C312.284 94.2212 314.573 95.8822 316.263 97.8521C317.948 99.8169 319 102.043 319 104.5H320H321C321 101.434 319.68 98.7639 317.781 96.5501C315.887 94.3413 313.381 92.5413 310.89 91.1781L310.41 92.0553ZM0 10H1C1 5.02944 5.02944 1 10 1V0V-1C3.92487 -1 -1 3.92487 -1 10H0ZM310.41 56.9447L310.89 57.8219C313.381 56.4587 315.887 54.6587 317.781 52.4499C319.68 50.2361 321 47.5657 321 44.5H320H319C319 46.9572 317.948 49.1831 316.263 51.1479C314.573 53.1178 312.284 54.7788 309.93 56.0675L310.41 56.9447Z" fill="#172E55" mask="url(#path-1-inside-1_1998_483)"/>
</svg>
