<svg width="75" height="56" viewBox="0 0 75 56" fill="none" xmlns="http://www.w3.org/2000/svg">
<g clip-path="url(#clip0_1642_1991)">
<path d="M18.418 53.7382V27.6336C18.418 26.3844 17.4109 25.3721 16.1787 25.3721C14.9466 25.3721 13.9287 26.3844 13.9287 27.6336V53.7382C13.9287 54.1259 14.0251 54.4921 14.1966 54.8044C14.1966 54.8259 14.218 54.8367 14.2287 54.8582C14.2287 54.8582 14.2287 54.8798 14.2501 54.8905C14.2501 54.8905 14.2501 54.9121 14.2716 54.9121C14.668 55.5582 15.3751 55.989 16.1894 55.989C17.0573 55.989 17.818 55.4936 18.1823 54.7613C18.1823 54.7613 18.1823 54.7613 18.1823 54.7505C18.1823 54.7505 18.1823 54.729 18.2037 54.7182V54.6967C18.2037 54.6967 18.2037 54.6859 18.2037 54.6751C18.2037 54.6751 18.2037 54.6536 18.2251 54.6428C18.2251 54.6428 18.2251 54.6428 18.2251 54.6321C18.2251 54.6213 18.2359 54.5998 18.2466 54.589C18.268 54.5244 18.3001 54.4598 18.3216 54.3844C18.3216 54.3628 18.3216 54.3521 18.3323 54.3305C18.3323 54.3305 18.3323 54.2982 18.343 54.2875C18.343 54.2875 18.343 54.2767 18.343 54.2659C18.343 54.2659 18.343 54.2444 18.343 54.2336C18.343 54.2336 18.343 54.2121 18.343 54.2013C18.343 54.2013 18.343 54.1905 18.343 54.1798C18.3751 54.029 18.3859 53.8782 18.3859 53.7275" fill="#4B4B4B"/>
<path d="M29.3038 40.6863C29.3038 39.4371 28.2966 38.4355 27.0645 38.4355C25.8323 38.4355 24.8252 39.4479 24.8252 40.6863V55.9894H29.3145V40.6863H29.3038Z" fill="#4B4B4B"/>
<path d="M18.407 53.7382V53.6844C18.407 53.3398 18.3106 52.9951 18.1391 52.6721L13.9177 44.7567L4.23201 26.5675C3.82486 25.8028 3.05344 25.3721 2.24986 25.3721C1.89629 25.3721 1.53201 25.4582 1.18915 25.6413C0.0962934 26.2336 -0.31085 27.6013 0.267722 28.6998L14.1856 54.8044C14.1856 54.8259 14.207 54.8367 14.2177 54.8582C14.2177 54.8582 14.2177 54.8798 14.2392 54.8905C14.2392 54.8905 14.2392 54.9121 14.2606 54.9121C14.3142 54.9982 14.3677 55.0736 14.4213 55.149C14.4749 55.2136 14.5177 55.2675 14.5713 55.3213C14.582 55.3321 14.5927 55.3428 14.6034 55.3644C14.657 55.4182 14.7213 55.4721 14.7856 55.5259C14.7856 55.5259 14.807 55.5475 14.8177 55.5475C14.882 55.6013 14.957 55.6444 15.0213 55.6875C15.0213 55.6875 15.0427 55.6982 15.0534 55.709C15.1284 55.7521 15.2034 55.7951 15.2892 55.8275C15.2892 55.8275 15.2999 55.8275 15.3106 55.8275C15.5784 55.9351 15.8677 55.9998 16.1677 55.9998C16.3713 55.9998 16.5749 55.9675 16.7784 55.9136C16.7999 55.9136 16.8106 55.9136 16.832 55.8921C16.907 55.8705 16.982 55.8382 17.057 55.8059C17.0784 55.8059 17.1106 55.7844 17.132 55.7736C17.1642 55.7521 17.1963 55.7413 17.2391 55.7305C17.2606 55.7198 17.282 55.6982 17.3034 55.6875C17.357 55.6551 17.3999 55.6336 17.4427 55.6013C17.4856 55.569 17.5284 55.5367 17.5713 55.5044C17.6141 55.4721 17.657 55.4398 17.6891 55.3967C17.732 55.3644 17.7749 55.3213 17.807 55.289C17.8499 55.2459 17.882 55.2028 17.9141 55.1598C17.9463 55.1275 17.9784 55.0844 17.9999 55.0413C18.0641 54.9551 18.1177 54.869 18.1606 54.7721C18.1606 54.7721 18.1606 54.7721 18.1606 54.7613C18.1606 54.7613 18.1606 54.7398 18.182 54.729V54.7075C18.182 54.7075 18.182 54.6967 18.182 54.6859C18.182 54.6859 18.182 54.6644 18.2034 54.6536C18.2034 54.6536 18.2034 54.6536 18.2034 54.6428C18.2034 54.6321 18.2141 54.6105 18.2249 54.5998C18.2463 54.5351 18.2784 54.4705 18.2999 54.3951C18.2999 54.3736 18.2999 54.3628 18.3106 54.3413C18.3106 54.3413 18.3106 54.309 18.3213 54.2982C18.3213 54.2982 18.3213 54.2875 18.3213 54.2767C18.3213 54.2767 18.3213 54.2551 18.3213 54.2444C18.3213 54.2444 18.3213 54.2228 18.3213 54.2121C18.3213 54.2121 18.3213 54.2013 18.3213 54.1905C18.3427 54.0398 18.3641 53.889 18.3641 53.7382" fill="#4B4B4B"/>
<path d="M4.48929 40.4171L0 31.9956V55.9895H4.48929V40.4171Z" fill="#4B4B4B"/>
<path d="M38.2285 38.4355H31.0928V42.9479H38.2285C39.4713 42.9479 40.4785 41.9355 40.4785 40.6863C40.4785 39.4371 39.4713 38.4355 38.2285 38.4355Z" fill="#4B4B4B"/>
<path d="M39.6213 51.4878H31.082V56.0001H39.6213C40.8642 56.0001 41.8713 54.9878 41.8713 53.7493C41.8713 52.5109 40.8642 51.4878 39.6213 51.4878Z" fill="#4B4B4B"/>
<path d="M13.9286 44.7569V53.7492C13.9286 54.1369 14.0251 54.503 14.1965 54.8154C14.1965 54.8369 14.2179 54.8584 14.2286 54.8692C14.2286 54.8692 14.2286 54.8907 14.2501 54.9015C14.2501 54.9015 14.2501 54.923 14.2715 54.923C14.3251 55.0092 14.3786 55.0846 14.4322 55.16C14.4536 55.1815 14.4751 55.203 14.4965 55.2246C14.5286 55.2569 14.5608 55.3 14.5929 55.3323C14.5929 55.343 14.6143 55.3538 14.6251 55.3646C14.6465 55.3861 14.6679 55.3969 14.6893 55.4184C14.7322 55.4615 14.7751 55.5046 14.8286 55.5369C14.8286 55.5369 14.8286 55.5369 14.8501 55.5477C14.9143 55.6015 14.9893 55.6446 15.0643 55.6877C15.0643 55.6877 15.0858 55.6984 15.0965 55.7092C15.1393 55.7307 15.1929 55.763 15.2465 55.7846C15.2786 55.7954 15.3108 55.8169 15.3429 55.8277C15.3429 55.8277 15.3429 55.8277 15.3536 55.8277C15.4393 55.86 15.5251 55.8923 15.6108 55.9138C15.6215 55.9138 15.6322 55.9138 15.6536 55.9138C15.8358 55.9569 16.0179 55.9892 16.2108 55.9892C16.4251 55.9892 16.6286 55.9569 16.8215 55.903C16.8322 55.903 16.8536 55.903 16.8643 55.8923C16.9393 55.8707 17.0143 55.8384 17.0893 55.8061C17.1108 55.8061 17.1322 55.7846 17.1536 55.7738C17.2179 55.7415 17.2715 55.7092 17.3358 55.6769C17.3786 55.6554 17.4215 55.623 17.4643 55.5907C17.5072 55.5584 17.5501 55.5261 17.6036 55.4938C17.6465 55.4615 17.6893 55.4292 17.7215 55.3861L17.7429 55.3646C17.7751 55.3323 17.8072 55.3107 17.8393 55.2784C17.8822 55.2354 17.9143 55.1923 17.9465 55.1492C17.9786 55.1061 18.0108 55.0738 18.0322 55.0307C18.0965 54.9446 18.1501 54.8584 18.1929 54.7615C18.1929 54.7615 18.1929 54.7615 18.1929 54.7507C18.1929 54.7507 18.1929 54.7292 18.2143 54.7184V54.6969C18.2143 54.6969 18.2143 54.6861 18.2143 54.6754C18.2143 54.6754 18.2143 54.6538 18.2358 54.643C18.2358 54.643 18.2358 54.643 18.2358 54.6323C18.2358 54.6215 18.2465 54.6 18.2572 54.5892C18.2786 54.5246 18.3108 54.46 18.3322 54.3846C18.3322 54.363 18.3322 54.3523 18.3429 54.3307C18.3429 54.3307 18.3429 54.2984 18.3536 54.2877C18.3536 54.2877 18.3536 54.2877 18.3536 54.2661C18.3536 54.2661 18.3536 54.2446 18.3536 54.2338C18.3536 54.223 18.3536 54.2123 18.3536 54.2015C18.3536 54.2015 18.3536 54.2015 18.3536 54.18C18.3858 54.0292 18.3965 53.8784 18.3965 53.7277V53.6738C18.3965 53.3292 18.3001 52.9846 18.1286 52.6615L13.8965 44.7354L13.9286 44.7569Z" fill="#4B4B4B"/>
<path d="M18.4073 53.7386C18.4073 54.9878 17.4001 55.9893 16.168 55.9893C14.9359 55.9893 13.9287 54.977 13.9287 53.7386C13.9287 52.5001 14.9359 51.4878 16.168 51.4878C17.4001 51.4878 18.4073 52.5001 18.4073 53.7386Z" fill="#4B4B4B"/>
<path d="M24.8145 40.6859V32.8244C24.8145 28.7105 28.1359 25.3828 32.2287 25.3721H39.6323C40.8752 25.3721 41.8823 26.3844 41.8823 27.6228C41.8823 28.8613 40.8752 29.8844 39.6323 29.8844H32.2287C30.6216 29.8844 29.3145 31.1982 29.3145 32.8136V40.6751C29.3145 41.9244 28.3073 42.9259 27.0752 42.9259C25.843 42.9259 24.8252 41.9136 24.8252 40.6751" fill="#4B4B4B"/>
<path d="M29.3038 40.6863C29.3038 41.9355 28.2966 42.9371 27.0645 42.9371C25.8323 42.9371 24.8252 41.9248 24.8252 40.6863C24.8252 39.4479 25.8323 38.4355 27.0645 38.4355C28.2966 38.4355 29.3038 39.4479 29.3038 40.6863Z" fill="#4B4B4B"/>
<path d="M29.3038 40.6863C29.3038 41.9355 28.2966 42.9371 27.0645 42.9371C25.8323 42.9371 24.8252 41.9248 24.8252 40.6863C24.8252 39.4479 25.8323 38.4355 27.0645 38.4355C28.3073 38.4355 29.3038 39.4479 29.3038 40.6863Z" fill="#4B4B4B"/>
<path d="M62.3465 28.0538V30.5415C62.3465 31.5862 63.3429 32.4369 64.5537 32.4369H72.5144V31.3385H64.5537C64.0501 31.3385 63.6322 30.9831 63.6322 30.5415V29.1523H72.3322V24.9308H62.3465V26.0292H71.0465V28.0431H62.3465V28.0538ZM65.7322 35H69.1072V37.1108H65.7322V35ZM59.6572 35H64.4358V37.1108H61.8215V38.2092H71.4858V40.2446H61.8965V42.7538C61.8965 43.7985 62.8929 44.6492 64.1037 44.6492H73.5751V43.5508H64.1037C63.6001 43.5508 63.1822 43.1954 63.1822 42.7538V41.3431H72.7715V37.1H70.3822V34.9892H74.9894V33.8908H59.6572V34.9892V35ZM64.0822 15.9492C64.0822 14.3015 65.6358 12.9769 67.5537 12.9662C69.4715 12.9662 71.0251 14.3015 71.0251 15.9492C71.0251 17.5969 69.4715 18.9215 67.5537 18.9323C65.6358 18.9323 64.0822 17.5969 64.0822 15.9492ZM72.3108 15.9492C72.3108 13.6985 70.1787 11.8677 67.5537 11.8677C64.9287 11.8677 62.7965 13.6985 62.7965 15.9492C62.7965 18.2 64.9287 20.0308 67.5537 20.0308C70.1787 20.0308 72.3108 18.2 72.3108 15.9492ZM72.7072 51.4338H60.5787V56H72.7072C73.9501 56 74.9465 54.9769 74.9465 53.7169C74.9465 52.4569 73.9394 51.4338 72.7072 51.4338ZM59.6572 8.97077V10.0692H75.0001V8.97077H59.6572ZM72.6001 5.32H64.0287V0H62.7429V6.41846H72.6001V5.32Z" fill="#4B4B4B"/>
</g>
<defs>
<clipPath id="clip0_1642_1991">
<rect width="75" height="56" fill="white"/>
</clipPath>
</defs>
</svg>
