<svg width="115" height="32" viewBox="0 0 115 32" fill="none" xmlns="http://www.w3.org/2000/svg">
<g clip-path="url(#clip0_2389_2820)">
<path d="M10.2989 27.0225L10.2737 26.9965L10.1152 27.1649C9.21688 27.9631 8.27336 28.709 7.28932 29.3988C6.72662 29.7936 6.07598 30.045 5.39399 30.1311C4.712 30.2171 4.01931 30.1352 3.37618 29.8925C2.92899 29.6935 2.55041 29.3671 2.28778 28.954C2.02515 28.5409 1.89013 28.0596 1.89961 27.5703V5.30205C1.87125 4.61338 2.05745 3.9329 2.43251 3.35463C2.80756 2.77635 3.35295 2.32881 3.99332 2.07386C5.5377 1.46815 7.36932 1.98322 8.89771 3.44912C10.8116 5.28683 13.572 7.83693 16.7194 10.736L16.9335 10.9341C19.4478 13.2556 21.8272 15.4484 23.3236 16.8845C23.5129 17.041 23.7508 17.1266 23.9964 17.1266C24.2419 17.1266 24.4798 17.041 24.6691 16.8845C24.7576 16.8015 24.8281 16.7011 24.8763 16.5897C24.9245 16.4784 24.9494 16.3583 24.9494 16.2369C24.9494 16.1156 24.9245 15.9955 24.8763 15.8841C24.8281 15.7727 24.7576 15.6724 24.6691 15.5893C23.127 14.1104 20.6524 11.8255 18.0352 9.41787C15.028 6.64606 12.1686 4.00835 10.2417 2.15692C8.17313 0.175966 5.50037 -0.505174 3.26266 0.383969C2.28102 0.771576 1.44156 1.4504 0.857103 2.32919C0.27265 3.20798 -0.0287826 4.24461 -0.00667824 5.29978V27.603C-0.0082884 28.438 0.233312 29.2554 0.688605 29.9553C1.1439 30.6552 1.79318 31.2074 2.55714 31.5444C3.26499 31.8494 4.02866 32.0035 4.79942 31.9969C6.10106 32.0018 7.37178 31.6004 8.43447 30.8487C9.50985 30.1043 10.5351 29.2898 11.5034 28.4106C11.5864 28.3246 11.6511 28.2227 11.6937 28.111C11.7364 27.9994 11.756 27.8802 11.7515 27.7608C11.7471 27.6414 11.7185 27.5241 11.6676 27.4159C11.6168 27.3078 11.5446 27.211 11.4554 27.1314C11.2978 26.9921 11.0999 26.9066 10.8905 26.8873C10.6811 26.868 10.4709 26.9159 10.2905 27.024" fill="white"/>
<path d="M33.6596 4.39108C33.6613 3.55618 33.4195 2.7389 32.9639 2.03929C32.5083 1.33967 31.8585 0.788082 31.0942 0.452048C30.1359 0.0618086 29.0943 -0.0791588 28.0668 0.0423566C27.0392 0.163872 26.0593 0.543894 25.2184 1.1469C24.1418 1.89101 23.1156 2.70549 22.1464 3.585C22.0634 3.67104 21.9987 3.77296 21.9562 3.88467C21.9136 3.99637 21.8941 4.11551 21.8988 4.23495C21.9035 4.35439 21.9323 4.47164 21.9835 4.57965C22.0347 4.68766 22.1072 4.78421 22.1967 4.86346C22.3542 5.00286 22.552 5.0885 22.7615 5.10795C22.9709 5.1274 23.1811 5.07965 23.3616 4.97165L23.3876 4.99681L23.5453 4.82689C24.4461 4.03155 25.3897 3.28605 26.3719 2.59374C26.9342 2.19764 27.5851 1.94557 28.2675 1.85962C28.9499 1.77368 29.6429 1.85648 30.2858 2.10079C30.7323 2.30037 31.11 2.62725 31.3716 3.04047C31.6331 3.4537 31.767 3.93491 31.7563 4.42384V26.6897C31.785 27.3784 31.5991 28.0589 31.2243 28.6373C30.8495 29.2157 30.3043 29.6635 29.6641 29.9187C28.1266 30.5282 26.2957 30.017 24.7597 28.5412C22.7224 26.5876 19.5994 23.7092 17.0904 21.396L16.9647 21.281C14.215 18.7438 11.8394 16.5534 10.3323 15.1096C10.1471 14.9439 9.9073 14.8523 9.6588 14.8523C9.41029 14.8523 9.1705 14.9439 8.98527 15.1096C8.8974 15.1926 8.8274 15.2927 8.77955 15.4037C8.73171 15.5148 8.70703 15.6344 8.70703 15.7553C8.70703 15.8762 8.73171 15.9958 8.77955 16.1068C8.8274 16.2179 8.8974 16.318 8.98527 16.401C10.503 17.8578 12.8001 19.9819 15.6443 22.5991L15.9933 22.9206C18.4177 25.1553 21.4356 27.9378 23.4112 29.8341C24.7184 31.1636 26.4892 31.936 28.3529 31.9896C29.05 31.9932 29.7415 31.8639 30.3902 31.6086C31.3722 31.2215 32.2121 30.5429 32.7966 29.6639C33.3811 28.785 33.6823 27.7481 33.6596 26.6928V4.39108Z" fill="white"/>
<path d="M113.113 13.4042C112.313 13.4042 111.922 13.7478 111.922 14.4183V20.0351H108.741C108.592 20.0145 108.439 20.0279 108.295 20.0745C108.151 20.1211 108.02 20.1996 107.911 20.3042C107.802 20.4088 107.717 20.5366 107.664 20.6783C107.612 20.82 107.591 20.9717 107.605 21.1223C107.591 21.2738 107.61 21.4267 107.663 21.5696C107.715 21.7125 107.799 21.8418 107.908 21.948C108.017 22.0542 108.149 22.1345 108.293 22.1831C108.437 22.2317 108.59 22.2472 108.741 22.2286H111.922V29.3143C111.922 30 112.313 30.3284 113.113 30.3284C113.893 30.3284 114.284 30.0023 114.284 29.3143V14.4183C114.284 13.7478 113.894 13.4042 113.113 13.4042ZM105.075 17.4263H107.922C108.608 17.4263 108.852 17.101 108.852 16.3764C108.852 15.6694 108.61 15.3433 107.922 15.3433H105.075V14.1113C105.075 13.4255 104.722 13.0781 103.903 13.0781C103.065 13.0781 102.732 13.4225 102.732 14.1113V15.3433H99.8836C99.1978 15.3433 98.954 15.6694 98.954 16.3764C98.954 17.101 99.1948 17.4263 99.8836 17.4263H102.731V23.7684L98.8794 28.1174C98.4702 28.5699 98.5251 29.0416 99.1216 29.5482C99.7914 30.1097 100.181 30.0198 100.61 29.5299L103.903 25.7798L107.196 29.5299C107.625 30.0198 108.015 30.1097 108.684 29.5482C109.279 29.0416 109.336 28.5699 108.927 28.1174L105.075 23.7684V17.4263ZM82.8055 27.7364V22.6812H89.4287C90.0984 22.6812 90.378 22.3551 90.378 21.6846C90.378 20.9775 90.0992 20.6515 89.4287 20.6515H82.8055V15.9772H89.7266C90.3956 15.9772 90.6744 15.6503 90.6744 14.944C90.6744 14.2377 90.3956 13.9116 89.7266 13.9116H81.5041C80.759 13.9116 80.4436 14.2377 80.4436 14.9615V28.7871C80.4436 29.4576 80.7597 29.8012 81.5041 29.8012H90.266C90.9357 29.8012 91.2154 29.4751 91.2154 28.7688C91.2154 28.0625 90.9365 27.7357 90.266 27.7357L82.8055 27.7364ZM94.5083 13.4042C93.7266 13.4042 93.3357 13.7478 93.3357 14.4183V29.3128C93.3357 29.9985 93.7266 30.3269 94.5083 30.3269C95.29 30.3269 95.6801 30.0008 95.6801 29.3128V14.4183C95.6801 13.7478 95.2893 13.4042 94.5083 13.4042ZM66.9738 27.9353C65.5224 27.9353 64.0161 27.3196 64.0161 25.2183V18.4054C64.0161 16.3033 65.5224 15.6876 66.9738 15.6876C68.4253 15.6876 69.9133 16.3033 69.9133 18.4054V25.2183C69.9133 27.3196 68.4245 27.9353 66.9738 27.9353ZM66.9738 30.0374C69.578 30.0374 72.3133 28.877 72.3133 25.3989V18.2416C72.3133 14.7452 69.578 13.5848 66.9738 13.5848C64.3506 13.5848 61.6344 14.7452 61.6344 18.2416V25.3958C61.6344 28.8739 64.3506 30.0343 66.9738 30.0343M75.8881 30.3238C76.6874 30.3238 77.0782 29.9977 77.0782 29.3097V14.4183C77.0782 13.7478 76.6874 13.4042 75.8881 13.4042C75.0889 13.4042 74.6973 13.7478 74.6973 14.4183V29.3128C74.6973 29.9985 75.0881 30.3269 75.8881 30.3269M46.9015 28.2073V25.4896C46.9015 24.8038 46.5106 24.4747 45.6931 24.4747C44.9312 24.4747 44.5388 24.8008 44.5388 25.4896V29.2229C44.5388 29.965 44.8931 30.3459 45.7297 30.3459H57.9712C58.6409 30.3459 58.9205 29.984 58.9205 29.2793C58.9205 28.5547 58.6417 28.2126 57.9712 28.2126L46.9015 28.2073ZM45.4135 16.9189C45.4135 16.1036 45.9719 15.6137 47.1986 15.6137C48.4253 15.6137 49.0036 16.1036 49.0036 16.9189V20.0892C49.0036 20.9044 48.4268 21.3936 47.1986 21.3936C45.9704 21.3936 45.4135 20.9052 45.4135 20.0892V16.9189ZM51.3106 19.6907H52.9289V24.6187C52.9289 25.3044 53.3015 25.6153 54.0832 25.6153C54.8649 25.6153 55.2367 25.3105 55.2367 24.6187V14.4915C55.2367 13.821 54.8458 13.4941 54.0832 13.4941C53.3205 13.4941 52.9289 13.821 52.9289 14.4915V17.4995H51.3106V16.5935C51.3106 14.7276 49.7662 13.5855 47.1963 13.5855C44.6264 13.5855 43.082 14.7284 43.082 16.5935V20.4534C43.082 22.301 44.6264 23.4431 47.1963 23.4431C49.7662 23.4431 51.3106 22.3002 51.3106 20.4534V19.6907ZM57.6344 25.6884C58.4161 25.6884 58.7689 25.3623 58.7689 24.6743V14.4183C58.7689 13.7478 58.3963 13.4042 57.6344 13.4042C56.8725 13.4042 56.4809 13.7478 56.4809 14.4183V24.6743C56.4809 25.36 56.8527 25.6884 57.6344 25.6884Z" fill="white"/>
<path d="M97.029 6.90007V2.41243H99.5067C99.6805 2.41243 99.7589 2.31416 99.7589 2.1153C99.7589 1.90426 99.6827 1.81892 99.5067 1.81892H96.6877C96.4873 1.81892 96.3913 1.90426 96.3913 2.1153V7.20482C96.3913 7.40292 96.4873 7.49435 96.6877 7.49435H99.6515C99.8252 7.49435 99.909 7.40215 99.909 7.19796C99.909 6.99377 99.8252 6.90081 99.6515 6.90081L97.029 6.90007ZM101.232 4.0353V1.93015C101.232 1.73206 101.13 1.64062 100.916 1.64062C100.703 1.64062 100.601 1.73282 100.601 1.93015V7.40825C100.601 7.61244 100.704 7.69778 100.916 7.69778C101.129 7.69778 101.232 7.61244 101.232 7.40825V4.66539H101.908C102.095 4.66539 102.166 4.55338 102.166 4.34233C102.166 4.13128 102.095 4.03148 101.908 4.03148L101.232 4.0353ZM91.0869 5.90348H94.4546V7.1111H91.0869V5.90348ZM90.7707 5.31529C90.5521 5.31529 90.466 5.4014 90.466 5.62616V7.39607C90.466 7.60711 90.5551 7.70082 90.7555 7.70082H94.7936C94.9985 7.70082 95.0831 7.60864 95.0831 7.39607V5.62691C95.0831 5.40214 94.9985 5.31606 94.7784 5.31606L90.7707 5.31529ZM93.5974 4.50386C93.5974 4.29967 93.5136 4.1991 93.3399 4.1991H90.7707V2.44673H93.2043C93.3719 2.44673 93.4549 2.34081 93.4549 2.14195C93.4549 1.9309 93.3711 1.83719 93.2043 1.83719H90.4233C90.2237 1.83719 90.1269 1.92938 90.1269 2.14195V4.51835C90.1269 4.70958 90.2245 4.80253 90.4233 4.80253H93.3391C93.5128 4.80253 93.5966 4.70958 93.5966 4.50539M95.0778 2.97396V1.92483C95.0778 1.72673 94.9749 1.64139 94.7563 1.64139C94.5498 1.64139 94.4332 1.72673 94.4332 1.92483V4.77662C94.4332 4.97472 94.5429 5.06083 94.7563 5.06083C94.981 5.06083 95.0778 4.97472 95.0778 4.77662V3.60254H95.6873C95.8671 3.60254 95.9441 3.49662 95.9441 3.28557C95.9441 3.07453 95.8679 2.97473 95.6873 2.97473L95.0778 2.97396ZM87.7521 7.70615C87.9319 7.70615 88.0157 7.63454 88.0157 7.43569C88.0157 7.25131 87.9319 7.17892 87.7521 7.17892H83.4991V6.71033H87.5547C87.7681 6.71033 87.8595 6.57244 87.8595 6.34768V5.52176C87.8595 5.29853 87.7688 5.20559 87.5502 5.20559H83.1403C82.9658 5.20559 82.8827 5.26501 82.8827 5.46996C82.8827 5.64824 82.9665 5.73358 83.1403 5.73358H87.2408V6.17548H83.1784C82.9734 6.17548 82.8827 6.26157 82.8827 6.48024V7.39453C82.8827 7.61244 82.9734 7.70387 83.1784 7.70387L87.7521 7.70615ZM87.9959 4.83605C88.1765 4.83605 88.2534 4.75987 88.2534 4.55187C88.2534 4.34387 88.1772 4.26081 87.9959 4.26081H82.7624C82.5886 4.26081 82.5048 4.33702 82.5048 4.55187C82.5048 4.76673 82.5886 4.83605 82.7624 4.83605H87.9959ZM83.477 2.80938C83.477 2.50005 83.6637 2.34691 84.0233 2.34691H86.7403C87.0945 2.34691 87.2812 2.49929 87.2812 2.80938C87.2812 3.11948 87.0945 3.27186 86.7403 3.27186H84.0233C83.6637 3.27186 83.477 3.11948 83.477 2.80938ZM82.8515 2.80938C82.8515 3.58196 83.3224 3.87226 84.0104 3.87226H86.7395C87.4412 3.87226 87.9052 3.58272 87.9052 2.80938C87.9052 2.03605 87.4412 1.75339 86.7464 1.75339H84.0104C83.3246 1.75339 82.8515 2.03757 82.8515 2.80938ZM81.0359 7.11949H77.3216V6.129H81.0359V7.11949ZM76.693 7.40367C76.693 7.61472 76.7822 7.71301 76.9825 7.71301H81.3856C81.5852 7.71301 81.6683 7.61472 81.6683 7.40367V5.83264C81.6683 5.62845 81.5845 5.53548 81.3856 5.53548H76.9825C76.7822 5.53548 76.693 5.62845 76.693 5.83264V7.40367ZM81.7978 5.02121C81.9776 5.02121 82.0545 4.9351 82.0545 4.72405C82.0545 4.513 81.9784 4.41471 81.7978 4.41471H76.5658C76.3921 4.41471 76.3083 4.513 76.3083 4.72405C76.3083 4.9351 76.3921 5.02121 76.5658 5.02121H81.7978ZM77.2782 2.85663C77.2782 2.53358 77.4648 2.34768 77.858 2.34768H80.5109C80.8972 2.34768 81.0839 2.53358 81.0839 2.85663C81.0839 3.17968 80.8972 3.36482 80.5109 3.36482H77.861C77.4679 3.36482 77.2812 3.18577 77.2812 2.85663M76.6572 2.85663C76.6572 3.64139 77.1212 3.96519 77.8481 3.96519H80.5193C81.2469 3.96519 81.7102 3.64139 81.7102 2.85663C81.7102 2.07187 81.2462 1.75416 80.5193 1.75416H77.8481C77.1205 1.75416 76.6572 2.07796 76.6572 2.85663ZM70.9338 2.41471H73.1029V6.91606H70.9277L70.9338 2.41471ZM70.6062 1.81434C70.564 1.80734 70.5207 1.81052 70.48 1.82359C70.4392 1.83666 70.4022 1.85924 70.372 1.88949C70.3417 1.91973 70.3191 1.95676 70.3061 1.99749C70.293 2.03822 70.2898 2.08148 70.2968 2.12367V7.20633C70.2968 7.42424 70.3997 7.51111 70.6062 7.51111H73.4321C73.6385 7.51111 73.7414 7.42576 73.7414 7.20633V2.12367C73.7484 2.08148 73.7452 2.03822 73.7322 1.99749C73.7191 1.95676 73.6965 1.91973 73.6663 1.88949C73.636 1.85924 73.599 1.83666 73.5583 1.82359C73.5175 1.81052 73.4743 1.80734 73.4321 1.81434H70.6062ZM75.2027 4.03757V1.93243C75.2027 1.73434 75.0999 1.6429 74.8865 1.6429C74.6732 1.6429 74.5719 1.7351 74.5719 1.93243V7.41053C74.5719 7.61472 74.6747 7.70006 74.8865 7.70006C75.0983 7.70006 75.2027 7.61472 75.2027 7.41053V4.66767H75.8785C76.0652 4.66767 76.1361 4.55568 76.1361 4.34463C76.1361 4.13359 76.0652 4.03376 75.8785 4.03376L75.2027 4.03757ZM66.9368 7.48977C67.1105 7.48977 67.1875 7.39148 67.1875 7.18043C67.1875 6.96938 67.1113 6.87567 66.9368 6.87567H62.9071C62.7334 6.87567 62.6496 6.96862 62.6496 7.18043C62.6496 7.39224 62.7334 7.48977 62.9071 7.48977H66.9368ZM64.7997 5.04176C64.2336 5.04176 63.6568 4.7972 63.6568 4.0711V3.3092C63.6568 2.5892 64.2366 2.3454 64.7997 2.3454C65.3627 2.3454 65.9425 2.58996 65.9425 3.3092V4.0711C65.9425 4.7972 65.3559 5.04176 64.7997 5.04176ZM64.7997 5.6513C65.714 5.6513 66.5902 5.22234 66.5902 4.11986V3.2749C66.5902 2.17928 65.714 1.75109 64.7997 1.75109C63.8854 1.75109 63.0107 2.18005 63.0107 3.2749V4.11986C63.0107 5.22234 63.8793 5.6513 64.7997 5.6513ZM67.858 7.7031C68.0766 7.7031 68.1795 7.61776 68.1795 7.41357V1.93548C68.1795 1.73738 68.0766 1.64597 67.858 1.64597C67.6393 1.64597 67.5365 1.73814 67.5365 1.93548V7.41357C67.5365 7.61776 67.6393 7.7031 67.858 7.7031ZM61.3239 7.11568H57.7429V5.90806H61.3239V7.11568ZM57.1205 7.39986C57.1205 7.6109 57.2111 7.70464 57.41 7.70464H61.6652C61.8648 7.70464 61.9479 7.61243 61.9479 7.39986V5.63758C61.9479 5.40901 61.8641 5.32064 61.6431 5.32064H57.4267C57.2081 5.32064 57.1174 5.40672 57.1174 5.63758L57.1205 7.39986ZM60.1269 4.77281C60.3067 4.77281 60.3844 4.68673 60.3844 4.47568C60.3844 4.26463 60.3083 4.17092 60.1269 4.17092H57.3658V2.05206C57.3658 1.85396 57.25 1.761 57.0313 1.761C56.8126 1.761 56.7098 1.85396 56.7098 2.05206V4.46729C56.7098 4.67833 56.7936 4.77207 56.9993 4.77207L60.1269 4.77281ZM61.6332 5.06387C61.8519 5.06387 61.9547 4.97776 61.9547 4.77967V1.92787C61.9547 1.72978 61.845 1.64444 61.6332 1.64444C61.4214 1.64444 61.3048 1.72978 61.3048 1.92787V4.77967C61.3048 4.97776 61.4145 5.06387 61.6332 5.06387ZM52.1315 7.16216C52.0507 7.17132 51.9689 7.16267 51.8918 7.13684C51.8147 7.11101 51.7442 7.06861 51.6853 7.01263C51.6263 6.95664 51.5803 6.88843 51.5505 6.81278C51.5207 6.73713 51.5079 6.65588 51.5128 6.57473C51.5085 6.49453 51.5219 6.41435 51.5522 6.33996C51.5825 6.26557 51.6288 6.19882 51.688 6.14448C51.7471 6.09015 51.8176 6.04958 51.8943 6.02569C51.9709 6.00181 52.052 5.9952 52.1315 6.00635H54.565C54.6445 5.99531 54.7254 6.00201 54.8019 6.02595C54.8785 6.04989 54.9488 6.09049 55.0078 6.14483C55.0668 6.19917 55.113 6.26589 55.1432 6.34022C55.1733 6.41455 55.1866 6.49464 55.1822 6.57473C55.1876 6.65587 55.1752 6.73723 55.1457 6.81301C55.1162 6.8888 55.0703 6.95716 55.0114 7.01323C54.9525 7.0693 54.882 7.1117 54.8048 7.13744C54.7277 7.16318 54.6458 7.17163 54.565 7.16216H52.1315ZM52.1582 5.41967C51.9956 5.39659 51.83 5.40959 51.673 5.45773C51.516 5.50587 51.3716 5.588 51.2499 5.69824C51.1283 5.80849 51.0324 5.94415 50.969 6.09563C50.9057 6.24711 50.8765 6.41069 50.8835 6.57473C50.876 6.73968 50.9048 6.90425 50.9677 7.05692C51.0305 7.20959 51.126 7.34668 51.2475 7.45854C51.3689 7.57041 51.5134 7.65435 51.6707 7.7045C51.828 7.75464 51.9944 7.76976 52.1582 7.74881H54.5269C54.6915 7.771 54.859 7.75685 55.0176 7.70733C55.1762 7.65782 55.322 7.57417 55.4447 7.46224C55.5675 7.35031 55.6642 7.21284 55.7281 7.0595C55.792 6.90617 55.8215 6.7407 55.8145 6.57473C55.821 6.41084 55.7914 6.24753 55.7279 6.09631C55.6644 5.94509 55.5685 5.80963 55.447 5.6995C55.3254 5.58936 55.1812 5.50724 55.0245 5.45889C54.8678 5.41054 54.7023 5.39714 54.5399 5.41967H52.1582ZM52.9818 4.89776C53.0097 4.92641 53.0438 4.94833 53.0814 4.96182C53.1191 4.97531 53.1593 4.98002 53.1991 4.97561C53.2388 4.9712 53.277 4.95777 53.3108 4.93636C53.3446 4.91495 53.373 4.88612 53.394 4.85205C53.4239 4.82469 53.4474 4.79096 53.4626 4.75333C53.4778 4.71569 53.4844 4.67513 53.4818 4.63463C53.4793 4.59412 53.4677 4.5547 53.4478 4.51928C53.428 4.48386 53.4005 4.45334 53.3673 4.42997L52.1955 3.34119V2.01702C52.1955 1.81892 52.0797 1.73282 51.8679 1.73282C51.6561 1.73282 51.5517 1.81892 51.5517 2.01702V3.33054L50.3738 4.42615C50.3409 4.44962 50.3136 4.48001 50.2938 4.51518C50.274 4.55036 50.2622 4.58946 50.2591 4.62972C50.256 4.66998 50.2619 4.7104 50.2762 4.74816C50.2904 4.78592 50.3128 4.82008 50.3418 4.84824C50.3626 4.88229 50.391 4.91114 50.4247 4.93255C50.4585 4.95396 50.4966 4.96739 50.5363 4.9718C50.576 4.97621 50.6162 4.97147 50.6538 4.95798C50.6914 4.9445 50.7254 4.92259 50.7532 4.89395L51.8679 3.92406L52.9818 4.89776ZM54.1658 5.11568C54.3784 5.11568 54.482 5.03034 54.482 4.83224V3.58501H55.1639V4.8909C55.1639 5.09509 55.2667 5.18197 55.4801 5.18197C55.6934 5.18197 55.7894 5.09586 55.7894 4.8909V1.93473C55.7894 1.73664 55.6865 1.64521 55.4801 1.64521C55.2736 1.64521 55.1639 1.7374 55.1639 1.93473V2.95873H54.482V1.96138C54.482 1.75719 54.3723 1.67797 54.1658 1.67797C53.973 1.67797 53.861 1.75414 53.861 1.96138V4.83301C53.861 5.0311 53.9639 5.11644 54.1658 5.11644M45.3848 7.0974V5.90958C45.3848 5.71148 45.2754 5.61244 45.0565 5.61244C44.8446 5.61244 44.7418 5.71224 44.7418 5.90958V7.38767C44.7418 7.60558 44.8378 7.71073 45.0565 7.71073H49.4145C49.5951 7.71073 49.6721 7.60558 49.6721 7.40139C49.6721 7.1972 49.5959 7.09663 49.4145 7.09663L45.3848 7.0974ZM47.4191 5.11035C47.4491 5.13719 47.4848 5.15687 47.5235 5.16795C47.5622 5.17902 47.6029 5.18121 47.6426 5.17432C47.6822 5.16743 47.7198 5.15164 47.7525 5.12816C47.7852 5.10468 47.8121 5.07409 47.8313 5.03871C47.9403 4.881 47.9601 4.71491 47.7856 4.59682L46.3433 3.51416V2.03606C46.3433 1.83797 46.2344 1.75186 46.0218 1.75186C45.8092 1.75186 45.7003 1.83797 45.7003 2.03606V3.51416L44.258 4.59682C44.0843 4.71491 44.1056 4.881 44.213 5.03871C44.2322 5.07409 44.2592 5.10468 44.2918 5.12816C44.3245 5.15164 44.3621 5.16743 44.4018 5.17432C44.4414 5.18121 44.4821 5.17902 44.5208 5.16795C44.5595 5.15687 44.5952 5.13719 44.6252 5.11035L46.0218 4.06806L47.4191 5.11035ZM48.8416 3.7115V5.71987C48.8416 5.91796 48.9513 6.0033 49.17 6.0033C49.3886 6.0033 49.4915 5.91796 49.4915 5.71987V1.92406C49.4915 1.72597 49.3818 1.64062 49.17 1.64062C48.9582 1.64062 48.8416 1.72597 48.8416 1.92406V3.0791H47.6576C47.6166 3.07528 47.5752 3.08078 47.5367 3.09517C47.4981 3.10956 47.4632 3.13249 47.4347 3.16223C47.4062 3.19197 47.3848 3.22776 47.3721 3.26693C47.3594 3.3061 47.3556 3.34763 47.3612 3.38844C47.3554 3.42964 47.3589 3.47162 47.3715 3.5113C47.384 3.55098 47.4053 3.58733 47.4337 3.61772C47.4621 3.64811 47.497 3.67177 47.5357 3.68694C47.5744 3.70211 47.6161 3.7084 47.6576 3.70538L48.8416 3.7115Z" fill="white"/>
</g>
<defs>
<clipPath id="clip0_2389_2820">
<rect width="114.286" height="32" fill="white"/>
</clipPath>
</defs>
</svg>
