<svg width="40" height="40" viewBox="0 0 40 40" fill="none" xmlns="http://www.w3.org/2000/svg">
<path d="M13.1289 6.42847H32.3939C32.7344 6.42837 33.0716 6.49538 33.3863 6.62565C33.7009 6.75592 33.9868 6.94691 34.2275 7.1877C34.4683 7.42849 34.6593 7.71436 34.7896 8.02898C34.9199 8.34361 34.9869 8.6808 34.9868 9.02133V10.9149C34.9868 11.0077 34.95 11.0967 34.8845 11.1624C34.8191 11.2281 34.7303 11.2652 34.6375 11.2656H24.0575" fill="white"/>
<path d="M13.1289 6.42847H32.3939C32.7344 6.42837 33.0716 6.49538 33.3863 6.62565C33.7009 6.75592 33.9868 6.94691 34.2275 7.1877C34.4683 7.42849 34.6593 7.71436 34.7896 8.02898C34.9199 8.34361 34.9869 8.6808 34.9868 9.02133V10.9149C34.9868 11.0077 34.95 11.0967 34.8845 11.1624C34.8191 11.2281 34.7303 11.2652 34.6375 11.2656H24.0575" stroke="#323232" stroke-miterlimit="10"/>
<path d="M31.8878 6.42847H12.6478C12.1564 6.43916 11.6892 6.64427 11.3487 6.99882C11.0082 7.35336 10.8222 7.82843 10.8314 8.3199V31.1171C10.8222 31.6085 11.0082 32.0836 11.3487 32.4381C11.6892 32.7927 12.1564 32.9978 12.6478 33.0085H28.7078C29.7078 33.0085 30.525 31.8756 30.5257 30.8306V8.7642" fill="white"/>
<path d="M31.8878 6.42847H12.6478C12.1564 6.43916 11.6892 6.64427 11.3487 6.99882C11.0082 7.35336 10.8222 7.82843 10.8314 8.3199V31.1171C10.8222 31.6085 11.0082 32.0836 11.3487 32.4381C11.6892 32.7927 12.1564 32.9978 12.6478 33.0085H28.7078C29.7078 33.0085 30.525 31.8756 30.5257 30.8306V8.7642" stroke="#323232" stroke-miterlimit="10"/>
<path d="M28.1381 33.0244H9.02743C8.37683 33.0589 7.73898 32.8346 7.25318 32.4005C6.76738 31.9663 6.47309 31.3576 6.43457 30.7072V29.0158C6.43973 28.9279 6.47956 28.8457 6.54533 28.7871C6.61109 28.7286 6.69739 28.6986 6.78528 28.7037H25.7139C25.8015 28.699 25.8874 28.7292 25.9529 28.7877C26.0183 28.8462 26.058 28.9282 26.0632 29.0158V31.0872" fill="white"/>
<path d="M28.1381 33.0244H9.02743C8.37683 33.0589 7.73898 32.8346 7.25318 32.4005C6.76738 31.9663 6.47309 31.3576 6.43457 30.7072V29.0158C6.43973 28.9279 6.47956 28.8457 6.54533 28.7871C6.61109 28.7286 6.69739 28.6986 6.78528 28.7037H25.7139C25.8015 28.699 25.8874 28.7292 25.9529 28.7877C26.0183 28.8462 26.058 28.9282 26.0632 29.0158V31.0872" stroke="#323232" stroke-miterlimit="10"/>
<path d="M30.5256 30.4001C30.5577 30.9864 30.3583 31.5619 29.9702 32.0024C29.5821 32.443 29.0364 32.7135 28.4507 32.7556C27.8651 32.7976 27.2864 32.6079 26.8393 32.2273C26.3922 31.8467 26.1125 31.3057 26.0606 30.7208C26.0527 30.6144 26.0527 29.2273 26.0606 29.1208" fill="white"/>
<path d="M30.5256 30.4001C30.5577 30.9864 30.3583 31.5619 29.9702 32.0024C29.5821 32.443 29.0364 32.7135 28.4507 32.7556C27.8651 32.7976 27.2864 32.6079 26.8393 32.2273C26.3922 31.8467 26.1125 31.3057 26.0606 30.7208C26.0527 30.6144 26.0527 29.2273 26.0606 29.1208" stroke="#323232" stroke-miterlimit="10" stroke-linecap="round"/>
<path d="M15 15H22.8571" stroke="#323232" stroke-miterlimit="10" stroke-linecap="round"/>
<path d="M15 18.5715H21.4286" stroke="#323232" stroke-miterlimit="10" stroke-linecap="round"/>
<path d="M30.5256 8.84352C30.4947 8.54906 30.524 8.25139 30.6118 7.96864C30.6997 7.6859 30.8442 7.42401 31.0365 7.19892C31.2289 6.97384 31.465 6.79027 31.7306 6.65942C31.9962 6.52857 32.2856 6.45317 32.5813 6.43782C32.8747 6.41265 33.1701 6.44606 33.4504 6.5361C33.7307 6.62615 33.9903 6.77103 34.2141 6.96233C34.4379 7.15362 34.6214 7.3875 34.754 7.65037C34.8866 7.91324 34.9655 8.19985 34.9863 8.49352C34.9863 8.60995 34.9949 9.17639 34.9863 9.2921" fill="white"/>
<path d="M30.5256 8.84352C30.4947 8.54906 30.524 8.25139 30.6118 7.96864C30.6997 7.6859 30.8442 7.42401 31.0365 7.19892C31.2289 6.97384 31.465 6.79027 31.7306 6.65942C31.9962 6.52857 32.2856 6.45317 32.5813 6.43782C32.8747 6.41265 33.1701 6.44606 33.4504 6.5361C33.7307 6.62615 33.9903 6.77103 34.2141 6.96233C34.4379 7.15362 34.6214 7.3875 34.754 7.65037C34.8866 7.91324 34.9655 8.19985 34.9863 8.49352C34.9863 8.60995 34.9949 9.17639 34.9863 9.2921" stroke="#323232" stroke-miterlimit="10" stroke-linecap="round"/>
<path d="M15 11.4285H25.7143" stroke="#323232" stroke-miterlimit="10" stroke-linecap="round"/>
<path d="M15 22.1428H20" stroke="#323232" stroke-miterlimit="10" stroke-linecap="round"/>
<path d="M30.7139 30.3572L32.5696 29.2857L34.3554 32.3787C34.5526 32.7203 34.4355 33.1572 34.0939 33.3544L33.4753 33.7116C33.1337 33.9088 32.6968 33.7918 32.4996 33.4501L30.7139 30.3572Z" fill="white" stroke="#323232" stroke-linejoin="round"/>
<circle cx="28.9284" cy="25.3571" r="5.35714" fill="#FFD139" stroke="#323232"/>
<path d="M27 25.3911L28.4166 27L31 23" stroke="#323232" stroke-miterlimit="10" stroke-linecap="round" stroke-linejoin="round"/>
</svg>
