<svg width="40" height="40" viewBox="0 0 40 40" fill="none" xmlns="http://www.w3.org/2000/svg">
<path d="M31 11.5H5C3.067 11.5 1.5 13.067 1.5 15V29C1.5 30.933 3.067 32.5 5 32.5H31C32.933 32.5 34.5 30.933 34.5 29V15C34.5 13.067 32.933 11.5 31 11.5Z" fill="white" stroke="#323232" stroke-linecap="round" stroke-linejoin="round"/>
<path d="M35 7H9C6.79086 7 5 8.79086 5 11V25C5 27.2091 6.79086 29 9 29H35C37.2091 29 39 27.2091 39 25V11C39 8.79086 37.2091 7 35 7Z" fill="#FFE591"/>
<path d="M35 7.5H9C7.067 7.5 5.5 9.067 5.5 11V25C5.5 26.933 7.067 28.5 9 28.5H35C36.933 28.5 38.5 26.933 38.5 25V11C38.5 9.067 36.933 7.5 35 7.5Z" stroke="#323232" stroke-linecap="round" stroke-linejoin="round"/>
<path d="M13.7062 14.9988C13.7026 15.1274 13.7254 15.2553 13.7732 15.3748C13.8161 15.4775 13.881 15.5696 13.9632 15.6448C14.0428 15.716 14.1355 15.7711 14.2362 15.8068C14.3385 15.8435 14.4465 15.8621 14.5552 15.8618C14.6796 15.8633 14.8038 15.8529 14.9262 15.8308C15.0222 15.8129 15.1158 15.784 15.2052 15.7448C15.2499 15.7241 15.2999 15.6994 15.3552 15.6708C15.408 15.643 15.4651 15.6244 15.5242 15.6158C15.6245 15.5947 15.7288 15.6034 15.8242 15.6408C15.9206 15.6833 16.0004 15.7564 16.0512 15.8488C16.0884 15.9039 16.1129 15.9665 16.1229 16.0322C16.1329 16.098 16.1283 16.1651 16.1092 16.2288C16.0708 16.3549 15.9948 16.4662 15.8912 16.5478C15.7086 16.6908 15.4976 16.7931 15.2722 16.8478C15.0385 16.9118 14.7975 16.9455 14.5552 16.9478C14.2926 16.9495 14.0309 16.9158 13.7772 16.8478C13.5317 16.7821 13.3016 16.6686 13.1002 16.5138C12.8986 16.3562 12.7353 16.1552 12.6222 15.9258C12.4947 15.655 12.4327 15.358 12.4412 15.0588V13.7788C12.4338 13.4804 12.4965 13.1845 12.6242 12.9148C12.7373 12.6853 12.9007 12.4843 13.1022 12.3268C13.3036 12.1719 13.5337 12.0584 13.7792 11.9928C14.0329 11.9247 14.2946 11.8911 14.5572 11.8928C14.8 11.889 15.0421 11.918 15.2772 11.9788C15.4508 12.0215 15.6157 12.0942 15.7642 12.1938C15.8845 12.2752 15.9767 12.3919 16.0282 12.5278C16.0532 12.5928 16.0629 12.6627 16.0565 12.7321C16.05 12.8015 16.0277 12.8684 15.9912 12.9278C15.9365 13.0281 15.8504 13.1078 15.7462 13.1548C15.6483 13.1994 15.5388 13.2123 15.4332 13.1918C15.3685 13.1811 15.3056 13.1616 15.2462 13.1338L15.0962 13.0638C15.022 13.0351 14.9449 13.0146 14.8662 13.0028C14.7634 12.9892 14.6598 12.9831 14.5562 12.9848C14.4475 12.9844 14.3395 13.003 14.2372 13.0398C14.1365 13.0755 14.0438 13.1305 13.9642 13.2018C13.882 13.2769 13.8171 13.369 13.7742 13.4718C13.7252 13.5913 13.7014 13.7196 13.7042 13.8488L13.7062 14.9988ZM17.3342 16.8438C17.1792 16.8473 17.0245 16.8298 16.8742 16.7918C16.7626 16.7633 16.661 16.7048 16.5802 16.6228C16.503 16.538 16.4492 16.4346 16.4242 16.3228C16.3892 16.176 16.3721 16.0256 16.3732 15.8748V12.5148C16.3712 12.4221 16.389 12.3301 16.4252 12.2448C16.4573 12.1688 16.5054 12.1005 16.5662 12.0448C16.6263 11.991 16.6967 11.9502 16.7732 11.9248C16.8501 11.8983 16.9309 11.8848 17.0122 11.8848C17.0935 11.8848 17.1743 11.8983 17.2512 11.9248C17.327 11.9505 17.3967 11.9913 17.4562 12.0448C17.517 12.1005 17.5651 12.1688 17.5972 12.2448C17.6334 12.3301 17.6512 12.4221 17.6492 12.5148V15.5978C17.6426 15.6487 17.6558 15.7003 17.6862 15.7418C17.7278 15.7691 17.7777 15.7811 17.8272 15.7758H19.1882C19.2674 15.7735 19.346 15.7892 19.4182 15.8218C19.4783 15.85 19.5307 15.8921 19.5712 15.9448C19.6103 15.9963 19.6394 16.0546 19.6572 16.1168C19.6753 16.1775 19.6848 16.2404 19.6852 16.3038C19.6846 16.3681 19.6752 16.432 19.6572 16.4938C19.6393 16.5583 19.6091 16.6187 19.5682 16.6718C19.5271 16.7253 19.4749 16.7693 19.4152 16.8008C19.3447 16.8355 19.2667 16.8524 19.1882 16.8498L17.3342 16.8438ZM21.0792 12.3938C21.1337 12.2328 21.2459 12.0978 21.3942 12.0148C21.5396 11.93 21.7049 11.8851 21.8732 11.8848C22.0321 11.886 22.1877 11.9306 22.3232 12.0138C22.4664 12.0994 22.5731 12.2346 22.6232 12.3938L24.2232 16.8438H22.8732L22.6342 16.0838H21.0602L20.8272 16.8438H19.5042L21.0792 12.3938ZM21.3792 15.0478H22.3172L21.8512 13.5218L21.3792 15.0478ZM25.5102 13.3478C25.5125 13.4106 25.5324 13.4716 25.5678 13.5236C25.6032 13.5756 25.6526 13.6166 25.7102 13.6418C25.8909 13.7435 26.082 13.8257 26.2802 13.8868L26.5802 13.9868C26.752 14.0481 26.9155 14.1304 27.0672 14.2318C27.2087 14.3264 27.334 14.4432 27.4382 14.5778C27.5409 14.7114 27.6179 14.863 27.6652 15.0248C27.7152 15.2008 27.7339 15.3843 27.7202 15.5668C27.715 15.7654 27.6645 15.9603 27.5727 16.1365C27.4809 16.3127 27.35 16.4657 27.1902 16.5838C26.7985 16.8444 26.333 16.9714 25.8632 16.9458C25.5974 16.9472 25.3323 16.918 25.0732 16.8588C24.8446 16.8108 24.6293 16.7135 24.4422 16.5738C24.3852 16.5249 24.3357 16.4679 24.2952 16.4048C24.2551 16.3432 24.2251 16.2757 24.2062 16.2048C24.1878 16.1336 24.1847 16.0592 24.1972 15.9868C24.2103 15.9089 24.2396 15.8346 24.2832 15.7688C24.3303 15.7001 24.3963 15.6466 24.4732 15.6148C24.5503 15.5792 24.6334 15.5586 24.7182 15.5538C24.8058 15.5459 24.8938 15.5629 24.9722 15.6028L25.1532 15.7028C25.237 15.7537 25.3281 15.7918 25.4232 15.8158C25.5799 15.8513 25.7406 15.8668 25.9012 15.8618C26.0406 15.8701 26.1794 15.8382 26.3012 15.7698C26.3486 15.7372 26.387 15.6932 26.4127 15.6418C26.4384 15.5903 26.4506 15.5332 26.4482 15.4758C26.4434 15.4148 26.4168 15.3577 26.3732 15.3148C26.3186 15.2542 26.2531 15.2043 26.1802 15.1678C26.0859 15.118 25.9888 15.0739 25.8892 15.0358C25.7792 14.9931 25.6609 14.9511 25.5342 14.9098L25.3782 14.8548C25.3229 14.8341 25.2769 14.8158 25.2402 14.7998C25.0286 14.716 24.8359 14.5909 24.6732 14.4318C24.5366 14.2965 24.4273 14.1363 24.3512 13.9598C24.2806 13.794 24.2432 13.6159 24.2412 13.4358C24.2382 13.263 24.2642 13.0909 24.3182 12.9268C24.4151 12.6079 24.6253 12.3354 24.9092 12.1608C25.2311 11.9718 25.6001 11.8782 25.9732 11.8908C26.1145 11.8905 26.2558 11.8985 26.3962 11.9148C26.5035 11.9267 26.6101 11.945 26.7152 11.9698C26.7972 11.989 26.8772 12.0158 26.9542 12.0498C27.0209 12.0804 27.0832 12.1101 27.1412 12.1388C27.2799 12.2128 27.3949 12.3244 27.4732 12.4608C27.5119 12.5244 27.5366 12.5957 27.5456 12.6696C27.5545 12.7436 27.5476 12.8187 27.5252 12.8898C27.4949 13.0031 27.4213 13.1001 27.3202 13.1598C27.2215 13.2137 27.1106 13.2413 26.9982 13.2398C26.9466 13.2384 26.8955 13.23 26.8462 13.2148C26.8005 13.2036 26.7569 13.185 26.7172 13.1598C26.6295 13.1041 26.5346 13.0607 26.4352 13.0308C26.2898 12.99 26.1391 12.9715 25.9882 12.9758C25.8664 12.969 25.7456 13.0001 25.6422 13.0648C25.5992 13.0971 25.5648 13.1394 25.5418 13.188C25.5188 13.2366 25.508 13.29 25.5102 13.3438V13.3478ZM29.1452 13.3478C29.1475 13.4106 29.1674 13.4716 29.2028 13.5236C29.2382 13.5756 29.2876 13.6166 29.3452 13.6418C29.5259 13.7435 29.717 13.8257 29.9152 13.8868L30.2152 13.9868C30.387 14.0481 30.5505 14.1304 30.7022 14.2318C30.8437 14.3264 30.969 14.4432 31.0732 14.5778C31.1759 14.7114 31.2529 14.863 31.3002 15.0248C31.3502 15.2008 31.3689 15.3843 31.3552 15.5668C31.35 15.7654 31.2995 15.9603 31.2077 16.1365C31.1159 16.3127 30.985 16.4657 30.8252 16.5838C30.4335 16.8444 29.968 16.9714 29.4982 16.9458C29.2307 16.9476 28.9639 16.9184 28.7032 16.8588C28.475 16.8106 28.26 16.7134 28.0732 16.5738C28.0159 16.5249 27.966 16.468 27.9252 16.4048C27.8851 16.3432 27.8551 16.2757 27.8362 16.2048C27.8178 16.1336 27.8147 16.0592 27.8272 15.9868C27.8405 15.9096 27.8698 15.836 27.9132 15.7708C27.96 15.7014 28.026 15.6472 28.1032 15.6148C28.1803 15.5792 28.2634 15.5586 28.3482 15.5538C28.4358 15.5459 28.5238 15.5629 28.6022 15.6028L28.7832 15.7028C28.867 15.7537 28.9581 15.7918 29.0532 15.8158C29.2099 15.8513 29.3706 15.8668 29.5312 15.8618C29.6706 15.8701 29.8094 15.8382 29.9312 15.7698C29.9776 15.7368 30.0149 15.6926 30.0397 15.6414C30.0645 15.5902 30.076 15.5336 30.0732 15.4768C30.0716 15.4169 30.049 15.3595 30.0092 15.3148C29.9546 15.2542 29.8891 15.2043 29.8162 15.1678C29.7219 15.118 29.6248 15.0739 29.5252 15.0358C29.4152 14.9931 29.2969 14.9511 29.1702 14.9098L29.0132 14.8508C28.9579 14.8301 28.9119 14.8118 28.8752 14.7958C28.665 14.7125 28.4733 14.5884 28.3112 14.4308C28.1746 14.2955 28.0653 14.1353 27.9892 13.9588C27.9186 13.793 27.8812 13.6149 27.8792 13.4348C27.8762 13.262 27.9022 13.0899 27.9562 12.9258C28.0531 12.6069 28.2633 12.3344 28.5472 12.1598C28.8688 11.971 29.2375 11.8774 29.6102 11.8898C29.7506 11.8899 29.8908 11.8983 30.0302 11.9148C30.1375 11.9267 30.2441 11.945 30.3492 11.9698C30.4312 11.989 30.5112 12.0158 30.5882 12.0498C30.6549 12.0804 30.7172 12.1101 30.7752 12.1388C30.915 12.2133 31.0308 12.326 31.1092 12.4638C31.1479 12.5274 31.1726 12.5987 31.1816 12.6726C31.1905 12.7466 31.1836 12.8217 31.1612 12.8928C31.1309 13.0061 31.0573 13.1031 30.9562 13.1628C30.8575 13.2167 30.7466 13.2443 30.6342 13.2428C30.5821 13.2405 30.5307 13.2311 30.4812 13.2148C30.4355 13.2036 30.3919 13.185 30.3522 13.1598C30.2655 13.1043 30.1716 13.0609 30.0732 13.0308C29.9278 12.99 29.7771 12.9715 29.6262 12.9758C29.5021 12.9675 29.3786 12.9987 29.2732 13.0648C29.231 13.0975 29.1973 13.14 29.175 13.1886C29.1527 13.2372 29.1425 13.2904 29.1452 13.3438V13.3478ZM14.7142 22.3578C14.7114 22.4869 14.7352 22.6152 14.7842 22.7348C14.8271 22.8375 14.892 22.9296 14.9742 23.0048C15.0538 23.076 15.1465 23.1311 15.2472 23.1668C15.3495 23.2035 15.4575 23.2221 15.5662 23.2218C15.6906 23.2233 15.8148 23.2129 15.9372 23.1908C16.0332 23.1729 16.1268 23.144 16.2162 23.1048C16.2609 23.0841 16.3109 23.0594 16.3662 23.0308C16.419 23.003 16.4761 22.9844 16.5352 22.9758C16.6355 22.9547 16.7398 22.9634 16.8352 23.0008C16.9316 23.0433 17.0114 23.1164 17.0622 23.2088C17.0994 23.2639 17.1239 23.3265 17.1339 23.3922C17.1439 23.458 17.1393 23.5251 17.1202 23.5888C17.0818 23.7149 17.0057 23.8262 16.9022 23.9078C16.7196 24.0508 16.5086 24.1531 16.2832 24.2078C16.0493 24.2702 15.8083 24.3021 15.5662 24.3028C15.3036 24.3045 15.0419 24.2708 14.7882 24.2028C14.5427 24.1371 14.3126 24.0236 14.1112 23.8688C13.9097 23.7112 13.7463 23.5102 13.6332 23.2808C13.5057 23.01 13.4437 22.713 13.4522 22.4138V21.1338C13.4437 20.8346 13.5057 20.5376 13.6332 20.2668C13.7463 20.0373 13.9097 19.8363 14.1112 19.6788C14.3126 19.5239 14.5427 19.4104 14.7882 19.3448C15.0419 19.2767 15.3036 19.2431 15.5662 19.2448C15.809 19.241 16.0511 19.27 16.2862 19.3308C16.4594 19.3716 16.6242 19.4423 16.7732 19.5398C16.8935 19.6212 16.9857 19.7379 17.0372 19.8738C17.0622 19.9388 17.0719 20.0087 17.0655 20.0781C17.059 20.1475 17.0367 20.2144 17.0002 20.2738C16.9455 20.3741 16.8594 20.4538 16.7552 20.5008C16.6573 20.5454 16.5478 20.5583 16.4422 20.5378C16.3773 20.5255 16.3143 20.5043 16.2552 20.4748L16.1052 20.4048C16.0304 20.3756 15.9526 20.3548 15.8732 20.3428C15.7704 20.3292 15.6668 20.3231 15.5632 20.3248C15.4545 20.3244 15.3465 20.343 15.2442 20.3798C15.1442 20.4157 15.0522 20.4707 14.9732 20.5418C14.891 20.6169 14.8261 20.709 14.7832 20.8118C14.7342 20.9313 14.7104 21.0596 14.7132 21.1888L14.7142 22.3578ZM18.6302 19.7578C18.6819 19.5914 18.7949 19.451 18.9462 19.3648C19.0908 19.282 19.2546 19.2386 19.4212 19.2388C19.5801 19.24 19.7357 19.2846 19.8712 19.3678C20.0144 19.4534 20.1211 19.5886 20.1712 19.7478L21.7732 24.1978H20.4262L20.1872 23.4378H18.6122L18.3792 24.1978H17.0552L18.6302 19.7578ZM18.9302 22.4118H19.8732L19.4032 20.8758L18.9302 22.4118ZM25.7832 20.9378C25.7896 21.2084 25.7185 21.4752 25.5782 21.7068C25.4427 21.9239 25.2593 22.1072 25.0422 22.2428L26.2072 24.1978H24.8212L23.9022 22.5488H23.1172V24.1978H21.8602V20.2328C21.8574 20.0821 21.8729 19.9317 21.9062 19.7848C21.9312 19.6729 21.985 19.5695 22.0622 19.4848C22.1431 19.4022 22.2452 19.3434 22.3572 19.3148C22.5075 19.2767 22.6622 19.2592 22.8172 19.2628H23.9452C24.1936 19.2621 24.441 19.2958 24.6802 19.3628C24.8923 19.4198 25.0904 19.5199 25.2622 19.6568C25.427 19.7914 25.5581 19.9626 25.6452 20.1568C25.7414 20.3798 25.7885 20.6209 25.7832 20.8638V20.9378ZM23.1172 21.5148H23.9172C24.0031 21.5215 24.0895 21.5096 24.1704 21.4799C24.2514 21.4502 24.325 21.4034 24.3862 21.3428C24.4874 21.2342 24.5432 21.0911 24.5422 20.9428V20.8948C24.5432 20.7464 24.4874 20.6033 24.3862 20.4948C24.3252 20.4321 24.2513 20.3835 24.1696 20.3525C24.0879 20.3214 24.0004 20.3085 23.9132 20.3148H23.2942C23.2443 20.3103 23.1945 20.3234 23.1532 20.3518C23.1228 20.3932 23.1096 20.4448 23.1162 20.4958L23.1172 21.5148ZM28.0732 19.2638C28.3399 19.2637 28.6052 19.3018 28.8612 19.3768C29.1193 19.4512 29.3582 19.5809 29.5612 19.7568C29.7786 19.9493 29.9495 20.1887 30.0612 20.4568C30.1973 20.7977 30.262 21.1629 30.2512 21.5298V21.9298C30.262 22.2967 30.1973 22.6619 30.0612 23.0028C29.9495 23.2709 29.7786 23.5102 29.5612 23.7028C29.3582 23.8787 29.1193 24.0083 28.8612 24.0828C28.6053 24.1584 28.34 24.1972 28.0732 24.1978H27.1562C27.0012 24.2013 26.8465 24.1838 26.6962 24.1458C26.5846 24.1173 26.483 24.0588 26.4022 23.9768C26.325 23.892 26.2712 23.7886 26.2462 23.6768C26.213 23.5302 26.1975 23.3801 26.2002 23.2298V20.2298C26.1977 20.0801 26.2131 19.9307 26.2462 19.7848C26.2712 19.6729 26.325 19.5695 26.4022 19.4848C26.4828 19.4023 26.5845 19.3435 26.6962 19.3148C26.8465 19.2767 27.0012 19.2592 27.1562 19.2628L28.0732 19.2638ZM28.9982 21.4338C29.0177 21.1351 28.9221 20.8403 28.7312 20.6098C28.642 20.5148 28.5334 20.4402 28.4128 20.391C28.2922 20.3418 28.1623 20.3192 28.0322 20.3248H27.6322C27.5815 20.3182 27.5301 20.3299 27.4872 20.3578C27.4568 20.3992 27.4436 20.4508 27.4502 20.5018V22.9598C27.4436 23.0107 27.4568 23.0623 27.4872 23.1038C27.5288 23.1311 27.5787 23.1431 27.6282 23.1378H28.0282C28.1585 23.1435 28.2885 23.1209 28.4093 23.0717C28.5301 23.0226 28.6389 22.9479 28.7282 22.8528C28.9181 22.6218 29.0125 22.3271 28.9922 22.0288L28.9982 21.4338Z" fill="#33302B"/>
</svg>
