<svg width="40" height="40" viewBox="0 0 40 40" fill="none" xmlns="http://www.w3.org/2000/svg">
<path d="M31.4 8.0012H21.185C19.9256 8.00299 18.692 8.35774 17.624 9.0252C16.5521 8.35759 15.3148 8.00291 14.052 8.0012H3.838C3.61566 8.00147 3.40251 8.08998 3.24538 8.24729C3.08826 8.40461 3 8.61786 3 8.8402L3 28.6402C3.00209 28.8618 3.09104 29.0737 3.24775 29.2305C3.40446 29.3872 3.61639 29.4761 3.838 29.4782H14.052C15.1563 29.4773 16.2307 29.8369 17.112 30.5022C17.2567 30.6152 17.435 30.6765 17.6185 30.6765C17.802 30.6765 17.9803 30.6152 18.125 30.5022C19.0073 29.8387 20.0811 29.4794 21.185 29.4782H31.4C31.6222 29.4779 31.8352 29.3896 31.9923 29.2325C32.1494 29.0754 32.2377 28.8624 32.238 28.6402C32.238 28.6402 32.238 9.7482 32.238 8.8402C32.238 7.9322 32.362 8.0012 31.4 8.0012Z" fill="white" stroke="#323232" stroke-linecap="round"/>
<path d="M17.6191 8.54517V30.3232" stroke="#323232"/>
<path d="M7.01758 14.2861H12.8656" stroke="#323232" stroke-linecap="round"/>
<path d="M7.01758 18.6721H12.8656" stroke="#323232" stroke-linecap="round"/>
<path d="M7.01758 23.0581H12.8656" stroke="#323232" stroke-linecap="round"/>
<path d="M22.3711 14.2861H28.2191" stroke="#323232" stroke-linecap="round"/>
<path d="M22.3711 18.6721H28.2191" stroke="#323232" stroke-linecap="round"/>
<path d="M22.3711 23.0581H28.2191" stroke="#323232" stroke-linecap="round"/>
<path d="M31.5985 21.5042H20.7589C17.5784 21.5042 15 24.0825 15 27.2631C15 30.4437 17.5784 33.022 20.7589 33.022H31.5985C34.7791 33.022 37.3575 30.4437 37.3575 27.2631C37.3575 24.0825 34.7791 21.5042 31.5985 21.5042Z" fill="#FFD139"/>
<path d="M31.599 21.9832H20.7594C17.8434 21.9832 15.4795 24.3471 15.4795 27.2631C15.4795 30.1791 17.8434 32.543 20.7594 32.543H31.599C34.515 32.543 36.8789 30.1791 36.8789 27.2631C36.8789 24.3471 34.515 21.9832 31.599 21.9832Z" stroke="#323232"/>
<g clip-path="url(#clip0_3241_55621)">
<path d="M23.7344 26.8512C23.7344 27.9881 22.8323 28.6905 21.4034 28.6905H20.4881V29.994H19V25H21.4034C22.8389 25 23.7344 25.7083 23.7344 26.8512ZM22.2331 26.8512C22.2331 26.3869 21.9236 26.1131 21.3112 26.1131H20.4881V27.5774H21.3112C21.9236 27.5774 22.2331 27.3036 22.2331 26.8512Z" fill="#323232"/>
<path d="M29.1934 26.8512C29.1934 27.9881 28.2913 28.6905 26.8624 28.6905H25.9471V29.994H24.459V25H26.8624C28.2979 25 29.1934 25.7083 29.1934 26.8512ZM27.6921 26.8512C27.6921 26.3869 27.3826 26.1131 26.7702 26.1131H25.9471V27.5774H26.7702C27.3826 27.5774 27.6921 27.3036 27.6921 26.8512Z" fill="#323232"/>
<path d="M30.9052 26.119H29.292V25H34.0001V26.119H32.3934V29.994H30.9052V26.119Z" fill="#323232"/>
</g>
<defs>
<clipPath id="clip0_3241_55621">
<rect width="15" height="5" fill="white" transform="translate(19 25)"/>
</clipPath>
</defs>
</svg>
