<svg width="40" height="40" viewBox="0 0 40 40" fill="none" xmlns="http://www.w3.org/2000/svg">
<path d="M25.7139 5.71436C27.6863 5.71436 29.2861 7.31326 29.2861 9.28564V23.8726C29.286 25.8449 27.6862 27.4438 25.7139 27.4438H13.1748C12.7574 28.919 11.4018 30.0005 9.79297 30.0005H5V9.28564C5.00008 7.31331 6.59895 5.71443 8.57129 5.71436H25.7139Z" fill="white"/>
<path d="M29.2861 9.28564H29.7861V9.28563L29.2861 9.28564ZM29.2861 23.8726L29.7861 23.8726V23.8726H29.2861ZM13.1748 27.4438V26.9438H12.7967L12.6937 27.3077L13.1748 27.4438ZM5 30.0005H4.5V30.5005H5V30.0005ZM5 9.28564L4.5 9.28563V9.28564H5ZM8.57129 5.71436V5.21436H8.57127L8.57129 5.71436ZM25.7139 5.71436V6.21436C27.4103 6.21436 28.7861 7.58957 28.7861 9.28566L29.2861 9.28564L29.7861 9.28563C29.786 7.03696 27.9622 5.21436 25.7139 5.21436V5.71436ZM29.2861 9.28564H28.7861V23.8726H29.2861H29.7861V9.28564H29.2861ZM29.2861 23.8726L28.7861 23.8725C28.786 25.5686 27.4102 26.9438 25.7139 26.9438V27.4438V27.9438C27.9622 27.9438 29.7859 26.1211 29.7861 23.8726L29.2861 23.8726ZM25.7139 27.4438V26.9438H13.1748V27.4438V27.9438H25.7139V27.4438ZM13.1748 27.4438L12.6937 27.3077C12.3355 28.5735 11.1719 29.5005 9.79297 29.5005V30.0005V30.5005C11.6316 30.5005 13.1792 29.2644 13.6559 27.58L13.1748 27.4438ZM9.79297 30.0005V29.5005H5V30.0005V30.5005H9.79297V30.0005ZM5 30.0005H5.5V9.28564H5H4.5V30.0005H5ZM5 9.28564L5.5 9.28566C5.50007 7.58946 6.8751 6.21442 8.57131 6.21436L8.57129 5.71436L8.57127 5.21436C6.32281 5.21444 4.50009 7.03716 4.5 9.28563L5 9.28564ZM8.57129 5.71436V6.21436H25.7139V5.71436V5.21436H8.57129V5.71436Z" fill="#323232"/>
<path d="M22.8945 33.8345H29.2855" stroke="#323232" stroke-miterlimit="10" stroke-linecap="round"/>
<path d="M8.19531 6.35352L8.19531 27.4437" stroke="#323232" stroke-miterlimit="10" stroke-linecap="round"/>
<path d="M5 30.6391C5 28.8743 6.43067 27.4436 8.19549 27.4436H27.3684V33.8346H8.19549C6.43067 33.8346 5 32.4039 5 30.6391Z" fill="white" stroke="#323232" stroke-linejoin="round"/>
<rect x="11.4287" y="11.4285" width="24.2857" height="10" rx="5" fill="#FFD139" stroke="#323232" stroke-linejoin="round"/>
<path d="M23.8828 14.7744C24.8686 14.7744 25.5938 15.5316 25.5938 16.5625C25.5936 17.5933 24.8685 18.3496 23.8828 18.3496C22.8972 18.3495 22.172 17.5932 22.1719 16.5625C22.1719 15.5317 22.8971 14.7745 23.8828 14.7744ZM27.6064 14.7744C28.5923 14.7744 29.3174 15.5316 29.3174 16.5625C29.3173 17.5933 28.5922 18.3496 27.6064 18.3496C26.6208 18.3496 25.8956 17.5933 25.8955 16.5625C25.8955 15.5316 26.6207 14.7745 27.6064 14.7744ZM30.6367 16.2715L31.8301 14.8438H32.7881L31.5293 16.3662L32.8525 18.2803H31.8428L30.9629 17.0332L30.6367 17.4219V18.2803H29.7734V14.8438H30.6367V16.2715ZM17.416 15.5928H15.8633V16.1738H17.2324V16.8975H15.8633V17.5273H17.4727V18.2764H15V14.8438H17.416V15.5928ZM20.5264 14.8438C21.337 14.8438 21.7324 15.2125 21.7324 15.7402C21.7324 16.0672 21.5818 16.333 21.3174 16.4844C21.6634 16.6235 21.8788 16.9182 21.8789 17.3311V17.3359C21.8787 17.9288 21.439 18.2763 20.6123 18.2764H18.9502V14.8438H20.5264ZM19.8135 17.5771H20.543C20.8402 17.5771 20.9989 17.4624 20.999 17.2295C20.999 16.9922 20.8403 16.8818 20.543 16.8818H19.8135V17.5771ZM23.8867 15.5801C23.4225 15.5803 23.0557 15.9695 23.0557 16.5625C23.0558 17.1554 23.4226 17.5437 23.8867 17.5439C24.351 17.5439 24.7177 17.1556 24.7178 16.5625C24.7178 15.9693 24.3511 15.5801 23.8867 15.5801ZM27.6104 15.5801C27.1461 15.5802 26.7793 15.9694 26.7793 16.5625C26.7794 17.1555 27.1461 17.5438 27.6104 17.5439C28.0747 17.5439 28.4413 17.1556 28.4414 16.5625C28.4414 15.9693 28.0747 15.5801 27.6104 15.5801ZM18.4287 16.8281H17.8604V16.1123H18.4287V16.8281ZM19.8135 16.2061H20.4131C20.7019 16.2059 20.8525 16.0918 20.8525 15.8711C20.8525 15.6503 20.702 15.5441 20.4131 15.5439H19.8135V16.2061Z" fill="#323232"/>
</svg>
