<svg width="40" height="40" viewBox="0 0 40 40" fill="none" xmlns="http://www.w3.org/2000/svg">
<path d="M20 40C31.0457 40 40 31.0457 40 20C40 8.9543 31.0457 0 20 0C8.9543 0 0 8.9543 0 20C0 31.0457 8.9543 40 20 40Z" fill="#EEEEEE"/>
<path d="M20.5001 11.9482C16.2401 11.9482 12.7831 15.1002 12.7831 18.9902C12.732 20.0815 12.974 21.1665 13.484 22.1326C13.9939 23.0988 14.7533 23.9107 15.6831 24.4842V27.8582C15.6822 27.8954 15.6922 27.9321 15.7119 27.9637C15.7316 27.9952 15.7601 28.0204 15.7939 28.036C15.8276 28.0516 15.8653 28.057 15.9021 28.0516C15.9389 28.0461 15.9733 28.03 16.0011 28.0052L18.9351 25.8672L18.9911 25.8852C19.4906 25.9755 19.9975 26.0187 20.5051 26.0143C24.7651 26.0143 28.2221 22.8622 28.2221 18.9722C28.2221 15.1012 24.7651 11.9482 20.5051 11.9482" fill="#191919"/>
<path d="M17.789 21.9831C17.3852 21.9923 16.9838 21.9195 16.609 21.7693C16.2341 21.619 15.8936 21.3943 15.608 21.1088C15.3224 20.8233 15.0976 20.4829 14.9472 20.1081C14.7968 19.7333 14.7239 19.3319 14.733 18.9281C14.7237 18.5242 14.7964 18.1226 14.9466 17.7476C15.0969 17.3726 15.3217 17.0319 15.6073 16.7462C15.8929 16.4604 16.2335 16.2356 16.6085 16.0852C16.9835 15.9348 17.3851 15.862 17.789 15.8711C18.478 15.8505 19.1507 16.0834 19.6793 16.5258C20.208 16.9682 20.5559 17.5893 20.657 18.2711H19.476C19.3831 17.8977 19.1649 17.5674 18.8579 17.3354C18.5509 17.1034 18.1736 16.9836 17.789 16.9961C17.5333 16.9855 17.2782 17.0283 17.04 17.1219C16.8018 17.2155 16.5858 17.3578 16.4058 17.5396C16.2257 17.7215 16.0856 17.9389 15.9944 18.178C15.9031 18.4171 15.8628 18.6726 15.876 18.9281C15.869 19.1821 15.9136 19.4348 16.0071 19.671C16.1005 19.9073 16.2409 20.1221 16.4197 20.3026C16.5985 20.483 16.812 20.6254 17.0473 20.7211C17.2827 20.8167 17.535 20.8637 17.789 20.8591C18.1662 20.8748 18.5377 20.763 18.8437 20.5419C19.1497 20.3208 19.3724 20.0032 19.476 19.6401H20.657C20.5388 20.3065 20.1906 20.9102 19.673 21.3461C19.1386 21.772 18.4721 21.9974 17.789 21.9831ZM22.738 21.8711H21.651V15.9091H22.738V18.1581C22.8781 17.9598 23.0679 17.8018 23.2883 17.6998C23.5087 17.5978 23.7521 17.5555 23.994 17.5771C24.2048 17.566 24.4154 17.6024 24.6103 17.6836C24.8052 17.7648 24.9794 17.8887 25.12 18.0461C25.4328 18.3948 25.5946 18.8533 25.57 19.3211V21.8711H24.482V19.4331C24.4962 19.3197 24.4849 19.2046 24.449 19.0961C24.4131 18.9876 24.3535 18.8885 24.2745 18.8059C24.1955 18.7234 24.099 18.6595 23.9922 18.6188C23.8854 18.5782 23.7709 18.5619 23.657 18.5711C23.065 18.5711 22.739 18.9371 22.739 19.6031L22.738 21.8711Z" fill="white"/>
</svg>
