<svg width="40" height="40" viewBox="0 0 40 40" fill="none" xmlns="http://www.w3.org/2000/svg">
<path d="M20 17.766C20 17.766 16.1703 12.215 7.23443 16.8408L3 35C12.1538 35 20 35 20 35C20 35 28.2821 35 37 35L32.7656 16.8408C23.8297 12.215 20 17.766 20 17.766ZM20 17.766V35V17.766Z" fill="#FFD139"/>
<path d="M20 17.766C20 17.766 16.1703 12.215 7.23443 16.8408L3 35C12.1538 35 20 35 20 35M20 17.766C20 17.766 23.8297 12.215 32.7656 16.8408L37 35C28.2821 35 20 35 20 35M20 17.766V35" stroke="#323232" stroke-linecap="round" stroke-linejoin="round"/>
<path d="M19.9995 15.4924C19.9995 15.4924 16.773 10.4903 9.24442 14.6587L4.94238 33C12.471 28.8315 19.9995 33 19.9995 33C19.9995 33 27.5281 28.8315 35.0567 33L30.7546 14.6587C23.2261 10.4903 19.9995 15.4924 19.9995 15.4924ZM19.9995 15.4924V33V15.4924Z" fill="white"/>
<path d="M19.9995 15.4924C19.9995 15.4924 16.773 10.4903 9.24442 14.6587L4.94238 33C12.471 28.8315 19.9995 33 19.9995 33M19.9995 15.4924C19.9995 15.4924 23.2261 10.4903 30.7546 14.6587L35.0567 33C27.5281 28.8315 19.9995 33 19.9995 33M19.9995 15.4924V33" stroke="#323232" stroke-linecap="round" stroke-linejoin="round"/>
<path d="M22.4287 27.9999C23.8859 26.9999 28.743 26 31.6573 27.9999" stroke="#323232" stroke-linecap="round"/>
<path d="M22.4287 25.1141C23.6558 24.248 27.7716 23 30.6859 25" stroke="#323232" stroke-linecap="round"/>
<path d="M22.4287 22C23.4392 21.2226 27.7716 20.5 30.2001 22.0001" stroke="#323232" stroke-linecap="round"/>
<path d="M17.5713 27.8744C16.1141 26.8744 11.257 25.8745 8.34272 27.8744" stroke="#323232" stroke-linecap="round"/>
<path d="M17.5713 24.9886C16.3442 24.1225 12.2284 22.8745 9.31415 24.8745" stroke="#323232" stroke-linecap="round"/>
<path d="M17.5713 21.8746C16.5608 21.0972 12.2284 20.3745 9.79986 21.8746" stroke="#323232" stroke-linecap="round"/>
<path d="M29.0004 10.9965C30.0008 10.2492 30.0009 10.2491 30.0033 9C30.7509 10.0008 30.7508 10.0008 32 10.0032C30.9992 10.7508 30.9993 10.7508 30.9968 12C30.2493 10.9992 30.2492 10.9992 29.0002 10.9968L29 10.9968L29.0004 10.9965Z" fill="#323232"/>
<path d="M8.00044 6.99646C9.00079 6.24916 9.0009 6.24908 9.00328 5C9.75089 6.00083 9.75083 6.00078 11 6.00321C9.99921 6.75084 9.99926 6.75079 9.99682 8C9.24926 6.99922 9.24922 6.99922 8.00019 6.99679L8 6.99679L8.00044 6.99646Z" fill="#323232"/>
<path d="M23.4591 7.81564C24.2281 6.10253 24.2282 6.10235 23.3188 4.45872C25.0326 5.22814 25.0325 5.22811 26.6763 4.31875C25.907 6.03261 25.907 6.0325 26.8164 7.67634C25.1026 6.90696 25.1026 6.90699 23.459 7.81625L23.4587 7.81639L23.4591 7.81564Z" fill="#323232"/>
<path d="M13.0009 9.99292C15.0016 8.49832 15.0018 8.49816 15.0066 6C16.5018 8.00166 16.5017 8.00155 19 8.00642C16.9984 9.50168 16.9985 9.50158 16.9936 12C15.4985 9.99845 15.4984 9.99845 13.0004 9.99358L13 9.99358L13.0009 9.99292Z" fill="#323232"/>
</svg>
