<svg width="40" height="40" viewBox="0 0 40 40" fill="none" xmlns="http://www.w3.org/2000/svg">
<path fill-rule="evenodd" clip-rule="evenodd" d="M20 5.67116C22.0141 5.67355 23.9449 6.47531 25.3682 7.90033C26.7915 9.32535 27.591 11.2571 27.591 13.2712V15.5282C28.8676 15.9731 29.9742 16.8039 30.7577 17.9056C31.5412 19.0072 31.9628 20.3253 31.964 21.6772V27.8222C31.9624 29.5477 31.2762 31.2021 30.0561 32.4223C28.836 33.6424 27.1815 34.3286 25.456 34.3302H14.508C12.7825 34.3286 11.128 33.6424 9.9079 32.4223C8.68776 31.2021 8.00159 29.5477 8 27.8222V21.6772C8.00137 20.3256 8.42287 19.0078 9.20615 17.9064C9.98944 16.8049 11.0958 15.9742 12.372 15.5292V13.2712C12.3694 12.2669 12.5669 11.2722 12.9528 10.345C13.3388 9.41791 13.9055 8.57692 14.62 7.87117C15.32 7.15792 16.1582 6.59494 17.0833 6.21667C18.0083 5.8384 19.0008 5.65279 20 5.67116ZM25.456 17.3152H14.508C13.3522 17.316 12.2439 17.7755 11.4266 18.5928C10.6093 19.4101 10.1498 20.5183 10.149 21.6742V27.8192C10.149 28.9755 10.6082 30.0846 11.4255 30.9025C12.2429 31.7205 13.3516 32.1804 14.508 32.1812H25.456C26.6118 32.1801 27.7199 31.7205 28.5371 30.9033C29.3544 30.086 29.8139 28.9779 29.815 27.8222V21.6772C29.8139 20.5214 29.3544 19.4133 28.5371 18.5961C27.7199 17.7788 26.6118 17.3192 25.456 17.3182V17.3152ZM19.982 22.0802C20.2671 22.0802 20.5405 22.1934 20.7421 22.395C20.9437 22.5966 21.057 22.8701 21.057 23.1552V26.3372C21.0614 26.481 21.0368 26.6243 20.9848 26.7585C20.9328 26.8927 20.8544 27.0151 20.7541 27.1184C20.6539 27.2217 20.534 27.3039 20.4014 27.36C20.2689 27.416 20.1264 27.4449 19.9825 27.4449C19.8386 27.4449 19.6961 27.416 19.5636 27.36C19.431 27.3039 19.3111 27.2217 19.2109 27.1184C19.1106 27.0151 19.0322 26.8927 18.9802 26.7585C18.9282 26.6243 18.9036 26.481 18.908 26.3372V23.1582C18.908 22.8732 19.0211 22.6 19.2225 22.3984C19.4239 22.1968 19.6971 22.0834 19.982 22.0832V22.0802ZM20 7.82316H19.977C18.5351 7.8205 17.1511 8.38984 16.1285 9.4063C15.1058 10.4227 14.5281 11.8033 14.522 13.2452V15.1712H25.44V13.2712C25.4389 11.828 24.8657 10.4441 23.846 9.42284C22.8262 8.4016 21.4432 7.82634 20 7.82316Z" fill="#191919"/>
</svg>
