<svg width="40" height="40" viewBox="0 0 40 40" fill="none" xmlns="http://www.w3.org/2000/svg">
<path fill-rule="evenodd" clip-rule="evenodd" d="M19.994 5.67651C21.5721 5.67772 23.1107 6.17017 24.3963 7.0855C25.6818 8.00083 26.6505 9.29364 27.168 10.7845C27.2608 11.0538 27.2429 11.349 27.1181 11.6051C26.9932 11.8612 26.7718 12.0572 26.5025 12.15C26.2332 12.2428 25.938 12.2249 25.6819 12.1001C25.4258 11.9753 25.2298 11.7538 25.137 11.4845C24.7652 10.4157 24.0699 9.48907 23.1476 8.83338C22.2253 8.17769 21.1217 7.82543 19.99 7.82551H19.97C18.53 7.82575 17.1486 8.39578 16.1275 9.4111C15.1063 10.4264 14.5285 11.8045 14.52 13.2445V15.1665H25.45C27.1753 15.1689 28.8291 15.8557 30.0485 17.0762C31.2679 18.2968 31.9532 19.9512 31.954 21.6765V27.8175C31.9522 29.5414 31.2669 31.1943 30.0485 32.4138C28.8301 33.6333 27.1779 34.3201 25.454 34.3235H14.5C12.7755 34.3203 11.1227 33.6333 9.90414 32.413C8.68558 31.1928 8.00079 29.539 8 27.8145L8 21.6765C8.00073 20.3247 8.42184 19.0065 9.20498 17.9046C9.98813 16.8027 11.0946 15.9717 12.371 15.5265V13.2685C12.3755 11.256 13.1771 9.32728 14.6003 7.90441C16.0236 6.48155 17.9525 5.68048 19.965 5.67651L19.994 5.67651ZM25.449 17.3155H14.5C13.345 17.3182 12.2383 17.7788 11.4224 18.5963C10.6066 19.4138 10.1483 20.5215 10.148 21.6765V27.8175C10.1488 28.9721 10.6073 30.0793 11.4231 30.8964C12.2389 31.7135 13.3454 32.1739 14.5 32.1765H25.449C26.6042 32.1749 27.7117 31.7152 28.5285 30.8983C29.3452 30.0813 29.8047 28.9737 29.806 27.8185V21.6765C29.8055 20.5208 29.3464 19.4124 28.5295 18.5948C27.7127 17.7772 26.6048 17.3171 25.449 17.3155ZM19.978 22.0765C20.2628 22.0768 20.5358 22.19 20.7371 22.3914C20.9385 22.5927 21.0517 22.8658 21.052 23.1505V26.3325C21.052 26.6174 20.9388 26.8905 20.7374 27.0919C20.536 27.2934 20.2628 27.4065 19.978 27.4065C19.6932 27.4065 19.42 27.2934 19.2186 27.0919C19.0172 26.8905 18.904 26.6174 18.904 26.3325V23.1525C18.9039 23.0113 18.9315 22.8715 18.9854 22.7411C19.0393 22.6106 19.1184 22.492 19.2182 22.3921C19.3179 22.2922 19.4363 22.2129 19.5667 22.1587C19.6971 22.1046 19.8368 22.0766 19.978 22.0765Z" fill="#191919"/>
</svg>
