<svg width="40" height="40" viewBox="0 0 40 40" fill="none" xmlns="http://www.w3.org/2000/svg">
<path d="M3.26938 19.4443L23.2632 8.09646L28.9107 28.8681L5.97044 28.8681L3.26938 19.4443Z" fill="#FFE591"/>
<path fill-rule="evenodd" clip-rule="evenodd" d="M3.44026 19.5493L23.4442 8.17823L28.9538 28.7406L19.5595 28.6811C20.2834 30.8014 19.0768 32.4016 16.8624 32.995C14.6479 33.5883 12.7333 32.7487 12.3392 30.5004L11.9387 29.0059L5.94441 28.8949L3.44026 19.5493Z" stroke="#323232" stroke-linecap="round" stroke-linejoin="round"/>
<path d="M35.6654 15.9477L32.4298 16.8147" stroke="#323232" stroke-linecap="round"/>
<path d="M34.3535 26.2171L31.4492 24.5154" stroke="#323232" stroke-linecap="round"/>
<path d="M29.3981 7.71096L27.7303 10.6378" stroke="#323232" stroke-linecap="round"/>
<path d="M28.9529 28.7403L29.4538 30.6098" stroke="#323232" stroke-linecap="round"/>
<path d="M23.444 8.17793L22.9431 6.30846" stroke="#323232" stroke-linecap="round"/>
<path d="M3.43914 19.5493L2.93822 17.6798" stroke="#323232" stroke-linecap="round"/>
<path d="M6.44402 30.7641L5.9431 28.8946" stroke="#323232" stroke-linecap="round"/>
<path d="M11.9388 29.0058L19.5596 28.681" stroke="#323232" stroke-linecap="round"/>
</svg>
