<svg width="40" height="40" viewBox="0 0 40 40" fill="none" xmlns="http://www.w3.org/2000/svg">
<path d="M20.0736 36.0589C19.8111 36.0591 19.5488 36.0414 19.2886 36.0059H19.2816C18.3022 35.8638 17.3762 35.4707 16.5936 34.8649C16.2168 34.607 15.9031 34.2675 15.6758 33.8715C15.4484 33.4755 15.3134 33.0333 15.2806 32.5779V32.5259C15.2832 32.1426 15.3973 31.7683 15.6089 31.4486C15.8206 31.129 16.1207 30.8779 16.4726 30.7259C15.5566 30.6719 14.6726 30.5969 13.8186 30.4999C12.1312 30.3457 10.5591 29.5774 9.40063 28.3409L9.37163 28.3089C8.47632 27.2638 7.98935 25.93 8.00063 24.5539C7.92552 23.2212 8.35381 21.9088 9.20063 20.8769C9.59657 20.4765 9.90295 19.9966 10.0995 19.4689C10.296 18.9412 10.3782 18.3778 10.3406 17.8159V17.2599C10.2555 15.2025 10.932 13.1858 12.2406 11.5959L12.2466 11.5889C13.1974 10.4435 14.3936 9.52652 15.7466 8.90592C17.0922 8.27809 18.5578 7.94889 20.0426 7.94092H20.1596C21.6832 7.94278 23.1869 8.28672 24.5597 8.94736C25.9326 9.608 27.1396 10.5685 28.0916 11.7579C29.3287 13.3161 29.957 15.2708 29.8596 17.2579V17.8139C29.8273 18.3764 29.9121 18.9395 30.1084 19.4676C30.3048 19.9956 30.6086 20.4772 31.0006 20.8819C31.8464 21.9124 32.2747 23.2228 32.2006 24.5539C32.2133 25.9294 31.7281 27.2631 30.8346 28.3089L30.8006 28.3409C29.6375 29.5814 28.0584 30.3502 26.3646 30.5009C25.4846 30.5759 24.5756 30.6479 23.6486 30.7009C24.0106 30.8491 24.3207 31.1008 24.5401 31.4246C24.7594 31.7484 24.8783 32.1298 24.8816 32.5209V32.5729C24.8484 33.0281 24.7132 33.47 24.4861 33.8658C24.259 34.2617 23.9458 34.6015 23.5696 34.8599C22.7864 35.4645 21.8607 35.8571 20.8816 35.9999H20.8666C20.6038 36.0365 20.3389 36.0562 20.0736 36.0589ZM19.5646 34.0249C19.9098 34.0705 20.2595 34.0705 20.6046 34.0249C21.2461 33.93 21.8521 33.6706 22.3636 33.2719L22.4076 33.2389C22.5271 33.1618 22.6301 33.0619 22.7107 32.9449C22.7914 32.8278 22.8481 32.696 22.8776 32.5569C22.7646 32.4893 22.6408 32.4416 22.5116 32.4159C21.7036 32.3466 20.8925 32.3195 20.0816 32.3349C19.2708 32.3195 18.4597 32.3465 17.6516 32.4159C17.5228 32.4417 17.3993 32.4894 17.2866 32.5569C17.316 32.6955 17.3725 32.8269 17.453 32.9435C17.5335 33.06 17.6364 33.1594 17.7556 33.2359L17.8046 33.2719C18.3159 33.6716 18.9225 33.9311 19.5646 34.0249ZM10.8746 26.9939C11.6964 27.8639 12.8085 28.4025 14.0006 28.5079H14.0316C16.048 28.7287 18.0753 28.8342 20.1036 28.8239C22.1796 28.8239 24.2626 28.6709 26.2036 28.5049C27.3957 28.3986 28.5076 27.8597 29.3296 26.9899C29.903 26.3075 30.2127 25.4422 30.2026 24.5509C30.2721 23.7057 30.0224 22.8651 29.5026 22.1949L29.4936 22.1839C28.9478 21.5984 28.523 20.9109 28.2436 20.1608C27.9643 19.4107 27.8358 18.6128 27.8656 17.8129V17.2599C27.9563 15.7165 27.4758 14.1937 26.5156 12.9819C25.7464 12.0372 24.7775 11.2746 23.6786 10.7488C22.5796 10.223 21.3779 9.94714 20.1596 9.94092H20.0426C18.853 9.94634 17.6787 10.2092 16.6003 10.7116C15.522 11.2139 14.5652 11.9437 13.7956 12.8509C12.7732 14.085 12.2546 15.6598 12.3436 17.2599V17.8159C12.3793 18.6195 12.2521 19.422 11.9698 20.1752C11.6874 20.9284 11.2557 21.6168 10.7006 22.1989C10.1819 22.8692 9.93227 23.7091 10.0006 24.5539C9.99067 25.4456 10.3008 26.3113 10.8746 26.9939Z" fill="white"/>
<path d="M20.1006 5C20.7636 5 21.3995 5.26339 21.8684 5.73223C22.3372 6.20107 22.6006 6.83696 22.6006 7.5V10H17.6006V7.5C17.6006 6.83696 17.864 6.20107 18.3328 5.73223C18.8017 5.26339 19.4375 5 20.1006 5Z" fill="white"/>
</svg>
