<svg width="40" height="40" viewBox="0 0 40 40" fill="none" xmlns="http://www.w3.org/2000/svg">
<path d="M16.7129 5L25.2852 13.5713V33.5713H7.42773C5.45529 33.5713 3.85645 31.9724 3.85645 30V8.57129C3.85652 6.59891 5.45534 5 7.42773 5H16.7129Z" fill="white"/>
<path d="M16.7129 5L17.0664 4.64643C16.9727 4.55267 16.8455 4.5 16.7129 4.5V5ZM25.2852 13.5713H25.7852C25.7852 13.4387 25.7325 13.3115 25.6387 13.2177L25.2852 13.5713ZM25.2852 33.5713V34.0713C25.5613 34.0713 25.7852 33.8474 25.7852 33.5713H25.2852ZM3.85645 30H3.35645H3.85645ZM3.85645 8.57129L3.35645 8.57127V8.57129H3.85645ZM16.7129 5L16.3594 5.35357L24.9316 13.9249L25.2852 13.5713L25.6387 13.2177L17.0664 4.64643L16.7129 5ZM25.2852 13.5713H24.7852V33.5713H25.2852H25.7852V13.5713H25.2852ZM25.2852 33.5713V33.0713H7.42773V33.5713V34.0713H25.2852V33.5713ZM7.42773 33.5713V33.0713C5.73143 33.0713 4.35645 31.6963 4.35645 30H3.85645H3.35645C3.35645 32.2486 5.17915 34.0713 7.42773 34.0713V33.5713ZM3.85645 30H4.35645V8.57129H3.85645H3.35645V30H3.85645ZM3.85645 8.57129L4.35645 8.57131C4.35651 6.87504 5.7315 5.5 7.42773 5.5V5V4.5C5.17917 4.5 3.35653 6.32278 3.35645 8.57127L3.85645 8.57129ZM7.42773 5V5.5H16.7129V5V4.5H7.42773V5Z" fill="#323232"/>
<path d="M8 22H13" stroke="#323232" stroke-miterlimit="10" stroke-linecap="round"/>
<path d="M8 24.9961H12" stroke="#323232" stroke-miterlimit="10" stroke-linecap="round"/>
<path d="M8 18.9961H14" stroke="#323232" stroke-miterlimit="10" stroke-linecap="round"/>
<path d="M8 28H11" stroke="#323232" stroke-miterlimit="10" stroke-linecap="round"/>
<path d="M32.5985 18.5042H21.7589C18.5784 18.5042 16 21.0825 16 24.2631C16 27.4437 18.5784 30.022 21.7589 30.022H32.5985C35.7791 30.022 38.3575 27.4437 38.3575 24.2631C38.3575 21.0825 35.7791 18.5042 32.5985 18.5042Z" fill="#FFD139"/>
<path d="M32.599 18.9832H21.7594C18.8434 18.9832 16.4795 21.3471 16.4795 24.2631C16.4795 27.1791 18.8434 29.543 21.7594 29.543H32.599C35.515 29.543 37.8789 27.1791 37.8789 24.2631C37.8789 21.3471 35.515 18.9832 32.599 18.9832Z" stroke="#323232"/>
<g clip-path="url(#clip0_3241_55594)">
<path d="M24.7344 23.8512C24.7344 24.9881 23.8323 25.6905 22.4034 25.6905H21.4881V26.994H20V22H22.4034C23.8389 22 24.7344 22.7083 24.7344 23.8512ZM23.2331 23.8512C23.2331 23.3869 22.9236 23.1131 22.3112 23.1131H21.4881V24.5774H22.3112C22.9236 24.5774 23.2331 24.3036 23.2331 23.8512Z" fill="#323232"/>
<path d="M30.1934 23.8512C30.1934 24.9881 29.2913 25.6905 27.8624 25.6905H26.9471V26.994H25.459V22H27.8624C29.2979 22 30.1934 22.7083 30.1934 23.8512ZM28.6921 23.8512C28.6921 23.3869 28.3826 23.1131 27.7702 23.1131H26.9471V24.5774H27.7702C28.3826 24.5774 28.6921 24.3036 28.6921 23.8512Z" fill="#323232"/>
<path d="M31.9052 23.119H30.292V22H35.0001V23.119H33.3934V26.994H31.9052V23.119Z" fill="#323232"/>
</g>
<path d="M16.7147 13.5715L25.2861 13.5715L16.7147 5.0001L16.7147 13.5715Z" fill="white" stroke="#323232" stroke-linejoin="round"/>
<defs>
<clipPath id="clip0_3241_55594">
<rect width="15" height="5" fill="white" transform="translate(20 22)"/>
</clipPath>
</defs>
</svg>
