<svg width="40" height="40" viewBox="0 0 40 40" fill="none" xmlns="http://www.w3.org/2000/svg">
<path d="M11.2656 5.00024H32.1755C32.545 5.00014 32.9111 5.07287 33.2525 5.21427C33.594 5.35566 33.9043 5.56295 34.1657 5.8243C34.427 6.08565 34.6343 6.39593 34.7757 6.73741C34.9171 7.0789 34.9898 7.44488 34.9897 7.81448V9.86973C34.9897 9.97041 34.9498 10.067 34.8787 10.1384C34.8077 10.2097 34.7113 10.25 34.6106 10.2504H23.1273" fill="white"/>
<path d="M11.2656 5.00024H32.1755C32.545 5.00014 32.9111 5.07287 33.2525 5.21427C33.594 5.35566 33.9043 5.56295 34.1657 5.8243C34.427 6.08565 34.6343 6.39593 34.7757 6.73741C34.9171 7.0789 34.9898 7.44488 34.9897 7.81448V9.86973C34.9897 9.97041 34.9498 10.067 34.8787 10.1384C34.8077 10.2097 34.7113 10.25 34.6106 10.2504H23.1273" stroke="#323232" stroke-miterlimit="10"/>
<path d="M31.627 5.00024H10.7443C10.2109 5.01185 9.70387 5.23448 9.33431 5.61929C8.96475 6.00411 8.76284 6.51973 8.77281 7.05317V31.7967C8.76284 32.3302 8.96475 32.8458 9.33431 33.2306C9.70387 33.6154 10.2109 33.838 10.7443 33.8496H28.1755C29.2609 33.8496 30.1478 32.6201 30.1486 31.4858V7.5354" fill="white"/>
<path d="M31.627 5.00024H10.7443C10.2109 5.01185 9.70387 5.23448 9.33431 5.61929C8.96475 6.00411 8.76284 6.51973 8.77281 7.05317V31.7967C8.76284 32.3302 8.96475 32.8458 9.33431 33.2306C9.70387 33.6154 10.2109 33.838 10.7443 33.8496H28.1755C29.2609 33.8496 30.1478 32.6201 30.1486 31.4858V7.5354" stroke="#323232" stroke-miterlimit="10"/>
<path d="M27.5566 33.8667H6.81424C6.10808 33.9042 5.41578 33.6608 4.8885 33.1896C4.36123 32.7183 4.04181 32.0577 4 31.3517V29.5159C4.00559 29.4205 4.04884 29.3312 4.12021 29.2677C4.19159 29.2042 4.28526 29.1716 4.38066 29.1771H24.9253C25.0205 29.172 25.1137 29.2048 25.1848 29.2683C25.2558 29.3318 25.2989 29.4208 25.3045 29.5159V31.7642" fill="white"/>
<path d="M27.5566 33.8667H6.81424C6.10808 33.9042 5.41578 33.6608 4.8885 33.1896C4.36123 32.7183 4.04181 32.0577 4 31.3517V29.5159C4.00559 29.4205 4.04884 29.3312 4.12021 29.2677C4.19159 29.2042 4.28526 29.1716 4.38066 29.1771H24.9253C25.0205 29.172 25.1137 29.2048 25.1848 29.2683C25.2558 29.3318 25.2989 29.4208 25.3045 29.5159V31.7642" stroke="#323232" stroke-miterlimit="10"/>
<path d="M30.1485 31.0184C30.1834 31.6547 29.9669 32.2793 29.5457 32.7575C29.1244 33.2357 28.5322 33.5293 27.8965 33.5749C27.2609 33.6206 26.6328 33.4147 26.1475 33.0016C25.6622 32.5885 25.3587 32.0013 25.3023 31.3665C25.2938 31.251 25.2938 29.7454 25.3023 29.6299" fill="white"/>
<path d="M30.1485 31.0184C30.1834 31.6547 29.9669 32.2793 29.5457 32.7575C29.1244 33.2357 28.5322 33.5293 27.8965 33.5749C27.2609 33.6206 26.6328 33.4147 26.1475 33.0016C25.6622 32.5885 25.3587 32.0013 25.3023 31.3665C25.2938 31.251 25.2938 29.7454 25.3023 29.6299" stroke="#323232" stroke-miterlimit="10" stroke-linecap="round"/>
<path d="M13.2969 14.3035H21.8249" stroke="#323232" stroke-miterlimit="10" stroke-linecap="round"/>
<path d="M13.2969 18.1799H20.2743" stroke="#323232" stroke-miterlimit="10" stroke-linecap="round"/>
<path d="M30.1477 7.62139C30.1141 7.30179 30.146 6.9787 30.2413 6.67182C30.3366 6.36493 30.4935 6.08069 30.7022 5.83638C30.911 5.59207 31.1673 5.39283 31.4556 5.25081C31.7439 5.10879 32.058 5.02695 32.379 5.01029C32.6973 4.98297 33.018 5.01923 33.3222 5.11697C33.6264 5.2147 33.9082 5.37195 34.1511 5.57958C34.394 5.78721 34.5932 6.04105 34.7371 6.32637C34.881 6.61168 34.9667 6.92276 34.9893 7.24151C34.9893 7.36788 34.9986 7.98268 34.9893 8.10827" fill="white"/>
<path d="M30.1477 7.62139C30.1141 7.30179 30.146 6.9787 30.2413 6.67182C30.3366 6.36493 30.4935 6.08069 30.7022 5.83638C30.911 5.59207 31.1673 5.39283 31.4556 5.25081C31.7439 5.10879 32.058 5.02695 32.379 5.01029C32.6973 4.98297 33.018 5.01923 33.3222 5.11697C33.6264 5.2147 33.9082 5.37195 34.1511 5.57958C34.394 5.78721 34.5932 6.04105 34.7371 6.32637C34.881 6.61168 34.9667 6.92276 34.9893 7.24151C34.9893 7.36788 34.9986 7.98268 34.9893 8.10827" stroke="#323232" stroke-miterlimit="10" stroke-linecap="round"/>
<path d="M13.2969 10.4272H24.9259" stroke="#323232" stroke-miterlimit="10" stroke-linecap="round"/>
<path d="M13.2969 22.0562H18.7238" stroke="#323232" stroke-miterlimit="10" stroke-linecap="round"/>
<path d="M30.3535 30.9719L32.3677 29.809L34.1935 32.9714C34.4697 33.4497 34.3058 34.0613 33.8275 34.3374L33.5454 34.5003C33.0671 34.7765 32.4555 34.6126 32.1793 34.1343L30.3535 30.9719Z" fill="white" stroke="#323232" stroke-linejoin="round"/>
<circle cx="28.4151" cy="25.545" r="5.81453" fill="#FFE591" stroke="#323232"/>
<path d="M28.6088 28.6461C28.9299 28.6461 29.1903 28.3857 29.1903 28.0646C29.1903 27.7435 28.9299 27.4832 28.6088 27.4832C28.2877 27.4832 28.0273 27.7435 28.0273 28.0646C28.0273 28.3857 28.2877 28.6461 28.6088 28.6461Z" fill="#323232"/>
<rect x="28.0273" y="22.8315" width="1.16291" height="3.87635" rx="0.581453" fill="#323232"/>
</svg>
