<svg width="40" height="40" viewBox="0 0 40 40" fill="none" xmlns="http://www.w3.org/2000/svg">
<path d="M19.6599 7.26196C21.9627 7.26094 24.2171 7.92336 26.1533 9.16999C28.0895 10.4166 29.6256 12.1947 30.5778 14.2914C31.5299 16.3882 31.8579 18.7149 31.5224 20.9931C31.1869 23.2714 30.2021 25.4047 28.6859 27.138L32.2429 30.688C32.3548 30.7994 32.4436 30.9319 32.5041 31.0778C32.5647 31.2236 32.5959 31.38 32.5959 31.538C32.5959 31.6959 32.5647 31.8523 32.5041 31.9981C32.4436 32.144 32.3548 32.2765 32.2429 32.388C32.1314 32.4998 31.999 32.5886 31.8531 32.6492C31.7072 32.7097 31.5509 32.7409 31.3929 32.7409C31.235 32.7409 31.0786 32.7097 30.9327 32.6492C30.7869 32.5886 30.6544 32.4998 30.5429 32.388L26.9309 28.782C25.4173 29.937 23.6503 30.7149 21.7763 31.0513C19.9023 31.3877 17.9751 31.273 16.1542 30.7166C14.3334 30.1601 12.6712 29.1781 11.3054 27.8516C9.9395 26.5251 8.9092 24.8924 8.29974 23.0886C7.69029 21.2848 7.51921 19.3618 7.80066 17.4787C8.08212 15.5956 8.80801 13.8067 9.91826 12.2599C11.0285 10.7132 12.4912 9.45306 14.1852 8.58394C15.8793 7.71481 17.7559 7.26165 19.6599 7.26196ZM19.6599 28.843C21.5566 28.8428 23.4105 28.2802 24.9875 27.2263C26.5644 26.1725 27.7934 24.6747 28.5191 22.9224C29.2448 21.1701 29.4347 19.242 29.0646 17.3818C28.6945 15.5216 27.7812 13.8129 26.4401 12.4718C25.0989 11.1307 23.3903 10.2173 21.5301 9.84728C19.6699 9.47722 17.7418 9.66705 15.9894 10.3928C14.2371 11.1185 12.7394 12.3475 11.6855 13.9244C10.6317 15.5013 10.0691 17.3553 10.0689 19.252C10.0713 21.7949 11.0825 24.233 12.8807 26.0312C14.6788 27.8293 17.117 28.8406 19.6599 28.843Z" fill="#191919"/>
</svg>
