<svg width="40" height="40" viewBox="0 0 40 40" fill="none" xmlns="http://www.w3.org/2000/svg">
<path d="M8 8C8 7.44772 8.44772 7 9 7H31C31.5523 7 32 7.44772 32 8V28.382C32 28.7607 31.786 29.107 31.4472 29.2764L20.4472 34.7764C20.1657 34.9172 19.8343 34.9172 19.5528 34.7764L8.55279 29.2764C8.214 29.107 8 28.7607 8 28.382V8Z" stroke="white" stroke-width="2" stroke-linejoin="round"/>
<path d="M23.3255 27C23.3255 27 23.3255 27 23.3255 27C23.0614 27 22.7978 26.9329 22.5636 26.8059L20.0018 25.4009L17.4437 26.8039C17.2067 26.9324 16.9439 26.9992 16.68 26.9992C16.3376 26.9992 16.0096 26.891 15.7316 26.6862C15.2328 26.3187 14.9759 25.6791 15.0769 25.0565L15.5711 22.0499L13.4817 19.9264C13.0445 19.4825 12.8903 18.8313 13.0795 18.2271C13.2691 17.6219 13.7687 17.1872 14.3834 17.0925L17.2527 16.6573L18.5393 13.9381C18.8164 13.3582 19.3753 13 19.9995 13C20.6192 13 21.1929 13.3693 21.4609 13.9409L22.7462 16.6573L25.6157 17.0921C26.2272 17.1863 26.726 17.6185 26.9196 18.2203C27.1111 18.8156 26.9539 19.4854 26.5192 19.9268L24.4305 22.0496L24.9263 25.054C25.0285 25.684 24.7794 26.3071 24.2767 26.6827C23.9989 26.8903 23.6699 27 23.3255 27Z" fill="white"/>
</svg>
