<svg width="40" height="40" viewBox="0 0 40 40" fill="none" xmlns="http://www.w3.org/2000/svg">
<path d="M9.85059 7.01514C9.85059 5.91057 10.746 5.01514 11.8506 5.01514H24.3717C24.8896 5.01514 25.3872 5.21599 25.76 5.57545L29.5585 9.23826L33.3263 12.8715C33.7172 13.2484 33.938 13.7681 33.938 14.3112V32.577C33.938 33.6815 33.0426 34.577 31.938 34.577H11.8506C10.746 34.577 9.85059 33.6815 9.85059 32.577V7.01514Z" fill="#FFFBFB"/>
<path d="M33.0184 13.0871H28.6752C26.6055 13.0871 24.9258 11.3878 24.9258 9.30184V4.91699H26.11V9.30184C26.11 10.7315 27.2626 11.8916 28.6752 11.8916H33.0184V13.0871Z" fill="#323232"/>
<path d="M31.0439 35.4087H12.0931C10.4591 35.4087 9.13086 34.0677 9.13086 32.4181V28.4306H10.3151V32.4181C10.3151 33.4079 11.1127 34.2132 12.0931 34.2132H31.0439C32.0243 34.2132 32.822 33.4079 32.822 32.4181V12.736L25.2705 5.11571H12.8803C11.4641 5.11571 10.3151 6.27933 10.3151 7.70546V18.8662H9.13086V7.70546C9.13086 5.61947 10.814 3.92017 12.8803 3.92017H25.5129C25.6711 3.92017 25.8222 3.98402 25.9311 4.094L33.827 12.0655C33.9394 12.179 33.9991 12.328 33.9991 12.4876V32.4181C33.9991 34.0677 32.6709 35.4087 31.0369 35.4087H31.0439Z" fill="#323232"/>
<path d="M7.26035 18.8659C7.26035 17.8761 8.05802 17.0708 9.03841 17.0708H27.9892C28.9696 17.0708 29.7672 17.8761 29.7672 18.8659V26.8374C29.7672 27.8271 28.9696 28.6325 27.9892 28.6325H8.24426C7.88935 28.6325 7.55201 28.7176 7.25684 28.8737V18.8694L7.26035 18.8659Z" fill="#FFE591"/>
<path d="M27.9852 17.6709C28.6388 17.6709 29.1694 18.2066 29.1694 18.8664V26.8379C29.1694 27.4978 28.6388 28.0335 27.9852 28.0335H8.24378C8.11025 28.0335 7.97672 28.0441 7.85022 28.0618V18.8664C7.85022 18.2066 8.38083 17.6709 9.03442 17.6709H27.9852ZM27.9852 16.4753H9.03442C7.72723 16.4753 6.66602 17.5467 6.66602 18.8664V30.8254C6.66602 29.9456 7.37232 29.2325 8.24378 29.2325H27.9852C29.2924 29.2325 30.3536 28.1612 30.3536 26.8415V18.87C30.3536 17.5503 29.2924 16.4789 27.9852 16.4789V16.4753Z" fill="#323232"/>
<path d="M8.24378 32.4204C7.37232 32.4204 6.66602 31.7073 6.66602 30.8275C6.66602 29.9477 7.37232 29.2346 8.24378 29.2346H9.82155V32.4239H8.24378V32.4204Z" fill="#323232"/>
<path d="M11.7646 20.8463C11.7646 20.6086 11.9509 20.3496 12.2496 20.3496H13.8906C14.8148 20.3496 15.6476 20.974 15.6476 22.1731C15.6476 23.3083 14.8148 23.9398 13.8906 23.9398H12.7029V24.887C12.7029 25.2027 12.5026 25.3837 12.2496 25.3837C12.0141 25.3837 11.7646 25.2063 11.7646 24.887V20.8463ZM12.7064 21.2578V23.0458H13.8941C14.372 23.0458 14.748 22.6236 14.748 22.1766C14.748 21.6729 14.3685 21.2578 13.8941 21.2578H12.7064Z" fill="#323232"/>
<path d="M16.8914 25.3833C16.6559 25.3833 16.3994 25.2556 16.3994 24.9398V20.8636C16.3994 20.6046 16.6559 20.4202 16.8914 20.4202H18.5183C21.7687 20.4202 21.6985 25.3868 18.5816 25.3868H16.8914V25.3833ZM17.3376 21.2929V24.507H18.5183C20.437 24.507 20.5248 21.2929 18.5183 21.2929H17.3376Z" fill="#323232"/>
<path d="M22.6896 21.3496V22.492H24.5028C24.7593 22.492 25.0158 22.7509 25.0158 23.0028C25.0158 23.2405 24.7593 23.4321 24.5028 23.4321H22.6896V24.9398C22.6896 25.1917 22.5139 25.3833 22.2609 25.3833C21.9482 25.3833 21.7549 25.1882 21.7549 24.9398V20.8636C21.7549 20.6046 21.9446 20.4202 22.2609 20.4202H24.7558C25.0685 20.4202 25.2548 20.6046 25.2548 20.8636C25.2548 21.0942 25.0685 21.3532 24.7558 21.3532H22.6861L22.6896 21.3496Z" fill="#323232"/>
</svg>
