<svg width="40" height="40" viewBox="0 0 40 40" fill="none" xmlns="http://www.w3.org/2000/svg">
<path d="M29.6924 13.703C30.1188 13.6877 30.5379 13.5883 30.9258 13.4105C31.3136 13.2327 31.6625 12.98 31.9524 12.667C32.2528 12.3626 32.4898 12.0016 32.6494 11.6048C32.8091 11.2081 32.8883 10.7836 32.8824 10.356C32.8765 10.7836 32.9557 11.2081 33.1153 11.6048C33.275 12.0016 33.5119 12.3626 33.8124 12.667C34.4021 13.2985 35.2179 13.671 36.0814 13.703C35.5088 13.7252 34.9522 13.8976 34.4674 14.203C33.9832 14.5048 33.5832 14.9241 33.3044 15.422C33.0233 15.9233 32.8776 16.4892 32.8814 17.064C32.8794 16.2025 32.5479 15.3745 31.955 14.7496C31.362 14.1246 30.5525 13.7502 29.6924 13.703Z" fill="#33302B"/>
<path d="M20.3427 34.9766C15.9341 34.9766 11.7958 34.4684 8.69019 33.5454C5.85485 32.7028 4.16211 31.5716 4.16211 30.5194C4.16211 29.7789 4.99513 29.1326 5.69394 28.7208C6.77531 28.0837 8.37154 27.5133 10.3101 27.0713L10.5598 27.0144L10.6595 26.7784L18.5254 8.16002C19.0011 7.034 20.0269 6.63281 20.8283 6.63281C21.6296 6.63281 22.6554 7.034 23.1311 8.16001L31.111 27.0483L31.2058 27.2727L31.4409 27.3364C33.0661 27.7763 34.3929 28.3169 35.2779 28.8995C35.8456 29.2733 36.5224 29.8577 36.5224 30.5194C36.5224 31.5716 34.8298 32.7028 31.9948 33.5454C28.8894 34.4684 24.7513 34.9766 20.3427 34.9766Z" fill="white"/>
<path d="M20.3427 34.4766C24.7044 34.4766 28.7919 33.9757 31.8523 33.0661C35.1441 32.0878 36.0224 31.005 36.0224 30.5194C36.0224 29.8332 34.5478 28.6955 31.3103 27.819L30.84 27.6917L22.6705 8.3546C22.3473 7.58956 21.6586 7.13282 20.8283 7.13282C19.9979 7.13282 19.3092 7.58956 18.986 8.35461L10.9207 27.445L10.4212 27.5588C8.53224 27.9895 6.98534 28.5403 5.94777 29.1516C5.14273 29.6259 4.66211 30.1373 4.66211 30.5194C4.66211 31.005 5.54048 32.0878 8.83263 33.0661C11.8933 33.9757 15.981 34.4766 20.3427 34.4766ZM20.3427 35.4766C11.1303 35.4766 3.66211 33.2572 3.66211 30.5194C3.66211 28.9158 6.22453 27.4899 10.1989 26.5839L18.0648 7.96544C19.0971 5.52194 22.5594 5.52194 23.5917 7.96544L31.5716 26.8537C34.9205 27.7604 37.0224 29.067 37.0224 30.5194C37.0224 33.2572 29.5551 35.4766 20.3427 35.4766Z" fill="#323232"/>
<mask id="mask0_812_25420" style="mask-type:luminance" maskUnits="userSpaceOnUse" x="3" y="6" width="35" height="30">
<path d="M3.66211 30.5191C3.66211 28.9191 6.22411 27.4901 10.1991 26.5831L18.0621 7.96506C18.2916 7.4218 18.6762 6.95824 19.1677 6.63232C19.6592 6.30639 20.2359 6.13257 20.8256 6.13257C21.4154 6.13257 21.992 6.30639 22.4835 6.63232C22.9751 6.95824 23.3596 7.4218 23.5891 7.96506L31.5691 26.8531C34.9181 27.7601 37.0201 29.0661 37.0201 30.5191C37.0201 33.2571 29.5531 35.4761 20.3401 35.4761C11.1271 35.4761 3.66211 33.2571 3.66211 30.5191Z" fill="white"/>
</mask>
<g mask="url(#mask0_812_25420)">
<path d="M12.4579 23.2839L21.0479 25.9119L18.9649 27.6429H7.58691L12.4579 23.2839Z" stroke="#323232"/>
<path d="M28.9318 23.2839L20.3418 25.9119L22.4248 27.6429H33.8028L28.9318 23.2839Z" stroke="#323232"/>
</g>
<path d="M22.6677 29.7452C22.6677 29.7452 22.6678 29.7452 22.6677 29.7452C22.5179 29.7452 22.3684 29.7081 22.2355 29.638L20.7823 28.8622L19.3313 29.6369C19.1968 29.7079 19.0477 29.7448 18.8981 29.7448C18.7038 29.7448 18.5178 29.685 18.3601 29.5719C18.0771 29.369 17.9314 29.0157 17.9887 28.6719L18.269 27.0116L17.0838 25.8389C16.8358 25.5938 16.7483 25.2341 16.8557 24.9005C16.9632 24.5663 17.2466 24.3262 17.5953 24.2739L19.2229 24.0336L19.9527 22.532C20.1099 22.2117 20.427 22.0139 20.781 22.0139C21.1326 22.0139 21.458 22.2179 21.6101 22.5335L22.3391 24.0336L23.9669 24.2737C24.3137 24.3258 24.5967 24.5644 24.7065 24.8968C24.8151 25.2255 24.726 25.5954 24.4794 25.8391L23.2945 27.0115L23.5758 28.6706C23.6338 29.0185 23.4925 29.3626 23.2073 29.57C23.0497 29.6846 22.8631 29.7452 22.6677 29.7452Z" fill="#FFE591"/>
<path d="M20.7813 22.5139C20.6196 22.5139 20.4737 22.6059 20.4027 22.7505L19.5575 24.4897L17.6698 24.7684C17.512 24.792 17.3806 24.9025 17.3319 25.0536C17.2833 25.2048 17.3227 25.3718 17.4358 25.4835L18.8055 26.8388L18.4822 28.7541C18.4559 28.9119 18.5216 29.0723 18.6517 29.1656C18.7819 29.2589 18.9541 29.2708 19.0961 29.1958L20.7826 28.2954L22.4692 29.1958C22.6112 29.2708 22.7834 29.2602 22.9135 29.1656C23.0437 29.0709 23.1094 28.9119 23.0831 28.7541L22.7584 26.8388L24.1282 25.4835C24.2412 25.3718 24.282 25.2048 24.232 25.0536C24.1821 24.9025 24.0519 24.792 23.8942 24.7684L22.0052 24.4897L21.1599 22.7505C21.0902 22.6059 20.943 22.5139 20.7813 22.5139ZM20.7813 21.5139C21.3237 21.5139 21.8259 21.8289 22.0608 22.3165L22.6737 23.5775L24.0402 23.7791C24.5758 23.8594 25.0122 24.2275 25.1816 24.7399C25.3519 25.2553 25.2176 25.8128 24.8312 26.1947L23.8312 27.1841L24.069 28.587C24.1586 29.1243 23.941 29.6548 23.5017 29.9743C23.258 30.1515 22.9697 30.2452 22.668 30.2452C22.4372 30.2452 22.207 30.1882 22.0025 30.0802L20.7826 29.429L19.567 30.078C19.3588 30.1879 19.1291 30.2448 18.8984 30.2448C18.5989 30.2448 18.3121 30.1526 18.069 29.9782C17.6324 29.6651 17.4074 29.1201 17.4958 28.5897L17.733 27.1844L16.7324 26.1944C16.3497 25.8161 16.2145 25.2615 16.38 24.7474C16.5461 24.231 16.9835 23.8601 17.5214 23.7794L18.8889 23.5776L19.5033 22.3134C19.7461 21.8189 20.2351 21.5139 20.7813 21.5139Z" fill="#323232"/>
<path d="M2 19.857C2.42638 19.8417 2.84554 19.7423 3.23339 19.5646C3.62124 19.3868 3.97013 19.1341 4.26 18.821C4.56046 18.5167 4.79741 18.1556 4.95707 17.7589C5.11672 17.3622 5.1959 16.9376 5.19 16.51C5.1841 16.9376 5.26328 17.3622 5.42293 17.7589C5.58259 18.1556 5.81954 18.5167 6.12 18.821C6.70974 19.4526 7.52549 19.825 8.389 19.857C7.81645 19.8792 7.25983 20.0517 6.775 20.357C6.29082 20.6589 5.89077 21.0782 5.612 21.576C5.33095 22.0774 5.18518 22.6432 5.189 23.218C5.18698 22.3566 4.85553 21.5285 4.26259 20.9036C3.66966 20.2787 2.86015 19.9042 2 19.857Z" fill="#33302B"/>
<path d="M28.2061 5.36792H30.9411" stroke="#323232" stroke-linecap="round"/>
<path d="M29.5742 4V6.735" stroke="#323232" stroke-linecap="round"/>
</svg>
