<svg width="40" height="40" viewBox="0 0 40 40" fill="none" xmlns="http://www.w3.org/2000/svg">
<path d="M32.6631 9.00391C34.2484 9.08404 35.5088 10.3948 35.5088 12V28H37.96L38.0615 28.0049C38.566 28.0559 38.96 28.4821 38.96 29V29.4512L38.9492 29.6553C38.8537 30.5966 38.1054 31.3449 37.1641 31.4404L36.96 31.4512H3L2.7959 31.4404C1.85443 31.345 1.10632 30.5967 1.01074 29.6553L1 29.4512V29C1 28.4477 1.44772 28 2 28H4.45117V12C4.45117 10.3949 5.71173 9.08421 7.29688 9.00391L7.45117 9H32.5088L32.6631 9.00391ZM7.45117 10.7998C6.78843 10.7998 6.25098 11.3373 6.25098 12V27.9053H33.709V12C33.709 11.3787 33.2369 10.8681 32.6318 10.8066L32.5088 10.7998H7.45117ZM24.5029 15.2832C24.8164 14.9519 25.337 14.9051 25.7061 15.1895C26.0751 15.4738 26.1621 15.9884 25.9219 16.376L25.8701 16.4521L20.083 23.9639C19.848 24.2689 19.4564 24.3802 19.1084 24.2744C19.1012 24.2722 19.0941 24.2699 19.0869 24.2676C19.0168 24.2443 18.9483 24.2134 18.8838 24.1719C18.8738 24.1655 18.8643 24.1582 18.8545 24.1514C18.8433 24.1435 18.8312 24.1363 18.8203 24.1279C18.7441 24.0692 18.6807 24 18.6289 23.9248L15.791 19.8691C15.5065 19.4619 15.6057 18.9001 16.0127 18.6152C16.4199 18.3304 16.9816 18.4299 17.2666 18.8369L19.4053 21.8936L24.4434 15.3525L24.5029 15.2832Z" fill="#191919"/>
</svg>
