<svg width="40" height="40" viewBox="0 0 24 24" fill="none" xmlns="http://www.w3.org/2000/svg">
  <path fill-rule="evenodd" clip-rule="evenodd" d="M11.9994 8.09946C9.84553 8.09946 8.09944 9.84555 8.09944 11.9995C8.09944 14.1534 9.84553 15.8995 11.9994 15.8995C14.1534 15.8995 15.8994 14.1534 15.8994 11.9995C15.8994 9.84555 14.1534 8.09946 11.9994 8.09946ZM9.89944 11.9995C9.89944 10.8397 10.8396 9.89946 11.9994 9.89946C13.1592 9.89946 14.0994 10.8397 14.0994 11.9995C14.0994 13.1593 13.1592 14.0995 11.9994 14.0995C10.8396 14.0995 9.89944 13.1593 9.89944 11.9995Z" fill="#969696"/>
  <path fill-rule="evenodd" clip-rule="evenodd" d="M11.9995 19.399C16.5557 19.399 20.459 16.6035 22.0878 12.6342C22.2547 12.2275 22.2547 11.7711 22.0878 11.3644C20.459 7.39508 16.5557 4.59961 11.9995 4.59961C7.44333 4.59961 3.54004 7.39508 1.91128 11.3644C1.74442 11.7711 1.74442 12.2275 1.91128 12.6342C3.54004 16.6035 7.44333 19.399 11.9995 19.399ZM3.59709 11.9993C4.96855 8.71093 8.21413 6.39961 11.9995 6.39961C15.785 6.39961 19.0305 8.71093 20.402 11.9993C19.0305 15.2877 15.785 17.599 11.9995 17.599C8.21413 17.599 4.96855 15.2877 3.59709 11.9993Z" fill="#969696"/>
</svg>