<svg width="40" height="40" viewBox="0 0 40 40" fill="none" xmlns="http://www.w3.org/2000/svg">
<path d="M28.9464 26.7153C28.1248 25.8082 26.7234 25.7389 25.8163 26.5605C24.9092 27.3821 24.8399 28.7834 25.6614 29.6905L28.5185 32.845C29.3401 33.7521 30.7415 33.8214 31.6486 32.9998C32.5557 32.1783 32.625 30.7769 31.8034 29.8698L28.9464 26.7153Z" fill="#FFD139" stroke="#323232" stroke-miterlimit="10"/>
<path d="M18.702 29.544C25.1648 29.544 30.404 24.2735 30.404 17.772C30.404 11.2705 25.1648 6 18.702 6C12.2392 6 7 11.2705 7 17.772C7 24.2735 12.2392 29.544 18.702 29.544Z" fill="white" stroke="#323232" stroke-miterlimit="10"/>
<path d="M18.4882 9.46997C18.5822 9.46997 18.6762 9.46997 18.7712 9.46997C20.744 9.47029 22.6523 10.1728 24.1544 11.4517C25.6565 12.7306 26.6544 14.5024 26.9693 16.4499C27.2843 18.3974 26.8958 20.3934 25.8734 22.0806C24.851 23.7678 23.2615 25.0359 21.3893 25.6581C19.5172 26.2802 17.4848 26.2158 15.6559 25.4761C13.827 24.7365 12.321 23.3701 11.4077 21.6215C10.4943 19.8728 10.2332 17.8562 10.671 15.9326C11.1088 14.009 12.2171 12.3041 13.7972 11.123" stroke="#323232" stroke-linecap="round" stroke-linejoin="round"/>
<path d="M18.6133 13.9431V19.0001" stroke="#323232" stroke-linecap="round" stroke-linejoin="round"/>
<path d="M18.6128 22.0139C19.0618 22.0139 19.4258 21.6499 19.4258 21.2009C19.4258 20.7519 19.0618 20.3879 18.6128 20.3879C18.1638 20.3879 17.7998 20.7519 17.7998 21.2009C17.7998 21.6499 18.1638 22.0139 18.6128 22.0139Z" fill="#323232"/>
</svg>
