<svg width="40" height="40" viewBox="0 0 40 40" fill="none" xmlns="http://www.w3.org/2000/svg">
<path d="M28 14.6699C31.625 14.6899 33.5883 14.8516 34.8683 16.1316C36.3333 17.5966 36.3333 19.9533 36.3333 24.6666V26.3333C36.3333 31.0483 36.3333 33.4049 34.8683 34.8699C33.405 36.3333 31.0467 36.3333 26.3333 36.3333H13C8.28667 36.3333 5.92833 36.3333 4.465 34.8699C3 33.4033 3 31.0483 3 26.3333V24.6666C3 19.9533 3 17.5966 4.465 16.1316C5.745 14.8516 7.70833 14.6899 11.3333 14.6699" stroke="#AFAFAF" stroke-width="2" stroke-linecap="round"/>
<g clip-path="url(#clip0_1753_24822)">
<path d="M11.0793 28.8941C10.2491 28.8941 10 28.6104 10 27.8513V23.6734C10 23.2311 10.3458 23 10.7197 23C11.0936 23 11.4395 23.2311 11.4395 23.6734V27.5478C11.4395 27.7064 11.4809 27.7393 11.6402 27.7393H13.1764C13.5848 27.7393 13.7368 28.0362 13.7368 28.3068C13.7368 28.5774 13.5774 28.8941 13.1764 28.8941H11.0793Z" fill="#AFAFAF"/>
<path d="M14.0475 25.0132C14.0475 23.4951 15.3277 23 16.3656 23C17.4035 23 18.6836 23.4951 18.6836 25.0132V26.9868C18.6836 28.5049 17.3828 29 16.3656 29C15.3484 29 14.0475 28.5049 14.0475 26.9868V25.0132ZM17.2718 24.9736C17.2718 24.3929 16.8702 24.1289 16.3656 24.1289C15.8609 24.1289 15.4594 24.3929 15.4594 24.9736V27.0264C15.4594 27.5544 15.8604 27.8711 16.3656 27.8711C16.8707 27.8711 17.2718 27.5544 17.2718 27.0264V24.9736Z" fill="#AFAFAF"/>
<path d="M23.8105 27.1252C23.8105 28.465 22.8209 28.9995 21.638 28.9995C20.455 28.9995 19.2371 28.4386 19.2371 26.993V25.0061C19.2371 23.5473 20.4407 22.9995 21.6587 22.9995C22.295 22.9995 22.8554 23.1384 23.1258 23.3228C23.4094 23.5144 23.548 23.8311 23.3818 24.1082C23.2432 24.3393 22.9871 24.4315 22.7523 24.392C22.593 24.3657 22.4756 24.2932 22.372 24.2532C22.2057 24.1939 21.9635 24.1675 21.6592 24.1675C21.1747 24.1675 20.6489 24.4579 20.6489 25.0654V26.9332C20.6489 27.5402 21.1402 27.8311 21.6385 27.8311C22.1091 27.8311 22.5446 27.6132 22.5446 27.1445V26.7882C22.5446 26.656 22.517 26.6362 22.3853 26.6362H22.1569C21.7559 26.6362 21.6034 26.3459 21.6034 26.0819C21.6034 25.8179 21.7628 25.5078 22.1569 25.5078H22.7864C23.6028 25.5078 23.8105 25.752 23.8105 26.4913V27.1247V27.1252Z" fill="#AFAFAF"/>
<path d="M24.364 25.0132C24.364 23.4951 25.6441 23 26.682 23C27.7199 23 29 23.4951 29 25.0132V26.9868C29 28.5049 27.6992 29 26.682 29C25.6648 29 24.364 28.5049 24.364 26.9868V25.0132ZM27.5882 24.9736C27.5882 24.3929 27.1871 24.1289 26.682 24.1289C26.1768 24.1289 25.7758 24.3929 25.7758 24.9736V27.0264C25.7758 27.5544 26.1768 27.8711 26.682 27.8711C27.1871 27.8711 27.5882 27.5544 27.5882 27.0264V24.9736Z" fill="#AFAFAF"/>
</g>
<path d="M20 19V3M20 3L25 8.83333M20 3L15 8.83333" stroke="#AFAFAF" stroke-width="2" stroke-linecap="round" stroke-linejoin="round"/>
<defs>
<clipPath id="clip0_1753_24822">
<rect width="19" height="6" fill="white" transform="translate(10 23)"/>
</clipPath>
</defs>
</svg>
