<svg width="40" height="40" viewBox="0 0 40 40" fill="none" xmlns="http://www.w3.org/2000/svg">
<path d="M6 11.9524H30.2381C31.8949 11.9524 33.2381 13.2955 33.2381 14.9524V30C33.2381 31.6569 31.8949 33 30.2381 33H9C7.34315 33 6 31.6569 6 30V11.9524Z" fill="white" stroke="#323232"/>
<path d="M6 9C6 7.89543 6.89543 7 8 7H18.2381C19.3427 7 20.2381 7.89543 20.2381 9V11.9524H6V9Z" fill="#FFD139" stroke="#323232"/>
<path d="M15.166 23.7142C15.166 23.438 14.9422 23.2142 14.666 23.2142C14.3899 23.2142 14.166 23.438 14.166 23.7142H15.166ZM14.666 24.488H14.166H14.666ZM25.0708 23.7142C25.0708 23.438 24.8469 23.2142 24.5708 23.2142C24.2946 23.2142 24.0708 23.438 24.0708 23.7142H25.0708ZM19.9726 17.8772C20.1678 17.682 20.1678 17.3654 19.9726 17.1701C19.7773 16.9749 19.4607 16.9749 19.2654 17.1701L19.9726 17.8772ZM16.1702 20.2654C15.9749 20.4606 15.9749 20.7772 16.1702 20.9725C16.3655 21.1677 16.6821 21.1677 16.8773 20.9725L16.1702 20.2654ZM19.9726 17.1701C19.7773 16.9749 19.4607 16.9749 19.2654 17.1701C19.0702 17.3654 19.0702 17.682 19.2654 17.8772L19.9726 17.1701ZM22.3607 20.9725C22.5559 21.1677 22.8725 21.1677 23.0678 20.9725C23.2631 20.7772 23.2631 20.4606 23.0678 20.2654L22.3607 20.9725ZM20.119 17.5237C20.119 17.2475 19.8951 17.0237 19.619 17.0237C19.3429 17.0237 19.119 17.2475 19.119 17.5237H20.119ZM19.119 23.7142C19.119 23.9903 19.3429 24.2142 19.619 24.2142C19.8951 24.2142 20.119 23.9903 20.119 23.7142H19.119ZM14.666 23.7142H14.166V24.488H14.666H15.166V23.7142H14.666ZM14.666 24.488H14.166C14.166 26.0031 15.2989 27.3094 16.7885 27.3094V26.8094V26.3094C15.9336 26.3094 15.166 25.537 15.166 24.488H14.666ZM16.7885 26.8094V27.3094H22.4483V26.8094V26.3094H16.7885V26.8094ZM22.4483 26.8094V27.3094C23.9379 27.3094 25.0708 26.0031 25.0708 24.488H24.5708H24.0708C24.0708 25.537 23.3032 26.3094 22.4483 26.3094V26.8094ZM24.5708 24.488H25.0708V23.7142H24.5708H24.0708V24.488H24.5708ZM19.619 17.5237L19.2654 17.1701L16.1702 20.2654L16.5238 20.6189L16.8773 20.9725L19.9726 17.8772L19.619 17.5237ZM19.619 17.5237L19.2654 17.8772L22.3607 20.9725L22.7142 20.6189L23.0678 20.2654L19.9726 17.1701L19.619 17.5237ZM19.619 17.5237H19.119V23.7142H19.619H20.119V17.5237H19.619Z" fill="#323232"/>
</svg>
