<svg width="40" height="40" viewBox="0 0 40 40" fill="none" xmlns="http://www.w3.org/2000/svg">
<path d="M19.9996 4.99805C21.2409 4.99805 22.4543 5.36613 23.4864 6.05574C24.5185 6.74536 25.3229 7.72554 25.7979 8.87233C26.2729 10.0191 26.3972 11.281 26.155 12.4984C25.9129 13.7159 25.3151 14.8341 24.4374 15.7118C23.5597 16.5896 22.4414 17.1873 21.224 17.4295C20.0066 17.6716 18.7447 17.5473 17.5979 17.0723C16.4511 16.5973 15.4709 15.7929 14.7813 14.7608C14.0917 13.7287 13.7236 12.5153 13.7236 11.274C13.7255 9.61012 14.3873 8.01487 15.5639 6.83829C16.7405 5.66171 18.3357 4.9999 19.9996 4.99805ZM19.9996 15.549C20.8454 15.549 21.6721 15.2982 22.3754 14.8283C23.0786 14.3584 23.6266 13.6906 23.9502 12.9092C24.2738 12.1278 24.3585 11.268 24.1934 10.4385C24.0283 9.60898 23.621 8.84707 23.0229 8.2491C22.4248 7.65114 21.6628 7.24396 20.8332 7.07909C20.0037 6.91421 19.1439 6.99903 18.3626 7.32282C17.5813 7.64662 16.9135 8.19484 16.4438 8.89816C15.974 9.60147 15.7234 10.4283 15.7236 11.274C15.725 12.4076 16.1759 13.4944 16.9776 14.2958C17.7792 15.0973 18.8661 15.548 19.9996 15.549Z" fill="#191919"/>
<path d="M19.9923 32.7791C17.7803 32.7791 10.3923 32.6271 8.19229 30.6711C7.41201 29.9337 6.87231 28.978 6.64377 27.929C6.41523 26.8799 6.50848 25.7863 6.91129 24.7911C7.68083 22.9588 9.13337 21.498 10.9613 20.7181C16.7778 18.4709 23.2228 18.4709 29.0393 20.7181C30.8651 21.497 32.3157 22.9565 33.0833 24.7871C33.486 25.7844 33.5782 26.8801 33.3478 27.9307C33.1175 28.9812 32.5753 29.9378 31.7923 30.6751C29.5923 32.6261 22.2093 32.7791 19.9923 32.7791ZM20.0063 21.0311C17.2083 20.9134 14.4192 21.42 11.8413 22.5141C10.4796 23.0857 9.38615 24.1535 8.78229 25.5011C8.52733 26.1181 8.46165 26.797 8.5936 27.4514C8.72555 28.1058 9.04917 28.7062 9.52329 29.1761C10.4233 29.9761 14.3023 30.7761 19.9923 30.7761C25.6823 30.7761 29.5693 29.9701 30.4673 29.1761C30.9434 28.706 31.2688 28.1048 31.402 27.449C31.5352 26.7933 31.4702 26.1128 31.2153 25.4941C30.7103 24.1521 28.5983 21.0311 20.0113 21.0311H20.0063Z" fill="#191919"/>
<path d="M32.8004 25.4011H23.2004C20.5494 25.4011 18.4004 27.5502 18.4004 30.2011C18.4004 32.8521 20.5494 35.0011 23.2004 35.0011H32.8004C35.4514 35.0011 37.6004 32.8521 37.6004 30.2011C37.6004 27.5502 35.4514 25.4011 32.8004 25.4011Z" fill="#191919"/>
<path d="M27.9649 32.111C27.968 32.1739 27.958 32.2367 27.9356 32.2956C27.9133 32.3544 27.879 32.408 27.8349 32.453C27.7894 32.4968 27.7354 32.5308 27.6762 32.553C27.6171 32.5752 27.554 32.585 27.4909 32.582C27.4288 32.5846 27.3668 32.5747 27.3085 32.5529C27.2503 32.5311 27.197 32.4978 27.1519 32.455C27.1079 32.41 27.0736 32.3564 27.0512 32.2976C27.0288 32.2387 27.0189 32.1759 27.0219 32.113V30.047L26.2149 31.675C26.1654 31.7784 26.0904 31.8676 25.9969 31.934C25.9053 31.9971 25.7962 32.03 25.6849 32.028C25.5691 32.0319 25.4549 31.999 25.3589 31.934C25.2669 31.8669 25.193 31.7778 25.1439 31.675L24.3389 30.047V32.111C24.342 32.1739 24.332 32.2367 24.3096 32.2956C24.2873 32.3544 24.253 32.408 24.2089 32.453C24.1638 32.4958 24.1106 32.5291 24.0523 32.5509C23.9941 32.5727 23.9321 32.5826 23.8699 32.58C23.8078 32.5826 23.7458 32.5727 23.6875 32.5509C23.6293 32.5291 23.576 32.4958 23.5309 32.453C23.4869 32.408 23.4526 32.3544 23.4302 32.2956C23.4078 32.2367 23.3979 32.1739 23.4009 32.111V28.292C23.3979 28.2291 23.4078 28.1663 23.4302 28.1074C23.4526 28.0486 23.4869 27.995 23.5309 27.95C23.576 27.9072 23.6293 27.8739 23.6875 27.8521C23.7458 27.8303 23.8078 27.8204 23.8699 27.823C23.9735 27.8208 24.0747 27.854 24.1569 27.917C24.2383 27.9802 24.3012 28.0641 24.3389 28.16L25.6859 30.792L27.0209 28.16C27.0682 28.0699 27.1308 27.9887 27.2059 27.92C27.2864 27.8511 27.3901 27.8154 27.4959 27.82C27.5581 27.8174 27.6201 27.8273 27.6783 27.8491C27.7366 27.8709 27.7898 27.9042 27.8349 27.947C27.879 27.992 27.9133 28.0456 27.9356 28.1044C27.958 28.1633 27.968 28.2261 27.9649 28.289V32.111ZM31.0279 30.611V32.111C31.0308 32.175 31.0195 32.2389 30.9948 32.298C30.9701 32.3572 30.9325 32.4101 30.8849 32.453C30.7875 32.5383 30.6614 32.5836 30.5319 32.58C30.4025 32.5836 30.2764 32.5383 30.1789 32.453C30.1313 32.4101 30.0938 32.3572 30.0691 32.298C30.0444 32.2389 30.033 32.175 30.0359 32.111V30.611L28.5739 28.611C28.4941 28.5103 28.4555 28.3831 28.4659 28.255C28.4805 28.1321 28.543 28.02 28.6399 27.943C28.6927 27.9 28.7536 27.868 28.8189 27.849C28.8805 27.8307 28.9451 27.8249 29.0089 27.832C29.0731 27.84 29.1349 27.8607 29.1909 27.893C29.2495 27.9258 29.3003 27.9708 29.3399 28.025L30.5299 29.688L31.7219 28.033C31.7609 27.9793 31.8106 27.9344 31.8679 27.901C31.9237 27.8682 31.9857 27.8474 32.0499 27.84C32.1148 27.8328 32.1804 27.8386 32.2429 27.857C32.3083 27.876 32.3691 27.908 32.4219 27.951C32.5188 28.028 32.5814 28.1401 32.5959 28.263C32.6069 28.3903 32.5694 28.5171 32.4909 28.618L31.0279 30.611Z" fill="white"/>
</svg>
