<svg width="40" height="40" viewBox="0 0 40 40" fill="none" xmlns="http://www.w3.org/2000/svg">
<path d="M22.0811 12.0754H29.2715" stroke="#323232" stroke-width="1.73913" stroke-linecap="round"/>
<path d="M22.0811 17.4685H29.2715" stroke="#323232" stroke-width="1.73913" stroke-linecap="round"/>
<path d="M22.0811 22.8616H29.2715" stroke="#323232" stroke-width="1.73913" stroke-linecap="round"/>
<path d="M28.672 6.5586H7.51549C7.09994 6.55814 6.68838 6.63952 6.30428 6.79812C5.92019 6.95672 5.57109 7.18947 5.27693 7.48299C4.98277 7.7765 4.7493 8.12506 4.58986 8.5088C4.43041 8.89254 4.34811 9.30393 4.34766 9.71947V35.6325C4.348 36.0481 4.43023 36.4596 4.58962 36.8434C4.74902 37.2273 4.98247 37.576 5.27664 37.8696C5.57081 38.1632 5.91992 38.396 6.30407 38.5547C6.68822 38.7133 7.09987 38.7947 7.51549 38.7942H28.672C29.5113 38.7949 30.3166 38.4622 30.9106 37.8693C31.5047 37.2764 31.8389 36.4718 31.8398 35.6325V9.71947C31.8387 8.88031 31.5043 8.07593 30.9103 7.4832C30.3163 6.89047 29.5112 6.5579 28.672 6.5586Z" fill="white" stroke="#323232" stroke-linecap="round" stroke-linejoin="round"/>
<path d="M24.9316 31.2787L36.236 19.9744" stroke="#323232" stroke-linecap="round" stroke-linejoin="round"/>
<path d="M25.2059 7.50636V4.85594C25.2041 4.77791 25.1869 4.70096 25.1553 4.62958C25.1237 4.55821 25.0784 4.49381 25.0218 4.44C24.9653 4.3862 24.8987 4.34408 24.8258 4.31608C24.7529 4.28807 24.6753 4.27472 24.5972 4.2768H23.0842C23.0061 4.27888 22.9285 4.26553 22.8556 4.23753C22.7827 4.20952 22.7161 4.1674 22.6596 4.1136C22.603 4.05979 22.5577 3.9954 22.5261 3.92402C22.4945 3.85264 22.4773 3.77569 22.4755 3.69766V1.44811C22.4714 1.29073 22.405 1.1414 22.2908 1.03297C22.1767 0.924536 22.0242 0.865846 21.8668 0.869818H14.3137C14.1564 0.865846 14.0038 0.924536 13.8897 1.03297C13.7756 1.1414 13.7092 1.29073 13.7051 1.44811V3.69766C13.7033 3.77569 13.686 3.85264 13.6545 3.92402C13.6229 3.9954 13.5775 4.05979 13.5209 4.1136C13.4644 4.1674 13.3978 4.20952 13.3249 4.23753C13.2521 4.26553 13.1744 4.27888 13.0964 4.2768H11.5833C11.5053 4.27472 11.4276 4.28807 11.3548 4.31608C11.2819 4.34408 11.2153 4.3862 11.1587 4.44C11.1022 4.49381 11.0568 4.55821 11.0252 4.62958C10.9936 4.70096 10.9764 4.77791 10.9746 4.85594V7.50636" fill="#FFD139"/>
<path d="M25.2059 7.50636V4.85594C25.2041 4.77791 25.1869 4.70096 25.1553 4.62958C25.1237 4.55821 25.0784 4.49381 25.0218 4.44C24.9653 4.3862 24.8987 4.34408 24.8258 4.31608C24.7529 4.28807 24.6753 4.27472 24.5972 4.2768H23.0842C23.0061 4.27888 22.9285 4.26553 22.8556 4.23753C22.7827 4.20952 22.7161 4.1674 22.6596 4.1136C22.603 4.05979 22.5577 3.9954 22.5261 3.92402C22.4945 3.85264 22.4773 3.77569 22.4755 3.69766V1.44811C22.4714 1.29073 22.405 1.1414 22.2908 1.03297C22.1767 0.924536 22.0242 0.865846 21.8668 0.869818H14.3137C14.1564 0.865846 14.0038 0.924536 13.8897 1.03297C13.7756 1.1414 13.7092 1.29073 13.7051 1.44811V3.69766C13.7033 3.77569 13.686 3.85264 13.6545 3.92402C13.6229 3.9954 13.5775 4.05979 13.5209 4.1136C13.4644 4.1674 13.3978 4.20952 13.3249 4.23753C13.2521 4.26553 13.1744 4.27888 13.0964 4.2768H11.5833C11.5053 4.27472 11.4276 4.28807 11.3548 4.31608C11.2819 4.34408 11.2153 4.3862 11.1587 4.44C11.1022 4.49381 11.0568 4.55821 11.0252 4.62958C10.9936 4.70096 10.9764 4.77791 10.9746 4.85594V7.50636" stroke="#323232" stroke-linecap="round" stroke-linejoin="round"/>
<path d="M10.9844 6.55859V7.96553C11.0014 8.11063 11.0748 8.24326 11.1886 8.33482C11.3024 8.42638 11.4477 8.46959 11.5931 8.45514H24.6009C24.7463 8.46959 24.8915 8.42638 25.0053 8.33482C25.1192 8.24326 25.1925 8.11063 25.2096 7.96553V6.55859" fill="#FFD139"/>
<path d="M10.9844 6.55859V7.96553C11.0014 8.11063 11.0748 8.24326 11.1886 8.33482C11.3024 8.42638 11.4477 8.46959 11.5931 8.45514H24.6009C24.7463 8.46959 24.8915 8.42638 25.0053 8.33482C25.1192 8.24326 25.1925 8.11063 25.2096 7.96553V6.55859" stroke="#323232" stroke-linecap="round" stroke-linejoin="round"/>
<path d="M16.2354 23.4526H24.931" stroke="#323232" stroke-linecap="round" stroke-linejoin="round"/>
<path d="M16.2354 31.2786H24.931" stroke="#323232" stroke-linecap="round" stroke-linejoin="round"/>
<path d="M10.0361 22.8132L11.5527 24.5724L13.8283 21.728" stroke="#323232" stroke-linecap="round" stroke-linejoin="round"/>
<path d="M10.0361 30.3977L11.5527 32.1568L13.8283 29.3125" stroke="#323232" stroke-linecap="round" stroke-linejoin="round"/>
<path d="M8.27541 13.249H8.45652L9.57756 14.9108V16.3374H10.1642V17.3181H7.82617V16.3374H8.27541V13.249Z" fill="#03205C"/>
<path d="M18.6207 12.1738V13.7997H17.3029V13.1449H16.0845V14.16H17.5315V15.1385H16.0845V16.3377H17.3029V15.6551H18.6207V17.318H14.0283V16.3395H14.5098V13.1467H14.0283V12.1738H18.6207Z" fill="#03205C"/>
<path d="M21.5157 12.1738V13.1449H21.112V16.3377H22.0945V15.4033H23.3741V17.3161H19.1084V16.3377H19.5273V13.1449H19.1084V12.1738H21.5157Z" fill="#03205C"/>
<path d="M27.8249 14.0867H26.7053V13.1449H26.0654V16.3377H26.6976V17.3161H23.8648V16.3377H24.4892V13.1449H23.8344V14.0867H22.7148V12.1738H27.8257L27.8249 14.0867Z" fill="#03205C"/>
<path d="M11.5214 17.3165L8.60862 13.123H7.83496V12.1738H10.02L11.8858 14.874V13.123H11.3673V12.1738H13.6598V13.123H13.1584V17.3165H11.5214Z" fill="#E96D0A"/>
</svg>
