<svg width="40" height="40" viewBox="0 0 40 40" fill="none" xmlns="http://www.w3.org/2000/svg">
<path d="M20.0736 36.0594C19.8111 36.0596 19.5488 36.0419 19.2886 36.0064H19.2816C18.3022 35.8642 17.3762 35.4712 16.5936 34.8654C16.2168 34.6075 15.9031 34.2679 15.6758 33.872C15.4484 33.476 15.3134 33.0338 15.2806 32.5784V32.5264C15.2832 32.1431 15.3973 31.7687 15.6089 31.4491C15.8206 31.1295 16.1207 30.8784 16.4726 30.7264C15.5566 30.6724 14.6726 30.5974 13.8186 30.5004C12.1312 30.3462 10.5591 29.5779 9.40063 28.3414L9.37163 28.3094C8.47632 27.2643 7.98935 25.9305 8.00063 24.5544C7.92552 23.2216 8.35381 21.9093 9.20063 20.8774C9.59657 20.477 9.90295 19.9971 10.0995 19.4694C10.296 18.9417 10.3782 18.3783 10.3406 17.8164V17.2604C10.2555 15.2029 10.932 13.1863 12.2406 11.5964L12.2466 11.5894C13.1974 10.444 14.3936 9.52701 15.7466 8.90641C17.0922 8.27858 18.5578 7.94937 20.0426 7.94141H20.1596C21.6832 7.94327 23.1869 8.28721 24.5597 8.94785C25.9326 9.60849 27.1396 10.569 28.0916 11.7584C29.3287 13.3166 29.957 15.2713 29.8596 17.2584V17.8144C29.8273 18.3769 29.9121 18.94 30.1084 19.468C30.3048 19.9961 30.6086 20.4777 31.0006 20.8824C31.8464 21.9129 32.2747 23.2233 32.2006 24.5544C32.2133 25.9299 31.7281 27.2636 30.8346 28.3094L30.8006 28.3414C29.6375 29.5818 28.0584 30.3507 26.3646 30.5014C25.4846 30.5764 24.5756 30.6484 23.6486 30.7014C24.0106 30.8496 24.3207 31.1013 24.5401 31.4251C24.7594 31.7489 24.8783 32.1303 24.8816 32.5214V32.5734C24.8484 33.0286 24.7132 33.4705 24.4861 33.8663C24.259 34.2622 23.9458 34.6019 23.5696 34.8604C22.7864 35.465 21.8607 35.8576 20.8816 36.0004H20.8666C20.6038 36.037 20.3389 36.0567 20.0736 36.0594ZM19.5646 34.0254C19.9098 34.071 20.2595 34.071 20.6046 34.0254C21.2461 33.9305 21.8521 33.671 22.3636 33.2724L22.4076 33.2394C22.5271 33.1623 22.6301 33.0624 22.7107 32.9453C22.7914 32.8283 22.8481 32.6965 22.8776 32.5574C22.7646 32.4898 22.6408 32.4421 22.5116 32.4164C21.7036 32.3471 20.8925 32.32 20.0816 32.3354C19.2708 32.32 18.4597 32.347 17.6516 32.4164C17.5228 32.4422 17.3993 32.4898 17.2866 32.5574C17.316 32.696 17.3725 32.8274 17.453 32.9439C17.5335 33.0605 17.6364 33.1599 17.7556 33.2364L17.8046 33.2724C18.3159 33.6721 18.9225 33.9316 19.5646 34.0254ZM10.8746 26.9944C11.6964 27.8644 12.8085 28.403 14.0006 28.5084H14.0316C16.048 28.7292 18.0753 28.8347 20.1036 28.8244C22.1796 28.8244 24.2626 28.6714 26.2036 28.5054C27.3957 28.3991 28.5076 27.8602 29.3296 26.9904C29.903 26.308 30.2127 25.4427 30.2026 24.5514C30.2721 23.7062 30.0224 22.8656 29.5026 22.1954L29.4936 22.1844C28.9478 21.5989 28.523 20.9114 28.2436 20.1613C27.9643 19.4112 27.8358 18.6133 27.8656 17.8134V17.2604C27.9563 15.717 27.4758 14.1942 26.5156 12.9824C25.7464 12.0377 24.7775 11.2751 23.6786 10.7493C22.5796 10.2235 21.3779 9.94763 20.1596 9.94141H20.0426C18.853 9.94683 17.6787 10.2097 16.6003 10.7121C15.522 11.2144 14.5652 11.9442 13.7956 12.8514C12.7732 14.0855 12.2546 15.6603 12.3436 17.2604V17.8164C12.3793 18.62 12.2521 19.4225 11.9698 20.1757C11.6874 20.9289 11.2557 21.6173 10.7006 22.1994C10.1819 22.8697 9.93227 23.7096 10.0006 24.5544C9.99067 25.4461 10.3008 26.3118 10.8746 26.9944Z" fill="#191919"/>
<path d="M20.1006 5C20.7636 5 21.3995 5.26339 21.8684 5.73223C22.3372 6.20107 22.6006 6.83696 22.6006 7.5V10H17.6006V7.5C17.6006 6.83696 17.864 6.20107 18.3328 5.73223C18.8017 5.26339 19.4375 5 20.1006 5Z" fill="#191919"/>
</svg>
