<svg width="40" height="40" viewBox="0 0 40 40" fill="none" xmlns="http://www.w3.org/2000/svg">
<path d="M19.66 7.26203C21.9629 7.261 24.2172 7.92342 26.1534 9.17005C28.0897 10.4167 29.6257 12.1947 30.5779 14.2915C31.5301 16.3882 31.858 18.7149 31.5225 20.9932C31.187 23.2714 30.2022 25.4048 28.686 27.138L32.243 30.688C32.3549 30.7995 32.4437 30.932 32.5042 31.0778C32.5648 31.2237 32.596 31.3801 32.596 31.538C32.596 31.696 32.5648 31.8523 32.5042 31.9982C32.4437 32.1441 32.3549 32.2765 32.243 32.388C32.1316 32.4999 31.9991 32.5887 31.8532 32.6492C31.7074 32.7098 31.551 32.741 31.393 32.741C31.2351 32.741 31.0787 32.7098 30.9329 32.6492C30.787 32.5887 30.6545 32.4999 30.543 32.388L26.931 28.782C25.4174 29.937 23.6505 30.715 21.7764 31.0514C19.9024 31.3878 17.9752 31.2731 16.1544 30.7166C14.3335 30.1602 12.6714 29.1781 11.3055 27.8516C9.93962 26.5252 8.90932 24.8924 8.29986 23.0886C7.69041 21.2848 7.51933 19.3618 7.80078 17.4788C8.08224 15.5957 8.80813 13.8067 9.91839 12.26C11.0286 10.7132 12.4913 9.45312 14.1854 8.584C15.8794 7.71487 17.7561 7.26171 19.66 7.26203ZM19.66 28.843C21.5567 28.8428 23.4107 28.2802 24.9876 27.2264C26.5645 26.1726 27.7935 24.6748 28.5192 22.9225C29.245 21.1702 29.4348 19.242 29.0647 17.3819C28.6947 15.5217 27.7813 13.813 26.4402 12.4719C25.0991 11.1307 23.3904 10.2174 21.5302 9.84734C19.67 9.47728 17.7419 9.66711 15.9896 10.3928C14.2373 11.1185 12.7395 12.3476 11.6857 13.9245C10.6318 15.5014 10.0692 17.3554 10.069 19.252C10.0714 21.795 11.0827 24.2331 12.8808 26.0313C14.679 27.8294 17.1171 28.8406 19.66 28.843Z" fill="#191919"/>
</svg>
