<svg width="40" height="40" viewBox="0 0 40 40" fill="none" xmlns="http://www.w3.org/2000/svg">
<path d="M40 20C40 8.9543 31.0457 0 20 0C8.9543 0 0 8.9543 0 20C0 31.0457 8.9543 40 20 40C31.0457 40 40 31.0457 40 20Z" fill="white"/>
<path d="M39.5 20C39.5 9.23045 30.7696 0.5 20 0.5C9.23045 0.5 0.5 9.23045 0.5 20C0.5 30.7696 9.23045 39.5 20 39.5C30.7696 39.5 39.5 30.7696 39.5 20Z" stroke="#E1E1E1"/>
<path d="M28.6011 12.7299C28.6003 12.536 28.5227 12.3503 28.3853 12.2135C28.248 12.0767 28.062 11.9999 27.8681 11.9999L22.3451 12.0239C22.1507 12.0239 21.9642 12.1011 21.8268 12.2386C21.6893 12.376 21.6121 12.5625 21.6121 12.7569C21.6121 12.9513 21.6893 13.1377 21.8268 13.2752C21.9642 13.4126 22.1507 13.4899 22.3451 13.4899L26.0521 13.4739L19.3521 20.2589C19.2186 20.3978 19.1452 20.5837 19.1478 20.7763C19.1503 20.969 19.2286 21.1529 19.3656 21.2882C19.5027 21.4236 19.6876 21.4996 19.8803 21.4997C20.0729 21.4998 20.2579 21.4241 20.3951 21.2888L27.1401 14.4589L27.1571 18.4049C27.1579 18.5988 27.2355 18.7844 27.3729 18.9212C27.5102 19.0581 27.6962 19.1349 27.8901 19.1349C27.9864 19.1345 28.0816 19.1151 28.1704 19.0779C28.2592 19.0407 28.3397 18.9864 28.4075 18.9181C28.4753 18.8497 28.529 18.7687 28.5655 18.6796C28.6019 18.5905 28.6205 18.4951 28.6201 18.3989L28.6011 12.7299Z" fill="#969696"/>
<path d="M25.669 20.7298C25.4751 20.7298 25.2891 20.8066 25.1518 20.9435C25.0144 21.0803 24.9368 21.266 24.936 21.4598L24.914 27.1318H13.469V15.6988L19.233 15.7208C19.4274 15.7208 19.6138 15.6436 19.7513 15.5061C19.8888 15.3687 19.966 15.1822 19.966 14.9878C19.966 14.7934 19.8888 14.607 19.7513 14.4695C19.6138 14.332 19.4274 14.2548 19.233 14.2548L12.733 14.2308C12.5386 14.2308 12.3522 14.3081 12.2147 14.4455C12.0772 14.583 12 14.7694 12 14.9638V27.8638C12 28.0582 12.0772 28.2447 12.2147 28.3821C12.3522 28.5196 12.5386 28.5968 12.733 28.5968H25.633C25.8269 28.5968 26.0129 28.52 26.1502 28.3832C26.2876 28.2464 26.3652 28.0607 26.366 27.8668L26.39 21.4668C26.3911 21.2738 26.316 21.0881 26.181 20.9501C26.046 20.8121 25.862 20.733 25.669 20.7298Z" fill="#969696"/>
</svg>
