<svg width="215" height="213" viewBox="0 0 215 213" fill="none" xmlns="http://www.w3.org/2000/svg">
<circle cx="66" cy="163" r="50" fill="#FFCC24"/>
<mask id="mask0_1919_48833" style="mask-type:alpha" maskUnits="userSpaceOnUse" x="16" y="113" width="100" height="100">
<circle cx="66" cy="163" r="50" fill="#FFE591"/>
</mask>
<g mask="url(#mask0_1919_48833)">
<rect x="45.5781" y="195.344" width="39.0583" height="18.2554" rx="3.40213" fill="#FFCC24" stroke="#323232" stroke-width="2"/>
<path d="M65.5322 192.969C77.7673 192.969 87.6863 202.887 87.6865 215.122V226.507H43.3789V215.122C43.3792 202.887 53.2974 192.969 65.5322 192.969Z" fill="#FFF0BC" stroke="#323232" stroke-width="2"/>
<mask id="mask1_1919_48833" style="mask-type:alpha" maskUnits="userSpaceOnUse" x="50" y="192" width="8" height="36">
<path d="M56.0684 193.711V226.509H51.1172V193.711H56.0684Z" fill="#FEFFB8" stroke="black" stroke-width="2"/>
</mask>
<g mask="url(#mask1_1919_48833)">
<path d="M65.0146 191.586C70.9461 191.586 76.4649 195.418 80.5518 201.928C84.4942 208.207 87.0132 216.86 87.1768 226.493H42.8525C43.0161 216.86 45.5352 208.207 49.4775 201.928C53.5644 195.418 59.0832 191.586 65.0146 191.586Z" fill="#FFCC24" stroke="#323232" stroke-width="2"/>
</g>
<mask id="mask2_1919_48833" style="mask-type:alpha" maskUnits="userSpaceOnUse" x="72" y="192" width="8" height="36">
<path d="M73.959 193.711V226.509H78.9102V193.711H73.959Z" fill="#FEFFB8" stroke="black" stroke-width="2"/>
</mask>
<g mask="url(#mask2_1919_48833)">
<path d="M64.9717 191.531C59.0536 191.531 53.5449 195.369 49.4648 201.891C45.529 208.182 43.0136 216.852 42.8506 226.504H87.0928C86.9297 216.852 84.4154 208.182 80.4795 201.891C76.3994 195.369 70.89 191.531 64.9717 191.531Z" fill="#FFCC24" stroke="#323232" stroke-width="2"/>
</g>
<circle cx="34.1787" cy="167.241" r="5.56932" fill="#FFDCCE" stroke="#323232" stroke-width="2"/>
<circle cx="96.0381" cy="167.241" r="5.56932" fill="#FFDCCE" stroke="#323232" stroke-width="2"/>
<circle cx="65.1083" cy="162.878" r="31.8466" fill="#FEE8DD" stroke="#323232" stroke-width="2"/>
<path d="M64.4893 130.204C81.898 130.108 96.9331 143.01 98.9785 160.526C98.5757 160.378 98.1752 160.275 97.7822 160.197C97.3054 160.103 96.8216 160.042 96.3828 159.982C95.9313 159.921 95.5101 159.86 95.0908 159.764H95.0898C90.7539 158.773 87.5618 157.432 84.8594 155.423C82.1509 153.409 79.8689 150.678 77.4229 146.806C77.2693 146.562 77.1366 146.256 76.9668 145.858C76.8128 145.498 76.619 145.036 76.3633 144.645C76.1023 144.245 75.7009 143.797 75.0732 143.602C74.4374 143.404 73.7767 143.53 73.1348 143.834L72.9893 143.903L72.8721 144.016C63.5635 152.914 54.8258 155.011 43.2939 157.486C42.4726 157.663 40.8741 157.841 39.1465 158.079C38.3065 158.195 37.4531 158.323 36.7002 158.47C36.058 158.595 35.4334 158.742 34.9414 158.926L34.7393 159.007C34.3139 159.189 33.8646 159.353 33.3818 159.523C32.9075 159.691 32.3951 159.869 31.8896 160.069C31.5151 160.218 31.133 160.382 30.7529 160.574C33.0886 143.652 47.3948 130.414 64.4893 130.204Z" fill="#4B4B4B" stroke="#323232" stroke-width="2"/>
<ellipse cx="47.3168" cy="169.844" rx="7.93793" ry="3.96897" fill="#FFA3AE"/>
<ellipse cx="83.1762" cy="169.844" rx="7.93793" ry="3.96897" fill="#FFA3AE"/>
<path d="M62.2266 170.211C63.1921 171.246 64.3663 171.853 65.6328 171.853C66.8993 171.853 68.0735 171.246 69.0391 170.211" stroke="#323232" stroke-width="2" stroke-linecap="round"/>
<ellipse cx="68.9557" cy="166.423" rx="1.13542" ry="1.14958" fill="#323232"/>
<ellipse cx="62.4674" cy="166.423" rx="1.13542" ry="1.14958" fill="#323232"/>
<path d="M78.9922 225.36V198.438" stroke="#323232" stroke-width="2"/>
<path d="M56.3789 226.434V195.203" stroke="#323232" stroke-width="2"/>
<path d="M73.6094 226.434V195.203" stroke="#323232" stroke-width="2"/>
<path d="M50.9922 225.36V198.438" stroke="#323232" stroke-width="2"/>
</g>
<g filter="url(#filter0_d_1919_48833)">
<rect x="16" y="8" width="183" height="86" rx="5" fill="#323232"/>
<path d="M41.1123 35.5225C41.1196 37.3022 42.2988 39.0161 44.2764 39.7119L43.5146 40.7959C42.0864 40.2466 41.0098 39.1626 40.4458 37.8076C39.8818 39.3164 38.7612 40.5103 37.2158 41.1035L36.4688 40.0049C38.5122 39.2798 39.728 37.4561 39.7354 35.4785V33.9258H41.1123V35.5225ZM38.8564 45.9668V41.8213H40.2627V44.8389H47.7188V45.9668H38.8564ZM43.2656 37.2656V36.123H46.0342V33.1348H47.4258V42.9199H46.0342V37.2656H43.2656ZM52.8609 35.6396C52.8609 37.0752 53.7765 38.5254 55.483 39.1699L54.7506 40.2393C53.5274 39.7705 52.6705 38.877 52.2018 37.8003C51.7184 39.0161 50.8248 40.0708 49.5504 40.6201L48.7887 39.5361C50.5611 38.7671 51.5133 37.0972 51.5133 35.6396V33.9404H52.8609V35.6396ZM51.2057 43.8428C51.191 42.3486 52.8976 41.4624 55.6441 41.4551C58.3834 41.4624 60.1046 42.3486 60.1119 43.8428C60.1046 45.3369 58.3834 46.2231 55.6441 46.2158C52.8976 46.2231 51.191 45.3369 51.2057 43.8428ZM52.5826 43.8428C52.568 44.6777 53.7325 45.1611 55.6441 45.1465C57.5484 45.1611 58.713 44.6777 58.7203 43.8428C58.713 43.0005 57.5484 42.5171 55.6441 42.5244C53.7325 42.5171 52.568 43.0005 52.5826 43.8428ZM55.8932 40.7959V33.3691H57.1822V36.5479H58.7203V33.1348H60.0387V41.2061H58.7203V37.6904H57.1822V40.7959H55.8932ZM72.0803 33.1201V40.5322H70.7033V33.1201H72.0803ZM62.0168 39.6533V33.8818H63.4084V38.4814C65.5251 38.4668 67.3781 38.3203 69.3557 37.8955L69.5461 39.0527C67.3781 39.4922 65.4006 39.646 63.1008 39.6533H62.0168ZM63.4816 46.0693V41.1328H72.0803V46.0693H63.4816ZM64.8439 44.9561H70.718V42.2314H64.8439V44.9561ZM76.827 34.6729C76.8123 37.6099 76.4461 40.6567 74.615 43.2275L73.5311 42.6123C75.0618 40.5615 75.5232 38.2837 75.6185 35.8154H73.8387V34.6729H76.827ZM76.4754 43.3887C78.1746 41.1035 78.4896 38.3569 78.5408 35.8154H77.2225V34.6729H79.742C79.742 35.7788 79.7127 36.98 79.5735 38.2031H81.1189V33.457H82.4373V45.6006H81.1189V39.3311H79.4124C79.1194 40.9644 78.5774 42.583 77.5594 44.0186L76.4754 43.3887ZM83.5945 46.2451V33.1201H84.9275V46.2451H83.5945ZM100.28 33.1201V46.2451H98.9619V33.1201H100.28ZM88.9277 42.4512C91.7183 40.7959 93.0513 38.5913 93.293 35.8887H89.5723V34.7461H94.6699C94.6699 35.4199 94.6187 36.0718 94.5161 36.709H96.2812V33.457H97.5996V45.6006H96.2812V41.1328H94.04V39.9902H96.2812V37.8516H94.2598C93.6226 40.0562 92.2236 41.9751 89.748 43.4473L88.9277 42.4512ZM112.307 33.1201V40.9277H110.916V37.6025H108.469V36.46H110.916V33.1201H112.307ZM101.365 39.7412C103.401 39.0308 104.653 37.2583 104.646 35.4492V35.1562H101.804V34.0283H108.879V35.1562H106.067V35.4346C106.06 37.0972 107.246 38.7158 109.231 39.3896L108.513 40.4883C107.041 39.9829 105.957 38.9282 105.386 37.6318C104.815 39.0967 103.665 40.2759 102.097 40.8545L101.365 39.7412ZM103.474 43.7695C103.467 42.2095 105.151 41.3013 107.913 41.2939C110.659 41.3013 112.344 42.2095 112.351 43.7695C112.344 45.3296 110.659 46.2378 107.913 46.2451C105.151 46.2378 103.467 45.3296 103.474 43.7695ZM104.851 43.7695C104.844 44.6558 105.986 45.1611 107.913 45.1465C109.824 45.1611 110.967 44.6558 110.974 43.7695C110.967 42.876 109.824 42.3706 107.913 42.3779C105.986 42.3706 104.844 42.876 104.851 43.7695ZM119.705 33.3398C122.664 33.3325 124.385 34.1309 124.393 35.5957C124.385 37.0679 122.664 37.8662 119.705 37.8662C116.746 37.8662 115.01 37.0679 115.018 35.5957C115.01 34.1309 116.746 33.3325 119.705 33.3398ZM113.729 39.7852V38.6719H125.696V39.7852H113.729ZM115.164 41.8359V40.7959H124.188V43.8721H116.541V45.0439H124.554V46.1133H115.179V42.8613H122.811V41.8359H115.164ZM116.468 35.5957C116.461 36.4087 117.618 36.8262 119.705 36.8262C121.807 36.8262 122.965 36.4087 122.957 35.5957C122.965 34.8193 121.807 34.3652 119.705 34.3652C117.618 34.3652 116.461 34.8193 116.468 35.5957ZM141.152 40.8398V41.9385H135.79V46.2451H134.428V41.9385H129.14V40.8398H141.152ZM130.634 39.3457V33.6475H132.011V35.3613H138.251V33.6475H139.643V39.3457H130.634ZM132.011 38.2324H138.251V36.4746H132.011V38.2324ZM145.078 34.1016C146.279 34.1089 147.261 34.79 147.839 35.9766H151.084V33.1201H152.461V46.2744H151.084V41.2354H147.935C147.371 42.5537 146.345 43.3228 145.078 43.3154C143.123 43.3228 141.738 41.5356 141.753 38.7012C141.738 35.896 143.123 34.1089 145.078 34.1016ZM143.071 38.7012C143.079 40.7886 143.892 42.0703 145.078 42.0703C146.265 42.0703 147.078 40.7886 147.085 38.7012C147.078 36.6431 146.265 35.354 145.078 35.3467C143.892 35.354 143.079 36.6431 143.071 38.7012ZM148.235 37.1191C148.337 37.6025 148.403 38.1299 148.403 38.7012C148.403 39.1992 148.359 39.6606 148.271 40.0928H151.084V37.1191H148.235ZM164.195 33.1201V36.2256H166.099V37.3828H164.195V40.7812H162.803V33.1201H164.195ZM154.395 40.0195V33.8672H155.757V35.7715H159.2V33.8672H160.577V40.0195H154.395ZM155.757 38.9209H159.2V36.8701H155.757V38.9209ZM155.831 46.0547V41.4697H164.297V42.583H157.222V44.9561H164.532V46.0547H155.831ZM178.214 39.9756V41.0889H166.246V39.9756H178.214ZM167.535 36.1816C167.528 34.5337 169.366 33.5522 172.223 33.5596C175.065 33.5522 176.903 34.5337 176.91 36.1816C176.903 37.8369 175.065 38.8403 172.223 38.8477C169.366 38.8403 167.528 37.8369 167.535 36.1816ZM167.755 45.9668V42.1582H169.161V44.8389H176.866V45.9668H167.755ZM168.971 36.1816C168.964 37.1558 170.209 37.7051 172.223 37.7051C174.23 37.7051 175.482 37.1558 175.475 36.1816C175.482 35.2441 174.23 34.6729 172.223 34.6729C170.209 34.6729 168.964 35.2441 168.971 36.1816ZM44.3203 57.4531V58.5664H36.498V57.4531H39.7207V56.0615H41.1123V57.4531H44.3203ZM37.2158 61.54C37.2085 60.1045 38.5122 59.167 40.4092 59.1523C42.2988 59.167 43.5879 60.1045 43.5879 61.54C43.5879 62.9829 42.2988 63.9277 40.4092 63.9277C38.5122 63.9277 37.2085 62.9829 37.2158 61.54ZM38.124 66.125V64.9971H46.7959V69.2451H45.4043V66.125H38.124ZM38.5635 61.54C38.5488 62.353 39.2959 62.8438 40.4092 62.8438C41.5225 62.8438 42.2695 62.353 42.2842 61.54C42.2695 60.7344 41.5225 60.229 40.4092 60.2217C39.2959 60.229 38.5488 60.7344 38.5635 61.54ZM45.4043 64.3232V56.1201H46.7959V59.6797H48.7002V60.8369H46.7959V64.3232H45.4043ZM52.8609 58.6396C52.8609 60.0752 53.7765 61.5254 55.483 62.1699L54.7506 63.2393C53.5274 62.7705 52.6705 61.877 52.2018 60.8003C51.7184 62.0161 50.8248 63.0708 49.5504 63.6201L48.7887 62.5361C50.5611 61.7671 51.5133 60.0972 51.5133 58.6396V56.9404H52.8609V58.6396ZM51.2057 66.8428C51.191 65.3486 52.8976 64.4624 55.6441 64.4551C58.3834 64.4624 60.1046 65.3486 60.1119 66.8428C60.1046 68.3369 58.3834 69.2231 55.6441 69.2158C52.8976 69.2231 51.191 68.3369 51.2057 66.8428ZM52.5826 66.8428C52.568 67.6777 53.7325 68.1611 55.6441 68.1465C57.5484 68.1611 58.713 67.6777 58.7203 66.8428C58.713 66.0005 57.5484 65.5171 55.6441 65.5244C53.7325 65.5171 52.568 66.0005 52.5826 66.8428ZM55.8932 63.7959V56.3691H57.1822V59.5479H58.7203V56.1348H60.0387V64.2061H58.7203V60.6904H57.1822V63.7959H55.8932ZM67.8615 57.2773V63.4004H61.7238V57.2773H67.8615ZM63.0861 62.3018H66.4992V58.4053H63.0861V62.3018ZM63.2033 68.9668V64.8066H64.5949V67.8389H72.0803V68.9668H63.2033ZM70.132 65.7295V56.1055H71.5236V60.0312H73.4279V61.2031H71.5236V65.7295H70.132ZM87.5648 56.1201V63.2686H86.1879V60.3682H83.727V59.2256H86.1879V56.1201H87.5648ZM76.6518 62.3896C78.6659 61.6865 79.9257 59.9653 79.9184 58.1562V57.9805H77.0766V56.8525H84.1518V57.9805H81.3393V58.1709C81.3319 59.7969 82.5185 61.4448 84.5033 62.1113L83.7855 63.1953C82.3061 62.668 81.2221 61.6279 80.6508 60.3389C80.0795 61.7817 78.9296 62.939 77.3695 63.4883L76.6518 62.3896ZM79.0248 69.084V63.8545H80.4018V65.3633H86.1879V63.8545H87.5648V69.084H79.0248ZM80.4018 67.9561H86.1879V66.4473H80.4018V67.9561ZM100.998 62.6387V63.7812H89.001V62.6387H94.2891V60.7197H95.666V62.6387H100.998ZM89.6895 60.3389C92.2017 60.0166 94.2671 58.5371 94.2744 56.8818V56.3252H95.6807V56.8818C95.6733 58.5591 97.7314 60.0166 100.266 60.3389L99.7236 61.4375C97.6436 61.1006 95.8052 60.0898 94.9702 58.6396C94.1353 60.0898 92.2969 61.1006 90.2021 61.4375L89.6895 60.3389ZM90.334 66.0371V64.9385H99.5039V69.2451H98.0977V66.0371H90.334ZM111.677 56.0762V59.1523H113.596V60.2949H111.677V63.2979H110.286V56.0762H111.677ZM101.379 58.332V57.2334H104.602V56.0029H105.994V57.2334H109.202V58.332H101.379ZM102.097 60.9834C102.09 59.6577 103.364 58.8301 105.291 58.8301C107.217 58.8301 108.469 59.6577 108.469 60.9834C108.469 62.3164 107.217 63.1294 105.291 63.1221C103.364 63.1294 102.09 62.3164 102.097 60.9834ZM103.196 64.9531V63.9131H111.677V66.96H104.588V68.0586H112.131V69.1133H103.225V65.9785H110.3V64.9531H103.196ZM103.445 60.9834C103.43 61.6938 104.155 62.1113 105.291 62.1113C106.419 62.1113 107.151 61.6938 107.166 60.9834C107.151 60.2729 106.419 59.8335 105.291 59.8262C104.155 59.8335 103.43 60.2729 103.445 60.9834ZM123.514 57.2773C123.507 59.0205 125.638 60.6538 128.217 60.998L127.675 62.1406C125.529 61.7964 123.646 60.6831 122.789 59.1377C121.932 60.6831 120.05 61.7964 117.919 62.1406L117.362 60.998C119.933 60.6538 122.057 59.0425 122.064 57.2773V56.5596H123.514V57.2773ZM116.791 64.5723V63.4297H128.759V64.5723H123.427V69.2451H122.064V64.5723H116.791ZM136.772 64.792C136.772 65.9199 137.329 67.1138 138.523 67.8242C139.724 67.0552 140.317 65.8027 140.317 64.792V64.1621H141.68V64.792C141.672 66.1543 142.573 67.4727 144.287 68.0293L143.599 69.0547C142.302 68.6079 141.416 67.729 140.962 66.6597C140.544 67.7144 139.761 68.6738 138.56 69.1719C137.3 68.6958 136.501 67.7656 136.099 66.6963C135.623 67.729 134.758 68.6006 133.521 69.0547L132.817 68.0293C134.502 67.4287 135.417 66.0591 135.425 64.792V64.1621H136.772V64.792ZM132.48 59.958C132.488 58.1196 133.967 56.8599 135.981 56.8525C137.988 56.8599 139.468 58.1196 139.468 59.958C139.468 61.7744 137.988 63.0342 135.981 63.0342C133.967 63.0342 132.488 61.7744 132.48 59.958ZM133.843 59.958C133.835 61.1006 134.736 61.877 135.981 61.877C137.212 61.877 138.105 61.1006 138.105 59.958C138.105 58.8081 137.212 58.0317 135.981 58.0391C134.736 58.0317 133.835 58.8081 133.843 59.958ZM141.709 63.6055V56.1348H143.101V63.6055H141.709ZM148.14 57.1016C149.927 57.1089 151.224 58.6177 151.436 61.042H154.146V56.1201H155.523V69.2744H154.146V62.1699H151.451C151.297 64.7334 149.971 66.3228 148.14 66.3154C146.185 66.3228 144.8 64.5356 144.815 61.7012C144.8 58.896 146.185 57.1089 148.14 57.1016ZM146.133 61.7012C146.141 63.7886 146.954 65.0703 148.14 65.0703C149.327 65.0703 150.14 63.7886 150.147 61.7012C150.14 59.6431 149.327 58.354 148.14 58.3467C146.954 58.354 146.141 59.6431 146.133 61.7012ZM168.956 66.4473V67.6045H156.945V66.4473H159.816V63.0195C158.739 62.4263 158.08 61.4888 158.087 60.3096C158.08 58.2441 160.109 56.8892 162.921 56.8818C165.741 56.8892 167.77 58.2441 167.77 60.3096C167.77 61.4668 167.14 62.397 166.085 62.9902V66.4473H168.956ZM159.435 60.3096C159.435 61.7158 160.863 62.6313 162.921 62.6387C164.965 62.6313 166.415 61.7158 166.422 60.3096C166.415 58.896 164.965 57.9951 162.921 57.9951C160.863 57.9951 159.435 58.896 159.435 60.3096ZM161.193 66.4473H164.679V63.5322C164.144 63.6567 163.551 63.7227 162.921 63.7227C162.306 63.7227 161.72 63.6567 161.193 63.5322V66.4473ZM171.725 57.3945L171.594 64.9385H170.143L170.012 57.3945H171.725ZM169.836 67.0625C169.828 66.4912 170.304 66.0225 170.876 66.0225C171.44 66.0225 171.908 66.4912 171.916 67.0625C171.908 67.6338 171.44 68.0952 170.876 68.1025C170.304 68.0952 169.828 67.6338 169.836 67.0625Z" fill="white"/>
<path d="M40 93L51 105L62 93L40 93Z" fill="#323232"/>
<rect x="41" y="93" width="20" height="1" fill="#323232"/>
<path d="M61.7266 93H60.5625L59.7266 94H61.7266V93Z" fill="#323232"/>
<path d="M40.2734 93H41.4375L42.2734 94H40.2734V93Z" fill="#323232"/>
</g>
<defs>
<filter id="filter0_d_1919_48833" x="0" y="0" width="215" height="129" filterUnits="userSpaceOnUse" color-interpolation-filters="sRGB">
<feFlood flood-opacity="0" result="BackgroundImageFix"/>
<feColorMatrix in="SourceAlpha" type="matrix" values="0 0 0 0 0 0 0 0 0 0 0 0 0 0 0 0 0 0 127 0" result="hardAlpha"/>
<feOffset dy="8"/>
<feGaussianBlur stdDeviation="8"/>
<feColorMatrix type="matrix" values="0 0 0 0 0 0 0 0 0 0 0 0 0 0 0 0 0 0 0.16 0"/>
<feBlend mode="normal" in2="BackgroundImageFix" result="effect1_dropShadow_1919_48833"/>
<feBlend mode="normal" in="SourceGraphic" in2="effect1_dropShadow_1919_48833" result="shape"/>
</filter>
</defs>
</svg>
