<svg width="116" height="36" viewBox="0 0 116 36" fill="none" xmlns="http://www.w3.org/2000/svg">
<g clip-path="url(#clip0_1893_1543)">
<path d="M31.6978 22.1533C29.9253 22.1533 28.3597 22.7271 27.3036 23.8013C26.0924 24.9932 25.4277 26.862 25.4277 29.0693C25.4277 31.2765 26.0924 33.1453 27.3036 34.3372C28.3597 35.4114 29.9253 36.0073 31.6978 36.0073C33.4703 36.0073 35.0581 35.4187 36.1142 34.3372C37.3032 33.1453 37.9679 31.2765 37.9679 29.0693C37.9679 26.862 37.3032 24.9932 36.1142 23.8013C35.0581 22.7271 33.4703 22.1533 31.6978 22.1533ZM34.2383 32.8878C33.6549 33.6235 32.7465 34.0429 31.6904 34.0429C30.6343 34.0429 29.7259 33.6235 29.1647 32.8878C28.5148 32.0858 28.175 30.7468 28.175 29.0619C28.175 27.377 28.5222 26.0601 29.1647 25.236C29.7259 24.5003 30.6639 24.103 31.6904 24.103C32.717 24.103 33.6549 24.5076 34.2383 25.236C34.8882 26.0601 35.2206 27.377 35.2206 29.0619C35.2206 30.7468 34.8882 32.0785 34.2383 32.8804V32.8878Z" fill="#003974"/>
<path d="M66.0462 23.8013C64.9901 22.7271 63.4023 22.1533 61.6298 22.1533C59.8574 22.1533 58.2917 22.7271 57.2282 23.8013C56.0244 24.9932 55.3672 26.862 55.3672 29.0693C55.3672 31.2765 56.0244 33.1453 57.2282 34.3372C58.2917 35.4114 59.85 36.0073 61.6298 36.0073C63.4097 36.0073 64.9901 35.4187 66.0462 34.3372C67.2426 33.1453 67.8999 31.2765 67.8999 29.0693C67.8999 26.862 67.2426 24.9932 66.0462 23.8013ZM64.1778 32.8878C63.5943 33.6235 62.6859 34.0429 61.6298 34.0429C60.5737 34.0429 59.6654 33.6162 59.0967 32.8878C58.4542 32.0858 58.1071 30.7541 58.1071 29.0693C58.1071 27.3844 58.4542 26.0674 59.0967 25.2434C59.6654 24.5076 60.5959 24.1103 61.6298 24.1103C62.6638 24.1103 63.5943 24.515 64.1778 25.2434C64.8277 26.0674 65.16 27.3844 65.16 29.0693C65.16 30.7541 64.8277 32.0858 64.1778 32.8878Z" fill="#003974"/>
<path d="M19.2302 35.6833C19.0751 35.5435 18.8905 35.2272 18.8905 34.7563V29.9519L23.3955 22.4399H20.3158C20.5374 22.6606 20.5596 23.0138 20.2937 23.4332L17.8566 27.6343C15.8108 23.9408 15.8108 23.8378 15.4416 23.1609C15.1536 22.6533 14.9098 22.4326 14.3633 22.4326H11.9336C12.1256 22.6091 12.325 22.874 12.7386 23.5656L16.3278 29.9077V34.7489C16.3278 35.2198 16.1432 35.5362 15.9881 35.676H19.2376L19.2302 35.6833Z" fill="#003974"/>
<path d="M42.2578 35.6837C42.4129 35.5439 42.5975 35.2275 42.5975 34.7566V23.3673C42.5975 22.8964 42.4129 22.58 42.2578 22.4402H46.6594C48.7716 22.4402 50.6179 23.4556 50.6179 25.42C50.6179 26.2588 50.2339 27.436 49.259 27.9583C50.4407 28.4071 51.6962 29.496 51.6962 31.3428C51.6962 32.7112 51.0167 33.9105 50.0936 34.6021C49.2443 35.2422 48.262 35.6763 46.6594 35.6763H42.2578M45.1676 27.4433C45.6476 27.5022 46.6225 27.436 47.0508 27.2152C47.4718 26.9945 47.9518 26.6781 47.9518 25.8394C47.9518 25.0006 47.2576 24.3458 46.2385 24.3458C45.8544 24.3458 45.5369 24.3679 45.1676 24.4783V27.436M48.0552 33.4544C48.8159 32.9614 48.9931 32.2551 48.9931 31.512C48.9931 30.0626 47.7155 29.393 46.4822 29.393C46.2163 29.393 45.5812 29.4004 45.175 29.4666V33.7119C46.0243 33.9473 47.3832 33.8884 48.0552 33.4544Z" fill="#003974"/>
<path d="M0.339721 34.7566C0.339721 35.2275 0.15509 35.5438 0 35.6836H3.24951C3.09442 35.5438 2.90979 35.2275 2.90979 34.7566V29.5843L6.68364 34.9552C7.03075 35.4629 7.304 35.6836 7.85051 35.6836H10.4575C10.2433 35.507 10.0144 35.2422 9.51958 34.5506L5.26568 28.5395L9.62297 22.4476H6.41777C6.58025 22.6683 6.60241 22.9332 6.29223 23.4555L2.91717 28.3041V23.3746C2.91717 22.9037 3.1018 22.5874 3.25689 22.4476H0C0.15509 22.5874 0.339721 22.8964 0.339721 23.3746V34.7639V34.7566Z" fill="#003974"/>
<path d="M72.0722 4.31147C70.861 3.09013 68.8596 3.29614 67.6779 4.5469C66.1418 6.15818 64.9454 6.75414 63.5201 6.69528C61.5334 6.60699 60.5512 5.07664 59.5246 3.14163C58.4686 1.11833 56.8364 0 54.8055 0C51.6077 0 49.6875 2.58246 49.6875 5.45923C49.6875 9.88841 52.8115 12.5371 54.9753 13.6481C56.7699 14.5825 58.7713 14.9724 60.5512 15.0166C60.4478 16.076 60.1302 17.4739 59.7831 18.4598H63.4388C63.0769 17.4739 62.7594 15.9583 62.6634 14.8988C68.0251 14.2072 70.573 11.7793 71.9614 9.46904C72.5818 8.45371 72.9215 7.40159 72.9141 6.45984C72.9141 5.62845 72.6482 4.87799 72.0648 4.31147M54.8202 7.07787C53.7863 7.14408 52.9001 6.36419 52.8336 5.33415C52.7671 4.30411 53.55 3.41386 54.5913 3.34764C55.6178 3.28142 56.5041 4.06867 56.5705 5.09135C56.637 6.1214 55.8542 7.00429 54.8202 7.07051V7.07787Z" fill="#50B848"/>
<path d="M111.273 29.2753H109.708V33.94H106.717V35.1613H116V33.94H111.273V29.2753Z" fill="#003974"/>
<path d="M113.349 32.7554H114.375C114.759 30.7983 115.025 28.3557 115.18 26.7149C115.269 25.8321 115.276 25.3685 114.479 25.3685H107.507V26.5899H113.349V32.7554Z" fill="#003974"/>
<path d="M97.7146 29.3785H104.502V25.3319H96.7471V28.4147C96.7471 28.9886 96.9983 29.3859 97.722 29.3859M102.751 26.5459V28.1572H98.4901V26.5459H102.751Z" fill="#003974"/>
<path d="M98.7037 32.2404H96.9608V34.6389C96.9608 35.2128 97.2119 35.6101 97.9283 35.6101H104.523V34.3887H98.7037V32.2404Z" fill="#003974"/>
<path d="M95.8682 31.4457H99.9301V33.3513H101.673V31.4457H105.366V30.2244H95.8682V31.4457Z" fill="#003974"/>
<path d="M79.7754 29.6064H78.2097V33.9399H77.1462V29.6064H75.5806V33.9399H73.461V35.1613H83.1283V33.9399H79.7754V29.6064Z" fill="#003974"/>
<path d="M80.6539 32.7554H81.6731C82.0571 30.7983 82.323 28.3557 82.4855 26.7149C82.5741 25.8321 82.5741 25.3685 81.7765 25.3685H74.502V26.5899H80.6466V32.7554H80.6539Z" fill="#003974"/>
<path d="M90.3732 31.8578H88.6303V33.9399H84.6349V35.1613H94.3095V33.9399H90.3732V31.8578Z" fill="#003974"/>
<path d="M86.9612 31.1956H91.9758C92.6996 31.1956 92.9433 30.7983 92.9433 30.2244V25.2655H91.193V27.2741H87.7293V25.2655H85.9864V30.2244C85.9864 30.7983 86.2301 31.1956 86.9538 31.1956M91.2004 28.4954V30.1435H87.7367V28.4954H91.2004Z" fill="#003974"/>
</g>
<defs>
<clipPath id="clip0_1893_1543">
<rect width="116" height="36" fill="white"/>
</clipPath>
</defs>
</svg>
