<svg width="20" height="15" viewBox="0 0 20 15" fill="none" xmlns="http://www.w3.org/2000/svg">
<path d="M18.789 0.716407H12.4006C11.6131 0.717504 10.8416 0.925785 10.1738 1.31762C9.50334 0.925675 8.72957 0.717437 7.93978 0.716407H1.55189C1.41277 0.716407 1.27935 0.768289 1.18098 0.860638C1.08261 0.952987 1.02734 1.07824 1.02734 1.20884L1.02734 12.8325C1.02895 12.9626 1.08473 13.087 1.18276 13.179C1.28078 13.271 1.41327 13.3234 1.55189 13.3249H7.93978C8.63036 13.3243 9.30229 13.5352 9.85354 13.9257C9.94401 13.992 10.0555 14.028 10.1702 14.028C10.285 14.028 10.3964 13.992 10.4869 13.9257C11.0386 13.5361 11.7102 13.3253 12.4006 13.3249H18.789C18.9281 13.3249 19.0615 13.273 19.1599 13.1807C19.2583 13.0883 19.3135 12.9631 19.3135 12.8325C19.3135 12.8325 19.3135 1.73989 19.3135 1.20925C19.3135 0.678624 19.3914 0.716407 18.789 0.716407Z" stroke="white" stroke-width="1.05" stroke-linecap="round"/>
<path d="M10.1719 1.03516V13.8222" stroke="white" stroke-width="1.05"/>
<path d="M12.9688 4.45117H16.626" stroke="white" stroke-width="1.05" stroke-linecap="round"/>
<path d="M12.9688 7.02734H16.626" stroke="white" stroke-width="1.05" stroke-linecap="round"/>
<path d="M12.9688 9.60156H16.626" stroke="white" stroke-width="1.05" stroke-linecap="round"/>
<path d="M3.67969 4.45117H7.33692" stroke="white" stroke-width="1.05" stroke-linecap="round"/>
<path d="M3.67969 7.02734H7.33692" stroke="white" stroke-width="1.05" stroke-linecap="round"/>
<path d="M3.67969 9.60156H7.33692" stroke="white" stroke-width="1.05" stroke-linecap="round"/>
</svg>
