<svg width="24" height="24" viewBox="0 0 24 24" fill="none" xmlns="http://www.w3.org/2000/svg">
<path d="M13 3C10.1924 3 8.2606 3 6.99977 3C5.8952 3 5 3.89543 5 5V19C5 20.1046 5.89543 21 7 21H9M19 9.00024V12.0002" stroke="#323232" stroke-width="2" stroke-linecap="round"/>
<path d="M19 9V10C19.4045 10 19.7691 9.75636 19.9239 9.38268C20.0787 9.00901 19.9931 8.57889 19.7071 8.29289L19 9ZM14 9L14 10H14V9ZM13 8H12H13ZM13 3L13.7071 2.29289C13.4211 2.0069 12.991 1.92134 12.6173 2.07612C12.2436 2.2309 12 2.59554 12 3H13ZM19 9V8H14V9V10H19V9ZM14 9L14 8H14H13H12C12 9.10457 12.8954 10 14 10L14 9ZM13 8H14V3H13H12V8H13ZM13 3L12.2929 3.70711L18.2929 9.70711L19 9L19.7071 8.29289L13.7071 2.29289L13 3Z" fill="#323232"/>
<path d="M13.326 18.6519C11.492 18.6519 10 17.1599 10 15.326C10 13.492 11.492 12 13.326 12C14.4962 12 15.5492 12.6108 16.2148 13.6758L16.2156 13.6771L16.2164 13.6784C16.4891 14.109 16.6519 14.7249 16.6519 15.326C16.6519 17.1599 15.1599 18.6519 13.326 18.6519Z" stroke="#323232" stroke-width="2"/>
<path d="M18.9999 22.0001C19.3904 22.3906 20.0236 22.3906 20.4141 22.0001C20.8047 21.6096 20.8047 20.9764 20.4141 20.5859L18.9999 22.0001ZM15.707 17.293L14.9999 18.0001L18.9999 22.0001L19.707 21.293L20.4141 20.5859L16.4141 16.5859L15.707 17.293Z" fill="#323232"/>
</svg>
