<svg width="24" height="24" viewBox="0 0 24 24" fill="none" xmlns="http://www.w3.org/2000/svg">
<path d="M11.3937 3C13.0057 2.99928 14.5837 3.46298 15.9391 4.33562C17.2944 5.20826 18.3697 6.4529 19.0362 7.92062C19.7027 9.38835 19.9323 11.017 19.6974 12.6118C19.4625 14.2066 18.7732 15.6999 17.7119 16.9132L20.2018 19.3982C20.2801 19.4762 20.3422 19.569 20.3846 19.6711C20.427 19.7732 20.4488 19.8826 20.4488 19.9932C20.4488 20.1038 20.427 20.2132 20.3846 20.3153C20.3422 20.4174 20.2801 20.5102 20.2018 20.5882C20.1237 20.6665 20.031 20.7286 19.9289 20.771C19.8268 20.8134 19.7173 20.8353 19.6068 20.8353C19.4962 20.8353 19.3868 20.8134 19.2847 20.771C19.1826 20.7286 19.0898 20.6665 19.0118 20.5882L16.4834 18.064C15.4238 18.8725 14.187 19.4171 12.8752 19.6526C11.5634 19.8881 10.2143 19.8077 8.93971 19.4182C7.66511 19.0287 6.5016 18.3413 5.54549 17.4127C4.58939 16.4842 3.86818 15.3413 3.44156 14.0786C3.01494 12.816 2.89518 11.4699 3.0922 10.1517C3.28922 8.83357 3.79735 7.58131 4.57452 6.49857C5.3517 5.41584 6.37557 4.53377 7.5614 3.92538C8.74722 3.31699 10.0609 2.99978 11.3937 3ZM11.3937 18.1067C12.7213 18.1066 14.0191 17.7128 15.123 16.9751C16.2268 16.2374 17.0871 15.1889 17.5951 13.9623C18.1031 12.7357 18.236 11.386 17.977 10.0839C17.7179 8.78176 17.0786 7.58568 16.1398 6.64689C15.201 5.70811 14.0049 5.06877 12.7028 4.80972C11.4007 4.55068 10.051 4.68356 8.82435 5.19156C7.59774 5.69957 6.54931 6.55988 5.81162 7.66372C5.07393 8.76756 4.68012 10.0654 4.67998 11.393C4.68165 13.1731 5.38952 14.8798 6.64822 16.1385C7.90692 17.3972 9.61361 18.105 11.3937 18.1067Z" fill="#172E55"/>
</svg>
