<svg width="118" height="28" viewBox="0 0 118 28" fill="none" xmlns="http://www.w3.org/2000/svg">
<g clip-path="url(#clip0_1893_1565)">
<path d="M83.2693 9.87952H80.9397V18.2396H83.2693V14.5427H85.6624V12.8763H83.2693V9.87952ZM78.6102 14.0035C78.6102 11.791 76.6336 10.0055 74.1982 10.0055C71.7627 10.0055 69.7861 11.798 69.7861 14.0035C69.7861 16.2091 71.7627 18.0015 74.1982 18.0015C76.6336 18.0015 78.6102 16.2091 78.6102 14.0035ZM71.9745 14.0035C71.9745 12.6732 72.9769 11.5949 74.2052 11.5949C75.4335 11.5949 76.4359 12.6732 76.4359 14.0035C76.4359 15.3339 75.4335 16.4121 74.2052 16.4121C72.9769 16.4121 71.9745 15.3339 71.9745 14.0035ZM75.0735 23.876V23.673H83.2693V19.2269H72.6663V20.8022H80.9045V22.1466H72.7087V23.2669C72.7087 25.8855 74.1417 26.6977 76.2948 26.6977H83.3822V25.1223H76.3018C75.3135 25.1223 75.0806 24.7512 75.0806 23.883L75.0735 23.876ZM110.772 25.0593C109.749 25.0593 109.198 24.5342 109.198 23.5399V21.1523H106.826V23.0078C106.826 25.6124 108.344 26.6907 111.203 26.6907H117.507V25.0593H110.779H110.772ZM115.064 17.9665V21.9645H117.373V9.87952H115.064V16.3281C113.935 17.4484 111.535 17.8755 109.883 17.8755C108.372 17.8755 107.144 17.3154 107.144 15.677V12.3441H112.657V10.7197H104.793V15.4529C104.793 18.7787 106.861 19.4999 109.741 19.4999C111.415 19.4999 113.61 19.0868 115.064 17.9665ZM100.148 9.87952H97.8184V19.1568C96.5548 20.1721 94.797 20.7392 92.5734 20.6902C91.0627 20.6552 89.8344 20.0601 89.8344 18.1626V17.2033H95.2347V10.8878H87.4695V12.5122H92.9052V15.5929H87.4695V17.5534C87.4695 21.1453 89.432 22.3076 92.411 22.3146C94.5076 22.3146 96.7595 21.6775 97.8184 20.7882V26.6907H100.148V16.5592H102.534V14.8228H100.148V9.87952Z" fill="#426AB3"/>
<path d="M0.5 11.8959C8.29341 10.7757 15.4585 13.2543 20.7318 15.8589C19.7294 13.8494 18.5364 11.917 17.2304 10.0755C12.8396 9.38932 3.03427 7.52686 0.5 11.8959Z" fill="#FCAF17"/>
<path d="M36.4671 26.1235C36.3824 25.8574 36.2977 25.5984 36.213 25.3323C36.1424 25.1293 36.0789 24.9262 36.0083 24.7302C35.9306 24.4921 35.8459 24.254 35.7612 24.016C35.6906 23.8199 35.62 23.6309 35.5494 23.4348C35.4435 23.1338 35.3306 22.8327 35.2176 22.5386C35.1823 22.4476 35.14 22.3566 35.1047 22.2585C34.4482 22.2165 33.7776 22.1045 33.0716 21.8944C31.3633 21.3973 29.8032 20.4241 28.0031 19.3108L26.9513 18.6666C25.2076 17.6094 23.3158 16.4821 20.9933 15.3338C20.7603 15.2148 20.5203 15.1098 20.2803 14.9907C20.4356 15.2778 20.5909 15.5579 20.7321 15.8519C23.1393 17.0352 25.1512 18.2535 26.6407 19.1638C28.4972 20.298 30.1067 21.3693 31.808 22.0625C30.4527 23.2668 28.9843 25.1853 28.709 25.8574C28.6384 25.9555 28.5961 26.0605 28.5961 26.1655C28.5961 27.1528 32.2457 27.986 35.733 27.986C36.1636 27.986 36.6013 27.972 37.0319 27.951C36.9048 27.5099 36.7777 27.0757 36.6366 26.6416C36.5801 26.4666 36.5236 26.2915 36.4671 26.1165V26.1235Z" fill="#426AB3"/>
<path d="M27.2619 10.4676L27.7702 10.3626L27.7207 10.3766C27.8196 10.3556 27.9255 10.3346 28.0384 10.3066C27.8972 10.1385 27.756 9.97049 27.6078 9.80945L27.1419 9.90047C23.6264 10.6146 22.0451 10.7407 19.0237 10.2926C18.6637 10.2926 18.0354 10.2085 17.2236 10.0755C17.3719 10.2926 17.5201 10.5096 17.6754 10.7267C18.2331 10.8107 18.6637 10.8597 18.9673 10.8667C22.0733 11.3288 23.7676 11.1678 27.2619 10.4676Z" fill="#426AB3"/>
<path d="M42.0793 19.885C39.9332 21.1523 37.9072 22.3496 35.3518 22.2796C35.2671 22.2796 35.1824 22.2656 35.0977 22.2656C35.133 22.3566 35.1682 22.4546 35.2106 22.5456C35.2459 22.6507 35.2953 22.7557 35.3377 22.8607C35.4153 23.0498 35.4789 23.2458 35.5495 23.4419C35.6271 23.6379 35.6977 23.827 35.7612 24.023C35.8459 24.2611 35.9306 24.4991 36.0083 24.7372C36.0789 24.9402 36.1495 25.1363 36.213 25.3393C36.2977 25.5984 36.3824 25.8645 36.4672 26.1305C36.5236 26.3056 36.5801 26.4806 36.6366 26.6557C36.7707 27.0898 36.9048 27.5309 37.0319 27.965C40.0674 27.7899 42.8699 27.0408 42.8699 26.1795C42.8699 26.0745 42.8275 25.9695 42.7569 25.8715C42.4675 25.1713 40.9215 23.1478 39.5097 21.9505C40.4839 21.5094 41.4227 20.9562 42.3828 20.3891C42.8558 20.116 44.3806 19.2968 46.0677 18.4356C45.9195 18.2956 45.7712 18.1555 45.623 18.0155C43.9994 18.8487 42.5593 19.6119 42.0793 19.892V19.885Z" fill="#EE3D96"/>
<path d="M33.3114 8.66119C33.3114 8.66119 33.4879 8.59817 33.742 8.50715C33.5302 8.38112 33.3255 8.24108 33.1137 8.11505C31.1513 8.80122 28.8499 9.55741 27.6075 9.80947C27.7558 9.97052 27.8969 10.1386 28.0381 10.3066C29.1323 10.0545 30.8971 9.5084 33.3043 8.66119H33.3114Z" fill="#EE3D96"/>
<path d="M59.1835 0.994233C56.6422 -0.385112 53.162 -0.560156 50.9101 1.96748C49.2794 3.80193 49.0959 6.31556 50.2748 8.12902C51.4537 9.94947 53.515 10.7617 55.788 10.1455C57.7646 9.61339 58.8588 7.19078 57.5811 5.55937C56.8963 4.68416 55.4492 4.28506 54.5033 4.96423C54.0585 5.28631 53.7832 5.85345 54.0585 6.37858C54.2138 6.67965 54.5244 6.8757 54.8774 6.8757C55.0539 6.8757 55.188 6.80569 55.3504 6.74967C56.1763 6.4556 56.5575 7.72992 55.8657 8.10101C55.7316 8.18503 55.5692 8.24104 55.428 8.28306C53.9879 8.67515 52.5902 8.14302 51.8772 7.04375C51.136 5.90246 51.4819 4.26405 52.3502 3.29781C53.7338 1.75042 56.2681 1.82744 57.9693 2.8637C59.6777 3.89296 61.0331 6.0635 59.7412 9.03224C58.7035 11.4198 55.6116 12.113 52.5761 12.12C52.0749 12.12 51.5454 12.085 50.9948 12.029C51.3266 12.246 51.6584 12.4701 51.9831 12.6872C52.1878 12.6942 52.3855 12.7012 52.5761 12.7012C56.6422 12.6942 59.3035 11.5039 60.2777 9.2633C61.7178 5.94447 60.1859 3.52887 58.2729 2.36658C56.4234 1.2463 53.5644 1.05725 51.9055 2.91271C50.9454 3.98398 50.4371 5.90946 51.3831 7.35182C52.2514 8.68215 53.9315 9.2773 55.5763 8.83619C55.7951 8.77318 55.9928 8.69616 56.1481 8.59813C56.6069 8.34607 56.7975 7.89796 56.7975 7.46385C56.7975 7.2468 56.7481 7.04375 56.6634 6.8547C56.3881 6.25255 55.7598 5.97948 55.1386 6.20354L55.0256 6.24555C54.9409 6.27355 54.8915 6.29456 54.8633 6.29456C54.7362 6.29456 54.6233 6.22454 54.5668 6.11251C54.4185 5.83244 54.6797 5.54537 54.835 5.43334C55.5198 4.94322 56.621 5.28631 57.1081 5.90946C57.694 6.66565 57.5458 7.47785 57.4046 7.89096C57.1222 8.71016 56.4446 9.36132 55.6186 9.58538C53.635 10.1175 51.8137 9.45935 50.7477 7.81394C49.6818 6.18253 49.9218 3.92797 51.3337 2.34557C53.3879 0.0419945 56.6069 0.259049 58.8941 1.49836C60.8425 2.55562 63.2779 5.75542 61.5131 9.82344C60.8636 11.3078 59.48 12.6381 57.8846 13.2823C56.9034 13.6814 55.8657 13.9685 54.8845 14.2135L54.4891 14.3186C54.4891 14.3186 54.4397 14.3326 54.4115 14.3396C54.6162 14.4866 54.828 14.6266 55.0327 14.7737C56.0704 14.5076 57.1081 14.2275 58.1035 13.8144C59.7765 13.1353 61.3154 11.7209 62.0425 10.0475C63.8497 5.88846 61.5554 2.28255 59.1694 0.980229L59.1835 0.994233Z" fill="#426AB3"/>
<path d="M53.8188 14.5074C52.8376 14.7665 51.8352 15.0466 50.8681 15.4527C49.5903 15.9848 46.9008 17.3501 45.7995 17.9173C45.7431 17.9453 45.6795 17.9803 45.623 18.0083C45.7713 18.1483 45.9195 18.2884 46.0678 18.4284C47.9667 17.4552 50.0704 16.4119 51.094 15.9848C52.3717 15.4457 53.7129 15.1306 55.0401 14.7875C54.8354 14.6405 54.6236 14.5004 54.4189 14.3534C54.2142 14.4024 54.0165 14.4584 53.8118 14.5144L53.8188 14.5074Z" fill="#FCAF17"/>
<path d="M35.5699 7.85599C38.5348 9.07429 45.8058 12.036 50.9379 12.5962C51.185 12.6242 51.4179 12.6452 51.6509 12.6592C51.7638 12.6592 51.8768 12.6662 51.9897 12.6732C51.665 12.4561 51.3332 12.2321 51.0014 12.015C46.0599 11.4759 39.1278 8.6892 35.584 7.22583C34.9557 7.45689 34.0733 7.77197 33.1133 8.10805C33.3251 8.23408 33.5298 8.37412 33.7416 8.50015C34.3275 8.2901 35.3158 7.94001 35.5699 7.84899V7.85599Z" fill="#FCAF17"/>
<path d="M26.9436 18.6737L27.9954 19.3178C29.7955 20.4381 31.3556 21.4043 33.064 21.9015C33.7699 22.1115 34.4335 22.2235 35.097 22.2656C35.0194 22.0555 34.9276 21.8524 34.8429 21.6424C34.6805 21.2433 34.5111 20.8372 34.3417 20.4381C34.264 20.2771 34.1934 20.109 34.1229 19.948C33.9464 19.5629 33.7699 19.1778 33.5864 18.7927C33.5016 18.6106 33.4099 18.4356 33.3181 18.2535C33.1346 17.8965 32.9581 17.5324 32.7675 17.1823C32.6616 16.9792 32.5416 16.7832 32.4357 16.5801C32.2592 16.251 32.0757 15.922 31.8851 15.6069C31.7509 15.3828 31.6098 15.1588 31.4686 14.9347C31.2921 14.6476 31.1156 14.3606 30.925 14.0735C30.7556 13.8144 30.5791 13.5694 30.4026 13.3173C30.2332 13.0723 30.0708 12.8272 29.8944 12.5891C29.6755 12.2881 29.4426 11.994 29.2096 11.6999C29.0684 11.5249 28.9343 11.3358 28.7931 11.1678C28.5531 10.8737 28.2919 10.5866 28.0378 10.2996C27.9248 10.3276 27.8119 10.3486 27.7201 10.3696L27.7695 10.3556L27.2613 10.4606C23.7669 11.1608 22.0798 11.3218 18.9666 10.8597C18.6631 10.8597 18.2254 10.8037 17.6748 10.7197C18.6137 12.099 19.4961 13.5204 20.2726 14.9907C20.5126 15.1028 20.7456 15.2148 20.9856 15.3338C23.3081 16.4821 25.2 17.6094 26.9436 18.6667V18.6737Z" fill="url(#paint0_linear_1893_1565)"/>
<path d="M33.3111 8.6612C30.8969 9.50141 29.1391 10.0545 28.0449 10.3066C28.2991 10.5937 28.5602 10.8737 28.8003 11.1748C28.9485 11.3499 29.0756 11.5319 29.2168 11.707C29.4497 12.001 29.6827 12.2951 29.9015 12.5962C30.078 12.8342 30.2403 13.0793 30.4098 13.3244C30.5863 13.5764 30.7627 13.8285 30.9322 14.0806C31.1228 14.3606 31.2922 14.6547 31.4757 14.9418C31.6098 15.1658 31.7581 15.3899 31.8922 15.6139C32.0828 15.936 32.2593 16.2651 32.4428 16.5872C32.5558 16.7902 32.6687 16.9863 32.7746 17.1893C32.9652 17.5464 33.1417 17.9035 33.3252 18.2606C33.417 18.4426 33.5088 18.6177 33.5935 18.7997C33.777 19.1778 33.9535 19.5699 34.13 19.955C34.2006 20.1161 34.2782 20.2841 34.3488 20.4451C34.5253 20.8442 34.6877 21.2433 34.85 21.6494C34.8924 21.7545 34.9347 21.8595 34.9842 21.9645H34.9912C35.0336 22.0695 35.0689 22.1676 35.1042 22.2726C35.1889 22.2726 35.2736 22.2866 35.3583 22.2866C37.9067 22.3566 39.9398 21.1593 42.0858 19.892C42.5658 19.6119 44.0059 18.8487 45.6295 18.0155C41.8881 14.5007 38.0973 11.1818 33.7488 8.51416C33.4876 8.60518 33.3182 8.6682 33.3182 8.6682L33.3111 8.6612Z" fill="url(#paint1_linear_1893_1565)"/>
<path d="M54.5037 14.3255L54.899 14.2205C55.8802 13.9685 56.9179 13.6884 57.8992 13.2893C59.4875 12.6451 60.8782 11.3148 61.5276 9.83042C63.2995 5.7554 60.8641 2.56261 58.9086 1.50534C56.6285 0.266032 53.4024 0.0489772 51.3482 2.35255C49.9434 3.93495 49.7034 6.18251 50.7623 7.82092C51.8353 9.46633 53.6566 10.1245 55.6332 9.59236C56.452 9.36831 57.1368 8.71714 57.4191 7.89794C57.5603 7.48484 57.7086 6.67263 57.1227 5.91644C56.6356 5.29329 55.5343 4.9502 54.8496 5.44032C54.6943 5.55235 54.4331 5.83942 54.5813 6.11949C54.6378 6.23152 54.7507 6.30154 54.8778 6.30154C54.906 6.30154 54.9555 6.28053 55.0402 6.25253L55.1531 6.21052C55.7743 5.98646 56.4026 6.25953 56.6779 6.86168C56.7626 7.05073 56.812 7.25378 56.812 7.47083C56.812 7.90494 56.6144 8.35305 56.1626 8.60512C56.0002 8.70314 55.8096 8.78016 55.5908 8.84317C53.946 9.28429 52.2659 8.68914 51.3976 7.3588C50.4587 5.90944 50.967 3.99096 51.92 2.91969C53.5718 1.06423 56.4379 1.25328 58.2874 2.37356C60.2005 3.53585 61.7323 5.95145 60.2923 9.27028C59.3181 11.5108 56.6567 12.6941 52.5906 12.7081C52.4 12.7081 52.2024 12.7011 51.9976 12.6941C52.8165 13.2333 53.6283 13.7934 54.426 14.3606C54.4543 14.3606 54.4825 14.3465 54.5037 14.3395V14.3255Z" fill="url(#paint2_linear_1893_1565)"/>
<path d="M53.8185 14.5076C54.0232 14.4516 54.228 14.4026 54.4256 14.3466C53.6279 13.7724 52.8161 13.2193 51.9972 12.6801C51.8843 12.6801 51.7713 12.6661 51.6584 12.6661C52.3714 13.2893 53.0914 13.9054 53.8185 14.5076Z" fill="#FCAF17"/>
<path d="M51.9902 12.6802C51.8772 12.6802 51.7643 12.6662 51.6513 12.6662C51.4184 12.6452 51.1854 12.6312 50.9383 12.6032C45.8133 12.043 38.5352 9.08128 35.5704 7.86298C35.3162 7.954 34.3279 8.30409 33.742 8.51414C38.0834 11.1888 41.8813 14.5006 45.6227 18.0155C45.6792 17.9875 45.7427 17.9525 45.7992 17.9245C46.8934 17.3644 49.59 15.999 50.8677 15.4599C51.8349 15.0538 52.8302 14.7737 53.8185 14.5146C54.0232 14.4586 54.2279 14.4096 54.4256 14.3536C53.6279 13.7795 52.8161 13.2263 51.9972 12.6872L51.9902 12.6802Z" fill="url(#paint3_linear_1893_1565)"/>
<path d="M35.5845 2.53461C34.7585 2.53461 34.095 3.19977 34.095 4.01198C34.095 5.62238 35.2668 6.9247 35.5845 7.23278C35.8951 6.9247 37.074 5.62238 37.074 4.01198C37.074 3.19977 36.4033 2.53461 35.5845 2.53461Z" fill="#FCAF17"/>
</g>
<defs>
<linearGradient id="paint0_linear_1893_1565" x1="29.0826" y1="10.7617" x2="25.8021" y2="17.861" gradientUnits="userSpaceOnUse">
<stop stop-color="#778AC5"/>
<stop offset="0.03" stop-color="#7387C3"/>
<stop offset="0.25" stop-color="#5877BA"/>
<stop offset="0.45" stop-color="#476DB4"/>
<stop offset="0.6" stop-color="#426AB3"/>
</linearGradient>
<linearGradient id="paint1_linear_1893_1565" x1="30.4662" y1="10.3206" x2="41.1085" y2="21.0573" gradientUnits="userSpaceOnUse">
<stop stop-color="#F392BD"/>
<stop offset="0.14" stop-color="#F06EAC"/>
<stop offset="0.28" stop-color="#EF53A0"/>
<stop offset="0.41" stop-color="#EE4298"/>
<stop offset="0.5" stop-color="#EE3D96"/>
</linearGradient>
<linearGradient id="paint2_linear_1893_1565" x1="61.2453" y1="3.90694" x2="52.4644" y2="9.01739" gradientUnits="userSpaceOnUse">
<stop stop-color="#778AC5"/>
<stop offset="0.02" stop-color="#7387C3"/>
<stop offset="0.15" stop-color="#5877BA"/>
<stop offset="0.26" stop-color="#476DB4"/>
<stop offset="0.35" stop-color="#426AB3"/>
</linearGradient>
<linearGradient id="paint3_linear_1893_1565" x1="36.5657" y1="5.1743" x2="48.0786" y2="14.9084" gradientUnits="userSpaceOnUse">
<stop stop-color="#FFD48E"/>
<stop offset="0.09" stop-color="#FEC96D"/>
<stop offset="0.21" stop-color="#FDBE48"/>
<stop offset="0.32" stop-color="#FCB52D"/>
<stop offset="0.42" stop-color="#FCB01C"/>
<stop offset="0.5" stop-color="#FCAF17"/>
</linearGradient>
<clipPath id="clip0_1893_1565">
<rect width="117" height="28" fill="white" transform="translate(0.5)"/>
</clipPath>
</defs>
</svg>
