<svg width="118" height="24" viewBox="0 0 118 24" fill="none" xmlns="http://www.w3.org/2000/svg">
<path d="M73.6606 18.72H53.6364V21.72H73.6606V18.72ZM65.198 1.8H62.099V6.72C62.099 8.28 61.2646 9.6 59.8343 10.2C58.2848 10.92 56.3778 11.28 54.1131 11.28V14.4C56.8545 14.4 59.1192 13.92 61.1455 12.96C62.099 12.48 62.9333 11.88 63.6485 11.04C64.3636 11.88 65.198 12.48 66.1515 12.96C68.1778 13.92 70.4424 14.28 73.1838 14.4V11.28C70.9192 11.28 69.1313 10.92 67.4626 10.2C66.1515 9.6 65.198 8.16 65.198 6.72V1.92V1.8ZM96.0687 18.84V21.84H76.0444V18.84H84.3879V15.96H87.7253V18.84H96.0687ZM79.9778 12.24V9.72H95.1152V6.96H79.0242C77.8323 6.96 76.8788 7.92 76.8788 9.12V12.84C76.8788 14.04 77.8323 15 79.0242 15H95.1152V12.24H79.9778ZM95.2343 1.8H76.998V4.56H95.2343V1.8ZM104.174 1.56C102.505 1.56 101.075 2.16 100.121 3.24C99.0485 4.32 98.5717 6 98.5717 8.04V15.48C98.5717 17.52 99.0485 19.08 100.121 20.28C101.194 21.36 102.505 21.96 104.174 21.96C105.842 21.96 107.273 21.36 108.226 20.28C109.299 19.2 109.776 17.64 109.776 15.48V8.04C109.776 6 109.299 4.32 108.226 3.24C107.154 2.16 105.842 1.56 104.174 1.56ZM106.677 15.48C106.677 16.68 106.438 17.52 105.962 18.12C105.485 18.72 104.889 18.96 104.055 18.96C103.22 18.96 102.624 18.72 102.147 18.12C101.671 17.52 101.432 16.68 101.432 15.48V8.04C101.432 6.84 101.671 6 102.147 5.4C102.624 4.8 103.22 4.56 104.055 4.56C104.889 4.56 105.485 4.8 105.962 5.4C106.438 6 106.677 6.84 106.677 8.04V15.48ZM113.59 1.44V9.36H110.61V12.48H113.59V22.56H116.808V1.44H113.59ZM45.5313 24H23.8384V0H45.5313C46.7232 0 47.6768 0.96 47.6768 2.16V21.84C47.6768 23.04 46.7232 24 45.5313 24Z" fill="#7346F3"/>
<path d="M42.0747 10.44H37.3071V5.64001H34.0889V10.44H29.3212V13.68H42.0747V10.44ZM34.2081 14.04V18.36H37.4263V16.2C37.4263 14.64 35.8768 14.04 34.2081 14.04Z" fill="white"/>
<path d="M2.14545 0H23.8384V24H2.14545C0.953535 24 0 23.04 0 21.84V2.16C0 0.96 0.953535 0 2.14545 0Z" fill="#03C75A"/>
<path fill-rule="evenodd" clip-rule="evenodd" d="M14.1838 12.36L9.89293 6.12H6.31717V17.88H10.1313V11.64L14.4222 17.88H17.998V6.12H14.1838V12.36Z" fill="white"/>
</svg>
