<svg width="32" height="32" viewBox="0 0 32 32" fill="none" xmlns="http://www.w3.org/2000/svg">
<circle cx="16" cy="16" r="16" fill="#FFCC24"/>
<path d="M17.5206 7.68007L24.0141 23.3639C24.1013 23.5878 24.1451 23.8023 24.1451 24.0089C24.1451 24.4389 23.9919 24.783 23.687 25.0407C23.3815 25.2984 22.9842 25.4275 22.4954 25.4275C21.8318 25.4275 21.352 25.0922 21.0556 24.4212L19.7203 21.3H12.2319L10.8966 24.5759C10.6171 25.1433 10.1543 25.427 9.50901 25.427C9.07257 25.427 8.68844 25.2849 8.35709 25.0012C8.02528 24.7175 7.85938 24.3609 7.85938 23.9309C7.85938 23.7076 7.89425 23.5014 7.96401 23.3119L14.5626 7.60253C14.7021 7.25892 14.8807 7.00075 15.0994 6.82848C15.3176 6.65668 15.6622 6.57031 16.1335 6.57031C16.7618 6.57031 17.2241 6.94039 17.5211 7.67961L17.5206 7.68007ZM13.5143 18.2047H18.4109L15.9756 12.375L13.5143 18.2047Z" fill="white"/>
</svg>
