<svg width="32" height="32" viewBox="0 0 32 32" fill="none" xmlns="http://www.w3.org/2000/svg">
<path d="M24 0H8C3.58172 0 0 3.58172 0 8V24C0 28.4183 3.58172 32 8 32H24C28.4183 32 32 28.4183 32 24V8C32 3.58172 28.4183 0 24 0Z" fill="#0973BA"/>
<path d="M14.1406 7.05829C15.267 7.13755 16.3663 7.4409 17.3739 7.95056C18.3815 8.46021 19.2773 9.16592 20.0086 10.0263C20.0086 10.0263 18.7316 5.67729 16.0396 5.74629C15.617 5.69244 15.1894 5.79659 14.8389 6.03874C14.4884 6.28089 14.2398 6.64397 14.1406 7.05829Z" fill="white"/>
<path d="M20.3533 11.4055C20.3533 11.4055 17.3353 7.85045 13.3113 8.19545C13.3113 8.19545 10.0323 8.02246 10.4463 11.3365C10.4463 11.3365 14.5893 10.3365 16.7123 11.5785C16.7123 11.5785 10.6193 12.3725 10.9643 17.3085C10.9643 17.3085 10.8643 21.4505 16.1763 21.1085C16.1763 21.1085 21.9063 20.6255 21.2503 13.7565C21.9546 13.837 22.6351 14.0602 23.2503 14.4125C23.2503 14.4125 24.1713 11.3295 20.3533 11.4055ZM17.0743 18.5845C14.0743 19.5165 14.1403 16.9625 14.1403 16.9625C14.3473 13.6835 18.3863 13.5795 18.3863 13.5795C20.4563 17.1695 17.0743 18.5845 17.0743 18.5845Z" fill="white"/>
<path d="M16.3173 25.9003C17.0988 25.9003 17.7323 25.2668 17.7323 24.4853C17.7323 23.7038 17.0988 23.0703 16.3173 23.0703C15.5359 23.0703 14.9023 23.7038 14.9023 24.4853C14.9023 25.2668 15.5359 25.9003 16.3173 25.9003Z" fill="white"/>
</svg>
