<svg width="32" height="32" viewBox="0 0 32 32" fill="none" xmlns="http://www.w3.org/2000/svg">
<path d="M24 0H8C3.58172 0 0 3.58172 0 8V24C0 28.4183 3.58172 32 8 32H24C28.4183 32 32 28.4183 32 24V8C32 3.58172 28.4183 0 24 0Z" fill="#FEE500"/>
<g clip-path="url(#clip0_1489_2925)">
<path d="M15.9966 7.63281C11.0285 7.63281 7 10.829 7 14.7731C7 17.3232 8.68306 19.5571 11.2178 20.8254L10.3053 24.1065C10.3053 24.1065 10.2884 24.2595 10.3864 24.3173C10.4844 24.3751 10.6027 24.3309 10.6027 24.3309C10.8866 24.2901 13.881 22.1718 14.4048 21.8046C14.9219 21.8794 15.4593 21.9168 16.0034 21.9168C20.9715 21.9168 25 18.7207 25 14.7765C25 10.8324 20.9647 7.63281 15.9966 7.63281Z" fill="black"/>
<path d="M15.9966 7.63281C11.0285 7.63281 7 10.829 7 14.7731C7 17.3232 8.68306 19.5571 11.2178 20.8254L10.3053 24.1065C10.3053 24.1065 10.2884 24.2595 10.3864 24.3173C10.4844 24.3751 10.6027 24.3309 10.6027 24.3309C10.8866 24.2901 13.881 22.1718 14.4048 21.8046C14.9219 21.8794 15.4593 21.9168 16.0034 21.9168C20.9715 21.9168 25 18.7207 25 14.7765C25 10.8324 20.9647 7.63281 15.9966 7.63281Z" fill="black" fill-opacity="0.2"/>
<path d="M11.0219 17.2619C10.7346 17.2619 10.5014 17.0375 10.5014 16.7621V13.6577H9.6903C9.40979 13.6577 9.18335 13.4299 9.18335 13.1477C9.18335 12.8655 9.41317 12.6377 9.6903 12.6377H12.3501C12.6306 12.6377 12.857 12.8655 12.857 13.1477C12.857 13.4299 12.6272 13.6577 12.3501 13.6577H11.539V16.7621C11.539 17.0341 11.3024 17.2619 11.0185 17.2619H11.0219ZM15.5743 17.2551C15.358 17.2551 15.1924 17.1667 15.1417 17.0239L14.8848 16.3438H13.3031L13.0463 17.0239C12.9956 17.1667 12.83 17.2551 12.6137 17.2551C12.4988 17.2551 12.3873 17.2313 12.2825 17.1871C12.1405 17.1191 12.002 16.9389 12.1608 16.4458L13.4011 13.1579C13.489 12.9063 13.756 12.6479 14.094 12.6411C14.4319 12.6343 14.7023 12.9063 14.7868 13.1579L16.0271 16.4458C16.186 16.9389 16.0474 17.1259 15.9055 17.1871C15.8041 17.2347 15.6892 17.2551 15.5743 17.2551ZM14.6111 15.419L14.094 13.9365L13.5769 15.419H14.6111ZM16.8619 17.1871C16.5915 17.1871 16.3651 16.9729 16.3651 16.7111V13.1579C16.3651 12.8689 16.6017 12.6343 16.8957 12.6343C17.1897 12.6343 17.4263 12.8723 17.4263 13.1579V16.2248H18.5281C18.7984 16.2248 19.0249 16.439 19.0249 16.7009C19.0249 16.9627 18.8018 17.1769 18.5281 17.1769L16.8619 17.1871ZM19.2243 16.7315V13.1613C19.2243 12.8723 19.4609 12.6377 19.7447 12.6377C20.0286 12.6377 20.2652 12.8757 20.2652 13.1613V14.2833L21.7185 12.8213C21.8784 12.6603 22.1808 12.6745 22.364 12.8587C22.536 13.0317 22.5807 13.3243 22.4011 13.5081L21.2115 14.6982L22.489 16.3982C22.6607 16.6193 22.619 16.9636 22.3876 17.1259C22.1595 17.2959 21.8244 17.2392 21.661 17.0239L20.4443 15.402L20.2652 15.5822V16.7213C20.2652 17.3997 19.2243 17.4259 19.2243 16.7315Z" fill="#FEE500"/>
</g>
<defs>
<clipPath id="clip0_1489_2925">
<rect width="18" height="18" fill="white" transform="translate(7 7)"/>
</clipPath>
</defs>
</svg>
