<svg width="32" height="32" viewBox="0 0 32 32" fill="none" xmlns="http://www.w3.org/2000/svg">
<path d="M26 0H6C2.68629 0 0 2.68629 0 6V26C0 29.3137 2.68629 32 6 32H26C29.3137 32 32 29.3137 32 26V6C32 2.68629 29.3137 0 26 0Z" fill="#5B5B5B"/>
<path d="M7.73242 25.5V19.4902H10.0898C11.4595 19.4902 12.2397 20.3286 12.2397 21.5156C12.2397 22.7192 11.4429 23.541 10.0566 23.541H8.97754V25.5H7.73242ZM8.97754 22.5366H9.85742C10.5962 22.5366 10.9531 22.1216 10.9531 21.5156C10.9531 20.918 10.5962 20.5112 9.85742 20.5112H8.97754V22.5366ZM18.042 19.4902V25.5H16.9629L14.3232 21.6816H14.2734V25.5H13.0283V19.4902H14.124L16.7471 23.3086H16.8052V19.4902H18.042ZM23.0474 21.4243C22.8813 20.8599 22.4248 20.5112 21.769 20.5112C20.8394 20.5112 20.2085 21.2251 20.2085 22.4868C20.2085 23.7568 20.8228 24.479 21.7773 24.479C22.6365 24.479 23.147 23.9934 23.1636 23.2339H21.8604V22.2959H24.3672V23.043C24.3672 24.6201 23.2881 25.583 21.769 25.583C20.084 25.583 18.9385 24.4043 18.9385 22.5034C18.9385 20.5527 20.1587 19.4072 21.7441 19.4072C23.0972 19.4072 24.1431 20.2373 24.3091 21.4243H23.0474Z" fill="white"/>
<path d="M12.1915 6.80697C12.1911 7.20596 12.0502 7.5885 11.7997 7.87062C11.5491 8.15275 11.2094 8.31142 10.855 8.31181L9 8.31181L9 15.0361C9 15.557 9.18376 16.0565 9.51086 16.4248C9.83795 16.7931 10.2816 17 10.7442 17L21.2584 17C21.7206 16.9992 22.1635 16.792 22.4901 16.4238C22.8166 16.0555 23 15.5565 23 15.0361L23 6.96387C23 6.4434 22.8165 5.94421 22.4898 5.57598C22.1632 5.20774 21.72 5.00058 21.2578 5L12.1915 5L12.1915 6.80697Z" fill="white"/>
<path d="M12.1915 5.0007L12.1915 6.80767C12.1911 7.20665 12.0502 7.58919 11.7997 7.87132C11.5491 8.15345 11.2094 8.31211 10.855 8.3125L9 8.3125L12.1915 5.0007Z" fill="#969696"/>
<path d="M13 13L13 14L14 14L14 13L13 13Z" fill="#5B5B5B"/>
<path d="M14 12L14 13L15 13L15 12L14 12Z" fill="#5B5B5B"/>
<path d="M13 11L13 12L14 12L14 11L13 11Z" fill="#5B5B5B"/>
<path d="M14 10L14 11L15 11L15 10L14 10Z" fill="#5B5B5B"/>
<path d="M13 9L13 10L14 10L14 9L13 9Z" fill="#5B5B5B"/>
<path d="M14 8L14 9L15 9L15 8L14 8Z" fill="#5B5B5B"/>
<path d="M15 13L15 14L16 14L16 13L15 13Z" fill="#5B5B5B"/>
<path d="M16 12L16 13L17 13L17 12L16 12Z" fill="#5B5B5B"/>
<path d="M15 11L15 12L16 12L16 11L15 11Z" fill="#5B5B5B"/>
<path d="M16 10L16 11L17 11L17 10L16 10Z" fill="#5B5B5B"/>
<path d="M15 9L15 10L16 10L16 9L15 9Z" fill="#5B5B5B"/>
<path d="M16 8L16 9L17 9L17 8L16 8Z" fill="#5B5B5B"/>
<path d="M17 13L17 14L18 14L18 13L17 13Z" fill="#5B5B5B"/>
<path d="M18 12L18 13L19 13L19 12L18 12Z" fill="#5B5B5B"/>
<path d="M17 11L17 12L18 12L18 11L17 11Z" fill="#5B5B5B"/>
<path d="M18 10L18 11L19 11L19 10L18 10Z" fill="#5B5B5B"/>
<path d="M17 9L17 10L18 10L18 9L17 9Z" fill="#5B5B5B"/>
<path d="M18 8L18 9L19 9L19 8L18 8Z" fill="#5B5B5B"/>
</svg>
