<svg width="32" height="32" viewBox="0 0 32 32" fill="none" xmlns="http://www.w3.org/2000/svg">
<path d="M26 0H6C2.68629 0 0 2.68629 0 6V26C0 29.3137 2.68629 32 6 32H26C29.3137 32 32 29.3137 32 26V6C32 2.68629 29.3137 0 26 0Z" fill="#D14527"/>
<path d="M9.08203 7.35371H17.655C19.1749 7.23518 20.6812 7.7129 21.855 8.68571C22.3384 9.18582 22.7122 9.78129 22.9524 10.4341C23.1926 11.0868 23.294 11.7825 23.25 12.4767C23.2912 13.2054 23.1771 13.9345 22.915 14.6157C22.653 15.2969 22.2489 15.9145 21.73 16.4277C20.4208 17.4754 18.7615 17.9843 17.0901 17.8507H14.2671V24.0447H9.08691L9.08203 7.35371ZM14.262 14.4697H15.5261C16.2631 14.5406 17.0021 14.3579 17.6211 13.9517C17.8147 13.7904 17.9693 13.5872 18.0732 13.3576C18.1772 13.1279 18.2276 12.8777 18.2209 12.6257C18.2262 12.3801 18.1827 12.1358 18.0928 11.9071C18.0028 11.6785 17.8682 11.47 17.697 11.2937C17.1365 10.8621 16.4298 10.6662 15.7271 10.7477H14.2581V14.4707L14.262 14.4697Z" fill="white"/>
</svg>
