<svg width="32" height="32" viewBox="0 0 32 32" fill="none" xmlns="http://www.w3.org/2000/svg">
<circle cx="16" cy="16" r="16" fill="#172E55"/>
<path d="M23.0101 20.9088L24.0756 22.083C24.3753 22.3648 24.5255 22.7016 24.5255 23.0928C24.5255 23.4841 24.3913 23.8055 24.1229 24.1027C23.8542 24.3999 23.5228 24.5489 23.1283 24.5489C22.7338 24.5489 22.3625 24.3845 22.0155 24.0558L20.9737 22.9756C19.5056 24.0404 17.856 24.5725 16.0249 24.5725C14.9512 24.5725 13.8821 24.353 12.8165 23.9151C11.751 23.477 10.8077 22.8584 9.98694 22.0601C9.19748 21.2932 8.57399 20.3694 8.11647 19.289C7.65845 18.2083 7.42969 17.0969 7.42969 15.954C7.42969 14.7485 7.64638 13.602 8.08076 12.5137C8.51464 11.4258 9.14232 10.5061 9.96331 9.75461C11.6208 8.20458 13.6412 7.42969 16.0249 7.42969C17.114 7.42969 18.1874 7.63336 19.245 8.04022C20.3024 8.44757 21.2258 9.01879 22.0153 9.75461C23.72 11.3515 24.5725 13.4181 24.5725 15.9542C24.5725 17.6449 24.052 19.2965 23.0101 20.9088ZM17.5403 18.8425C17.5403 18.4669 17.6824 18.1421 17.9665 17.8679C18.2507 17.5941 18.5821 17.4415 18.9611 17.41C19.4189 17.41 19.8055 17.5824 20.1214 17.9267L20.9264 18.7722C21.4314 17.9114 21.6841 16.9641 21.6841 15.9308C21.6841 14.381 21.1355 13.0542 20.0384 11.9503C18.9412 10.8467 17.6033 10.2948 16.0249 10.2948C14.541 10.2948 13.2189 10.8233 12.0589 11.88C10.8985 12.9367 10.3184 14.295 10.3184 15.9542C10.3184 17.4886 10.8825 18.8308 12.0113 19.9816C13.1399 21.1323 14.4775 21.7077 16.0249 21.7077C17.035 21.7077 18.0138 21.4183 18.9611 20.8388L17.9904 19.8995C17.6902 19.6023 17.5403 19.2499 17.5403 18.8425Z" fill="white"/>
</svg>
