<svg width="32" height="32" viewBox="0 0 32 32" fill="none" xmlns="http://www.w3.org/2000/svg">
<path d="M24 0H8C3.58172 0 0 3.58172 0 8V24C0 28.4183 3.58172 32 8 32H24C28.4183 32 32 28.4183 32 24V8C32 3.58172 28.4183 0 24 0Z" fill="#455777"/>
<g clip-path="url(#clip0_1489_2918)">
<path d="M14.0833 17.2082C14.3874 17.6149 14.7755 17.9514 15.2212 18.1949C15.6669 18.4384 16.1597 18.5832 16.6663 18.6195C17.1729 18.6557 17.6813 18.5827 18.1571 18.4052C18.633 18.2277 19.065 17.9499 19.4241 17.5907L21.5491 15.4657C22.1942 14.7978 22.5512 13.9031 22.5431 12.9745C22.5351 12.0459 22.1626 11.1576 21.5059 10.501C20.8493 9.8443 19.961 9.47183 19.0324 9.46376C18.1038 9.45569 17.2091 9.81267 16.5412 10.4578L15.3228 11.6691" stroke="white" stroke-width="2" stroke-linecap="round" stroke-linejoin="round"/>
<path d="M16.9166 15.7916C16.6124 15.3849 16.2243 15.0485 15.7786 14.805C15.3329 14.5615 14.8401 14.4167 14.3335 14.3804C13.827 14.3441 13.3185 14.4172 12.8427 14.5947C12.3669 14.7722 11.9348 15.0499 11.5757 15.4091L9.45073 17.5341C8.80559 18.2021 8.44861 19.0967 8.45668 20.0253C8.46475 20.9539 8.83722 21.8422 9.49387 22.4989C10.1505 23.1556 11.0388 23.528 11.9674 23.5361C12.896 23.5442 13.7907 23.1872 14.4586 22.542L15.6699 21.3308" stroke="white" stroke-width="2" stroke-linecap="round" stroke-linejoin="round"/>
</g>
<defs>
<clipPath id="clip0_1489_2918">
<rect width="17" height="17" fill="white" transform="translate(7 8)"/>
</clipPath>
</defs>
</svg>
