<svg width="32" height="32" viewBox="0 0 32 32" fill="none" xmlns="http://www.w3.org/2000/svg">
<path d="M26 0H6C2.68629 0 0 2.68629 0 6V26C0 29.3137 2.68629 32 6 32H26C29.3137 32 32 29.3137 32 26V6C32 2.68629 29.3137 0 26 0Z" fill="#295695"/>
<path d="M21.9632 13.0915C22.237 12.5764 22.4843 12.0478 22.7043 11.5075C22.8446 11.1829 22.9256 10.8357 22.9433 10.4825C22.9498 10.2968 22.9227 10.1115 22.8633 9.93549C22.8036 9.79159 22.6981 9.6714 22.5632 9.59351C22.3811 9.48947 22.1797 9.4235 21.9713 9.39954L22.1422 8.64752H26.9843L26.8132 9.39954C26.5739 9.44051 26.3465 9.53367 26.1472 9.67249C25.9363 9.82584 25.7499 10.0103 25.5943 10.2195C25.4059 10.4676 25.2345 10.7283 25.0813 10.9995C24.9139 11.2922 24.6899 11.7005 24.4093 12.2245L17.8813 24.2775H15.1472L15.1243 16.9405V15.0035C15.1243 14.5095 15.1279 13.9932 15.1353 13.4545H14.9872C14.7366 13.9939 14.5239 14.4458 14.3492 14.8105L9.58725 24.2775H6.85326L6.62524 12.1555C6.62856 11.6042 6.57326 11.0541 6.46025 10.5145C6.40242 10.2199 6.27101 9.94472 6.07825 9.71454C5.89443 9.53963 5.65842 9.42966 5.40625 9.40149L5.57726 8.64954H11.4102L11.2392 9.40149C11.0447 9.42478 10.8546 9.47666 10.6752 9.55548C10.5209 9.62672 10.3876 9.73663 10.2883 9.87451C10.177 10.0366 10.1033 10.2214 10.0723 10.4155C10.0331 10.6135 10.0084 10.814 9.99825 11.0155L9.98724 12.3485L9.94125 16.6325C9.93392 17.2632 9.91491 18.0228 9.88425 18.9115L9.82726 20.2675H9.97525C10.1499 19.8802 10.3379 19.4775 10.5392 19.0595C10.7406 18.6415 11.1073 17.9009 11.6393 16.8375L15.7522 8.64648H18.2473L18.2583 16.1085L18.2693 17.1225C18.2693 18.1892 18.2426 19.2372 18.1893 20.2665H18.3372C18.6939 19.5225 19.3356 18.2352 20.2623 16.4045L21.9632 13.0915Z" fill="white"/>
</svg>
