<svg width="320" height="150" viewBox="0 0 320 150" fill="none" xmlns="http://www.w3.org/2000/svg">
<mask id="path-1-inside-1_1998_152" fill="white">
<path d="M320 44C320 49.5228 315.255 53.7928 310.41 56.4447C304.207 59.8407 300 66.4291 300 74C300 81.5709 304.207 88.1593 310.41 91.5553C315.255 94.2072 320 98.4771 320 104V140C320 145.523 315.523 150 310 150H10C4.47715 150 0 145.523 0 140V10C0 4.47715 4.47715 0 10 0H310C315.523 0 320 4.47715 320 10V44Z"/>
</mask>
<path d="M320 44C320 49.5228 315.255 53.7928 310.41 56.4447C304.207 59.8407 300 66.4291 300 74C300 81.5709 304.207 88.1593 310.41 91.5553C315.255 94.2072 320 98.4771 320 104V140C320 145.523 315.523 150 310 150H10C4.47715 150 0 145.523 0 140V10C0 4.47715 4.47715 0 10 0H310C315.523 0 320 4.47715 320 10V44Z" fill="white"/>
<path d="M310.41 91.5553L310.89 90.6781L310.41 91.5553ZM310.41 56.4447L309.93 55.5675C303.419 59.1319 299 66.0492 299 74H300H301C301 66.809 304.995 60.5494 310.89 57.3219L310.41 56.4447ZM300 74H299C299 81.9508 303.419 88.8681 309.93 92.4325L310.41 91.5553L310.89 90.6781C304.995 87.4506 301 81.191 301 74H300ZM320 104H319V140H320H321V104H320ZM310 150V149H10V150V151H310V150ZM0 140H1V10H0H-1V140H0ZM10 0V1H310V0V-1H10V0ZM320 10H319V44H320H321V10H320ZM310 0V1C314.971 1 319 5.02944 319 10H320H321C321 3.92487 316.075 -1 310 -1V0ZM10 150V149C5.02944 149 1 144.971 1 140H0H-1C-1 146.075 3.92487 151 10 151V150ZM320 140H319C319 144.971 314.971 149 310 149V150V151C316.075 151 321 146.075 321 140H320ZM310.41 91.5553L309.93 92.4325C312.284 93.7212 314.573 95.3822 316.263 97.3521C317.948 99.3169 319 101.543 319 104H320H321C321 100.934 319.68 98.2639 317.781 96.0501C315.887 93.8413 313.381 92.0413 310.89 90.6781L310.41 91.5553ZM0 10H1C1 5.02944 5.02944 1 10 1V0V-1C3.92487 -1 -1 3.92487 -1 10H0ZM310.41 56.4447L310.89 57.3219C313.381 55.9587 315.887 54.1587 317.781 51.9499C319.68 49.7361 321 47.0657 321 44H320H319C319 46.4572 317.948 48.6831 316.263 50.6479C314.573 52.6178 312.284 54.2788 309.93 55.5675L310.41 56.4447Z" fill="#E1E1E1" mask="url(#path-1-inside-1_1998_152)"/>
</svg>
