<svg width="148" height="20" viewBox="0 0 148 20" fill="none" xmlns="http://www.w3.org/2000/svg">
<path d="M30.8205 19.1993H38.3324C38.702 19.1993 39.0564 19.0524 39.3177 18.7911C39.5791 18.5298 39.7259 18.1753 39.7259 17.8057C39.7259 17.4361 39.5791 17.0817 39.3177 16.8204C39.0564 16.559 38.702 16.4122 38.3324 16.4122H30.8205V19.1993Z" fill="#191919"/>
<path d="M11.3752 17.7838V1.70623C11.3752 1.33828 11.2291 0.985398 10.9689 0.725217C10.7087 0.465036 10.3558 0.318848 9.98787 0.318848C9.61992 0.318848 9.26704 0.465036 9.00686 0.725217C8.74668 0.985398 8.60051 1.33828 8.60051 1.70623V17.7838C8.60012 18.0142 8.65724 18.2411 8.76667 18.4438L8.78668 18.4784C8.78936 18.4847 8.79271 18.4906 8.79668 18.4961C8.79922 18.5016 8.80231 18.5067 8.8059 18.5115C8.93415 18.7218 9.11618 18.894 9.3332 19.0105C9.55021 19.127 9.79438 19.1835 10.0405 19.1742C10.2866 19.1649 10.5258 19.0901 10.7334 18.9575C10.941 18.8249 11.1094 18.6394 11.2214 18.42L11.2252 18.4123L11.2345 18.3938L11.2414 18.3792L11.2475 18.3661L11.2575 18.3454V18.3384L11.2683 18.3131C11.2848 18.2723 11.2992 18.2307 11.3114 18.1884C11.3114 18.1784 11.3176 18.1684 11.3206 18.1576L11.3276 18.1307V18.1199L11.3322 18.0992L11.336 18.0792V18.0692C11.355 17.9776 11.3645 17.8843 11.3645 17.7907" fill="#191919"/>
<path d="M18.1054 9.74268C18.1054 9.37473 17.9592 9.02185 17.699 8.76167C17.4388 8.50149 17.086 8.35535 16.718 8.35535C16.3501 8.35535 15.9972 8.50149 15.737 8.76167C15.4768 9.02185 15.3307 9.37473 15.3307 9.74268V19.1723H18.1054V9.74268Z" fill="#191919"/>
<path d="M11.3754 17.7839V17.7485C11.3697 17.5308 11.3133 17.3175 11.2108 17.1254L8.6007 12.2459L2.60969 1.04549C2.52352 0.884966 2.40658 0.742989 2.26553 0.627662C2.12449 0.512335 1.96212 0.425945 1.78768 0.37337C1.61324 0.320796 1.43016 0.303071 1.24888 0.321254C1.0676 0.339436 0.891666 0.393123 0.731144 0.479294C0.570621 0.565465 0.428645 0.682411 0.313318 0.823452C0.197991 0.964493 0.111577 1.12689 0.0590024 1.30133C0.00642803 1.47577 -0.0112732 1.65887 0.00690913 1.84015C0.0250914 2.02143 0.0788022 2.19732 0.164973 2.35784L8.76531 18.4393L8.78531 18.4739C8.788 18.4801 8.79135 18.4861 8.79531 18.4916C8.79787 18.497 8.80096 18.5022 8.80454 18.507C8.83538 18.557 8.86931 18.605 8.9061 18.6508C8.93571 18.6876 8.96756 18.7226 9.00148 18.7555C9.00994 18.7639 9.01609 18.7723 9.02456 18.7793C9.06071 18.8146 9.10147 18.8462 9.13916 18.8778L9.15687 18.8924C9.19771 18.9229 9.24036 18.9509 9.28458 18.9762L9.3038 18.9878C9.35058 19.0147 9.39916 19.0383 9.44919 19.0585L9.45996 19.0639C9.62736 19.133 9.8066 19.1687 9.98768 19.1693C10.115 19.1686 10.2416 19.1503 10.3638 19.1147L10.3954 19.1047C10.4408 19.0908 10.4869 19.0739 10.5331 19.0547L10.5785 19.0331C10.6 19.0231 10.6208 19.0155 10.6408 19.0039C10.6608 18.9924 10.6692 18.9854 10.6839 18.977C10.7131 18.96 10.7408 18.9408 10.7685 18.9231C10.7962 18.9054 10.8246 18.8847 10.8508 18.8631C10.8769 18.8416 10.9 18.82 10.9239 18.7985C10.9477 18.777 10.9739 18.7547 10.9962 18.73C11.0185 18.7054 11.0423 18.6762 11.0639 18.6493C11.0854 18.6224 11.1031 18.6039 11.12 18.5793C11.1574 18.5266 11.1911 18.4713 11.2208 18.4139L11.2247 18.4062L11.2339 18.3877L11.2408 18.3731L11.247 18.36L11.257 18.3393V18.3323L11.2677 18.307C11.2843 18.2662 11.2986 18.2246 11.3108 18.1823C11.3108 18.1723 11.317 18.1623 11.32 18.1516L11.327 18.1247V18.1139L11.3316 18.0931L11.3354 18.0731V18.0631C11.3544 17.9715 11.3639 17.8782 11.3639 17.7846" fill="#191919"/>
<path d="M2.77568 9.57347L0.000936508 4.38635V19.1723H2.77568V9.57347Z" fill="#191919"/>
<path d="M23.6164 8.35266H19.207V11.1336H23.6164C23.9852 11.1336 24.3389 10.9871 24.5996 10.7263C24.8604 10.4656 25.0069 10.1119 25.0069 9.74314C25.0069 9.37438 24.8604 9.02068 24.5996 8.75992C24.3389 8.49916 23.9852 8.35266 23.6164 8.35266Z" fill="#191919"/>
<path d="M24.4827 16.3922H19.2079V19.1738H24.4827C24.8516 19.1738 25.2054 19.0273 25.4662 18.7665C25.727 18.5057 25.8735 18.1519 25.8735 17.783C25.8735 17.4142 25.727 17.0604 25.4662 16.7996C25.2054 16.5387 24.8516 16.3922 24.4827 16.3922Z" fill="#191919"/>
<path d="M8.60199 12.2467V17.7853C8.6014 18.0155 8.65851 18.2422 8.76813 18.4446C8.77505 18.4569 8.7812 18.4685 8.78813 18.48C8.7908 18.4863 8.79415 18.4922 8.79813 18.4977L8.80738 18.5139C8.83854 18.5634 8.87243 18.6112 8.90891 18.6569C8.92122 18.6723 8.93583 18.6862 8.94814 18.7C8.96045 18.7139 8.98585 18.7439 9.00662 18.7639L9.02662 18.7862C9.03816 18.7977 9.05277 18.8085 9.06507 18.8192C9.09277 18.8438 9.11969 18.8685 9.14816 18.8908L9.15816 18.8985C9.19933 18.9289 9.24222 18.9569 9.28662 18.9823C9.29237 18.9866 9.29857 18.9902 9.30509 18.9931C9.33399 19.0094 9.36378 19.024 9.39432 19.0369C9.41256 19.0471 9.4313 19.0564 9.45048 19.0646H9.45816C9.51086 19.0863 9.56482 19.1048 9.61972 19.1201L9.64279 19.127C9.75616 19.156 9.8727 19.1707 9.98972 19.1708C10.1175 19.1706 10.2446 19.1527 10.3674 19.1177L10.3944 19.1093C10.4428 19.0939 10.4905 19.077 10.5367 19.0577L10.5797 19.0377C10.6174 19.0208 10.6567 19.0008 10.689 18.98C10.7213 18.9593 10.7444 18.9454 10.7713 18.9277C10.7982 18.91 10.8275 18.8885 10.8536 18.8677C10.8798 18.847 10.9028 18.8246 10.9267 18.8023C10.9326 18.798 10.938 18.7932 10.9428 18.7877C10.9621 18.7708 10.9813 18.7531 10.9998 18.7339C11.0182 18.7146 11.0451 18.6815 11.0667 18.6569C11.0882 18.6323 11.1059 18.6108 11.1228 18.5862C11.1604 18.5335 11.1941 18.4783 11.2236 18.4208L11.2275 18.4138L11.2367 18.3946L11.2436 18.38L11.2498 18.3677L11.2598 18.3469V18.3392L11.2705 18.3138C11.2875 18.2738 11.3013 18.2315 11.3136 18.19C11.3136 18.1792 11.3198 18.1692 11.3229 18.1592V18.1554L11.3298 18.1285V18.1185L11.3344 18.0985L11.3382 18.0777V18.0677C11.3571 17.9761 11.3667 17.8827 11.3667 17.7892V17.7538C11.3611 17.5362 11.3048 17.3228 11.2021 17.1307L8.60199 12.2467Z" fill="#191919"/>
<g style="mix-blend-mode:color">
<path d="M11.3751 17.7839C11.3741 18.0575 11.292 18.3247 11.1392 18.5517C10.9864 18.7787 10.7697 18.9553 10.5166 19.0593C10.2635 19.1632 9.98529 19.1899 9.71704 19.1358C9.4488 19.0818 9.20259 18.9495 9.00948 18.7557C8.81637 18.5618 8.68502 18.3151 8.63203 18.0466C8.57904 17.7782 8.60675 17.5 8.71171 17.2473C8.81667 16.9946 8.99416 16.7787 9.22175 16.6268C9.44934 16.4749 9.71684 16.3938 9.99047 16.3938C10.3583 16.395 10.7106 16.542 10.9701 16.8026C11.2297 17.0632 11.3753 17.4161 11.3751 17.7839Z" fill="#191919"/>
</g>
<path d="M15.3301 9.74273V4.90175C15.3293 4.29974 15.4471 3.70349 15.6767 3.14701C15.9064 2.59053 16.2435 2.08477 16.6687 1.65859C17.0939 1.2324 17.5988 0.894143 18.1548 0.663156C18.7107 0.43217 19.3067 0.312984 19.9087 0.312378H24.4843C24.8531 0.312378 25.2067 0.458834 25.4675 0.719593C25.7282 0.980351 25.8747 1.33405 25.8747 1.70281C25.8747 2.07158 25.7282 2.42523 25.4675 2.68599C25.2067 2.94675 24.8531 3.09325 24.4843 3.09325H19.911C19.4321 3.09447 18.9732 3.2855 18.6349 3.62451C18.2966 3.96352 18.1065 4.42282 18.1063 4.90175V9.74273C18.1063 10.1107 17.9602 10.4636 17.7 10.7237C17.4398 10.9839 17.0869 11.1301 16.719 11.1301C16.351 11.1301 15.9981 10.9839 15.738 10.7237C15.4778 10.4636 15.3316 10.1107 15.3316 9.74273" fill="#191919"/>
<path d="M18.1056 9.74272C18.1045 10.0164 18.0224 10.2835 17.8696 10.5105C17.7168 10.7375 17.5002 10.9142 17.2471 11.0182C16.994 11.1221 16.7157 11.1488 16.4475 11.0948C16.1792 11.0407 15.933 10.9084 15.7399 10.7146C15.5468 10.5207 15.4155 10.274 15.3625 10.0055C15.3095 9.73706 15.3372 9.45895 15.4422 9.20625C15.5471 8.95355 15.7246 8.7376 15.9522 8.58568C16.1798 8.43377 16.4473 8.35266 16.7209 8.35266C17.0887 8.35388 17.441 8.5009 17.7005 8.76147C17.9601 9.02205 18.1058 9.37493 18.1056 9.74272Z" fill="#191919"/>
<g style="mix-blend-mode:color">
<path d="M18.1056 9.74197C18.1047 10.0156 18.0227 10.2829 17.87 10.51C17.7173 10.7371 17.5007 10.9138 17.2476 11.0179C16.9945 11.122 16.7162 11.1488 16.448 11.0948C16.1797 11.0409 15.9334 10.9086 15.7402 10.7148C15.547 10.521 15.4156 10.2743 15.3625 10.0058C15.3095 9.73732 15.3371 9.45914 15.4421 9.20639C15.547 8.95364 15.7245 8.73768 15.9521 8.58573C16.1797 8.43378 16.4472 8.35266 16.7209 8.35266C17.0886 8.35388 17.4408 8.50083 17.7003 8.76124C17.9598 9.02165 18.1056 9.37431 18.1056 9.74197Z" fill="#191919"/>
</g>
<path d="M72.4985 18.9607C72.4985 19.1615 72.3869 19.2476 72.1907 19.2476C71.5868 19.226 70.9931 19.0854 70.4436 18.8338C69.8941 18.5822 69.3997 18.2246 68.9887 17.7815C68.5778 17.3383 68.2583 16.8184 68.0488 16.2516C67.8392 15.6847 67.7436 15.0821 67.7675 14.4782V8.41411C67.7675 8.21333 67.6844 8.12718 67.4898 8.12718H65.932C65.7374 8.12718 65.6544 8.04104 65.6544 7.84026V7.06405L68.8245 3.61472L69.0191 3.52856H69.6876C69.8822 3.52856 69.966 3.61469 69.966 3.81624V5.88555C69.966 6.08633 70.0491 6.17248 70.2445 6.17248H72.2184C72.4131 6.17248 72.4977 6.25944 72.4977 6.45945V7.83951C72.4977 8.04029 72.4138 8.12643 72.2184 8.12643H70.2445C70.0499 8.12643 69.966 8.21258 69.966 8.41336V14.4782C69.9632 15.1365 70.1934 15.7746 70.6157 16.2796C71.0381 16.7846 71.6254 17.1239 72.2738 17.2376C72.3413 17.2468 72.4024 17.282 72.4441 17.3358C72.4859 17.3896 72.5048 17.4576 72.4969 17.5252L72.4985 18.9607Z" fill="#191919"/>
<path d="M63.8259 8.09497C63.8259 8.42969 63.7267 8.75688 63.5407 9.03519C63.3548 9.3135 63.0904 9.53043 62.7812 9.65852C62.472 9.78661 62.1317 9.82012 61.8034 9.75482C61.4751 9.68952 61.1736 9.52832 60.9369 9.29164C60.7002 9.05496 60.539 8.75343 60.4737 8.42514C60.4084 8.09685 60.4419 7.75656 60.57 7.44732C60.6981 7.13808 60.915 6.87378 61.1933 6.68782C61.4716 6.50186 61.7988 6.40259 62.1336 6.40259C62.3558 6.40259 62.5759 6.44637 62.7812 6.53142C62.9865 6.61647 63.1731 6.74111 63.3302 6.89826C63.4874 7.05541 63.6121 7.24199 63.6971 7.44732C63.7822 7.65265 63.8259 7.87273 63.8259 8.09497Z" fill="#191919"/>
<path d="M56.1763 8.09497C56.1763 8.42969 56.077 8.75688 55.891 9.03519C55.7051 9.3135 55.4408 9.53043 55.1315 9.65852C54.8223 9.78661 54.482 9.82012 54.1537 9.75482C53.8254 9.68952 53.5239 9.52832 53.2872 9.29164C53.0505 9.05496 52.8893 8.75343 52.824 8.42514C52.7587 8.09685 52.7922 7.75656 52.9203 7.44732C53.0484 7.13808 53.2653 6.87378 53.5437 6.68782C53.822 6.50186 54.1492 6.40259 54.4839 6.40259C54.7061 6.40259 54.9262 6.44637 55.1315 6.53142C55.3369 6.61647 55.5234 6.74111 55.6806 6.89826C55.8377 7.05541 55.9624 7.24199 56.0474 7.44732C56.1325 7.65265 56.1763 7.87273 56.1763 8.09497Z" fill="#191919"/>
<path d="M61.0377 11.255V14.7644C61.0472 15.1224 60.986 15.4788 60.8578 15.8132C60.7295 16.1475 60.5366 16.4534 60.2901 16.7132C60.0436 16.9731 59.7484 17.1818 59.4212 17.3275C59.0941 17.4733 58.7414 17.5531 58.3834 17.5626C58.0254 17.572 57.669 17.5108 57.3346 17.3826C57.0003 17.2543 56.6944 17.0614 56.4346 16.8149C56.1748 16.5684 55.966 16.2732 55.8203 15.9461C55.6745 15.6189 55.5947 15.2663 55.5852 14.9082V11.255H53.3875V14.7644C53.3875 16.0701 53.9062 17.3224 54.8294 18.2457C55.7527 19.169 57.005 19.6877 58.3107 19.6877C59.6165 19.6877 60.8687 19.169 61.792 18.2457C62.7153 17.3224 63.234 16.0701 63.234 14.7644V11.255H61.0377Z" fill="#191919"/>
<path d="M82.5688 10.7688C82.5498 10.0458 82.2444 9.35987 81.7197 8.86202C81.195 8.36416 80.494 8.09514 79.771 8.11412C79.0479 8.13309 78.362 8.43851 77.8642 8.9632C77.3663 9.48789 77.0973 10.1888 77.1163 10.9119V14.9082C77.1354 15.6313 77.4411 16.3171 77.9659 16.8148C78.4907 17.3125 79.1918 17.5814 79.9148 17.5622C80.6379 17.543 81.3237 17.2374 81.8214 16.7125C82.3191 16.1877 82.588 15.4866 82.5688 14.7636V10.7688ZM74.9185 10.9119C74.9185 9.60616 75.4372 8.35393 76.3605 7.43064C77.2838 6.50734 78.536 5.98865 79.8418 5.98865C81.1475 5.98865 82.3997 6.50734 83.323 7.43064C84.2463 8.35393 84.765 9.60616 84.765 10.9119V14.7636C84.765 16.0693 84.2463 17.3216 83.323 18.2449C82.3997 19.1682 81.1475 19.6869 79.8418 19.6869C78.536 19.6869 77.2838 19.1682 76.3605 18.2449C75.4372 17.3216 74.9185 16.0693 74.9185 14.7636V10.9119Z" fill="#191919"/>
<path d="M87.9398 19.2477C87.746 19.2477 87.6621 19.1616 87.6621 18.9608V6.71565C87.6621 6.51565 87.746 6.42873 87.9398 6.42873H89.3029C89.4976 6.42873 89.5806 6.51565 89.5806 6.71565V7.89415C89.5806 8.09493 89.6922 8.23957 89.8314 8.23957C89.9145 8.23957 89.9706 8.18266 90.0537 8.09496C90.3127 7.63613 90.6773 7.24556 91.1173 6.95567C91.5573 6.66578 92.06 6.48492 92.5838 6.42798H93.1992C93.3939 6.42798 93.45 6.54256 93.45 6.74411V8.55495C93.45 8.72727 93.3669 8.84267 93.2269 8.84267C93.0869 8.84267 92.8092 8.72726 92.5869 8.72726C92.2222 8.71298 91.8585 8.7749 91.5191 8.90902C91.1796 9.04314 90.8719 9.24654 90.6154 9.50624C90.359 9.76595 90.1595 10.0762 90.0297 10.4173C89.8998 10.7585 89.8425 11.1229 89.8614 11.4874V18.96C89.8614 19.1608 89.7783 19.2469 89.5829 19.2469L87.9398 19.2477Z" fill="#191919"/>
<path d="M46.5549 19.2485C46.3611 19.2485 46.2772 19.1623 46.2772 18.9615V3.16398C46.2772 2.96321 46.1941 2.87701 45.9987 2.87701H42.7171C42.5224 2.87701 42.4394 2.79088 42.4394 2.58934V1.18158C42.4394 0.9808 42.5217 0.894653 42.7171 0.894653H52.0359C52.2305 0.894653 52.3136 0.9808 52.3136 1.18158V2.58934C52.3136 2.79088 52.2305 2.87701 52.0359 2.87701H48.7535C48.5588 2.87701 48.4757 2.96321 48.4757 3.16398V18.9592C48.4757 19.16 48.3927 19.2461 48.1965 19.2461L46.5549 19.2485Z" fill="#191919"/>
<rect x="99.45" y="5.073" width="47.69" height="14.6147" rx="7.30734" fill="#191919"/>
<path d="M129.844 13.636L129.399 14.6967C129.68 14.899 129.996 15.047 130.331 15.1325C130.716 15.2434 131.115 15.2997 131.516 15.3C131.938 15.3115 132.358 15.2329 132.747 15.0694C133.056 14.9425 133.321 14.7289 133.511 14.4541C133.678 14.1955 133.767 13.8941 133.765 13.5864C133.781 13.27 133.682 12.9579 133.487 12.7082C133.307 12.4984 133.078 12.3369 132.82 12.2372C132.503 12.1192 132.178 12.0249 131.847 11.9555C131.58 11.9034 131.32 11.824 131.07 11.7181C130.999 11.6929 130.936 11.6461 130.893 11.5844C130.849 11.5227 130.825 11.449 130.825 11.3733C130.824 11.2963 130.844 11.2206 130.881 11.1532C130.918 11.0858 130.971 11.0289 131.037 10.9887C131.24 10.876 131.471 10.8247 131.703 10.8414C132.207 10.8538 132.7 10.9969 133.133 11.2569L133.534 10.1886C133.276 10.0268 132.994 9.90898 132.697 9.84003C132.377 9.75925 132.047 9.71875 131.716 9.71983C131.297 9.70843 130.881 9.78698 130.495 9.95046C130.189 10.0777 129.927 10.2923 129.742 10.5665C129.578 10.8297 129.493 11.1338 129.495 11.4439C129.477 11.7611 129.574 12.0737 129.769 12.3244C129.944 12.5351 130.17 12.6997 130.424 12.8036C130.74 12.9248 131.064 13.0238 131.395 13.0989C131.665 13.1533 131.93 13.2345 132.185 13.3423C132.257 13.3691 132.319 13.4177 132.364 13.4813C132.408 13.5448 132.431 13.6202 132.431 13.6976C132.431 13.771 132.411 13.8432 132.373 13.9057C132.334 13.9682 132.28 14.0186 132.215 14.0522C132.002 14.1528 131.765 14.1977 131.53 14.1829C131.228 14.1797 130.93 14.1283 130.645 14.0297C130.36 13.9376 130.089 13.8047 129.842 13.636H129.844ZM120.499 9.71307C119.989 9.70583 119.485 9.8291 119.037 10.0714C118.612 10.3007 118.26 10.6438 118.02 11.0623C117.78 11.5045 117.654 11.9995 117.654 12.5024C117.654 13.0053 117.78 13.5003 118.02 13.9425C118.257 14.3622 118.606 14.7081 119.028 14.9424C119.47 15.1834 119.968 15.3067 120.472 15.3007C120.856 15.2998 121.237 15.2405 121.603 15.1242C121.959 15.0156 122.293 14.843 122.587 14.6149V12.4017H121.366V13.932C121.108 14.0449 120.829 14.1019 120.548 14.0995C120.268 14.1047 119.992 14.0353 119.747 13.8982C119.518 13.7657 119.332 13.5703 119.21 13.3355C119.084 13.0755 119.019 12.7904 119.019 12.5016C119.019 12.2129 119.084 11.9278 119.21 11.6678C119.333 11.4336 119.522 11.2399 119.752 11.1089C120.092 10.9251 120.486 10.8646 120.865 10.9383C121.245 11.0121 121.588 11.2152 121.834 11.513L122.695 10.6762C122.446 10.3649 122.124 10.1191 121.759 9.95948C121.36 9.78997 120.931 9.70587 120.497 9.71307H120.499ZM113.601 12.1966L115.96 15.1971H117.069V9.81224H115.742V12.8029L113.381 9.81224H112.273V15.1971H113.599V12.1966H113.601ZM135.607 13.0576H137.724V15.1971H139.063V9.81224H137.724V11.8654H135.607V9.81224H134.269V15.1971H135.607V13.0576ZM127.56 9.81224V15.1971H128.9V9.81224H127.56ZM123.344 9.81224V15.1971H127.176V14.0484H124.685V9.81224H123.344ZM107.6 9.81224V15.1971H111.645V14.065H108.936V13.0102H111.243V11.9187H108.936V10.9346H111.545V9.81224H107.6Z" fill="#FFD139"/>
</svg>
