<svg width="31" height="22" viewBox="0 0 31 22" fill="none" xmlns="http://www.w3.org/2000/svg">
<path d="M14.0773 20.137V1.60546C14.0773 0.718634 13.3587 0 12.4795 0C11.6003 0 10.874 0.718634 10.874 1.60546V20.137C10.874 20.4123 10.9428 20.6722 11.0651 20.8939C11.0651 20.9092 11.0804 20.9168 11.0881 20.9321C11.0881 20.9321 11.0881 20.9474 11.1034 20.9551C11.1034 20.9551 11.1034 20.9703 11.1187 20.9703C11.4015 21.4291 11.9061 21.7349 12.4871 21.7349C13.1064 21.7349 13.6492 21.3832 13.9091 20.8633C13.9091 20.8633 13.9091 20.8633 13.9091 20.8557C13.9091 20.8557 13.9091 20.8404 13.9244 20.8327V20.8174C13.9244 20.8174 13.9244 20.8098 13.9244 20.8022C13.9244 20.8022 13.9244 20.7869 13.9397 20.7792C13.9397 20.7792 13.9397 20.7792 13.9397 20.7716C13.9397 20.7639 13.9473 20.7486 13.955 20.741C13.9703 20.6951 13.9932 20.6493 14.0085 20.5957C14.0085 20.5805 14.0085 20.5728 14.0161 20.5575C14.0161 20.5575 14.0161 20.5346 14.0238 20.5269C14.0238 20.5269 14.0238 20.5193 14.0238 20.5116C14.0238 20.5116 14.0238 20.4964 14.0238 20.4887C14.0238 20.4887 14.0238 20.4734 14.0238 20.4658C14.0238 20.4658 14.0238 20.4581 14.0238 20.4505C14.0467 20.3435 14.0544 20.2364 14.0544 20.1294" fill="white"/>
<path d="M21.845 10.8713C21.845 9.98443 21.1264 9.27344 20.2472 9.27344C19.368 9.27344 18.6494 9.99207 18.6494 10.8713V21.7349H21.8527V10.8713H21.845Z" fill="white"/>
<path d="M14.0691 20.137V20.0988C14.0691 19.8542 14.0003 19.6095 13.8779 19.3802L10.8658 13.7611L3.95469 0.8486C3.66418 0.305802 3.11373 0 2.54035 0C2.28807 0 2.02814 0.0611603 1.7835 0.191126C1.0037 0.611603 0.71319 1.58252 1.12602 2.36232L11.0569 20.8939C11.0569 20.9092 11.0722 20.9168 11.0799 20.9321C11.0799 20.9321 11.0799 20.9474 11.0952 20.9551C11.0952 20.9551 11.0952 20.9703 11.1104 20.9703C11.1487 21.0315 11.1869 21.085 11.2251 21.1385C11.2633 21.1844 11.2939 21.2226 11.3322 21.2609C11.3398 21.2685 11.3474 21.2761 11.3551 21.2914C11.3933 21.3297 11.4392 21.3679 11.4851 21.4061C11.4851 21.4061 11.5003 21.4214 11.508 21.4214C11.5539 21.4596 11.6074 21.4902 11.6532 21.5208C11.6532 21.5208 11.6685 21.5284 11.6762 21.5361C11.7297 21.5667 11.7832 21.5972 11.8444 21.6202C11.8444 21.6202 11.852 21.6202 11.8597 21.6202C12.0508 21.6966 12.2572 21.7425 12.4713 21.7425C12.6165 21.7425 12.7618 21.7196 12.907 21.6813C12.9223 21.6813 12.93 21.6813 12.9453 21.666C12.9988 21.6508 13.0523 21.6278 13.1058 21.6049C13.1211 21.6049 13.144 21.5896 13.1593 21.5819C13.1823 21.5667 13.2052 21.559 13.2358 21.5514C13.2511 21.5437 13.2663 21.5284 13.2816 21.5208C13.3199 21.4979 13.3504 21.4826 13.381 21.4596C13.4116 21.4367 13.4422 21.4138 13.4728 21.3908C13.5033 21.3679 13.5339 21.345 13.5569 21.3144C13.5874 21.2914 13.618 21.2609 13.641 21.2379C13.6715 21.2073 13.6945 21.1768 13.7174 21.1462C13.7403 21.1232 13.7633 21.0927 13.7786 21.0621C13.8244 21.0009 13.8627 20.9398 13.8932 20.871C13.8932 20.871 13.8932 20.871 13.8932 20.8633C13.8932 20.8633 13.8932 20.848 13.9085 20.8404V20.8251C13.9085 20.8251 13.9085 20.8174 13.9085 20.8098C13.9085 20.8098 13.9085 20.7945 13.9238 20.7869C13.9238 20.7869 13.9238 20.7869 13.9238 20.7792C13.9238 20.7716 13.9315 20.7563 13.9391 20.7486C13.9544 20.7028 13.9773 20.6569 13.9926 20.6034C13.9926 20.5881 13.9926 20.5804 14.0003 20.5652C14.0003 20.5652 14.0003 20.5422 14.0079 20.5346C14.0079 20.5346 14.0079 20.5269 14.0079 20.5193C14.0079 20.5193 14.0079 20.504 14.0079 20.4964C14.0079 20.4964 14.0079 20.4811 14.0079 20.4734C14.0079 20.4734 14.0079 20.4658 14.0079 20.4581C14.0232 20.3511 14.0385 20.2441 14.0385 20.137" fill="white"/>
<path d="M4.13882 10.6815L0.935547 4.70312V21.7363H4.13882V10.6815Z" fill="white"/>
<path d="M28.2127 9.27344H23.1211V12.4767H28.2127C29.0995 12.4767 29.8181 11.7581 29.8181 10.8713C29.8181 9.98443 29.0995 9.27344 28.2127 9.27344Z" fill="white"/>
<path d="M29.2064 18.5391H23.1133V21.7423H29.2064C30.0932 21.7423 30.8118 21.0237 30.8118 20.1445C30.8118 19.2653 30.0932 18.5391 29.2064 18.5391Z" fill="white"/>
<path d="M18.6416 10.8712V5.29037C18.6416 2.36996 21.0116 0.00764504 23.932 0H29.2147C30.1015 0 30.8202 0.718634 30.8202 1.59781C30.8202 2.47699 30.1015 3.20327 29.2147 3.20327H23.932C22.7852 3.20327 21.8525 4.13597 21.8525 5.28272V10.8636C21.8525 11.7504 21.1339 12.4614 20.2547 12.4614C19.3755 12.4614 18.6492 11.7428 18.6492 10.8636" fill="white"/>
</svg>
