<svg width="150" height="20" viewBox="0 0 150 20" fill="none" xmlns="http://www.w3.org/2000/svg">
<path d="M31.4252 19.3797H39.0843C39.4612 19.3797 39.8225 19.23 40.089 18.9636C40.3555 18.6971 40.5052 18.3357 40.5052 17.9589C40.5052 17.5821 40.3555 17.2207 40.089 16.9542C39.8225 16.6878 39.4612 16.5381 39.0843 16.5381H31.4252V19.3797Z" fill="#191919"/>
<path d="M11.5984 17.9372V1.54446C11.5984 1.1693 11.4494 0.8095 11.1841 0.544218C10.9188 0.278937 10.559 0.129883 10.1839 0.129883C9.80869 0.129883 9.44889 0.278937 9.1836 0.544218C8.91832 0.8095 8.76929 1.1693 8.76929 1.54446V17.9372C8.76889 18.1721 8.82713 18.4034 8.93871 18.6102L8.9591 18.6454C8.96184 18.6518 8.96526 18.6579 8.9693 18.6635C8.9719 18.669 8.97505 18.6743 8.97871 18.6792C9.10947 18.8936 9.29507 19.0692 9.51634 19.188C9.73762 19.3068 9.98657 19.3644 10.2375 19.3549C10.4885 19.3454 10.7323 19.2691 10.944 19.1339C11.1556 18.9987 11.3274 18.8095 11.4416 18.5858L11.4455 18.578L11.4549 18.5592L11.462 18.5443L11.4682 18.5309L11.4784 18.5098V18.5027L11.4894 18.4768C11.5062 18.4353 11.5209 18.3929 11.5333 18.3498C11.5333 18.3396 11.5396 18.3294 11.5427 18.3184L11.5498 18.2909V18.2799L11.5545 18.2588L11.5584 18.2384V18.2282C11.5777 18.1348 11.5875 18.0396 11.5874 17.9443" fill="#191919"/>
<path d="M18.4607 9.73778C18.4607 9.36261 18.3117 9.00281 18.0464 8.73753C17.7811 8.47225 17.4213 8.32324 17.0462 8.32324C16.671 8.32324 16.3112 8.47225 16.0459 8.73753C15.7806 9.00281 15.6316 9.36261 15.6316 9.73778V19.3522H18.4607V9.73778Z" fill="#191919"/>
<path d="M11.5985 17.937V17.9009C11.5927 17.679 11.5352 17.4615 11.4307 17.2656L8.76937 12.2905L2.66088 0.87049C2.57302 0.706821 2.45378 0.562061 2.30998 0.444474C2.16617 0.326886 2.00061 0.238802 1.82275 0.185197C1.64489 0.131592 1.45822 0.11352 1.27339 0.132058C1.08856 0.150597 0.909168 0.205337 0.745498 0.293197C0.581828 0.381057 0.437068 0.500296 0.319479 0.644101C0.201891 0.787907 0.113782 0.953489 0.0601769 1.13135C0.00657158 1.3092 -0.0114767 1.4959 0.00706211 1.68073C0.0256009 1.86556 0.0803649 2.0449 0.168226 2.20857L8.93721 18.6053L8.9576 18.6405C8.96034 18.6469 8.96376 18.653 8.9678 18.6586C8.97041 18.6641 8.97356 18.6694 8.97721 18.6743C9.00865 18.7253 9.04325 18.7742 9.08076 18.8209C9.11095 18.8584 9.14342 18.8941 9.17801 18.9276C9.18664 18.9363 9.19291 18.9448 9.20154 18.9519C9.2384 18.988 9.27996 19.0202 9.3184 19.0523L9.33644 19.0672C9.37808 19.0983 9.42158 19.1269 9.46666 19.1527L9.48626 19.1645C9.53396 19.1919 9.58348 19.216 9.6345 19.2366L9.64549 19.2421C9.81616 19.3126 9.99892 19.349 10.1836 19.3496C10.3134 19.3489 10.4424 19.3302 10.5671 19.2939L10.5993 19.2837C10.6455 19.2696 10.6926 19.2523 10.7396 19.2327L10.7859 19.2107C10.8079 19.2005 10.8291 19.1927 10.8495 19.181C10.8699 19.1692 10.8785 19.1621 10.8934 19.1535C10.9232 19.1362 10.9514 19.1166 10.9797 19.0986C11.0079 19.0805 11.0369 19.0594 11.0636 19.0374C11.0902 19.0154 11.1138 18.9935 11.1381 18.9715C11.1624 18.9496 11.1891 18.9268 11.2118 18.9017C11.2346 18.8766 11.2589 18.8468 11.2808 18.8194C11.3028 18.7919 11.3208 18.7731 11.3381 18.748C11.3762 18.6942 11.4106 18.6379 11.4409 18.5794L11.4448 18.5715L11.4542 18.5527L11.4612 18.5378L11.4675 18.5244L11.4777 18.5033V18.4962L11.4887 18.4703C11.5056 18.4288 11.5202 18.3863 11.5326 18.3432C11.5326 18.3331 11.5389 18.3229 11.542 18.3119L11.5491 18.2845V18.2734L11.5538 18.2523L11.5577 18.2319V18.2217C11.577 18.1283 11.5868 18.0332 11.5867 17.9378" fill="#191919"/>
<path d="M2.83038 9.56517L0.0012207 4.27637V19.3522H2.83038V9.56517Z" fill="#191919"/>
<path d="M24.0797 8.32129H19.5839V11.1567H24.0797C24.4557 11.1567 24.8163 11.0073 25.0822 10.7415C25.3481 10.4756 25.4974 10.115 25.4974 9.73903C25.4974 9.36303 25.3481 9.0024 25.0822 8.73653C24.8163 8.47066 24.4557 8.32129 24.0797 8.32129Z" fill="#191919"/>
<path d="M24.963 16.5186H19.5847V19.3547H24.963C25.3391 19.3547 25.6998 19.2053 25.9657 18.9394C26.2317 18.6734 26.3811 18.3127 26.3811 17.9366C26.3811 17.5605 26.2317 17.1998 25.9657 16.9339C25.6998 16.668 25.3391 16.5186 24.963 16.5186Z" fill="#191919"/>
<path d="M8.77088 12.291V17.9382C8.77028 18.1729 8.82851 18.404 8.94028 18.6104C8.94734 18.623 8.95361 18.6347 8.96067 18.6465C8.96339 18.6529 8.96681 18.6589 8.97087 18.6646L8.9803 18.681C9.01207 18.7315 9.04662 18.7802 9.08382 18.8269C9.09637 18.8426 9.11127 18.8567 9.12382 18.8708C9.13637 18.885 9.16227 18.9156 9.18345 18.9359L9.20384 18.9587C9.2156 18.9704 9.2305 18.9814 9.24305 18.9924C9.27128 19.0175 9.29874 19.0426 9.32776 19.0653L9.33795 19.0732C9.37994 19.1042 9.42367 19.1327 9.46893 19.1587C9.4748 19.163 9.48112 19.1667 9.48777 19.1697C9.51724 19.1862 9.54761 19.2012 9.57875 19.2144C9.59734 19.2248 9.61645 19.2342 9.63601 19.2426H9.64384C9.69757 19.2647 9.75259 19.2836 9.80857 19.2991L9.8321 19.3061C9.94769 19.3357 10.0665 19.3508 10.1858 19.3509C10.3161 19.3507 10.4457 19.3324 10.5709 19.2967L10.5984 19.2881C10.6478 19.2724 10.6964 19.2552 10.7435 19.2356L10.7874 19.2152C10.8259 19.1979 10.8659 19.1775 10.8988 19.1563C10.9317 19.1352 10.9553 19.1211 10.9827 19.103C11.0102 19.085 11.04 19.063 11.0667 19.0418C11.0933 19.0207 11.1168 18.9979 11.1412 18.9752C11.1472 18.9708 11.1527 18.9658 11.1576 18.9603C11.1773 18.943 11.1968 18.925 11.2157 18.9054C11.2345 18.8857 11.2619 18.852 11.2839 18.8269C11.3059 18.8018 11.3239 18.7798 11.3412 18.7547C11.3794 18.7011 11.4138 18.6448 11.4439 18.5861L11.4478 18.5791L11.4573 18.5594L11.4643 18.5445L11.4706 18.532L11.4808 18.5108V18.503L11.4918 18.4771C11.509 18.4363 11.5231 18.3932 11.5357 18.3508C11.5357 18.3398 11.542 18.3296 11.5451 18.3194V18.3155L11.5522 18.2881V18.2779L11.5569 18.2575L11.5608 18.2363V18.2261C11.5801 18.1327 11.5898 18.0375 11.5898 17.9422V17.9061C11.5841 17.6842 11.5267 17.4666 11.4219 17.2708L8.77088 12.291Z" fill="#191919"/>
<g style="mix-blend-mode:color">
<path d="M11.5985 17.9368C11.5974 18.2158 11.5137 18.4883 11.3579 18.7197C11.2022 18.9511 10.9813 19.1312 10.7232 19.2372C10.4651 19.3433 10.1814 19.3704 9.90793 19.3153C9.63442 19.2602 9.38338 19.1254 9.18649 18.9277C8.98959 18.73 8.85567 18.4785 8.80164 18.2047C8.74761 17.931 8.77586 17.6475 8.88288 17.3898C8.98989 17.1321 9.17087 16.912 9.40292 16.7571C9.63497 16.6022 9.90772 16.5195 10.1867 16.5195C10.5617 16.5208 10.9209 16.6707 11.1856 16.9364C11.4502 17.202 11.5987 17.5618 11.5985 17.9368Z" fill="#191919"/>
</g>
<path d="M15.6309 9.73827V4.80238C15.63 4.18857 15.7501 3.58063 15.9843 3.01325C16.2185 2.44586 16.5622 1.93019 16.9957 1.49564C17.4292 1.0611 17.9441 0.716216 18.511 0.480702C19.0778 0.245187 19.6855 0.123664 20.2993 0.123047H24.9646C25.3406 0.123047 25.7012 0.272374 25.9671 0.538244C26.2329 0.804114 26.3823 1.16474 26.3823 1.54074C26.3823 1.91674 26.2329 2.27732 25.9671 2.54319C25.7012 2.80906 25.3406 2.95843 24.9646 2.95843H20.3017C19.8133 2.95968 19.3455 3.15445 19.0005 3.50011C18.6556 3.84577 18.4618 4.31407 18.4616 4.80238V9.73827C18.4616 10.1134 18.3125 10.4732 18.0473 10.7385C17.782 11.0038 17.4222 11.1528 17.047 11.1528C16.6718 11.1528 16.312 11.0038 16.0468 10.7385C15.7815 10.4732 15.6324 10.1134 15.6324 9.73827" fill="#191919"/>
<path d="M18.4607 9.7386C18.4596 10.0176 18.3759 10.29 18.2201 10.5215C18.0643 10.7529 17.8434 10.933 17.5854 11.0391C17.3273 11.1451 17.0436 11.1722 16.7701 11.1171C16.4966 11.062 16.2456 10.9272 16.0487 10.7295C15.8518 10.5318 15.7178 10.2803 15.6638 10.0065C15.6098 9.73283 15.6381 9.44927 15.7451 9.19161C15.8521 8.93395 16.033 8.71377 16.2651 8.55888C16.4971 8.40399 16.7699 8.32129 17.0489 8.32129C17.4239 8.32253 17.7831 8.47243 18.0478 8.73811C18.3124 9.0038 18.4609 9.36359 18.4607 9.7386Z" fill="#191919"/>
<g style="mix-blend-mode:color">
<path d="M18.4607 9.73783C18.4598 10.0169 18.3762 10.2894 18.2205 10.5209C18.0648 10.7525 17.844 10.9327 17.5859 11.0388C17.3279 11.1449 17.0442 11.1722 16.7706 11.1172C16.497 11.0622 16.2459 10.9274 16.0489 10.7297C15.852 10.5321 15.718 10.2806 15.6639 10.0068C15.6098 9.73309 15.638 9.44945 15.745 9.19175C15.852 8.93405 16.033 8.71385 16.265 8.55893C16.4971 8.404 16.7699 8.32129 17.0489 8.32129C17.4238 8.32253 17.7829 8.47236 18.0475 8.73787C18.3121 9.00339 18.4607 9.36296 18.4607 9.73783Z" fill="#191919"/>
</g>
<path d="M73.9202 19.136C73.9202 19.3407 73.8065 19.4286 73.6065 19.4286C72.9907 19.4065 72.3853 19.2632 71.825 19.0066C71.2648 18.7501 70.7607 18.3855 70.3416 17.9337C69.9226 17.4819 69.597 16.9517 69.3833 16.3738C69.1696 15.7958 69.0721 15.1814 69.0965 14.5656V8.38268C69.0965 8.17797 69.0118 8.09013 68.8133 8.09013H67.225C67.0266 8.09013 66.9419 8.0023 66.9419 7.79759V7.00616L70.1742 3.48921L70.3726 3.40137H71.0542C71.2526 3.40137 71.3381 3.48918 71.3381 3.69468V5.80456C71.3381 6.00928 71.4228 6.09711 71.6221 6.09711H73.6347C73.8332 6.09711 73.9194 6.18578 73.9194 6.38971V7.79682C73.9194 8.00153 73.8339 8.08937 73.6347 8.08937H71.6221C71.4236 8.08937 71.3381 8.1772 71.3381 8.38192V14.5656C71.3353 15.2369 71.5699 15.8875 72.0006 16.4024C72.4312 16.9172 73.03 17.2632 73.6912 17.3791C73.7599 17.3885 73.8223 17.4245 73.8648 17.4793C73.9074 17.5341 73.9267 17.6035 73.9186 17.6724L73.9202 19.136Z" fill="#191919"/>
<path d="M65.0776 8.05759C65.0776 8.39887 64.9764 8.73247 64.7868 9.01624C64.5972 9.3 64.3277 9.52119 64.0124 9.65179C63.697 9.78239 63.3501 9.81656 63.0154 9.74998C62.6807 9.6834 62.3732 9.51904 62.1319 9.27772C61.8905 9.03639 61.7262 8.72896 61.6596 8.39423C61.593 8.05951 61.6272 7.71254 61.7578 7.39724C61.8884 7.08194 62.1096 6.81246 62.3933 6.62286C62.6771 6.43325 63.0107 6.33203 63.352 6.33203C63.5786 6.33203 63.803 6.37668 64.0124 6.46339C64.2217 6.55011 64.4119 6.67719 64.5722 6.83742C64.7324 6.99765 64.8595 7.18789 64.9462 7.39724C65.0329 7.60659 65.0776 7.83099 65.0776 8.05759Z" fill="#191919"/>
<path d="M57.2779 8.05759C57.2779 8.39887 57.1767 8.73247 56.9871 9.01624C56.7975 9.3 56.528 9.52119 56.2127 9.65179C55.8974 9.78239 55.5504 9.81656 55.2157 9.74998C54.881 9.6834 54.5735 9.51904 54.3322 9.27772C54.0909 9.03639 53.9265 8.72896 53.8599 8.39423C53.7934 8.05951 53.8275 7.71254 53.9581 7.39724C54.0887 7.08194 54.3099 6.81246 54.5937 6.62286C54.8775 6.43325 55.2111 6.33203 55.5523 6.33203C55.7789 6.33203 56.0033 6.37668 56.2127 6.46339C56.422 6.55011 56.6123 6.67719 56.7725 6.83742C56.9327 6.99765 57.0598 7.18789 57.1465 7.39724C57.2333 7.60659 57.2779 7.83099 57.2779 8.05759Z" fill="#191919"/>
<path d="M62.2349 11.2793V14.8575C62.2445 15.2225 62.1822 15.5859 62.0514 15.9268C61.9206 16.2677 61.7239 16.5796 61.4726 16.8445C61.2213 17.1094 60.9202 17.3223 60.5867 17.4709C60.2531 17.6195 59.8935 17.7009 59.5285 17.7105C59.1634 17.7202 58.8001 17.6578 58.4592 17.527C58.1182 17.3962 57.8064 17.1995 57.5415 16.9482C57.2765 16.6969 57.0637 16.3959 56.9151 16.0623C56.7665 15.7288 56.6851 15.3692 56.6754 15.0042V11.2793H54.4346V14.8575C54.4346 16.1888 54.9634 17.4656 55.9048 18.407C56.8462 19.3484 58.123 19.8773 59.4544 19.8773C60.7857 19.8773 62.0625 19.3484 63.0039 18.407C63.9453 17.4656 64.4742 16.1888 64.4742 14.8575V11.2793H62.2349Z" fill="#191919"/>
<path d="M84.188 10.784C84.1687 10.0468 83.8572 9.34747 83.3223 8.83985C82.7873 8.33224 82.0726 8.05795 81.3354 8.07729C80.5981 8.09664 79.8988 8.40804 79.3912 8.94302C78.8835 9.47799 78.6092 10.1927 78.6286 10.9299V15.0046C78.6481 15.7418 78.9597 16.4411 79.4949 16.9485C80.03 17.456 80.7448 17.7301 81.482 17.7106C82.2192 17.691 82.9185 17.3794 83.426 16.8443C83.9335 16.3091 84.2076 15.5944 84.188 14.8571V10.784ZM76.3877 10.9299C76.3877 9.59858 76.9166 8.32181 77.858 7.38041C78.7994 6.43902 80.0762 5.91016 81.4075 5.91016C82.7388 5.91016 84.0157 6.43902 84.9571 7.38041C85.8984 8.32181 86.4273 9.59858 86.4273 10.9299V14.8571C86.4273 16.1885 85.8984 17.4653 84.9571 18.4067C84.0157 19.3481 82.7388 19.8769 81.4075 19.8769C80.0762 19.8769 78.7994 19.3481 77.858 18.4067C76.9166 17.4653 76.3877 16.1885 76.3877 14.8571V10.9299Z" fill="#191919"/>
<path d="M89.6645 19.4285C89.4669 19.4285 89.3813 19.3406 89.3813 19.1359V6.65074C89.3813 6.44681 89.4669 6.35819 89.6645 6.35819H91.0544C91.2528 6.35819 91.3375 6.44681 91.3375 6.65074V7.85233C91.3375 8.05705 91.4512 8.20453 91.5932 8.20453C91.6779 8.20453 91.7352 8.1465 91.8199 8.05708C92.084 7.58925 92.4557 7.19103 92.9043 6.89546C93.353 6.59989 93.8655 6.41548 94.3996 6.35742H95.0271C95.2255 6.35742 95.2828 6.47425 95.2828 6.67975V8.52609C95.2828 8.70178 95.1981 8.81945 95.0553 8.81945C94.9126 8.81945 94.6294 8.70178 94.4027 8.70178C94.0309 8.68722 93.6601 8.75035 93.314 8.8871C92.9679 9.02384 92.6541 9.23124 92.3926 9.49603C92.1311 9.76083 91.9277 10.0772 91.7954 10.425C91.663 10.7728 91.6045 11.1444 91.6238 11.516V19.1351C91.6238 19.3398 91.5391 19.4276 91.3399 19.4276L89.6645 19.4285Z" fill="#191919"/>
<path d="M47.4681 19.4294C47.2705 19.4294 47.185 19.3415 47.185 19.1368V3.02964C47.185 2.82492 47.1003 2.73704 46.901 2.73704H43.555C43.3566 2.73704 43.2719 2.64922 43.2719 2.44373V1.00837C43.2719 0.803655 43.3558 0.71582 43.555 0.71582H53.0566C53.255 0.71582 53.3397 0.803655 53.3397 1.00837V2.44373C53.3397 2.64922 53.255 2.73704 53.0566 2.73704H49.7098C49.5113 2.73704 49.4266 2.82492 49.4266 3.02964V19.1345C49.4266 19.3392 49.3419 19.427 49.1419 19.427L47.4681 19.4294Z" fill="#191919"/>
<rect x="101.283" y="4.97461" width="48.6295" height="14.9025" rx="7.45124" fill="#191919"/>
<g clip-path="url(#clip0_2128_2979)">
<path d="M116.027 9.97461L117.577 13.5587H117.644L119.185 9.97461H120.93V15.6689H119.558V12.1331H119.507L118.051 15.6448H117.162L115.705 12.117H115.654V15.6689H114.283V9.97461H116.027Z" fill="#9EE56F"/>
<path d="M121.472 15.6689L123.512 9.97461H125.384L127.408 15.6689H125.892L125.485 14.4527H123.402L122.996 15.6689H121.472ZM125.147 13.4299L124.469 11.3841H124.418L123.741 13.4299H125.147Z" fill="#9EE56F"/>
<path d="M127.001 9.97461H132.039V11.07H130.219V15.6689H128.822V11.07H127.001V9.97461Z" fill="#9EE56F"/>
<path d="M132.657 9.97461H134.063V12.2701H136.468V9.97461H137.874V15.6689H136.468V13.3654H134.063V15.6689H132.657V9.97461Z" fill="#9EE56F"/>
</g>
<defs>
<clipPath id="clip0_2128_2979">
<rect width="23.5909" height="5.69432" fill="white" transform="translate(114.283 9.97461)"/>
</clipPath>
</defs>
</svg>
