<svg id="NE_Books" xmlns="http://www.w3.org/2000/svg" width="149.767" height="26.535" viewBox="0 0 149.767 26.535">
  <path id="패스_1" data-name="패스 1" d="M74.59,42.72H84.973a1.928,1.928,0,0,0,0-3.85H74.59Z" transform="translate(-32.026 -16.702)" fill="#fff"/>
  <path id="패스_2" data-name="패스 2" d="M120.006,19.131a3.964,3.964,0,0,1-3.891,4.051h-4.691c-.275,0-.393-.126-.393-.411v-8.1c0-.295.12-.416.393-.416h4.685A3.959,3.959,0,0,1,120,18.253Zm0-11.811a4,4,0,0,1-3.891,4.091h-4.691c-.275,0-.393-.126-.393-.416V3.27c0-.285.12-.411.393-.411h4.685A4,4,0,0,1,120,6.91Zm3.072,11.44v-.616a6.466,6.466,0,0,0-2.718-4.958c-.314-.205-.314-.5.04-.7a6.444,6.444,0,0,0,2.678-4.753V7.321c.011-4.472-2.7-7.321-6.951-7.321h-7.752c-.28,0-.393.126-.393.416v25.2c0,.295.115.416.393.416h7.752c4.245,0,6.962-2.813,6.962-7.275" transform="translate(-46.372 0)" fill="#fff"/>
  <path id="패스_3" data-name="패스 3" d="M153.258,25.043a3.86,3.86,0,1,1-7.712.206V19.493a3.859,3.859,0,1,1,7.712-.206Zm3.107,0v-5.55a6.963,6.963,0,1,0-13.926,0v5.55a6.963,6.963,0,1,0,13.926,0" transform="translate(-61.173 -5.472)" fill="#fff"/>
  <path id="패스_4" data-name="패스 4" d="M185.449,25.043a3.86,3.86,0,1,1-7.712.206V19.493a3.86,3.86,0,1,1,7.712-.206Zm3.113,0v-5.55a6.966,6.966,0,1,0-13.932,0v5.55a6.974,6.974,0,0,0,13.942,0" transform="translate(-75 -5.471)" fill="#fff"/>
  <path id="패스_5" data-name="패스 5" d="M222.212,25.418,215.5,14.057a.358.358,0,0,1,.075-.5l4.96-5.243c.314-.331.16-.7-.275-.7H217.5a.429.429,0,0,0-.275.12l-5.664,6.533c-.314.331-.669.165-.669-.285V.426c0-.295-.12-.416-.393-.416h-2.323c-.275,0-.393.126-.393.416v25.2c0,.295.114.416.393.416H210.5c.275,0,.393-.126.393-.416v-6.9l1.848-1.94a.35.35,0,0,1,.63.08l5.2,8.964a.464.464,0,0,0,.355.211h2.912c.393,0,.572-.251.355-.622" transform="translate(-89.293 -0.004)" fill="#fff"/>
  <path id="패스_6" data-name="패스 6" d="M252.125,25.946c0-3.352-2.523-4.388-5.509-5.052-2.678-.572-5.234-.786-5.234-3.067,0-1.367.9-2.523,3.186-2.523h1.179a4.142,4.142,0,0,1,3.581,2.289.349.349,0,0,0,.515.166l1.888-1a.4.4,0,0,0,.2-.572,6.356,6.356,0,0,0-6.178-3.565h-1.179c-3.541,0-6.219,1.866-6.219,5.635,0,3.478,2.8,4.679,5.395,5.218,2.75.572,5.309.869,5.309,2.9,0,1.533-1.1,2.86-3.307,2.86h-1.179a4.2,4.2,0,0,1-3.581-2.289.338.338,0,0,0-.509-.166l-1.888.921a.361.361,0,0,0-.2.537,6.6,6.6,0,0,0,1.5,2.031,6.514,6.514,0,0,0,4.679,1.613h1.179c4.211,0,6.379-2.694,6.379-5.967" transform="translate(-102.362 -5.465)" fill="#fff"/>
  <path id="패스_7" data-name="패스 7" d="M14.749,25.8Zm.786-2.6-3.622-6.733L3.611,1.015A1.928,1.928,0,1,0,.224,2.859L12.14,25h0l.028.051h0a2.063,2.063,0,0,0,.126.183l.114.12.028.034a1.778,1.778,0,0,0,.16.132h0a1.877,1.877,0,0,0,.178.114H12.8l.2.1h0l.132.051h.034a1.847,1.847,0,0,0,.572.085,1.964,1.964,0,0,0,.407-.037h.223a1.359,1.359,0,0,0,.2-.075h.063l.051-.028h.091l.154-.045.114-.08a.786.786,0,0,1,.1-.091l.1-.1.091-.108a.748.748,0,0,0,.069-.085h0v-.037h0a.177.177,0,0,0,.028-.057h0a.531.531,0,0,0,.028-.057h0l.028-.057h0V24.98h0l.057-.171v-.04h0v-.126a2.063,2.063,0,0,0,.034-.382V24.21a1.923,1.923,0,0,0-.04-1.01Zm-1.716,2.849Z" transform="translate(0.018 -0.005)" fill="#fff"/>
  <path id="패스_8" data-name="패스 8" d="M3.845,17.024,0,9.85V30.3H3.845Z" transform="translate(0.012 -4.285)" fill="#fff"/>
  <path id="패스_9" data-name="패스 9" d="M1.905,0A1.917,1.917,0,0,0,.218,2.849L12.134,25a1.873,1.873,0,0,1-.223-.9v-7.64L3.6,1.01A1.917,1.917,0,0,0,1.905,0M12.14,25.008h0l.028.051h0a1.546,1.546,0,0,0,.138.2h0a1.985,1.985,0,0,1-.16-.223h0Zm3.375.028h0m-.034.057h0m-.034.057h0m-.028.04v.028h0m-.652.571h-.023Zm-1.533.142h0m.046,0a1.847,1.847,0,0,0,.572.085,1.965,1.965,0,0,0,.407-.045,1.928,1.928,0,0,1-.407.045,1.79,1.79,0,0,1-.572-.085m1.087,0h-.012Zm-.069,0h0m-.034,0" transform="translate(0.024 0)" fill="#fff"/>
  <path id="패스_10" data-name="패스 10" d="M22.765,0A1.925,1.925,0,0,0,20.84,1.917V16.462l3.622,6.732a1.924,1.924,0,0,1,.223.856V1.917A1.919,1.919,0,0,0,22.765,0m1.716,24.98-.028.057.028-.057M21.048,24.98Zm3.375.04a.531.531,0,0,1-.028.057.531.531,0,0,0,.028-.057m-.034.057a.177.177,0,0,1-.028.057.177.177,0,0,0,.028-.057m-.04.063h0m-.04.063a.747.747,0,0,1-.069.085l-.091.108-.1.1a.786.786,0,0,0-.1.091l-.114.08-.12.075h-.034a1.91,1.91,0,0,0,.63-.571m-3.038.108a1.934,1.934,0,0,0,.875.571l-.132-.051h0q-.1-.044-.2-.1h-.039a1.879,1.879,0,0,1-.178-.114h0a1.779,1.779,0,0,1-.16-.132l-.028-.034L21.3,25.3m2.352.479-.051.028H23.54a1.671,1.671,0,0,1-.2.075h-.034a1.794,1.794,0,0,0,.343-.137m-1.465.114h0m1.07.034h0m-.028,0h0m0,0h0" transform="translate(-8.905 0)" fill="#fff"/>
  <path id="패스_13" data-name="패스 13" d="M52.646,19.44H46.53v3.845h6.115a1.922,1.922,0,1,0,0-3.845" transform="translate(-19.971 -8.352)" fill="#fff"/>
  <path id="패스_14" data-name="패스 14" d="M53.852,38.88H46.54v3.845h7.312a1.922,1.922,0,1,0,0-3.845" transform="translate(-19.976 -16.706)" fill="#fff"/>
  <path id="패스_15" data-name="패스 15" d="M40.985,21.365a1.922,1.922,0,1,0-3.845,0V34.41h3.845Z" transform="translate(-15.879 -8.388)" fill="#fff"/>
  <path id="패스_16" data-name="패스 16" d="M37.14,13.044v-6.7A6.344,6.344,0,0,1,43.49,0h6.338a1.922,1.922,0,1,1,0,3.845H43.49a2.512,2.512,0,0,0-2.506,2.5v6.7a1.922,1.922,0,1,1-3.845,0" transform="translate(-15.879 0)" fill="#fff"/>
</svg>
