<svg width="82" height="20" viewBox="0 0 82 20" fill="none" xmlns="http://www.w3.org/2000/svg">
<g clip-path="url(#clip0_2049_2256)">
<path d="M58.0093 7.05701H56.3766V13.0285H58.0093V10.3878H59.6865V9.19754H58.0093V7.05701ZM54.744 10.0027C54.744 8.42235 53.3587 7.14703 51.6518 7.14703C49.9449 7.14703 48.5596 8.42735 48.5596 10.0027C48.5596 11.5781 49.9449 12.8585 51.6518 12.8585C53.3587 12.8585 54.744 11.5781 54.744 10.0027ZM50.0933 10.0027C50.0933 9.05251 50.7958 8.28231 51.6567 8.28231C52.5176 8.28231 53.2201 9.05251 53.2201 10.0027C53.2201 10.953 52.5176 11.7232 51.6567 11.7232C50.7958 11.7232 50.0933 10.953 50.0933 10.0027ZM52.2653 17.0545V16.9095H58.0093V13.7337H50.5782V14.859H56.3519V15.8192H50.6078V16.6194C50.6078 18.4899 51.6122 19.07 53.1212 19.07H58.0885V17.9447H53.1261C52.4335 17.9447 52.2702 17.6797 52.2702 17.0595L52.2653 17.0545ZM77.2848 17.8997C76.5674 17.8997 76.1815 17.5246 76.1815 16.8144V15.109H74.5191V16.4344C74.5191 18.2948 75.5829 19.065 77.5866 19.065H82.0047V17.8997H77.2897H77.2848ZM80.2929 12.8335V15.6892H81.9107V7.05701H80.2929V11.6632C79.5013 12.4634 77.8191 12.7684 76.6614 12.7684C75.6026 12.7684 74.7418 12.3683 74.7418 11.198V8.81745H78.6058V7.65716H73.0943V11.038C73.0943 13.4136 74.5439 13.9287 76.5625 13.9287C77.735 13.9287 79.2737 13.6337 80.2929 12.8335ZM69.8388 7.05701H68.2061V13.6837C67.3205 14.4088 66.0886 14.8139 64.5301 14.7789C63.4714 14.7539 62.6105 14.3288 62.6105 12.9735V12.2883H66.3953V7.77719H60.9531V8.93748H64.7627V11.138H60.9531V12.5384C60.9531 15.104 62.3285 15.9342 64.4163 15.9392C65.8857 15.9392 67.464 15.4841 68.2061 14.849V19.065H69.8388V11.8282H71.5111V10.5879H69.8388V7.05701Z" fill="#426AB3"/>
<path d="M0 8.49683C5.46205 7.69663 10.4838 9.46707 14.1796 11.3275C13.477 9.89218 12.6409 8.51183 11.7256 7.1965C8.64824 6.70638 1.77616 5.37605 0 8.49683Z" fill="#FCAF17"/>
<path d="M25.2077 18.6594C25.1483 18.4693 25.0889 18.2843 25.0296 18.0942C24.9801 17.9492 24.9356 17.8042 24.8861 17.6641C24.8317 17.4941 24.7723 17.3241 24.7129 17.154C24.6634 17.014 24.614 16.8789 24.5645 16.7389C24.4903 16.5239 24.4111 16.3088 24.332 16.0987C24.3072 16.0337 24.2775 15.9687 24.2528 15.8987C23.7927 15.8687 23.3227 15.7887 22.8279 15.6386C21.6306 15.2835 20.5372 14.5884 19.2756 13.7932L18.5384 13.3331C17.3164 12.5779 15.9905 11.7727 14.3627 10.9525C14.1995 10.8674 14.0313 10.7924 13.863 10.7074C13.9719 10.9124 14.0807 11.1125 14.1797 11.3226C15.8668 12.1678 17.2768 13.038 18.3207 13.6881C19.6219 14.4983 20.75 15.2635 21.9423 15.7587C20.9924 16.6189 19.9633 17.9892 19.7704 18.4693C19.7209 18.5394 19.6912 18.6144 19.6912 18.6894C19.6912 19.3946 22.2491 19.9897 24.6931 19.9897C24.9949 19.9897 25.3017 19.9797 25.6035 19.9647C25.5144 19.6496 25.4254 19.3396 25.3264 19.0295C25.2868 18.9044 25.2473 18.7794 25.2077 18.6544V18.6594Z" fill="#426AB3"/>
<path d="M18.7562 7.47622L19.1124 7.4012L19.0778 7.4112C19.147 7.3962 19.2212 7.3812 19.3004 7.36119C19.2015 7.24116 19.1025 7.12113 18.9986 7.0061L18.6721 7.07112C16.2082 7.58125 15.1 7.67127 12.9824 7.35119C12.7301 7.35119 12.2898 7.29117 11.7208 7.19615C11.8247 7.35119 11.9286 7.50623 12.0375 7.66127C12.4283 7.72128 12.7301 7.75629 12.9429 7.76129C15.1198 8.09138 16.3072 7.97635 18.7562 7.47622Z" fill="#426AB3"/>
<path d="M29.141 14.2036C27.637 15.1088 26.217 15.9641 24.426 15.914C24.3667 15.914 24.3073 15.904 24.2479 15.904C24.2727 15.9691 24.2974 16.0391 24.3271 16.1041C24.3518 16.1791 24.3865 16.2541 24.4161 16.3292C24.4706 16.4642 24.5151 16.6042 24.5646 16.7443C24.619 16.8843 24.6685 17.0193 24.713 17.1594C24.7724 17.3294 24.8317 17.4994 24.8862 17.6695C24.9356 17.8145 24.9851 17.9546 25.0296 18.0996C25.089 18.2846 25.1484 18.4747 25.2077 18.6647C25.2473 18.7898 25.2869 18.9148 25.3265 19.0398C25.4205 19.3499 25.5145 19.665 25.6035 19.9751C27.731 19.85 29.6951 19.3149 29.6951 18.6997C29.6951 18.6247 29.6654 18.5497 29.616 18.4797C29.4131 17.9796 28.3296 16.5342 27.3401 15.679C28.0229 15.3639 28.6809 14.9688 29.3538 14.5637C29.6852 14.3687 30.7539 13.7835 31.9364 13.1684C31.8325 13.0683 31.7286 12.9683 31.6247 12.8683C30.4867 13.4634 29.4774 14.0086 29.141 14.2086V14.2036Z" fill="#EE3D96"/>
<path d="M22.996 6.186C22.996 6.186 23.1197 6.14098 23.2978 6.07597C23.1494 5.98595 23.0059 5.88592 22.8575 5.7959C21.4821 6.28602 19.8692 6.82616 18.9984 7.0062C19.1023 7.12123 19.2013 7.24126 19.3002 7.36129C20.0671 7.18124 21.304 6.79115 22.9911 6.186H22.996Z" fill="#EE3D96"/>
<path d="M41.1286 0.70987C39.3475 -0.275377 36.9084 -0.400408 35.3302 1.40504C34.1873 2.71537 34.0586 4.51082 34.8849 5.80614C35.7111 7.10647 37.1558 7.68661 38.7489 7.2465C40.1342 6.86641 40.901 5.13598 40.0055 3.97069C39.5256 3.34553 38.5114 3.06046 37.8484 3.54558C37.5367 3.77564 37.3438 4.18074 37.5367 4.55583C37.6456 4.77089 37.8633 4.91092 38.1106 4.91092C38.2343 4.91092 38.3283 4.86091 38.4421 4.8209C39.021 4.61085 39.2882 5.52107 38.8033 5.78614C38.7093 5.84615 38.5955 5.88616 38.4966 5.91617C37.4873 6.19624 36.5077 5.81615 36.008 5.03095C35.4885 4.21575 35.7309 3.04545 36.3394 2.35528C37.3092 1.25 39.0853 1.30502 40.2777 2.0452C41.475 2.78039 42.4249 4.33078 41.5195 6.45131C40.7922 8.15673 38.6252 8.65186 36.4978 8.65686C36.1465 8.65686 35.7754 8.63185 35.3895 8.59184C35.6221 8.74688 35.8546 8.90692 36.0822 9.06196C36.2256 9.06696 36.3642 9.07196 36.4978 9.07196C39.3475 9.06696 41.2127 8.21675 41.8955 6.61635C42.9048 4.24575 41.8312 2.52032 40.4904 1.69011C39.1942 0.889915 37.1904 0.754881 36.0277 2.08021C35.3549 2.8454 34.9987 4.22075 35.6616 5.25101C36.2702 6.20124 37.4477 6.62635 38.6005 6.31127C38.7538 6.26626 38.8924 6.21125 39.0012 6.14123C39.3228 5.96118 39.4564 5.6411 39.4564 5.33103C39.4564 5.17599 39.4217 5.03095 39.3624 4.89592C39.1694 4.46581 38.7291 4.27076 38.2937 4.4308L38.2145 4.46081C38.1552 4.48081 38.1205 4.49582 38.1008 4.49582C38.0117 4.49582 37.9325 4.4458 37.893 4.36578C37.7891 4.16573 37.9721 3.96068 38.081 3.88066C38.5609 3.53058 39.3327 3.77564 39.6741 4.22075C40.0847 4.76088 39.9808 5.34103 39.8819 5.6361C39.684 6.22125 39.209 6.68636 38.6301 6.8464C37.2399 7.2265 35.9634 6.75638 35.2164 5.58109C34.4693 4.4158 34.6375 2.80539 35.627 1.67511C37.0667 0.0296996 39.3228 0.184738 40.9258 1.06996C42.2913 1.82515 43.9982 4.11072 42.7613 7.01645C42.3061 8.07671 41.3364 9.02695 40.2183 9.48706C39.5306 9.77214 38.8033 9.97719 38.1156 10.1522L37.8385 10.2272C37.8385 10.2272 37.8039 10.2373 37.7841 10.2423C37.9276 10.3473 38.076 10.4473 38.2195 10.5523C38.9468 10.3623 39.6741 10.1622 40.3717 9.86716C41.5442 9.38204 42.6228 8.37179 43.1324 7.17649C44.3989 4.20574 42.791 1.6301 41.1187 0.699867L41.1286 0.70987Z" fill="#426AB3"/>
<path d="M37.3688 10.3626C36.6811 10.5476 35.9786 10.7477 35.3008 11.0378C34.4053 11.4179 32.5203 12.3931 31.7484 12.7982C31.7089 12.8182 31.6643 12.8432 31.6248 12.8632C31.7287 12.9632 31.8326 13.0633 31.9365 13.1633C33.2673 12.4681 34.7417 11.7229 35.4591 11.4179C36.3546 11.0328 37.2946 10.8077 38.2247 10.5626C38.0813 10.4576 37.9328 10.3576 37.7894 10.2526C37.6459 10.2876 37.5073 10.3276 37.3639 10.3676L37.3688 10.3626Z" fill="#FCAF17"/>
<path d="M24.5789 5.61112C26.6569 6.48134 31.7528 8.59687 35.3496 8.99697C35.5228 9.01697 35.6861 9.03198 35.8493 9.04198C35.9285 9.04198 36.0077 9.04698 36.0868 9.05198C35.8592 8.89694 35.6267 8.7369 35.3942 8.58187C31.9309 8.19677 27.0725 6.20627 24.5888 5.16101C24.1485 5.32605 23.53 5.55111 22.8572 5.79117C23.0056 5.88119 23.1491 5.98122 23.2975 6.07124C23.7081 5.9212 24.4008 5.67114 24.5789 5.60612V5.61112Z" fill="#FCAF17"/>
<path d="M18.5331 13.3378L19.2702 13.7979C20.5319 14.5981 21.6253 15.2883 22.8226 15.6434C23.3173 15.7934 23.7824 15.8735 24.2474 15.9035C24.193 15.7534 24.1287 15.6084 24.0693 15.4583C23.9555 15.1733 23.8368 14.8832 23.7181 14.5981C23.6636 14.4831 23.6142 14.3631 23.5647 14.248C23.441 13.973 23.3173 13.6979 23.1887 13.4228C23.1293 13.2928 23.065 13.1678 23.0007 13.0377C22.872 12.7827 22.7483 12.5226 22.6148 12.2726C22.5405 12.1275 22.4564 11.9875 22.3822 11.8424C22.2585 11.6074 22.1299 11.3723 21.9963 11.1473C21.9023 10.9872 21.8034 10.8272 21.7044 10.6672C21.5807 10.4621 21.457 10.257 21.3235 10.052C21.2047 9.86695 21.081 9.69191 20.9573 9.51186C20.8386 9.33682 20.7248 9.16177 20.6011 8.99173C20.4478 8.77668 20.2845 8.56663 20.1212 8.35657C20.0223 8.23154 19.9283 8.09651 19.8293 7.97648C19.6611 7.76643 19.478 7.56137 19.2999 7.35632C19.2208 7.37633 19.1416 7.39133 19.0773 7.40634L19.1119 7.39633L18.7557 7.47135C16.3067 7.97148 15.1242 8.08651 12.9424 7.75642C12.7296 7.75642 12.4229 7.71641 12.037 7.6564C12.695 8.64164 13.3134 9.6569 13.8577 10.7072C14.0259 10.7872 14.1892 10.8672 14.3574 10.9522C15.9851 11.7724 17.311 12.5776 18.5331 13.3328V13.3378Z" fill="url(#paint0_linear_2049_2256)"/>
<path d="M22.9958 6.18633C21.3037 6.78648 20.0718 7.18157 19.3049 7.36162C19.483 7.56667 19.6661 7.76672 19.8343 7.98177C19.9382 8.10681 20.0273 8.23684 20.1262 8.36187C20.2895 8.57192 20.4528 8.78197 20.6061 8.99703C20.7298 9.16707 20.8436 9.34211 20.9623 9.51716C21.086 9.6972 21.2097 9.87725 21.3285 10.0573C21.462 10.2573 21.5808 10.4674 21.7094 10.6724C21.8034 10.8325 21.9073 10.9925 22.0013 11.1526C22.1349 11.3826 22.2586 11.6177 22.3872 11.8477C22.4664 11.9928 22.5456 12.1328 22.6198 12.2778C22.7533 12.5329 22.877 12.788 23.0057 13.043C23.07 13.1731 23.1343 13.2981 23.1937 13.4281C23.3223 13.6982 23.446 13.9783 23.5697 14.2533C23.6192 14.3684 23.6736 14.4884 23.7231 14.6034C23.8467 14.8885 23.9605 15.1736 24.0743 15.4636C24.104 15.5387 24.1337 15.6137 24.1683 15.6887H24.1733C24.203 15.7637 24.2277 15.8337 24.2524 15.9088C24.3118 15.9088 24.3712 15.9188 24.4306 15.9188C26.2166 15.9688 27.6415 15.1136 29.1455 14.2083C29.482 14.0083 30.4912 13.4631 31.6292 12.868C29.007 10.3574 26.3502 7.98678 23.3025 6.0813C23.1195 6.14632 23.0007 6.19133 23.0007 6.19133L22.9958 6.18633Z" fill="url(#paint1_linear_2049_2256)"/>
<path d="M37.8487 10.2326L38.1258 10.1575C38.8135 9.9775 39.5408 9.77745 40.2285 9.49238C41.3417 9.03227 42.3163 8.08203 42.7715 7.02176C44.0133 4.11104 42.3064 1.83047 40.936 1.07528C39.3379 0.190057 37.0769 0.0350186 35.6372 1.68043C34.6526 2.81071 34.4844 4.41611 35.2266 5.58641C35.9786 6.7617 37.255 7.23182 38.6403 6.85172C39.2142 6.69168 39.6942 6.22657 39.8921 5.64142C39.991 5.34635 40.0949 4.7662 39.6843 4.22607C39.3429 3.78095 38.5711 3.53589 38.0912 3.88598C37.9823 3.966 37.7993 4.17105 37.9032 4.3711C37.9427 4.45112 38.0219 4.50113 38.111 4.50113C38.1307 4.50113 38.1654 4.48613 38.2247 4.46613L38.3039 4.43612C38.7393 4.27608 39.1796 4.47113 39.3726 4.90123C39.4319 5.03627 39.4666 5.1813 39.4666 5.33634C39.4666 5.64642 39.328 5.9665 39.0114 6.14655C38.8976 6.21656 38.764 6.27158 38.6107 6.31659C37.4579 6.63167 36.2804 6.20656 35.6718 5.25632C35.0138 4.22106 35.37 2.85072 36.0379 2.08553C37.1957 0.7602 39.2044 0.895234 40.5006 1.69543C41.8414 2.52564 42.915 4.25107 41.9057 6.62166C41.2229 8.22206 39.3577 9.06727 36.508 9.07728C36.3744 9.07728 36.2358 9.07228 36.0924 9.06727C36.6663 9.45237 37.2352 9.85247 37.7943 10.2576C37.8141 10.2576 37.8339 10.2476 37.8487 10.2426V10.2326Z" fill="url(#paint2_linear_2049_2256)"/>
<path d="M37.3686 10.3623C37.512 10.3223 37.6555 10.2873 37.794 10.2473C37.235 9.83719 36.666 9.4421 36.0921 9.057C36.0129 9.057 35.9338 9.047 35.8546 9.047C36.3543 9.49211 36.859 9.93222 37.3686 10.3623Z" fill="#FCAF17"/>
<path d="M36.0873 9.05683C36.0081 9.05683 35.929 9.04682 35.8498 9.04682C35.6865 9.03182 35.5233 9.02182 35.3501 9.00181C31.7582 8.60171 26.6573 6.48618 24.5794 5.61597C24.4013 5.68098 23.7086 5.93105 23.298 6.08108C26.3407 7.99156 29.0024 10.3572 31.6246 12.8678C31.6642 12.8478 31.7087 12.8228 31.7483 12.8028C32.5152 12.4027 34.4051 11.4274 35.3006 11.0423C35.9784 10.7523 36.676 10.5522 37.3687 10.3672C37.5122 10.3271 37.6556 10.2921 37.7942 10.2521C37.2351 9.84202 36.6661 9.44693 36.0922 9.06183L36.0873 9.05683Z" fill="url(#paint3_linear_2049_2256)"/>
<path d="M24.5891 1.81018C24.0102 1.81018 23.5452 2.2853 23.5452 2.86544C23.5452 4.01573 24.3665 4.94596 24.5891 5.16602C24.8068 4.94596 25.633 4.01573 25.633 2.86544C25.633 2.2853 25.163 1.81018 24.5891 1.81018Z" fill="#FCAF17"/>
</g>
<defs>
<linearGradient id="paint0_linear_2049_2256" x1="20.0322" y1="7.68641" x2="17.6602" y2="12.7231" gradientUnits="userSpaceOnUse">
<stop stop-color="#778AC5"/>
<stop offset="0.03" stop-color="#7387C3"/>
<stop offset="0.25" stop-color="#5877BA"/>
<stop offset="0.45" stop-color="#476DB4"/>
<stop offset="0.6" stop-color="#426AB3"/>
</linearGradient>
<linearGradient id="paint1_linear_2049_2256" x1="21.0019" y1="7.37162" x2="28.6034" y2="14.8964" gradientUnits="userSpaceOnUse">
<stop stop-color="#F392BD"/>
<stop offset="0.14" stop-color="#F06EAC"/>
<stop offset="0.28" stop-color="#EF53A0"/>
<stop offset="0.41" stop-color="#EE4298"/>
<stop offset="0.5" stop-color="#EE3D96"/>
</linearGradient>
<linearGradient id="paint2_linear_2049_2256" x1="42.5736" y1="2.79071" x2="36.361" y2="6.33848" gradientUnits="userSpaceOnUse">
<stop stop-color="#778AC5"/>
<stop offset="0.02" stop-color="#7387C3"/>
<stop offset="0.15" stop-color="#5877BA"/>
<stop offset="0.26" stop-color="#476DB4"/>
<stop offset="0.35" stop-color="#426AB3"/>
</linearGradient>
<linearGradient id="paint3_linear_2049_2256" x1="25.277" y1="3.69549" x2="33.4731" y2="10.495" gradientUnits="userSpaceOnUse">
<stop stop-color="#FFD48E"/>
<stop offset="0.09" stop-color="#FEC96D"/>
<stop offset="0.21" stop-color="#FDBE48"/>
<stop offset="0.32" stop-color="#FCB52D"/>
<stop offset="0.42" stop-color="#FCB01C"/>
<stop offset="0.5" stop-color="#FCAF17"/>
</linearGradient>
<clipPath id="clip0_2049_2256">
<rect width="82" height="20" fill="white"/>
</clipPath>
</defs>
</svg>
