<svg width="116" height="36" viewBox="0 0 116 36" fill="none" xmlns="http://www.w3.org/2000/svg">
<g clip-path="url(#clip0_1528_6342)">
<path d="M31.6978 22.1533C29.9253 22.1533 28.3597 22.7272 27.3036 23.8014C26.0924 24.9933 25.4277 26.8621 25.4277 29.0693C25.4277 31.2766 26.0924 33.1453 27.3036 34.3373C28.3597 35.4114 29.9253 36.0074 31.6978 36.0074C33.4703 36.0074 35.0581 35.4188 36.1142 34.3373C37.3032 33.1453 37.9679 31.2766 37.9679 29.0693C37.9679 26.8621 37.3032 24.9933 36.1142 23.8014C35.0581 22.7272 33.4703 22.1533 31.6978 22.1533ZM34.2383 32.8878C33.6549 33.6236 32.7465 34.043 31.6904 34.043C30.6343 34.043 29.7259 33.6236 29.1647 32.8878C28.5148 32.0859 28.175 30.7468 28.175 29.062C28.175 27.3771 28.5222 26.0601 29.1647 25.2361C29.7259 24.5003 30.6639 24.103 31.6904 24.103C32.717 24.103 33.6549 24.5077 34.2383 25.2361C34.8882 26.0601 35.2206 27.3771 35.2206 29.062C35.2206 30.7468 34.8882 32.0785 34.2383 32.8805V32.8878Z" fill="#003974"/>
<path d="M66.0462 23.8014C64.9902 22.7272 63.4023 22.1533 61.6299 22.1533C59.8574 22.1533 58.2917 22.7272 57.2283 23.8014C56.0245 24.9933 55.3672 26.8621 55.3672 29.0693C55.3672 31.2766 56.0245 33.1453 57.2283 34.3373C58.2917 35.4114 59.85 36.0074 61.6299 36.0074C63.4097 36.0074 64.9902 35.4188 66.0462 34.3373C67.2427 33.1453 67.8999 31.2766 67.8999 29.0693C67.8999 26.8621 67.2427 24.9933 66.0462 23.8014ZM64.1778 32.8878C63.5943 33.6236 62.686 34.043 61.6299 34.043C60.5738 34.043 59.6654 33.6162 59.0967 32.8878C58.4542 32.0859 58.1071 30.7542 58.1071 29.0693C58.1071 27.3845 58.4542 26.0675 59.0967 25.2434C59.6654 24.5077 60.5959 24.1104 61.6299 24.1104C62.6638 24.1104 63.5943 24.5151 64.1778 25.2434C64.8277 26.0675 65.16 27.3845 65.16 29.0693C65.16 30.7542 64.8277 32.0859 64.1778 32.8878Z" fill="#003974"/>
<path d="M19.2302 35.6834C19.0751 35.5436 18.8905 35.2272 18.8905 34.7563V29.9519L23.3955 22.44H20.3158C20.5374 22.6607 20.5596 23.0139 20.2937 23.4332L17.8566 27.6343C15.8108 23.9409 15.8108 23.8379 15.4416 23.161C15.1536 22.6533 14.9098 22.4326 14.3633 22.4326H11.9336C12.1256 22.6092 12.325 22.8741 12.7386 23.5657L16.3278 29.9078V34.749C16.3278 35.2199 16.1432 35.5362 15.9881 35.676H19.2376L19.2302 35.6834Z" fill="#003974"/>
<path d="M42.2578 35.6838C42.4129 35.544 42.5975 35.2277 42.5975 34.7568V23.3675C42.5975 22.8966 42.4129 22.5802 42.2578 22.4404H46.6594C48.7716 22.4404 50.6179 23.4558 50.6179 25.4202C50.6179 26.2589 50.2339 27.4361 49.259 27.9585C50.4407 28.4073 51.6962 29.4962 51.6962 31.3429C51.6962 32.7114 51.0167 33.9107 50.0936 34.6023C49.2443 35.2424 48.262 35.6765 46.6594 35.6765H42.2578M45.1676 27.4435C45.6476 27.5024 46.6225 27.4361 47.0508 27.2154C47.4718 26.9947 47.9518 26.6783 47.9518 25.8396C47.9518 25.0008 47.2576 24.346 46.2385 24.346C45.8544 24.346 45.5369 24.3681 45.1676 24.4784V27.4361M48.0552 33.4545C48.8159 32.9616 48.9931 32.2553 48.9931 31.5122C48.9931 30.0627 47.7155 29.3932 46.4822 29.3932C46.2163 29.3932 45.5812 29.4006 45.175 29.4668V33.712C46.0243 33.9475 47.3832 33.8886 48.0552 33.4545Z" fill="#003974"/>
<path d="M0.339721 34.7563C0.339721 35.2272 0.15509 35.5435 0 35.6833H3.24951C3.09442 35.5435 2.90979 35.2272 2.90979 34.7563V29.584L6.68364 34.9549C7.03075 35.4626 7.304 35.6833 7.85051 35.6833H10.4575C10.2433 35.5067 10.0144 35.2419 9.51958 34.5503L5.26568 28.5392L9.62297 22.4473H6.41777C6.58025 22.668 6.60241 22.9329 6.29223 23.4552L2.91717 28.3038V23.3743C2.91717 22.9034 3.1018 22.5871 3.25689 22.4473H0C0.15509 22.5871 0.339721 22.8961 0.339721 23.3743V34.7636V34.7563Z" fill="#003974"/>
<path d="M72.0722 4.31147C70.861 3.09013 68.8596 3.29614 67.6779 4.5469C66.1418 6.15818 64.9454 6.75414 63.5201 6.69528C61.5334 6.60699 60.5512 5.07664 59.5246 3.14163C58.4686 1.11833 56.8364 0 54.8055 0C51.6077 0 49.6875 2.58246 49.6875 5.45923C49.6875 9.88841 52.8115 12.5371 54.9753 13.6481C56.7699 14.5825 58.7713 14.9724 60.5512 15.0166C60.4478 16.076 60.1302 17.4739 59.7831 18.4598H63.4388C63.0769 17.4739 62.7594 15.9583 62.6634 14.8988C68.0251 14.2072 70.573 11.7793 71.9614 9.46904C72.5818 8.45371 72.9215 7.40159 72.9141 6.45984C72.9141 5.62845 72.6482 4.87799 72.0648 4.31147M54.8202 7.07787C53.7863 7.14408 52.9001 6.36419 52.8336 5.33415C52.7671 4.30411 53.55 3.41386 54.5913 3.34764C55.6178 3.28142 56.5041 4.06867 56.5705 5.09135C56.637 6.1214 55.8542 7.00429 54.8202 7.07051V7.07787Z" fill="#50B848"/>
<path d="M111.273 29.2751H109.708V33.9398H106.717V35.1611H116V33.9398H111.273V29.2751Z" fill="#003974"/>
<path d="M113.349 32.7548H114.375C114.759 30.7977 115.025 28.355 115.18 26.7143C115.269 25.8314 115.276 25.3679 114.478 25.3679H107.507V26.5893H113.349V32.7548Z" fill="#003974"/>
<path d="M97.7145 29.3784H104.502V25.3318H96.7471V28.4146C96.7471 28.9884 96.9982 29.3857 97.7219 29.3857M102.751 26.5458V28.157H98.49V26.5458H102.751Z" fill="#003974"/>
<path d="M98.7039 32.24H96.9609V34.6385C96.9609 35.2124 97.212 35.6097 97.9284 35.6097H104.523V34.3884H98.7039V32.24Z" fill="#003974"/>
<path d="M95.8682 31.4455H99.93V33.351H101.673V31.4455H105.366V30.2241H95.8682V31.4455Z" fill="#003974"/>
<path d="M79.7753 29.6062H78.2096V33.9397H77.1462V29.6062H75.5805V33.9397H73.4609V35.1611H83.1282V33.9397H79.7753V29.6062Z" fill="#003974"/>
<path d="M80.6539 32.7558H81.673C82.0571 30.7987 82.3229 28.356 82.4854 26.7153C82.574 25.8324 82.574 25.3689 81.7764 25.3689H74.502V26.5902H80.6465V32.7558H80.6539Z" fill="#003974"/>
<path d="M90.3731 31.8572H88.6302V33.9393H84.6348V35.1607H94.3094V33.9393H90.3731V31.8572Z" fill="#003974"/>
<path d="M86.9612 31.1955H91.9758C92.6995 31.1955 92.9432 30.7982 92.9432 30.2243V25.2654H91.1929V27.274H87.7292V25.2654H85.9863V30.2243C85.9863 30.7982 86.23 31.1955 86.9538 31.1955M91.2003 28.4953V30.1434H87.7366V28.4953H91.2003Z" fill="#003974"/>
</g>
<defs>
<clipPath id="clip0_1528_6342">
<rect width="116" height="36" fill="white"/>
</clipPath>
</defs>
</svg>
