<svg width="76" height="24" viewBox="0 0 76 24" fill="none" xmlns="http://www.w3.org/2000/svg">
<g clip-path="url(#clip0_2049_2232)">
<path d="M20.7675 14.7688C19.6063 14.7688 18.5805 15.1514 17.8886 15.8675C17.095 16.6621 16.6595 17.908 16.6595 19.3795C16.6595 20.851 17.095 22.0968 17.8886 22.8914C18.5805 23.6075 19.6063 24.0048 20.7675 24.0048C21.9288 24.0048 22.9691 23.6125 23.661 22.8914C24.44 22.0968 24.8755 20.851 24.8755 19.3795C24.8755 17.908 24.44 16.6621 23.661 15.8675C22.9691 15.1514 21.9288 14.7688 20.7675 14.7688ZM22.432 21.9251C22.0498 22.4156 21.4546 22.6952 20.7627 22.6952C20.0708 22.6952 19.4756 22.4156 19.1079 21.9251C18.6821 21.3905 18.4595 20.4978 18.4595 19.3746C18.4595 18.2513 18.6869 17.3733 19.1079 16.824C19.4756 16.3335 20.0901 16.0686 20.7627 16.0686C21.4353 16.0686 22.0498 16.3384 22.432 16.824C22.8578 17.3733 23.0755 18.2513 23.0755 19.3746C23.0755 20.4978 22.8578 21.3856 22.432 21.9202V21.9251Z" fill="#003974"/>
<path d="M43.2716 15.8675C42.5797 15.1514 41.5394 14.7688 40.3782 14.7688C39.2169 14.7688 38.1911 15.1514 37.4944 15.8675C36.7057 16.6621 36.275 17.908 36.275 19.3795C36.275 20.851 36.7057 22.0968 37.4944 22.8914C38.1911 23.6075 39.2121 24.0048 40.3782 24.0048C41.5443 24.0048 42.5797 23.6125 43.2716 22.8914C44.0555 22.0968 44.4861 20.851 44.4861 19.3795C44.4861 17.908 44.0555 16.6621 43.2716 15.8675ZM42.0475 21.9251C41.6652 22.4156 41.0701 22.6952 40.3782 22.6952C39.6862 22.6952 39.0911 22.4107 38.7185 21.9251C38.2976 21.3905 38.0701 20.5027 38.0701 19.3795C38.0701 18.2562 38.2976 17.3782 38.7185 16.8289C39.0911 16.3384 39.7008 16.0735 40.3782 16.0735C41.0556 16.0735 41.6652 16.3433 42.0475 16.8289C42.4733 17.3782 42.691 18.2562 42.691 19.3795C42.691 20.5027 42.4733 21.3905 42.0475 21.9251Z" fill="#003974"/>
<path d="M12.5991 23.7888C12.4975 23.6956 12.3766 23.4847 12.3766 23.1708V19.9678L15.3281 14.9599H13.3104C13.4556 15.107 13.4701 15.3424 13.2959 15.622L11.6992 18.4228C10.3589 15.9605 10.3589 15.8918 10.1169 15.4405C9.92824 15.1021 9.76856 14.955 9.41051 14.955H7.8186C7.94441 15.0727 8.07505 15.2493 8.34601 15.7103L10.6976 19.9384V23.1659C10.6976 23.4798 10.5766 23.6907 10.475 23.7839H12.604L12.5991 23.7888Z" fill="#003974"/>
<path d="M27.6862 23.789C27.7878 23.6958 27.9087 23.4849 27.9087 23.171V15.5781C27.9087 15.2642 27.7878 15.0533 27.6862 14.9601H30.57C31.9538 14.9601 33.1635 15.637 33.1635 16.9466C33.1635 17.5058 32.9119 18.2906 32.2732 18.6388C33.0473 18.938 33.8699 19.6639 33.8699 20.8951C33.8699 21.8074 33.4247 22.6069 32.8199 23.068C32.2635 23.4947 31.6199 23.7841 30.57 23.7841H27.6862M29.5926 18.2955C29.9071 18.3347 30.5458 18.2906 30.8264 18.1434C31.1022 17.9963 31.4167 17.7853 31.4167 17.2262C31.4167 16.667 30.9619 16.2305 30.2942 16.2305C30.0426 16.2305 29.8345 16.2452 29.5926 16.3188V18.2906M31.4845 22.3028C31.9828 21.9742 32.099 21.5033 32.099 21.0079C32.099 20.0416 31.2619 19.5953 30.4538 19.5953C30.2796 19.5953 29.8635 19.6002 29.5974 19.6443V22.4745C30.1538 22.6315 31.0441 22.5922 31.4845 22.3028Z" fill="#003974"/>
<path d="M0.222576 23.1707C0.222576 23.4846 0.101611 23.6956 0 23.7888H2.12899C2.02738 23.6956 1.90641 23.4846 1.90641 23.1707V19.7225L4.37894 23.3032C4.60635 23.6416 4.78538 23.7888 5.14344 23.7888H6.85147C6.71115 23.671 6.56115 23.4945 6.23696 23.0334L3.44993 19.026L6.3047 14.9647H4.20475C4.3112 15.1119 4.32571 15.2884 4.12249 15.6367L1.91125 18.8691V15.5827C1.91125 15.2688 2.03221 15.0579 2.13383 14.9647H0C0.101611 15.0579 0.222576 15.2639 0.222576 15.5827V23.1756V23.1707Z" fill="#003974"/>
<path d="M47.2196 2.87431C46.4261 2.06009 45.1149 2.19742 44.3407 3.03127C43.3342 4.10546 42.5504 4.50276 41.6165 4.46352C40.315 4.40466 39.6714 3.38443 38.9989 2.09442C38.3069 0.745555 37.2376 0 35.907 0C33.8119 0 32.5538 1.72164 32.5538 3.63948C32.5538 6.59227 34.6006 8.35806 36.0183 9.09871C37.1941 9.72164 38.5053 9.98161 39.6714 10.011C39.6037 10.7174 39.3956 11.6493 39.1682 12.3066H41.5633C41.3262 11.6493 41.1182 10.6389 41.0553 9.93256C44.5681 9.47149 46.2374 7.85285 47.1471 6.31269C47.5535 5.63581 47.7761 4.9344 47.7713 4.30656C47.7713 3.7523 47.5971 3.25199 47.2148 2.87431M35.9167 4.71858C35.2393 4.76272 34.6586 4.2428 34.6151 3.5561C34.5715 2.86941 35.0844 2.2759 35.7667 2.23176C36.4392 2.18761 37.0199 2.71245 37.0634 3.39424C37.107 4.08093 36.5941 4.66953 35.9167 4.71367V4.71858Z" fill="#50B848"/>
<path d="M72.9033 19.5168H71.8775V22.6266H69.9178V23.4408H76V22.6266H72.9033V19.5168Z" fill="#003974"/>
<path d="M74.2629 21.8366H74.9354C75.1871 20.5319 75.3612 18.9034 75.4629 17.8096C75.5209 17.221 75.5258 16.912 75.0032 16.912H70.4355V17.7262H74.2629V21.8366Z" fill="#003974"/>
<path d="M64.02 19.5857H68.4666V16.8879H63.3861V18.9431C63.3861 19.3257 63.5506 19.5906 64.0248 19.5906M67.3199 17.6973V18.7714H64.528V17.6973H67.3199Z" fill="#003974"/>
<path d="M64.6682 21.4934H63.5262V23.0924C63.5262 23.475 63.6908 23.7399 64.1601 23.7399H68.481V22.9257H64.6682V21.4934Z" fill="#003974"/>
<path d="M62.8102 20.9638H65.4714V22.2341H66.6133V20.9638H69.0326V20.1495H62.8102V20.9638Z" fill="#003974"/>
<path d="M52.2666 19.7375H51.2409V22.6266H50.5441V19.7375H49.5183V22.6266H48.1296V23.4408H54.4634V22.6266H52.2666V19.7375Z" fill="#003974"/>
<path d="M52.8422 21.8372H53.5099C53.7615 20.5325 53.9357 18.904 54.0422 17.8102C54.1002 17.2216 54.1002 16.9126 53.5777 16.9126H48.8116V17.7268H52.8374V21.8372H52.8422Z" fill="#003974"/>
<path d="M59.21 21.2382H58.0681V22.6263H55.4504V23.4405H61.789V22.6263H59.21V21.2382Z" fill="#003974"/>
<path d="M56.9746 20.797H60.26C60.7342 20.797 60.8939 20.5322 60.8939 20.1496V16.8436H59.7472V18.1827H57.4778V16.8436H56.3359V20.1496C56.3359 20.5322 56.4956 20.797 56.9698 20.797M59.752 18.9969V20.0956H57.4827V18.9969H59.752Z" fill="#003974"/>
</g>
<defs>
<clipPath id="clip0_2049_2232">
<rect width="76" height="24" fill="white"/>
</clipPath>
</defs>
</svg>
