<svg width="72" height="14" viewBox="0 0 72 14" fill="none" xmlns="http://www.w3.org/2000/svg">
<g clip-path="url(#clip0_2049_2275)">
<path d="M44.9454 10.92H32.7272V12.67H44.9454V10.92ZM39.7818 1.05H37.8909V3.92C37.8909 4.83 37.3818 5.6 36.509 5.95C35.5636 6.37 34.4 6.58 33.0181 6.58V8.4C34.6909 8.4 36.0727 8.12 37.309 7.56C37.8909 7.28 38.4 6.93 38.8363 6.44C39.2727 6.93 39.7818 7.28 40.3636 7.56C41.6 8.12 42.9818 8.33 44.6545 8.4V6.58C43.2727 6.58 42.1818 6.37 41.1636 5.95C40.3636 5.6 39.7818 4.76 39.7818 3.92V1.12V1.05ZM58.6181 10.99V12.74H46.4V10.99H51.4909V9.31H53.5272V10.99H58.6181ZM48.8 7.14V5.67H58.0363V4.06H48.2181C47.4909 4.06 46.909 4.62 46.909 5.32V7.49C46.909 8.19 47.4909 8.75 48.2181 8.75H58.0363V7.14H48.8ZM58.109 1.05H46.9818V2.66H58.109V1.05ZM63.5636 0.91C62.5454 0.91 61.6727 1.26 61.0909 1.89C60.4363 2.52 60.1454 3.5 60.1454 4.69V9.03C60.1454 10.22 60.4363 11.13 61.0909 11.83C61.7454 12.46 62.5454 12.81 63.5636 12.81C64.5818 12.81 65.4545 12.46 66.0363 11.83C66.6909 11.2 66.9818 10.29 66.9818 9.03V4.69C66.9818 3.5 66.6909 2.52 66.0363 1.89C65.3818 1.26 64.5818 0.91 63.5636 0.91ZM65.0909 9.03C65.0909 9.73 64.9454 10.22 64.6545 10.57C64.3636 10.92 64 11.06 63.4909 11.06C62.9818 11.06 62.6181 10.92 62.3272 10.57C62.0363 10.22 61.8909 9.73 61.8909 9.03V4.69C61.8909 3.99 62.0363 3.5 62.3272 3.15C62.6181 2.8 62.9818 2.66 63.4909 2.66C64 2.66 64.3636 2.8 64.6545 3.15C64.9454 3.5 65.0909 3.99 65.0909 4.69V9.03ZM69.3091 0.84V5.46H67.4909V7.28H69.3091V13.16H71.2727V0.84H69.3091ZM27.7818 14H14.5454V0H27.7818C28.509 0 29.0909 0.56 29.0909 1.26V12.74C29.0909 13.44 28.509 14 27.7818 14Z" fill="#7346F3"/>
<path d="M25.6727 6.09004H22.7636V3.29004H20.8V6.09004H17.8909V7.98004H25.6727V6.09004ZM20.8727 8.19004V10.71H22.8363V9.45004C22.8363 8.54004 21.8909 8.19004 20.8727 8.19004Z" fill="white"/>
<path d="M1.30909 0H14.5455V14H1.30909C0.581818 14 0 13.44 0 12.74V1.26C0 0.56 0.581818 0 1.30909 0Z" fill="#03C75A"/>
<path fill-rule="evenodd" clip-rule="evenodd" d="M8.65449 7.20995L6.03631 3.56995H3.85449V10.4299H6.18176V6.78995L8.79995 10.4299H10.9818V3.56995H8.65449V7.20995Z" fill="white"/>
</g>
<defs>
<clipPath id="clip0_2049_2275">
<rect width="72" height="14" fill="white"/>
</clipPath>
</defs>
</svg>
