<svg width="56" height="20" viewBox="0 0 56 20" fill="none" xmlns="http://www.w3.org/2000/svg">
<path d="M9.91723 3.98797C9.91723 3.98797 8.90448 7.9152 8.71775 8.63559C8.05693 11.1833 6.67342 12.6074 4.74586 12.6198C3.46243 12.6279 2.97597 11.6354 3.38118 9.78499C3.38118 9.78499 4.49724 5.15512 4.73563 4.16753C4.7577 4.0756 4.68774 3.98851 4.59357 3.98851H1.54187C1.54187 3.98851 0.798719 7.05341 0.314946 8.90224C-0.580492 12.3257 0.427414 15.0025 3.41615 15.2084C5.02622 15.3191 6.42642 14.5315 7.48975 13.5031L7.54249 13.5085C6.92849 15.5831 5.89152 16.7336 3.8515 17.1233C3.07175 17.2723 1.95569 17.1422 1.14473 16.7196C1.07262 16.682 0.98491 16.7185 0.965 16.7975L0.227232 19.727C1.01451 19.9667 2.46206 20.121 4.01616 19.8759C6.74553 19.4453 10.0286 17.3905 11.1393 12.6381L13.2213 4.17345C13.2444 4.0799 13.1734 3.98959 13.0766 3.98905H9.9183L9.91723 3.98797Z" fill="#060000"/>
<path d="M55.8547 11.7107H53.2357L55.2558 4.17076C55.2805 4.07829 55.2111 3.98797 55.1153 3.98797H52.3886L50.2797 11.7107H47.9771L50.0171 4.17237C50.043 4.0799 49.9735 3.98797 49.8772 3.98797H47.206C47.206 3.98797 45.2251 11.1607 44.9173 12.2505C43.804 16.1927 41.3237 14.5353 39.9639 14.1982C42.0448 12.9359 43.6022 11.3946 44.3658 9.20868C44.9792 7.45178 44.7586 5.52876 43.4951 4.4186C42.2703 3.34231 40.7883 3.13049 39.3838 3.32456C37.7748 3.54713 36.2589 4.56375 35.4916 5.81154L37.0478 7.75606C37.1043 7.82649 37.2157 7.81574 37.255 7.73402C37.615 6.9846 38.299 6.2884 38.9861 6.05454C39.7847 5.78304 40.6597 5.80455 41.2489 6.37764C41.8226 6.93514 41.8683 8.1711 41.2253 9.36566C40.142 11.3769 37.1011 13.4251 34.5924 14.345L35.7326 17.0556C35.7638 17.1292 35.8564 17.1561 35.9199 17.1072C36.5737 16.6035 37.658 16.3701 38.4701 16.4379C40.2227 16.5847 40.6188 17.1228 42.2353 17.3169C44.6181 17.6029 46.4192 16.2739 47.1688 14.1143L49.6114 14.1289L48.3258 18.8189C48.3 18.9114 48.3694 19.0033 48.4657 19.0033H51.2731L52.5775 14.1445L55.4016 14.1595L55.9951 11.8919C56.0194 11.7999 55.9499 11.7096 55.8547 11.7096V11.7107Z" fill="#060000"/>
<path d="M30.4682 8.97159C29.0873 8.29582 28.1322 7.67757 28.2457 6.8174C28.3221 6.2384 29.0303 5.81207 30.1028 5.90992C30.7706 5.97121 31.3448 6.28409 31.884 6.77385C32.1934 7.05502 32.5313 7.45715 32.7342 7.80875C32.7746 7.87864 32.8704 7.88993 32.9274 7.83294L34.8942 5.87981C33.5312 3.98797 31.99 3.30629 29.9031 3.25951C28.1941 3.22134 26.2907 3.79658 25.4669 5.58144C24.9879 6.61956 24.9567 8.04261 26.0588 9.3377C26.6201 9.99735 27.5494 10.6866 28.7117 11.251C30.247 11.9962 30.9154 12.5553 30.8056 13.3483C30.6441 14.5159 29.463 14.8573 28.4443 14.7229C26.8983 14.5197 25.8699 13.6488 26.0389 12.0725L23.0846 11.2704C23.0125 11.251 22.942 11.2994 22.9296 11.3731C22.8699 11.7268 22.7154 12.1107 22.5136 12.4478C21.6494 13.8907 19.8892 14.9186 17.9589 14.5106C15.5412 13.9998 15.0827 11.5795 15.8936 8.95762C16.7067 6.32979 19.6551 5.18953 20.7055 5.92228C21.4885 6.46796 21.2248 7.67919 20.4494 8.52C19.6605 9.3748 18.1758 9.86671 16.6336 9.89628C16.5168 9.89843 16.4501 10.0307 16.5141 10.128L17.7566 11.9774C21.0402 11.9897 23.8336 9.71726 24.1877 7.65553C24.5144 5.75509 23.6345 4.1428 21.7839 3.52886C20.4817 3.09716 18.6908 3.27672 17.2583 3.84013C15.25 4.63041 13.5732 6.3814 12.8925 8.46678C12.0105 11.1693 12.2952 13.4864 13.5076 15.0772C14.4504 16.3148 15.8619 17.2432 18.0332 17.3325C20.2589 17.4239 22.4404 16.6465 23.8143 15.0234C24.3879 16.0234 26.1836 17.2266 28.4002 17.3298C31.8608 17.49 33.9111 15.5955 34.1172 13.3703C34.2996 11.4 32.7574 10.0914 30.4682 8.97106V8.97159Z" fill="#060000"/>
<path d="M5.64076 3.37134C6.50283 3.37134 6.83701 2.71546 7.05656 1.6854C7.26966 0.683299 7.22069 0 6.35808 0C5.496 0 5.15591 0.683299 4.94227 1.68594C4.72326 2.71546 4.77868 3.37187 5.64076 3.37187V3.37134Z" fill="#0080FF"/>
<path d="M8.94268 3.37134C9.80476 3.37134 10.1389 2.71546 10.3585 1.6854C10.5716 0.683299 10.5221 0 9.66 0C8.79793 0 8.45783 0.683299 8.2442 1.68594C8.02518 2.71546 8.08061 3.37187 8.94268 3.37187V3.37134Z" fill="#0080FF"/>
</svg>
