<svg width="40" height="40" viewBox="0 0 40 40" fill="none" xmlns="http://www.w3.org/2000/svg">
<path d="M28.0615 5C30.2705 5.00014 32.0615 6.79095 32.0615 9V23.4092C32.0615 25.6182 30.2705 27.409 28.0615 27.4092H15.4463C15.016 28.9307 13.6182 30.0458 11.959 30.0459H7.01562V9C7.01562 6.79089 8.80653 5.00005 11.0156 5H28.0615Z" fill="white"/>
<path d="M28.0615 5L28.0616 4.5H28.0615V5ZM32.0615 9L32.5615 9V9L32.0615 9ZM32.0615 23.4092L32.5615 23.4092V23.4092H32.0615ZM28.0615 27.4092L28.0615 27.9092L28.0616 27.9092L28.0615 27.4092ZM15.4463 27.4092V26.9092H15.0681L14.9652 27.2731L15.4463 27.4092ZM11.959 30.0459L11.959 30.5459L11.959 30.5459L11.959 30.0459ZM7.01562 30.0459H6.51562V30.5459H7.01562V30.0459ZM11.0156 5L11.0156 4.5L11.0156 4.5L11.0156 5ZM28.0615 5L28.0615 5.5C29.9944 5.50012 31.5615 7.06712 31.5615 9L32.0615 9L32.5615 9C32.5615 6.51477 30.5467 4.50016 28.0616 4.5L28.0615 5ZM32.0615 9H31.5615V23.4092H32.0615H32.5615V9H32.0615ZM32.0615 23.4092L31.5615 23.4092C31.5615 25.3421 29.9944 26.9091 28.0615 26.9092L28.0615 27.4092L28.0616 27.9092C30.5467 27.909 32.5615 25.8944 32.5615 23.4092L32.0615 23.4092ZM28.0615 27.4092V26.9092H15.4463V27.4092V27.9092H28.0615V27.4092ZM15.4463 27.4092L14.9652 27.2731C14.5941 28.5853 13.3884 29.5458 11.959 29.5459L11.959 30.0459L11.959 30.5459C13.8481 30.5458 15.4379 29.2761 15.9274 27.5453L15.4463 27.4092ZM11.959 30.0459V29.5459H7.01562V30.0459V30.5459H11.959V30.0459ZM7.01562 30.0459H7.51562V9H7.01562H6.51562V30.0459H7.01562ZM7.01562 9H7.51562C7.51562 7.06704 9.08266 5.50004 11.0156 5.5L11.0156 5L11.0156 4.5C8.53039 4.50005 6.51562 6.51474 6.51562 9H7.01562ZM11.0156 5V5.5H28.0615V5V4.5H11.0156V5Z" fill="#323232"/>
<path d="M18.8008 14.5762H20.274V21.2059" stroke="#323232" stroke-width="1.5" stroke-linecap="round" stroke-linejoin="round"/>
<path d="M18.8008 21.9434L21.7473 21.9434" stroke="#323232" stroke-width="1.5" stroke-miterlimit="10" stroke-linecap="round"/>
<path d="M19.6963 10.208C19.9045 10.1666 20.1202 10.1883 20.3164 10.2695C20.5126 10.3508 20.6808 10.4885 20.7988 10.665C20.9165 10.8414 20.9794 11.0487 20.9795 11.2607C20.9795 11.5455 20.8664 11.8191 20.665 12.0205C20.4637 12.2219 20.19 12.335 19.9053 12.335C19.6932 12.3349 19.4859 12.272 19.3096 12.1543C19.133 12.0363 18.9953 11.8681 18.9141 11.6719C18.8328 11.4757 18.8111 11.26 18.8525 11.0518C18.894 10.8435 18.9963 10.6521 19.1465 10.502C19.2966 10.3518 19.488 10.2494 19.6963 10.208Z" fill="black"/>
<path d="M19.6963 10.208C19.9045 10.1666 20.1202 10.1883 20.3164 10.2695C20.5126 10.3508 20.6808 10.4885 20.7988 10.665C20.9165 10.8414 20.9794 11.0487 20.9795 11.2607C20.9795 11.5455 20.8664 11.8191 20.665 12.0205C20.4637 12.2219 20.19 12.335 19.9053 12.335C19.6932 12.3349 19.4859 12.272 19.3096 12.1543C19.133 12.0363 18.9953 11.8681 18.9141 11.6719C18.8328 11.4757 18.8111 11.26 18.8525 11.0518C18.894 10.8435 18.9963 10.6521 19.1465 10.502C19.2966 10.3518 19.488 10.2494 19.6963 10.208Z" fill="black" fill-opacity="0.2"/>
<path d="M19.6963 10.208C19.9045 10.1666 20.1202 10.1883 20.3164 10.2695C20.5126 10.3508 20.6808 10.4885 20.7988 10.665C20.9165 10.8414 20.9794 11.0487 20.9795 11.2607C20.9795 11.5455 20.8664 11.8191 20.665 12.0205C20.4637 12.2219 20.19 12.335 19.9053 12.335C19.6932 12.3349 19.4859 12.272 19.3096 12.1543C19.133 12.0363 18.9953 11.8681 18.9141 11.6719C18.8328 11.4757 18.8111 11.26 18.8525 11.0518C18.894 10.8435 18.9963 10.6521 19.1465 10.502C19.2966 10.3518 19.488 10.2494 19.6963 10.208Z" stroke="#323232" stroke-width="0.0625"/>
<path d="M25.4688 34H32.0597" stroke="#323232" stroke-miterlimit="10" stroke-linecap="round"/>
<path d="M10.3125 5.66016L10.3125 27.4102" stroke="#323232" stroke-miterlimit="10" stroke-linecap="round"/>
<path d="M7.01562 30.7056C7.01562 28.8856 8.49106 27.4102 10.3111 27.4102H30.0839V34.0011H10.3111C8.49105 34.0011 7.01562 32.5257 7.01562 30.7056V30.7056Z" fill="white" stroke="#323232" stroke-linejoin="round"/>
<path d="M30.1398 29.889C27.5426 29.889 25.4297 27.776 25.4297 25.1789C25.4297 22.5817 27.5426 20.4688 30.1398 20.4688C31.7971 20.4688 33.2882 21.3337 34.2309 22.8419L34.232 22.8438L34.2332 22.8456C34.6194 23.4555 34.8499 24.3277 34.8499 25.1789C34.8499 27.776 32.737 29.889 30.1398 29.889Z" fill="#FFD139" stroke="#323232"/>
<path d="M28.7188 25.4882L29.725 26.7405L31.56 23.623" stroke="#323232" stroke-miterlimit="10" stroke-linecap="round" stroke-linejoin="round"/>
</svg>
