<svg width="40" height="40" viewBox="0 0 40 40" fill="none" xmlns="http://www.w3.org/2000/svg">
<path d="M0 20C0 8.95431 8.95431 0 20 0V0C31.0457 0 40 8.95431 40 20V20C40 31.0457 31.0457 40 20 40V40C8.95431 40 0 31.0457 0 20V20Z" fill="black"/>
<path d="M0 20C0 8.95431 8.95431 0 20 0V0C31.0457 0 40 8.95431 40 20V20C40 31.0457 31.0457 40 20 40V40C8.95431 40 0 31.0457 0 20V20Z" fill="black" fill-opacity="0.2"/>
<g clip-path="url(#clip0_1771_3640)">
<path d="M26.7864 24.659C26.5321 25.2413 26.231 25.7773 25.8822 26.27C25.4067 26.9418 25.0174 27.4068 24.7174 27.6651C24.2523 28.0889 23.754 28.306 23.2204 28.3183C22.8373 28.3183 22.3753 28.2103 21.8375 27.9912C21.298 27.7731 20.8022 27.6651 20.3488 27.6651C19.8734 27.6651 19.3634 27.7731 18.818 27.9912C18.2717 28.2103 17.8316 28.3245 17.4951 28.3358C16.9834 28.3574 16.4734 28.1342 15.9643 27.6651C15.6393 27.3842 15.2329 26.9027 14.746 26.2207C14.2236 25.4923 13.7941 24.6477 13.4577 23.6847C13.0973 22.6446 12.9167 21.6375 12.9167 20.6624C12.9167 19.5455 13.1602 18.5821 13.6481 17.7748C14.0314 17.1264 14.5415 16.6149 15.1799 16.2394C15.8182 15.8639 16.508 15.6725 17.2508 15.6603C17.6572 15.6603 18.1902 15.7849 18.8525 16.0297C19.513 16.2754 19.9371 16.4 20.123 16.4C20.262 16.4 20.7332 16.2543 21.5318 15.9639C22.2871 15.6945 22.9245 15.583 23.4467 15.627C24.8617 15.7401 25.9248 16.2929 26.6317 17.2887C25.3662 18.0486 24.7402 19.1129 24.7527 20.4781C24.7641 21.5416 25.1534 22.4265 25.9185 23.1292C26.2653 23.4553 26.6525 23.7074 27.0833 23.8864C26.9899 24.1549 26.8913 24.4121 26.7864 24.659V24.659ZM23.5412 12.004C23.5412 12.8375 23.2339 13.6158 22.6213 14.3362C21.8822 15.1925 20.9881 15.6873 20.0186 15.6093C20.0062 15.5093 19.9991 15.404 19.9991 15.2934C19.9991 14.4932 20.3506 13.6369 20.9748 12.9367C21.2865 12.5822 21.6829 12.2874 22.1635 12.0523C22.6431 11.8206 23.0968 11.6925 23.5235 11.6706C23.536 11.782 23.5412 11.8935 23.5412 12.004V12.004Z" fill="white"/>
</g>
<defs>
<clipPath id="clip0_1771_3640">
<rect width="16.6667" height="16.6667" fill="white" transform="translate(11.6667 11.6667)"/>
</clipPath>
</defs>
</svg>
