<svg width="40" height="40" viewBox="0 0 40 40" fill="none" xmlns="http://www.w3.org/2000/svg">
<path d="M29.0346 20.2188H10.9708C8.79072 20.2188 7.02344 21.986 7.02344 24.1661V31.0526C7.02344 33.2327 8.79072 34.9999 10.9708 34.9999H29.0346C31.2146 34.9999 32.9819 33.2327 32.9819 31.0526V24.1661C32.9819 21.986 31.2146 20.2188 29.0346 20.2188Z" fill="white" stroke="#323232" stroke-miterlimit="10" stroke-linecap="round" stroke-linejoin="round"/>
<path d="M7.99999 22.6933C7.22963 22.7174 6.48116 22.4349 5.91877 21.9079C5.35638 21.3809 5.02596 20.6523 5 19.882V15.2637H11V19.882C10.9742 20.6524 10.6439 21.3811 10.0814 21.9081C9.51898 22.4352 8.7704 22.7176 7.99999 22.6933Z" fill="white" stroke="#323232" stroke-miterlimit="10" stroke-linecap="round" stroke-linejoin="round"/>
<path d="M14 22.6933C13.2296 22.7174 12.4812 22.4349 11.9188 21.9079C11.3564 21.3809 11.026 20.6523 11 19.882V15.2637H17V19.882C16.9742 20.6524 16.6438 21.3811 16.0814 21.9081C15.519 22.4352 14.7704 22.7176 14 22.6933Z" fill="#FFD139" stroke="#323232" stroke-miterlimit="10" stroke-linecap="round" stroke-linejoin="round"/>
<path d="M20 22.6933C19.2296 22.7174 18.4812 22.4349 17.9188 21.9079C17.3564 21.3809 17.026 20.6523 17 19.882V15.2637H23V19.882C22.9742 20.6524 22.6438 21.3811 22.0814 21.9081C21.519 22.4352 20.7704 22.7176 20 22.6933Z" fill="white" stroke="#323232" stroke-miterlimit="10" stroke-linecap="round" stroke-linejoin="round"/>
<path d="M26 22.6933C25.2296 22.7174 24.4812 22.4349 23.9188 21.9079C23.3564 21.3809 23.026 20.6523 23 19.882V15.2637H29V19.882C28.9742 20.6524 28.6438 21.3811 28.0814 21.9081C27.519 22.4352 26.7704 22.7176 26 22.6933Z" fill="#FFD139" stroke="#323232" stroke-miterlimit="10" stroke-linecap="round" stroke-linejoin="round"/>
<path d="M32 22.6933C31.2296 22.7174 30.4812 22.4349 29.9188 21.9079C29.3564 21.3809 29.026 20.6523 29 19.882V15.2637H35V19.882C34.9742 20.6524 34.6438 21.3811 34.0814 21.9081C33.519 22.4352 32.7704 22.7176 32 22.6933Z" fill="white" stroke="#323232" stroke-miterlimit="10" stroke-linecap="round" stroke-linejoin="round"/>
<path d="M28.176 26.7109H22.0742V34.8567H28.176V26.7109Z" fill="white" stroke="#323232" stroke-miterlimit="10" stroke-linecap="round" stroke-linejoin="round"/>
<path d="M27.5017 5.78906H12.5018C10.5398 5.78906 8.94922 7.37962 8.94922 9.34166C8.94922 11.3037 10.5398 12.8943 12.5018 12.8943H27.5017C29.4637 12.8943 31.0543 11.3037 31.0543 9.34166C31.0543 7.37962 29.4637 5.78906 27.5017 5.78906Z" fill="white" stroke="#323232"/>
<path d="M17.7074 9.04037C17.871 9.10311 18.0122 9.21302 18.1132 9.35615C18.2173 9.50809 18.2704 9.68918 18.2648 9.87325C18.2714 10.0058 18.2444 10.1378 18.1865 10.2572C18.1285 10.3765 18.0414 10.4794 17.9332 10.5561C17.6436 10.7336 17.3058 10.8164 16.9669 10.793H15.2656V7.42986H16.8761C17.1982 7.40848 17.5185 7.49154 17.7895 7.6667C17.8908 7.73956 17.9726 7.83622 18.0276 7.94815C18.0827 8.06009 18.1094 8.18385 18.1053 8.30853C18.1075 8.45743 18.0701 8.60424 17.9972 8.73405C17.9276 8.8587 17.828 8.964 17.7074 9.04037ZM16.1017 8.7759H16.7648C17.098 8.7759 17.2646 8.66063 17.2646 8.43011C17.2646 8.19959 17.098 8.0859 16.7648 8.08906H16.1017V8.7759ZM16.8911 10.1361C17.2406 10.1361 17.4153 10.0159 17.4153 9.77536C17.4153 9.53484 17.2406 9.41457 16.8911 9.41457H16.1017V10.1354L16.8911 10.1361ZM20.9174 10.5064C20.5896 10.737 20.198 10.8595 19.7972 10.8569C19.5658 10.8603 19.3359 10.8195 19.1198 10.7369C18.9352 10.6693 18.7718 10.5541 18.6461 10.403C18.5327 10.2667 18.4709 10.0948 18.4716 9.91746C18.4674 9.71969 18.5272 9.52584 18.6422 9.36484C18.7899 9.17972 18.976 9.02888 19.1877 8.92274C19.0855 8.82261 19.0002 8.70664 18.9351 8.57932C18.8832 8.47226 18.8562 8.35486 18.8561 8.2359C18.8532 8.07613 18.9013 7.91959 18.9935 7.78906C19.0921 7.65495 19.226 7.55083 19.3803 7.48828C19.5626 7.41387 19.7582 7.3776 19.9551 7.3817C20.2167 7.36875 20.475 7.44501 20.6877 7.59801C20.7769 7.6658 20.8486 7.75403 20.8967 7.85528C20.9448 7.95652 20.9679 8.06783 20.964 8.17985C20.9654 8.34798 20.9097 8.51162 20.8061 8.64406C20.6737 8.80278 20.509 8.93144 20.3229 9.02142L20.8661 9.50221C20.934 9.34282 20.9856 9.17698 21.02 9.00721L21.6974 9.22352C21.6418 9.49457 21.5346 9.75241 21.3816 9.98299L21.7566 10.3146L21.2956 10.853L20.9174 10.5064ZM19.9551 7.95406C19.8698 7.94966 19.7857 7.97599 19.7182 8.02827C19.69 8.0521 19.6675 8.08203 19.6524 8.1158C19.6374 8.14958 19.6302 8.18632 19.6314 8.22327C19.6316 8.28162 19.6474 8.33886 19.6772 8.38906C19.729 8.46684 19.7911 8.53722 19.8619 8.59827C19.9721 8.54608 20.0736 8.4771 20.1627 8.39379C20.2169 8.34304 20.2489 8.27299 20.2519 8.1988C20.2529 8.16517 20.2463 8.13176 20.2326 8.10102C20.2189 8.07028 20.1986 8.04299 20.1729 8.02117C20.1112 7.97244 20.0335 7.94852 19.9551 7.95406ZM19.8493 10.1985C20.0486 10.1993 20.2445 10.1461 20.4161 10.0446L19.6519 9.35694C19.5483 9.40985 19.4567 9.48348 19.3827 9.57326C19.3291 9.6473 19.3014 9.7369 19.3037 9.82826C19.304 9.88173 19.3178 9.93426 19.3439 9.98094C19.37 10.0276 19.4075 10.0669 19.453 10.0951C19.572 10.1693 19.7108 10.2054 19.8508 10.1985H19.8493ZM25.0076 9.0451V10.429C24.8233 10.5705 24.615 10.6774 24.3926 10.7448C24.1642 10.8177 23.9259 10.8549 23.6861 10.8554C23.3717 10.8604 23.0614 10.784 22.7853 10.6335C22.5211 10.4888 22.3024 10.2734 22.1537 10.0114C22.0005 9.73686 21.9229 9.42657 21.9287 9.11221C21.9232 8.79674 22.002 8.48551 22.1569 8.21064C22.3057 7.94938 22.5244 7.73477 22.7885 7.59091C23.07 7.43907 23.3859 7.36214 23.7058 7.36749C23.9769 7.3627 24.2459 7.41516 24.4953 7.52143C24.7235 7.62066 24.924 7.77404 25.0795 7.96827L24.534 8.49248C24.4389 8.37447 24.3187 8.27915 24.1821 8.21346C24.0455 8.14777 23.896 8.11336 23.7445 8.11274C23.5675 8.10892 23.3927 8.15195 23.2377 8.23748C23.0934 8.31927 22.9758 8.44099 22.899 8.588C22.8162 8.7501 22.7749 8.93023 22.779 9.11221C22.7759 9.29182 22.8171 9.46943 22.899 9.62931C22.9748 9.77685 23.0916 9.89938 23.2353 9.9822C23.3878 10.0675 23.5603 10.1106 23.735 10.1069C23.9104 10.109 24.0842 10.0729 24.2442 10.0011V9.0451H25.0076Z" fill="#323232"/>
<path d="M12.1063 12.8945H10.5273V15.2629H12.1063V12.8945Z" fill="#33302B"/>
<path d="M29.4774 12.8945H27.8984V15.2629H29.4774V12.8945Z" fill="#33302B"/>
</svg>
