<svg width="40" height="40" viewBox="0 0 40 40" fill="none" xmlns="http://www.w3.org/2000/svg">
<path d="M12.0889 31.5C13.0471 31.4998 13.8242 30.7229 13.8242 29.7646V28.0293H5.41211V29.7646C5.41211 30.723 6.18908 31.5 7.14746 31.5H12.0889Z" fill="white" stroke="#323232"/>
<path d="M31.8525 31.5C32.8108 31.4998 33.5879 30.7229 33.5879 29.7646V28.0293H25.1758V29.7646C25.1758 30.723 25.9528 31.5 26.9111 31.5H31.8525Z" fill="white" stroke="#323232"/>
<path d="M25.6758 9.5C26.6342 9.5 27.4111 10.277 27.4111 11.2354V12.9707H11.5879V11.2354C11.5879 10.277 12.3649 9.5 13.3232 9.5H25.6758Z" fill="white" stroke="#323232"/>
<rect x="2.32422" y="11.9707" width="34.3529" height="16.6955" rx="2.46194" fill="white" stroke="#323232"/>
<mask id="path-5-inside-1_3241_55393" fill="white">
<rect x="3.80371" y="13.4512" width="31.391" height="13.7336" rx="0.980969"/>
</mask>
<rect x="3.80371" y="13.4512" width="31.391" height="13.7336" rx="0.980969" fill="#FFD139" stroke="#323232" stroke-width="2" mask="url(#path-5-inside-1_3241_55393)"/>
<path d="M25.4241 23.8256C23.6637 23.8223 22.5817 22.5152 22.585 20.2849C22.5916 18.058 23.667 16.7939 25.4241 16.7939C27.1812 16.7939 28.2665 18.0613 28.2632 20.2849C28.2599 22.5218 27.1845 23.8289 25.4241 23.8256ZM24.2262 20.2849C24.2196 21.7905 24.706 22.5152 25.4241 22.5152C26.1455 22.5152 26.6253 21.7905 26.6253 20.2849C26.622 18.8025 26.1422 18.0944 25.4241 18.0944C24.706 18.0944 24.2295 18.8025 24.2262 20.2849Z" fill="#323232"/>
<path d="M18.8919 23.8256C17.1315 23.8223 16.0494 22.5152 16.0527 20.2849C16.0594 18.058 17.1348 16.7939 18.8919 16.7939C20.649 16.7939 21.7343 18.0613 21.731 20.2849C21.7277 22.5218 20.6523 23.8289 18.8919 23.8256ZM17.694 20.2849C17.6874 21.7905 18.1738 22.5152 18.8919 22.5152C19.6132 22.5152 20.093 21.7905 20.093 20.2849C20.0897 18.8025 19.6099 18.0944 18.8919 18.0944C18.1738 18.0944 17.6973 18.8025 17.694 20.2849Z" fill="#323232"/>
<path d="M13.3955 16.8872C14.0777 16.8872 14.6308 17.4403 14.6308 18.1225V22.8666C14.6308 23.307 14.2738 23.6641 13.8333 23.6641C13.3929 23.6641 13.0359 23.307 13.0359 22.8666V18.3829H12.9962L12.6523 18.594C12.1354 18.9113 11.4707 18.5394 11.4707 17.9329L13.1451 16.8872H13.3955Z" fill="#323232"/>
</svg>
