<svg width="40" height="40" viewBox="0 0 40 40" fill="none" xmlns="http://www.w3.org/2000/svg">
<path d="M27.2275 4L34.4551 11.2275V28.5723H16.7734C14.5643 28.5723 12.7734 26.7814 12.7734 24.5723V8C12.7734 5.79086 14.5643 4 16.7734 4H27.2275Z" fill="white"/>
<path d="M27.2275 4L27.5811 3.64645C27.4873 3.55268 27.3601 3.5 27.2275 3.5V4ZM34.4551 11.2275H34.9551C34.9551 11.0949 34.9024 10.9678 34.8086 10.874L34.4551 11.2275ZM34.4551 28.5723V29.0723C34.7312 29.0723 34.9551 28.8484 34.9551 28.5723H34.4551ZM27.2275 4L26.874 4.35355L34.1015 11.5811L34.4551 11.2275L34.8086 10.874L27.5811 3.64645L27.2275 4ZM34.4551 11.2275H33.9551V28.5723H34.4551H34.9551V11.2275H34.4551ZM34.4551 28.5723V28.0723H16.7734V28.5723V29.0723H34.4551V28.5723ZM16.7734 28.5723V28.0723C14.8404 28.0723 13.2734 26.5053 13.2734 24.5723H12.7734H12.2734C12.2734 27.0575 14.2882 29.0723 16.7734 29.0723V28.5723ZM12.7734 24.5723H13.2734V8H12.7734H12.2734V24.5723H12.7734ZM12.7734 8H13.2734C13.2734 6.067 14.8404 4.5 16.7734 4.5V4V3.5C14.2882 3.5 12.2734 5.51472 12.2734 8H12.7734ZM16.7734 4V4.5H27.2275V4V3.5H16.7734V4Z" fill="#323232"/>
<path d="M17.1094 19.9004L30.1185 19.9004" stroke="#323232" stroke-miterlimit="10" stroke-linecap="round"/>
<path d="M22.168 15.5645L30.118 15.5645" stroke="#323232" stroke-miterlimit="10" stroke-linecap="round"/>
<path d="M17.1094 24.2363H30.1185" stroke="#323232" stroke-miterlimit="10" stroke-linecap="round"/>
<path d="M27.2259 11.2285L34.4531 11.2285L27.2259 4.00124L27.2259 11.2285Z" fill="#9EE56F" stroke="#323232" stroke-linejoin="round"/>
<path d="M20.002 11.2266L27.2285 18.4531V35.7988H9.54688C7.33774 35.7988 5.54688 34.008 5.54688 31.7988V15.2266C5.54688 13.0174 7.33774 11.2266 9.54688 11.2266H20.002Z" fill="white"/>
<path d="M20.002 11.2266L20.3555 10.873C20.2617 10.7792 20.1346 10.7266 20.002 10.7266V11.2266ZM27.2285 18.4531H27.7285C27.7285 18.3205 27.6758 18.1933 27.5821 18.0996L27.2285 18.4531ZM27.2285 35.7988V36.2988C27.5047 36.2988 27.7285 36.075 27.7285 35.7988H27.2285ZM20.002 11.2266L19.6484 11.5801L26.875 18.8067L27.2285 18.4531L27.5821 18.0996L20.3555 10.873L20.002 11.2266ZM27.2285 18.4531H26.7285V35.7988H27.2285H27.7285V18.4531H27.2285ZM27.2285 35.7988V35.2988H9.54688V35.7988V36.2988H27.2285V35.7988ZM9.54688 35.7988V35.2988C7.61388 35.2988 6.04688 33.7318 6.04688 31.7988H5.54688H5.04688C5.04688 34.2841 7.06159 36.2988 9.54688 36.2988V35.7988ZM5.54688 31.7988H6.04688V15.2266H5.54688H5.04688V31.7988H5.54688ZM5.54688 15.2266H6.04688C6.04688 13.2936 7.61388 11.7266 9.54688 11.7266V11.2266V10.7266C7.06159 10.7266 5.04688 12.7413 5.04688 15.2266H5.54688ZM9.54688 11.2266V11.7266H20.002V11.2266V10.7266H9.54688V11.2266Z" fill="#323232"/>
<path d="M9.88281 27.1289L22.8919 27.1289" stroke="#323232" stroke-miterlimit="10" stroke-linecap="round"/>
<path d="M14.9414 22.791L22.8914 22.791" stroke="#323232" stroke-miterlimit="10" stroke-linecap="round"/>
<path d="M9.88281 31.4629H22.8919" stroke="#323232" stroke-miterlimit="10" stroke-linecap="round"/>
<path d="M19.9993 18.4551L27.2266 18.4551L19.9993 11.2278L19.9993 18.4551Z" fill="#9EE56F" stroke="#323232" stroke-linejoin="round"/>
<path d="M12.4124 15.0129V20.3005C12.4124 21.2749 11.683 22.0675 10.7863 22.0675C9.88959 22.0675 9.16016 21.2749 9.16016 20.3005V14.7605C9.16016 12.8067 10.6144 11.2266 12.4124 11.2266C14.2105 11.2266 15.6647 12.8067 15.6647 14.7605V17.2581" stroke="#323232" stroke-miterlimit="10" stroke-linecap="round"/>
</svg>
