<svg width="40" height="40" viewBox="0 0 40 40" fill="none" xmlns="http://www.w3.org/2000/svg">
<path d="M31.0498 18.95C31.0498 11.2456 24.8042 5 17.0998 5C9.3955 5 3.14989 11.2456 3.14989 18.95V27.8272C3.14989 28.8348 3.14989 29.3386 3.24042 29.7563C3.57168 31.2845 4.76535 32.4781 6.29355 32.8094C6.71119 32.8999 7.21499 32.8999 8.2226 32.8999H17.0998C24.8042 32.8999 31.0498 26.6543 31.0498 18.95Z" fill="white" stroke="#323232"/>
<path d="M10.1045 19.2085H19.0782" stroke="#323232" stroke-miterlimit="10" stroke-linecap="round"/>
<path d="M10.1045 23.6953H16.8347" stroke="#323232" stroke-miterlimit="10" stroke-linecap="round"/>
<path d="M10.1045 14.7217H23.565" stroke="#323232" stroke-miterlimit="10" stroke-linecap="round"/>
<path d="M20.1982 27.4752C20.1982 22.767 24.015 18.9502 28.7232 18.9502C33.4314 18.9502 37.2482 22.767 37.2482 27.4752V32.9002C37.2482 34.6122 35.8603 36.0001 34.1482 36.0001H28.7232C24.015 36.0001 20.1982 32.1834 20.1982 27.4752Z" fill="#FFD139" stroke="#323232"/>
<path d="M27.3027 25.3347C27.3027 24.4293 28.0184 23.6953 28.9012 23.6953C29.784 23.6953 30.4996 24.4293 30.4996 25.3347C30.4996 25.6611 30.4066 25.9652 30.2463 26.2207C29.7686 26.9821 28.9012 27.7081 28.9012 28.6136V29.0234" stroke="#323232" stroke-linecap="round"/>
<path d="M28.9023 31.1545H28.9101" stroke="#323232" stroke-linecap="round" stroke-linejoin="round"/>
</svg>
