<svg width="40" height="40" viewBox="0 0 40 40" fill="none" xmlns="http://www.w3.org/2000/svg">
<rect width="40" height="40" rx="20" fill="#FEE500"/>
<g clip-path="url(#clip0_1771_3635)">
<path d="M19.9962 10.7031C14.4762 10.7031 10 14.2544 10 18.6368C10 21.4703 11.8701 23.9524 14.6864 25.3615L13.6725 29.0073C13.6725 29.0073 13.6538 29.1773 13.7627 29.2415C13.8716 29.3057 14.003 29.2566 14.003 29.2566C14.3184 29.2113 17.6455 26.8576 18.2276 26.4496C18.8021 26.5327 19.3992 26.5743 20.0038 26.5743C25.5238 26.5743 30 23.023 30 18.6406C30 14.2582 25.5163 10.7031 19.9962 10.7031Z" fill="black"/>
<path d="M19.9962 10.7031C14.4762 10.7031 10 14.2544 10 18.6368C10 21.4703 11.8701 23.9524 14.6864 25.3615L13.6725 29.0073C13.6725 29.0073 13.6538 29.1773 13.7627 29.2415C13.8716 29.3057 14.003 29.2566 14.003 29.2566C14.3184 29.2113 17.6455 26.8576 18.2276 26.4496C18.8021 26.5327 19.3992 26.5743 20.0038 26.5743C25.5238 26.5743 30 23.023 30 18.6406C30 14.2582 25.5163 10.7031 19.9962 10.7031Z" fill="black" fill-opacity="0.2"/>
<path d="M14.4686 21.3996C14.1494 21.3996 13.8903 21.1502 13.8903 20.8442V17.395H12.9891C12.6774 17.395 12.4258 17.1419 12.4258 16.8283C12.4258 16.5147 12.6811 16.2616 12.9891 16.2616H15.9444C16.256 16.2616 16.5076 16.5147 16.5076 16.8283C16.5076 17.1419 16.2523 17.395 15.9444 17.395H15.0431V20.8442C15.0431 21.1465 14.7803 21.3996 14.4648 21.3996H14.4686ZM19.5268 21.392C19.2865 21.392 19.1025 21.2938 19.0461 21.1351L18.7607 20.3795H17.0033L16.7179 21.1351C16.6616 21.2938 16.4776 21.392 16.2373 21.392C16.1096 21.392 15.9857 21.3656 15.8693 21.3165C15.7115 21.2409 15.5576 21.0407 15.7341 20.4929L17.1122 16.8396C17.2099 16.56 17.5065 16.2729 17.882 16.2654C18.2575 16.2578 18.558 16.56 18.6518 16.8396L20.03 20.4929C20.2065 21.0407 20.0525 21.2485 19.8948 21.3165C19.7821 21.3694 19.6545 21.392 19.5268 21.392ZM18.4566 19.3519L17.882 17.7048L17.3075 19.3519H18.4566ZM20.9575 21.3165C20.6571 21.3165 20.4055 21.0785 20.4055 20.7876V16.8396C20.4055 16.5185 20.6684 16.2578 20.9951 16.2578C21.3218 16.2578 21.5846 16.5223 21.5846 16.8396V20.2473H22.8088C23.1092 20.2473 23.3608 20.4853 23.3608 20.7762C23.3608 21.0671 23.113 21.3051 22.8088 21.3051L20.9575 21.3165ZM23.5824 20.8102V16.8434C23.5824 16.5223 23.8452 16.2616 24.1607 16.2616C24.4761 16.2616 24.739 16.526 24.739 16.8434V18.0901L26.3537 16.4656C26.5314 16.2868 26.8674 16.3025 27.0709 16.5072C27.262 16.6994 27.3117 17.0245 27.1122 17.2287L25.7904 18.551L27.2099 20.44C27.4006 20.6856 27.3543 21.0682 27.0972 21.2485C26.8437 21.4374 26.4713 21.3744 26.2898 21.1351L24.938 19.3331L24.739 19.5333V20.7989C24.739 21.5528 23.5824 21.5818 23.5824 20.8102Z" fill="#FEE500"/>
</g>
<defs>
<clipPath id="clip0_1771_3635">
<rect width="20" height="20" fill="white" transform="translate(10 10)"/>
</clipPath>
</defs>
</svg>
