<svg width="40" height="40" viewBox="0 0 40 40" fill="none" xmlns="http://www.w3.org/2000/svg">
<path d="M37.5 2.94434V28.9443H2V2.94434H37.5Z" fill="white"/>
<path d="M24.1001 2.792H36.6601C37.8445 2.792 37.6914 2.71287 37.6914 3.82418V28.1668C37.6914 28.4403 37.5828 28.7026 37.3894 28.896C37.196 29.0894 36.9336 29.1981 36.6601 29.1981H32.8301H29H2.77056C2.49802 29.1949 2.23754 29.0853 2.04482 28.8925C1.85209 28.6998 1.74242 28.4393 1.73926 28.1668V3.82331C1.73926 3.54979 1.84791 3.28747 2.04132 3.09406C2.23473 2.90066 2.49704 2.792 2.77056 2.792H15.3297C16.8825 2.79416 18.4038 3.23027 19.7219 4.05113C21.0349 3.2305 22.5517 2.7943 24.1001 2.792Z" stroke="#323232" stroke-linecap="round"/>
<path d="M30.5 17.4443L29 16.9443L28.5 18.4443L25 20.9443L22.5 21.4443L20 21.9443L16.9258 21.6357L13 19.9443L11 17.9443L10 16.9443L9 17.4443L8.5 16.9443L7 15.9443V14.4443V13.4443L7.5 12.4443L8.5 11.9443L9.5 12.9443L10.5 13.4443H12L13 11.9443L14 12.4443H15.5L19 12.9443H22.5L26 11.9443L28.5 12.9443H30L32 11.9443L33 13.4443V14.4443L32.5 15.4443L31.5 16.9443L30.5 17.4443Z" fill="white"/>
<path d="M8.5 11.3125C8.5 11.3125 9.6713 15.4734 13 11.3125L16 11.6213L16.8462 12.2157L18.5 12.8125L23.2659 12.929L23.6225 11.9185L25 10.8125L26.7638 12.2157L28.5 13.3125L30 12.2157L31.2904 11.6213C31.2904 11.6213 30.9338 6.03379 26.654 4.36944C26.654 4.36944 20.9091 0.315966 15.5 2.81249C15.5 2.87193 9.62938 5.19006 8.5 11.3125Z" fill="#FFD139"/>
<mask id="path-5-inside-1_812_25524" fill="white">
<path d="M23 22V27H17V22"/>
</mask>
<path d="M23 22V27H17V22" fill="white"/>
<path d="M23 27V28H24V27H23ZM17 27H16V28H17V27ZM23 22H22V27H23H24V22H23ZM23 27V26H17V27V28H23V27ZM17 27H18V22H17H16V27H17Z" fill="#323232" mask="url(#path-5-inside-1_812_25524)"/>
<path d="M30.8457 12.0361L31.0625 11.9902C31.1971 11.9507 31.3389 11.9326 31.4678 11.9326C31.5793 11.9326 31.7237 11.9475 31.8623 12C32.3238 12.1356 32.5854 12.4257 32.7441 12.6758L32.873 12.9072L32.8828 12.9258L32.8906 12.9453C33.1676 13.6379 33.2407 14.541 32.8926 15.3887L32.8936 15.3896C32.6281 16.0863 32.2042 16.6747 31.7002 17.0527C31.213 17.418 30.6009 17.6151 29.9951 17.4229C29.8614 17.397 29.7651 17.3326 29.7188 17.2979L29.5762 17.1699L29.4121 17.0059L29.2754 17.2119C27.273 20.3345 23.6629 22.1904 19.8242 22.1904C15.9788 22.1904 12.3719 20.2695 10.373 17.2109V17.2119L10.2529 17.0312L10.1396 17.1562C10.1175 17.194 10.0968 17.2255 10.0781 17.2471C10.0212 17.3127 9.95797 17.357 9.91016 17.3857C9.8481 17.423 9.75471 17.4658 9.64648 17.4844C9.03271 17.6752 8.4201 17.452 7.94336 17.0859C7.5077 16.7513 7.13059 16.263 6.86523 15.7012L6.75879 15.4561L6.75586 15.4502C6.42529 14.5907 6.40174 13.6778 6.76367 12.9326C6.87318 12.6003 7.14753 12.2657 7.5332 12.0781L7.71875 12.0029C7.85992 11.9477 8.00826 11.9326 8.12207 11.9326C8.25079 11.9326 8.39195 11.9508 8.52637 11.9902L8.74414 12.0361V11.8115L8.76953 11.2852C9.18033 5.88496 14.0126 1.81266 19.7646 1.8125C25.703 1.8125 30.7197 6.27116 30.8457 11.8115V12.0361Z" stroke="#323232"/>
<path d="M22.6211 24.1436C27.7636 25.2465 31.6838 29.6901 32.1475 35.124L32.1543 35.3438C32.1265 36.4222 31.2059 37.208 30.1934 37.208H10.0654C8.98548 37.2078 8.01018 36.3137 8.11133 35.124L8.1748 34.5391C8.85942 29.3741 12.6801 25.2076 17.6357 24.1436C17.6357 24.1517 17.6348 24.1598 17.6348 24.168C17.6348 25.5369 18.7516 26.6474 20.1289 26.6475C21.5062 26.6475 22.623 25.5369 22.623 24.168C22.623 24.1598 22.6212 24.1517 22.6211 24.1436Z" fill="white"/>
<path d="M22.6211 24.1436L22.7259 23.6547C22.5774 23.6228 22.4225 23.6602 22.3049 23.7562C22.1872 23.8523 22.1196 23.9966 22.1211 24.1485L22.6211 24.1436ZM32.1475 35.124L32.6472 35.1085C32.6469 35.0995 32.6464 35.0905 32.6457 35.0815L32.1475 35.124ZM32.1543 35.3438L32.6541 35.3567C32.6544 35.3472 32.6544 35.3377 32.6541 35.3282L32.1543 35.3438ZM10.0654 37.208L10.0653 37.708H10.0654V37.208ZM8.11133 35.124L7.61411 35.0701L7.61313 35.0817L8.11133 35.124ZM8.1748 34.5391L7.679 34.4733L7.67772 34.4851L8.1748 34.5391ZM17.6357 24.1436L18.1357 24.1485C18.1372 23.9966 18.0696 23.8523 17.9519 23.7562C17.8342 23.6602 17.6793 23.6228 17.5308 23.6547L17.6357 24.1436ZM17.6348 24.168L17.1348 24.1679V24.168H17.6348ZM20.1289 26.6475L20.1289 27.1475H20.1289V26.6475ZM22.623 24.168H23.123V24.1679L22.623 24.168ZM22.6211 24.1436L22.5162 24.6324C27.4394 25.6883 31.2039 29.9473 31.6493 35.1665L32.1475 35.124L32.6457 35.0815C32.1636 29.4329 28.0877 24.8046 22.7259 23.6547L22.6211 24.1436ZM32.1475 35.124L31.6477 35.1396L31.6545 35.3593L32.1543 35.3438L32.6541 35.3282L32.6472 35.1085L32.1475 35.124ZM32.1543 35.3438L31.6545 35.3308C31.6343 36.1118 30.9621 36.708 30.1934 36.708V37.208V37.708C31.4497 37.708 32.6186 36.7326 32.6541 35.3567L32.1543 35.3438ZM30.1934 37.208V36.708H10.0654V37.208V37.708H30.1934V37.208ZM10.0654 37.208L10.0655 36.708C9.2441 36.7078 8.536 36.0311 8.60953 35.1664L8.11133 35.124L7.61313 35.0817C7.48435 36.5962 8.72686 37.7077 10.0653 37.708L10.0654 37.208ZM8.11133 35.124L8.60841 35.178L8.67189 34.593L8.1748 34.5391L7.67772 34.4851L7.61425 35.0701L8.11133 35.124ZM8.1748 34.5391L8.67047 34.6048C9.32798 29.6443 12.9965 25.6511 17.7407 24.6324L17.6357 24.1436L17.5308 23.6547C12.3638 24.7641 8.39086 29.1039 7.67914 34.4734L8.1748 34.5391ZM17.6357 24.1436L17.1358 24.1386C17.1358 24.1325 17.136 24.128 17.1361 24.1263C17.1362 24.125 17.1362 24.1239 17.136 24.127C17.1359 24.129 17.1356 24.1346 17.1353 24.1409C17.1351 24.1475 17.1348 24.1569 17.1348 24.1679L17.6348 24.168L18.1348 24.168C18.1348 24.175 18.1346 24.1802 18.1345 24.1828C18.1344 24.1851 18.1343 24.1866 18.1344 24.1845C18.1345 24.1835 18.1348 24.1784 18.135 24.173C18.1353 24.1672 18.1356 24.1587 18.1357 24.1485L17.6357 24.1436ZM17.6348 24.168H17.1348C17.1348 25.8158 18.4783 27.1474 20.1289 27.1475L20.1289 26.6475L20.1289 26.1475C19.025 26.1474 18.1348 25.258 18.1348 24.168H17.6348ZM20.1289 26.6475V27.1475C21.7796 27.1475 23.123 25.8158 23.123 24.168H22.623H22.123C22.123 25.2581 21.2328 26.1475 20.1289 26.1475V26.6475ZM22.623 24.168L23.123 24.1679C23.123 24.1471 23.1219 24.1299 23.1209 24.1186C23.12 24.1079 23.1188 24.0988 23.1187 24.0974C23.1185 24.0958 23.1186 24.0964 23.1187 24.0972C23.1188 24.0982 23.119 24.1006 23.1193 24.1039C23.1199 24.1103 23.1209 24.1227 23.1211 24.1386L22.6211 24.1436L22.1211 24.1485C22.1213 24.1685 22.1226 24.1849 22.1235 24.1954C22.124 24.2007 22.1245 24.2052 22.1248 24.2082C22.1251 24.211 22.1255 24.2137 22.1255 24.2141C22.1256 24.2152 22.1255 24.2144 22.1254 24.2131C22.1253 24.2117 22.125 24.2089 22.1246 24.2051C22.124 24.1979 22.123 24.1848 22.123 24.168L22.623 24.168Z" fill="#323232"/>
<path d="M26.7656 11.3125C27.5644 13.3125 27.8993 13.3125 28.8391 13.3125C30.0138 13.3125 31 11.8125 31 11.8125" stroke="#323232"/>
<path d="M13 11.3125C12.299 12.9125 11.8488 13.3125 11.0241 13.3125C9.99313 13.3125 8.5 11.8125 8.5 11.8125" stroke="#323232"/>
<path d="M20.8418 24.9443L20.9609 24.959C21.0765 24.9873 21.1797 25.056 21.25 25.1553C21.3203 25.2545 21.3515 25.3748 21.3398 25.4932L21.3135 25.6104L20.6182 27.5869L21.4941 33.3691L21.499 33.4775C21.4919 33.5846 21.4501 33.6877 21.3789 33.7705C21.2839 33.8808 21.1456 33.9443 21 33.9443H19C18.8528 33.9443 18.7132 33.879 18.6182 33.7666C18.5234 33.6543 18.4824 33.5062 18.5068 33.3613L19.4834 27.5879L18.7422 25.6211C18.6843 25.4677 18.7057 25.2951 18.7988 25.1602C18.8922 25.0252 19.0468 24.9443 19.2109 24.9443H20.8418Z" fill="#FFD139" stroke="#323232" stroke-linejoin="round"/>
<path d="M21.6318 23.9443H24.3682C24.4116 23.9443 24.4342 23.9587 24.4502 23.9766C24.4694 23.9983 24.5 24.0512 24.5 24.1504V26.6211C24.4999 26.6835 24.4818 26.7382 24.4619 26.7705C24.458 26.7769 24.4535 26.7803 24.4512 26.7832L24.4287 26.7891L24.3896 26.8047L21.6533 27.9229L21.6182 27.9365C21.6146 27.9354 21.6105 27.935 21.6064 27.9336C21.5875 27.9272 21.5692 27.9179 21.5518 27.9102C21.5458 27.9016 21.5372 27.8896 21.5293 27.8721C21.5112 27.8316 21.5 27.7836 21.5 27.7383V24.1504C21.5 24.0506 21.5316 23.998 21.5508 23.9766C21.5668 23.9587 21.5884 23.9443 21.6318 23.9443Z" fill="white" stroke="#323232"/>
<path d="M18.3682 23.9443H15.6318C15.5884 23.9443 15.5658 23.9587 15.5498 23.9766C15.5306 23.9983 15.5 24.0512 15.5 24.1504V26.6211C15.5001 26.6835 15.5182 26.7382 15.5381 26.7705C15.542 26.7769 15.5465 26.7803 15.5488 26.7832L15.5713 26.7891L15.6104 26.8047L18.3467 27.9229L18.3818 27.9365C18.3854 27.9354 18.3895 27.935 18.3936 27.9336C18.4125 27.9272 18.4308 27.9179 18.4482 27.9102C18.4542 27.9016 18.4628 27.8896 18.4707 27.8721C18.4888 27.8316 18.5 27.7836 18.5 27.7383V24.1504C18.5 24.0506 18.4684 23.998 18.4492 23.9766C18.4332 23.9587 18.4116 23.9443 18.3682 23.9443Z" fill="white" stroke="#323232"/>
<path d="M13 8.3125V11.2649C13 11.8363 14.375 12.3125 16 12.3125H24C25.625 12.3125 27 11.8363 27 11.2649V8.36012" fill="#FFD139"/>
<path d="M13 9.3125V10.767C13 11.6307 13.8889 12.3125 15 12.3125H25C26.1111 12.3125 27 11.6307 27 10.767V9.3125" stroke="#323232"/>
<path d="M16 8.3125V12.003C16 12.7173 16.7857 13.3125 17.7143 13.3125H22.2857C23.2143 13.3125 24 12.7173 24 12.003V8.37202" fill="#FFD139"/>
<path d="M16 8.3125V11.3836C16 12.3248 16.9511 13.0678 18.1399 13.0678H21.9441C23.1329 13.0678 24.084 12.3248 24.084 11.3836V8.36203" stroke="#323232"/>
</svg>
