<svg width="40" height="40" viewBox="0 0 40 40" fill="none" xmlns="http://www.w3.org/2000/svg">
<path d="M11.2998 13.9731V21.7739H8.13574C6.06089 21.7737 4.37896 20.092 4.37891 18.0171V13.9731H11.2998Z" fill="#4B4B4B" stroke="#323232"/>
<path d="M19.0771 13.9731V21.7739H22.2412C24.3161 21.7737 25.998 20.092 25.998 18.0171V13.9731H19.0771Z" fill="#4B4B4B" stroke="#323232"/>
<circle cx="5.11227" cy="15.1452" r="1.61227" fill="white" stroke="#323232"/>
<circle cx="25.0019" cy="15.1452" r="1.61227" fill="white" stroke="#323232"/>
<path d="M15.2012 21.9504C19.5292 21.9504 23.0381 25.4594 23.0381 29.7874C23.0379 30.0945 22.7886 30.343 22.4814 30.343H7.63281C7.32564 30.343 7.0764 30.0945 7.07617 29.7874C7.07617 25.4594 10.5851 21.9504 14.9131 21.9504H15.2012Z" fill="white" stroke="#323232"/>
<mask id="mask0_3241_55521" style="mask-type:alpha" maskUnits="userSpaceOnUse" x="7" y="22" width="16" height="8">
<path d="M7.4873 29.8433C7.4873 25.7116 10.876 22.3623 15.0563 22.3623C19.2365 22.3623 22.6252 25.7116 22.6252 29.8433H7.4873Z" fill="#FFF0BC"/>
</mask>
<g mask="url(#mask0_3241_55521)">
<path d="M28.6596 28.664L23.2748 37.8823L13.4223 32.2601L18.8071 23.0419L28.6596 28.664Z" fill="#AFAFAF" stroke="#323232"/>
<path d="M1.52793 28.664L6.91272 37.8823L16.7652 32.2601L11.3804 23.0419L1.52793 28.664Z" fill="#AFAFAF" stroke="#323232"/>
</g>
<g clip-path="url(#clip0_3241_55521)">
<path d="M16.3034 31.9527L15.2903 25.4539L14.4724 25.4539L13.4893 31.9527L14.8963 33.8495L16.3034 31.9527Z" fill="#AFAFAF" stroke="#323232" stroke-width="0.440056"/>
<path d="M15.4587 25.905L15.9371 24.5104L14.8959 24.0737L13.8828 24.5104L14.3049 25.905H15.4587Z" fill="#AFAFAF" stroke="#323232" stroke-width="0.440056"/>
<path d="M14.8965 24.1175L16.9905 22.8904L17.992 23.4163L15.8252 25.5387L14.8965 24.1175Z" fill="white" stroke="#323232" stroke-width="0.440056"/>
<path d="M14.8965 24.1175L12.8024 22.8904L11.8009 23.4163L13.9678 25.5387L14.8965 24.1175Z" fill="white" stroke="#323232" stroke-width="0.440056"/>
</g>
<circle cx="15.0574" cy="13.7374" r="10.0613" fill="white" stroke="#323232"/>
<path d="M9.05859 7.69824V7.69727L9.0625 7.69141C9.06095 7.69423 9.05921 7.69708 9.05859 7.69824ZM9.05859 7.69824L9.05566 7.70312L9.05469 7.7041L9.05664 7.7002L9.05859 7.69824ZM13.0781 3.70801C14.4269 3.46314 15.4925 3.42371 16.7578 3.64746L17.3135 3.75977C19.5065 4.25316 21.4714 5.19286 22.9863 6.74805C24.4033 8.20293 25.4561 10.2269 25.917 13.0068C25.7172 12.9836 25.5079 12.9394 25.3018 12.876C24.9051 12.7539 24.5702 12.5817 24.3818 12.4355C24.3198 12.3874 24.2443 12.3008 24.1475 12.1602C24.0392 12.003 23.9725 11.8858 23.8467 11.6953C23.7417 11.5363 23.6079 11.348 23.4414 11.2012C23.2892 11.067 23.0809 10.9419 22.8193 10.9248H22.7031C18.6947 11.1517 15.2515 10.9432 11.8965 8.78223H11.8955C11.7473 8.68653 11.5968 8.56903 11.4307 8.43457C11.2708 8.30513 11.089 8.15359 10.9072 8.01758C10.548 7.74885 10.0963 7.4678 9.5498 7.42578H9.55078C9.5489 7.42561 9.5468 7.42497 9.54492 7.4248C9.5433 7.42468 9.54166 7.42492 9.54004 7.4248L9.20801 7.40137L9.19629 7.42285C8.36921 7.48787 7.70612 8.0473 7.22559 8.6416C6.80585 9.16073 6.46818 9.77507 6.2168 10.3193L5.99414 10.834V10.835C5.92638 11.004 5.7983 11.4468 5.69336 11.8008C5.6375 11.9892 5.58528 12.1641 5.54297 12.2939C5.53796 12.3093 5.53179 12.3236 5.52734 12.3369C5.52074 12.34 5.51422 12.3443 5.50684 12.3477C5.42074 12.3872 5.31172 12.4336 5.19727 12.4795C4.95695 12.5758 4.73789 12.6517 4.66895 12.6689C4.60805 12.6842 4.52356 12.7084 4.43066 12.7373C4.45399 12.5997 4.48326 12.4577 4.51562 12.3164L4.6123 11.9219V11.9209C5.66349 7.77375 8.80436 4.64615 12.6992 3.78418L13.0781 3.70801ZM9.74414 7.78027C9.82125 7.83757 9.8909 7.91825 9.94824 8.0293C9.93951 8.02585 9.93064 8.02284 9.92188 8.01953C9.88738 7.95115 9.82981 7.86031 9.74414 7.78027Z" fill="#4B4B4B" stroke="#323232"/>
<path d="M21.0107 24.3H32.3252C35.3687 24.3002 37.8358 26.7673 37.8359 29.8108C37.8359 32.8544 35.3687 35.3224 32.3252 35.3225H21.0107C17.9672 35.3224 15.5 32.8543 15.5 29.8108C15.5001 26.7674 17.9673 24.3002 21.0107 24.3Z" fill="#FFD139" stroke="#323232"/>
<g clip-path="url(#clip1_3241_55521)">
<path d="M23.8013 29.3512C23.8013 30.4881 22.8865 31.1905 21.4374 31.1905H20.5092V32.494H19V27.5H21.4374C22.8932 27.5 23.8013 28.2083 23.8013 29.3512ZM22.2788 29.3512C22.2788 28.8869 21.9649 28.6131 21.3439 28.6131H20.5092V30.0774H21.3439C21.9649 30.0774 22.2788 29.8036 22.2788 29.3512Z" fill="#323232"/>
<path d="M24.5361 27.5H27.0537C28.8166 27.5 30.032 28.4643 30.032 30C30.032 31.5357 28.8233 32.5 27.0537 32.5H24.5361V27.5ZM26.9936 31.369C27.9017 31.369 28.5094 30.8631 28.5094 30C28.5094 29.1369 27.9017 28.631 26.9936 28.631H26.0453V31.375H26.9936V31.369Z" fill="#323232"/>
<path d="M32.3285 28.5893V29.6905H34.6791V30.7857H32.3285V32.5H30.8193V27.5H34.9996V28.5893H32.3285Z" fill="#323232"/>
</g>
<path d="M17.2586 14.6532C17.2586 14.7824 17.2203 14.9087 17.1485 15.0161C17.0767 15.1235 16.9747 15.2073 16.8553 15.2567C16.736 15.3061 16.6046 15.3191 16.4779 15.2939C16.3512 15.2687 16.2348 15.2064 16.1435 15.1151C16.0521 15.0237 15.9899 14.9074 15.9647 14.7806C15.9395 14.6539 15.9524 14.5226 16.0019 14.4032C16.0513 14.2839 16.135 14.1819 16.2425 14.1101C16.3499 14.0383 16.4762 14 16.6054 14C16.6911 14 16.7761 14.0169 16.8553 14.0497C16.9346 14.0826 17.0066 14.1307 17.0672 14.1913C17.1279 14.252 17.176 14.324 17.2088 14.4032C17.2417 14.4825 17.2586 14.5674 17.2586 14.6532Z" fill="#323232"/>
<path d="M14.3064 14.6532C14.3064 14.7824 14.2681 14.9087 14.1963 15.0161C14.1246 15.1235 14.0225 15.2073 13.9032 15.2567C13.7838 15.3061 13.6525 15.3191 13.5258 15.2939C13.3991 15.2687 13.2827 15.2064 13.1913 15.1151C13.1 15.0237 13.0378 14.9074 13.0126 14.7806C12.9873 14.6539 13.0003 14.5226 13.0497 14.4032C13.0992 14.2839 13.1829 14.1819 13.2903 14.1101C13.3977 14.0383 13.524 14 13.6532 14C13.739 14 13.8239 14.0169 13.9032 14.0497C13.9824 14.0826 14.0544 14.1307 14.1151 14.1913C14.1758 14.252 14.2239 14.324 14.2567 14.4032C14.2895 14.4825 14.3064 14.5674 14.3064 14.6532Z" fill="#323232"/>
<path d="M16.1833 15.8738V17.2283C16.1869 17.3665 16.1633 17.504 16.1138 17.6331C16.0643 17.7622 15.9898 17.8802 15.8947 17.9805C15.7996 18.0808 15.6856 18.1614 15.5593 18.2176C15.4331 18.2739 15.297 18.3047 15.1588 18.3083C15.0206 18.312 14.883 18.2884 14.754 18.2389C14.6249 18.1893 14.5069 18.1149 14.4066 18.0198C14.3063 17.9246 14.2257 17.8107 14.1695 17.6844C14.1132 17.5581 14.0824 17.422 14.0787 17.2838V15.8738H13.2305V17.2283C13.2305 17.7323 13.4307 18.2156 13.787 18.572C14.1434 18.9284 14.6267 19.1286 15.1307 19.1286C15.6347 19.1286 16.118 18.9284 16.4744 18.572C16.8308 18.2156 17.031 17.7323 17.031 17.2283V15.8738H16.1833Z" fill="#323232"/>
<defs>
<clipPath id="clip0_3241_55521">
<rect width="7.04089" height="7.04089" fill="white" transform="translate(11.3604 22.8904)"/>
</clipPath>
<clipPath id="clip1_3241_55521">
<rect width="16" height="5" fill="white" transform="translate(19 27.5)"/>
</clipPath>
</defs>
</svg>
