<svg width="21" height="21" viewBox="0 0 21 21" fill="none" xmlns="http://www.w3.org/2000/svg">
<path d="M10.5 1.25C15.6086 1.25 19.75 5.39137 19.75 10.5C19.75 15.6086 15.6086 19.75 10.5 19.75C5.39137 19.75 1.25 15.6086 1.25 10.5C1.25 5.39137 5.39137 1.25 10.5 1.25Z" stroke="#969696" stroke-width="1.5"/>
<path d="M11.5 14.4C11.5 14.9523 11.0523 15.4 10.5 15.4C9.94771 15.4 9.5 14.9523 9.5 14.4C9.5 13.8477 9.94771 13.4 10.5 13.4C11.0523 13.4 11.5 13.8477 11.5 14.4Z" fill="#969696"/>
<path d="M11.4001 6.4C11.4001 5.90294 10.9972 5.5 10.5001 5.5C10.0031 5.5 9.60012 5.90294 9.60012 6.4V10.9C9.60012 11.3971 10.0031 11.8 10.5001 11.8C10.9972 11.8 11.4001 11.3971 11.4001 10.9V6.4Z" fill="#969696"/>
</svg>
