<svg width="20" height="20" viewBox="0 0 20 20" fill="none" xmlns="http://www.w3.org/2000/svg">
<circle cx="10" cy="10" r="9" fill="#FFCC24"/>
<path d="M8.49235 6.16985L12.2197 11.8616V6.12486C12.2197 5.75366 12.2976 5.47244 12.4534 5.28121C12.6092 5.08999 12.8206 5 13.0987 5C13.3769 5 13.5994 5.08999 13.7552 5.28121C13.911 5.47244 14 5.75366 14 6.12486V13.7289C14 14.5726 13.6551 15 12.9541 15C12.7761 15 12.6203 14.9775 12.4868 14.9213C12.3533 14.865 12.2197 14.7863 12.0974 14.685C11.975 14.5838 11.8637 14.4488 11.7636 14.3026C11.6634 14.1564 11.5522 14.0101 11.452 13.8526L7.81363 8.20585V13.8639C7.81363 14.2351 7.72462 14.5163 7.55772 14.6963C7.39082 14.8763 7.16829 14.9775 6.90125 14.9775C6.63421 14.9775 6.41168 14.8875 6.24478 14.6963C6.07789 14.5051 6 14.2238 6 13.8639V6.41732C6 6.10236 6.03338 5.85489 6.10014 5.67492C6.17803 5.47244 6.32267 5.31496 6.51182 5.19123C6.70097 5.06749 6.91238 5 7.13491 5C7.31293 5 7.45758 5.03375 7.57997 5.08999C7.70236 5.14623 7.81363 5.22497 7.90264 5.32621C7.99166 5.42745 8.09179 5.55118 8.19193 5.69741C8.29207 5.84364 8.39221 6.01237 8.49235 6.1811V6.16985Z" fill="#172E55"/>
</svg>
