<svg class="svg-symbols" xmlns="http://www.w3.org/2000/svg" aria-hidden="true" focusable="false" tabindex="-1"> <defs> <filter id="filter-goo"> <feGaussianBlur in="SourceGraphic" stdDeviation="10" result="blur"></feGaussianBlur> <feColorMatrix in="blur" mode="matrix" values="1 0 0 0 0  0 1 0 0 0  0 0 1 0 0  0 0 0 18 -7" result="filter-goo"></feColorMatrix> <feBlend in="SourceGraphic" in2="filter-goo"></feBlend> </filter> </defs> <svg id="ui-arrow-down" viewBox="0 0 32 32"> <path d="M16,27l-8.49-8.48l0.7-0.7l7.28,7.27V5h1v20.09l7.28-7.27l0.7,0.7L16,27z"></path> </svg> <svg id="ui-arrow-right" viewBox="0 0 32 32"> <path d="M27,16l-8.48,8.49l-0.7-0.7l7.27-7.28H5v-1h20.09l-7.27-7.28l0.7-0.7L27,16z"></path> </svg> <svg id="ui-arrow-upright" viewBox="0 0 32 32"> <path d="M24,8v12h-1V9.7L8.72,23.99l-0.7-0.7L22.3,9H12V8H24z"></path> </svg> <svg id="ui-close" viewBox="0 0 32 32"> <path d="M16.705 16.0004L23.35 22.6454L22.645 23.3504L16 16.7054L9.35502 23.3554L8.65002 22.6504L15.295 16.0004L8.64502 9.35539L9.35002 8.65039L16 15.2954L22.645 8.65039L23.35 9.35539L16.705 16.0004Z" fill="currentColor"></path> </svg> <svg id="ui-checkmark" viewBox="0 0 23 16"> <path d="M7.875 15.3125C7.9375 15.3125 8 15.3021 8.0625 15.2812C8.125 15.2604 8.17708 15.2292 8.21875 15.1875L22.6875 0.71875L22 0L7.875 14.0938L0.71875 6.9375L0 7.65625L7.53125 15.1875C7.57292 15.2292 7.625 15.2604 7.6875 15.2812C7.75 15.3021 7.8125 15.3125 7.875 15.3125Z" fill="currentColor"></path> </svg> </svg>