<svg width="32" height="32" viewBox="0 0 32 32" fill="none" xmlns="http://www.w3.org/2000/svg">
<circle cx="16" cy="16" r="16" fill="#94E360"/>
<path d="M17.5188 7.68081L24.0123 23.3647C24.0995 23.5885 24.1433 23.803 24.1433 24.0096C24.1433 24.4396 23.9901 24.7837 23.6852 25.0414C23.3798 25.2991 22.9824 25.4282 22.4937 25.4282C21.8301 25.4282 21.3502 25.0929 21.0538 24.422L19.7185 21.3007H12.2301L10.8948 24.5766C10.6153 25.144 10.1525 25.4277 9.50724 25.4277C9.0708 25.4277 8.68667 25.2856 8.35532 25.0019C8.02351 24.7182 7.8576 24.3616 7.8576 23.9316C7.8576 23.7083 7.89248 23.5021 7.96224 23.3127L14.5608 7.60326C14.7003 7.25966 14.8789 7.00148 15.0976 6.82922C15.3159 6.65741 15.6604 6.57104 16.1317 6.57104C16.76 6.57104 17.2224 6.94112 17.5193 7.68034L17.5188 7.68081ZM13.5126 18.2054H18.4092L15.9738 12.3757L13.5126 18.2054Z" fill="white"/>
</svg>
