<svg width="27" height="19" viewBox="0 0 27 19" fill="none" xmlns="http://www.w3.org/2000/svg">
<path d="M20.6166 3.94141H3.61659C2.3527 3.94141 1.32812 4.96599 1.32812 6.22987V15.3837C1.32812 16.6476 2.3527 17.6722 3.61659 17.6722H20.6166C21.8805 17.6722 22.905 16.6476 22.905 15.3837V6.22987C22.905 4.96599 21.8805 3.94141 20.6166 3.94141Z" fill="white" stroke="#323232" stroke-linecap="round" stroke-linejoin="round"/>
<path d="M23.2326 1H6.23257C4.78814 1 3.61719 2.17095 3.61719 3.61538V12.7692C3.61719 14.2137 4.78814 15.3846 6.23257 15.3846H23.2326C24.677 15.3846 25.848 14.2137 25.848 12.7692V3.61538C25.848 2.17095 24.677 1 23.2326 1Z" fill="#FFE591"/>
<path d="M23.2338 1.32617H6.23377C4.96989 1.32617 3.94531 2.35075 3.94531 3.61463V12.7685C3.94531 14.0324 4.96989 15.0569 6.23377 15.0569H23.2338C24.4977 15.0569 25.5222 14.0324 25.5222 12.7685V3.61463C25.5222 2.35075 24.4977 1.32617 23.2338 1.32617Z" stroke="#323232" stroke-linecap="round" stroke-linejoin="round"/>
<path d="M9.30808 6.22944C9.30571 6.31352 9.32062 6.39719 9.35189 6.47528C9.37998 6.54246 9.42237 6.6027 9.47612 6.65182C9.52815 6.69842 9.58879 6.7344 9.65462 6.75774C9.72153 6.78178 9.79211 6.79395 9.8632 6.79371C9.94452 6.79469 10.0257 6.78791 10.1058 6.77344C10.1685 6.76172 10.2297 6.74286 10.2882 6.71721C10.3174 6.70369 10.3501 6.68756 10.3863 6.66882C10.4208 6.65065 10.4582 6.63849 10.4968 6.63286C10.5624 6.61908 10.6305 6.62476 10.6929 6.64921C10.756 6.67701 10.8082 6.7248 10.8414 6.78521C10.8657 6.82123 10.8817 6.86221 10.8882 6.90517C10.8948 6.94814 10.8917 6.99203 10.8793 7.03367C10.8542 7.11612 10.8044 7.18892 10.7367 7.24224C10.6174 7.33574 10.4794 7.40262 10.332 7.4384C10.1792 7.48029 10.0216 7.50227 9.8632 7.50378C9.69147 7.50489 9.52037 7.48289 9.35451 7.4384C9.19401 7.39548 9.04357 7.32127 8.91185 7.22001C8.78007 7.11701 8.67324 6.98559 8.59931 6.83555C8.51597 6.65848 8.47543 6.46429 8.48097 6.26867V5.43174C8.47615 5.23667 8.51713 5.04319 8.60062 4.86682C8.67455 4.71678 8.78138 4.58537 8.91316 4.48236C9.04488 4.38111 9.19531 4.30689 9.35581 4.26397C9.52168 4.21948 9.69278 4.19749 9.86451 4.19859C10.0232 4.19614 10.1816 4.21506 10.3353 4.25482C10.4488 4.28274 10.5566 4.33032 10.6537 4.3954C10.7324 4.44866 10.7927 4.52494 10.8263 4.61378C10.8427 4.6563 10.849 4.70202 10.8448 4.74738C10.8406 4.79274 10.826 4.83652 10.8021 4.87532C10.7663 4.94094 10.7101 4.99307 10.6419 5.02374C10.5779 5.05291 10.5063 5.06137 10.4373 5.04794C10.395 5.04095 10.3538 5.02819 10.315 5.01001L10.2169 4.96424C10.1684 4.9455 10.118 4.93212 10.0665 4.92436C9.99936 4.91546 9.93161 4.91153 9.86385 4.91259C9.79276 4.91235 9.72218 4.92452 9.65528 4.94855C9.58944 4.9719 9.52881 5.00788 9.47678 5.05447C9.42303 5.10359 9.38063 5.16384 9.35255 5.23101C9.32051 5.30916 9.30493 5.39307 9.30678 5.47751L9.30808 6.22944ZM11.6802 7.43578C11.5789 7.43809 11.4777 7.42665 11.3795 7.40178C11.3065 7.38315 11.2401 7.34494 11.1872 7.29128C11.1368 7.23588 11.1016 7.16827 11.0852 7.09513C11.0624 6.99919 11.0512 6.90083 11.0519 6.80221V4.60528C11.0506 4.54469 11.0622 4.48452 11.0859 4.42874C11.1069 4.37904 11.1383 4.33444 11.1781 4.29797C11.2174 4.26285 11.2634 4.23615 11.3134 4.21951C11.3637 4.2022 11.4165 4.19336 11.4697 4.19336C11.5229 4.19336 11.5757 4.2022 11.626 4.21951C11.6755 4.23631 11.7211 4.263 11.76 4.29797C11.7998 4.33444 11.8312 4.37904 11.8522 4.42874C11.8759 4.48452 11.8875 4.54469 11.8862 4.60528V6.62109C11.8819 6.65442 11.8905 6.68813 11.9104 6.71524C11.9376 6.73311 11.9702 6.74097 12.0026 6.73747H12.8925C12.9442 6.73601 12.9956 6.74629 13.0429 6.76755C13.0821 6.78599 13.1164 6.81357 13.1429 6.84797C13.1685 6.88165 13.1875 6.91978 13.1991 6.96044C13.211 7.00012 13.2172 7.04129 13.2174 7.08271C13.2171 7.12476 13.2109 7.16656 13.1991 7.20694C13.1874 7.24912 13.1677 7.28864 13.1409 7.32332C13.114 7.35831 13.0799 7.38708 13.0409 7.40767C12.9948 7.43041 12.9438 7.44142 12.8925 7.43971L11.6802 7.43578ZM14.1289 4.52617C14.1645 4.42094 14.2379 4.33265 14.3349 4.27836C14.4299 4.22292 14.538 4.19359 14.648 4.19336C14.752 4.19416 14.8537 4.22333 14.9423 4.27771C15.0359 4.3337 15.1057 4.42212 15.1384 4.52617L16.1846 7.43578H15.3019L15.1456 6.93886H14.1165L13.9641 7.43578H13.0991L14.1289 4.52617ZM14.325 6.26147H14.9384L14.6337 5.26371L14.325 6.26147ZM17.0261 5.14994C17.0276 5.19104 17.0406 5.23089 17.0638 5.2649C17.0869 5.29891 17.1192 5.32569 17.1569 5.34217C17.275 5.4087 17.4 5.4624 17.5295 5.50236L17.7257 5.56774C17.838 5.60786 17.945 5.66166 18.0441 5.72794C18.1366 5.78979 18.2186 5.86618 18.2867 5.95417C18.3538 6.04156 18.4042 6.14066 18.4351 6.24644C18.4678 6.36153 18.48 6.4815 18.4711 6.60082C18.4677 6.73071 18.4347 6.85811 18.3746 6.97334C18.3146 7.08857 18.2291 7.18858 18.1245 7.26578C17.8684 7.4362 17.5641 7.51923 17.2569 7.50247C17.0831 7.50341 16.9098 7.48432 16.7404 7.44559C16.5909 7.41421 16.4501 7.35062 16.3278 7.25924C16.2905 7.22728 16.2582 7.19005 16.2317 7.14874C16.2055 7.10851 16.1858 7.06437 16.1735 7.01797C16.1614 6.97142 16.1594 6.92283 16.1676 6.87544C16.1761 6.82451 16.1953 6.77595 16.2238 6.7329C16.2546 6.68802 16.2978 6.65304 16.348 6.63221C16.3985 6.60898 16.4528 6.59545 16.5082 6.59232C16.5655 6.58718 16.6231 6.59829 16.6743 6.62436L16.7927 6.68974C16.8475 6.72305 16.907 6.74796 16.9692 6.76363C17.0717 6.78688 17.1767 6.79699 17.2817 6.79371C17.3729 6.79915 17.4637 6.77827 17.5433 6.73355C17.5743 6.71229 17.5994 6.68349 17.6162 6.64986C17.633 6.61624 17.641 6.57888 17.6394 6.54132C17.6362 6.50147 17.6188 6.4641 17.5904 6.43605C17.5546 6.39645 17.5118 6.36385 17.4642 6.33994C17.4025 6.30737 17.339 6.27855 17.2739 6.25363C17.202 6.22573 17.1246 6.19827 17.0418 6.17124L16.9398 6.13528C16.9036 6.12177 16.8735 6.10978 16.8495 6.09932C16.7112 6.04452 16.5852 5.96272 16.4788 5.85871C16.3895 5.77027 16.318 5.6655 16.2683 5.55009C16.2221 5.44169 16.1977 5.32529 16.1964 5.20747C16.1944 5.0945 16.2114 4.982 16.2467 4.87467C16.3101 4.66617 16.4475 4.48804 16.6331 4.37382C16.8436 4.25028 17.0849 4.18906 17.3288 4.19728C17.4212 4.19709 17.5136 4.20233 17.6054 4.21297C17.6756 4.22076 17.7452 4.23277 17.814 4.24894C17.8676 4.26151 17.9199 4.27902 17.9702 4.30124C18.0138 4.3213 18.0546 4.34069 18.0925 4.35944C18.1832 4.40786 18.2584 4.48082 18.3096 4.56997C18.3349 4.61161 18.351 4.65817 18.3569 4.70655C18.3628 4.75493 18.3582 4.804 18.3436 4.85047C18.3238 4.92461 18.2756 4.988 18.2095 5.02701C18.145 5.06228 18.0725 5.0803 17.999 5.07932C17.9653 5.07843 17.9318 5.07294 17.8996 5.06297C17.8697 5.05568 17.8412 5.04353 17.8153 5.02701C17.758 4.99061 17.6959 4.96223 17.6309 4.94267C17.5358 4.91604 17.4373 4.90392 17.3386 4.90671C17.259 4.9023 17.18 4.92263 17.1124 4.9649C17.0843 4.98604 17.0618 5.01369 17.0467 5.04547C17.0317 5.07725 17.0246 5.1122 17.0261 5.14732V5.14994ZM19.4028 5.14994C19.4043 5.19104 19.4174 5.23089 19.4405 5.2649C19.4636 5.29891 19.4959 5.32569 19.5336 5.34217C19.6517 5.4087 19.7767 5.4624 19.9063 5.50236L20.1024 5.56774C20.2147 5.60786 20.3217 5.66166 20.4209 5.72794C20.5134 5.78979 20.5953 5.86618 20.6634 5.95417C20.7306 6.04156 20.7809 6.14066 20.8119 6.24644C20.8446 6.36153 20.8567 6.4815 20.8478 6.60082C20.8444 6.73071 20.8114 6.85811 20.7514 6.97334C20.6913 7.08857 20.6058 7.18858 20.5013 7.26578C20.2452 7.4362 19.9408 7.51923 19.6336 7.50247C19.4587 7.50366 19.2843 7.48457 19.1138 7.44559C18.9646 7.41412 18.824 7.35053 18.7019 7.25924C18.6644 7.22733 18.6318 7.1901 18.6051 7.14874C18.5789 7.10851 18.5593 7.06437 18.5469 7.01797C18.5349 6.97142 18.5329 6.92283 18.541 6.87544C18.5498 6.82497 18.5689 6.77687 18.5973 6.73421C18.6279 6.68884 18.6711 6.65339 18.7215 6.63221C18.7719 6.60898 18.8263 6.59545 18.8817 6.59232C18.939 6.58718 18.9965 6.59829 19.0478 6.62436L19.1661 6.68974C19.2209 6.72305 19.2805 6.74796 19.3427 6.76363C19.4451 6.78688 19.5502 6.79699 19.6552 6.79371C19.7463 6.79915 19.8371 6.77827 19.9167 6.73355C19.947 6.71198 19.9714 6.68312 19.9877 6.64964C20.0039 6.61616 20.0114 6.57913 20.0096 6.54197C20.0086 6.50284 19.9937 6.46532 19.9677 6.43605C19.932 6.39645 19.8892 6.36385 19.8415 6.33994C19.7799 6.30737 19.7164 6.27855 19.6513 6.25363C19.5794 6.22573 19.502 6.19827 19.4192 6.17124L19.3165 6.13267C19.2803 6.11915 19.2503 6.10717 19.2263 6.09671C19.0888 6.04226 18.9635 5.96115 18.8575 5.85805C18.7682 5.76962 18.6967 5.66485 18.647 5.54944C18.6008 5.44104 18.5764 5.32463 18.575 5.20682C18.5731 5.09385 18.5901 4.98134 18.6254 4.87401C18.6888 4.66551 18.8262 4.48738 19.0118 4.37317C19.2221 4.24975 19.4631 4.18853 19.7069 4.19663C19.7986 4.19673 19.8903 4.20219 19.9815 4.21297C20.0517 4.22076 20.1213 4.23277 20.19 4.24894C20.2436 4.26151 20.296 4.27902 20.3463 4.30124C20.3899 4.3213 20.4307 4.34069 20.4686 4.35944C20.56 4.4082 20.6357 4.48188 20.687 4.57194C20.7123 4.61357 20.7284 4.66013 20.7343 4.70851C20.7402 4.75689 20.7356 4.80596 20.721 4.85244C20.7011 4.92657 20.653 4.98996 20.5869 5.02897C20.5224 5.06425 20.4499 5.08226 20.3764 5.08128C20.3424 5.07982 20.3087 5.07366 20.2764 5.06297C20.2465 5.05568 20.218 5.04353 20.192 5.02701C20.1353 4.99077 20.0739 4.9624 20.0096 4.94267C19.9145 4.91604 19.816 4.90392 19.7173 4.90671C19.6362 4.90133 19.5554 4.9217 19.4865 4.9649C19.4589 4.98632 19.4369 5.0141 19.4223 5.04586C19.4077 5.07762 19.4011 5.11242 19.4028 5.14732V5.14994ZM9.96716 11.0411C9.96532 11.1255 9.9809 11.2094 10.0129 11.2876C10.041 11.3548 10.0834 11.415 10.1372 11.4641C10.1892 11.5107 10.2498 11.5467 10.3157 11.5701C10.3826 11.5941 10.4531 11.6063 10.5242 11.606C10.6056 11.607 10.6868 11.6002 10.7668 11.5857C10.8296 11.574 10.8908 11.5552 10.9492 11.5295C10.9784 11.516 11.0111 11.4999 11.0473 11.4811C11.0818 11.463 11.1192 11.4508 11.1578 11.4452C11.2234 11.4314 11.2916 11.4371 11.354 11.4615C11.417 11.4893 11.4692 11.5371 11.5024 11.5975C11.5267 11.6335 11.5427 11.6745 11.5493 11.7175C11.5558 11.7604 11.5528 11.8043 11.5403 11.846C11.5152 11.9284 11.4655 12.0012 11.3978 12.0546C11.2784 12.1481 11.1404 12.2149 10.993 12.2507C10.8401 12.2915 10.6825 12.3124 10.5242 12.3128C10.3525 12.3139 10.1814 12.2919 10.0155 12.2474C9.85505 12.2045 9.70461 12.1303 9.57289 12.0291C9.44111 11.926 9.33428 11.7946 9.26035 11.6446C9.17701 11.4675 9.13647 11.2733 9.14201 11.0777V10.2408C9.13647 10.0452 9.17701 9.85097 9.26035 9.6739C9.33428 9.52386 9.44111 9.39244 9.57289 9.28944C9.70461 9.18818 9.85505 9.11397 10.0155 9.07105C10.1814 9.02656 10.3525 9.00456 10.5242 9.00567C10.683 9.00322 10.8413 9.02213 10.995 9.0619C11.1083 9.08861 11.216 9.13485 11.3134 9.19855C11.3921 9.25182 11.4524 9.32809 11.486 9.41694C11.5024 9.45946 11.5087 9.50517 11.5045 9.55053C11.5003 9.59589 11.4857 9.63968 11.4619 9.67847C11.4261 9.7441 11.3698 9.79622 11.3017 9.8269C11.2376 9.85607 11.1661 9.86452 11.097 9.85109C11.0545 9.84307 11.0134 9.82921 10.9747 9.8099L10.8767 9.76413C10.8277 9.74506 10.7769 9.73147 10.725 9.72359C10.6578 9.71469 10.59 9.71076 10.5223 9.71182C10.4512 9.71158 10.3806 9.72375 10.3137 9.74778C10.2483 9.77128 10.1882 9.80725 10.1365 9.85371C10.0828 9.90282 10.0404 9.96307 10.0123 10.0302C9.98025 10.1084 9.96466 10.1923 9.96651 10.2767L9.96716 11.0411ZM12.5276 9.34109C12.5614 9.23234 12.6353 9.14049 12.7342 9.08413C12.8288 9.03004 12.9359 9.00164 13.0448 9.00174C13.1487 9.00255 13.2505 9.03171 13.339 9.08609C13.4327 9.14209 13.5025 9.2305 13.5352 9.33455L14.5827 12.2442H13.7019L13.5457 11.7472H12.5159L12.3635 12.2442H11.4978L12.5276 9.34109ZM12.7238 11.0764H13.3404L13.033 10.0721L12.7238 11.0764ZM17.2046 10.1126C17.2088 10.2896 17.1623 10.4641 17.0705 10.6154C16.9819 10.7574 16.8621 10.8773 16.7201 10.9659L17.4818 12.2442H16.5756L15.9747 11.166H15.4614V12.2442H14.6395V9.65167C14.6377 9.55317 14.6478 9.45482 14.6696 9.35874C14.686 9.2856 14.7211 9.21799 14.7716 9.16259C14.8245 9.10859 14.8913 9.07014 14.9645 9.05144C15.0628 9.02657 15.1639 9.01513 15.2653 9.01744H16.0028C16.1653 9.01702 16.327 9.03902 16.4834 9.08282C16.6221 9.1201 16.7516 9.18553 16.8639 9.27505C16.9717 9.36308 17.0574 9.47502 17.1144 9.60197C17.1773 9.7478 17.2081 9.90546 17.2046 10.0642V10.1126ZM15.4614 10.4899H15.9845C16.0407 10.4943 16.0972 10.4865 16.1501 10.4671C16.203 10.4477 16.2511 10.4171 16.2912 10.3774C16.3573 10.3065 16.3938 10.2129 16.3932 10.1159V10.0845C16.3938 9.98751 16.3573 9.89393 16.2912 9.82297C16.2513 9.78201 16.203 9.75025 16.1495 9.72992C16.0961 9.7096 16.0389 9.70118 15.9819 9.70528H15.5772C15.5446 9.70236 15.5119 9.71092 15.485 9.72947C15.4651 9.75658 15.4564 9.7903 15.4608 9.82363L15.4614 10.4899ZM18.7019 9.01809C18.8763 9.01805 19.0498 9.04293 19.2171 9.09197C19.3859 9.14064 19.5421 9.22542 19.6748 9.34044C19.817 9.46636 19.9287 9.62283 20.0017 9.79813C20.0907 10.021 20.133 10.2598 20.126 10.4997V10.7612C20.133 11.0011 20.0907 11.2399 20.0017 11.4628C19.9287 11.6381 19.817 11.7946 19.6748 11.9205C19.5421 12.0355 19.3859 12.1203 19.2171 12.169C19.0498 12.2185 18.8763 12.2438 18.7019 12.2442H18.1023C18.001 12.2465 17.8998 12.235 17.8015 12.2102C17.7286 12.1915 17.6621 12.1533 17.6093 12.0997C17.5588 12.0443 17.5237 11.9767 17.5073 11.9035C17.4856 11.8077 17.4755 11.7095 17.4772 11.6112V9.6497C17.4756 9.55186 17.4857 9.45418 17.5073 9.35874C17.5237 9.2856 17.5588 9.21799 17.6093 9.16259C17.6621 9.10869 17.7285 9.07025 17.8015 9.05144C17.8998 9.02657 18.001 9.01513 18.1023 9.01744L18.7019 9.01809ZM19.3067 10.4369C19.3194 10.2416 19.257 10.0489 19.1321 9.89817C19.0738 9.83607 19.0028 9.78729 18.9239 9.75513C18.8451 9.72297 18.7602 9.7082 18.6751 9.71182H18.4135C18.3804 9.70751 18.3468 9.71516 18.3187 9.7334C18.2989 9.76051 18.2902 9.79422 18.2945 9.82755V11.4347C18.2902 11.468 18.2989 11.5017 18.3187 11.5289C18.346 11.5467 18.3786 11.5546 18.4109 11.5511H18.6725C18.7577 11.5548 18.8427 11.5401 18.9217 11.5079C19.0007 11.4758 19.0718 11.4269 19.1302 11.3647C19.2543 11.2137 19.3161 11.021 19.3028 10.826L19.3067 10.4369Z" fill="#33302B"/>
</svg>
