<svg width="32" height="32" viewBox="0 0 32 32" fill="none" xmlns="http://www.w3.org/2000/svg">
<path d="M26 0H6C2.68629 0 0 2.68629 0 6V26C0 29.3137 2.68629 32 6 32H26C29.3137 32 32 29.3137 32 26V6C32 2.68629 29.3137 0 26 0Z" fill="#96622F"/>
<path d="M8.83008 25.5V19.4902H12.8643V20.5195H10.0752V21.9805H12.6567V23.0098H10.0752V24.4707H12.8726V25.5H8.83008ZM13.603 20.5195V19.4902H18.5254V20.5195H16.6826V25.5H15.4458V20.5195H13.603ZM23.0493 21.582C22.9497 20.918 22.4351 20.5112 21.7378 20.5112C20.7998 20.5112 20.1855 21.2334 20.1855 22.4951C20.1855 23.79 20.8081 24.479 21.7295 24.479C22.4185 24.479 22.9248 24.0972 23.0493 23.4497L24.311 23.458C24.1699 24.5703 23.2402 25.583 21.7129 25.583C20.1025 25.583 18.9155 24.4541 18.9155 22.4951C18.9155 20.5361 20.1274 19.4072 21.7129 19.4072C23.0991 19.4072 24.145 20.2041 24.311 21.582H23.0493Z" fill="white"/>
<path fill-rule="evenodd" clip-rule="evenodd" d="M9.00021 15.8V5.8C9.00021 5.1 9.14221 5 9.86121 5H12.4852C13.1122 5 13.1002 6.581 14.3212 6.581H21.4132C21.837 6.58444 22.2422 6.7559 22.5397 7.05774C22.8373 7.35959 23.0029 7.76717 23.0002 8.191V15.706C23.0002 16.95 22.9762 17 21.7632 17H9.98421C8.96021 17 9.00021 16.821 9.00021 15.8ZM21.7752 11.48L20.8122 10.296H10.2252V8.307H21.7752V11.48Z" fill="white"/>
</svg>
