<svg width="32" height="32" viewBox="0 0 32 32" fill="none" xmlns="http://www.w3.org/2000/svg">
<path d="M26 0H6C2.68629 0 0 2.68629 0 6V26C0 29.3137 2.68629 32 6 32H26C29.3137 32 32 29.3137 32 26V6C32 2.68629 29.3137 0 26 0Z" fill="#3A3A3A"/>
<path d="M4.91895 19.7832H7.79395L8.90283 24.0832L10.0029 19.7832H12.876V26.8582H11.0859V21.4582L9.70581 26.8582H8.08496L6.70801 21.4582V26.8582H4.91797L4.91895 19.7832Z" fill="white"/>
<path d="M14.262 19.7847H17.896C18.5395 19.7352 19.1772 19.9378 19.6741 20.3497C19.879 20.5617 20.0374 20.814 20.1392 21.0908C20.2409 21.3675 20.2839 21.6624 20.2651 21.9567C20.2827 22.2656 20.2343 22.5746 20.1233 22.8634C20.0123 23.1522 19.8411 23.4141 19.6211 23.6317C19.0657 24.0747 18.3622 24.2893 17.6541 24.2316H16.4541V26.8567H14.2539L14.262 19.7847ZM16.4619 22.8007H16.998C17.3105 22.8307 17.6237 22.753 17.886 22.5806C17.9684 22.5124 18.0343 22.4265 18.0786 22.3291C18.123 22.2318 18.1447 22.1256 18.1421 22.0186C18.1444 21.9144 18.126 21.8109 18.0879 21.7139C18.0498 21.6169 17.9925 21.5284 17.9199 21.4536C17.6824 21.2705 17.3829 21.1872 17.085 21.2216H16.4619V22.8007Z" fill="white"/>
<path d="M22.9971 21.8248L21.1392 21.4919C21.2631 20.9462 21.5788 20.4632 22.0291 20.1309C22.5865 19.7834 23.2386 19.618 23.8943 19.6579C24.6002 19.5974 25.3057 19.7794 25.8943 20.1738C26.0904 20.3284 26.248 20.5261 26.3552 20.7515C26.4624 20.977 26.5162 21.2243 26.5122 21.4739C26.515 21.7697 26.4274 22.0592 26.2612 22.3038C26.0636 22.5777 25.8038 22.8008 25.5032 22.9548C25.7228 23.0016 25.9341 23.0812 26.1301 23.1909C26.3598 23.3302 26.5489 23.5275 26.6782 23.7629C26.816 24.0236 26.8848 24.3151 26.8782 24.6099C26.8771 25.0265 26.7656 25.4353 26.5552 25.7949C26.3398 26.1732 26.0154 26.4778 25.6243 26.6688C25.1217 26.8931 24.574 26.9978 24.0242 26.9749C23.5068 26.995 22.9902 26.918 22.5012 26.7479C22.1444 26.6075 21.829 26.379 21.5842 26.0839C21.3271 25.7586 21.1389 25.3843 21.0312 24.9838L22.9951 24.7229C23.03 25.027 23.1555 25.3138 23.3552 25.5459C23.5237 25.7009 23.7463 25.7832 23.9751 25.7749C24.0994 25.7775 24.2228 25.7529 24.3367 25.7028C24.4505 25.6527 24.5522 25.5783 24.6343 25.4849C24.8176 25.2708 24.9117 24.9944 24.8972 24.7128C24.9148 24.4357 24.8241 24.1625 24.6443 23.9509C24.5553 23.8597 24.4477 23.7885 24.3291 23.742C24.2105 23.6954 24.0833 23.6746 23.9561 23.6809C23.7396 23.6916 23.5255 23.7306 23.3191 23.7969L23.4192 22.3969C23.5039 22.4107 23.5895 22.4187 23.6753 22.4209C23.7935 22.4242 23.9112 22.4042 24.0217 22.362C24.1322 22.3197 24.2332 22.2562 24.3191 22.1749C24.4009 22.1012 24.4663 22.0111 24.5107 21.9105C24.5552 21.8098 24.5778 21.7009 24.5771 21.5909C24.5816 21.4963 24.5669 21.4018 24.5337 21.3131C24.5005 21.2244 24.4497 21.1433 24.3843 21.0748C24.3135 21.0084 24.2297 20.957 24.1384 20.9238C24.0471 20.8907 23.9502 20.8764 23.8533 20.8819C23.7499 20.8776 23.6466 20.894 23.5496 20.93C23.4526 20.9661 23.3636 21.0211 23.2881 21.0919C23.1163 21.2995 23.0144 21.556 22.9971 21.8248Z" fill="white"/>
<path d="M18.2552 7.1911C17.5496 6.53272 17.0756 5.66386 16.9042 4.71411C16.9042 4.58999 16.855 4.47095 16.7672 4.38318C16.6794 4.29541 16.5603 4.24609 16.4362 4.24609C16.312 4.24609 16.1931 4.29541 16.1053 4.38318C16.0176 4.47095 15.9681 4.58999 15.9681 4.71411V13.7591C15.1453 13.3645 14.2105 13.2694 13.3251 13.4901C11.6021 13.8651 10.4081 15.1011 10.6581 16.2501C10.9081 17.3991 12.5083 18.0261 14.2323 17.6501C15.9563 17.2741 17.1322 16.0561 16.9042 14.9141V9.09113C17.4147 9.15023 17.9 9.34601 18.3085 9.6579C18.717 9.96978 19.0337 10.3862 19.2252 10.8631C19.526 11.4786 19.6678 12.1597 19.6376 12.8441C19.6074 13.5285 19.406 14.1945 19.0521 14.7811C22.7381 10.8311 18.2552 7.1911 18.2552 7.1911Z" fill="white"/>
</svg>
