<svg width="32" height="32" viewBox="0 0 32 32" fill="none" xmlns="http://www.w3.org/2000/svg">
<path d="M24 0H8C3.58172 0 0 3.58172 0 8V24C0 28.4183 3.58172 32 8 32H24C28.4183 32 32 28.4183 32 24V8C32 3.58172 28.4183 0 24 0Z" fill="#ED1F24"/>
<path d="M25.2653 18.968C25.2653 18.968 26.1253 17.043 19.9203 17.921C19.9203 17.921 17.4903 17.155 15.8833 13.043C16.0697 11.9235 16.1882 10.7938 16.2383 9.65997C16.2383 9.65997 15.7153 11.641 15.5843 11.996C15.5843 11.996 14.5373 8.14596 15.4353 7.28596C15.4353 7.28596 16.0463 7.41697 16.3203 9.32297C16.3203 9.32297 16.7203 7.12297 15.3793 7.04297C15.1034 7.05488 14.8409 7.16505 14.6392 7.35358C14.4375 7.5421 14.3098 7.79655 14.2793 8.07097C14.2194 9.88998 14.4786 11.7054 15.0453 13.435C15.0453 13.435 10.5453 24.035 7.98026 24.388C7.98026 24.388 7.73726 23.379 11.0083 20.612C11.0083 20.612 5.99926 23.412 7.68126 24.481C7.68126 24.481 8.50326 25.266 9.79326 24.145C10.9675 23.0339 11.9079 21.6995 12.5593 20.22C14.8122 19.4901 17.1194 18.94 19.4593 18.575C19.4593 18.575 24.4873 21.416 25.2723 19.435V19.211C25.2723 19.211 24.8613 20.482 20.8423 18.411C20.8363 18.407 24.6493 17.958 25.2653 18.968ZM12.7803 19.734C13.8315 18.0367 14.7261 16.2473 15.4533 14.388C16.202 15.8737 17.3064 17.1513 18.6683 18.107C16.6702 18.512 14.7028 19.0556 12.7803 19.734Z" fill="white"/>
</svg>
