<svg width="32" height="32" viewBox="0 0 32 32" fill="none" xmlns="http://www.w3.org/2000/svg">
<path d="M24 0H8C3.58172 0 0 3.58172 0 8V24C0 28.4183 3.58172 32 8 32H24C28.4183 32 32 28.4183 32 24V8C32 3.58172 28.4183 0 24 0Z" fill="#FFCA1C"/>
<path d="M23.6173 0.353516H20.9453V1.60852H23.6173V0.353516Z" fill="white"/>
<path d="M26.2892 1.60938H23.6172V2.86437H26.2892V1.60938Z" fill="white"/>
<path d="M23.6173 2.86328H20.9453V4.11828H23.6173V2.86328Z" fill="white"/>
<path d="M26.2892 4.11914H23.6172V5.37414H26.2892V4.11914Z" fill="white"/>
<path d="M23.6265 5.375C23.1122 5.375 22.619 5.5793 22.2554 5.94293C21.8917 6.30657 21.6875 6.79976 21.6875 7.31401V10.403C21.6875 10.9174 21.8919 11.4107 22.2556 11.7744C22.6193 12.1382 23.1126 12.3425 23.627 12.3425C24.1413 12.3425 24.6348 12.1382 24.9985 11.7744C25.3623 11.4107 25.5664 10.9174 25.5664 10.403V7.317C25.5668 7.06203 25.517 6.8095 25.4197 6.57384C25.3223 6.33818 25.1795 6.12402 24.9993 5.94363C24.8191 5.76325 24.6052 5.62017 24.3696 5.5226C24.1341 5.42503 23.8814 5.37487 23.6265 5.375ZM24.2705 11.245H22.9814V8.47701H24.2705V11.245Z" fill="white"/>
<path d="M5.146 16.1016H12.97V17.8896L7.948 23.1266H13.1541V25.0496H4.66406V23.1945L9.63403 18.0125H5.146V16.1016Z" fill="white"/>
<path d="M14.5078 16.1016H17.2788V25.0486H14.5078V16.1016Z" fill="white"/>
<path d="M19.25 16.1012H23.8499C24.6638 16.0382 25.4703 16.2943 26.0989 16.8151C26.3581 17.0831 26.5587 17.4023 26.6875 17.7522C26.8163 18.1021 26.8706 18.475 26.8469 18.8472C26.869 19.2378 26.8077 19.6286 26.6672 19.9938C26.5267 20.3589 26.3102 20.69 26.032 20.9651C25.3303 21.5268 24.4408 21.7997 23.5449 21.7281H22.0298V25.0481H19.2529L19.25 16.1012ZM22.0269 19.9152H22.7039C23.0989 19.953 23.4951 19.855 23.8269 19.6371C23.9307 19.5505 24.0137 19.4416 24.0696 19.3185C24.1255 19.1954 24.1529 19.0613 24.1499 18.9261C24.1527 18.7944 24.1293 18.6635 24.0811 18.5409C24.0328 18.4184 23.9607 18.3066 23.8689 18.2121C23.5685 17.9807 23.1897 17.8756 22.813 17.9191H22.0259L22.0269 19.9152Z" fill="white"/>
</svg>
