<svg width="150" height="42" viewBox="0 0 150 42" fill="none" xmlns="http://www.w3.org/2000/svg">
<g clip-path="url(#clip0_2275_1281)">
<path d="M13.5177 35.467L13.4847 35.4329L13.2767 35.654C12.0977 36.7016 10.8593 37.6806 9.56773 38.586C8.82918 39.1042 7.97521 39.4341 7.0801 39.547C6.18499 39.66 5.27584 39.5525 4.43173 39.234C3.84479 38.9728 3.34791 38.5443 3.00321 38.0021C2.6585 37.46 2.48129 36.8283 2.49373 36.186V6.95895C2.4565 6.05506 2.70089 5.16194 3.19315 4.40295C3.68541 3.64396 4.40124 3.05656 5.24172 2.72195C7.26872 1.92695 9.67273 2.60297 11.6787 4.52697C14.1907 6.93897 17.8137 10.286 21.9447 14.091L22.2257 14.351C25.5257 17.398 28.6487 20.276 30.6127 22.161C30.8612 22.3663 31.1734 22.4786 31.4957 22.4786C31.818 22.4786 32.1303 22.3663 32.3787 22.161C32.4948 22.0519 32.5874 21.9202 32.6507 21.774C32.7139 21.6278 32.7466 21.4703 32.7466 21.311C32.7466 21.1517 32.7139 20.9941 32.6507 20.8479C32.5874 20.7017 32.4948 20.57 32.3787 20.461C30.3547 18.52 27.1067 15.521 23.6717 12.361C19.7247 8.72295 15.9717 5.26096 13.4427 2.83096C10.7277 0.230955 7.21972 -0.663041 4.28272 0.503959C2.99432 1.01269 1.89253 1.90365 1.12544 3.05706C0.358342 4.21047 -0.0372889 5.57105 -0.00827691 6.95596V36.229C-0.0103902 37.3249 0.30671 38.3977 0.904283 39.3163C1.50186 40.235 2.35404 40.9597 3.35673 41.402C4.28578 41.8024 5.28811 42.0047 6.29973 41.996C8.00813 42.0023 9.67595 41.4755 11.0707 40.489C12.4822 39.5119 13.8277 38.4429 15.0987 37.289C15.2076 37.176 15.2926 37.0423 15.3485 36.8957C15.4045 36.7492 15.4303 36.5928 15.4244 36.4361C15.4185 36.2793 15.3811 36.1253 15.3143 35.9834C15.2475 35.8414 15.1527 35.7144 15.0357 35.6099C14.8289 35.4271 14.5692 35.315 14.2943 35.2896C14.0194 35.2643 13.7435 35.3271 13.5067 35.469" fill="white"/>
<path d="M44.1789 5.77111C44.1812 4.6753 43.8638 3.60263 43.2658 2.68438C42.6678 1.76613 41.815 1.04217 40.8119 0.601125C39.5541 0.0889363 38.187 -0.0960834 36.8384 0.0634055C35.4897 0.222894 34.2035 0.721674 33.0999 1.51311C31.6869 2.48976 30.3399 3.55877 29.0679 4.71312C28.959 4.82605 28.8741 4.95983 28.8182 5.10644C28.7623 5.25304 28.7367 5.40942 28.7429 5.56618C28.749 5.72295 28.7869 5.87684 28.8541 6.01861C28.9213 6.16037 29.0165 6.28709 29.1339 6.3911C29.3407 6.57406 29.6003 6.68647 29.8752 6.712C30.1501 6.73753 30.426 6.67486 30.6629 6.5331L30.6969 6.56612L30.9039 6.3431C32.0862 5.29922 33.3247 4.32076 34.6139 3.4121C35.3519 2.89222 36.2061 2.56137 37.1018 2.44857C37.9974 2.33576 38.9071 2.44444 39.7509 2.7651C40.3369 3.02705 40.8326 3.45608 41.1759 3.99843C41.5192 4.54079 41.6949 5.17238 41.6809 5.81411V35.0381C41.7185 35.9419 41.4745 36.8351 40.9826 37.5943C40.4907 38.3535 39.7752 38.9411 38.9349 39.2761C36.9169 40.0761 34.5139 39.4051 32.4979 37.4681C29.8239 34.9041 25.7249 31.1261 22.4319 28.0901L22.2669 27.9391C18.6579 24.6091 15.5399 21.7341 13.5619 19.8391C13.3188 19.6217 13.0041 19.5015 12.6779 19.5015C12.3517 19.5015 12.037 19.6217 11.7939 19.8391C11.6786 19.9481 11.5867 20.0795 11.5239 20.2252C11.4611 20.3709 11.4287 20.5279 11.4287 20.6866C11.4287 20.8453 11.4611 21.0023 11.5239 21.148C11.5867 21.2938 11.6786 21.4251 11.7939 21.5341C13.7859 23.4461 16.8009 26.2341 20.5339 29.6691L20.9919 30.0911C24.1739 33.0241 28.1349 36.6761 30.7279 39.1651C32.4436 40.9101 34.7678 41.9238 37.2139 41.9941C38.1289 41.9989 39.0364 41.8292 39.8879 41.4941C41.1768 40.9861 42.2791 40.0953 43.0463 38.9417C43.8135 37.7882 44.2088 36.4272 44.1789 35.0421V5.77111Z" fill="white"/>
<path d="M148.462 17.5999C147.412 17.5999 146.899 18.0509 146.899 18.9309V26.3029H142.724C142.527 26.2758 142.327 26.2935 142.138 26.3547C141.95 26.4158 141.777 26.5189 141.634 26.6561C141.49 26.7933 141.38 26.9612 141.31 27.1471C141.241 27.3331 141.214 27.5323 141.233 27.7299C141.214 27.9287 141.239 28.1293 141.308 28.3169C141.377 28.5045 141.487 28.6742 141.63 28.8136C141.773 28.953 141.946 29.0584 142.135 29.1222C142.324 29.1859 142.526 29.2063 142.724 29.1819H146.898V38.4819C146.898 39.3819 147.411 39.8129 148.461 39.8129C149.486 39.8129 149.999 39.3849 149.999 38.4819V18.9309C149.999 18.0509 149.487 17.5999 148.462 17.5999ZM137.912 22.8789H141.649C142.549 22.8789 142.869 22.4519 142.869 21.5009C142.869 20.5729 142.552 20.1449 141.649 20.1449H137.912V18.5279C137.912 17.6279 137.449 17.1719 136.374 17.1719C135.274 17.1719 134.836 17.6239 134.836 18.5279V20.1449H131.098C130.198 20.1449 129.878 20.5729 129.878 21.5009C129.878 22.4519 130.194 22.8789 131.098 22.8789H134.835V31.2029L129.78 36.9109C129.243 37.5049 129.315 38.1239 130.098 38.7889C130.977 39.5259 131.489 39.4079 132.051 38.7649L136.374 33.8429L140.695 38.7649C141.258 39.4079 141.77 39.5259 142.649 38.7889C143.43 38.1239 143.504 37.5049 142.967 36.9109L137.912 31.2029V22.8789ZM108.683 36.4109V29.7759H117.376C118.255 29.7759 118.622 29.3479 118.622 28.4679C118.622 27.5399 118.256 27.1119 117.376 27.1119H108.683V20.9769H117.767C118.645 20.9769 119.011 20.5479 119.011 19.6209C119.011 18.6939 118.645 18.2659 117.767 18.2659H106.975C105.997 18.2659 105.583 18.6939 105.583 19.6439V37.7899C105.583 38.6699 105.998 39.1209 106.975 39.1209H118.475C119.354 39.1209 119.721 38.6929 119.721 37.7659C119.721 36.8389 119.355 36.4099 118.475 36.4099L108.683 36.4109ZM124.043 17.5999C123.017 17.5999 122.504 18.0509 122.504 18.9309V38.4799C122.504 39.3799 123.017 39.8109 124.043 39.8109C125.069 39.8109 125.581 39.3829 125.581 38.4799V18.9309C125.581 18.0509 125.068 17.5999 124.043 17.5999ZM87.9039 36.6719C85.9989 36.6719 84.0219 35.8639 84.0219 33.1059V24.1639C84.0219 21.4049 85.9989 20.5969 87.9039 20.5969C89.8089 20.5969 91.7619 21.4049 91.7619 24.1639V33.1059C91.7619 35.8639 89.8079 36.6719 87.9039 36.6719ZM87.9039 39.4309C91.3219 39.4309 94.9119 37.9079 94.9119 33.3429V23.9489C94.9119 19.3599 91.3219 17.8369 87.9039 17.8369C84.4609 17.8369 80.8959 19.3599 80.8959 23.9489V33.3389C80.8959 37.9039 84.4609 39.4269 87.9039 39.4269M99.6039 39.8069C100.653 39.8069 101.166 39.3789 101.166 38.4759V18.9309C101.166 18.0509 100.653 17.5999 99.6039 17.5999C98.5549 17.5999 98.0409 18.0509 98.0409 18.9309V38.4799C98.0409 39.3799 98.5539 39.8109 99.6039 39.8109M61.5589 37.0289V33.4619C61.5589 32.5619 61.0459 32.1299 59.9729 32.1299C58.9729 32.1299 58.4579 32.5579 58.4579 33.4619V38.3619C58.4579 39.3359 58.9229 39.8359 60.0209 39.8359H76.0879C76.9669 39.8359 77.3339 39.3609 77.3339 38.4359C77.3339 37.4849 76.9679 37.0359 76.0879 37.0359L61.5589 37.0289ZM59.6059 22.2129C59.6059 21.1429 60.3389 20.4999 61.9489 20.4999C63.5589 20.4999 64.3179 21.1429 64.3179 22.2129V26.3739C64.3179 27.4439 63.5609 28.0859 61.9489 28.0859C60.3369 28.0859 59.6059 27.4449 59.6059 26.3739V22.2129ZM67.3459 25.8509H69.4699V32.3189C69.4699 33.2189 69.9589 33.6269 70.9849 33.6269C72.0109 33.6269 72.4989 33.2269 72.4989 32.3189V19.0269C72.4989 18.1469 71.9859 17.7179 70.9849 17.7179C69.9839 17.7179 69.4699 18.1469 69.4699 19.0269V22.9749H67.3459V21.7859C67.3459 19.3369 65.3189 17.8379 61.9459 17.8379C58.5729 17.8379 56.5459 19.3379 56.5459 21.7859V26.8519C56.5459 29.2769 58.5729 30.7759 61.9459 30.7759C65.3189 30.7759 67.3459 29.2759 67.3459 26.8519V25.8509ZM75.6459 33.7229C76.6719 33.7229 77.1349 33.2949 77.1349 32.3919V18.9309C77.1349 18.0509 76.6459 17.5999 75.6459 17.5999C74.6459 17.5999 74.1319 18.0509 74.1319 18.9309V32.3919C74.1319 33.2919 74.6199 33.7229 75.6459 33.7229Z" fill="white"/>
<path d="M127.351 9.05927V3.16925H130.603C130.831 3.16925 130.934 3.04027 130.934 2.77927C130.934 2.50227 130.834 2.39026 130.603 2.39026H126.903C126.64 2.39026 126.514 2.50227 126.514 2.77927V9.45926C126.514 9.71926 126.64 9.83926 126.903 9.83926H130.793C131.021 9.83926 131.131 9.71826 131.131 9.45026C131.131 9.18226 131.021 9.06024 130.793 9.06024L127.351 9.05927ZM132.868 5.29926V2.53625C132.868 2.27625 132.733 2.15625 132.453 2.15625C132.173 2.15625 132.039 2.27725 132.039 2.53625V9.72626C132.039 9.99426 132.174 10.1063 132.453 10.1063C132.732 10.1063 132.868 9.99426 132.868 9.72626V6.12625H133.755C134 6.12625 134.093 5.97924 134.093 5.70224C134.093 5.42524 134 5.29425 133.755 5.29425L132.868 5.29926ZM119.552 7.75125H123.972V9.33624H119.552V7.75125ZM119.137 6.97925C118.85 6.97925 118.737 7.09227 118.737 7.38727V9.71027C118.737 9.98727 118.854 10.1103 119.117 10.1103H124.417C124.686 10.1103 124.797 9.98927 124.797 9.71027V7.38824C124.797 7.09324 124.686 6.98026 124.397 6.98026L119.137 6.97925ZM122.847 5.91425C122.847 5.64625 122.737 5.51425 122.509 5.51425H119.137V3.21426H122.331C122.551 3.21426 122.66 3.07524 122.66 2.81424C122.66 2.53724 122.55 2.41425 122.331 2.41425H118.681C118.419 2.41425 118.292 2.53524 118.292 2.81424V5.93326C118.292 6.18426 118.42 6.30624 118.681 6.30624H122.508C122.736 6.30624 122.846 6.18426 122.846 5.91626M124.79 3.90625V2.52927C124.79 2.26927 124.655 2.15726 124.368 2.15726C124.097 2.15726 123.944 2.26927 123.944 2.52927V6.27225C123.944 6.53225 124.088 6.64526 124.368 6.64526C124.663 6.64526 124.79 6.53225 124.79 6.27225V4.73126H125.59C125.826 4.73126 125.927 4.59225 125.927 4.31525C125.927 4.03825 125.827 3.90726 125.59 3.90726L124.79 3.90625ZM115.175 10.1172C115.411 10.1172 115.521 10.0233 115.521 9.76227C115.521 9.52027 115.411 9.42526 115.175 9.42526H109.593V8.81024H114.916C115.196 8.81024 115.316 8.62926 115.316 8.33426V7.25024C115.316 6.95724 115.197 6.83527 114.91 6.83527H109.122C108.893 6.83527 108.784 6.91325 108.784 7.18225C108.784 7.41625 108.894 7.52826 109.122 7.52826H114.504V8.10825H109.172C108.903 8.10825 108.784 8.22124 108.784 8.50824V9.70825C108.784 9.99425 108.903 10.1143 109.172 10.1143L115.175 10.1172ZM115.495 6.35025C115.732 6.35025 115.833 6.25026 115.833 5.97726C115.833 5.70426 115.733 5.59525 115.495 5.59525H108.626C108.398 5.59525 108.288 5.69526 108.288 5.97726C108.288 6.25926 108.398 6.35025 108.626 6.35025H115.495ZM109.564 3.69025C109.564 3.28425 109.809 3.08325 110.281 3.08325H113.847C114.312 3.08325 114.557 3.28325 114.557 3.69025C114.557 4.09725 114.312 4.29724 113.847 4.29724H110.281C109.809 4.29724 109.564 4.09725 109.564 3.69025ZM108.743 3.69025C108.743 4.70425 109.361 5.08527 110.264 5.08527H113.846C114.767 5.08527 115.376 4.70525 115.376 3.69025C115.376 2.67525 114.767 2.30426 113.855 2.30426H110.264C109.364 2.30426 108.743 2.67725 108.743 3.69025ZM106.36 9.34726H101.485V8.04724H106.36V9.34726ZM100.66 9.72025C100.66 9.99725 100.777 10.1263 101.04 10.1263H106.819C107.081 10.1263 107.19 9.99725 107.19 9.72025V7.65826C107.19 7.39026 107.08 7.26825 106.819 7.26825H101.04C100.777 7.26825 100.66 7.39026 100.66 7.65826V9.72025ZM107.36 6.59326C107.596 6.59326 107.697 6.48025 107.697 6.20325C107.697 5.92625 107.597 5.79724 107.36 5.79724H100.493C100.265 5.79724 100.155 5.92625 100.155 6.20325C100.155 6.48025 100.265 6.59326 100.493 6.59326H107.36ZM101.428 3.75226C101.428 3.32826 101.673 3.08426 102.189 3.08426H105.671C106.178 3.08426 106.423 3.32826 106.423 3.75226C106.423 4.17626 106.178 4.41925 105.671 4.41925H102.193C101.677 4.41925 101.432 4.18426 101.432 3.75226M100.613 3.75226C100.613 4.78226 101.222 5.20724 102.176 5.20724H105.682C106.637 5.20724 107.245 4.78226 107.245 3.75226C107.245 2.72226 106.636 2.30527 105.682 2.30527H102.176C101.221 2.30527 100.613 2.73026 100.613 3.75226ZM93.101 3.17224H95.948V9.08026H93.093L93.101 3.17224ZM92.671 2.38425C92.6156 2.37506 92.5588 2.37924 92.5054 2.39639C92.4519 2.41355 92.4034 2.44318 92.3637 2.48288C92.324 2.52258 92.2943 2.57118 92.2771 2.62463C92.26 2.67809 92.2558 2.73487 92.265 2.79025V9.46124C92.265 9.74724 92.4 9.86127 92.671 9.86127H96.38C96.651 9.86127 96.786 9.74924 96.786 9.46124V2.79025C96.7952 2.73487 96.791 2.67809 96.7739 2.62463C96.7567 2.57118 96.7271 2.52258 96.6874 2.48288C96.6477 2.44318 96.5991 2.41355 96.5456 2.39639C96.4922 2.37924 96.4354 2.37506 96.38 2.38425H92.671ZM98.704 5.30225V2.53925C98.704 2.27925 98.569 2.15924 98.289 2.15924C98.009 2.15924 97.876 2.28025 97.876 2.53925V9.72925C97.876 9.99725 98.011 10.1093 98.289 10.1093C98.567 10.1093 98.704 9.99725 98.704 9.72925V6.12924H99.591C99.836 6.12924 99.929 5.98226 99.929 5.70526C99.929 5.42826 99.836 5.29724 99.591 5.29724L98.704 5.30225ZM87.855 9.83325C88.083 9.83325 88.184 9.70425 88.184 9.42725C88.184 9.15025 88.084 9.02725 87.855 9.02725H82.566C82.338 9.02725 82.228 9.14925 82.228 9.42725C82.228 9.70525 82.338 9.83325 82.566 9.83325H87.855ZM85.05 6.62024C84.307 6.62024 83.55 6.29925 83.55 5.34625V4.34625C83.55 3.40125 84.311 3.08127 85.05 3.08127C85.789 3.08127 86.55 3.40225 86.55 4.34625V5.34625C86.55 6.29925 85.78 6.62024 85.05 6.62024ZM85.05 7.42026C86.25 7.42026 87.4 6.85725 87.4 5.41025V4.30124C87.4 2.86324 86.25 2.30124 85.05 2.30124C83.85 2.30124 82.702 2.86424 82.702 4.30124V5.41025C82.702 6.85725 83.842 7.42026 85.05 7.42026ZM89.064 10.1133C89.351 10.1133 89.486 10.0012 89.486 9.73325V2.54324C89.486 2.28324 89.351 2.16327 89.064 2.16327C88.777 2.16327 88.642 2.28424 88.642 2.54324V9.73325C88.642 10.0012 88.777 10.1133 89.064 10.1133ZM80.488 9.34225H75.788V7.75726H80.488V9.34225ZM74.971 9.71524C74.971 9.99224 75.09 10.1153 75.351 10.1153H80.936C81.198 10.1153 81.307 9.99424 81.307 9.71524V7.40225C81.307 7.10225 81.197 6.98627 80.907 6.98627H75.373C75.086 6.98627 74.967 7.09925 74.967 7.40225L74.971 9.71524ZM78.917 6.26724C79.153 6.26724 79.255 6.15426 79.255 5.87726C79.255 5.60026 79.155 5.47726 78.917 5.47726H75.293V2.69626C75.293 2.43626 75.141 2.31424 74.854 2.31424C74.567 2.31424 74.432 2.43626 74.432 2.69626V5.86624C74.432 6.14324 74.542 6.26627 74.812 6.26627L78.917 6.26724ZM80.894 6.64926C81.181 6.64926 81.316 6.53625 81.316 6.27625V2.53326C81.316 2.27326 81.172 2.16125 80.894 2.16125C80.616 2.16125 80.463 2.27326 80.463 2.53326V6.27625C80.463 6.53625 80.607 6.64926 80.894 6.64926ZM68.423 9.40326C68.317 9.41528 68.2096 9.40393 68.1084 9.37003C68.0072 9.33612 67.9147 9.28048 67.8373 9.207C67.7599 9.13352 67.6996 9.044 67.6605 8.9447C67.6214 8.84541 67.6045 8.73878 67.611 8.63226C67.6053 8.527 67.6229 8.42176 67.6627 8.32413C67.7024 8.22649 67.7633 8.13888 67.8409 8.06757C67.9185 7.99625 68.011 7.943 68.1116 7.91165C68.2123 7.8803 68.3186 7.87164 68.423 7.88626H71.617C71.7213 7.87177 71.8275 7.88056 71.928 7.91199C72.0284 7.94341 72.1207 7.9967 72.1981 8.06802C72.2756 8.13934 72.3363 8.22691 72.3758 8.32446C72.4154 8.42202 72.4329 8.52715 72.427 8.63226C72.4342 8.73877 72.4178 8.84554 72.3791 8.94501C72.3404 9.04448 72.2802 9.1342 72.2029 9.20779C72.1256 9.28139 72.033 9.33704 71.9317 9.37082C71.8305 9.4046 71.723 9.41569 71.617 9.40326H68.423ZM68.458 7.11624C68.2447 7.08595 68.0273 7.10301 67.8212 7.1662C67.6152 7.22939 67.4256 7.33717 67.266 7.48187C67.1063 7.62657 66.9804 7.80463 66.8973 8.00345C66.8142 8.20227 66.7758 8.41697 66.785 8.63226C66.7752 8.84876 66.8129 9.06475 66.8955 9.26514C66.978 9.46552 67.1034 9.64545 67.2628 9.79227C67.4221 9.93909 67.6117 10.0493 67.8182 10.1151C68.0247 10.1809 68.2431 10.2007 68.458 10.1732H71.567C71.7831 10.2024 72.0029 10.1838 72.211 10.1188C72.4192 10.0538 72.6105 9.94402 72.7716 9.79712C72.9327 9.65022 73.0597 9.46978 73.1435 9.26852C73.2274 9.06727 73.2661 8.8501 73.257 8.63226C73.2655 8.41716 73.2267 8.20281 73.1433 8.00433C73.06 7.80586 72.9341 7.62807 72.7746 7.48352C72.6151 7.33897 72.4258 7.23118 72.2201 7.16772C72.0144 7.10427 71.7973 7.08668 71.584 7.11624H68.458ZM69.539 6.43124C69.5756 6.46884 69.6204 6.49762 69.6698 6.51532C69.7192 6.53302 69.772 6.5392 69.8242 6.53342C69.8764 6.52763 69.9265 6.51 69.9708 6.4819C70.0152 6.4538 70.0525 6.41596 70.08 6.37125C70.1194 6.33533 70.1501 6.29106 70.1701 6.24167C70.1901 6.19228 70.1987 6.13904 70.1953 6.08588C70.192 6.03271 70.1767 5.98097 70.1507 5.93448C70.1247 5.88799 70.0886 5.84794 70.045 5.81726L68.507 4.38824V2.65027C68.507 2.39027 68.355 2.27725 68.077 2.27725C67.799 2.27725 67.662 2.39027 67.662 2.65027V4.37427L66.116 5.81226C66.0729 5.84306 66.0371 5.88294 66.0111 5.92911C65.9851 5.97527 65.9695 6.0266 65.9655 6.07944C65.9615 6.13227 65.9691 6.18533 65.9879 6.23489C66.0066 6.28445 66.036 6.32929 66.074 6.36624C66.1014 6.41094 66.1387 6.4488 66.1829 6.4769C66.2272 6.505 66.2772 6.52262 66.3293 6.52841C66.3814 6.5342 66.4342 6.52799 66.4835 6.51028C66.5328 6.49258 66.5775 6.46383 66.614 6.42624L68.077 5.15326L69.539 6.43124ZM71.093 6.71725C71.372 6.71725 71.508 6.60525 71.508 6.34525V4.70825H72.403V6.42224C72.403 6.69024 72.538 6.80426 72.818 6.80426C73.098 6.80426 73.224 6.69124 73.224 6.42224V2.54227C73.224 2.28227 73.089 2.16226 72.818 2.16226C72.547 2.16226 72.403 2.28327 72.403 2.54227V3.88626H71.508V2.57724C71.508 2.30924 71.364 2.20526 71.093 2.20526C70.84 2.20526 70.693 2.30524 70.693 2.57724V6.34625C70.693 6.60625 70.828 6.71826 71.093 6.71826M59.568 9.31827V7.75925C59.568 7.49925 59.4244 7.36926 59.137 7.36926C58.859 7.36926 58.724 7.50025 58.724 7.75925V9.69925C58.724 9.98525 58.85 10.1233 59.137 10.1233H64.857C65.094 10.1233 65.195 9.98525 65.195 9.71725C65.195 9.44925 65.095 9.31726 64.857 9.31726L59.568 9.31827ZM62.238 6.71027C62.2774 6.74549 62.3242 6.77132 62.375 6.78586C62.4258 6.8004 62.4792 6.80326 62.5313 6.79422C62.5833 6.78518 62.6326 6.76446 62.6755 6.73364C62.7185 6.70282 62.7538 6.66268 62.779 6.61624C62.922 6.40924 62.948 6.19126 62.719 6.03625L60.826 4.61526V2.67526C60.826 2.41526 60.683 2.30225 60.404 2.30225C60.125 2.30225 59.982 2.41526 59.982 2.67526V4.61526L58.089 6.03625C57.861 6.19126 57.889 6.40924 58.03 6.61624C58.0552 6.66268 58.0906 6.70282 58.1335 6.73364C58.1764 6.76446 58.2257 6.78518 58.2778 6.79422C58.3298 6.80326 58.3832 6.8004 58.434 6.78586C58.4848 6.77132 58.5316 6.74549 58.571 6.71027L60.404 5.34225L62.238 6.71027ZM64.105 4.87427V7.51025C64.105 7.77025 64.249 7.88226 64.536 7.88226C64.823 7.88226 64.958 7.77025 64.958 7.51025V2.52826C64.958 2.26826 64.814 2.15625 64.536 2.15625C64.258 2.15625 64.105 2.26826 64.105 2.52826V4.04425H62.551C62.4972 4.03924 62.4429 4.04645 62.3923 4.06534C62.3416 4.08423 62.2959 4.11432 62.2585 4.15335C62.2211 4.19238 62.193 4.23936 62.1763 4.29077C62.1596 4.34218 62.1547 4.39669 62.162 4.45026C62.1544 4.50434 62.159 4.55944 62.1755 4.61151C62.1919 4.66359 62.2198 4.7113 62.2571 4.75119C62.2944 4.79108 62.3402 4.82213 62.391 4.84204C62.4419 4.86195 62.4966 4.87021 62.551 4.86624L64.105 4.87427Z" fill="white"/>
</g>
<defs>
<clipPath id="clip0_2275_1281">
<rect width="150" height="42" fill="white"/>
</clipPath>
</defs>
</svg>
