<svg width="220" height="46" viewBox="0 0 220 46" fill="none" xmlns="http://www.w3.org/2000/svg">
<path d="M72.5576 44.4674H90.2419C91.112 44.4674 91.9464 44.1218 92.5616 43.5065C93.1768 42.8913 93.5225 42.0568 93.5225 41.1868C93.5225 40.3167 93.1768 39.4824 92.5616 38.8671C91.9464 38.2519 91.112 37.9062 90.2419 37.9062H72.5576V44.4674Z" fill="#191919"/>
<path d="M26.7805 41.1313V3.28166C26.7805 2.41544 26.4364 1.58469 25.8239 0.972172C25.2114 0.359658 24.3806 0.0155029 23.5144 0.0155029C22.6482 0.0155029 21.8174 0.359658 21.2049 0.972172C20.5924 1.58469 20.2483 2.41544 20.2483 3.28166V41.1313C20.2474 41.6737 20.3818 42.2077 20.6395 42.685L20.6866 42.7665C20.6929 42.7812 20.7008 42.7952 20.7101 42.8082C20.7161 42.821 20.7234 42.8331 20.7318 42.8444C21.0337 43.3395 21.4623 43.7449 21.9732 44.0192C22.4841 44.2934 23.0589 44.4265 23.6383 44.4045C24.2177 44.3825 24.7808 44.2064 25.2695 43.8943C25.7581 43.5822 26.1548 43.1454 26.4183 42.6289L26.4273 42.6108L26.4491 42.5673L26.4654 42.5329L26.4799 42.5021L26.5035 42.4533V42.4369L26.5288 42.3772C26.5677 42.2812 26.6015 42.1833 26.6302 42.0838C26.6302 42.0603 26.6447 42.0367 26.652 42.0113L26.6683 41.948V41.9226L26.6791 41.8737L26.6882 41.8266V41.8031C26.7328 41.5874 26.7552 41.3678 26.7551 41.1475" fill="#191919"/>
<path d="M42.625 22.2035C42.625 21.3373 42.2809 20.5066 41.6684 19.8941C41.0559 19.2815 40.2251 18.9375 39.3589 18.9375C38.4927 18.9375 37.6619 19.2815 37.0494 19.8941C36.4369 20.5066 36.0928 21.3373 36.0928 22.2035V44.4026H42.625V22.2035Z" fill="#191919"/>
<path d="M26.7799 41.1265V41.0432C26.7664 40.5308 26.6337 40.0285 26.3924 39.5763L20.2477 28.0892L6.14374 1.72128C5.94088 1.34338 5.66556 1.00914 5.33353 0.73764C5.00149 0.466139 4.61923 0.262759 4.20857 0.138989C3.79791 0.0152195 3.36691 -0.0265075 2.94014 0.0162969C2.51338 0.0591013 2.09919 0.185491 1.72129 0.388353C1.34339 0.591215 1.00915 0.866529 0.737649 1.19857C0.466148 1.5306 0.262713 1.91292 0.138943 2.32358C0.0151732 2.73424 -0.0264987 3.1653 0.0163058 3.59206C0.0591103 4.01883 0.185555 4.43291 0.388417 4.81081L20.6352 42.6695L20.6823 42.7509C20.6886 42.7656 20.6965 42.7796 20.7058 42.7926C20.7119 42.8054 20.7191 42.8175 20.7276 42.8289C20.8002 42.9466 20.88 43.0596 20.9666 43.1674C21.0363 43.2541 21.1113 43.3364 21.1912 43.4138C21.2111 43.4337 21.2256 43.4536 21.2455 43.4699C21.3306 43.5532 21.4266 43.6275 21.5153 43.7018L21.557 43.7361C21.6531 43.8079 21.7536 43.8739 21.8577 43.9335L21.9029 43.9607C22.013 44.0241 22.1274 44.0797 22.2452 44.1273L22.2705 44.14C22.6646 44.3026 23.0866 44.3868 23.5129 44.3881C23.8126 44.3865 24.1106 44.3433 24.3984 44.2595L24.4727 44.236C24.5796 44.2034 24.6882 44.1635 24.7969 44.1182L24.9037 44.0675C24.9544 44.044 25.0033 44.0259 25.0504 43.9988C25.0975 43.9716 25.1174 43.9552 25.1518 43.9353C25.2206 43.8955 25.2858 43.8502 25.351 43.8085C25.4162 43.7669 25.4832 43.718 25.5448 43.6673C25.6064 43.6166 25.6607 43.5659 25.7168 43.5152C25.773 43.4645 25.8345 43.412 25.887 43.354C25.9396 43.2961 25.9957 43.2273 26.0464 43.1639C26.0971 43.1005 26.1388 43.057 26.1786 42.9991C26.2666 42.875 26.3459 42.7448 26.4159 42.6097L26.425 42.5916L26.4467 42.5481L26.463 42.5137L26.4775 42.4829L26.501 42.434V42.4177L26.5264 42.358C26.5653 42.262 26.5991 42.164 26.6278 42.0645C26.6278 42.041 26.6423 42.0175 26.6495 41.9921L26.6658 41.9288V41.9034L26.6766 41.8545L26.6857 41.8074V41.7839C26.7303 41.5682 26.7528 41.3485 26.7527 41.1283" fill="#191919"/>
<path d="M6.53617 21.8052L0.00390625 9.59375V44.4027H6.53617V21.8052Z" fill="#191919"/>
<path d="M55.5983 18.9297H45.2178V25.4765H55.5983C56.4665 25.4765 57.2991 25.1316 57.913 24.5177C58.5268 23.9038 58.8717 23.0713 58.8717 22.2031C58.8717 21.335 58.5268 20.5023 57.913 19.8885C57.2991 19.2746 56.4665 18.9297 55.5983 18.9297Z" fill="#191919"/>
<path d="M57.6376 37.8594H45.2197V44.4078H57.6376C58.506 44.4078 59.3388 44.0629 59.9529 43.4488C60.5669 42.8348 60.9119 42.002 60.9119 41.1336C60.9119 40.2652 60.5669 39.4324 59.9529 38.8184C59.3388 38.2043 58.506 37.8594 57.6376 37.8594Z" fill="#191919"/>
<path d="M20.252 28.0938V41.1327C20.2506 41.6746 20.385 42.2082 20.6431 42.6847C20.6594 42.7137 20.6739 42.7409 20.6902 42.7681C20.6965 42.7828 20.7044 42.7968 20.7137 42.8098L20.7355 42.8478C20.8088 42.9644 20.8886 43.0768 20.9745 43.1846C21.0035 43.2208 21.0379 43.2535 21.0669 43.2861C21.0958 43.3186 21.1556 43.3893 21.2045 43.4364L21.2516 43.4889C21.2788 43.516 21.3132 43.5413 21.3422 43.5667C21.4074 43.6246 21.4707 43.6826 21.5377 43.7351L21.5613 43.7533C21.6582 43.8248 21.7592 43.8908 21.8637 43.9507C21.8772 43.9607 21.8918 43.9691 21.9072 43.976C21.9752 44.0143 22.0454 44.0488 22.1173 44.0792C22.1602 44.1032 22.2043 44.125 22.2495 44.1445H22.2675C22.3916 44.1954 22.5186 44.239 22.6479 44.2749L22.7022 44.2911C22.9691 44.3594 23.2435 44.3941 23.519 44.3944C23.8197 44.3939 24.1189 44.3518 24.4081 44.2694L24.4715 44.2495C24.5856 44.2132 24.6979 44.1735 24.8066 44.1282L24.908 44.0811C24.9967 44.0413 25.0891 43.9942 25.1651 43.9453C25.2412 43.8964 25.2955 43.8638 25.3589 43.8221C25.4223 43.7805 25.4911 43.7298 25.5527 43.6809C25.6143 43.632 25.6686 43.5794 25.7247 43.5269C25.7386 43.5168 25.7514 43.5053 25.7628 43.4925C25.8081 43.4527 25.8533 43.411 25.8968 43.3657C25.9402 43.3205 26.0036 43.2425 26.0543 43.1846C26.105 43.1266 26.1467 43.076 26.1865 43.018C26.2749 42.8941 26.3542 42.764 26.4238 42.6287L26.4328 42.6123L26.4546 42.567L26.4709 42.5327L26.4853 42.5037L26.5089 42.4548V42.4367L26.5343 42.3769C26.5741 42.2827 26.6067 42.1831 26.6357 42.0853C26.6357 42.06 26.6501 42.0365 26.6574 42.0129V42.0039L26.6737 41.9405V41.917L26.6846 41.8699L26.6936 41.8209V41.7974C26.7381 41.5817 26.7606 41.362 26.7606 41.1418V41.0586C26.7475 40.5461 26.6148 40.0438 26.373 39.5917L20.252 28.0938Z" fill="#191919"/>
<g style="mix-blend-mode:color">
<path d="M26.7802 41.1318C26.7777 41.776 26.5845 42.405 26.2247 42.9394C25.865 43.4738 25.355 43.8896 24.7592 44.1344C24.1633 44.3792 23.5083 44.4419 22.8768 44.3147C22.2453 44.1874 21.6657 43.876 21.2111 43.4197C20.7564 42.9633 20.4472 42.3824 20.3225 41.7504C20.1977 41.1184 20.263 40.4637 20.51 39.8688C20.7571 39.2739 21.175 38.7655 21.7108 38.4078C22.2466 38.0502 22.8763 37.8594 23.5205 37.8594C24.3863 37.8623 25.2157 38.2083 25.8268 38.8218C26.4378 39.4352 26.7807 40.266 26.7802 41.1318Z" fill="#191919"/>
</g>
<path d="M36.0908 22.2009V10.8043C36.0889 9.3871 36.3662 7.98342 36.907 6.67337C37.4477 5.36332 38.2412 4.17267 39.2421 3.16934C40.2431 2.16602 41.4319 1.3697 42.7407 0.825919C44.0495 0.282134 45.4526 0.00154803 46.8699 0.00012207H57.6416C58.5097 0.00012207 59.3423 0.344908 59.9562 0.958781C60.57 1.57265 60.9149 2.40532 60.9149 3.27347C60.9149 4.14161 60.57 4.97417 59.9562 5.58804C59.3423 6.20191 58.5097 6.54681 57.6416 6.54681H46.8753C45.7478 6.54969 44.6675 6.9994 43.8711 7.7975C43.0747 8.5956 42.6272 9.67687 42.6267 10.8043V22.2009C42.6267 23.0671 42.2826 23.8979 41.6701 24.5104C41.0576 25.1229 40.2268 25.4671 39.3606 25.4671C38.4944 25.4671 37.6636 25.1229 37.0511 24.5104C36.4386 23.8979 36.0945 23.0671 36.0945 22.2009" fill="#191919"/>
<path d="M42.624 22.2021C42.6215 22.8463 42.4282 23.4753 42.0685 24.0097C41.7088 24.5441 41.1988 24.96 40.6029 25.2048C40.0071 25.4496 39.352 25.5123 38.7205 25.3851C38.089 25.2579 37.5094 24.9465 37.0548 24.4901C36.6002 24.0337 36.291 23.4528 36.1662 22.8208C36.0415 22.1888 36.1067 21.5341 36.3538 20.9392C36.6009 20.3443 37.0187 19.8359 37.5545 19.4783C38.0903 19.1206 38.72 18.9297 39.3642 18.9297C40.2301 18.9326 41.0594 19.2787 41.6705 19.8921C42.2816 20.5055 42.6245 21.3363 42.624 22.2021Z" fill="#191919"/>
<g style="mix-blend-mode:color">
<path d="M42.624 22.2004C42.6219 22.8446 42.4289 23.4739 42.0694 24.0085C41.7099 24.5431 41.2 24.9592 40.6042 25.2042C40.0084 25.4493 39.3533 25.5123 38.7217 25.3853C38.09 25.2583 37.5102 24.947 37.0554 24.4906C36.6006 24.0343 36.2912 23.4535 36.1663 22.8215C36.0414 22.1894 36.1066 21.5345 36.3536 20.9395C36.6007 20.3445 37.0185 19.8361 37.5544 19.4784C38.0902 19.1207 38.72 18.9297 39.3643 18.9297C40.2298 18.9326 41.0589 19.2785 41.6699 19.8916C42.2809 20.5046 42.624 21.3348 42.624 22.2004Z" fill="#191919"/>
</g>
<path d="M170.676 43.9082C170.676 44.3809 170.413 44.5837 169.951 44.5837C168.53 44.5328 167.132 44.2018 165.838 43.6095C164.545 43.0171 163.381 42.1752 162.413 41.1321C161.446 40.0889 160.694 38.8649 160.2 37.5304C159.707 36.196 159.482 34.7772 159.538 33.3556V19.0796C159.538 18.6069 159.343 18.4041 158.884 18.4041H155.217C154.759 18.4041 154.563 18.2013 154.563 17.7287V15.9013L162.027 7.78095L162.485 7.57812H164.058C164.517 7.57812 164.714 7.78089 164.714 8.25536V13.1269C164.714 13.5996 164.91 13.8024 165.37 13.8024H170.017C170.475 13.8024 170.674 14.0071 170.674 14.478V17.7269C170.674 18.1996 170.477 18.4024 170.017 18.4024H165.37C164.911 18.4024 164.714 18.6052 164.714 19.0778V33.3556C164.707 34.9054 165.249 36.4076 166.243 37.5964C167.238 38.7852 168.62 39.5841 170.147 39.8516C170.306 39.8733 170.45 39.9563 170.548 40.083C170.646 40.2096 170.691 40.3697 170.672 40.5289L170.676 43.9082Z" fill="#191919"/>
<path d="M150.26 18.3279C150.26 19.1159 150.027 19.8862 149.589 20.5414C149.151 21.1966 148.529 21.7073 147.801 22.0088C147.073 22.3104 146.272 22.3893 145.499 22.2355C144.726 22.0818 144.016 21.7023 143.459 21.1451C142.902 20.5879 142.522 19.8781 142.369 19.1052C142.215 18.3324 142.294 17.5312 142.595 16.8032C142.897 16.0752 143.407 15.453 144.063 15.0152C144.718 14.5775 145.488 14.3437 146.276 14.3438C146.799 14.3437 147.317 14.4468 147.801 14.6471C148.284 14.8473 148.723 15.1407 149.093 15.5107C149.463 15.8806 149.757 16.3199 149.957 16.8032C150.157 17.2866 150.26 17.8047 150.26 18.3279Z" fill="#191919"/>
<path d="M132.251 18.3279C132.251 19.1159 132.017 19.8862 131.579 20.5414C131.141 21.1966 130.519 21.7073 129.791 22.0088C129.063 22.3104 128.262 22.3893 127.489 22.2355C126.716 22.0818 126.006 21.7023 125.449 21.1451C124.892 20.5879 124.513 19.8781 124.359 19.1052C124.205 18.3324 124.284 17.5312 124.585 16.8032C124.887 16.0752 125.398 15.453 126.053 15.0152C126.708 14.5775 127.478 14.3437 128.266 14.3438C128.79 14.3437 129.308 14.4468 129.791 14.6471C130.274 14.8473 130.714 15.1407 131.084 15.5107C131.454 15.8806 131.747 16.3199 131.947 16.8032C132.147 17.2866 132.251 17.8047 132.251 18.3279Z" fill="#191919"/>
<path d="M143.697 25.7655V34.0272C143.719 34.8701 143.575 35.709 143.273 36.4962C142.971 37.2834 142.517 38.0035 141.937 38.6152C141.357 39.2269 140.662 39.7183 139.891 40.0614C139.121 40.4045 138.291 40.5925 137.448 40.6147C136.605 40.6369 135.766 40.4929 134.979 40.1909C134.192 39.8889 133.472 39.4348 132.86 38.8546C132.249 38.2743 131.757 37.5793 131.414 36.8091C131.071 36.039 130.883 35.2087 130.861 34.3659V25.7655H125.687V34.0272C125.687 37.1012 126.908 40.0493 129.081 42.2229C131.255 44.3965 134.203 45.6176 137.277 45.6176C140.351 45.6176 143.299 44.3965 145.473 42.2229C147.646 40.0493 148.867 37.1012 148.867 34.0272V25.7655H143.697Z" fill="#191919"/>
<path d="M194.383 24.6206C194.339 22.9184 193.62 21.3037 192.384 20.1316C191.149 18.9596 189.499 18.3263 187.797 18.3709C186.095 18.4156 184.48 19.1346 183.308 20.3698C182.136 21.605 181.502 23.2552 181.547 24.9574V34.3655C181.592 36.0677 182.312 37.6822 183.547 38.8539C184.783 40.0256 186.433 40.6586 188.135 40.6134C189.838 40.5683 191.452 39.8487 192.624 38.6132C193.796 37.3776 194.428 35.7272 194.383 34.025V24.6206ZM176.373 24.9574C176.373 21.8835 177.594 18.9355 179.768 16.7619C181.941 14.5883 184.889 13.3672 187.963 13.3672C191.037 13.3672 193.985 14.5883 196.159 16.7619C198.333 18.9355 199.554 21.8835 199.554 24.9574V34.025C199.554 37.099 198.333 40.0471 196.159 42.2207C193.985 44.3943 191.037 45.6154 187.963 45.6154C184.889 45.6154 181.941 44.3943 179.768 42.2207C177.594 40.0471 176.373 37.099 176.373 34.025V24.9574Z" fill="#191919"/>
<path d="M207.029 44.5863C206.572 44.5863 206.375 44.3835 206.375 43.9108V15.0835C206.375 14.6126 206.572 14.408 207.029 14.408H210.238C210.696 14.408 210.892 14.6126 210.892 15.0835V17.8579C210.892 18.3306 211.154 18.6711 211.482 18.6711C211.678 18.6711 211.81 18.5371 212.005 18.3306C212.615 17.2505 213.473 16.331 214.509 15.6485C215.545 14.9661 216.729 14.5403 217.962 14.4062H219.41C219.869 14.4062 220.001 14.676 220.001 15.1505V19.4135C220.001 19.8192 219.805 20.0909 219.476 20.0909C219.146 20.0909 218.492 19.8192 217.969 19.8192C217.11 19.7856 216.254 19.9313 215.455 20.2471C214.656 20.5628 213.931 21.0417 213.328 21.6531C212.724 22.2645 212.254 22.9949 211.949 23.798C211.643 24.601 211.508 25.4589 211.553 26.317V43.9089C211.553 44.3816 211.357 44.5844 210.897 44.5844L207.029 44.5863Z" fill="#191919"/>
<path d="M109.601 44.5833C109.145 44.5833 108.947 44.3804 108.947 43.9077V6.71742C108.947 6.24476 108.752 6.04184 108.292 6.04184H100.566C100.108 6.04184 99.9121 5.83908 99.9121 5.3646V2.05047C99.9121 1.5778 100.106 1.375 100.566 1.375H122.504C122.962 1.375 123.158 1.5778 123.158 2.05047V5.3646C123.158 5.83908 122.962 6.04184 122.504 6.04184H114.777C114.319 6.04184 114.123 6.24476 114.123 6.71742V43.9023C114.123 44.3749 113.927 44.5778 113.466 44.5778L109.601 44.5833Z" fill="#191919"/>
</svg>
