<svg width="109" height="129" viewBox="0 0 109 129" fill="none" xmlns="http://www.w3.org/2000/svg">
<path d="M108.236 16.739C108.23 20.0177 107.253 23.2211 105.427 25.9444C103.601 28.6677 101.009 30.7886 97.978 32.0392C94.9472 33.2898 91.6136 33.6139 88.3986 32.9706C85.1836 32.3274 82.2314 30.7456 79.9151 28.425C77.5988 26.1045 76.0223 23.1495 75.3848 19.9333C74.7474 16.7172 75.0775 13.3842 76.3336 10.3557C77.5897 7.32707 79.7153 4.7388 82.4419 2.91785C85.1684 1.0969 88.3736 0.125005 91.6523 0.125C96.0546 0.129242 100.275 1.88195 103.385 4.99762C106.495 8.11329 108.24 12.3367 108.236 16.739Z" fill="#172E55"/>
<path d="M33.1689 16.739C33.163 20.0177 32.1853 23.2211 30.3595 25.9444C28.5336 28.6677 25.9415 30.7886 22.9106 32.0392C19.8798 33.2898 16.5462 33.6139 13.3312 32.9706C10.1162 32.3274 7.16407 30.7456 4.84775 28.425C2.53144 26.1045 0.954919 23.1495 0.317449 19.9333C-0.32002 16.7172 0.0101604 13.3842 1.26624 10.3557C2.52232 7.32707 4.64795 4.7388 7.37452 2.91785C10.1011 1.0969 13.3062 0.125005 16.585 0.125C20.9866 0.131096 25.2059 1.88436 28.3155 4.99963C31.4251 8.1149 33.1708 12.3373 33.1689 16.739Z" fill="#172E55"/>
<path d="M80.8776 45.96V82.184C80.8776 97.403 71.0406 109.817 54.1186 109.817C38.5696 109.817 27.3736 97.979 27.3736 83.594V45.96H5.80664V82.184C5.80664 109.261 25.1826 128.999 54.1186 128.999C83.6086 128.999 102.431 108.969 102.431 82.184V45.96H80.8776Z" fill="#172E55"/>
</svg>
