<svg id="NE_B_G_bi" data-name="NE_B&amp;G_bi" xmlns="http://www.w3.org/2000/svg" width="251.865" height="26.535" viewBox="0 0 251.865 26.535">
  <g id="그룹_24" data-name="그룹 24" transform="translate(42.958 0.32)">
    <path id="패스_2658" data-name="패스 2658" d="M243.21,140.661h10.608a1.965,1.965,0,1,0,0-3.931H243.21Z" transform="translate(-243.21 -114.886)" fill="#fff"/>
    <path id="패스_2659" data-name="패스 2659" d="M275.134,132.7a3.894,3.894,0,0,1-3.863,3.938h-4.642c-.272,0-.389-.119-.389-.4v-7.864c0-.285.119-.4.389-.4h4.642a3.889,3.889,0,0,1,3.863,3.889Zm0-11.477a3.927,3.927,0,0,1-3.863,3.975h-4.642c-.272,0-.389-.119-.389-.4v-7.5c0-.276.119-.4.389-.4h4.642a3.925,3.925,0,0,1,3.862,3.938Zm3.045,11.115v-.6a6.218,6.218,0,0,0-2.7-4.811c-.311-.2-.311-.484.039-.685a6.253,6.253,0,0,0,2.656-4.612v-.4c0-4.336-2.7-7.1-6.909-7.1h-7.687c-.272,0-.389.119-.389.4v24.475c0,.285.119.4.389.4h7.687c4.223,0,6.909-2.729,6.909-7.065" transform="translate(-243.747 -113.687)" fill="#fff"/>
    <path id="패스_2660" data-name="패스 2660" d="M298,139.785v-17.5c0-.292-.119-.408-.389-.408h-2.258c-.272,0-.389.126-.389.408v11.045a3.847,3.847,0,1,1-7.687,0V122.289c0-.292-.119-.408-.389-.408h-2.3c-.272,0-.389.126-.389.408v11.045a6.52,6.52,0,0,0,6.909,6.86,4.469,4.469,0,0,0,3.551-1.848c.272-.37.7-.166.7.282v1.148c0,.282.119.408.389.408h1.869c.263.019.379-.107.379-.4" transform="translate(-244.315 -114.486)" fill="#fff"/>
    <path id="패스_2661" data-name="패스 2661" d="M307.325,138.963v-17.1c0-.276-.119-.4-.389-.4h-2.311c-.272,0-.389.119-.389.4v17.1c0,.285.119.4.389.4h2.307c.272.01.389-.119.389-.4m.389-23.314a1.928,1.928,0,1,0-1.946,2.007,1.983,1.983,0,0,0,1.946-2.007" transform="translate(-244.845 -113.656)" fill="#fff"/>
    <path id="패스_2662" data-name="패스 2662" d="M316.8,138.995V114.52c0-.276-.119-.4-.389-.4h-2.3c-.272,0-.389.119-.389.4v24.475c0,.276.119.4.389.4h2.3c.272.01.389-.119.389-.4" transform="translate(-245.108 -113.686)" fill="#fff"/>
    <path id="패스_2663" data-name="패스 2663" d="M333.114,132.7a3.826,3.826,0,1,1-7.649,0v-4.534a3.826,3.826,0,1,1,7.649,0Zm3.085,6.294V114.52c0-.276-.119-.4-.389-.4H333.5c-.272,0-.389.119-.389.4v8.424c0,.484-.389.647-.662.276A4.553,4.553,0,0,0,328.9,121.5a6.39,6.39,0,0,0-6.51,6.666V132.7a6.444,6.444,0,0,0,6.909,6.7,5.117,5.117,0,0,0,3.551-1.807c.311-.323.7-.161.7.276v1.122c0,.276.119.4.389.4h1.869c.272.01.389-.119.389-.4" transform="translate(-245.344 -113.686)" fill="#fff"/>
    <path id="패스_2664" data-name="패스 2664" d="M362.3,134.264a4.516,4.516,0,0,1-3.818,2.77h-1.206a3.884,3.884,0,0,1-3.818-3.929v-1.247a4.057,4.057,0,0,1,2.228-3.616.469.469,0,0,1,.389.038c.973.637,1.869,1.123,2.7,1.77a23.886,23.886,0,0,1,3.513,3.854.438.438,0,0,1,.029.358m-1.168-13.055A4.328,4.328,0,0,1,357.2,125.3c-.155,0-.272-.119-.428-.2-1.79-1.247-3.318-2.693-3.318-4.7a3.864,3.864,0,0,1,3.818-3.938,3.926,3.926,0,0,1,3.863,3.938Zm10.217,18.146v-2.408a.358.358,0,0,0-.272-.4,10.593,10.593,0,0,1-4.836-3.055.537.537,0,0,1-.155-.486l.239-.761c.7-2.246,1.752-3.938,3.863-3.938h.778c.272,0,.389-.119.389-.4v-2.332c0-.276-.119-.4-.389-.4h-.467a6.28,6.28,0,0,0-6.51,4.773c-.119.4-.389.438-.661.162a21.82,21.82,0,0,0-2.89-2.731.407.407,0,0,1,.078-.761,5.847,5.847,0,0,0,3.668-5.012v-.8c0-4.339-2.7-7.108-6.9-7.108-4.33,0-6.947,2.854-6.909,7.185a6.8,6.8,0,0,0,2.851,5.377.379.379,0,0,1-.078.685,6.218,6.218,0,0,0-2.773,4.773v1.046c0,4.339,2.7,7.032,6.909,7.032H358.5a6.427,6.427,0,0,0,5.888-2.969c.155-.239.311-.276.545-.076a12,12,0,0,0,2.579,1.932,9.187,9.187,0,0,0,3.435,1.085c.262.029.419-.134.419-.419" transform="translate(-246.093 -113.676)" fill="#fff"/>
    <path id="패스_2665" data-name="패스 2665" d="M398.226,133.095v-5.7c0-.285-.119-.4-.389-.4h-7.064c-.272,0-.389.119-.389.4v1.97c0,.285.119.4.389.4h3.979c.272,0,.389.119.389.4v2.931a3.913,3.913,0,0,1-3.818,3.938h-1.206a3.892,3.892,0,0,1-3.818-3.938V120.41a3.863,3.863,0,0,1,3.818-3.938h1.913a4.1,4.1,0,0,1,3.474,2.208c.119.2.272.285.467.162l2.073-1.046a.389.389,0,0,0,.195-.561,6.613,6.613,0,0,0-1.518-1.97,6.8,6.8,0,0,0-4.68-1.57H390.12a6.444,6.444,0,0,0-6.909,6.709v12.684c0,3.977,2.7,6.708,6.909,6.708h1.206a6.429,6.429,0,0,0,6.9-6.7" transform="translate(-246.982 -113.677)" fill="#fff"/>
    <path id="패스_2666" data-name="패스 2666" d="M412.576,124.926v-2.588c0-.282-.078-.447-.351-.447h-.857a4.654,4.654,0,0,0-3.551,2.387c-.272.37-.662.166-.662-.292V122.3c0-.282-.119-.408-.389-.408h-1.909c-.272,0-.389.126-.389.408v17.5c0,.292.119.408.389.408h2.3c.272,0,.389-.126.389-.408V129.121a3.715,3.715,0,0,1,3.818-3.938,1.832,1.832,0,0,1,.7.126c.311.107.506-.049.506-.379" transform="translate(-247.554 -114.486)" fill="#fff"/>
    <path id="패스_2667" data-name="패스 2667" d="M427.333,133.8a3.827,3.827,0,1,1-7.649.2v-5.712a3.826,3.826,0,1,1,7.65-.214Zm3.075,0v-5.5a6.909,6.909,0,1,0-13.818,0v5.5a6.909,6.909,0,1,0,13.818,0" transform="translate(-247.879 -114.49)" fill="#fff"/>
    <path id="패스_2668" data-name="패스 2668" d="M457.254,122.415c.078-.331-.039-.536-.389-.536H454.4a.347.347,0,0,0-.389.292L451.4,132.808c-.272,1.11-.428,2.3-.428,2.3h-.119a14.39,14.39,0,0,0-.428-2.258l-2.929-10.675a.358.358,0,0,0-.389-.292h-2.073a.347.347,0,0,0-.389.292l-3.045,11.045a15.774,15.774,0,0,0-.428,2.014h-.119a20.361,20.361,0,0,0-.389-2.014L438,122.171a.358.358,0,0,0-.389-.292h-2.506c-.351,0-.467.2-.389.536l5.07,17.5a.358.358,0,0,0,.389.292h1.752a.358.358,0,0,0,.389-.292l3.162-11.575a15.574,15.574,0,0,0,.428-2.054h.119a12.194,12.194,0,0,0,.389,2.054l3.2,11.575a.358.358,0,0,0,.389.292h1.758a.358.358,0,0,0,.389-.292Z" transform="translate(-248.369 -114.487)" fill="#fff"/>
  </g>
  <g id="그룹_25" data-name="그룹 25" transform="translate(0 0)">
    <path id="패스_2669" data-name="패스 2669" d="M214.882,137.468v-22.16a1.956,1.956,0,0,0-3.912,0v22.16a1.933,1.933,0,0,0,.239.913c.01.019.019.029.029.048a.074.074,0,0,0,.019.029c.01.01.01.01.01.019a1.986,1.986,0,0,0,3.415-.119.01.01,0,0,1,.01-.01c0-.01.01-.019.01-.029s.01-.01.01-.019.01-.01.01-.019.01-.019.01-.029v-.01c.01-.01.01-.029.019-.038h0a1.183,1.183,0,0,0,.058-.172h0c0-.01.01-.029.01-.038v-.01c0-.01.01-.029.01-.038v-.019l.019-.057v-.019a2.407,2.407,0,0,0,.039-.381" transform="translate(-198.799 -113.352)" fill="#fff"/>
    <path id="패스_2670" data-name="패스 2670" d="M224.652,127a1.956,1.956,0,1,0-3.912,0v13.282h3.921V127Z" transform="translate(-199.063 -114.251)" fill="#fff"/>
    <path id="패스_2671" data-name="패스 2671" d="M214.546,137.462v-.048a1.95,1.95,0,0,0-.239-.857l-3.688-6.726L202.152,114.4a1.959,1.959,0,0,0-1.733-1.008,2.011,2.011,0,0,0-.925.228,1.895,1.895,0,0,0-.8,2.6l12.144,22.16h0c.01.019.019.029.029.048a.073.073,0,0,0,.019.029c.01.01.01.01.01.019a1.3,1.3,0,0,0,.146.2,1.833,1.833,0,0,0,.136.143.132.132,0,0,1,.029.038,1.111,1.111,0,0,0,.166.134c.01.01.019.01.029.019a1.193,1.193,0,0,0,.185.119c.01.01.019.01.029.019a1.969,1.969,0,0,0,.2.1c.01,0,.01.01.019.01a1.979,1.979,0,0,0,.749.143,2.076,2.076,0,0,0,.536-.076c.019,0,.029-.01.049-.01a1.565,1.565,0,0,0,.194-.067.476.476,0,0,1,.068-.029c.029-.01.058-.029.087-.038s.039-.029.058-.038c.039-.029.078-.048.119-.076l.119-.086c.039-.029.068-.057.107-.086a.455.455,0,0,0,.1-.1c.029-.038.068-.076.1-.119a.667.667,0,0,0,.078-.1l.146-.228a.01.01,0,0,1,.01-.01c0-.01.01-.019.01-.029s.01-.01.01-.019.01-.01.01-.019.01-.019.01-.029v-.01c.01-.01.01-.029.019-.038h0a1.194,1.194,0,0,0,.059-.172h0c0-.01.01-.029.01-.038v-.01c0-.01.01-.029.01-.038v-.019l.019-.057v-.019c.01-.119.03-.247.03-.381" transform="translate(-198.463 -113.347)" fill="#fff"/>
    <path id="패스_2672" data-name="패스 2672" d="M202.392,126.6l-3.912-7.308v20.833h3.912Z" transform="translate(-198.463 -114.096)" fill="#fff"/>
    <path id="패스_2673" data-name="패스 2673" d="M232.588,125.03H226.36v3.921h6.228a1.961,1.961,0,1,0,0-3.921" transform="translate(-199.214 -113.955)" fill="#fff"/>
    <path id="패스_2674" data-name="패스 2674" d="M233.808,136.68H226.35V140.6h7.458a1.961,1.961,0,1,0,0-3.921" transform="translate(-199.213 -114.564)" fill="#fff"/>
    <path id="패스_2675" data-name="패스 2675" d="M210.96,130.67v7.8a2.013,2.013,0,0,0,.239.934c.01.019.019.029.029.049a.065.065,0,0,0,.019.029.033.033,0,0,0,.01.019,1.325,1.325,0,0,0,.146.2l.058.058.087.087.029.029c.019.019.039.029.058.049a1.036,1.036,0,0,0,.119.1l.01.01c.058.039.119.078.185.119.01.01.019.01.029.019l.126.058c.039.019.049.029.078.039h.01a2.047,2.047,0,0,0,.224.078c.01,0,.019.01.029.01a2.017,2.017,0,0,0,.487.058,1.977,1.977,0,0,0,.536-.078c.01,0,.029-.01.039-.01a1.753,1.753,0,0,0,.2-.078l.058-.029a1.172,1.172,0,0,0,.155-.078.81.81,0,0,0,.119-.078l.119-.087c.039-.029.068-.058.107-.087l.019-.019a.589.589,0,0,0,.078-.078c.029-.039.068-.078.1-.119a.682.682,0,0,0,.078-.1l.146-.239a.01.01,0,0,1,.01-.01c0-.01.01-.019.01-.029s.01-.01.01-.019.01-.01.01-.019.01-.019.01-.029v-.01c.01-.01.01-.019.019-.039h0a1.231,1.231,0,0,0,.058-.175h0c0-.019.01-.029.01-.049v-.01c0-.01.01-.029.01-.039V138.9l.019-.058v-.021a1.763,1.763,0,0,0,.039-.389v-.049a2.029,2.029,0,0,0-.239-.876Z" transform="translate(-198.799 -114.402)" fill="#fff"/>
    <path id="패스_2677" data-name="패스 2677" d="M220.73,126.682v-6.821a6.475,6.475,0,0,1,6.471-6.471h6.462a1.956,1.956,0,1,1,0,3.912H227.2a2.545,2.545,0,0,0-2.55,2.55v6.821a1.961,1.961,0,1,1-3.921.01" transform="translate(-199.062 -113.347)" fill="#fff"/>
  </g>
</svg>
