<svg width="56" height="56" viewBox="0 0 56 56" fill="none" xmlns="http://www.w3.org/2000/svg">
<rect x="8.2883" y="14.0825" width="41.4" height="33.9172" rx="3.2" fill="white" stroke="#323232" stroke-width="2"/>
<rect x="5.29553" y="11.0898" width="41.4" height="33.9172" rx="3.2" fill="white" stroke="#323232" stroke-width="2"/>
<path d="M18.117 39.2308C19.9652 39.2308 21.4634 37.7326 21.4634 35.8844C21.4634 34.0362 19.9652 32.5379 18.117 32.5379C16.2688 32.5379 14.7705 34.0362 14.7705 35.8844C14.7705 37.7326 16.2688 39.2308 18.117 39.2308Z" fill="#FFD139" stroke="#323232" stroke-width="2" stroke-linecap="round" stroke-linejoin="round"/>
<path d="M30.0894 36.2384C31.9376 36.2384 33.4359 34.7401 33.4359 32.8919C33.4359 31.0437 31.9376 29.5455 30.0894 29.5455C28.2412 29.5455 26.743 31.0437 26.743 32.8919C26.743 34.7401 28.2412 36.2384 30.0894 36.2384Z" fill="#FFD139" stroke="#323232" stroke-width="2" stroke-linecap="round" stroke-linejoin="round"/>
<path d="M21.5039 34.7832V23.5591L33.4763 19.0694V31.7901" stroke="#323232" stroke-width="2" stroke-linejoin="round"/>
<rect x="13.5022" y="5.59991" width="5.2606" height="9.20606" rx="2.6303" fill="#FFD139" stroke="#323232" stroke-width="2"/>
<rect x="34.5446" y="5.59991" width="5.2606" height="9.20606" rx="2.6303" fill="#FFD139" stroke="#323232" stroke-width="2"/>
</svg>
