<svg width="56" height="56" viewBox="0 0 56 56" fill="none" xmlns="http://www.w3.org/2000/svg">
<path d="M39.4396 28.2773H16.5586C13.7972 28.2773 11.5586 30.5159 11.5586 33.2773V42.0003C11.5586 44.7618 13.7972 47.0003 16.5586 47.0003H39.4396C42.201 47.0003 44.4396 44.7618 44.4396 42.0003V33.2773C44.4396 30.5159 42.201 28.2773 39.4396 28.2773Z" fill="white" stroke="#323232" stroke-width="2" stroke-miterlimit="10" stroke-linecap="round" stroke-linejoin="round"/>
<path d="M12.8 31.411C11.8242 31.4415 10.8762 31.0837 10.1638 30.4161C9.45142 29.7485 9.03289 28.8257 9 27.85V22H16.6V27.85C16.5674 28.8258 16.149 29.7488 15.4365 30.4164C14.7241 31.084 13.7759 31.4417 12.8 31.411Z" fill="white" stroke="#323232" stroke-width="2" stroke-miterlimit="10" stroke-linecap="round" stroke-linejoin="round"/>
<path d="M20.4016 31.411C19.4258 31.4415 18.4777 31.0837 17.7654 30.4161C17.053 29.7485 16.6345 28.8257 16.6016 27.85V22H24.2016V27.85C24.1689 28.8258 23.7505 29.7488 23.0381 30.4164C22.3256 31.084 21.3774 31.4417 20.4016 31.411Z" fill="#9EE56F" stroke="#323232" stroke-width="2" stroke-miterlimit="10" stroke-linecap="round" stroke-linejoin="round"/>
<path d="M27.9992 31.411C27.0234 31.4415 26.0754 31.0837 25.363 30.4161C24.6506 29.7485 24.2321 28.8257 24.1992 27.85V22H31.7992V27.85C31.7666 28.8258 31.3481 29.7488 30.6357 30.4164C29.9233 31.084 28.9751 31.4417 27.9992 31.411Z" fill="white" stroke="#323232" stroke-width="2" stroke-miterlimit="10" stroke-linecap="round" stroke-linejoin="round"/>
<path d="M35.6008 31.411C34.625 31.4415 33.6769 31.0837 32.9646 30.4161C32.2522 29.7485 31.8337 28.8257 31.8008 27.85V22H39.4008V27.85C39.3682 28.8258 38.9497 29.7488 38.2373 30.4164C37.5248 31.084 36.5766 31.4417 35.6008 31.411Z" fill="#9EE56F" stroke="#323232" stroke-width="2" stroke-miterlimit="10" stroke-linecap="round" stroke-linejoin="round"/>
<path d="M43.2004 31.411C42.2246 31.4415 41.2765 31.0837 40.5642 30.4161C39.8518 29.7485 39.4333 28.8257 39.4004 27.85V22H47.0004V27.85C46.9678 28.8258 46.5493 29.7488 45.8369 30.4164C45.1245 31.084 44.1762 31.4417 43.2004 31.411Z" fill="white" stroke="#323232" stroke-width="2" stroke-miterlimit="10" stroke-linecap="round" stroke-linejoin="round"/>
<path d="M38.356 36.5H30.627V46.818H38.356V36.5Z" fill="white" stroke="#323232" stroke-width="2" stroke-miterlimit="10" stroke-linecap="round" stroke-linejoin="round"/>
<path d="M37.5 9H18.5C15.4624 9 13 11.4624 13 14.5C13 17.5376 15.4624 20 18.5 20H37.5C40.5376 20 43 17.5376 43 14.5C43 11.4624 40.5376 9 37.5 9Z" fill="white"/>
<path d="M37.5 10H18.5C16.0147 10 14 12.0147 14 14.5C14 16.9853 16.0147 19 18.5 19H37.5C39.9853 19 42 16.9853 42 14.5C42 12.0147 39.9853 10 37.5 10Z" stroke="#323232" stroke-width="2"/>
<path d="M25.091 14.1194C25.2982 14.1989 25.4771 14.3381 25.605 14.5194C25.7369 14.7118 25.8041 14.9412 25.797 15.1744C25.8054 15.3422 25.7712 15.5095 25.6978 15.6607C25.6244 15.8119 25.5141 15.9421 25.377 16.0394C25.0101 16.2642 24.5823 16.369 24.153 16.3394H21.998V12.0794H24.038C24.4459 12.0523 24.8517 12.1575 25.195 12.3794C25.3233 12.4717 25.4269 12.5941 25.4966 12.7359C25.5664 12.8777 25.6002 13.0345 25.595 13.1924C25.5977 13.381 25.5505 13.5669 25.458 13.7314C25.37 13.8893 25.2438 14.0226 25.091 14.1194ZM23.057 13.7844H23.897C24.319 13.7844 24.53 13.6384 24.53 13.3464C24.53 13.0544 24.319 12.9104 23.897 12.9144H23.057V13.7844ZM24.057 15.5074C24.4997 15.5074 24.721 15.355 24.721 15.0504C24.721 14.7457 24.4997 14.5934 24.057 14.5934H23.057V15.5064L24.057 15.5074ZM29.157 15.9764C28.7418 16.2685 28.2457 16.4237 27.738 16.4204C27.445 16.4246 27.1538 16.373 26.88 16.2684C26.6463 16.1827 26.4393 16.0368 26.28 15.8454C26.1363 15.6727 26.0581 15.455 26.059 15.2304C26.0537 14.9799 26.1295 14.7343 26.275 14.5304C26.4621 14.2959 26.6979 14.1048 26.966 13.9704C26.8367 13.8436 26.7286 13.6967 26.646 13.5354C26.5804 13.3998 26.5462 13.2511 26.546 13.1004C26.5423 12.898 26.6033 12.6997 26.72 12.5344C26.845 12.3645 27.0146 12.2326 27.21 12.1534C27.4409 12.0591 27.6887 12.0132 27.938 12.0184C28.2695 12.002 28.5967 12.0986 28.866 12.2924C28.9791 12.3782 29.0699 12.49 29.1308 12.6183C29.1917 12.7465 29.2209 12.8875 29.216 13.0294C29.2178 13.2424 29.1473 13.4496 29.016 13.6174C28.8484 13.8184 28.6397 13.9814 28.404 14.0954L29.092 14.7044C29.178 14.5025 29.2434 14.2924 29.287 14.0774L30.145 14.3514C30.0746 14.6947 29.9388 15.0213 29.745 15.3134L30.22 15.7334L29.636 16.4154L29.157 15.9764ZM27.938 12.7434C27.83 12.7378 27.7236 12.7712 27.638 12.8374C27.6022 12.8676 27.5738 12.9055 27.5547 12.9483C27.5356 12.991 27.5265 13.0376 27.528 13.0844C27.5283 13.1583 27.5484 13.2308 27.586 13.2944C27.6517 13.3929 27.7304 13.4821 27.82 13.5594C27.9597 13.4933 28.0882 13.4059 28.201 13.3004C28.2697 13.2361 28.3103 13.1474 28.314 13.0534C28.3153 13.0108 28.3069 12.9685 28.2896 12.9295C28.2723 12.8906 28.2465 12.856 28.214 12.8284C28.1358 12.7667 28.0374 12.7364 27.938 12.7434ZM27.804 15.5864C28.0566 15.5873 28.3047 15.5199 28.522 15.3914L27.554 14.5204C27.4228 14.5874 27.3068 14.6807 27.213 14.7944C27.1452 14.8882 27.1101 15.0017 27.113 15.1174C27.1134 15.1851 27.1309 15.2517 27.1639 15.3108C27.197 15.3699 27.2445 15.4197 27.302 15.4554C27.4528 15.5494 27.6286 15.5951 27.806 15.5864H27.804ZM34.338 14.1254V15.8784C34.1046 16.0575 33.8407 16.193 33.559 16.2784C33.2697 16.3706 32.9678 16.4179 32.664 16.4184C32.2658 16.4248 31.8727 16.328 31.523 16.1374C31.1884 15.9541 30.9113 15.6813 30.723 15.3494C30.529 15.0016 30.4306 14.6086 30.438 14.2104C30.4311 13.8108 30.5308 13.4166 30.727 13.0684C30.9156 12.7374 31.1926 12.4656 31.527 12.2834C31.8837 12.0911 32.2839 11.9936 32.689 12.0004C33.0324 11.9943 33.3731 12.0608 33.689 12.1954C33.9781 12.3211 34.2321 12.5153 34.429 12.7614L33.738 13.4254C33.6176 13.2759 33.4654 13.1552 33.2924 13.072C33.1194 12.9887 32.93 12.9452 32.738 12.9444C32.5139 12.9395 32.2924 12.994 32.096 13.1024C31.9133 13.206 31.7643 13.3602 31.667 13.5464C31.5622 13.7517 31.5099 13.9799 31.515 14.2104C31.5111 14.4379 31.5633 14.6629 31.667 14.8654C31.7631 15.0523 31.911 15.2075 32.093 15.3124C32.2862 15.4205 32.5047 15.475 32.726 15.4704C32.9482 15.473 33.1683 15.4273 33.371 15.3364V14.1254H34.338Z" fill="#323232"/>
<path d="M18 19H16V22H18V19Z" fill="#33302B"/>
<path d="M40 19H38V22H40V19Z" fill="#33302B"/>
</svg>
