<svg width="37" height="43" viewBox="0 0 37 43" fill="none" xmlns="http://www.w3.org/2000/svg">
<path d="M4 39.2234V33.6408V4.62566C4 2.62906 5.60869 1 7.59126 1H24.5207C24.7875 1 25.0432 1.1066 25.231 1.29611L35.22 11.376C35.4055 11.5633 35.5097 11.8163 35.5097 12.0799V39.2234C35.5097 40.609 34.3929 41.7365 33.0204 41.7365H6.48929C5.11674 41.7365 4 40.609 4 39.2234Z" fill="white"/>
<path d="M24.6582 1.83789V7.97667C24.6582 9.97823 26.2718 11.6023 28.2495 11.6023H34.33" stroke="#323232" stroke-width="2"/>
<path d="M3.6582 33.6408V39.2234C3.6582 40.609 4.77494 41.7365 6.14749 41.7365H32.6786C34.0511 41.7365 35.1679 40.609 35.1679 39.2234V12.0799C35.1679 11.8163 35.0637 11.5633 34.8782 11.376L24.8892 1.29611C24.7014 1.1066 24.4457 1 24.1789 1H7.24947C5.26689 1 3.6582 2.62906 3.6582 4.62566V20.2507" stroke="#323232" stroke-width="2" stroke-linecap="round"/>
<path d="M1.00468 20.4334C1.00468 19.0917 2.06775 18 3.37434 18H28.6303C29.9369 18 31 19.0917 31 20.4334V31.2396C31 32.5813 29.9369 33.673 28.6303 33.673H2.31595C1.84296 33.673 1.39338 34.2346 1 34.4462V20.4382L1.00468 20.4334Z" fill="#FFD139" stroke="#323232" stroke-width="2"/>
<path d="M2.20887 38.2979C0.988827 38.2979 0 37.2996 0 36.0679C0 34.8362 0.988827 33.8379 2.20887 33.8379H4.41775V38.3029H2.20887V38.2979Z" fill="#323232"/>
<path d="M7 23.1233C7 22.7905 7.26074 22.428 7.6789 22.428H9.97632C11.2702 22.428 12.4361 23.3021 12.4361 24.9808C12.4361 26.5702 11.2702 27.4542 9.97632 27.4542H8.31352V28.7803C8.31352 29.2224 8.0331 29.4757 7.6789 29.4757C7.34929 29.4757 7 29.2273 7 28.7803V23.1233ZM8.31844 23.6994V26.2026H9.98124C10.6503 26.2026 11.1767 25.6116 11.1767 24.9858C11.1767 24.2805 10.6454 23.6994 9.98124 23.6994H8.31844Z" fill="#323232"/>
<path d="M14.177 29.4752C13.8474 29.4752 13.4883 29.2964 13.4883 28.8544V23.1477C13.4883 22.7851 13.8474 22.5269 14.177 22.5269H16.4548C21.0053 22.5269 20.9069 29.4802 16.5433 29.4802H14.177V29.4752ZM14.8018 23.7487V28.2484H16.4548C19.1408 28.2484 19.2638 23.7487 16.4548 23.7487H14.8018Z" fill="#323232"/>
<path d="M22.2949 23.8281V25.4274H24.8334C25.1925 25.4274 25.5517 25.7899 25.5517 26.1426C25.5517 26.4753 25.1925 26.7435 24.8334 26.7435H22.2949V28.8544C22.2949 29.207 22.0489 29.4752 21.6947 29.4752C21.2569 29.4752 20.9863 29.202 20.9863 28.8544V23.1477C20.9863 22.7851 21.252 22.5269 21.6947 22.5269H25.1876C25.6255 22.5269 25.8862 22.7851 25.8862 23.1477C25.8862 23.4705 25.6255 23.8331 25.1876 23.8331H22.29L22.2949 23.8281Z" fill="#323232"/>
</svg>
