<svg width="16" height="16" viewBox="0 0 16 16" fill="none" xmlns="http://www.w3.org/2000/svg">
<path fill-rule="evenodd" clip-rule="evenodd" d="M7.99964 5.39964C6.5637 5.39964 5.39964 6.5637 5.39964 7.99964C5.39964 9.43558 6.5637 10.5996 7.99964 10.5996C9.43558 10.5996 10.5996 9.43558 10.5996 7.99964C10.5996 6.5637 9.43558 5.39964 7.99964 5.39964ZM6.59964 7.99964C6.59964 7.22644 7.22644 6.59964 7.99964 6.59964C8.77284 6.59964 9.39964 7.22644 9.39964 7.99964C9.39964 8.77284 8.77284 9.39964 7.99964 9.39964C7.22644 9.39964 6.59964 8.77284 6.59964 7.99964Z" fill="#969696"/>
<path fill-rule="evenodd" clip-rule="evenodd" d="M7.9997 12.9327C11.0372 12.9327 13.6394 11.069 14.7252 8.42277C14.8365 8.15167 14.8365 7.84739 14.7252 7.57628C13.6394 4.93006 11.0372 3.06641 7.9997 3.06641C4.96223 3.06641 2.36004 4.93006 1.2742 7.57628C1.16295 7.84739 1.16295 8.15167 1.2742 8.42277C2.36004 11.069 4.96223 12.9327 7.9997 12.9327ZM2.39807 7.99953C3.31238 5.80729 5.47609 4.26641 7.9997 4.26641C10.5233 4.26641 12.687 5.80729 13.6013 7.99953C12.687 10.1918 10.5233 11.7327 7.9997 11.7327C5.47609 11.7327 3.31238 10.1918 2.39807 7.99953Z" fill="#969696"/>
</svg>
