<svg width="20" height="20" viewBox="0 0 20 20" fill="none" xmlns="http://www.w3.org/2000/svg">
<circle cx="10" cy="10" r="10" fill="#FFCC24"/>
<path d="M6.25696 15.5C5.50119 15.5 5 15.0047 5 14.295L5 5.91196C5 5.04704 5.54893 4.5 6.41607 4.5C7.02864 4.5 7.38663 4.73656 8.00716 5.52016L12.4781 11.3898V5.70497C12.4781 4.9953 12.9873 4.5 13.7351 4.5C14.4909 4.5 15 4.9953 15 5.70497L15 14.0806C15 14.9382 14.4431 15.5 13.6158 15.5C13.035 15.5 12.6213 15.2487 12.0644 14.5538L7.52188 8.75806L7.52188 14.295C7.52188 15.0047 7.01273 15.5 6.25696 15.5Z" fill="#172E55"/>
</svg>
