<svg width="28" height="28" viewBox="0 0 28 28" fill="none" xmlns="http://www.w3.org/2000/svg">
<circle cx="14" cy="14" r="14" fill="#FFCC24"/>
<path d="M15.3291 6.72104L21.0108 20.4444C21.0871 20.6403 21.1255 20.828 21.1255 21.0088C21.1255 21.385 20.9915 21.6861 20.7246 21.9116C20.4574 22.137 20.1097 22.25 19.6821 22.25C19.1014 22.25 18.6815 21.9567 18.4221 21.3696L17.2538 18.6385H10.7014L9.53306 21.5049C9.2885 22.0013 8.88351 22.2496 8.31892 22.2496C7.93703 22.2496 7.60092 22.1253 7.31099 21.877C7.02066 21.6288 6.87549 21.3167 6.87549 20.9405C6.87549 20.7451 6.90601 20.5647 6.96704 20.3989L12.7408 6.65319C12.8629 6.35253 13.0192 6.12663 13.2105 5.9759C13.4015 5.82557 13.7029 5.75 14.1153 5.75C14.6651 5.75 15.0697 6.07382 15.3295 6.72064L15.3291 6.72104ZM11.8236 15.9301H16.1081L13.9772 10.8291L11.8236 15.9301Z" fill="white"/>
</svg>
