<svg width="28" height="28" viewBox="0 0 28 28" fill="none" xmlns="http://www.w3.org/2000/svg">
<path d="M14.0004 3.03271C14.5803 3.03271 15.0504 3.50282 15.0504 4.08271V14.965L18.5079 11.5075C18.918 11.0974 19.5828 11.0974 19.9928 11.5075C20.4029 11.9175 20.4029 12.5824 19.9928 12.9924L14.7429 18.2424C14.3328 18.6525 13.668 18.6525 13.2579 18.2424L8.00795 12.9924C7.5979 12.5824 7.5979 11.9175 8.00795 11.5075C8.418 11.0974 9.08282 11.0974 9.49287 11.5075L12.9504 14.965V4.08271C12.9504 3.50282 13.4205 3.03271 14.0004 3.03271Z" fill="#323232"/>
<path d="M24.6756 17.3828C24.6756 16.8029 24.2055 16.3328 23.6256 16.3328C23.0458 16.3328 22.5757 16.8029 22.5757 17.3828V20.3579C22.5757 21.3083 22.5627 21.5344 22.5128 21.6878C22.3859 22.0785 22.0796 22.3848 21.6889 22.5118C21.5355 22.5616 21.3093 22.5746 20.359 22.5746H7.64237C6.69205 22.5746 6.46591 22.5616 6.31247 22.5118C5.92177 22.3848 5.61546 22.0785 5.48852 21.6878C5.43866 21.5344 5.42571 21.3083 5.42571 20.3579V17.3828C5.42571 16.8029 4.9556 16.3328 4.3757 16.3328C3.79579 16.3328 3.32568 16.8029 3.32568 17.3828V19.9326C3.32567 20.5507 3.32566 21.0772 3.36097 21.5093C3.39806 21.9633 3.4793 22.405 3.69445 22.8273C4.01882 23.4639 4.5364 23.9815 5.17302 24.3058C5.59527 24.521 6.03696 24.6022 6.49098 24.6393C6.92313 24.6746 7.44948 24.6746 8.06762 24.6746H19.9336C20.5518 24.6746 21.0782 24.6746 21.5103 24.6393C21.9644 24.6022 22.406 24.521 22.8283 24.3058C23.4649 23.9815 23.9825 23.4639 24.3069 22.8273C24.522 22.405 24.6033 21.9633 24.6403 21.5093C24.6757 21.0772 24.6756 20.5508 24.6756 19.9327V17.3828Z" fill="#323232"/>
</svg>
