<svg width="28" height="28" viewBox="0 0 28 28" fill="none" xmlns="http://www.w3.org/2000/svg">
<path d="M21 0H7C3.13401 0 0 3.13401 0 7V21C0 24.866 3.13401 28 7 28H21C24.866 28 28 24.866 28 21V7C28 3.13401 24.866 0 21 0Z" fill="#ED1F24"/>
<path d="M22.1081 16.5965C22.1081 16.5965 22.8606 14.9121 17.4312 15.6804C17.4312 15.6804 15.305 15.0101 13.8988 11.4121C14.062 10.4326 14.1657 9.44406 14.2095 8.45199C14.2095 8.45199 13.7518 10.1854 13.6372 10.496C13.6372 10.496 12.7211 7.12723 13.5068 6.37473C13.5068 6.37473 14.0415 6.48936 14.2812 8.15711C14.2812 8.15711 14.6312 6.23211 13.4578 6.16211C13.2165 6.17253 12.9868 6.26893 12.8103 6.43389C12.6337 6.59885 12.522 6.82149 12.4953 7.06161C12.4429 8.65325 12.6698 10.2418 13.1656 11.7551C13.1656 11.7551 9.22808 21.0301 6.9837 21.339C6.9837 21.339 6.77108 20.4561 9.6332 18.035C9.6332 18.035 5.25033 20.485 6.72208 21.4204C6.72208 21.4204 7.44133 22.1072 8.57008 21.1264C9.59751 20.1542 10.4204 18.9865 10.9903 17.692C12.9616 17.0533 14.9804 16.572 17.0278 16.2526C17.0278 16.2526 21.4273 18.7385 22.1142 17.0051V16.8091C22.1142 16.8091 21.7546 17.9212 18.238 16.1091C18.2327 16.1056 21.5691 15.7127 22.1081 16.5965ZM11.1837 17.2667C12.1035 15.7816 12.8863 14.2159 13.5226 12.589C14.1777 13.889 15.1441 15.0069 16.3357 15.8431C14.5874 16.1975 12.8659 16.6732 11.1837 17.2667Z" fill="white"/>
</svg>
