<svg width="28" height="28" viewBox="0 0 28 28" fill="none" xmlns="http://www.w3.org/2000/svg">
<path d="M22.75 0H5.25C2.35051 0 0 2.35051 0 5.25V22.75C0 25.6495 2.35051 28 5.25 28H22.75C25.6495 28 28 25.6495 28 22.75V5.25C28 2.35051 25.6495 0 22.75 0Z" fill="#D14527"/>
<path d="M7.94629 6.4345H15.4477C16.7776 6.33078 18.0956 6.74879 19.1226 7.6C19.5456 8.03759 19.8727 8.55863 20.0829 9.12981C20.293 9.70098 20.3817 10.3097 20.3433 10.9171C20.3793 11.5547 20.2795 12.1927 20.0502 12.7887C19.8209 13.3848 19.4673 13.9252 19.0132 14.3743C17.8678 15.291 16.4158 15.7363 14.9533 15.6194H12.4832V21.0391H7.95056L7.94629 6.4345ZM12.4787 12.661H13.5849C14.2297 12.723 14.8764 12.5632 15.418 12.2078C15.5874 12.0666 15.7227 11.8888 15.8136 11.6879C15.9045 11.4869 15.9486 11.268 15.9428 11.0475C15.9474 10.8325 15.9094 10.6188 15.8307 10.4187C15.752 10.2187 15.6342 10.0362 15.4844 9.882C14.994 9.50434 14.3756 9.33293 13.7607 9.40424H12.4753V12.6619L12.4787 12.661Z" fill="white"/>
</svg>
