<svg width="28" height="28" viewBox="0 0 28 28" fill="none" xmlns="http://www.w3.org/2000/svg">
<circle cx="14" cy="14" r="14" fill="#172E55"/>
<path d="M20.1324 18.2943L21.0647 19.3217C21.3269 19.5683 21.4584 19.8629 21.4584 20.2053C21.4584 20.5476 21.3409 20.8288 21.1061 21.0889C20.871 21.3489 20.581 21.4793 20.2358 21.4793C19.8906 21.4793 19.5657 21.3355 19.2621 21.0478L18.3505 20.1027C17.0659 21.0344 15.6225 21.5 14.0203 21.5C13.0809 21.5 12.1453 21.3079 11.213 20.9248C10.2807 20.5414 9.45526 20.0001 8.73711 19.3016C8.04633 18.6306 7.50078 17.8222 7.10044 16.8769C6.69968 15.9313 6.49951 14.9588 6.49951 13.9588C6.49951 12.904 6.68912 11.9007 7.0692 10.9485C7.44885 9.99657 7.99807 9.19182 8.71643 8.5343C10.1667 7.17803 11.9346 6.5 14.0203 6.5C14.9733 6.5 15.9125 6.67822 16.8379 7.03422C17.7631 7.39065 18.5711 7.89046 19.2619 8.5343C20.7536 9.93161 21.4995 11.7398 21.4995 13.959C21.4995 15.4383 21.044 16.8835 20.1324 18.2943ZM15.3463 16.4863C15.3463 16.1576 15.4706 15.8734 15.7192 15.6334C15.9679 15.3939 16.2579 15.2603 16.5895 15.2328C16.9901 15.2328 17.3283 15.3836 17.6048 15.6849L18.3091 16.4247C18.751 15.6715 18.9721 14.8426 18.9721 13.9385C18.9721 12.5824 18.4921 11.4214 17.5322 10.4556C16.5721 9.48991 15.4014 9.00698 14.0203 9.00698C12.7219 9.00698 11.5651 9.4694 10.55 10.394C9.53476 11.3187 9.02713 12.5072 9.02713 13.959C9.02713 15.3016 9.52076 16.476 10.5084 17.4829C11.4959 18.4898 12.6663 18.9932 14.0203 18.9932C14.9041 18.9932 15.7606 18.74 16.5895 18.2329L15.7401 17.4111C15.4775 17.151 15.3463 16.8427 15.3463 16.4863Z" fill="white"/>
</svg>
