<svg width="28" height="28" viewBox="0 0 28 28" fill="none" xmlns="http://www.w3.org/2000/svg">
<path d="M23 23L18.66 18.66M21 13C21 14.5823 20.5308 16.129 19.6518 17.4446C18.7727 18.7602 17.5233 19.7855 16.0615 20.391C14.5997 20.9965 12.9911 21.155 11.4393 20.8463C9.88743 20.5376 8.46197 19.7757 7.34315 18.6569C6.22433 17.538 5.4624 16.1126 5.15372 14.5607C4.84504 13.0089 5.00347 11.4003 5.60897 9.93853C6.21447 8.47672 7.23985 7.22729 8.55544 6.34824C9.87103 5.46919 11.4178 5 13 5C15.1217 5 17.1566 5.84285 18.6569 7.34315C20.1571 8.84344 21 10.8783 21 13Z" stroke="black" stroke-width="2" stroke-linecap="round" stroke-linejoin="round"/>
<path d="M23 23L18.66 18.66M21 13C21 14.5823 20.5308 16.129 19.6518 17.4446C18.7727 18.7602 17.5233 19.7855 16.0615 20.391C14.5997 20.9965 12.9911 21.155 11.4393 20.8463C9.88743 20.5376 8.46197 19.7757 7.34315 18.6569C6.22433 17.538 5.4624 16.1126 5.15372 14.5607C4.84504 13.0089 5.00347 11.4003 5.60897 9.93853C6.21447 8.47672 7.23985 7.22729 8.55544 6.34824C9.87103 5.46919 11.4178 5 13 5C15.1217 5 17.1566 5.84285 18.6569 7.34315C20.1571 8.84344 21 10.8783 21 13Z" stroke="black" stroke-opacity="0.2" stroke-width="2" stroke-linecap="round" stroke-linejoin="round"/>
</svg>
