<svg width="28" height="28" viewBox="0 0 28 28" fill="none" xmlns="http://www.w3.org/2000/svg">
<path d="M21 0H7C3.13401 0 0 3.13401 0 7V21C0 24.866 3.13401 28 7 28H21C24.866 28 28 24.866 28 21V7C28 3.13401 24.866 0 21 0Z" fill="#172E55"/>
<g clip-path="url(#clip0_1656_7835)">
<path d="M13.25 14.1255C13.5184 14.4843 13.8608 14.7812 14.2541 14.9961C14.6473 15.2109 15.0822 15.3387 15.5292 15.3707C15.9761 15.4027 16.4247 15.3382 16.8446 15.1816C17.2644 15.025 17.6457 14.7799 17.9625 14.463L19.8375 12.588C20.4067 11.9986 20.7217 11.2092 20.7146 10.3898C20.7075 9.57047 20.3788 8.78668 19.7994 8.20728C19.22 7.62788 18.4362 7.29923 17.6169 7.29211C16.7975 7.28499 16.0081 7.59997 15.4188 8.16922L14.3438 9.23797" stroke="white" stroke-width="1.5" stroke-linecap="round" stroke-linejoin="round"/>
<path d="M15.7499 12.8743C15.4815 12.5155 15.139 12.2185 14.7458 12.0037C14.3525 11.7889 13.9177 11.6611 13.4707 11.6291C13.0238 11.5971 12.5751 11.6616 12.1553 11.8182C11.7354 11.9748 11.3542 12.2199 11.0374 12.5368L9.16238 14.4118C8.59314 15.0012 8.27815 15.7906 8.28527 16.6099C8.29239 17.4293 8.62105 18.2131 9.20045 18.7925C9.77985 19.3719 10.5636 19.7005 11.383 19.7076C12.2024 19.7148 12.9917 19.3998 13.5811 18.8305L14.6499 17.7618" stroke="white" stroke-width="1.5" stroke-linecap="round" stroke-linejoin="round"/>
</g>
<defs>
<clipPath id="clip0_1656_7835">
<rect width="15" height="15" fill="white" transform="translate(7 6)"/>
</clipPath>
</defs>
</svg>
