<svg width="28" height="28" viewBox="0 0 28 28" fill="none" xmlns="http://www.w3.org/2000/svg">
<path d="M22.75 0H5.25C2.35051 0 0 2.35051 0 5.25V22.75C0 25.6495 2.35051 28 5.25 28H22.75C25.6495 28 28 25.6495 28 22.75V5.25C28 2.35051 25.6495 0 22.75 0Z" fill="#295695"/>
<path d="M19.2159 11.4548C19.4554 11.0041 19.6718 10.5415 19.8643 10.0688C19.9871 9.78479 20.0579 9.48099 20.0734 9.17193C20.0791 9.00947 20.0554 8.84733 20.0034 8.69331C19.9512 8.56739 19.8589 8.46223 19.7409 8.39407C19.5815 8.30304 19.4053 8.24532 19.2229 8.22435L19.3725 7.56634H23.6093L23.4596 8.22435C23.2502 8.2602 23.0512 8.34172 22.8769 8.46318C22.6923 8.59736 22.5292 8.75873 22.393 8.9418C22.2282 9.15895 22.0782 9.38699 21.9441 9.62433C21.7977 9.88041 21.6017 10.2377 21.3561 10.6962L15.6441 21.2426H13.2519L13.2318 14.8227V13.1279C13.2318 12.6956 13.235 12.2438 13.2414 11.7725H13.1119C12.8926 12.2444 12.7065 12.6398 12.5536 12.9589L8.38689 21.2426H5.99465L5.79514 10.6358C5.79804 10.1534 5.74965 9.67212 5.65077 9.19997C5.60017 8.94218 5.48518 8.70139 5.31651 8.49998C5.15567 8.34694 4.94916 8.2507 4.72852 8.22606L4.87815 7.5681H9.98201L9.83238 8.22606C9.66215 8.24643 9.49586 8.29183 9.33889 8.3608C9.20386 8.42314 9.08723 8.51931 9.00027 8.63995C8.90296 8.78179 8.8384 8.94349 8.81127 9.11334C8.77703 9.28655 8.75539 9.46199 8.74651 9.63832L8.73689 10.8047L8.69664 14.5532C8.69023 15.105 8.6736 15.7697 8.64676 16.5473L8.5969 17.7338H8.72639C8.87922 17.3949 9.04372 17.0426 9.21989 16.6768C9.39605 16.3111 9.71689 15.663 10.1824 14.7326L13.7813 7.56543H15.9644L15.974 14.0947L15.9836 14.9819C15.9836 15.9153 15.9603 16.8323 15.9136 17.733H16.0431C16.3552 17.082 16.9167 15.9556 17.7275 14.3537L19.2159 11.4548Z" fill="white"/>
</svg>
