<svg width="28" height="28" viewBox="0 0 28 28" fill="none" xmlns="http://www.w3.org/2000/svg">
<path d="M22.75 0H5.25C2.35051 0 0 2.35051 0 5.25V22.75C0 25.6495 2.35051 28 5.25 28H22.75C25.6495 28 28 25.6495 28 22.75V5.25C28 2.35051 25.6495 0 22.75 0Z" fill="#E43824"/>
<path d="M18.375 7.875H9.625C7.692 7.875 6.125 9.442 6.125 11.375V16.625C6.125 18.558 7.692 20.125 9.625 20.125H18.375C20.308 20.125 21.875 18.558 21.875 16.625V11.375C21.875 9.442 20.308 7.875 18.375 7.875Z" fill="white"/>
<path d="M17.0352 13.9995L12.2577 16.7295V11.2695L17.0352 13.9995Z" fill="#E43824"/>
</svg>
