<svg width="56" height="56" viewBox="0 0 56 56" fill="none" xmlns="http://www.w3.org/2000/svg">
<path d="M40 8C42.7614 8 45 10.2386 45 13V33.4209C45 36.1823 42.7614 38.4209 40 38.4209H22.4443C21.8601 40.4861 19.9632 41.9998 17.7109 42H11V13C11 10.2386 13.2386 8 16 8H40Z" fill="white"/>
<path d="M40 8L40 7H40V8ZM40 38.4209L40 39.4209H40L40 38.4209ZM22.4443 38.4209V37.4209H21.688L21.4821 38.1487L22.4443 38.4209ZM17.7109 42L17.7109 43L17.711 43L17.7109 42ZM11 42H10V43H11V42ZM16 8L16 7L16 7L16 8ZM40 8L40 9C42.2091 9 44 10.7909 44 13H45H46C46 9.68629 43.3137 7 40 7L40 8ZM45 13H44V33.4209H45H46V13H45ZM45 33.4209H44C44 35.63 42.2091 37.4209 40 37.4209L40 38.4209L40 39.4209C43.3137 39.4209 46 36.7346 46 33.4209H45ZM40 38.4209V37.4209H22.4443V38.4209V39.4209H40V38.4209ZM22.4443 38.4209L21.4821 38.1487C21.0163 39.7954 19.5034 40.9999 17.7109 41L17.7109 42L17.711 43C20.423 42.9998 22.7039 41.1769 23.4066 38.6931L22.4443 38.4209ZM17.7109 42V41H11V42V43H17.7109V42ZM11 42H12V13H11H10V42H11ZM11 13H12C12 10.7909 13.7909 9 16 9L16 8L16 7C12.6863 7 10 9.68629 10 13H11ZM16 8V9H40V8V7H16V8Z" fill="#323232"/>
<path d="M27 21H29V30" stroke="#323232" stroke-width="2" stroke-linecap="round" stroke-linejoin="round"/>
<path d="M27 31L31 31" stroke="#323232" stroke-width="2" stroke-miterlimit="10" stroke-linecap="round"/>
<path d="M28.2139 15.0596C28.4987 15.003 28.7942 15.0315 29.0625 15.1426C29.3308 15.2537 29.5603 15.4422 29.7217 15.6836C29.8831 15.9251 29.9687 16.2095 29.9688 16.5C29.9688 16.8895 29.8135 17.2626 29.5381 17.5381C29.2626 17.8135 28.8895 17.9688 28.5 17.9688C28.2095 17.9687 27.9251 17.8831 27.6836 17.7217C27.4422 17.5603 27.2537 17.3308 27.1426 17.0625C27.0315 16.7942 27.003 16.4987 27.0596 16.2139C27.1162 15.929 27.2565 15.6673 27.4619 15.4619C27.6673 15.2565 27.929 15.1162 28.2139 15.0596Z" fill="black" stroke="#323232" stroke-width="0.0625"/>
<path d="M36.0527 47.3691H45.0001" stroke="#323232" stroke-width="2" stroke-miterlimit="10" stroke-linecap="round"/>
<path d="M15.4746 8.89453L15.4746 38.4208" stroke="#323232" stroke-width="2" stroke-miterlimit="10" stroke-linecap="round"/>
<path d="M11 42.8956C11 40.4248 13.0029 38.4219 15.4737 38.4219H42.3158V47.3692H15.4737C13.0029 47.3692 11 45.3663 11 42.8956V42.8956Z" fill="white" stroke="#323232" stroke-width="2" stroke-linejoin="round"/>
<path d="M42.3941 41.7882C38.8684 41.7882 36 38.9198 36 35.3941C36 31.8684 38.8684 29 42.3941 29C44.6439 29 46.6682 30.1742 47.9479 32.2217L47.9494 32.2241L47.951 32.2266C48.4752 33.0545 48.7882 34.2387 48.7882 35.3941C48.7882 38.9198 45.9198 41.7882 42.3941 41.7882Z" fill="#FFE591"/>
<path d="M42.3941 30C39.4198 30 37 32.4198 37 35.3941C37 38.3684 39.4198 40.7882 42.3941 40.7882C45.3684 40.7882 47.7882 38.3684 47.7882 35.3941C47.7882 34.2474 47.4359 33.2823 47.1061 32.7616L47.0999 32.7517C46.0069 31.0029 44.2917 30 42.3941 30ZM42.3941 28C45.0362 28 47.3546 29.3858 48.7959 31.6917C49.3757 32.6074 49.7882 33.9525 49.7882 35.3941C49.7882 39.4777 46.4777 42.7882 42.3941 42.7882C38.3105 42.7882 35 39.4777 35 35.3941C35 31.3105 38.3105 28 42.3941 28Z" fill="#323232"/>
<path d="M40.4648 35.8113L41.8308 37.5113L44.3219 33.2793" stroke="#323232" stroke-width="2" stroke-miterlimit="10" stroke-linecap="round" stroke-linejoin="round"/>
</svg>
