<svg width="34" height="46" viewBox="0 0 34 46" fill="none" xmlns="http://www.w3.org/2000/svg">
<path d="M28.973 7.54238H4.64296C4.16508 7.54185 3.69178 7.63544 3.25008 7.81783C2.80837 8.00022 2.4069 8.26788 2.06862 8.60543C1.73033 8.94297 1.46185 9.34381 1.27849 9.78511C1.09513 10.2264 1.00048 10.6995 0.999954 11.1774V40.9774C1.00035 41.4553 1.09491 41.9285 1.27821 42.37C1.46152 42.8114 1.72999 43.2124 2.06828 43.55C2.40658 43.8877 2.80806 44.1554 3.24983 44.3378C3.6916 44.5203 4.165 44.6139 4.64296 44.6134H28.973C29.9382 44.6142 30.8642 44.2316 31.5473 43.5497C32.2305 42.8678 32.6149 41.9426 32.616 40.9774V11.1774C32.6146 10.2123 32.2302 9.28731 31.547 8.60567C30.8639 7.92403 29.938 7.54158 28.973 7.54238Z" fill="white" stroke="#323232" stroke-width="2" stroke-linecap="round" stroke-linejoin="round"/>
<path d="M19.0004 18.9965C20.0008 18.2492 20.0009 18.2491 20.0033 17C20.7509 18.0008 20.7508 18.0008 22 18.0032C20.9992 18.7508 20.9993 18.7508 20.9968 20C20.2493 18.9992 20.2492 18.9992 19.0002 18.9968L19 18.9968L19.0004 18.9965Z" fill="#323232"/>
<path d="M13.4128 17.6629C14.1574 16.0041 14.1575 16.004 13.277 14.4124C14.9365 15.1575 14.9364 15.1574 16.5281 14.2769C15.7831 15.9364 15.7831 15.9363 16.6637 17.5281C15.0043 16.7831 15.0042 16.7831 13.4127 17.6635L13.4125 17.6637L13.4128 17.6629Z" fill="#323232"/>
<path d="M6.00088 22.9929C8.00159 21.4983 8.0018 21.4982 8.00656 19C9.50177 21.0017 9.50167 21.0016 12 21.0064C9.99841 22.5017 9.99852 22.5016 9.99365 25C8.49852 22.9984 8.49844 22.9984 6.00038 22.9936L6 22.9936L6.00088 22.9929Z" fill="#323232"/>
<path d="M24.987 8.63236V5.58438C24.9849 5.49464 24.9651 5.40615 24.9288 5.32407C24.8925 5.24199 24.8403 5.16793 24.7753 5.10605C24.7102 5.04418 24.6336 4.99574 24.5498 4.96354C24.466 4.93133 24.3767 4.91598 24.287 4.91837H22.547C22.4572 4.92076 22.3679 4.90541 22.2841 4.8732C22.2003 4.841 22.1237 4.79256 22.0587 4.73069C21.9936 4.66881 21.9415 4.59475 21.9051 4.51267C21.8688 4.43058 21.849 4.3421 21.847 4.25235V1.66538C21.8423 1.48439 21.7659 1.31266 21.6346 1.18796C21.5033 1.06327 21.3279 0.995772 21.147 1.00034H12.461C12.28 0.995772 12.1046 1.06327 11.9733 1.18796C11.8421 1.31266 11.7657 1.48439 11.761 1.66538V4.25235C11.7589 4.3421 11.7391 4.43058 11.7028 4.51267C11.6664 4.59475 11.6143 4.66881 11.5492 4.73069C11.4842 4.79256 11.4076 4.841 11.3238 4.8732C11.24 4.90541 11.1507 4.92076 11.061 4.91837H9.32097C9.23123 4.91598 9.14191 4.93133 9.05812 4.96354C8.97433 4.99574 8.89772 5.04418 8.83269 5.10605C8.76765 5.16793 8.71545 5.24199 8.67912 5.32407C8.64279 5.40615 8.62303 5.49464 8.62096 5.58438V8.63236" fill="#FFD139"/>
<path d="M24.987 8.63236V5.58438C24.9849 5.49464 24.9651 5.40615 24.9288 5.32407C24.8925 5.24199 24.8403 5.16793 24.7753 5.10605C24.7102 5.04418 24.6336 4.99574 24.5498 4.96354C24.466 4.93133 24.3767 4.91598 24.287 4.91837H22.547C22.4572 4.92076 22.3679 4.90541 22.2841 4.8732C22.2003 4.841 22.1237 4.79256 22.0587 4.73069C21.9936 4.66881 21.9415 4.59475 21.9051 4.51267C21.8688 4.43058 21.849 4.3421 21.847 4.25235V1.66538C21.8423 1.48439 21.7659 1.31266 21.6346 1.18796C21.5033 1.06327 21.3279 0.995772 21.147 1.00034H12.461C12.28 0.995772 12.1046 1.06327 11.9733 1.18796C11.8421 1.31266 11.7657 1.48439 11.761 1.66538V4.25235C11.7589 4.3421 11.7391 4.43058 11.7028 4.51267C11.6664 4.59475 11.6143 4.66881 11.5492 4.73069C11.4842 4.79256 11.4076 4.841 11.3238 4.8732C11.24 4.90541 11.1507 4.92076 11.061 4.91837H9.32097C9.23123 4.91598 9.14191 4.93133 9.05812 4.96354C8.97433 4.99574 8.89772 5.04418 8.83269 5.10605C8.76765 5.16793 8.71545 5.24199 8.67912 5.32407C8.64279 5.40615 8.62303 5.49464 8.62096 5.58438V8.63236" stroke="#323232" stroke-width="2" stroke-linecap="round" stroke-linejoin="round"/>
<path d="M8.63197 7.54237V9.16035C8.65159 9.32721 8.73592 9.47974 8.86684 9.58504C8.99775 9.69033 9.16477 9.74002 9.33195 9.7234H24.291C24.4582 9.74002 24.6252 9.69033 24.7561 9.58504C24.887 9.47974 24.9713 9.32721 24.991 9.16035V7.54237" fill="#FFD139"/>
<path d="M8.63197 7.54237V9.16035C8.65159 9.32721 8.73592 9.47974 8.86684 9.58504C8.99775 9.69033 9.16477 9.74002 9.33195 9.7234H24.291C24.4582 9.74002 24.6252 9.69033 24.7561 9.58504C24.887 9.47974 24.9713 9.32721 24.991 9.16035V7.54237" stroke="#323232" stroke-width="2" stroke-linecap="round" stroke-linejoin="round"/>
<path d="M7.75 34L14.4257 27.0938L18.5338 29.9375L26.75 21" stroke="#323232" stroke-width="2" stroke-linecap="round" stroke-linejoin="round"/>
<line x1="7" y1="38" x2="27" y2="38" stroke="#323232" stroke-width="2" stroke-linecap="round"/>
</svg>
