<svg width="56" height="56" viewBox="0 0 56 56" fill="none" xmlns="http://www.w3.org/2000/svg">
<path d="M39.4396 28.2773H16.5586C13.7972 28.2773 11.5586 30.5159 11.5586 33.2773V42.0003C11.5586 44.7618 13.7972 47.0003 16.5586 47.0003H39.4396C42.201 47.0003 44.4396 44.7618 44.4396 42.0003V33.2773C44.4396 30.5159 42.201 28.2773 39.4396 28.2773Z" fill="white" stroke="#323232" stroke-width="2" stroke-miterlimit="10" stroke-linecap="round" stroke-linejoin="round"/>
<path d="M12.8 31.411C11.8242 31.4415 10.8762 31.0837 10.1638 30.4161C9.45142 29.7485 9.03289 28.8257 9 27.85V22H16.6V27.85C16.5674 28.8258 16.149 29.7488 15.4365 30.4164C14.7241 31.084 13.7759 31.4417 12.8 31.411Z" fill="white" stroke="#323232" stroke-width="2" stroke-miterlimit="10" stroke-linecap="round" stroke-linejoin="round"/>
<path d="M20.4016 31.411C19.4258 31.4415 18.4777 31.0837 17.7654 30.4161C17.053 29.7485 16.6345 28.8257 16.6016 27.85V22H24.2016V27.85C24.1689 28.8258 23.7505 29.7488 23.0381 30.4164C22.3256 31.084 21.3774 31.4417 20.4016 31.411Z" fill="#FFE591" stroke="#323232" stroke-width="2" stroke-miterlimit="10" stroke-linecap="round" stroke-linejoin="round"/>
<path d="M27.9992 31.411C27.0234 31.4415 26.0754 31.0837 25.363 30.4161C24.6506 29.7485 24.2321 28.8257 24.1992 27.85V22H31.7992V27.85C31.7666 28.8258 31.3481 29.7488 30.6357 30.4164C29.9233 31.084 28.9751 31.4417 27.9992 31.411Z" fill="white" stroke="#323232" stroke-width="2" stroke-miterlimit="10" stroke-linecap="round" stroke-linejoin="round"/>
<path d="M35.6008 31.411C34.625 31.4415 33.6769 31.0837 32.9646 30.4161C32.2522 29.7485 31.8337 28.8257 31.8008 27.85V22H39.4008V27.85C39.3682 28.8258 38.9497 29.7488 38.2373 30.4164C37.5248 31.084 36.5766 31.4417 35.6008 31.411Z" fill="#FFE591" stroke="#323232" stroke-width="2" stroke-miterlimit="10" stroke-linecap="round" stroke-linejoin="round"/>
<path d="M43.2004 31.411C42.2246 31.4415 41.2765 31.0837 40.5642 30.4161C39.8518 29.7485 39.4333 28.8257 39.4004 27.85V22H47.0004V27.85C46.9678 28.8258 46.5493 29.7488 45.8369 30.4164C45.1245 31.084 44.1762 31.4417 43.2004 31.411Z" fill="white" stroke="#323232" stroke-width="2" stroke-miterlimit="10" stroke-linecap="round" stroke-linejoin="round"/>
<path d="M38.356 36.502H30.627V46.82H38.356V36.502Z" fill="white" stroke="#323232" stroke-width="2" stroke-miterlimit="10" stroke-linecap="round" stroke-linejoin="round"/>
<path d="M37.5 9H18.5C15.4624 9 13 11.4624 13 14.5C13 17.5376 15.4624 20 18.5 20H37.5C40.5376 20 43 17.5376 43 14.5C43 11.4624 40.5376 9 37.5 9Z" fill="white"/>
<path d="M37.5 10H18.5C16.0147 10 14 12.0147 14 14.5C14 16.9853 16.0147 19 18.5 19H37.5C39.9853 19 42 16.9853 42 14.5C42 12.0147 39.9853 10 37.5 10Z" stroke="#323232" stroke-width="2"/>
<path d="M25.091 14.1174C25.2982 14.1969 25.4771 14.3361 25.605 14.5174C25.7369 14.7099 25.8041 14.9393 25.797 15.1724C25.8054 15.3403 25.7712 15.5075 25.6978 15.6587C25.6244 15.8099 25.5141 15.9402 25.377 16.0374C25.0101 16.2622 24.5823 16.3671 24.153 16.3374H21.998V12.0774H24.038C24.4459 12.0504 24.8517 12.1556 25.195 12.3774C25.3233 12.4697 25.4269 12.5922 25.4966 12.7339C25.5664 12.8757 25.6002 13.0325 25.595 13.1904C25.5977 13.379 25.5505 13.565 25.458 13.7294C25.37 13.8873 25.2438 14.0207 25.091 14.1174ZM23.057 13.7824H23.897C24.319 13.7824 24.53 13.6364 24.53 13.3444C24.53 13.0524 24.319 12.9084 23.897 12.9124H23.057V13.7824ZM24.057 15.5054C24.4997 15.5054 24.721 15.3531 24.721 15.0484C24.721 14.7438 24.4997 14.5914 24.057 14.5914H23.057V15.5044L24.057 15.5054ZM29.157 15.9744C28.7418 16.2665 28.2457 16.4217 27.738 16.4184C27.445 16.4226 27.1538 16.3711 26.88 16.2664C26.6463 16.1808 26.4393 16.0348 26.28 15.8434C26.1363 15.6708 26.0581 15.453 26.059 15.2284C26.0537 14.9779 26.1295 14.7324 26.275 14.5284C26.4621 14.2939 26.6979 14.1029 26.966 13.9684C26.8367 13.8416 26.7286 13.6947 26.646 13.5334C26.5804 13.3978 26.5462 13.2491 26.546 13.0984C26.5423 12.8961 26.6033 12.6978 26.72 12.5324C26.845 12.3626 27.0146 12.2307 27.21 12.1514C27.4409 12.0572 27.6887 12.0112 27.938 12.0164C28.2695 12 28.5967 12.0966 28.866 12.2904C28.9791 12.3763 29.0699 12.488 29.1308 12.6163C29.1917 12.7445 29.2209 12.8855 29.216 13.0274C29.2178 13.2404 29.1473 13.4477 29.016 13.6154C28.8484 13.8165 28.6397 13.9794 28.404 14.0934L29.092 14.7024C29.178 14.5005 29.2434 14.2905 29.287 14.0754L30.145 14.3494C30.0746 14.6928 29.9388 15.0194 29.745 15.3114L30.22 15.7314L29.636 16.4134L29.157 15.9744ZM27.938 12.7414C27.83 12.7359 27.7236 12.7692 27.638 12.8354C27.6022 12.8656 27.5738 12.9035 27.5547 12.9463C27.5356 12.9891 27.5265 13.0356 27.528 13.0824C27.5283 13.1563 27.5484 13.2288 27.586 13.2924C27.6517 13.391 27.7304 13.4801 27.82 13.5574C27.9597 13.4913 28.0882 13.404 28.201 13.2984C28.2697 13.2341 28.3103 13.1454 28.314 13.0514C28.3153 13.0088 28.3069 12.9665 28.2896 12.9276C28.2723 12.8886 28.2465 12.8541 28.214 12.8264C28.1358 12.7647 28.0374 12.7344 27.938 12.7414ZM27.804 15.5844C28.0566 15.5854 28.3047 15.518 28.522 15.3894L27.554 14.5184C27.4228 14.5854 27.3068 14.6787 27.213 14.7924C27.1452 14.8862 27.1101 14.9997 27.113 15.1154C27.1134 15.1832 27.1309 15.2497 27.1639 15.3088C27.197 15.3679 27.2445 15.4177 27.302 15.4534C27.4528 15.5474 27.6286 15.5931 27.806 15.5844H27.804ZM34.338 14.1234V15.8764C34.1046 16.0556 33.8407 16.1911 33.559 16.2764C33.2697 16.3687 32.9678 16.4159 32.664 16.4164C32.2658 16.4229 31.8727 16.3261 31.523 16.1354C31.1884 15.9522 30.9113 15.6793 30.723 15.3474C30.529 14.9997 30.4306 14.6066 30.438 14.2084C30.4311 13.8088 30.5308 13.4146 30.727 13.0664C30.9156 12.7355 31.1926 12.4637 31.527 12.2814C31.8837 12.0891 32.2839 11.9916 32.689 11.9984C33.0324 11.9924 33.3731 12.0588 33.689 12.1934C33.9781 12.3191 34.2321 12.5134 34.429 12.7594L33.738 13.4234C33.6176 13.274 33.4654 13.1532 33.2924 13.07C33.1194 12.9868 32.93 12.9432 32.738 12.9424C32.5139 12.9376 32.2924 12.9921 32.096 13.1004C31.9133 13.204 31.7643 13.3582 31.667 13.5444C31.5622 13.7498 31.5099 13.9779 31.515 14.2084C31.5111 14.4359 31.5633 14.6609 31.667 14.8634C31.7631 15.0503 31.911 15.2055 32.093 15.3104C32.2862 15.4185 32.5047 15.4731 32.726 15.4684C32.9482 15.4711 33.1683 15.4254 33.371 15.3344V14.1234H34.338Z" fill="#323232"/>
<path d="M18 19H16V22H18V19Z" fill="#33302B"/>
<path d="M40 19H38V22H40V19Z" fill="#33302B"/>
</svg>
