<svg width="49" height="34" viewBox="0 0 49 34" fill="none" xmlns="http://www.w3.org/2000/svg">
<path d="M37.9229 6.53906H5.92293C3.54385 6.53906 1.61523 8.46768 1.61523 10.8468V28.0775C1.61523 30.4566 3.54385 32.3852 5.92293 32.3852H37.9229C40.302 32.3852 42.2306 30.4566 42.2306 28.0775V10.8468C42.2306 8.46768 40.302 6.53906 37.9229 6.53906Z" fill="white" stroke="#323232" stroke-width="2" stroke-linecap="round" stroke-linejoin="round"/>
<path d="M42.845 1H10.845C8.12601 1 5.92188 3.20414 5.92188 5.92308V23.1539C5.92188 25.8728 8.12601 28.0769 10.845 28.0769H42.845C45.5639 28.0769 47.768 25.8728 47.768 23.1539V5.92308C47.768 3.20414 45.5639 1 42.845 1Z" fill="#FFE591"/>
<path d="M42.8448 1.61523H10.8448C8.46573 1.61523 6.53711 3.54385 6.53711 5.92293V23.1537C6.53711 25.5328 8.46573 27.4614 10.8448 27.4614H42.8448C45.2239 27.4614 47.1525 25.5328 47.1525 23.1537V5.92293C47.1525 3.54385 45.2239 1.61523 42.8448 1.61523Z" stroke="#323232" stroke-width="2" stroke-linecap="round" stroke-linejoin="round"/>
<path d="M16.6379 10.8443C16.6335 11.0026 16.6615 11.1601 16.7204 11.3071C16.7733 11.4336 16.8531 11.547 16.9542 11.6394C17.0522 11.7271 17.1663 11.7949 17.2903 11.8388C17.4162 11.884 17.5491 11.9069 17.6829 11.9065C17.8359 11.9083 17.9888 11.8956 18.1395 11.8683C18.2576 11.8463 18.3728 11.8108 18.4829 11.7625C18.5378 11.7371 18.5994 11.7067 18.6675 11.6714C18.7325 11.6372 18.8028 11.6143 18.8755 11.6037C18.9989 11.5778 19.1273 11.5885 19.2447 11.6345C19.3634 11.6868 19.4616 11.7768 19.5241 11.8905C19.5699 11.9583 19.6 12.0354 19.6124 12.1163C19.6247 12.1972 19.6189 12.2798 19.5955 12.3582C19.5483 12.5134 19.4546 12.6504 19.3272 12.7508C19.1025 12.9268 18.8427 13.0527 18.5653 13.12C18.2777 13.1989 17.9811 13.2403 17.6829 13.2431C17.3596 13.2452 17.0375 13.2038 16.7253 13.12C16.4232 13.0392 16.14 12.8995 15.8921 12.709C15.644 12.5151 15.4429 12.2677 15.3038 11.9853C15.1469 11.6519 15.0706 11.2864 15.081 10.9182V9.3428C15.0719 8.9756 15.1491 8.61139 15.3062 8.27941C15.4454 7.99699 15.6465 7.74961 15.8946 7.55572C16.1425 7.36513 16.4257 7.22542 16.7278 7.14464C17.04 7.06088 17.3621 7.01949 17.6853 7.02156C17.9841 7.01696 18.2822 7.05256 18.5715 7.12741C18.7852 7.17996 18.988 7.26952 19.1709 7.39203C19.3189 7.49229 19.4324 7.63587 19.4958 7.8031C19.5266 7.88314 19.5385 7.9692 19.5306 8.05458C19.5227 8.13997 19.4952 8.22238 19.4503 8.29541C19.3829 8.41894 19.277 8.51705 19.1487 8.5748C19.0282 8.6297 18.8935 8.64562 18.7635 8.62033C18.6839 8.60719 18.6064 8.58317 18.5333 8.54895L18.3487 8.4628C18.2574 8.42751 18.1625 8.40233 18.0656 8.38772C17.9392 8.37097 17.8116 8.36356 17.6841 8.36557C17.5503 8.36511 17.4174 8.38801 17.2915 8.43326C17.1676 8.4772 17.0534 8.54493 16.9555 8.63264C16.8543 8.7251 16.7745 8.8385 16.7216 8.96495C16.6613 9.11205 16.632 9.27001 16.6355 9.42895L16.6379 10.8443ZM21.1032 13.1151C20.9124 13.1194 20.722 13.0979 20.537 13.0511C20.3997 13.016 20.2746 12.9441 20.1752 12.8431C20.0802 12.7388 20.014 12.6116 19.9832 12.4739C19.9401 12.2933 19.919 12.1081 19.9204 11.9225V7.7871C19.918 7.67305 19.9398 7.55979 19.9844 7.4548C20.0239 7.36124 20.0831 7.27729 20.1579 7.20864C20.2319 7.14253 20.3186 7.09226 20.4127 7.06095C20.5074 7.02836 20.6068 7.01172 20.7069 7.01172C20.807 7.01172 20.9064 7.02836 21.001 7.06095C21.0943 7.09257 21.1801 7.14281 21.2533 7.20864C21.3282 7.27729 21.3874 7.36124 21.4269 7.4548C21.4715 7.55979 21.4933 7.67305 21.4909 7.7871V11.5816C21.4827 11.6443 21.499 11.7078 21.5364 11.7588C21.5877 11.7924 21.649 11.8072 21.7099 11.8006H23.385C23.4824 11.7979 23.5792 11.8172 23.6681 11.8573C23.742 11.892 23.8066 11.9439 23.8564 12.0086C23.9045 12.072 23.9404 12.1438 23.9623 12.2203C23.9846 12.295 23.9962 12.3725 23.9967 12.4505C23.996 12.5297 23.9844 12.6083 23.9623 12.6843C23.9402 12.7637 23.903 12.8381 23.8527 12.9034C23.8021 12.9693 23.7379 13.0234 23.6644 13.0622C23.5777 13.105 23.4817 13.1257 23.385 13.1225L21.1032 13.1151ZM25.7124 7.63818C25.7795 7.4401 25.9176 7.27391 26.1001 7.17172C26.2791 7.06736 26.4825 7.01216 26.6896 7.01172C26.8853 7.01323 27.0768 7.06813 27.2435 7.17049C27.4197 7.2759 27.5511 7.44232 27.6127 7.63818L29.5819 13.1151H27.9204L27.6263 12.1797H25.689L25.4023 13.1151H23.7739L25.7124 7.63818ZM26.0816 10.9046H27.2361L26.6626 9.02649L26.0816 10.9046ZM31.1659 8.81233C31.1687 8.88971 31.1933 8.96472 31.2369 9.02874C31.2804 9.09275 31.3412 9.14317 31.4121 9.17418C31.6345 9.29942 31.8697 9.40051 32.1136 9.47572L32.4829 9.5988C32.6943 9.6743 32.8956 9.77558 33.0823 9.90033C33.2564 10.0168 33.4106 10.1606 33.5389 10.3262C33.6653 10.4907 33.76 10.6772 33.8183 10.8763C33.8798 11.093 33.9028 11.3188 33.886 11.5434C33.8795 11.7879 33.8174 12.0277 33.7044 12.2446C33.5914 12.4615 33.4304 12.6498 33.2336 12.7951C32.7515 13.1159 32.1786 13.2722 31.6004 13.2406C31.2733 13.2424 30.947 13.2065 30.6281 13.1336C30.3468 13.0745 30.0818 12.9548 29.8515 12.7828C29.7814 12.7226 29.7204 12.6526 29.6706 12.5748C29.6212 12.4991 29.5843 12.416 29.561 12.3286C29.5383 12.241 29.5345 12.1495 29.5499 12.0603C29.5661 11.9645 29.6021 11.8731 29.6558 11.792C29.7138 11.7075 29.795 11.6417 29.8896 11.6025C29.9846 11.5588 30.0868 11.5333 30.1912 11.5274C30.299 11.5177 30.4073 11.5386 30.5038 11.5877L30.7266 11.7108C30.8298 11.7735 30.9418 11.8204 31.0589 11.8499C31.2518 11.8936 31.4495 11.9127 31.6472 11.9065C31.8187 11.9167 31.9896 11.8774 32.1395 11.7933C32.1979 11.7532 32.2451 11.699 32.2767 11.6357C32.3084 11.5724 32.3234 11.5021 32.3204 11.4314C32.3145 11.3564 32.2817 11.286 32.2281 11.2333C32.1609 11.1587 32.0803 11.0973 31.9906 11.0523C31.8746 10.991 31.755 10.9368 31.6324 10.8899C31.497 10.8374 31.3514 10.7857 31.1955 10.7348L31.0035 10.6671C30.9354 10.6417 30.8788 10.6191 30.8336 10.5994C30.5733 10.4963 30.336 10.3423 30.1358 10.1465C29.9677 9.98003 29.8331 9.78281 29.7395 9.56557C29.6526 9.36152 29.6066 9.1424 29.6041 8.92064C29.6004 8.70799 29.6324 8.49622 29.6989 8.29418C29.8182 7.90171 30.0769 7.5664 30.4263 7.35141C30.8225 7.11887 31.2766 7.00363 31.7358 7.0191C31.9098 7.01875 32.0836 7.02861 32.2564 7.04864C32.3885 7.0633 32.5196 7.08591 32.649 7.11633C32.7499 7.14 32.8484 7.17296 32.9432 7.2148C33.0252 7.25254 33.1019 7.28905 33.1733 7.32433C33.344 7.41549 33.4856 7.55282 33.5819 7.72064C33.6296 7.79901 33.66 7.88666 33.671 7.97772C33.6821 8.06878 33.6735 8.16115 33.646 8.24864C33.6086 8.38818 33.518 8.50751 33.3936 8.58095C33.2722 8.64734 33.1357 8.68126 32.9973 8.67941C32.9339 8.67774 32.8709 8.66739 32.8103 8.64864C32.754 8.63492 32.7003 8.61205 32.6515 8.58095C32.5436 8.51242 32.4268 8.459 32.3044 8.42218C32.1255 8.37206 31.94 8.34924 31.7543 8.35449C31.6044 8.34619 31.4557 8.38446 31.3284 8.46403C31.2756 8.50383 31.2331 8.55588 31.2048 8.61569C31.1765 8.67551 31.1632 8.7413 31.1659 8.80741V8.81233ZM35.6398 8.81233C35.6426 8.88971 35.6672 8.96472 35.7107 9.02874C35.7543 9.09275 35.815 9.14317 35.886 9.17418C36.1084 9.29942 36.3436 9.40051 36.5875 9.47572L36.9567 9.5988C37.1681 9.6743 37.3695 9.77558 37.5561 9.90033C37.7303 10.0168 37.8844 10.1606 38.0127 10.3262C38.1391 10.4907 38.2338 10.6772 38.2921 10.8763C38.3537 11.093 38.3766 11.3188 38.3598 11.5434C38.3534 11.7879 38.2913 12.0277 38.1783 12.2446C38.0652 12.4615 37.9042 12.6498 37.7075 12.7951C37.2254 13.1159 36.6525 13.2722 36.0743 13.2406C35.7451 13.2429 35.4167 13.2069 35.0958 13.1336C34.8149 13.0743 34.5503 12.9546 34.3204 12.7828C34.2499 12.7227 34.1885 12.6526 34.1383 12.5748C34.0889 12.4991 34.052 12.416 34.0287 12.3286C34.006 12.241 34.0022 12.1495 34.0176 12.0603C34.0341 11.9653 34.0701 11.8748 34.1235 11.7945C34.1811 11.7091 34.2624 11.6424 34.3573 11.6025C34.4523 11.5588 34.5545 11.5333 34.6589 11.5274C34.7667 11.5177 34.875 11.5386 34.9715 11.5877L35.1943 11.7108C35.2975 11.7735 35.4095 11.8204 35.5266 11.8499C35.7195 11.8936 35.9172 11.9127 36.1149 11.9065C36.2864 11.9167 36.4573 11.8774 36.6072 11.7933C36.6642 11.7526 36.7102 11.6983 36.7407 11.6353C36.7712 11.5723 36.7854 11.5026 36.782 11.4326C36.78 11.359 36.7521 11.2884 36.7032 11.2333C36.6359 11.1587 36.5554 11.0973 36.4656 11.0523C36.3496 10.991 36.23 10.9368 36.1075 10.8899C35.9721 10.8374 35.8265 10.7857 35.6706 10.7348L35.4773 10.6622C35.4092 10.6367 35.3526 10.6142 35.3075 10.5945C35.0487 10.492 34.8128 10.3393 34.6133 10.1453C34.4452 9.9788 34.3107 9.78158 34.217 9.56434C34.1301 9.36029 34.0841 9.14117 34.0816 8.91941C34.0779 8.70676 34.1099 8.49498 34.1764 8.29295C34.2957 7.90048 34.5544 7.56517 34.9038 7.35018C35.2997 7.11786 35.7533 7.00263 36.2121 7.01787C36.3849 7.01807 36.5575 7.02834 36.729 7.04864C36.8611 7.0633 36.9922 7.08591 37.1216 7.11633C37.2225 7.14 37.321 7.17296 37.4158 7.2148C37.4978 7.25254 37.5746 7.28905 37.646 7.32433C37.818 7.41612 37.9606 7.55481 38.057 7.72433C38.1047 7.8027 38.1351 7.89035 38.1461 7.98142C38.1572 8.07248 38.1486 8.16485 38.121 8.25233C38.0837 8.39188 37.9931 8.5112 37.8687 8.58464C37.7473 8.65104 37.6108 8.68495 37.4724 8.6831C37.4084 8.68035 37.345 8.66876 37.2841 8.64864C37.2278 8.63492 37.1742 8.61205 37.1253 8.58095C37.0186 8.51273 36.9031 8.45932 36.782 8.42218C36.603 8.37206 36.4175 8.34924 36.2318 8.35449C36.0791 8.34438 35.927 8.38271 35.7973 8.46403C35.7454 8.50436 35.7039 8.55664 35.6765 8.61642C35.6491 8.6762 35.6365 8.74172 35.6398 8.80741V8.81233ZM17.8786 19.9016C17.8751 20.0605 17.9044 20.2185 17.9647 20.3656C18.0176 20.492 18.0974 20.6054 18.1986 20.6979C18.2965 20.7856 18.4106 20.8533 18.5346 20.8973C18.6605 20.9425 18.7934 20.9654 18.9272 20.965C19.0802 20.9668 19.2331 20.954 19.3838 20.9268C19.5019 20.9048 19.6171 20.8692 19.7272 20.821C19.7821 20.7955 19.8437 20.7652 19.9118 20.7299C19.9768 20.6957 20.0471 20.6728 20.1198 20.6622C20.2432 20.6363 20.3716 20.6469 20.489 20.693C20.6077 20.7453 20.7059 20.8353 20.7684 20.949C20.8142 21.0168 20.8443 21.0939 20.8567 21.1748C20.869 21.2557 20.8633 21.3383 20.8398 21.4166C20.7926 21.5719 20.6989 21.7089 20.5715 21.8093C20.3468 21.9853 20.087 22.1112 19.8096 22.1785C19.5217 22.2553 19.2251 22.2946 18.9272 22.2954C18.6039 22.2975 18.2819 22.2561 17.9696 22.1723C17.6675 22.0916 17.3843 21.9519 17.1364 21.7613C16.8884 21.5674 16.6873 21.32 16.5481 21.0376C16.3912 20.7043 16.3149 20.3387 16.3253 19.9705V18.3951C16.3149 18.0269 16.3912 17.6613 16.5481 17.328C16.6873 17.0456 16.8884 16.7982 17.1364 16.6043C17.3843 16.4137 17.6675 16.274 17.9696 16.1933C18.2819 16.1095 18.6039 16.0681 18.9272 16.0702C19.226 16.0656 19.524 16.1012 19.8133 16.176C20.0265 16.2263 20.2294 16.3133 20.4127 16.4333C20.5608 16.5335 20.6743 16.6771 20.7376 16.8443C20.7684 16.9244 20.7803 17.0104 20.7724 17.0958C20.7645 17.1812 20.737 17.2636 20.6921 17.3366C20.6248 17.4602 20.5189 17.5583 20.3906 17.616C20.27 17.6709 20.1353 17.6869 20.0053 17.6616C19.9254 17.6465 19.8479 17.6204 19.7752 17.584L19.5906 17.4979C19.4985 17.462 19.4027 17.4364 19.305 17.4216C19.1786 17.4048 19.051 17.3974 18.9235 17.3994C18.7897 17.399 18.6568 17.4219 18.5309 17.4671C18.4078 17.5113 18.2945 17.5791 18.1973 17.6665C18.0962 17.7589 18.0163 17.8723 17.9635 17.9988C17.9032 18.1459 17.8739 18.3039 17.8773 18.4628L17.8786 19.9016ZM22.6983 16.7016C22.7619 16.4969 22.9009 16.324 23.0872 16.2179C23.2652 16.1161 23.4667 16.0626 23.6718 16.0628C23.8674 16.0643 24.0589 16.1192 24.2256 16.2216C24.4018 16.327 24.5332 16.4934 24.5949 16.6893L26.5666 22.1662H24.9087L24.6146 21.2308H22.6761L22.3893 22.1662H20.7598L22.6983 16.7016ZM23.0675 19.968H24.2281L23.6496 18.0776L23.0675 19.968ZM31.5019 18.1539C31.5098 18.487 31.4223 18.8154 31.2496 19.1003C31.0828 19.3676 30.8572 19.5932 30.5899 19.76L32.0238 22.1662H30.3179L29.1869 20.1366H28.2207V22.1662H26.6736V17.2862C26.6703 17.1008 26.6893 16.9156 26.7303 16.7348C26.7611 16.5971 26.8272 16.4699 26.9223 16.3656C27.0219 16.2639 27.1474 16.1916 27.2853 16.1563C27.4703 16.1095 27.6607 16.088 27.8515 16.0923H29.2398C29.5456 16.0915 29.85 16.133 30.1444 16.2154C30.4055 16.2856 30.6493 16.4088 30.8607 16.5773C31.0635 16.743 31.2249 16.9537 31.3321 17.1926C31.4506 17.4671 31.5085 17.7639 31.5019 18.0628V18.1539ZM28.2207 18.864H29.2053C29.3111 18.8723 29.4174 18.8576 29.517 18.8211C29.6166 18.7846 29.7072 18.727 29.7826 18.6523C29.9071 18.5188 29.9758 18.3426 29.9746 18.16V18.101C29.9758 17.9184 29.9071 17.7422 29.7826 17.6086C29.7075 17.5315 29.6165 17.4718 29.516 17.4335C29.4154 17.3952 29.3077 17.3794 29.2004 17.3871H28.4386C28.3772 17.3816 28.3158 17.3977 28.265 17.4326C28.2276 17.4837 28.2113 17.5471 28.2195 17.6099L28.2207 18.864ZM34.3204 16.0936C34.6487 16.0935 34.9753 16.1403 35.2903 16.2326C35.6079 16.3242 35.9019 16.4838 36.1518 16.7003C36.4193 16.9374 36.6297 17.2319 36.7672 17.5619C36.9347 17.9814 37.0143 18.4309 37.001 18.8825V19.3748C37.0143 19.8264 36.9347 20.2759 36.7672 20.6954C36.6297 21.0254 36.4193 21.3199 36.1518 21.557C35.9019 21.7735 35.6079 21.933 35.2903 22.0246C34.9754 22.1178 34.6488 22.1655 34.3204 22.1662H33.1918C33.0011 22.1705 32.8106 22.149 32.6256 22.1022C32.4883 22.0671 32.3632 21.9952 32.2638 21.8942C32.1688 21.7899 32.1026 21.6626 32.0718 21.525C32.0309 21.3445 32.0119 21.1598 32.0152 20.9748V17.2825C32.0121 17.0983 32.0311 16.9144 32.0718 16.7348C32.1026 16.5971 32.1688 16.4699 32.2638 16.3656C32.3631 16.2641 32.4882 16.1918 32.6256 16.1563C32.8106 16.1095 33.0011 16.088 33.1918 16.0923L34.3204 16.0936ZM35.4589 18.7643C35.4829 18.3967 35.3653 18.0339 35.1303 17.7502C35.0205 17.6333 34.8868 17.5415 34.7384 17.4809C34.5899 17.4204 34.4301 17.3926 34.27 17.3994H33.7776C33.7152 17.3913 33.6519 17.4057 33.5992 17.44C33.5618 17.4911 33.5455 17.5545 33.5536 17.6173V20.6425C33.5455 20.7052 33.5618 20.7687 33.5992 20.8197C33.6504 20.8534 33.7118 20.8681 33.7727 20.8616H34.265C34.4254 20.8686 34.5854 20.8409 34.7341 20.7803C34.8828 20.7198 35.0167 20.6278 35.1266 20.5108C35.3603 20.2266 35.4765 19.8638 35.4515 19.4966L35.4589 18.7643Z" fill="#33302B"/>
</svg>
