<svg width="56" height="56" viewBox="0 0 56 56" fill="none" xmlns="http://www.w3.org/2000/svg">
<path d="M41.9229 17.5391H9.92293C7.54385 17.5391 5.61523 19.4677 5.61523 21.8468V39.0775C5.61523 41.4566 7.54385 43.3852 9.92293 43.3852H41.9229C44.302 43.3852 46.2306 41.4566 46.2306 39.0775V21.8468C46.2306 19.4677 44.302 17.5391 41.9229 17.5391Z" fill="white" stroke="#323232" stroke-width="2" stroke-linecap="round" stroke-linejoin="round"/>
<path d="M46.8469 12H14.8469C12.128 12 9.92383 14.2041 9.92383 16.9231V34.1539C9.92383 36.8728 12.128 39.0769 14.8469 39.0769H46.8469C49.5659 39.0769 51.77 36.8728 51.77 34.1539V16.9231C51.77 14.2041 49.5659 12 46.8469 12Z" fill="#FFE591"/>
<path d="M46.8468 12.6152H14.8468C12.4677 12.6152 10.5391 14.5439 10.5391 16.9229V34.1537C10.5391 36.5328 12.4677 38.4614 14.8468 38.4614H46.8468C49.2258 38.4614 51.1545 36.5328 51.1545 34.1537V16.9229C51.1545 14.5439 49.2258 12.6152 46.8468 12.6152Z" stroke="#323232" stroke-width="2" stroke-linecap="round" stroke-linejoin="round"/>
<path d="M20.6379 21.8443C20.6335 22.0026 20.6615 22.1601 20.7204 22.3071C20.7733 22.4336 20.8531 22.547 20.9542 22.6394C21.0522 22.7271 21.1663 22.7949 21.2903 22.8388C21.4162 22.884 21.5491 22.9069 21.6829 22.9065C21.8359 22.9083 21.9888 22.8956 22.1395 22.8683C22.2576 22.8463 22.3728 22.8108 22.4829 22.7625C22.5378 22.7371 22.5994 22.7067 22.6675 22.6714C22.7325 22.6372 22.8028 22.6143 22.8755 22.6037C22.9989 22.5778 23.1273 22.5885 23.2447 22.6345C23.3634 22.6868 23.4616 22.7768 23.5241 22.8905C23.5699 22.9583 23.6 23.0354 23.6124 23.1163C23.6247 23.1972 23.6189 23.2798 23.5955 23.3582C23.5483 23.5134 23.4546 23.6504 23.3272 23.7508C23.1025 23.9268 22.8427 24.0527 22.5653 24.12C22.2777 24.1989 21.9811 24.2403 21.6829 24.2431C21.3596 24.2452 21.0375 24.2038 20.7253 24.12C20.4232 24.0392 20.14 23.8995 19.8921 23.709C19.644 23.5151 19.4429 23.2677 19.3038 22.9853C19.1469 22.6519 19.0706 22.2864 19.081 21.9182V20.3428C19.0719 19.9756 19.1491 19.6114 19.3062 19.2794C19.4454 18.997 19.6465 18.7496 19.8946 18.5557C20.1425 18.3651 20.4257 18.2254 20.7278 18.1446C21.04 18.0609 21.3621 18.0195 21.6853 18.0216C21.9841 18.017 22.2822 18.0526 22.5715 18.1274C22.7852 18.18 22.988 18.2695 23.1709 18.392C23.3189 18.4923 23.4324 18.6359 23.4958 18.8031C23.5266 18.8831 23.5385 18.9692 23.5306 19.0546C23.5227 19.14 23.4952 19.2224 23.4503 19.2954C23.3829 19.4189 23.277 19.5171 23.1487 19.5748C23.0282 19.6297 22.8935 19.6456 22.7635 19.6203C22.6839 19.6072 22.6064 19.5832 22.5333 19.5489L22.3487 19.4628C22.2574 19.4275 22.1625 19.4023 22.0656 19.3877C21.9392 19.371 21.8116 19.3636 21.6841 19.3656C21.5503 19.3651 21.4174 19.388 21.2915 19.4333C21.1676 19.4772 21.0534 19.5449 20.9555 19.6326C20.8543 19.7251 20.7745 19.8385 20.7216 19.965C20.6613 20.1121 20.632 20.27 20.6355 20.429L20.6379 21.8443ZM25.1032 24.1151C24.9124 24.1194 24.722 24.0979 24.537 24.0511C24.3997 24.016 24.2746 23.9441 24.1752 23.8431C24.0802 23.7388 24.014 23.6116 23.9832 23.4739C23.9401 23.2933 23.919 23.1081 23.9204 22.9225V18.7871C23.918 18.6731 23.9398 18.5598 23.9844 18.4548C24.0239 18.3612 24.0831 18.2773 24.1579 18.2086C24.2319 18.1425 24.3186 18.0923 24.4127 18.0609C24.5074 18.0284 24.6068 18.0117 24.7069 18.0117C24.807 18.0117 24.9064 18.0284 25.001 18.0609C25.0943 18.0926 25.1801 18.1428 25.2533 18.2086C25.3282 18.2773 25.3874 18.3612 25.4269 18.4548C25.4715 18.5598 25.4933 18.6731 25.4909 18.7871V22.5816C25.4827 22.6443 25.499 22.7078 25.5364 22.7588C25.5877 22.7924 25.649 22.8072 25.7099 22.8006H27.385C27.4824 22.7979 27.5792 22.8172 27.6681 22.8573C27.742 22.892 27.8066 22.9439 27.8564 23.0086C27.9045 23.072 27.9404 23.1438 27.9623 23.2203C27.9846 23.295 27.9962 23.3725 27.9967 23.4505C27.996 23.5297 27.9844 23.6083 27.9623 23.6843C27.9402 23.7637 27.903 23.8381 27.8527 23.9034C27.8021 23.9693 27.7379 24.0234 27.6644 24.0622C27.5777 24.105 27.4817 24.1257 27.385 24.1225L25.1032 24.1151ZM29.7124 18.6382C29.7795 18.4401 29.9176 18.2739 30.1001 18.1717C30.2791 18.0674 30.4825 18.0122 30.6896 18.0117C30.8853 18.0132 31.0768 18.0681 31.2435 18.1705C31.4197 18.2759 31.5511 18.4423 31.6127 18.6382L33.5819 24.1151H31.9204L31.6263 23.1797H29.689L29.4023 24.1151H27.7739L29.7124 18.6382ZM30.0816 21.9046H31.2361L30.6626 20.0265L30.0816 21.9046ZM35.1659 19.8123C35.1687 19.8897 35.1933 19.9647 35.2369 20.0287C35.2804 20.0928 35.3412 20.1432 35.4121 20.1742C35.6345 20.2994 35.8697 20.4005 36.1136 20.4757L36.4829 20.5988C36.6943 20.6743 36.8956 20.7756 37.0823 20.9003C37.2564 21.0168 37.4106 21.1606 37.5389 21.3262C37.6653 21.4907 37.76 21.6772 37.8183 21.8763C37.8798 22.093 37.9028 22.3188 37.8859 22.5434C37.8795 22.7879 37.8174 23.0277 37.7044 23.2446C37.5914 23.4615 37.4304 23.6498 37.2336 23.7951C36.7515 24.1159 36.1786 24.2722 35.6004 24.2406C35.2733 24.2424 34.947 24.2065 34.6281 24.1336C34.3468 24.0745 34.0818 23.9548 33.8515 23.7828C33.7814 23.7226 33.7204 23.6526 33.6706 23.5748C33.6212 23.4991 33.5843 23.416 33.561 23.3286C33.5383 23.241 33.5345 23.1495 33.5499 23.0603C33.5661 22.9645 33.6021 22.8731 33.6558 22.792C33.7138 22.7075 33.795 22.6417 33.8896 22.6025C33.9846 22.5588 34.0868 22.5333 34.1912 22.5274C34.299 22.5177 34.4073 22.5386 34.5038 22.5877L34.7266 22.7108C34.8298 22.7735 34.9418 22.8204 35.0589 22.8499C35.2518 22.8936 35.4495 22.9127 35.6472 22.9065C35.8187 22.9167 35.9896 22.8774 36.1395 22.7933C36.1979 22.7532 36.2451 22.699 36.2767 22.6357C36.3084 22.5724 36.3234 22.5021 36.3204 22.4314C36.3145 22.3564 36.2817 22.286 36.2281 22.2333C36.1609 22.1587 36.0803 22.0973 35.9906 22.0523C35.8746 21.991 35.755 21.9368 35.6324 21.8899C35.497 21.8374 35.3514 21.7857 35.1955 21.7348L35.0035 21.6671C34.9354 21.6417 34.8788 21.6191 34.8336 21.5994C34.5733 21.4963 34.336 21.3423 34.1358 21.1465C33.9677 20.98 33.8331 20.7828 33.7395 20.5656C33.6526 20.3615 33.6066 20.1424 33.6041 19.9206C33.6004 19.708 33.6324 19.4962 33.6989 19.2942C33.8182 18.9017 34.0769 18.5664 34.4263 18.3514C34.8225 18.1189 35.2766 18.0036 35.7358 18.0191C35.9098 18.0187 36.0836 18.0286 36.2564 18.0486C36.3885 18.0633 36.5196 18.0859 36.649 18.1163C36.7499 18.14 36.8484 18.173 36.9432 18.2148C37.0252 18.2525 37.1019 18.2891 37.1733 18.3243C37.344 18.4155 37.4856 18.5528 37.5819 18.7206C37.6296 18.799 37.66 18.8867 37.671 18.9777C37.6821 19.0688 37.6735 19.1612 37.6459 19.2486C37.6086 19.3882 37.518 19.5075 37.3936 19.5809C37.2722 19.6473 37.1357 19.6813 36.9973 19.6794C36.9339 19.6777 36.8709 19.6674 36.8103 19.6486C36.754 19.6349 36.7003 19.612 36.6515 19.5809C36.5436 19.5124 36.4268 19.459 36.3044 19.4222C36.1255 19.3721 35.94 19.3492 35.7543 19.3545C35.6044 19.3462 35.4557 19.3845 35.3284 19.464C35.2756 19.5038 35.2331 19.5559 35.2048 19.6157C35.1765 19.6755 35.1632 19.7413 35.1659 19.8074V19.8123ZM39.6398 19.8123C39.6426 19.8897 39.6672 19.9647 39.7107 20.0287C39.7543 20.0928 39.815 20.1432 39.886 20.1742C40.1084 20.2994 40.3436 20.4005 40.5875 20.4757L40.9567 20.5988C41.1681 20.6743 41.3695 20.7756 41.5561 20.9003C41.7303 21.0168 41.8844 21.1606 42.0127 21.3262C42.1391 21.4907 42.2338 21.6772 42.2921 21.8763C42.3537 22.093 42.3766 22.3188 42.3598 22.5434C42.3534 22.7879 42.2913 23.0277 42.1783 23.2446C42.0652 23.4615 41.9042 23.6498 41.7075 23.7951C41.2254 24.1159 40.6525 24.2722 40.0743 24.2406C39.7451 24.2429 39.4167 24.2069 39.0958 24.1336C38.8149 24.0743 38.5503 23.9546 38.3204 23.7828C38.2499 23.7227 38.1885 23.6526 38.1383 23.5748C38.0889 23.4991 38.052 23.416 38.0287 23.3286C38.006 23.241 38.0022 23.1495 38.0176 23.0603C38.0341 22.9653 38.0701 22.8748 38.1235 22.7945C38.1811 22.7091 38.2624 22.6424 38.3573 22.6025C38.4523 22.5588 38.5545 22.5333 38.6589 22.5274C38.7667 22.5177 38.875 22.5386 38.9715 22.5877L39.1943 22.7108C39.2975 22.7735 39.4095 22.8204 39.5266 22.8499C39.7195 22.8936 39.9172 22.9127 40.1149 22.9065C40.2864 22.9167 40.4573 22.8774 40.6072 22.7933C40.6642 22.7526 40.7102 22.6983 40.7407 22.6353C40.7712 22.5723 40.7854 22.5026 40.782 22.4326C40.78 22.359 40.7521 22.2884 40.7032 22.2333C40.6359 22.1587 40.5554 22.0973 40.4656 22.0523C40.3496 21.991 40.23 21.9368 40.1075 21.8899C39.9721 21.8374 39.8265 21.7857 39.6706 21.7348L39.4773 21.6622C39.4092 21.6367 39.3526 21.6142 39.3075 21.5945C39.0487 21.492 38.8128 21.3393 38.6133 21.1453C38.4452 20.9788 38.3107 20.7816 38.217 20.5643C38.1301 20.3603 38.0841 20.1412 38.0816 19.9194C38.0779 19.7068 38.1099 19.495 38.1764 19.2929C38.2957 18.9005 38.5544 18.5652 38.9038 18.3502C39.2997 18.1179 39.7533 18.0026 40.2121 18.0179C40.3849 18.0181 40.5575 18.0283 40.729 18.0486C40.8611 18.0633 40.9922 18.0859 41.1216 18.1163C41.2225 18.14 41.321 18.173 41.4158 18.2148C41.4978 18.2525 41.5746 18.2891 41.646 18.3243C41.818 18.4161 41.9606 18.5548 42.057 18.7243C42.1047 18.8027 42.1351 18.8904 42.1461 18.9814C42.1571 19.0725 42.1486 19.1648 42.121 19.2523C42.0837 19.3919 41.9931 19.5112 41.8687 19.5846C41.7473 19.651 41.6108 19.685 41.4724 19.6831C41.4084 19.6804 41.345 19.6688 41.2841 19.6486C41.2278 19.6349 41.1742 19.612 41.1253 19.5809C41.0186 19.5127 40.9031 19.4593 40.782 19.4222C40.603 19.3721 40.4175 19.3492 40.2318 19.3545C40.0791 19.3444 39.927 19.3827 39.7973 19.464C39.7454 19.5044 39.7039 19.5566 39.6765 19.6164C39.6491 19.6762 39.6365 19.7417 39.6398 19.8074V19.8123ZM21.8786 30.9016C21.8751 31.0605 21.9044 31.2185 21.9647 31.3656C22.0176 31.492 22.0974 31.6054 22.1986 31.6979C22.2965 31.7856 22.4106 31.8533 22.5346 31.8973C22.6605 31.9425 22.7934 31.9654 22.9272 31.965C23.0802 31.9668 23.2331 31.954 23.3838 31.9268C23.5019 31.9048 23.6171 31.8692 23.7272 31.821C23.7821 31.7955 23.8437 31.7652 23.9118 31.7299C23.9768 31.6957 24.0471 31.6728 24.1198 31.6622C24.2432 31.6363 24.3716 31.6469 24.489 31.693C24.6077 31.7453 24.7059 31.8353 24.7684 31.949C24.8142 32.0168 24.8443 32.0939 24.8567 32.1748C24.869 32.2557 24.8633 32.3383 24.8398 32.4166C24.7926 32.5719 24.6989 32.7089 24.5715 32.8093C24.3468 32.9853 24.087 33.1112 23.8096 33.1785C23.5217 33.2553 23.2251 33.2946 22.9272 33.2954C22.6039 33.2975 22.2819 33.2561 21.9696 33.1723C21.6675 33.0916 21.3843 32.9519 21.1364 32.7613C20.8884 32.5674 20.6873 32.32 20.5481 32.0376C20.3912 31.7043 20.3149 31.3387 20.3253 30.9705V29.3951C20.3149 29.0269 20.3912 28.6613 20.5481 28.328C20.6873 28.0456 20.8884 27.7982 21.1364 27.6043C21.3843 27.4137 21.6675 27.274 21.9696 27.1933C22.2819 27.1095 22.6039 27.0681 22.9272 27.0702C23.226 27.0656 23.524 27.1012 23.8133 27.176C24.0265 27.2263 24.2294 27.3133 24.4127 27.4333C24.5608 27.5335 24.6743 27.6771 24.7376 27.8443C24.7684 27.9244 24.7803 28.0104 24.7724 28.0958C24.7645 28.1812 24.737 28.2636 24.6921 28.3366C24.6248 28.4602 24.5189 28.5583 24.3906 28.616C24.27 28.6709 24.1353 28.6869 24.0053 28.6616C23.9254 28.6465 23.8479 28.6204 23.7752 28.584L23.5906 28.4979C23.4985 28.462 23.4027 28.4364 23.305 28.4216C23.1786 28.4048 23.051 28.3974 22.9235 28.3994C22.7897 28.399 22.6568 28.4219 22.5309 28.4671C22.4078 28.5113 22.2945 28.5791 22.1973 28.6665C22.0962 28.7589 22.0163 28.8724 21.9635 28.9988C21.9032 29.1459 21.8739 29.3039 21.8773 29.4628L21.8786 30.9016ZM26.6983 27.7016C26.7619 27.4969 26.9009 27.324 27.0872 27.2179C27.2652 27.1161 27.4667 27.0626 27.6718 27.0628C27.8674 27.0643 28.0589 27.1192 28.2256 27.2216C28.4018 27.327 28.5332 27.4934 28.5949 27.6893L30.5666 33.1662H28.9087L28.6146 32.2308H26.6761L26.3893 33.1662H24.7598L26.6983 27.7016ZM27.0675 30.968H28.2281L27.6496 29.0776L27.0675 30.968ZM35.5019 29.1539C35.5099 29.487 35.4223 29.8154 35.2496 30.1003C35.0828 30.3676 34.8572 30.5932 34.5899 30.76L36.0238 33.1662H34.3179L33.1869 31.1366H32.2207V33.1662H30.6736V28.2862C30.6703 28.1008 30.6893 27.9156 30.7303 27.7348C30.7611 27.5971 30.8272 27.4699 30.9223 27.3656C31.0219 27.2639 31.1474 27.1916 31.2853 27.1563C31.4703 27.1095 31.6607 27.088 31.8515 27.0923H33.2398C33.5456 27.0915 33.85 27.133 34.1444 27.2154C34.4055 27.2856 34.6493 27.4088 34.8607 27.5773C35.0635 27.743 35.2249 27.9537 35.3321 28.1926C35.4506 28.4671 35.5085 28.7639 35.5019 29.0628V29.1539ZM32.2207 29.864H33.2053C33.3111 29.8723 33.4174 29.8576 33.517 29.8211C33.6166 29.7846 33.7072 29.727 33.7826 29.6523C33.9071 29.5188 33.9758 29.3426 33.9746 29.16V29.101C33.9758 28.9184 33.9071 28.7422 33.7826 28.6086C33.7075 28.5315 33.6165 28.4718 33.516 28.4335C33.4154 28.3952 33.3077 28.3794 33.2004 28.3871H32.4386C32.3772 28.3816 32.3158 28.3977 32.265 28.4326C32.2276 28.4837 32.2113 28.5471 32.2195 28.6099L32.2207 29.864ZM38.3204 27.0936C38.6487 27.0935 38.9753 27.1403 39.2903 27.2326C39.6079 27.3242 39.9019 27.4838 40.1518 27.7003C40.4194 27.9374 40.6297 28.2319 40.7672 28.5619C40.9347 28.9814 41.0143 29.4309 41.001 29.8825V30.3748C41.0143 30.8264 40.9347 31.2759 40.7672 31.6954C40.6297 32.0254 40.4194 32.3199 40.1518 32.557C39.9019 32.7735 39.6079 32.933 39.2903 33.0246C38.9754 33.1178 38.6488 33.1655 38.3204 33.1662H37.1918C37.0011 33.1705 36.8106 33.149 36.6256 33.1022C36.4883 33.0671 36.3632 32.9952 36.2638 32.8942C36.1688 32.7899 36.1026 32.6626 36.0718 32.525C36.0309 32.3445 36.0119 32.1598 36.0152 31.9748V28.2825C36.0121 28.0983 36.0311 27.9144 36.0718 27.7348C36.1026 27.5971 36.1688 27.4699 36.2638 27.3656C36.3631 27.2641 36.4882 27.1918 36.6256 27.1563C36.8106 27.1095 37.0011 27.088 37.1918 27.0923L38.3204 27.0936ZM39.4589 29.7643C39.4829 29.3967 39.3653 29.0339 39.1303 28.7502C39.0205 28.6333 38.8868 28.5415 38.7384 28.4809C38.5899 28.4204 38.4301 28.3926 38.27 28.3994H37.7776C37.7152 28.3913 37.6519 28.4057 37.5992 28.44C37.5618 28.4911 37.5455 28.5545 37.5536 28.6173V31.6425C37.5455 31.7052 37.5618 31.7687 37.5992 31.8197C37.6504 31.8534 37.7118 31.8681 37.7727 31.8616H38.265C38.4254 31.8686 38.5854 31.8409 38.7341 31.7803C38.8828 31.7198 39.0167 31.6278 39.1266 31.5108C39.3603 31.2266 39.4765 30.8638 39.4515 30.4966L39.4589 29.7643Z" fill="#33302B"/>
</svg>
