<svg width="56" height="56" viewBox="0 0 56 56" fill="none" xmlns="http://www.w3.org/2000/svg">
<path d="M48.5083 11.0014H33.6022C31.7645 11.0039 29.9644 11.4899 28.4061 12.4042C26.8418 11.4897 25.0363 11.0038 23.1935 11.0014H8.2884C7.96379 11.0014 7.65247 11.1224 7.42294 11.3379C7.1934 11.5534 7.06445 11.8456 7.06445 12.1504V39.2722C7.06821 39.5759 7.19836 39.8661 7.42709 40.0808C7.65581 40.2955 7.96495 40.4177 8.2884 40.4212H23.1935C24.8048 40.4197 26.3727 40.9119 27.6589 41.8231C27.87 41.9777 28.1301 42.0617 28.3978 42.0617C28.6656 42.0617 28.9256 41.9777 29.1367 41.8231C30.4241 40.914 31.9912 40.4221 33.6022 40.4212H48.5083C48.8329 40.4212 49.1442 40.3002 49.3737 40.0847C49.6033 39.8692 49.7322 39.577 49.7322 39.2722C49.7322 39.2722 49.7322 13.3895 49.7322 12.1513C49.7322 10.9132 49.9139 11.0014 48.5083 11.0014Z" fill="white" stroke="#323232" stroke-width="2" stroke-linecap="round"/>
<path d="M28.3984 11.748V41.5845" stroke="#323232" stroke-width="2"/>
<path d="M34.9297 19.7188H43.4632" stroke="#323232" stroke-width="2" stroke-linecap="round"/>
<path d="M34.9297 25.7266H43.4632" stroke="#323232" stroke-width="2" stroke-linecap="round"/>
<path d="M34.9297 31.7363H43.4632" stroke="#323232" stroke-width="2" stroke-linecap="round"/>
<path d="M13.2578 19.7188H21.7914" stroke="#323232" stroke-width="2" stroke-linecap="round"/>
<path d="M13.2578 25.7266H21.7914" stroke="#323232" stroke-width="2" stroke-linecap="round"/>
<path d="M13.2578 31.7363H21.7914" stroke="#323232" stroke-width="2" stroke-linecap="round"/>
<path d="M42 43.5L44.5981 42L47.0981 46.3301C47.3742 46.8084 47.2103 47.42 46.7321 47.6962L45.866 48.1962C45.3877 48.4723 44.7761 48.3084 44.5 47.8301L42 43.5Z" fill="white" stroke="#323232" stroke-width="2" stroke-linejoin="round"/>
<circle cx="39.5" cy="36.5" r="7.5" fill="#FFE591" stroke="#323232" stroke-width="2"/>
<path d="M39.75 40.5C40.1642 40.5 40.5 40.1642 40.5 39.75C40.5 39.3358 40.1642 39 39.75 39C39.3358 39 39 39.3358 39 39.75C39 40.1642 39.3358 40.5 39.75 40.5Z" fill="#323232"/>
<rect x="39" y="33" width="1.5" height="5" rx="0.75" fill="#323232"/>
</svg>
