<svg width="42" height="46" viewBox="0 0 42 46" fill="none" xmlns="http://www.w3.org/2000/svg">
<path d="M31 1L41 11V35H16C13.2386 35 11 32.7614 11 30V6C11 3.23858 13.2386 1 16 1H31Z" fill="white"/>
<path d="M31 1L31.7071 0.292893C31.5196 0.105357 31.2652 0 31 0V1ZM41 11H42C42 10.7348 41.8946 10.4804 41.7071 10.2929L41 11ZM41 35V36C41.5523 36 42 35.5523 42 35H41ZM16 35V36V35ZM11 30H10H11ZM11 6H10H11ZM16 1V0V1ZM31 1L30.2929 1.70711L40.2929 11.7071L41 11L41.7071 10.2929L31.7071 0.292893L31 1ZM41 11H40V35H41H42V11H41ZM41 35V34H16V35V36H41V35ZM16 35V34C13.7909 34 12 32.2091 12 30H11H10C10 33.3137 12.6863 36 16 36V35ZM11 30H12V6H11H10V30H11ZM11 6H12C12 3.79086 13.7909 2 16 2V1V0C12.6863 1.19209e-07 10 2.68629 10 6H11ZM16 1V2H31V1V0H16V1Z" fill="#323232"/>
<path d="M17 23L35 23" stroke="#323232" stroke-width="2" stroke-miterlimit="10" stroke-linecap="round"/>
<path d="M24 17L35 17" stroke="#323232" stroke-width="2" stroke-miterlimit="10" stroke-linecap="round"/>
<path d="M17 29H35" stroke="#323232" stroke-width="2" stroke-miterlimit="10" stroke-linecap="round"/>
<path d="M31 11L41 11L31 1L31 11Z" fill="#9EE56F" stroke="#323232" stroke-width="2" stroke-linejoin="round"/>
<path d="M21 11L31 21V45H6C3.23858 45 1 42.7614 1 40V16C1 13.2386 3.23858 11 6 11H21Z" fill="white"/>
<path d="M21 11L21.7071 10.2929C21.5196 10.1054 21.2652 10 21 10V11ZM31 21H32C32 20.7348 31.8946 20.4804 31.7071 20.2929L31 21ZM31 45V46C31.5523 46 32 45.5523 32 45H31ZM6 45V46V45ZM1 40H0H1ZM1 16H0H1ZM6 11V10V11ZM21 11L20.2929 11.7071L30.2929 21.7071L31 21L31.7071 20.2929L21.7071 10.2929L21 11ZM31 21H30V45H31H32V21H31ZM31 45V44H6V45V46H31V45ZM6 45V44C3.79086 44 2 42.2091 2 40H1H0C1.19209e-07 43.3137 2.68629 46 6 46V45ZM1 40H2V16H1H0V40H1ZM1 16H2C2 13.7909 3.79086 12 6 12V11V10C2.68629 10 4.76837e-07 12.6863 0 16H1ZM6 11V12H21V11V10H6V11Z" fill="#323232"/>
<path d="M7 33L25 33" stroke="#323232" stroke-width="2" stroke-miterlimit="10" stroke-linecap="round"/>
<path d="M14 27L25 27" stroke="#323232" stroke-width="2" stroke-miterlimit="10" stroke-linecap="round"/>
<path d="M7 39H25" stroke="#323232" stroke-width="2" stroke-miterlimit="10" stroke-linecap="round"/>
<path d="M21 21L31 21L21 11L21 21Z" fill="#9EE56F" stroke="#323232" stroke-width="2" stroke-linejoin="round"/>
<path d="M10.5 16.239V23.5551C10.5 24.9033 9.49071 26 8.25 26C7.00929 26 6 24.9033 6 23.5551V15.8897C6 13.1864 8.01214 11 10.5 11C12.9879 11 15 13.1864 15 15.8897V19.3456" stroke="#323232" stroke-width="2" stroke-miterlimit="10" stroke-linecap="round"/>
</svg>
