<svg width="56" height="56" viewBox="0 0 56 56" fill="none" xmlns="http://www.w3.org/2000/svg">
<path d="M38 6L48 16V40H23C20.2386 40 18 37.7614 18 35V11C18 8.23858 20.2386 6 23 6H38Z" fill="white"/>
<path d="M38 6L38.7071 5.29289C38.5196 5.10536 38.2652 5 38 5V6ZM48 16H49C49 15.7348 48.8946 15.4804 48.7071 15.2929L48 16ZM48 40V41C48.5523 41 49 40.5523 49 40H48ZM23 40L23 41H23V40ZM18 35L17 35V35L18 35ZM18 11L17 11V11H18ZM23 6L23 5H23L23 6ZM38 6L37.2929 6.70711L47.2929 16.7071L48 16L48.7071 15.2929L38.7071 5.29289L38 6ZM48 16H47V40H48H49V16H48ZM48 40V39H23V40V41H48V40ZM23 40L23 39C20.7909 39 19 37.2091 19 35L18 35L17 35C17 38.3137 19.6863 41 23 41L23 40ZM18 35H19V11H18H17V35H18ZM18 11L19 11C19 8.79086 20.7909 7 23 7L23 6L23 5C19.6863 5 17 7.68629 17 11L18 11ZM23 6V7H38V6V5H23V6Z" fill="#323232"/>
<path d="M24 28L42 28" stroke="#323232" stroke-width="2" stroke-miterlimit="10" stroke-linecap="round"/>
<path d="M31 22L42 22" stroke="#323232" stroke-width="2" stroke-miterlimit="10" stroke-linecap="round"/>
<path d="M24 34H42" stroke="#323232" stroke-width="2" stroke-miterlimit="10" stroke-linecap="round"/>
<path d="M38 16L48 16L38 6L38 16Z" fill="#FFE591" stroke="#323232" stroke-width="2" stroke-linejoin="round"/>
<path d="M28 16L38 26V50H13C10.2386 50 8 47.7614 8 45V21C8 18.2386 10.2386 16 13 16H28Z" fill="white"/>
<path d="M28 16L28.7071 15.2929C28.5196 15.1054 28.2652 15 28 15V16ZM38 26H39C39 25.7348 38.8946 25.4804 38.7071 25.2929L38 26ZM38 50V51C38.5523 51 39 50.5523 39 50H38ZM13 50L13 51H13V50ZM8 45L7 45L7 45L8 45ZM8 21L7 21V21H8ZM13 16L13 15H13L13 16ZM28 16L27.2929 16.7071L37.2929 26.7071L38 26L38.7071 25.2929L28.7071 15.2929L28 16ZM38 26H37V50H38H39V26H38ZM38 50V49H13V50V51H38V50ZM13 50L13 49C10.7909 49 9 47.2091 9 45L8 45L7 45C7 48.3137 9.68629 51 13 51L13 50ZM8 45H9V21H8H7V45H8ZM8 21L9 21C9 18.7909 10.7909 17 13 17L13 16L13 15C9.68629 15 7 17.6863 7 21L8 21ZM13 16V17H28V16V15H13V16Z" fill="#323232"/>
<path d="M14 38L32 38" stroke="#323232" stroke-width="2" stroke-miterlimit="10" stroke-linecap="round"/>
<path d="M21 32L32 32" stroke="#323232" stroke-width="2" stroke-miterlimit="10" stroke-linecap="round"/>
<path d="M14 44H32" stroke="#323232" stroke-width="2" stroke-miterlimit="10" stroke-linecap="round"/>
<path d="M28 26L38 26L28 16L28 26Z" fill="#FFE591" stroke="#323232" stroke-width="2" stroke-linejoin="round"/>
<path d="M17.5 21.239V28.5551C17.5 29.9033 16.4907 31 15.25 31C14.0093 31 13 29.9033 13 28.5551V20.8897C13 18.1864 15.0121 16 17.5 16C19.9879 16 22 18.1864 22 20.8897V24.3456" stroke="#323232" stroke-width="2" stroke-miterlimit="10" stroke-linecap="round"/>
</svg>
