<svg width="56" height="56" viewBox="0 0 56 56" fill="none" xmlns="http://www.w3.org/2000/svg">
<path d="M36 8C38.7614 8 41 10.2386 41 13V33.4209C41 36.1823 38.7614 38.4209 36 38.4209H18.4443C17.8601 40.4861 15.9632 41.9998 13.7109 42H7V13C7 10.2386 9.23858 8 12 8H36Z" fill="white"/>
<path d="M36 8L36 7H36V8ZM36 38.4209L36 39.4209H36L36 38.4209ZM18.4443 38.4209V37.4209H17.688L17.4821 38.1487L18.4443 38.4209ZM13.7109 42L13.7109 43L13.711 43L13.7109 42ZM7 42H6V43H7V42ZM12 8L12 7L12 7L12 8ZM36 8L36 9C38.2091 9 40 10.7909 40 13H41H42C42 9.68629 39.3137 7 36 7L36 8ZM41 13H40V33.4209H41H42V13H41ZM41 33.4209H40C40 35.63 38.2091 37.4209 36 37.4209L36 38.4209L36 39.4209C39.3137 39.4209 42 36.7346 42 33.4209H41ZM36 38.4209V37.4209H18.4443V38.4209V39.4209H36V38.4209ZM18.4443 38.4209L17.4821 38.1487C17.0163 39.7954 15.5034 40.9999 13.7109 41L13.7109 42L13.711 43C16.423 42.9998 18.7039 41.1769 19.4066 38.6931L18.4443 38.4209ZM13.7109 42V41H7V42V43H13.7109V42ZM7 42H8V13H7H6V42H7ZM7 13H8C8 10.7909 9.79086 9 12 9L12 8L12 7C8.68629 7 6 9.68629 6 13H7ZM12 8V9H36V8V7H12V8Z" fill="#323232"/>
<path d="M32.0527 47.3691H41.0001" stroke="#323232" stroke-width="2" stroke-miterlimit="10" stroke-linecap="round"/>
<path d="M11.4746 8.89453L11.4746 38.4208" stroke="#323232" stroke-width="2" stroke-miterlimit="10" stroke-linecap="round"/>
<path d="M7 42.8956C7 40.4248 9.00294 38.4219 11.4737 38.4219H38.3158V47.3692H11.4737C9.00294 47.3692 7 45.3663 7 42.8956V42.8956Z" fill="white" stroke="#323232" stroke-width="2" stroke-linejoin="round"/>
<rect x="16" y="16" width="34" height="14" rx="7" fill="#FFE591" stroke="#323232" stroke-width="2" stroke-linejoin="round"/>
<path d="M33.4365 20.6836C34.8165 20.6837 35.8311 21.7433 35.8311 23.1865C35.831 24.6297 34.8165 25.6893 33.4365 25.6895C32.0564 25.6895 31.041 24.6298 31.041 23.1865C31.041 21.7432 32.0564 20.6836 33.4365 20.6836ZM38.6494 20.6836C40.0294 20.6837 41.0439 21.7433 41.0439 23.1865C41.0439 24.6297 40.0294 25.6893 38.6494 25.6895C37.2693 25.6895 36.2539 24.6298 36.2539 23.1865C36.2539 21.7432 37.2693 20.6836 38.6494 20.6836ZM42.8916 22.7803L44.5625 20.7812H45.9033L44.1406 22.9111L45.9941 25.5918H44.5801L43.3477 23.8447L42.8916 24.3896V25.5918H41.6826V20.7812H42.8916V22.7803ZM24.3818 21.8291H22.209V22.6426H24.125V23.6562H22.209V24.5381H24.4619V25.5859H21V20.7812H24.3818V21.8291ZM28.7373 20.7812C29.8721 20.7812 30.4257 21.2964 30.4258 22.0352C30.4258 22.4933 30.2144 22.8662 29.8438 23.0781C30.3284 23.2729 30.6309 23.6853 30.6309 24.2637V24.2686C30.6309 25.0989 30.0149 25.5858 28.8574 25.5859H26.5303V20.7812H28.7373ZM27.7393 24.6064H28.7598C29.1761 24.6064 29.3984 24.4465 29.3984 24.1201C29.3984 23.7879 29.1761 23.6328 28.7598 23.6328H27.7393V24.6064ZM33.4424 21.8115C32.7922 21.8115 32.2783 22.3561 32.2783 23.1865C32.2783 24.017 32.7923 24.5605 33.4424 24.5605C34.0923 24.5603 34.6054 24.0168 34.6055 23.1865C34.6055 22.3562 34.0923 21.8117 33.4424 21.8115ZM38.6553 21.8115C38.0051 21.8115 37.4912 22.3561 37.4912 23.1865C37.4912 24.017 38.0051 24.5605 38.6553 24.5605C39.3052 24.5603 39.8183 24.0168 39.8184 23.1865C39.8184 22.3562 39.3052 21.8117 38.6553 21.8115ZM25.8008 23.5586H25.0039V22.5566H25.8008V23.5586ZM27.7393 22.6885H28.5781C28.9827 22.6884 29.1933 22.5278 29.1934 22.2188C29.1934 21.9096 28.9827 21.7609 28.5781 21.7607H27.7393V22.6885Z" fill="#323232"/>
</svg>
