<svg width="45" height="42" viewBox="0 0 45 42" fill="none" xmlns="http://www.w3.org/2000/svg">
<path d="M30 1C32.7614 1 35 3.23858 35 6V26.4209C35 29.1823 32.7614 31.4209 30 31.4209H12.4443C11.8601 33.4861 9.96321 34.9998 7.71094 35H1V6C1 3.23858 3.23858 1 6 1H30Z" fill="white"/>
<path d="M30 1V0V1ZM30 31.4209V32.4209V31.4209ZM12.4443 31.4209V30.4209H11.688L11.4821 31.1487L12.4443 31.4209ZM7.71094 35V36H7.71102L7.71094 35ZM1 35H0V36H1V35ZM6 1V0V1ZM30 1V2C32.2091 2 34 3.79086 34 6H35H36C36 2.68629 33.3137 4.76837e-07 30 0V1ZM35 6H34V26.4209H35H36V6H35ZM35 26.4209H34C34 28.63 32.2091 30.4209 30 30.4209V31.4209V32.4209C33.3137 32.4209 36 29.7346 36 26.4209H35ZM30 31.4209V30.4209H12.4443V31.4209V32.4209H30V31.4209ZM12.4443 31.4209L11.4821 31.1487C11.0163 32.7954 9.5034 33.9999 7.71086 34L7.71094 35L7.71102 36C10.423 35.9998 12.7039 34.1769 13.4066 31.6931L12.4443 31.4209ZM7.71094 35V34H1V35V36H7.71094V35ZM1 35H2V6H1H0V35H1ZM1 6H2C2 3.79086 3.79086 2 6 2V1V0C2.68629 1.19209e-07 0 2.68629 0 6H1ZM6 1V2H30V1V0H6V1Z" fill="#323232"/>
<path d="M26.0508 40.3691H34.9981" stroke="#323232" stroke-width="2" stroke-miterlimit="10" stroke-linecap="round"/>
<path d="M5.47266 1.89453L5.47265 31.4208" stroke="#323232" stroke-width="2" stroke-miterlimit="10" stroke-linecap="round"/>
<path d="M1 35.8956C1 33.4248 3.00294 31.4219 5.47368 31.4219H32.3158V40.3692H5.47368C3.00294 40.3692 1 38.3663 1 35.8956Z" fill="white" stroke="#323232" stroke-width="2" stroke-linejoin="round"/>
<rect x="10" y="9" width="34" height="14" rx="7" fill="#FFE591" stroke="#323232" stroke-width="2" stroke-linejoin="round"/>
<path d="M27.4365 13.6836C28.8165 13.6837 29.8311 14.7433 29.8311 16.1865C29.831 17.6297 28.8165 18.6893 27.4365 18.6895C26.0564 18.6895 25.041 17.6298 25.041 16.1865C25.041 14.7432 26.0564 13.6836 27.4365 13.6836ZM32.6494 13.6836C34.0294 13.6837 35.0439 14.7433 35.0439 16.1865C35.0439 17.6297 34.0294 18.6893 32.6494 18.6895C31.2693 18.6895 30.2539 17.6298 30.2539 16.1865C30.2539 14.7432 31.2693 13.6836 32.6494 13.6836ZM36.8916 15.7803L38.5625 13.7812H39.9033L38.1406 15.9111L39.9941 18.5918H38.5801L37.3477 16.8447L36.8916 17.3896V18.5918H35.6826V13.7812H36.8916V15.7803ZM18.3818 14.8291H16.209V15.6426H18.125V16.6562H16.209V17.5381H18.4619V18.5859H15V13.7812H18.3818V14.8291ZM22.7373 13.7812C23.8721 13.7812 24.4257 14.2964 24.4258 15.0352C24.4258 15.4933 24.2144 15.8662 23.8438 16.0781C24.3284 16.2729 24.6309 16.6853 24.6309 17.2637V17.2686C24.6309 18.0989 24.0149 18.5858 22.8574 18.5859H20.5303V13.7812H22.7373ZM21.7393 17.6064H22.7598C23.1761 17.6064 23.3984 17.4465 23.3984 17.1201C23.3984 16.7879 23.1761 16.6328 22.7598 16.6328H21.7393V17.6064ZM27.4424 14.8115C26.7922 14.8115 26.2783 15.3561 26.2783 16.1865C26.2783 17.017 26.7923 17.5605 27.4424 17.5605C28.0923 17.5603 28.6054 17.0168 28.6055 16.1865C28.6055 15.3562 28.0923 14.8117 27.4424 14.8115ZM32.6553 14.8115C32.0051 14.8115 31.4912 15.3561 31.4912 16.1865C31.4912 17.017 32.0051 17.5605 32.6553 17.5605C33.3052 17.5603 33.8183 17.0168 33.8184 16.1865C33.8184 15.3562 33.3052 14.8117 32.6553 14.8115ZM19.8008 16.5586H19.0039V15.5566H19.8008V16.5586ZM21.7393 15.6885H22.5781C22.9827 15.6884 23.1933 15.5278 23.1934 15.2188C23.1934 14.9096 22.9827 14.7609 22.5781 14.7607H21.7393V15.6885Z" fill="#323232"/>
</svg>
