<svg width="56" height="56" viewBox="0 0 56 56" fill="none" xmlns="http://www.w3.org/2000/svg">
<path d="M8 17C8 14.2386 10.2386 12 13 12H43C45.7614 12 48 14.2386 48 17V42C48 44.7614 45.7614 47 43 47H13C10.2386 47 8 44.7614 8 42V17Z" fill="white" stroke="#323232" stroke-width="2"/>
<line x1="8" y1="20" x2="48" y2="20" stroke="#323232" stroke-width="2"/>
<path d="M18 16L18 8" stroke="#323232" stroke-width="2" stroke-linecap="round"/>
<path d="M38 16L38 8" stroke="#323232" stroke-width="2" stroke-linecap="round"/>
<path d="M28 25L30.7979 29.6491L36.084 30.8734L32.527 34.9709L32.9962 40.3766L28 38.26L23.0038 40.3766L23.473 34.9709L19.916 30.8734L25.2021 29.6491L28 25Z" fill="#FFE591" stroke="#323232" stroke-width="2" stroke-linejoin="round"/>
</svg>
