<svg width="56" height="56" viewBox="0 0 56 56" fill="none" xmlns="http://www.w3.org/2000/svg">
<path d="M43.0098 25.6545C43.0098 24.9993 43.0098 24.6717 43.0012 24.3947C42.7084 14.9165 35.0932 7.30132 25.6151 7.00856C25.338 7 25.0104 7 24.3552 7V7C23.7 7 23.3724 7 23.0954 7.00856C13.6172 7.30132 6.002 14.9165 5.70923 24.3947C5.70067 24.6717 5.70067 24.9993 5.70067 25.6545V37.5256C5.70067 40.1396 5.70067 41.4466 6.28958 42.4064C6.61799 42.9416 7.06813 43.3918 7.60338 43.7202C8.56321 44.3091 9.87019 44.3091 12.4841 44.3091H24.3552C25.0104 44.3091 25.338 44.3091 25.6151 44.3005C35.0932 44.0078 42.7084 36.3926 43.0012 26.9144C43.0098 26.6374 43.0098 26.3098 43.0098 25.6545V25.6545Z" fill="white" stroke="#323232" stroke-width="2"/>
<path d="M15 26H27" stroke="#323232" stroke-width="2" stroke-miterlimit="10" stroke-linecap="round"/>
<path d="M15 32H24" stroke="#323232" stroke-width="2" stroke-miterlimit="10" stroke-linecap="round"/>
<path d="M15 20H33" stroke="#323232" stroke-width="2" stroke-miterlimit="10" stroke-linecap="round"/>
<path d="M28.5 37.0543C28.5 30.7583 33.604 25.6543 39.9 25.6543V25.6543C46.196 25.6543 51.3 30.7583 51.3 37.0543V44.3088C51.3 44.8662 51.3 45.1448 51.2687 45.3787C51.0568 46.964 49.8097 48.2111 48.2244 48.423C47.9905 48.4543 47.7119 48.4543 47.1545 48.4543H39.9C33.604 48.4543 28.5 43.3503 28.5 37.0543V37.0543Z" fill="#FFE591" stroke="#323232" stroke-width="2"/>
<path d="M38 34.8462C38 33.8266 38.8954 33 40 33C41.1046 33 42 33.8266 42 34.8462C42 35.2137 41.8837 35.5561 41.6831 35.8438C41.0854 36.7012 40 37.5189 40 38.5385V39" stroke="#323232" stroke-width="2" stroke-linecap="round"/>
<path d="M40.1367 41.9746H40.1473" stroke="#323232" stroke-width="2" stroke-linecap="round" stroke-linejoin="round"/>
</svg>
