<svg width="56" height="56" viewBox="0 0 56 56" fill="none" xmlns="http://www.w3.org/2000/svg">
<path d="M36.6123 37.0784L35.4272 38.1518C34.4038 39.0787 34.3256 40.6597 35.2525 41.683L40.5806 47.5658C41.5075 48.5891 43.0885 48.6673 44.1119 47.7405L45.297 46.667C46.3204 45.7402 46.3986 44.1592 45.4717 43.1358L40.1435 37.2531C39.2166 36.2297 37.6357 36.1515 36.6123 37.0784Z" fill="#FFE591" stroke="#323232" stroke-width="2" stroke-miterlimit="10"/>
<path d="M25.424 42.056C35.047 42.056 42.848 34.2084 42.848 24.528C42.848 14.8476 35.047 7 25.424 7C15.801 7 8 14.8476 8 24.528C8 34.2084 15.801 42.056 25.424 42.056Z" fill="white" stroke="#323232" stroke-width="2" stroke-miterlimit="10"/>
<path d="M25.1056 12.1652C25.2456 12.1592 25.3856 12.1582 25.5276 12.1582C28.4649 12.1588 31.3062 13.2048 33.5426 15.1091C35.7791 17.0133 37.2648 19.6514 37.7336 22.5511C38.2025 25.4508 37.624 28.4226 36.1017 30.9347C34.5793 33.4467 32.2125 35.335 29.4251 36.2612C26.6376 37.1875 23.6115 37.0914 20.8884 35.9901C18.1653 34.8887 15.9232 32.8542 14.5633 30.2505C13.2035 27.6469 12.8147 24.6443 13.4667 21.7803C14.1187 18.9162 15.7688 16.3777 18.1216 14.6192" stroke="#323232" stroke-width="2" stroke-linecap="round" stroke-linejoin="round"/>
<path d="M25.293 18.8262V26.3562" stroke="#323232" stroke-width="2" stroke-linecap="round" stroke-linejoin="round"/>
<path d="M25.2911 30.8458C25.9599 30.8458 26.5021 30.3036 26.5021 29.6348C26.5021 28.966 25.9599 28.4238 25.2911 28.4238C24.6223 28.4238 24.0801 28.966 24.0801 29.6348C24.0801 30.3036 24.6223 30.8458 25.2911 30.8458Z" fill="#323232"/>
</svg>
