<svg width="56" height="56" viewBox="0 0 56 56" fill="none" xmlns="http://www.w3.org/2000/svg">
<path fill-rule="evenodd" clip-rule="evenodd" d="M26.5853 5.66404C27.4479 5.11199 28.5528 5.11199 29.4153 5.66404L51.2903 19.664C52.5114 20.4455 52.8678 22.0689 52.0863 23.29C51.3048 24.5111 49.6814 24.8675 48.4603 24.086L46.3753 22.7516V43.75C46.3753 47.616 43.2413 50.75 39.3753 50.75H16.6253C12.7593 50.75 9.62532 47.616 9.62532 43.75V22.7516L7.54034 24.086C6.31926 24.8675 4.69585 24.5111 3.91436 23.29C3.13287 22.0689 3.48923 20.4455 4.71031 19.664L26.5853 5.66404Z" stroke="white" stroke-width="2" stroke-linecap="round" stroke-linejoin="round"/>
<path fill-rule="evenodd" clip-rule="evenodd" d="M19.0002 30.8125C19.0002 32.106 19.5105 33.2803 20.3407 34.145L26.4965 40.4632C27.1835 41.1684 28.3167 41.1683 29.0036 40.463L35.0351 34.2701C35.9386 33.3952 36.5002 32.1694 36.5002 30.8125C36.5002 28.1546 34.3456 26 31.6877 26C30.06 26 28.6211 27.7924 27.7502 29.0292C26.8792 27.7924 25.4403 26 23.8127 26C21.1548 26 19.0002 28.1546 19.0002 30.8125Z" fill="#FFE591"/>
</svg>
