<svg width="56" height="56" viewBox="0 0 56 56" fill="none" xmlns="http://www.w3.org/2000/svg">
<path d="M31.8806 20.8643C34.9888 19.6513 39.5611 19.3563 45.7292 22.3857L46.3318 22.6895L46.4255 22.7441C46.6364 22.8843 46.7872 23.1005 46.8455 23.3496L52.7742 48.7725C52.8435 49.0696 52.7725 49.3831 52.5828 49.6221C52.3931 49.8608 52.1045 50 51.7996 50H4.19995C3.89493 50 3.60645 49.8609 3.41675 49.6221C3.22705 49.3831 3.15702 49.0696 3.22632 48.7725L9.15405 23.3496C9.22058 23.0649 9.409 22.8239 9.6687 22.6895C16.1422 19.3383 20.9104 19.6122 24.1189 20.8643C25.7034 21.4826 26.8657 22.3238 27.6355 23.0156C27.7686 23.1352 27.8896 23.2512 27.9998 23.3604C28.1101 23.2511 28.2317 23.1354 28.365 23.0156C29.1348 22.3238 30.2963 21.4826 31.8806 20.8643Z" fill="#FFD139" stroke="#323232" stroke-width="2" stroke-linecap="round" stroke-linejoin="round"/>
<path d="M27.9989 21.6893C27.9989 21.6893 23.4818 14.6863 12.9418 20.5222L6.91895 46.2C17.4589 40.3641 27.9989 46.2 27.9989 46.2C27.9989 46.2 38.5389 40.3641 49.0789 46.2L43.0561 20.5222C32.5161 14.6863 27.9989 21.6893 27.9989 21.6893ZM27.9989 21.6893V46.2V21.6893Z" fill="white"/>
<path d="M27.9989 21.6893C27.9989 21.6893 23.4818 14.6863 12.9418 20.5222L6.91895 46.2C17.4589 40.3641 27.9989 46.2 27.9989 46.2M27.9989 21.6893C27.9989 21.6893 32.5161 14.6863 43.0561 20.5222L49.0789 46.2C38.5389 40.3641 27.9989 46.2 27.9989 46.2M27.9989 21.6893V46.2" stroke="#323232" stroke-width="2" stroke-linecap="round" stroke-linejoin="round"/>
<path d="M31.4001 39.1999C33.4401 37.7999 40.2401 36.4 44.3201 39.1999" stroke="#323232" stroke-width="2" stroke-linecap="round"/>
<path d="M31.4001 35.1597C33.118 33.9472 38.8801 32.2 42.9601 34.9999" stroke="#323232" stroke-width="2" stroke-linecap="round"/>
<path d="M31.4001 30.8001C32.8149 29.7117 38.8801 28.7 42.2801 30.8001" stroke="#323232" stroke-width="2" stroke-linecap="round"/>
<path d="M24.5999 39.0242C22.5599 37.6242 15.7599 36.2243 11.6799 39.0242" stroke="#323232" stroke-width="2" stroke-linecap="round"/>
<path d="M24.5999 34.984C22.882 33.7715 17.1199 32.0243 13.0399 34.8243" stroke="#323232" stroke-width="2" stroke-linecap="round"/>
<path d="M24.5999 30.6244C23.1851 29.536 17.1199 28.5243 13.7199 30.6244" stroke="#323232" stroke-width="2" stroke-linecap="round"/>
<path d="M40.6002 13.3951C42.0007 12.3489 42.0009 12.3488 42.0042 10.6001C43.0508 12.0013 43.0508 12.0012 44.7996 12.0046C43.3985 13.0513 43.3986 13.0512 43.3952 14.8001C42.3486 13.399 42.3485 13.399 40.5999 13.3956L40.5996 13.3956L40.6002 13.3951Z" fill="#323232"/>
<path d="M11.2008 7.79505C12.6013 6.74882 12.6015 6.74871 12.6048 5C13.6514 6.40116 13.6514 6.40109 15.4002 6.40449C13.9991 7.45118 13.9992 7.45111 13.9958 9.2C12.9492 7.79891 12.9491 7.79891 11.2005 7.79551L11.2002 7.79551L11.2008 7.79505Z" fill="#323232"/>
<path d="M32.8425 8.94189C33.9191 6.54354 33.9192 6.54329 32.6461 4.24221C35.0455 5.31939 35.0454 5.31935 37.3467 4.04624C36.2696 6.44565 36.2696 6.4455 37.5428 8.74688C35.1435 7.66975 35.1434 7.66979 32.8424 8.94275L32.842 8.94295L32.8425 8.94189Z" fill="#323232"/>
<path d="M18.2014 11.99C21.0024 9.89755 21.0027 9.89732 21.0094 6.3999C23.1027 9.20222 23.1025 9.20208 26.6002 9.20889C23.798 11.3023 23.7981 11.3021 23.7913 14.7999C21.6981 11.9977 21.698 11.9977 18.2007 11.9909L18.2002 11.9909L18.2014 11.99Z" fill="#323232"/>
</svg>
