<svg width="56" height="56" viewBox="0 0 56 56" fill="none" xmlns="http://www.w3.org/2000/svg">
<path d="M37.973 12.543H13.643C13.1651 12.5424 12.6918 12.636 12.2501 12.8184C11.8084 13.0008 11.4069 13.2685 11.0687 13.606C10.7304 13.9436 10.4619 14.3444 10.2785 14.7857C10.0952 15.227 10.0005 15.7001 10 16.178V45.978C10.0004 46.4559 10.095 46.9291 10.2783 47.3705C10.4616 47.812 10.73 48.213 11.0683 48.5506C11.4066 48.8882 11.8081 49.156 12.2499 49.3384C12.6916 49.5209 13.165 49.6145 13.643 49.614H37.973C38.9382 49.6148 39.8642 49.2322 40.5474 48.5503C41.2306 47.8684 41.6149 46.9432 41.616 45.978V16.178C41.6147 15.2129 41.2302 14.2879 40.5471 13.6063C39.8639 12.9246 38.9381 12.5422 37.973 12.543Z" fill="white" stroke="#323232" stroke-width="2" stroke-linecap="round" stroke-linejoin="round"/>
<path d="M23.6719 22.9707H33.6719" stroke="#323232" stroke-width="2" stroke-linecap="round" stroke-linejoin="round"/>
<path d="M16.541 22.5117L18.285 24.5347L20.902 21.2637" stroke="#323232" stroke-width="2" stroke-linecap="round" stroke-linejoin="round"/>
<path d="M33.6719 40.9707L46.6719 27.9707" stroke="#323232" stroke-width="2" stroke-linecap="round" stroke-linejoin="round"/>
<path d="M33.9871 13.6322V10.5843C33.985 10.4945 33.9653 10.406 33.9289 10.3239C33.8926 10.2419 33.8404 10.1678 33.7754 10.1059C33.7104 10.0441 33.6337 9.99562 33.55 9.96341C33.4662 9.93121 33.3768 9.91585 33.2871 9.91825H31.5471C31.4574 9.92064 31.368 9.90528 31.2842 9.87308C31.2005 9.84088 31.1238 9.79244 31.0588 9.73056C30.9938 9.66869 30.9416 9.59463 30.9053 9.51255C30.8689 9.43046 30.8492 9.34197 30.8471 9.25223V6.66526C30.8424 6.48427 30.766 6.31254 30.6347 6.18784C30.5035 6.06314 30.3281 5.99565 30.1471 6.00022H21.4611C21.2801 5.99565 21.1047 6.06314 20.9734 6.18784C20.8422 6.31254 20.7658 6.48427 20.7611 6.66526V9.25223C20.759 9.34197 20.7392 9.43046 20.7029 9.51255C20.6666 9.59463 20.6144 9.66869 20.5494 9.73056C20.4843 9.79244 20.4077 9.84088 20.3239 9.87308C20.2402 9.90528 20.1508 9.92064 20.0611 9.91825H18.3211C18.2314 9.91585 18.142 9.93121 18.0583 9.96341C17.9745 9.99562 17.8979 10.0441 17.8328 10.1059C17.7678 10.1678 17.7156 10.2419 17.6793 10.3239C17.6429 10.406 17.6232 10.4945 17.6211 10.5843V13.6322" fill="#FFE591"/>
<path d="M33.9871 13.6322V10.5843C33.985 10.4945 33.9653 10.406 33.9289 10.3239C33.8926 10.2419 33.8404 10.1678 33.7754 10.1059C33.7104 10.0441 33.6337 9.99562 33.55 9.96341C33.4662 9.93121 33.3768 9.91585 33.2871 9.91825H31.5471C31.4574 9.92064 31.368 9.90528 31.2842 9.87308C31.2005 9.84088 31.1238 9.79244 31.0588 9.73056C30.9938 9.66869 30.9416 9.59463 30.9053 9.51255C30.8689 9.43046 30.8492 9.34197 30.8471 9.25223V6.66526C30.8424 6.48427 30.766 6.31254 30.6347 6.18784C30.5035 6.06314 30.3281 5.99565 30.1471 6.00022H21.4611C21.2801 5.99565 21.1047 6.06314 20.9734 6.18784C20.8422 6.31254 20.7658 6.48427 20.7611 6.66526V9.25223C20.759 9.34197 20.7392 9.43046 20.7029 9.51255C20.6666 9.59463 20.6144 9.66869 20.5494 9.73056C20.4843 9.79244 20.4077 9.84088 20.3239 9.87308C20.2402 9.90528 20.1508 9.92064 20.0611 9.91825H18.3211C18.2314 9.91585 18.142 9.93121 18.0583 9.96341C17.9745 9.99562 17.8979 10.0441 17.8328 10.1059C17.7678 10.1678 17.7156 10.2419 17.6793 10.3239C17.6429 10.406 17.6232 10.4945 17.6211 10.5843V13.6322" stroke="#323232" stroke-width="2" stroke-linecap="round" stroke-linejoin="round"/>
<path d="M17.6328 12.543V14.1609C17.6524 14.3278 17.7368 14.4803 17.8677 14.5856C17.9986 14.6909 18.1656 14.7406 18.3328 14.724H33.2918C33.459 14.7406 33.626 14.6909 33.7569 14.5856C33.8878 14.4803 33.9722 14.3278 33.9918 14.1609V12.543" fill="#FFE591"/>
<path d="M17.6328 12.543V14.1609C17.6524 14.3278 17.7368 14.4803 17.8677 14.5856C17.9986 14.6909 18.1656 14.7406 18.3328 14.724H33.2918C33.459 14.7406 33.626 14.6909 33.7569 14.5856C33.8878 14.4803 33.9722 14.3278 33.9918 14.1609V12.543" stroke="#323232" stroke-width="2" stroke-linecap="round" stroke-linejoin="round"/>
<path d="M23.6719 31.9707H33.6719" stroke="#323232" stroke-width="2" stroke-linecap="round" stroke-linejoin="round"/>
<path d="M23.6719 40.9707H33.6719" stroke="#323232" stroke-width="2" stroke-linecap="round" stroke-linejoin="round"/>
<path d="M16.541 31.2363L18.285 33.2593L20.902 29.9883" stroke="#323232" stroke-width="2" stroke-linecap="round" stroke-linejoin="round"/>
<path d="M16.541 39.957L18.285 41.98L20.902 38.709" stroke="#323232" stroke-width="2" stroke-linecap="round" stroke-linejoin="round"/>
</svg>
