<svg width="56" height="56" viewBox="0 0 56 56" fill="none" xmlns="http://www.w3.org/2000/svg">
<path d="M6 15H45C47.7614 15 50 17.2386 50 20V44C50 46.7614 47.7614 49 45 49H11C8.23858 49 6 46.7614 6 44V15Z" fill="white" stroke="#323232" stroke-width="2"/>
<path d="M6 12C6 9.23858 8.23858 7 11 7H24C26.7614 7 29 9.23858 29 12V15H6V12Z" fill="#FFE591" stroke="#323232" stroke-width="2"/>
<path d="M21 34C21 33.4477 20.5523 33 20 33C19.4477 33 19 33.4477 19 34H21ZM20 35.25H19H20ZM37 34C37 33.4477 36.5523 33 36 33C35.4477 33 35 33.4477 35 34H37ZM28.7079 24.7071C29.0985 24.3166 29.0985 23.6834 28.7079 23.2929C28.3174 22.9024 27.6843 22.9024 27.2937 23.2929L28.7079 24.7071ZM22.2937 28.2929C21.9032 28.6834 21.9032 29.3166 22.2937 29.7071C22.6843 30.0976 23.3174 30.0976 23.7079 29.7071L22.2937 28.2929ZM28.7079 23.2929C28.3174 22.9024 27.6843 22.9024 27.2937 23.2929C26.9032 23.6834 26.9032 24.3166 27.2937 24.7071L28.7079 23.2929ZM32.2937 29.7071C32.6843 30.0976 33.3174 30.0976 33.7079 29.7071C34.0985 29.3166 34.0985 28.6834 33.7079 28.2929L32.2937 29.7071ZM29.0008 24C29.0008 23.4477 28.5531 23 28.0008 23C27.4485 23 27.0008 23.4477 27.0008 24H29.0008ZM27.0008 34C27.0008 34.5523 27.4485 35 28.0008 35C28.5531 35 29.0008 34.5523 29.0008 34H27.0008ZM20 34H19V35.25H20H21V34H20ZM20 35.25H19C19 37.7871 20.9003 40 23.4286 40V39V38C22.1698 38 21 36.855 21 35.25H20ZM23.4286 39V40H32.5714V39V38H23.4286V39ZM32.5714 39V40C35.0997 40 37 37.7871 37 35.25H36H35C35 36.855 33.8302 38 32.5714 38V39ZM36 35.25H37V34H36H35V35.25H36ZM28.0008 24L27.2937 23.2929L22.2937 28.2929L23.0008 29L23.7079 29.7071L28.7079 24.7071L28.0008 24ZM28.0008 24L27.2937 24.7071L32.2937 29.7071L33.0008 29L33.7079 28.2929L28.7079 23.2929L28.0008 24ZM28.0008 24H27.0008V34H28.0008H29.0008V24H28.0008Z" fill="#323232"/>
</svg>
