<svg width="38" height="44" viewBox="0 0 38 44" fill="none" xmlns="http://www.w3.org/2000/svg">
<rect x="5" y="1" width="32" height="42" rx="3" fill="white" stroke="#323232" stroke-width="2"/>
<rect x="1" y="9" width="8" height="4" rx="2" fill="white" stroke="#323232" stroke-width="2"/>
<rect x="1" y="20" width="8" height="4" rx="2" fill="white" stroke="#323232" stroke-width="2"/>
<rect x="1" y="31" width="8" height="4" rx="2" fill="white" stroke="#323232" stroke-width="2"/>
<path d="M23 14C20.5061 14 18.3676 15.268 17.4621 17.0725C16.9667 18.0597 17.8954 19 19 19H27C28.1046 19 29.0333 18.0597 28.5379 17.0725C27.6324 15.268 25.4939 14 23 14Z" fill="#FFE591" stroke="#323232" stroke-width="2" stroke-linejoin="round"/>
<circle cx="23" cy="11" r="3" fill="#FFE591" stroke="#323232" stroke-width="2"/>
<path d="M18.0391 25.0488H28.0391" stroke="#323232" stroke-width="2" stroke-miterlimit="10" stroke-linecap="round"/>
<path d="M18.0391 30.0488H28.0391" stroke="#323232" stroke-width="2" stroke-miterlimit="10" stroke-linecap="round"/>
<path d="M18 35.0977H28.039" stroke="#323232" stroke-width="2" stroke-miterlimit="10" stroke-linecap="round"/>
</svg>
