<svg width="56" height="56" viewBox="0 0 56 56" fill="none" xmlns="http://www.w3.org/2000/svg">
<path d="M2.21301 23.9023H2.70203L5.729 28.3893V32.2413H7.31299V34.8893H1V32.2413H2.21301V23.9023Z" fill="#03205C"/>
<path d="M30.1481 21V25.39H26.59V23.622H23.3V26.363H27.207V29.005H23.3V32.243H26.59V30.4H30.1481V34.89H17.748V32.248H19.048V23.627H17.748V21H30.1481Z" fill="#03205C"/>
<path d="M37.9648 21V23.622H36.8749V32.243H39.5279V29.72H42.9828V34.885H31.4648V32.243H32.5959V23.622H31.4648V21H37.9648Z" fill="#03205C"/>
<path d="M55.0011 26.165H51.9781V23.622H50.2501V32.243H51.9571V34.885H44.3081V32.243H45.9941V23.622H44.2261V26.165H41.2031V21H55.0031L55.0011 26.165Z" fill="#03205C"/>
<path d="M10.9774 34.886L3.11243 23.563H1.02344V21H6.9234L11.9614 28.291V23.563H10.5614V21H16.7514V23.563H15.3974V34.886H10.9774Z" fill="#E96D0A"/>
</svg>
