<svg width="56" height="56" viewBox="0 0 56 56" fill="none" xmlns="http://www.w3.org/2000/svg">
<path d="M6.54416 26.785L31.9839 13.0731L37.9729 38.2837L9.8003 38.9371L6.54416 26.785Z" fill="#FFE591"/>
<path fill-rule="evenodd" clip-rule="evenodd" d="M5.79741 26.8565L32.2454 11.8223L39.5299 39.0087L27.1092 38.93C28.0663 41.7334 26.4711 43.849 23.5433 44.6335C20.6155 45.418 18.0841 44.3079 17.563 41.3354L17.0335 39.3594L9.10824 39.2127L5.79741 26.8565Z" stroke="#323232" stroke-width="2" stroke-linecap="round" stroke-linejoin="round"/>
<path d="M48.4037 22.095L44.1258 23.2412" stroke="#323232" stroke-width="2" stroke-linecap="round"/>
<path d="M46.67 35.6718L42.8301 33.4219" stroke="#323232" stroke-width="2" stroke-linecap="round"/>
<path d="M40.1185 11.2051L37.9135 15.0748" stroke="#323232" stroke-width="2" stroke-linecap="round"/>
<path d="M39.5303 39.0089L40.1926 41.4806" stroke="#323232" stroke-width="2" stroke-linecap="round"/>
<path d="M32.2453 11.8224L31.583 9.35073" stroke="#323232" stroke-width="2" stroke-linecap="round"/>
<path d="M5.79806 26.8556L5.13577 24.3839" stroke="#323232" stroke-width="2" stroke-linecap="round"/>
<path d="M9.77072 41.6838L9.10843 39.2121" stroke="#323232" stroke-width="2" stroke-linecap="round"/>
<path d="M17.0334 39.3598L27.1091 38.9304" stroke="#323232" stroke-width="2" stroke-linecap="round"/>
</svg>
