<svg width="56" height="56" viewBox="0 0 56 56" fill="none" xmlns="http://www.w3.org/2000/svg">
<path d="M50.7312 30.5713L50.7312 35.7141L18.5234 35.7141L18.5234 30.5713L29.2415 30.5713C29.3846 30.6399 29.5278 30.7084 29.6888 30.7581C29.7783 30.8113 34.2874 32.1999 34.375 32.217C35.0389 32.4227 35.7367 32.1484 36.0212 31.5827C36.2019 31.2587 36.3272 30.9313 36.3809 30.5713L50.7312 30.5713Z" fill="#FFD139"/>
<path d="M43.5753 39.1426L36.418 39.1426L36.418 42.5711L43.5753 42.5711L43.5753 39.1426Z" fill="#FFD139"/>
<path d="M18.5273 26.857L18.5273 43.4284C18.5273 44.8512 19.7262 45.9998 21.2113 45.9998L48.0512 45.9998C49.5363 45.9998 50.7352 44.8512 50.7352 43.4284L50.7352 27.9999C50.7352 26.577 49.5363 25.4285 48.0512 25.4285L30.2098 25.4285" fill="#FFD139"/>
<rect x="19" y="30" width="32" height="6" fill="white"/>
<path d="M19 26.4583L19 43.375C19 44.8275 20.1911 46 21.6667 46L48.3333 46C49.8089 46 51 44.8275 51 43.375L51 27.625C51 26.1725 49.8089 25 48.3333 25L30.6071 25" stroke="#323232" stroke-width="2" stroke-linecap="round" stroke-linejoin="round"/>
<path d="M9.5 20.5L5.5 20.5V10H30L39 18.5L41 25.5H35.5L33 20.5L26 19L30 25.5C30.5 25.6667 32 26.2 34 27C36.5 28 36.5 30 36 31.5C35.6 32.7 34.1667 32.3333 33.5 32C32 31.6667 28.6 30.7 27 29.5C25 28 23 27 19.5 26.5C16.7 26.1 15 25 14.5 24.5L9.5 20.5Z" fill="white"/>
<path d="M6 10L30.0127 10L38.9772 18.4L41 25" stroke="#323232" stroke-width="2" stroke-linecap="round" stroke-linejoin="round"/>
<path d="M35.5 24.9484L32.8398 20.2856L25.6825 18.5713L29.9769 25.3427C30.0127 25.3598 30.1022 25.3941 30.2077 25.4284C30.4243 25.5141 30.7463 25.6513 31.1382 25.8073C32.015 26.1655 33.2514 26.6455 34.2695 27.0587C35.1642 27.4187 35.862 28.1044 36.202 28.9615C36.3988 29.4741 36.4525 30.0398 36.3827 30.5712C36.329 30.9312 36.202 31.257 36.023 31.5827C35.7385 32.1484 35.0407 32.4227 34.3769 32.217C34.2892 32.1998 29.7801 30.813 29.6906 30.7581C29.5296 30.7084 29.3864 30.6398 29.2433 30.5712C28.8318 30.3844 28.456 30.1598 28.0802 29.901C27.5971 29.5924 27.1498 29.2341 26.6488 28.8724C24.4837 27.2455 21.7657 26.3695 18.9905 26.3695C17.4696 26.3695 16.0023 25.8724 14.8393 24.9484L9.58043 20.2839L6 20.2839" stroke="#323232" stroke-width="2" stroke-linecap="round" stroke-linejoin="round"/>
<path d="M50 31L37 31" stroke="#323232" stroke-width="2" stroke-linecap="round" stroke-linejoin="round"/>
<path d="M19 31H30" stroke="#323232" stroke-width="2" stroke-linecap="round" stroke-linejoin="round"/>
<path d="M19 36L51 36" stroke="#323232" stroke-width="2" stroke-linecap="round" stroke-linejoin="round"/>
<path d="M23.8945 40.8572L29.2625 40.8572" stroke="#323232" stroke-width="2" stroke-linecap="round" stroke-linejoin="round"/>
<path d="M43.5753 39.1426L36.418 39.1426L36.418 42.5711L43.5753 42.5711L43.5753 39.1426Z" fill="white" stroke="#323232" stroke-width="2" stroke-linecap="round" stroke-linejoin="round"/>
<path d="M35 25L40.368 25" stroke="#323232" stroke-width="2" stroke-linecap="round" stroke-linejoin="round"/>
</svg>
