<svg width="56" height="56" viewBox="0 0 56 56" fill="none" xmlns="http://www.w3.org/2000/svg">
<rect x="6" y="12.6511" width="27.6279" height="26.6047" fill="white"/>
<path d="M6 14.6977C6 13.0023 7.37438 11.6279 9.06977 11.6279H33.6279V17.7675H9.06977C7.37438 17.7675 6 16.3931 6 14.6977Z" fill="#FFD139"/>
<path d="M11.1172 20.8371C11.1172 19.1417 12.4916 17.7673 14.187 17.7673H33.6288V23.9069H14.187C12.4916 23.9069 11.1172 22.5325 11.1172 20.8371Z" fill="#FFD139"/>
<path d="M15.2109 26.9767C15.2109 25.2814 16.5853 23.907 18.2807 23.907H33.6295V30.0465H18.2807C16.5853 30.0465 15.2109 28.6721 15.2109 26.9767Z" fill="#FFD139"/>
<path d="M33.6279 11.6279V39.2558H8C6.89543 39.2558 6 38.3604 6 37.2558V15" stroke="#323232" stroke-width="2" stroke-linecap="round" stroke-linejoin="round"/>
<path d="M33.6279 11.6279H9.06977C7.37438 11.6279 6 13.0023 6 14.6977V14.6977C6 16.3931 7.37438 17.7675 9.06976 17.7675H17.2558" stroke="#323232" stroke-width="2" stroke-linecap="round" stroke-linejoin="round"/>
<path d="M19.3032 17.7673H14.187C12.4916 17.7673 11.1172 19.1417 11.1172 20.8371V20.8371C11.1172 22.5325 12.4916 23.9069 14.187 23.9069H20.3265" stroke="#323232" stroke-width="2" stroke-linecap="round" stroke-linejoin="round"/>
<path d="M22.3737 23.907H18.2807C16.5853 23.907 15.2109 25.2814 15.2109 26.9767V26.9767C15.2109 28.6721 16.5853 30.0465 18.2807 30.0465H24.4202" stroke="#323232" stroke-width="2" stroke-linecap="round" stroke-linejoin="round"/>
<path d="M33.6289 20.8372H45.908L50.001 30.0465V39.2558H33.6289V20.8372Z" fill="white" stroke="#323232" stroke-width="2" stroke-linejoin="round"/>
<path d="M41.8125 20.8372H45.9055L49.9985 30.0465H41.8125V20.8372Z" fill="#FFD139" stroke="#323232" stroke-width="2" stroke-linejoin="round"/>
<circle cx="15.7218" cy="39.7675" r="4.60465" fill="#FFD139" stroke="#323232" stroke-width="2"/>
<circle cx="15.7224" cy="39.7676" r="1.53488" fill="#323232"/>
<circle cx="41.3" cy="39.7675" r="4.60465" fill="#FFD139" stroke="#323232" stroke-width="2"/>
<circle cx="41.3005" cy="39.7676" r="1.53488" fill="#323232"/>
</svg>
