<svg width="44" height="44" viewBox="0 0 44 44" fill="none" xmlns="http://www.w3.org/2000/svg">
<path d="M8.61905 25.3673C11.0571 24.7374 12.3439 20.86 12.6825 19L16.7321 20L21.3175 19C21.8254 21.449 22.7872 24.3878 25.381 25.3673C30.4603 26.3469 30.9683 26.8367 31.9841 29.2857C32.7968 31.2449 33 39.2449 33 43H1C1 39.6472 1.20317 32.2104 2.01587 29.2857C3.03175 25.6298 5.57143 26.1548 8.61905 25.3673Z" fill="white"/>
<path d="M12.6825 19C12.3439 20.86 11.0571 24.7374 8.61905 25.3673C5.57143 26.1548 3.03175 25.6298 2.01587 29.2857C1.20317 32.2104 1 39.6472 1 43H33C33 39.2449 32.7968 31.2449 31.9841 29.2857C30.9683 26.8367 30.4603 26.3469 25.381 25.3673C22.7872 24.3878 21.8254 21.449 21.3175 19" stroke="#323232" stroke-width="2" stroke-linecap="round" stroke-linejoin="round"/>
<path d="M8 43L8 34" stroke="#323232" stroke-width="2" stroke-linecap="round"/>
<path d="M18.7627 23C19.087 23 19.3916 23.1573 19.5791 23.4219C19.7666 23.6866 19.8137 24.026 19.7061 24.332L18.6836 27.2383L19.9883 35.8506C20.0318 36.1386 19.9477 36.4315 19.7578 36.6523C19.5679 36.873 19.2912 37 19 37H16C15.7057 37 15.4263 36.8703 15.2363 36.6455C15.0463 36.4206 14.9645 36.1233 15.0137 35.833L16.4678 27.2393L15.3799 24.3525C15.2642 24.0454 15.3065 23.7006 15.4932 23.4307C15.6799 23.1609 15.9874 23.0001 16.3154 23H18.7627Z" fill="#FFD139" stroke="#323232" stroke-width="2" stroke-linejoin="round"/>
<path d="M20.6316 24C20.5263 24 20.3684 23.9529 20.2632 23.9059C20.1053 23.8118 20 23.6235 20 23.4353V20.5647C20 20.2353 20.2632 20 20.6316 20H23.3684C23.7368 20 24 20.2353 24 20.5647V22.5412C24 22.7765 23.8421 23.0118 23.5789 23.0588L20.8421 23.9529C20.7895 24 20.6842 24 20.6316 24Z" fill="white"/>
<path d="M14.3684 24C14.4737 24 14.6316 23.9529 14.7368 23.9059C14.8947 23.8118 15 23.6235 15 23.4353V20.5647C15 20.2353 14.7368 20 14.3684 20H11.6316C11.2632 20 11 20.2353 11 20.5647V22.5412C11 22.7765 11.1579 23.0118 11.4211 23.0588L14.1579 23.9529C14.2105 24 14.3158 24 14.3684 24Z" fill="white"/>
<path d="M20.6316 24C20.5263 24 20.3684 23.9529 20.2632 23.9059C20.1053 23.8118 20 23.6235 20 23.4353V20.5647C20 20.2353 20.2632 20 20.6316 20H23.3684C23.7368 20 24 20.2353 24 20.5647V22.5412C24 22.7765 23.8421 23.0118 23.5789 23.0588L20.8421 23.9529C20.7895 24 20.6842 24 20.6316 24Z" stroke="#323232" stroke-width="2"/>
<path d="M14.3684 24C14.4737 24 14.6316 23.9529 14.7368 23.9059C14.8947 23.8118 15 23.6235 15 23.4353V20.5647C15 20.2353 14.7368 20 14.3684 20H11.6316C11.2632 20 11 20.2353 11 20.5647V22.5412C11 22.7765 11.1579 23.0118 11.4211 23.0588L14.1579 23.9529C14.2105 24 14.3158 24 14.3684 24Z" stroke="#323232" stroke-width="2"/>
<path d="M10 2.74312C10 1.78042 10.7804 1 11.7431 1H22.2569C23.2196 1 24 1.78042 24 2.74312V13C24 16.866 20.866 20 17 20C13.134 20 10 16.866 10 13V2.74312Z" fill="white"/>
<path d="M10 3C10 1.89543 10.8954 1 12 1H22C23.1046 1 24 1.89543 24 3V8H10V3Z" fill="#FFD139"/>
<path d="M10 2.74312C10 1.78042 10.7804 1 11.7431 1H22.2569C23.2196 1 24 1.78042 24 2.74312V13C24 16.866 20.866 20 17 20V20C13.134 20 10 16.866 10 13V2.74312Z" stroke="#323232" stroke-width="2" stroke-linejoin="round"/>
<path d="M10 8H29" stroke="#323232" stroke-width="2" stroke-linecap="round"/>
<rect x="23" y="22" width="20" height="21" fill="#FFD139" stroke="#323232" stroke-width="2" stroke-linejoin="round"/>
<rect x="30" y="22" width="6" height="10" fill="white" stroke="#323232" stroke-width="2" stroke-linejoin="round"/>
</svg>
