<svg width="56" height="56" viewBox="0 0 56 56" fill="none" xmlns="http://www.w3.org/2000/svg">
<path d="M43.159 10.0014H28.715C26.9343 10.0041 25.19 10.5057 23.68 11.4494C22.1642 10.5054 20.4147 10.0039 18.629 10.0014H4.186C3.87145 10.0014 3.56979 10.1264 3.34737 10.3488C3.12495 10.5712 3 10.8729 3 11.1874L3 39.1824C3.00364 39.4958 3.12976 39.7954 3.35139 40.017C3.57303 40.2387 3.87258 40.3648 4.186 40.3684H18.629C20.1904 40.3669 21.7096 40.8749 22.956 41.8154C23.1606 41.975 23.4126 42.0617 23.672 42.0617C23.9314 42.0617 24.1834 41.975 24.388 41.8154C25.6355 40.8771 27.154 40.3693 28.715 40.3684H43.159C43.4735 40.3684 43.7752 40.2435 43.9976 40.021C44.22 39.7986 44.345 39.497 44.345 39.1824C44.345 39.1824 44.345 12.4664 44.345 11.1884C44.345 9.91041 44.521 10.0014 43.159 10.0014Z" fill="white" stroke="#323232" stroke-width="2" stroke-linecap="round"/>
<path d="M23.6738 10.7715V41.5685" stroke="#323232" stroke-width="2"/>
<path d="M8.68359 18.8887H16.9526" stroke="#323232" stroke-width="2" stroke-linecap="round"/>
<path d="M8.68359 25.0898H16.9526" stroke="#323232" stroke-width="2" stroke-linecap="round"/>
<path d="M8.68359 31.293H16.9526" stroke="#323232" stroke-width="2" stroke-linecap="round"/>
<path d="M30.3926 18.8887H38.6616" stroke="#323232" stroke-width="2" stroke-linecap="round"/>
<path d="M30.3926 25.0898H38.6616" stroke="#323232" stroke-width="2" stroke-linecap="round"/>
<path d="M30.3926 31.293H38.6616" stroke="#323232" stroke-width="2" stroke-linecap="round"/>
<path d="M44.5 29.002H28.5C23.8056 29.002 20 32.8075 20 37.502C20 42.1964 23.8056 46.002 28.5 46.002H44.5C49.1944 46.002 53 42.1964 53 37.502C53 32.8075 49.1944 29.002 44.5 29.002Z" fill="#FFE591"/>
<path d="M44.5 30.002H28.5C24.3579 30.002 21 33.3598 21 37.502C21 41.6441 24.3579 45.002 28.5 45.002H44.5C48.6421 45.002 52 41.6441 52 37.502C52 33.3598 48.6421 30.002 44.5 30.002Z" stroke="#323232" stroke-width="2"/>
<path d="M28.7794 41.0019H26.9494V35.4619H25.6094V34.0019H28.7794V41.0019ZM34.0394 36.8119C34.5542 36.8857 35.0285 37.1326 35.3844 37.5119C35.6987 37.8784 35.8646 38.3493 35.8494 38.8319C35.8521 39.2358 35.7374 39.6319 35.5194 39.9719C35.2716 40.3422 34.9228 40.6338 34.5144 40.8119C33.9932 41.0396 33.4279 41.1489 32.8594 41.1319C32.3669 41.132 31.8763 41.0698 31.3994 40.9469C30.9574 40.8397 30.5354 40.6624 30.1494 40.4219L30.8494 39.0119C31.1335 39.2036 31.4455 39.3504 31.7744 39.4469C32.1099 39.5491 32.4586 39.6013 32.8094 39.6019C33.1125 39.6191 33.4142 39.5497 33.6794 39.4019C33.7792 39.3446 33.8616 39.2613 33.9179 39.161C33.9743 39.0606 34.0024 38.9469 33.9994 38.8319C33.9994 38.3452 33.6094 38.1019 32.8294 38.1019H32.0294V36.8919L33.3494 35.4619H30.5194V34.0019H35.5194V35.1819L34.0394 36.8119ZM40.0594 41.0019H38.2294V35.4619H36.8894V34.0019H40.0594V41.0019ZM45.0094 36.5619C45.4336 36.5568 45.8531 36.651 46.2344 36.8369C46.5929 37.0101 46.8972 37.2781 47.1144 37.6119C47.3338 37.9548 47.4469 38.3549 47.4394 38.7619C47.4481 39.2053 47.3226 39.641 47.0794 40.0119C46.8364 40.3744 46.497 40.6619 46.0994 40.8419C45.6665 41.0394 45.1952 41.1385 44.7194 41.1319C44.2892 41.1545 43.8591 41.0866 43.4568 40.9324C43.0546 40.7782 42.6892 40.5413 42.3844 40.2369C41.774 39.5271 41.467 38.6059 41.5294 37.6719C41.5104 36.961 41.6685 36.2565 41.9894 35.6219C42.2778 35.0667 42.7275 34.6117 43.2794 34.3169C43.869 34.0116 44.5256 33.8586 45.1894 33.8719C45.5649 33.8706 45.9392 33.9142 46.3044 34.0019C46.623 34.074 46.9272 34.1991 47.2044 34.3719L46.5344 35.7119C46.1478 35.4624 45.6943 35.3368 45.2344 35.3519C44.839 35.3394 44.4489 35.4457 44.1144 35.6569C43.8019 35.8679 43.5722 36.1806 43.4644 36.5419C43.4377 36.6419 43.4044 36.7986 43.3644 37.0119C43.8538 36.6972 44.4279 36.5401 45.0094 36.5619ZM44.6194 39.7719C44.8916 39.7836 45.1586 39.6946 45.3694 39.5219C45.465 39.4392 45.5408 39.3361 45.591 39.22C45.6412 39.104 45.6646 38.9782 45.6594 38.8519C45.6653 38.724 45.6423 38.5965 45.5921 38.4788C45.5419 38.361 45.4657 38.2561 45.3694 38.1719C45.1553 37.9981 44.8848 37.9091 44.6094 37.9219C44.3294 37.9104 44.0551 38.003 43.8394 38.1819C43.7423 38.2639 43.6649 38.3667 43.6129 38.4827C43.561 38.5987 43.5358 38.7249 43.5394 38.8519C43.5341 38.9777 43.5569 39.1032 43.6062 39.2191C43.6555 39.335 43.73 39.4384 43.8244 39.5219C44.0495 39.7003 44.3326 39.7893 44.6194 39.7719Z" fill="#323232"/>
</svg>
