<svg width="56" height="56" viewBox="0 0 56 56" fill="none" xmlns="http://www.w3.org/2000/svg">
<path d="M18.3789 9H45.3499C45.8266 8.99987 46.2987 9.09368 46.7392 9.27606C47.1797 9.45844 47.5799 9.72582 47.917 10.0629C48.2541 10.4 48.5215 10.8003 48.7039 11.2407C48.8863 11.6812 48.98 12.1533 48.9799 12.63V15.281C48.9799 15.4109 48.9285 15.5355 48.8368 15.6275C48.7452 15.7195 48.6208 15.7715 48.4909 15.772H33.6789" fill="white"/>
<path d="M18.3789 9H45.3499C45.8266 8.99987 46.2987 9.09368 46.7392 9.27606C47.1797 9.45844 47.5799 9.72582 47.917 10.0629C48.2541 10.4 48.5215 10.8003 48.7039 11.2407C48.8863 11.6812 48.98 12.1533 48.9799 12.63V15.281C48.9799 15.4109 48.9285 15.5355 48.8368 15.6275C48.7452 15.7195 48.6208 15.7715 48.4909 15.772H33.6789" stroke="#323232" stroke-width="2" stroke-miterlimit="10"/>
<path d="M44.6435 9H17.7075C17.0195 9.01497 16.3655 9.30213 15.8888 9.79849C15.4121 10.2949 15.1516 10.9599 15.1645 11.648V43.564C15.1516 44.2521 15.4121 44.9172 15.8888 45.4135C16.3655 45.9099 17.0195 46.197 17.7075 46.212H40.1915C41.5915 46.212 42.7355 44.626 42.7365 43.163V12.27" fill="white"/>
<path d="M44.6435 9H17.7075C17.0195 9.01497 16.3655 9.30213 15.8888 9.79849C15.4121 10.2949 15.1516 10.9599 15.1645 11.648V43.564C15.1516 44.2521 15.4121 44.9172 15.8888 45.4135C16.3655 45.9099 17.0195 46.197 17.7075 46.212H40.1915C41.5915 46.212 42.7355 44.626 42.7365 43.163V12.27" stroke="#323232" stroke-width="2" stroke-miterlimit="10"/>
<path d="M39.3928 46.2333H12.6378C11.727 46.2817 10.834 45.9677 10.1539 45.3599C9.47375 44.7521 9.06174 43.8999 9.00781 42.9894V40.6213C9.01503 40.4983 9.07081 40.3832 9.16287 40.3012C9.25494 40.2193 9.37576 40.1773 9.49881 40.1844H35.9988C36.1215 40.1778 36.2418 40.2201 36.3335 40.302C36.4251 40.3839 36.4806 40.4987 36.4878 40.6213V43.5213" fill="white"/>
<path d="M39.3928 46.2333H12.6378C11.727 46.2817 10.834 45.9677 10.1539 45.3599C9.47375 44.7521 9.06174 43.8999 9.00781 42.9894V40.6213C9.01503 40.4983 9.07081 40.3832 9.16287 40.3012C9.25494 40.2193 9.37576 40.1773 9.49881 40.1844H35.9988C36.1215 40.1778 36.2418 40.2201 36.3335 40.302C36.4251 40.3839 36.4806 40.4987 36.4878 40.6213V43.5213" stroke="#323232" stroke-width="2" stroke-miterlimit="10"/>
<path d="M42.7358 42.5605C42.7808 43.3813 42.5016 44.1869 41.9582 44.8038C41.4149 45.4206 40.651 45.7993 39.831 45.8582C39.0111 45.917 38.2009 45.6514 37.575 45.1186C36.9491 44.5857 36.5576 43.8283 36.4848 43.0095C36.4738 42.8605 36.4738 40.9185 36.4848 40.7695" fill="white"/>
<path d="M42.7358 42.5605C42.7808 43.3813 42.5016 44.1869 41.9582 44.8038C41.4149 45.4206 40.651 45.7993 39.831 45.8582C39.0111 45.917 38.2009 45.6514 37.575 45.1186C36.9491 44.5857 36.5576 43.8283 36.4848 43.0095C36.4738 42.8605 36.4738 40.9185 36.4848 40.7695" stroke="#323232" stroke-width="2" stroke-miterlimit="10" stroke-linecap="round"/>
<path d="M21 21H32" stroke="#323232" stroke-width="2" stroke-miterlimit="10" stroke-linecap="round"/>
<path d="M21 26H30" stroke="#323232" stroke-width="2" stroke-miterlimit="10" stroke-linecap="round"/>
<path d="M42.7355 12.3813C42.6921 11.9691 42.7332 11.5523 42.8562 11.1565C42.9792 10.7606 43.1815 10.394 43.4507 10.0789C43.72 9.76376 44.0506 9.50677 44.4225 9.32358C44.7943 9.14038 45.1995 9.03482 45.6135 9.01333C46.0241 8.9781 46.4377 9.02487 46.8301 9.15094C47.2226 9.277 47.586 9.47984 47.8993 9.74765C48.2126 10.0155 48.4696 10.3429 48.6552 10.7109C48.8408 11.0789 48.9514 11.4802 48.9805 11.8913C48.9805 12.0543 48.9925 12.8473 48.9805 13.0093" fill="white"/>
<path d="M42.7355 12.3813C42.6921 11.9691 42.7332 11.5523 42.8562 11.1565C42.9792 10.7606 43.1815 10.394 43.4507 10.0789C43.72 9.76376 44.0506 9.50677 44.4225 9.32358C44.7943 9.14038 45.1995 9.03482 45.6135 9.01333C46.0241 8.9781 46.4377 9.02487 46.8301 9.15094C47.2226 9.277 47.586 9.47984 47.8993 9.74765C48.2126 10.0155 48.4696 10.3429 48.6552 10.7109C48.8408 11.0789 48.9514 11.4802 48.9805 11.8913C48.9805 12.0543 48.9925 12.8473 48.9805 13.0093" stroke="#323232" stroke-width="2" stroke-miterlimit="10" stroke-linecap="round"/>
<path d="M21 16H36" stroke="#323232" stroke-width="2" stroke-miterlimit="10" stroke-linecap="round"/>
<path d="M21 31H28" stroke="#323232" stroke-width="2" stroke-miterlimit="10" stroke-linecap="round"/>
<path d="M43 42.5L45.5981 41L48.0981 45.3301C48.3742 45.8084 48.2103 46.42 47.7321 46.6962L46.866 47.1962C46.3877 47.4723 45.7761 47.3084 45.5 46.8301L43 42.5Z" fill="white" stroke="#323232" stroke-width="2" stroke-linejoin="round"/>
<circle cx="40.5" cy="35.5" r="7.5" fill="#FFE591" stroke="#323232" stroke-width="2"/>
<path d="M40.75 39.5C41.1642 39.5 41.5 39.1642 41.5 38.75C41.5 38.3358 41.1642 38 40.75 38C40.3358 38 40 38.3358 40 38.75C40 39.1642 40.3358 39.5 40.75 39.5Z" fill="#323232"/>
<rect x="40" y="32" width="1.5" height="5" rx="0.75" fill="#323232"/>
</svg>
