<svg width="56" height="56" viewBox="0 0 56 56" fill="none" xmlns="http://www.w3.org/2000/svg">
<path d="M7 9C7 7.89543 7.89543 7 9 7H47C48.1046 7 49 7.89543 49 9V39C49 40.1046 48.1046 41 47 41H9C7.89543 41 7 40.1046 7 39V9Z" fill="white" stroke="#323232" stroke-width="2"/>
<g clip-path="url(#clip0_1607_15377)">
<path d="M17.8189 22.3071V23.6286H20.6519V24.9357H17.8189V26.9929H16V21H21.0382V22.3071H17.8189Z" fill="#323232"/>
<path d="M24.6995 25.4H23.7095V26.9929H21.8906V21H24.8283C26.5828 21 27.6773 21.85 27.6773 23.2214C27.6773 24.1071 27.2186 24.7571 26.4218 25.1143L27.8061 27H25.8584L24.6914 25.4071L24.6995 25.4ZM24.7156 22.3357H23.7095V24.0929H24.7156C25.4641 24.0929 25.8423 23.7643 25.8423 23.2214C25.8423 22.6786 25.4641 22.3357 24.7156 22.3357Z" fill="#323232"/>
<path d="M33.8347 25.6857V26.9929H28.6758V21H33.714V22.3071H30.4786V23.3214H33.3277V24.5857H30.4786V25.6857H33.8347Z" fill="#323232"/>
<path d="M40.0007 25.6857V26.9929H34.8418V21H39.88V22.3071H36.6446V23.3214H39.4937V24.5857H36.6446V25.6857H40.0007Z" fill="#323232"/>
</g>
<path d="M20.5 49C22.5 46.6 22.6667 42.6667 22.5 41H33.5C33.5 44.6 34.8333 47.8333 35.5 49H20.5Z" fill="white" stroke="#323232" stroke-width="2" stroke-linejoin="round"/>
<line x1="15" y1="49" x2="39" y2="49" stroke="#323232" stroke-width="2" stroke-linecap="round"/>
<line x1="17" y1="49" x2="41" y2="49" stroke="#323232" stroke-width="2" stroke-linecap="round"/>
<path d="M40.71 39.28L38 27L50.32 30.04L47.82 32.54L53.33 38.05L48.86 42.53L43.24 36.91L40.71 39.28Z" fill="#FFE591"/>
<path d="M40.71 39.28L38 27L50.32 30.04L47.82 32.54L53.33 38.05L48.86 42.53L43.24 36.91L40.71 39.28Z" stroke="#323232" stroke-width="2" stroke-linejoin="round"/>
<defs>
<clipPath id="clip0_1607_15377">
<rect width="24" height="6" fill="white" transform="translate(16 21)"/>
</clipPath>
</defs>
</svg>
