<svg width="56" height="56" viewBox="0 0 56 56" fill="none" xmlns="http://www.w3.org/2000/svg">
<path d="M10 10C10 9.44771 10.4477 9 11 9H45C45.5523 9 46 9.44772 46 10V41.382C46 41.7607 45.786 42.107 45.4472 42.2764L28.4472 50.7764C28.1657 50.9172 27.8343 50.9172 27.5528 50.7764L10.5528 42.2764C10.214 42.107 10 41.7607 10 41.382V10Z" fill="white" stroke="#191919" stroke-width="2" stroke-linejoin="round"/>
<path d="M32.7507 37C32.7507 37 32.7508 37 32.7507 37C32.3734 37 31.9969 36.9089 31.6623 36.7365L28.0025 34.8298L24.3481 36.7338C24.0095 36.9082 23.6341 36.999 23.2572 36.999C22.768 36.999 22.2994 36.8521 21.9023 36.5741C21.1898 36.0754 20.8227 35.2073 20.967 34.3624L21.6729 30.282L18.6882 27.4001C18.0636 26.7977 17.8432 25.9139 18.1136 25.0939C18.3844 24.2726 19.0982 23.6826 19.9763 23.554L24.0753 22.9635L25.9133 19.2732C26.3092 18.4862 27.1076 18 27.9992 18C28.8846 18 29.7041 18.5012 30.0871 19.2769L31.9232 22.9634L36.0225 23.5536C36.896 23.6815 37.6086 24.268 37.8851 25.0848C38.1587 25.8926 37.9342 26.8016 37.3132 27.4006L34.3292 30.2817L35.0376 34.359C35.1836 35.214 34.8278 36.0596 34.1096 36.5693C33.7126 36.8511 33.2427 37 32.7507 37Z" fill="#FFD139"/>
<path d="M32.7507 37C32.7507 37 32.7508 37 32.7507 37ZM32.7507 37C32.3734 37 31.9969 36.9089 31.6623 36.7366L28.0025 34.8298L24.3481 36.7338C24.0095 36.9082 23.6341 36.999 23.2572 36.999C22.768 36.999 22.2994 36.8521 21.9023 36.5741C21.1898 36.0754 20.8227 35.2073 20.967 34.3624L21.6729 30.282L18.6882 27.4001C18.0636 26.7977 17.8432 25.9139 18.1136 25.0939C18.3844 24.2726 19.0982 23.6826 19.9763 23.554L24.0753 22.9635L25.9133 19.2732C26.3092 18.4862 27.1076 18 27.9992 18C28.8846 18 29.7041 18.5012 30.0871 19.2769L31.9232 22.9634L36.0225 23.5536C36.896 23.6815 37.6086 24.268 37.8851 25.0848C38.1587 25.8926 37.9342 26.8016 37.3132 27.4006L34.3292 30.2817L35.0376 34.359C35.1836 35.214 34.8278 36.0596 34.1096 36.5693C33.7126 36.8511 33.2427 37 32.7507 37Z" stroke="#191919" stroke-width="2" stroke-linejoin="round"/>
</svg>
