<svg width="56" height="56" viewBox="0 0 56 56" fill="none" xmlns="http://www.w3.org/2000/svg">
<g clip-path="url(#clip0_1607_15209)">
<rect x="22" y="6" width="22" height="42" rx="3" fill="white" stroke="#323232" stroke-width="2"/>
<rect x="29" y="8" width="8" height="2" rx="1" fill="#323232"/>
<g clip-path="url(#clip1_1607_15209)">
<path d="M12.9353 37.1015L13.7839 30.8889C13.9143 29.9343 14.6752 29.1971 15.6338 29.0966C16.8866 28.9653 17.9893 29.9537 17.9973 31.2151L18.0157 34.0899L25.7663 26.3393C26.506 25.5997 27.7051 25.5997 28.4448 26.3393C29.1844 27.0789 29.1844 28.2781 28.4448 29.0177L25.9332 31.5292L26.7028 31.7912C27.0728 31.9171 27.4289 32.1157 27.6348 32.4489C28.2343 33.4186 28.1226 34.6967 27.2936 35.5258C27.7789 35.0405 28.572 35.0468 29.0651 35.5398C30.0513 36.526 30.0639 38.1123 29.0933 39.0829C29.5533 38.6229 30.3229 38.6927 30.7082 39.2293L30.9638 39.5852C31.6836 40.5874 31.5815 41.9516 30.7224 42.8107L28.5498 44.9833C26.64 46.893 25.6852 47.8479 24.6294 48.3126C23.0149 49.0231 21.1661 49.0113 19.5424 48.2801C18.4806 47.8019 17.5134 46.8347 15.5791 44.9004C14.5647 43.886 14.0575 43.3788 13.6879 42.8043C13.124 41.9278 12.785 40.9277 12.7013 39.8939C12.6464 39.2163 12.7427 38.5114 12.9353 37.1015Z" fill="white"/>
<path d="M25.9332 31.5292L28.4448 29.0177C29.1844 28.2781 29.1844 27.0789 28.4448 26.3393C27.7051 25.5997 26.506 25.5997 25.7663 26.3393L18.0157 34.0899L17.9973 31.2151C17.9893 29.9537 16.8866 28.9653 15.6338 29.0966C14.6752 29.1971 13.9143 29.9343 13.7839 30.8889L12.9353 37.1015C12.7427 38.5114 12.6464 39.2163 12.7013 39.8939C12.785 40.9277 13.124 41.9278 13.6879 42.8043C14.0575 43.3788 14.5647 43.886 15.5791 44.9004C17.5134 46.8347 18.4806 47.8019 19.5424 48.2801C21.1661 49.0113 23.0149 49.0231 24.6294 48.3126C25.6852 47.8479 26.64 46.893 28.5498 44.9833L30.7224 42.8107C31.5815 41.9516 31.6836 40.5874 30.9638 39.5852L30.7082 39.2293C30.3229 38.6927 29.5533 38.6229 29.0933 39.0829M25.9332 31.5292L26.7028 31.7912C27.0728 31.9171 27.4289 32.1157 27.6348 32.4489C28.2343 33.4186 28.1226 34.6967 27.2936 35.5258M25.9332 31.5292L23.7365 33.726M27.2936 35.5258L26.4149 36.4045M27.2936 35.5258C27.7789 35.0405 28.572 35.0468 29.0651 35.5398C30.0513 36.526 30.0639 38.1123 29.0933 39.0829M29.0933 39.0829L28.2146 39.9616" stroke="#323232" stroke-width="2" stroke-linecap="round" stroke-linejoin="round"/>
<rect x="12.0293" y="40.3984" width="13.4051" height="6.70256" rx="3.35128" transform="rotate(45 12.0293 40.3984)" fill="#FFE591" stroke="#323232" stroke-width="2"/>
<rect x="29.4082" y="20.3887" width="1.67564" height="3.35128" rx="0.837819" transform="rotate(19.4223 29.4082 20.3887)" fill="#323232"/>
<rect x="24.041" y="20.9727" width="1.67564" height="3.35128" rx="0.837819" transform="rotate(-25.5777 24.041 20.9727)" fill="#323232"/>
<rect x="33.4551" y="23.5918" width="1.67564" height="3.35128" rx="0.837819" transform="rotate(64.4223 33.4551 23.5918)" fill="#323232"/>
<rect x="34.4043" y="29.1016" width="1.67564" height="3.35128" rx="0.837819" transform="rotate(109.422 34.4043 29.1016)" fill="#323232"/>
</g>
</g>
<defs>
<clipPath id="clip0_1607_15209">
<rect width="56" height="56" fill="white"/>
</clipPath>
<clipPath id="clip1_1607_15209">
<rect width="40" height="40" fill="white" transform="translate(23.2852 9) rotate(45)"/>
</clipPath>
</defs>
</svg>
