<svg width="44" height="48" viewBox="0 0 44 48" fill="none" xmlns="http://www.w3.org/2000/svg">
<path d="M42.642 5.50195V35.002H1.50781V5.50195H42.642Z" fill="white"/>
<path d="M9.53916 35.3684H2.20457C1.88625 35.3648 1.582 35.2387 1.35689 35.017C1.13179 34.7954 1.00369 34.4958 1 34.1824L1 6.18741C1 5.87287 1.12691 5.5712 1.35281 5.34879C1.57871 5.12637 1.8851 5.00141 2.20457 5.00141H16.8737C18.6874 5.00389 20.4643 5.50543 22.0038 6.44941C23.5375 5.50569 25.3091 5.00405 27.1177 5.00141H41.7879C43.1712 5.00141 42.9925 4.91041 42.9925 6.18841C42.9925 7.46641 42.9925 34.1824 42.9925 34.1824C42.9925 34.497 42.8655 34.7986 42.6396 35.021C42.4137 35.2435 42.1074 35.3684 41.7879 35.3684H35.4685" stroke="#323232" stroke-width="2" stroke-linecap="round"/>
<path d="M18.9909 28.6445C19.1789 30.4003 20.6657 31.7676 22.4714 31.7676C24.2766 31.7675 25.7614 30.4006 25.9499 28.6455C33.098 30.2191 38.5095 36.5409 38.9684 44.208L38.9704 44.4229C38.9195 45.4805 38.0209 46.2672 37.0007 46.2676H7.94304C6.85455 46.2676 5.90483 45.3725 5.97429 44.208L6.00456 43.793C6.63004 36.314 11.973 30.1902 18.9909 28.6445Z" fill="white"/>
<path d="M18.9909 28.6445L19.9852 28.5381C19.9549 28.2553 19.8057 27.9989 19.5749 27.8328C19.3441 27.6667 19.0535 27.6068 18.7758 27.6679L18.9909 28.6445ZM22.4714 31.7676L22.4714 32.7676L22.4714 32.7676L22.4714 31.7676ZM25.9499 28.6455L26.1649 27.6689C25.8872 27.6078 25.5967 27.6677 25.3659 27.8337C25.1352 27.9997 24.986 28.2561 24.9556 28.5387L25.9499 28.6455ZM38.9684 44.208L39.9684 44.1989C39.9682 44.182 39.9677 44.1651 39.9666 44.1483L38.9684 44.208ZM38.9704 44.4229L39.9692 44.4709C39.9701 44.4519 39.9705 44.4328 39.9703 44.4138L38.9704 44.4229ZM37.0007 46.2676L37.0007 47.2676L37.0011 47.2676L37.0007 46.2676ZM5.97429 44.208L4.97685 44.1353L4.97606 44.1485L5.97429 44.208ZM6.00456 43.793L5.00799 43.7096L5.00721 43.7202L6.00456 43.793ZM18.9909 28.6445L17.9966 28.751C18.2384 31.0096 20.1494 32.7676 22.4714 32.7676V31.7676V30.7676C21.1821 30.7676 20.1194 29.7909 19.9852 28.5381L18.9909 28.6445ZM22.4714 31.7676L22.4714 32.7676C24.7935 32.7675 26.7017 31.0095 26.9442 28.7523L25.9499 28.6455L24.9556 28.5387C24.821 29.7918 23.7596 30.7675 22.4713 30.7676L22.4714 31.7676ZM25.9499 28.6455L25.7349 29.6221C32.4349 31.0971 37.5373 37.0353 37.9702 44.2678L38.9684 44.208L39.9666 44.1483C39.4817 36.0466 33.7611 29.3411 26.1649 27.6689L25.9499 28.6455ZM38.9684 44.208L37.9685 44.2171L37.9704 44.4319L38.9704 44.4229L39.9703 44.4138L39.9684 44.1989L38.9684 44.208ZM38.9704 44.4229L37.9715 44.3748C37.948 44.8647 37.5227 45.2674 37.0003 45.2676L37.0007 46.2676L37.0011 47.2676C38.519 47.267 39.891 46.0964 39.9692 44.4709L38.9704 44.4229ZM37.0007 46.2676V45.2676H7.94304V46.2676V47.2676H37.0007V46.2676ZM7.94304 46.2676V45.2676C7.3838 45.2676 6.94004 44.812 6.97251 44.2676L5.97429 44.208L4.97606 44.1485C4.86962 45.933 6.3253 47.2676 7.94304 47.2676V46.2676ZM5.97429 44.208L6.97164 44.2808L7.00191 43.8657L6.00456 43.793L5.00721 43.7202L4.97694 44.1353L5.97429 44.208ZM6.00456 43.793L7.00108 43.8763C7.59107 36.8217 12.6283 31.0698 19.206 29.6211L18.9909 28.6445L18.7758 27.6679C11.3177 29.3105 5.66901 35.8063 5.00804 43.7096L6.00456 43.793Z" fill="#323232"/>
<path d="M9.49414 12.1419C9.49414 12.1419 10.3828 16.3801 14.2108 11.5951L15.5779 13.0306L18.5173 12.9622L20.2946 14.1243L25.8999 13.7825L26.31 12.6204L27.8823 13.1673L29.933 12.347L31.5052 13.5091L34.3078 13.8509L35.1281 12.2787C35.1281 12.2787 34.718 5.85307 29.7963 3.93907C29.7963 3.93907 23.8492 -0.299083 17.6287 2.57192C17.6287 2.64028 10.7929 5.10114 9.49414 12.1419Z" fill="#FFE591"/>
<path d="M24.8748 25.8145V31.9666H19.8848V25.8145" fill="white"/>
<path d="M24.8748 32.7869H19.8847C19.4062 32.7869 19.0645 32.4451 19.0645 31.9666V25.8145H20.705V31.1463H24.0545V25.8145H25.6951V31.9666C25.6951 32.4451 25.3533 32.7869 24.8748 32.7869Z" fill="#323232"/>
<path d="M22.4147 26.634C17.9031 26.634 13.665 24.5149 11.1358 21.097H11.0674C9.29012 21.7123 7.17105 20.4135 6.35076 18.1577C5.87226 16.8589 5.87226 15.4918 6.41912 14.4664C6.7609 13.7145 7.37612 13.1676 8.12805 12.8942C8.33312 12.8258 8.53819 12.7575 8.74326 12.7575C9.22177 6.05844 15.1005 1 22.3464 1C29.5922 1 35.5393 6.19516 36.0862 12.7575C36.2913 12.7575 36.4963 12.8258 36.7014 12.8942C37.4533 13.1676 38.0685 13.7145 38.4103 14.5347C38.8888 15.6285 38.9572 16.9273 38.4787 18.226C37.6584 20.4818 35.5393 21.7806 33.762 21.1654H33.6937C31.1645 24.5149 26.9263 26.634 22.4147 26.634ZM11.4776 18.7045L12.0244 19.5248C14.2118 22.8743 18.1766 24.9934 22.4147 24.9934C26.6529 24.9934 30.6176 22.9427 32.805 19.5248L33.3519 18.7045L34.0355 19.3881C34.1038 19.4565 34.1722 19.5248 34.2405 19.5248C35.1975 19.8666 36.3596 18.978 36.9065 17.5425C37.2483 16.7222 37.1799 15.8335 36.9065 15.15C36.7698 14.8765 36.5647 14.5347 36.0862 14.398C35.9495 14.3297 35.676 14.3297 35.471 14.398L34.514 14.6031V13.6461C34.3773 7.63066 28.9087 2.70893 22.3464 2.70893C15.7841 2.70893 10.3838 7.49394 10.2471 13.6461V14.6031L9.29012 14.398C9.08505 14.3297 8.81162 14.3297 8.67491 14.398C8.26476 14.5347 7.99133 14.8765 7.92298 15.15C7.58119 15.8335 7.58119 16.7222 7.92298 17.6108C8.46984 18.978 9.63191 19.935 10.5889 19.5932C10.6573 19.5932 10.794 19.5248 10.794 19.4565L11.4776 18.7045Z" fill="#323232" stroke="#323232" stroke-width="0.5" stroke-linejoin="round"/>
<path d="M28.566 13.9198H16.2616C14.8945 13.9198 13.8008 12.8944 13.8008 11.5956V9.4082H15.4414V11.5956C15.4414 11.9374 15.8515 12.2792 16.2616 12.2792H28.566C28.9761 12.2792 29.3862 11.9374 29.3862 11.5956V9.4082H31.0268V11.5956C31.0268 12.8944 29.9331 13.9198 28.566 13.9198Z" fill="#323232"/>
<path d="M18.7227 8.38281V12.621C18.7227 13.4413 19.4746 14.1248 20.3632 14.1248H24.7381C25.6267 14.1248 26.3787 13.4413 26.3787 12.621V8.45117" fill="#FFE591"/>
<path d="M24.7381 14.9451H20.3632C18.9961 14.9451 17.9023 13.9198 17.9023 12.621V8.38281H19.5429V12.621C19.5429 12.9628 19.9531 13.3045 20.3632 13.3045H24.7381C25.1482 13.3045 25.5584 12.9628 25.5584 12.621V8.45117H27.1989V12.621C27.1989 13.9198 26.1052 14.9451 24.7381 14.9451Z" fill="#323232"/>
<path d="M11.5448 15.1503C9.8359 15.1503 8.81054 13.5097 8.74219 13.4413L10.1093 12.5527C10.1093 12.5527 10.7245 13.5097 11.5448 13.5097C12.2284 13.5097 13.1171 12.6894 13.869 11.2539L15.3045 12.0742C14.2108 14.0566 12.912 15.0819 11.5448 15.1503Z" fill="#323232"/>
<path d="M33.2147 15.1503C31.8476 15.1503 30.5488 14.1249 29.3867 12.0742L30.8222 11.2539C31.6425 12.6894 32.4628 13.4413 33.1464 13.5097C33.9667 13.5097 34.6502 12.5527 34.6502 12.5527L36.0174 13.4413C36.0174 13.4413 34.9237 15.1503 33.2147 15.1503Z" fill="#323232"/>
<path d="M23.7236 29L23.8477 29.0078C24.1331 29.0435 24.3923 29.2011 24.5547 29.4434C24.7402 29.7202 24.775 30.0716 24.6484 30.3799L23.4688 33.252L24.9844 41.8262C25.0358 42.1172 24.9564 42.4161 24.7666 42.6426C24.5766 42.8691 24.2957 43 24 43H20.5C20.2008 43 19.9175 42.8659 19.7275 42.6348C19.5377 42.4038 19.4608 42.1 19.5186 41.8066L21.207 33.2539L19.9531 30.4023C19.8172 30.0932 19.8467 29.736 20.0312 29.4531C20.2159 29.1705 20.5306 29.0001 20.8682 29H23.7236Z" fill="#FFE591" stroke="#323232" stroke-width="2" stroke-linejoin="round"/>
<path d="M20.7733 32.3768L17.2188 31.078V28.207H20.7733V32.3768Z" fill="white"/>
<path d="M20.7733 33.1971C20.7049 33.1971 20.5682 33.1971 20.4999 33.1287L16.9453 31.8299C16.6035 31.6932 16.3984 31.4198 16.3984 31.078V28.207C16.3984 27.7285 16.7402 27.3867 17.2187 27.3867H20.7733C21.2518 27.3867 21.5936 27.7285 21.5936 28.207V32.3768C21.5936 32.6502 21.4569 32.9237 21.2518 33.0604C21.1151 33.1287 20.91 33.1971 20.7733 33.1971ZM18.039 30.5312L19.953 31.2147V29.0273H18.039V30.5312Z" fill="#323232"/>
<path d="M24.0547 32.3768L27.6093 31.078V28.207H24.0547V32.3768Z" fill="white"/>
<path d="M24.0547 33.1971C23.9179 33.1971 23.7129 33.1287 23.5762 33.0604C23.3711 32.9237 23.2344 32.6502 23.2344 32.3768V28.207C23.2344 27.7285 23.5762 27.3867 24.0547 27.3867H27.6092C28.0877 27.3867 28.4295 27.7285 28.4295 28.207V31.078C28.4295 31.4198 28.2245 31.7616 27.8827 31.8299L24.3281 33.1287C24.2597 33.1971 24.123 33.1971 24.0547 33.1971ZM24.875 29.0273V31.2147L26.789 30.5312V29.0273H24.875Z" fill="#323232"/>
</svg>
