<svg width="56" height="56" viewBox="0 0 56 56" fill="none" xmlns="http://www.w3.org/2000/svg">
<path d="M48.642 10.502V40.002H7.50781V10.502H48.642Z" fill="white"/>
<path d="M15.5392 40.3684H8.20457C7.88625 40.3648 7.582 40.2387 7.35689 40.017C7.13179 39.7954 7.00369 39.4958 7 39.1824V11.1874C7 10.8729 7.12691 10.5712 7.35281 10.3488C7.57871 10.1264 7.8851 10.0014 8.20457 10.0014H22.8737C24.6874 10.0039 26.4643 10.5054 28.0038 11.4494C29.5375 10.5057 31.3091 10.0041 33.1177 10.0014H47.7879C49.1712 10.0014 48.9925 9.91041 48.9925 11.1884C48.9925 12.4664 48.9925 39.1824 48.9925 39.1824C48.9925 39.497 48.8655 39.7986 48.6396 40.021C48.4137 40.2435 48.1074 40.3684 47.7879 40.3684H41.4685" stroke="#323232" stroke-width="2" stroke-linecap="round"/>
<path d="M24.9919 33.6445C25.1799 35.4002 26.6658 36.7675 28.4714 36.7676C30.2766 36.7676 31.7624 35.4007 31.9509 33.6455C39.0986 35.2193 44.5095 41.5412 44.9684 49.208L44.9704 49.4229C44.9195 50.4806 44.021 51.2673 43.0007 51.2676H13.943C12.8546 51.2676 11.9048 50.3725 11.9743 49.208L12.0046 48.793C12.6301 41.3136 17.9735 35.1898 24.9919 33.6445Z" fill="white"/>
<path d="M24.9919 33.6445L25.9862 33.538C25.9559 33.2553 25.8067 32.9989 25.5759 32.8328C25.3451 32.6667 25.0545 32.6068 24.7768 32.6679L24.9919 33.6445ZM28.4714 36.7676L28.4713 37.7676H28.4714V36.7676ZM31.9509 33.6455L32.1659 32.6689C31.8882 32.6078 31.5977 32.6677 31.3669 32.8337C31.1361 32.9997 30.9869 33.2561 30.9566 33.5387L31.9509 33.6455ZM44.9684 49.208L45.9684 49.1989C45.9682 49.182 45.9677 49.1651 45.9666 49.1483L44.9684 49.208ZM44.9704 49.4229L45.9692 49.4709C45.9701 49.4519 45.9705 49.4328 45.9703 49.4138L44.9704 49.4229ZM43.0007 51.2676L43.0007 52.2676L43.0009 52.2676L43.0007 51.2676ZM11.9743 49.208L10.9769 49.1353L10.9761 49.1485L11.9743 49.208ZM12.0046 48.793L11.008 48.7096L11.0072 48.7202L12.0046 48.793ZM24.9919 33.6445L23.9976 33.751C24.2394 36.0092 26.1491 37.7675 28.4713 37.7676L28.4714 36.7676L28.4714 35.7676C27.1825 35.7675 26.1204 34.7911 25.9862 33.538L24.9919 33.6445ZM28.4714 36.7676V37.7676C30.7932 37.7676 32.7027 36.0099 32.9451 33.7523L31.9509 33.6455L30.9566 33.5387C30.822 34.7916 29.7601 35.7676 28.4714 35.7676V36.7676ZM31.9509 33.6455L31.7358 34.6221C38.4354 36.0973 43.5373 42.0355 43.9702 49.2678L44.9684 49.208L45.9666 49.1483C45.4817 41.0469 39.7617 34.3414 32.1659 32.6689L31.9509 33.6455ZM44.9684 49.208L43.9685 49.2171L43.9704 49.4319L44.9704 49.4229L45.9703 49.4138L45.9684 49.1989L44.9684 49.208ZM44.9704 49.4229L43.9715 49.3748C43.9479 49.8649 43.5228 50.2675 43.0004 50.2676L43.0007 51.2676L43.0009 52.2676C44.5192 52.2672 45.891 51.0964 45.9692 49.4709L44.9704 49.4229ZM43.0007 51.2676V50.2676H13.943V51.2676V52.2676H43.0007V51.2676ZM13.943 51.2676V50.2676C13.3838 50.2676 12.94 49.812 12.9725 49.2676L11.9743 49.208L10.9761 49.1485C10.8696 50.933 12.3253 52.2676 13.943 52.2676V51.2676ZM11.9743 49.208L12.9716 49.2808L13.0019 48.8657L12.0046 48.793L11.0072 48.7202L10.9769 49.1353L11.9743 49.208ZM12.0046 48.793L13.0011 48.8763C13.5911 41.8214 18.6287 36.0695 25.2069 34.6211L24.9919 33.6445L24.7768 32.6679C17.3183 34.3101 11.669 40.8059 11.008 48.7096L12.0046 48.793Z" fill="#323232"/>
<path d="M15.4941 17.1419C15.4941 17.1419 16.3828 21.3801 20.2108 16.5951L21.5779 18.0306L24.5173 17.9622L26.2946 19.1243L31.8999 18.7825L32.31 17.6204L33.8823 18.1673L35.933 17.347L37.5052 18.5091L40.3078 18.8509L41.1281 17.2787C41.1281 17.2787 40.718 10.8531 35.7963 8.93907C35.7963 8.93907 29.8492 4.70092 23.6287 7.57192C23.6287 7.64028 16.7929 10.1011 15.4941 17.1419V17.1419Z" fill="#FFE591"/>
<path d="M30.8748 30.8145V36.9666H25.8848V30.8145" fill="white"/>
<path d="M30.8748 37.7869H25.8847C25.4062 37.7869 25.0645 37.4451 25.0645 36.9666V30.8145H26.705V36.1463H30.0545V30.8145H31.6951V36.9666C31.6951 37.4451 31.3533 37.7869 30.8748 37.7869V37.7869Z" fill="#323232"/>
<path d="M28.4147 31.634C23.9031 31.634 19.665 29.5149 17.1358 26.097H17.0674C15.2901 26.7123 13.171 25.4135 12.3508 23.1577C11.8723 21.8589 11.8723 20.4918 12.4191 19.4664C12.7609 18.7145 13.3761 18.1676 14.128 17.8942C14.3331 17.8258 14.5382 17.7575 14.7433 17.7575C15.2218 11.0584 21.1005 6 28.3464 6C35.5922 6 41.5393 11.1952 42.0862 17.7575C42.2913 17.7575 42.4963 17.8258 42.7014 17.8942C43.4533 18.1676 44.0685 18.7145 44.4103 19.5347C44.8888 20.6285 44.9572 21.9273 44.4787 23.226C43.6584 25.4818 41.5393 26.7806 39.762 26.1654H39.6937C37.1645 29.5149 32.9263 31.634 28.4147 31.634ZM17.4776 23.7045L18.0244 24.5248C20.2118 27.8743 24.1766 29.9934 28.4147 29.9934C32.6529 29.9934 36.6176 27.9427 38.805 24.5248L39.3519 23.7045L40.0355 24.3881C40.1038 24.4565 40.1722 24.5248 40.2405 24.5248C41.1975 24.8666 42.3596 23.978 42.9065 22.5425C43.2483 21.7222 43.1799 20.8335 42.9065 20.15C42.7698 19.8765 42.5647 19.5347 42.0862 19.398C41.9495 19.3297 41.676 19.3297 41.471 19.398L40.514 19.6031V18.6461C40.3773 12.6307 34.9087 7.70893 28.3464 7.70893C21.7841 7.70893 16.3838 12.4939 16.2471 18.6461V19.6031L15.2901 19.398C15.0851 19.3297 14.8116 19.3297 14.6749 19.398C14.2648 19.5347 13.9913 19.8765 13.923 20.15C13.5812 20.8335 13.5812 21.7222 13.923 22.6108C14.4698 23.978 15.6319 24.935 16.5889 24.5932C16.6573 24.5932 16.794 24.5248 16.794 24.4565L17.4776 23.7045Z" fill="#323232" stroke="#323232" stroke-width="0.5" stroke-linejoin="round"/>
<path d="M34.566 18.9198H22.2616C20.8945 18.9198 19.8008 17.8944 19.8008 16.5956V14.4082H21.4414V16.5956C21.4414 16.9374 21.8515 17.2792 22.2616 17.2792H34.566C34.9761 17.2792 35.3862 16.9374 35.3862 16.5956V14.4082H37.0268V16.5956C37.0268 17.8944 35.9331 18.9198 34.566 18.9198V18.9198Z" fill="#323232"/>
<path d="M24.7227 13.3828V17.621C24.7227 18.4413 25.4746 19.1248 26.3632 19.1248H30.7381C31.6267 19.1248 32.3787 18.4413 32.3787 17.621V13.4512" fill="#FFE591"/>
<path d="M30.7381 19.9451H26.3632C24.9961 19.9451 23.9023 18.9198 23.9023 17.621V13.3828H25.5429V17.621C25.5429 17.9628 25.9531 18.3045 26.3632 18.3045H30.7381C31.1482 18.3045 31.5584 17.9628 31.5584 17.621V13.4512H33.1989V17.621C33.1989 18.9198 32.1052 19.9451 30.7381 19.9451Z" fill="#323232"/>
<path d="M17.5448 20.1503C15.8359 20.1503 14.8105 18.5097 14.7422 18.4413L16.1093 17.5527C16.1093 17.5527 16.7245 18.5097 17.5448 18.5097C18.2284 18.5097 19.1171 17.6894 19.869 16.2539L21.3045 17.0742C20.2108 19.0566 18.912 20.0819 17.5448 20.1503V20.1503Z" fill="#323232"/>
<path d="M39.2147 20.1503C37.8476 20.1503 36.5488 19.1249 35.3867 17.0742L36.8222 16.2539C37.6425 17.6894 38.4628 18.4413 39.1464 18.5097C39.9667 18.5097 40.6502 17.5527 40.6502 17.5527L42.0174 18.4413C42.0174 18.4413 40.9237 20.1503 39.2147 20.1503Z" fill="#323232"/>
<path d="M29.7236 34L29.8477 34.0078C30.1331 34.0435 30.3923 34.2011 30.5547 34.4434C30.717 34.6857 30.7641 34.9851 30.6885 35.2627L30.6484 35.3799L29.4688 38.252L30.9844 46.8262C31.0358 47.1172 30.9564 47.4161 30.7666 47.6426C30.5766 47.8691 30.2957 48 30 48H26.5C26.2008 48 25.9175 47.8659 25.7275 47.6348C25.5377 47.4038 25.4608 47.1 25.5186 46.8066L27.207 38.2539L25.9531 35.4023C25.8172 35.0932 25.8467 34.736 26.0312 34.4531C26.2159 34.1705 26.5306 34.0001 26.8682 34H29.7236Z" fill="#FFE591" stroke="#323232" stroke-width="2" stroke-linejoin="round"/>
<path d="M26.7733 37.3768L23.2188 36.078V33.207H26.7733V37.3768Z" fill="white"/>
<path d="M26.7733 38.1971C26.7049 38.1971 26.5682 38.1971 26.4999 38.1287L22.9453 36.8299C22.6035 36.6932 22.3984 36.4198 22.3984 36.078V33.207C22.3984 32.7285 22.7402 32.3867 23.2187 32.3867H26.7733C27.2518 32.3867 27.5936 32.7285 27.5936 33.207V37.3768C27.5936 37.6502 27.4569 37.9237 27.2518 38.0604C27.1151 38.1287 26.91 38.1971 26.7733 38.1971ZM24.039 35.5312L25.953 36.2147V34.0273H24.039V35.5312Z" fill="#323232"/>
<path d="M30.0547 37.3768L33.6093 36.078V33.207H30.0547V37.3768Z" fill="white"/>
<path d="M30.0547 38.1971C29.9179 38.1971 29.7129 38.1287 29.5762 38.0604C29.3711 37.9237 29.2344 37.6502 29.2344 37.3768V33.207C29.2344 32.7285 29.5762 32.3867 30.0547 32.3867H33.6092C34.0877 32.3867 34.4295 32.7285 34.4295 33.207V36.078C34.4295 36.4198 34.2245 36.7616 33.8827 36.8299L30.3281 38.1287C30.2597 38.1971 30.123 38.1971 30.0547 38.1971V38.1971ZM30.875 34.0273V36.2147L32.789 35.5312V34.0273H30.875Z" fill="#323232"/>
</svg>
