<svg width="56" height="56" viewBox="0 0 56 56" fill="none" xmlns="http://www.w3.org/2000/svg">
<path d="M41.2559 19.3917C41.8299 19.3714 42.3943 19.2378 42.9166 18.9985C43.4388 18.7593 43.9086 18.4192 44.2989 17.9977C44.7031 17.5883 45.0219 17.1026 45.2366 16.5688C45.4514 16.0351 45.5579 15.464 45.5499 14.8887C45.5418 15.464 45.6483 16.0351 45.8631 16.5688C46.0779 17.1026 46.3966 17.5883 46.8009 17.9977C47.5944 18.8475 48.692 19.3486 49.8539 19.3917C49.0837 19.4217 48.335 19.6538 47.6829 20.0647C47.0317 20.4709 46.4937 21.035 46.1189 21.7047C45.7408 22.3792 45.5447 23.1405 45.5499 23.9137C45.5472 22.7541 45.1008 21.6394 44.3023 20.7985C43.5038 19.9577 42.4138 19.4543 41.2559 19.3917Z" stroke="#323232" stroke-width="1.2"/>
<path d="M28.6769 47.6835C22.777 47.6835 17.2429 47.0045 13.0941 45.7715C8.77518 44.488 7.23633 42.9892 7.23633 42.0145C7.23633 41.3577 7.91101 40.5985 9.13609 39.8766C10.5622 39.0364 12.6774 38.2819 15.253 37.6947L15.7525 37.5809L15.9519 37.1089L27.4885 9.80119C27.8116 9.03662 28.5003 8.58008 29.3308 8.58008C30.1612 8.58008 30.8499 9.03662 31.1731 9.80132L42.864 37.4723L43.0536 37.921L43.5238 38.0484C45.6767 38.6313 47.4288 39.3437 48.5907 40.1087C49.5753 40.7569 50.1175 41.4337 50.1175 42.0145C50.1175 42.9892 48.5788 44.488 44.2601 45.7715C40.1114 47.0045 34.5772 47.6835 28.6769 47.6835Z" fill="white"/>
<path d="M28.6769 46.6835C34.4834 46.6835 39.9164 46.0192 43.9752 44.813C48.2236 43.5503 49.1175 42.2235 49.1175 42.0145C49.1175 41.9427 48.9259 41.5266 48.0408 40.9439C46.9665 40.2366 45.3142 39.5691 43.2625 39.0136L42.322 38.759L30.252 10.1906C30.0191 9.63957 29.5302 9.58008 29.3308 9.58008C29.1314 9.58008 28.6424 9.63957 28.4097 10.1904L16.4743 38.442L15.4753 38.6697C12.9988 39.2343 10.9823 39.9495 9.64373 40.7382C8.48677 41.4199 8.23633 41.9258 8.23633 42.0145C8.23633 42.2234 9.13031 43.5503 13.379 44.813C17.4379 46.0192 22.8708 46.6835 28.6769 46.6835ZM28.6769 48.6835C16.2839 48.6835 6.23633 45.6973 6.23633 42.0145C6.23633 39.8568 9.68387 37.9386 15.0307 36.7198L26.5673 9.41203C27.5996 6.96943 31.0619 6.96943 32.0942 9.41203L43.7851 37.0831C48.2899 38.3028 51.1175 40.0605 51.1175 42.0145C51.1175 45.6973 41.0708 48.6835 28.6769 48.6835Z" fill="#33302B"/>
<mask id="mask0_1607_15045" style="mask-type:luminance" maskUnits="userSpaceOnUse" x="6" y="7" width="46" height="42">
<path d="M6.23828 42.0156C6.23828 39.8576 9.68628 37.9396 15.0323 36.7206L26.5683 9.41257C26.7978 8.86931 27.1823 8.40575 27.6738 8.07983C28.1654 7.7539 28.742 7.58008 29.3318 7.58008C29.9215 7.58008 30.4982 7.7539 30.9897 8.07983C31.4812 8.40575 31.8658 8.86931 32.0953 9.41257L43.7863 37.0836C48.2863 38.3036 51.1183 40.0606 51.1183 42.0146C51.1183 45.6976 41.0713 48.6836 28.6773 48.6836C16.2833 48.6836 6.23828 45.6976 6.23828 42.0156Z" fill="white"/>
</mask>
<g mask="url(#mask0_1607_15045)">
<path d="M18.0716 32.2812L29.6276 35.8173L26.8276 38.1453H11.5176L18.0716 32.2812Z" stroke="#33302B" stroke-width="2"/>
<path d="M40.2357 32.2812L28.6797 35.8173L31.4797 38.1453H46.7877L40.2357 32.2812Z" stroke="#33302B" stroke-width="2"/>
</g>
<path d="M31.8051 41.3001C31.5504 41.3 31.2966 41.2371 31.0709 41.118L29.2686 40.1558L27.4706 41.1157C27.2414 41.2367 26.988 41.2995 26.7336 41.2995C26.4034 41.2995 26.0871 41.1978 25.819 41.0055C25.3378 40.6604 25.0898 40.0596 25.1873 39.475L25.5362 37.4082L24.0626 35.9501C23.6407 35.5332 23.4918 34.9217 23.6743 34.3547C23.8573 33.7858 24.3394 33.3772 24.9323 33.2882L26.9518 32.9901L27.8581 31.1254C28.1256 30.5804 28.6647 30.2441 29.2668 30.2441C29.8647 30.2441 30.4182 30.5912 30.6771 31.1284L31.5818 32.99L33.6007 33.2879C34.1909 33.3764 34.6721 33.7822 34.8588 34.3472C35.0436 34.9065 34.892 35.5359 34.4725 35.9505L32.9995 37.4079L33.3495 39.4722C33.4482 40.0642 33.2081 40.6492 32.7236 41.0017C32.4552 41.1969 32.1375 41.3001 31.8051 41.3001Z" fill="#FFE591"/>
<path d="M29.2674 31.2441C29.0499 31.2441 28.8536 31.3679 28.7581 31.5625L27.6209 33.9022L25.0813 34.2772C24.8691 34.309 24.6922 34.4576 24.6268 34.6609C24.5613 34.8643 24.6144 35.0889 24.7665 35.2393L26.6093 37.0626L26.1742 39.6394C26.1389 39.8516 26.2273 40.0674 26.4024 40.1929C26.5775 40.3185 26.8092 40.3344 27.0001 40.2336L29.2692 39.0222L31.5382 40.2336C31.7292 40.3344 31.9609 40.3203 32.136 40.1929C32.3111 40.0656 32.3995 39.8516 32.3641 39.6394L31.9273 37.0626L33.7701 35.2393C33.9222 35.0889 33.977 34.8643 33.9098 34.6609C33.8426 34.4576 33.6675 34.309 33.4553 34.2772L30.9139 33.9022L29.7767 31.5625C29.683 31.3679 29.4849 31.2441 29.2674 31.2441ZM29.2674 29.2441C30.2458 29.2441 31.1521 29.8121 31.5771 30.6914L32.2509 32.0778L33.7472 32.2986C34.715 32.4438 35.5031 33.1083 35.8088 34.0335C36.1165 34.9647 35.8741 35.9717 35.1761 36.6617L34.0729 37.7532L34.3369 39.3106C34.4978 40.2759 34.1052 41.2337 33.3123 41.8104C32.8719 42.1307 32.3509 42.3001 31.8056 42.3001C31.389 42.3001 30.9737 42.1971 30.6047 42.0024L30.5962 41.9979L29.2692 41.2894L27.9336 42.0024C27.5654 42.1967 27.1506 42.2995 26.7342 42.2995C26.1936 42.2995 25.6758 42.133 25.2368 41.8181C24.4482 41.2526 24.0418 40.2683 24.2015 39.3106L24.4643 37.7538L23.3598 36.661C22.6686 35.9778 22.4243 34.9764 22.7229 34.0484C23.0231 33.1153 23.8131 32.4451 24.7845 32.2993L26.2838 32.078L26.9628 30.6811C27.3979 29.7948 28.281 29.2441 29.2674 29.2441Z" fill="#33302B"/>
<path d="M4 27.669C4.57407 27.6487 5.13846 27.5151 5.6607 27.2759C6.18294 27.0366 6.65272 26.6965 7.043 26.275C7.44723 25.8656 7.766 25.3799 7.98077 24.8462C8.19554 24.3124 8.30201 23.7413 8.294 23.166C8.28599 23.7413 8.39246 24.3124 8.60723 24.8462C8.822 25.3799 9.14077 25.8656 9.545 26.275C10.3385 27.1248 11.4361 27.626 12.598 27.669C11.8278 27.6991 11.0791 27.9312 10.427 28.342C9.77583 28.7482 9.23785 29.3123 8.863 29.982C8.48497 30.6565 8.28888 31.4178 8.294 32.191C8.29135 31.0314 7.84497 29.9168 7.04648 29.0759C6.24798 28.235 5.15792 27.7316 4 27.669Z" stroke="#323232" stroke-width="1.2"/>
<path d="M39.2559 8.17773H42.9359" stroke="#323232" stroke-width="2" stroke-linecap="round"/>
<path d="M41.0957 6.33789V10.0179" stroke="#323232" stroke-width="2" stroke-linecap="round"/>
</svg>
