<svg width="49" height="44" viewBox="0 0 49 44" fill="none" xmlns="http://www.w3.org/2000/svg">
<path d="M38.2578 14.3917C38.8319 14.3714 39.3963 14.2378 39.9185 13.9985C40.4408 13.7593 40.9105 13.4192 41.3008 12.9977C41.705 12.5883 42.0238 12.1026 42.2386 11.5688C42.4534 11.0351 42.5598 10.464 42.5518 9.88867C42.5438 10.464 42.6503 11.0351 42.865 11.5688C43.0798 12.1026 43.3986 12.5883 43.8028 12.9977C44.5963 13.8475 45.6939 14.3486 46.8558 14.3917C46.0856 14.4217 45.3369 14.6538 44.6848 15.0647C44.0336 15.4709 43.4957 16.035 43.1208 16.7047C42.7428 17.3792 42.5467 18.1405 42.5518 18.9137C42.5492 17.7541 42.1028 16.6394 41.3043 15.7985C40.5058 14.9577 39.4157 14.4543 38.2578 14.3917Z" stroke="#323232" stroke-width="1.2"/>
<path d="M25.675 42.6835C19.775 42.6835 14.241 42.0045 10.0922 40.7715C5.77322 39.488 4.23438 37.9892 4.23438 37.0145C4.23438 36.3577 4.90905 35.5985 6.13414 34.8766C7.56029 34.0364 9.67548 33.2819 12.251 32.6947L12.7506 32.5809L12.95 32.1089L24.4865 4.80119C24.8097 4.03662 25.4984 3.58008 26.3288 3.58008C27.1593 3.58008 27.848 4.03662 28.1712 4.80132L39.862 32.4723L40.0516 32.921L40.5218 33.0484C42.6748 33.6313 44.4269 34.3437 45.5888 35.1087C46.5733 35.7569 47.1156 36.4337 47.1156 37.0145C47.1156 37.9892 45.5768 39.488 41.2581 40.7715C37.1094 42.0045 31.5752 42.6835 25.675 42.6835Z" fill="white"/>
<path d="M25.675 41.6835C31.4814 41.6835 36.9145 41.0192 40.9732 39.813C45.2216 38.5503 46.1156 37.2235 46.1156 37.0145C46.1156 36.9427 45.924 36.5266 45.0389 35.9439C43.9645 35.2366 42.3122 34.5691 40.2605 34.0136L39.32 33.759L27.25 5.1906C27.0172 4.63957 26.5282 4.58008 26.3288 4.58008C26.1294 4.58008 25.6405 4.63957 25.4077 5.19036L13.4724 33.442L12.4733 33.6697C9.99685 34.2343 7.98033 34.9495 6.64177 35.7382C5.48481 36.4199 5.23438 36.9258 5.23438 37.0145C5.23438 37.2234 6.12836 38.5503 10.3771 39.813C14.4359 41.0192 19.8688 41.6835 25.675 41.6835ZM25.675 43.6835C13.282 43.6835 3.23438 40.6973 3.23438 37.0145C3.23438 34.8568 6.68192 32.9386 12.0288 31.7198L23.5654 4.41203C24.5977 1.96943 28.06 1.96943 29.0923 4.41203L40.7832 32.0831C45.2879 33.3028 48.1156 35.0605 48.1156 37.0145C48.1156 40.6973 38.0689 43.6835 25.675 43.6835Z" fill="#33302B"/>
<mask id="mask0_1574_7739" style="mask-type:luminance" maskUnits="userSpaceOnUse" x="3" y="2" width="46" height="42">
<path d="M3.23828 37.0156C3.23828 34.8576 6.68628 32.9396 12.0323 31.7206L23.5683 4.41257C23.7978 3.86931 24.1823 3.40575 24.6738 3.07983C25.1654 2.7539 25.742 2.58008 26.3318 2.58008C26.9215 2.58008 27.4982 2.7539 27.9897 3.07983C28.4812 3.40575 28.8658 3.86931 29.0953 4.41257L40.7863 32.0836C45.2863 33.3036 48.1183 35.0606 48.1183 37.0146C48.1183 40.6976 38.0713 43.6836 25.6773 43.6836C13.2833 43.6836 3.23828 40.6976 3.23828 37.0156Z" fill="white"/>
</mask>
<g mask="url(#mask0_1574_7739)">
<path d="M15.0696 27.2812L26.6256 30.8173L23.8256 33.1453H8.51562L15.0696 27.2812Z" stroke="#33302B" stroke-width="2"/>
<path d="M37.2318 27.2812L25.6758 30.8173L28.4758 33.1453H43.7838L37.2318 27.2812Z" stroke="#33302B" stroke-width="2"/>
</g>
<path d="M28.8051 36.3001C28.5504 36.3 28.2966 36.2371 28.0709 36.118L26.2686 35.1558L24.4706 36.1157C24.2414 36.2367 23.988 36.2995 23.7336 36.2995C23.4034 36.2995 23.0871 36.1978 22.819 36.0055C22.3378 35.6604 22.0898 35.0596 22.1873 34.475L22.5362 32.4082L21.0626 30.9501C20.6407 30.5332 20.4918 29.9217 20.6743 29.3547C20.8573 28.7858 21.3394 28.3772 21.9323 28.2882L23.9518 27.9901L24.8581 26.1254C25.1256 25.5804 25.6647 25.2441 26.2668 25.2441C26.8647 25.2441 27.4182 25.5912 27.6771 26.1284L28.5818 27.99L30.6007 28.2879C31.1909 28.3764 31.6721 28.7822 31.8588 29.3472C32.0436 29.9065 31.892 30.5359 31.4725 30.9505L29.9995 32.4079L30.3495 34.4722C30.4482 35.0642 30.2081 35.6492 29.7236 36.0017C29.4552 36.1969 29.1375 36.3001 28.8051 36.3001Z" fill="#FFE591"/>
<path d="M26.2674 26.2441C26.0499 26.2441 25.8536 26.3679 25.7581 26.5625L24.6209 28.9022L22.0813 29.2772C21.8691 29.309 21.6922 29.4576 21.6268 29.6609C21.5613 29.8643 21.6144 30.0889 21.7665 30.2393L23.6093 32.0626L23.1742 34.6394C23.1389 34.8516 23.2273 35.0674 23.4024 35.1929C23.5775 35.3185 23.8092 35.3344 24.0001 35.2336L26.2692 34.0222L28.5382 35.2336C28.7292 35.3344 28.9609 35.3203 29.136 35.1929C29.3111 35.0656 29.3995 34.8516 29.3641 34.6394L28.9273 32.0626L30.7701 30.2393C30.9222 30.0889 30.977 29.8643 30.9098 29.6609C30.8426 29.4576 30.6675 29.309 30.4553 29.2772L27.9139 28.9022L26.7767 26.5625C26.683 26.3679 26.4849 26.2441 26.2674 26.2441ZM26.2674 24.2441C27.2458 24.2441 28.1521 24.8121 28.5771 25.6914L29.2509 27.0778L30.7472 27.2986C31.715 27.4438 32.5031 28.1083 32.8088 29.0335C33.1165 29.9647 32.8741 30.9717 32.1761 31.6617L31.0729 32.7532L31.3369 34.3106C31.4978 35.2759 31.1052 36.2337 30.3123 36.8104C29.8719 37.1307 29.3509 37.3001 28.8056 37.3001C28.389 37.3001 27.9737 37.1971 27.6047 37.0024L27.5962 36.9979L26.2692 36.2894L24.9336 37.0024C24.5654 37.1967 24.1506 37.2995 23.7342 37.2995C23.1936 37.2995 22.6758 37.133 22.2368 36.8181C21.4482 36.2526 21.0418 35.2683 21.2015 34.3106L21.4643 32.7538L20.3598 31.661C19.6686 30.9778 19.4243 29.9764 19.7229 29.0484C20.0231 28.1153 20.8131 27.4451 21.7845 27.2993L23.2838 27.078L23.9628 25.6811C24.3979 24.7948 25.281 24.2441 26.2674 24.2441Z" fill="#33302B"/>
<path d="M1 22.669C1.57407 22.6487 2.13846 22.5151 2.6607 22.2759C3.18294 22.0366 3.65272 21.6965 4.043 21.275C4.44723 20.8656 4.766 20.3799 4.98077 19.8462C5.19554 19.3124 5.30201 18.7413 5.294 18.166C5.28599 18.7413 5.39246 19.3124 5.60723 19.8462C5.822 20.3799 6.14077 20.8656 6.545 21.275C7.33852 22.1248 8.43613 22.626 9.598 22.669C8.82783 22.6991 8.07912 22.9312 7.427 23.342C6.77583 23.7482 6.23785 24.3123 5.863 24.982C5.48497 25.6565 5.28888 26.4178 5.294 27.191C5.29135 26.0314 4.84497 24.9168 4.04648 24.0759C3.24798 23.235 2.15792 22.7316 1 22.669Z" stroke="#323232" stroke-width="1.2"/>
<path d="M36.2578 3.17773H39.9378" stroke="#323232" stroke-width="2" stroke-linecap="round"/>
<path d="M38.0977 1.33789V5.01789" stroke="#323232" stroke-width="2" stroke-linecap="round"/>
</svg>
