<svg width="49" height="48" viewBox="0 0 49 48" fill="none" xmlns="http://www.w3.org/2000/svg">
<path d="M0.5 24C0.5 10.7452 11.2452 0 24.5 0V0C37.7548 0 48.5 10.7452 48.5 24V24C48.5 37.2548 37.7548 48 24.5 48V48C11.2452 48 0.5 37.2548 0.5 24V24Z" fill="black"/>
<path d="M0.5 24C0.5 10.7452 11.2452 0 24.5 0V0C37.7548 0 48.5 10.7452 48.5 24V24C48.5 37.2548 37.7548 48 24.5 48V48C11.2452 48 0.5 37.2548 0.5 24V24Z" fill="black" fill-opacity="0.2"/>
<g clip-path="url(#clip0_1717_9614)">
<path d="M32.9827 29.8234C32.6648 30.5512 32.2884 31.2212 31.8524 31.8372C31.2581 32.6769 30.7714 33.2582 30.3964 33.581C29.815 34.1108 29.1921 34.3821 28.5251 34.3976C28.0463 34.3976 27.4688 34.2625 26.7966 33.9886C26.1222 33.716 25.5024 33.581 24.9357 33.581C24.3414 33.581 23.7039 33.716 23.0221 33.9886C22.3393 34.2625 21.7892 34.4053 21.3686 34.4194C20.729 34.4464 20.0914 34.1674 19.455 33.581C19.0488 33.2299 18.5408 32.6281 17.9322 31.7755C17.2792 30.865 16.7423 29.8092 16.3217 28.6056C15.8713 27.3055 15.6455 26.0465 15.6455 24.8276C15.6455 23.4315 15.9499 22.2273 16.5597 21.2182C17.039 20.4076 17.6765 19.7683 18.4745 19.2989C19.2724 18.8295 20.1346 18.5903 21.0631 18.575C21.5712 18.575 22.2374 18.7307 23.0653 19.0368C23.8909 19.3439 24.421 19.4996 24.6535 19.4996C24.8272 19.4996 25.4161 19.3175 26.4144 18.9545C27.3585 18.6178 28.1553 18.4784 28.808 18.5333C30.5768 18.6748 31.9056 19.3658 32.7893 20.6106C31.2075 21.5604 30.4249 22.8907 30.4405 24.5973C30.4548 25.9266 30.9414 27.0328 31.8978 27.9111C32.3313 28.3188 32.8153 28.6339 33.3538 28.8576C33.2371 29.1933 33.1138 29.5148 32.9827 29.8234V29.8234ZM28.9261 14.0047C28.9261 15.0466 28.542 16.0194 27.7764 16.9198C26.8524 17.9903 25.7348 18.6088 24.5229 18.5112C24.5075 18.3862 24.4985 18.2547 24.4985 18.1164C24.4985 17.1162 24.9379 16.0458 25.7182 15.1705C26.1078 14.7274 26.6032 14.3589 27.2041 14.065C27.8036 13.7754 28.3707 13.6153 28.904 13.5879C28.9196 13.7272 28.9261 13.8665 28.9261 14.0047V14.0047Z" fill="white"/>
</g>
<defs>
<clipPath id="clip0_1717_9614">
<rect width="20.8333" height="20.8333" fill="white" transform="translate(14.083 13.584)"/>
</clipPath>
</defs>
</svg>
