<svg width="49" height="48" viewBox="0 0 49 48" fill="none" xmlns="http://www.w3.org/2000/svg">
<rect x="0.5" width="48" height="48" rx="24" fill="#F1F1F1"/>
<path d="M38.5837 24.9036C38.5837 23.9149 38.4881 22.8943 38.3286 21.9375H24.5186V27.5827H32.4282C32.1093 29.4007 31.0568 30.9954 29.494 32.016L34.2143 35.6838C36.9891 33.1003 38.5837 29.3369 38.5837 24.9036Z" fill="#4280EF"/>
<path d="M24.5218 39.1894C28.4766 39.1894 31.7936 37.8818 34.2175 35.6492L29.4972 32.0133C28.1896 32.9063 26.4992 33.4166 24.5218 33.4166C20.6945 33.4166 17.4733 30.8332 16.2932 27.3887L11.4453 31.1203C13.933 36.0638 18.9723 39.1894 24.5218 39.1894Z" fill="#34A353"/>
<path d="M16.2914 27.3631C15.6854 25.5452 15.6854 23.5678 16.2914 21.7498L11.4435 17.9863C9.3704 22.1325 9.3704 27.0123 11.4435 31.1266L16.2914 27.3631Z" fill="#F6B704"/>
<path d="M24.5218 15.7056C26.5949 15.6737 28.6361 16.4711 30.1351 17.9063L34.3132 13.6963C31.666 11.2086 28.1577 9.86905 24.5218 9.90095C18.9723 9.90095 13.933 13.0265 11.4453 17.9701L16.2932 21.7336C17.4733 18.2571 20.6945 15.7056 24.5218 15.7056Z" fill="#E54335"/>
</svg>
