<svg width="103" height="102" viewBox="0 0 103 102" fill="none" xmlns="http://www.w3.org/2000/svg">
<path d="M86.1152 18.8676C81.3768 13.734 75.7691 9.88227 69.727 7.32971C63.4992 4.69868 56.81 3.44796 50.1356 3.59659C38.9699 3.84524 27.8459 8.01029 18.9938 16.181C-0.283113 33.9742 -1.48592 64.0255 16.3073 83.3024C34.1005 102.579 64.1517 103.782 83.4287 85.989C92.2807 77.8183 97.3215 67.0627 98.4618 55.9526" stroke="#E7E9ED" stroke-width="6" stroke-linecap="round"/>
<path d="M99.562 31.9739L93.3749 25.75L87.1878 31.9739L86.7429 32.4554C83.778 35.9137 83.9259 41.1408 87.1878 44.4218C90.6047 47.8594 96.1452 47.8594 99.562 44.4218C102.979 40.9846 102.979 35.4111 99.562 31.9739Z" fill="#E7E9ED"/>
<path d="M37.125 67C40.8454 63.0605 45.37 60.75 50.25 60.75C55.13 60.75 59.6546 63.0605 63.375 67" stroke="#172E55" stroke-width="4" stroke-linecap="round"/>
<circle cx="63.0625" cy="46.375" r="4.375" fill="#172E55"/>
<circle cx="38.0625" cy="46.375" r="4.375" fill="#172E55"/>
</svg>
