<svg width="110" height="105" viewBox="0 0 110 105" fill="none" xmlns="http://www.w3.org/2000/svg">
<path d="M97.0911 63.3797C98.8993 56.6316 99.1594 49.8335 98.0893 43.3622C96.9863 36.6921 94.47 30.3692 90.7787 24.8066C84.6033 15.5006 75.1396 8.32218 63.5036 5.20431C38.1639 -1.58543 12.1179 13.4522 5.32816 38.7919C-1.46157 64.1315 13.5761 90.1775 38.9157 96.9673C50.5518 100.085 62.3368 98.6003 72.3378 93.6288" stroke="#E7E9ED" stroke-width="6" stroke-linecap="round"/>
<path d="M63.375 60.75C59.6546 64.6895 55.13 67 50.25 67C45.37 67 40.8454 64.6895 37.125 60.75" stroke="#172E55" stroke-width="4" stroke-linecap="round"/>
<circle cx="63.0625" cy="46.375" r="4.375" fill="#172E55"/>
<circle cx="38.0625" cy="46.375" r="4.375" fill="#172E55"/>
<circle cx="85.5" cy="78.5" r="17.5" stroke="#E7E9ED" stroke-width="6"/>
<path d="M77.1839 76.1695C76.8452 77.4335 76.7965 78.7068 76.997 79.919C77.2036 81.1684 77.6749 82.3527 78.3663 83.3946C79.523 85.1378 81.2957 86.4823 83.4752 87.0664C88.2216 88.3382 93.1003 85.5214 94.3721 80.775C95.6439 76.0287 92.8272 71.15 88.0808 69.8782C85.9012 69.2942 83.6938 69.5723 81.8205 70.5035" stroke="#E7E9ED" stroke-width="3" stroke-linecap="round"/>
<path d="M97 92L107 102" stroke="#E7E9ED" stroke-width="6" stroke-linecap="round"/>
</svg>
