<svg width="260" height="228" viewBox="0 0 260 228" fill="none" xmlns="http://www.w3.org/2000/svg">
<path d="M12 2H248C253.523 2 258 6.47715 258 12V138H2V12C2 6.47715 6.47715 2 12 2Z" fill="white" stroke="#323232" stroke-width="4"/>
<mask id="path-2-inside-1_2053_3388" fill="white">
<path d="M0 140H260V178C260 184.627 254.627 190 248 190H12C5.37258 190 0 184.627 0 178V140Z"/>
</mask>
<path d="M0 140H260V178C260 184.627 254.627 190 248 190H12C5.37258 190 0 184.627 0 178V140Z" fill="#EDF1F8"/>
<path d="M0 140H260H0ZM264 178C264 186.837 256.837 194 248 194H12C3.16344 194 -4 186.837 -4 178H4C4 182.418 7.58172 186 12 186H248C252.418 186 256 182.418 256 178H264ZM12 194C3.16344 194 -4 186.837 -4 178V140H4V178C4 182.418 7.58172 186 12 186V194ZM264 140V178C264 186.837 256.837 194 248 194V186C252.418 186 256 182.418 256 178V140H264Z" fill="#323232" mask="url(#path-2-inside-1_2053_3388)"/>
<path d="M161.333 188V189.991C161.339 200.515 164.485 210.724 170.266 219.5C171.076 220.73 171.124 222.391 170.491 223.793C169.865 225.178 168.735 226 167.435 226H92.5801C91.2791 226 90.1479 225.178 89.5215 223.79C88.8877 222.386 88.937 220.724 89.748 219.493C91.4499 216.91 92.9296 214.193 94.1689 211.366C97.046 204.805 98.5713 197.782 98.6621 190.678L98.667 189.989V188H161.333Z" fill="#EDF1F8" stroke="#323232" stroke-width="4"/>
<rect x="115" y="158" width="30" height="14" rx="5" fill="#323232"/>
<path d="M106.781 31C109.543 31 111.781 28.7614 111.781 26C111.781 23.2386 109.543 21 106.781 21C104.02 21 101.781 23.2386 101.781 26C101.781 28.7614 104.02 31 106.781 31Z" fill="#FFCC24"/>
<path d="M81.9313 27.325C82.7313 25.15 85.8062 25.15 86.6312 27.325L87.9313 30.85C88.1813 31.525 88.7313 32.075 89.4063 32.325L92.9313 33.625C95.1063 34.425 95.1063 37.5 92.9313 38.325L89.4063 39.625C88.7313 39.875 88.1813 40.425 87.9313 41.1L86.6312 44.625C85.8312 46.8 82.7563 46.8 81.9313 44.625L80.6312 41.1C80.3812 40.425 79.8312 39.875 79.1562 39.625L75.6313 38.325C73.4563 37.525 73.4563 34.45 75.6313 33.625L79.1562 32.325C79.8312 32.075 80.3812 31.525 80.6312 30.85L81.9313 27.325Z" fill="#FFCC24"/>
<path d="M190.931 98.6312C191.731 96.4563 194.806 96.4563 195.631 98.6312L198.281 105.806C198.531 106.481 199.081 107.031 199.756 107.281L206.931 109.931C209.106 110.731 209.106 113.806 206.931 114.631L199.756 117.281C199.081 117.531 198.531 118.081 198.281 118.756L195.631 125.931C194.831 128.106 191.756 128.106 190.931 125.931L188.281 118.756C188.031 118.081 187.481 117.531 186.806 117.281L179.631 114.631C177.456 113.831 177.456 110.756 179.631 109.931L186.806 107.281C187.481 107.031 188.031 106.481 188.281 105.806L190.931 98.6312Z" fill="#FFCC24"/>
<path d="M128.728 100.5H131.272C151.974 100.5 168.831 116.956 169.479 137.5H90.5215C91.1695 116.956 108.026 100.5 128.728 100.5Z" fill="#FFF0BC" stroke="#323232" stroke-width="5"/>
<circle cx="130" cy="37" r="5.5" fill="#FFCC24" stroke="#323232" stroke-width="5"/>
<rect x="159" y="66" width="12" height="20" rx="6" fill="#323232"/>
<rect x="89" y="67" width="12" height="20" rx="6" fill="#323232"/>
<rect x="98.5" y="51.5" width="63" height="49" rx="17.5" fill="white" stroke="#323232" stroke-width="5"/>
<rect x="116" y="68" width="6" height="10" rx="3" fill="#323232"/>
<rect x="138" y="68" width="6" height="10" rx="3" fill="#323232"/>
<path d="M130.866 89.5C130.481 90.1667 129.519 90.1667 129.134 89.5L124.804 82C124.419 81.3333 124.9 80.5 125.67 80.5L134.33 80.5C135.1 80.5 135.581 81.3333 135.196 82L130.866 89.5Z" fill="#323232"/>
<rect x="127" y="43" width="6" height="8" fill="#323232"/>
</svg>
