<svg width="161" height="140" viewBox="0 0 161 140" fill="none" xmlns="http://www.w3.org/2000/svg">
<path d="M7.88477 1.23047H153.115C156.514 1.23047 159.27 3.98609 159.27 7.38477V84.9229H1.73047V7.38477C1.73047 3.98609 4.48609 1.23047 7.88477 1.23047Z" fill="white" stroke="#323232" stroke-width="2.46154"/>
<mask id="path-2-inside-1_2053_3371" fill="white">
<path d="M0.5 86.1538H160.5V109.538C160.5 113.617 157.194 116.923 153.115 116.923H7.88461C3.8062 116.923 0.5 113.617 0.5 109.538V86.1538Z"/>
</mask>
<path d="M0.5 86.1538H160.5V109.538C160.5 113.617 157.194 116.923 153.115 116.923H7.88461C3.8062 116.923 0.5 113.617 0.5 109.538V86.1538Z" fill="#EDF1F8"/>
<path d="M0.5 86.1538H160.5H0.5ZM162.962 109.538C162.962 114.976 158.553 119.385 153.115 119.385H7.88462C2.44673 119.385 -1.96154 114.976 -1.96154 109.538L2.96154 109.538C2.96154 112.257 5.16568 114.462 7.88462 114.462H153.115C155.834 114.462 158.038 112.257 158.038 109.538L162.962 109.538ZM7.88462 119.385C2.44673 119.385 -1.96154 114.976 -1.96154 109.538V86.1538H2.96154V109.538C2.96154 112.257 5.16568 114.462 7.88462 114.462V119.385ZM162.962 86.1538V109.538C162.962 114.976 158.553 119.385 153.115 119.385V114.462C155.834 114.462 158.038 112.257 158.038 109.538V86.1538H162.962Z" fill="#323232" mask="url(#path-2-inside-1_2053_3371)"/>
<path d="M100.09 115.692V116.859C100.094 123.109 101.981 129.172 105.452 134.402C105.958 135.164 105.992 136.202 105.6 137.081C105.212 137.949 104.511 138.461 103.707 138.461H57.9172C57.1137 138.461 56.412 137.949 56.0237 137.079C55.6308 136.198 55.6653 135.16 56.1711 134.398C57.1602 132.908 58.024 131.345 58.7532 129.721C60.5834 125.647 61.5268 121.275 61.5256 116.858V115.692H100.09Z" fill="#EDF1F8" stroke="#323232" stroke-width="2.46154"/>
<rect x="71.2693" y="97.2307" width="18.4615" height="8.61538" rx="3.07692" fill="#323232"/>
<rect x="58.9616" y="24.3075" width="16.6154" height="16.6154" rx="4.61538" stroke="#323232" stroke-width="3.07692"/>
<path d="M62.9614 32.128L66.2233 35.3844L71.5768 29.8459" stroke="#323232" stroke-width="3.07692" stroke-linecap="round" stroke-linejoin="round"/>
<path d="M90.0386 59.2049L93.3004 62.4613L98.654 56.9229" stroke="#323232" stroke-width="3.07692" stroke-linecap="round" stroke-linejoin="round"/>
<rect x="86.0385" y="51.3847" width="16.6154" height="16.6154" rx="4.61538" stroke="#323232" stroke-width="3.07692"/>
<path d="M65.4229 60.3077C65.4229 60.9874 65.9739 61.5385 66.6536 61.5385H80.4998C81.3495 61.5385 82.0383 62.2273 82.0383 63.0769C82.0383 63.9266 81.3495 64.6154 80.4998 64.6154H65.4229C63.7235 64.6154 62.3459 63.2378 62.3459 61.5385V46.4616C62.3459 45.6119 63.0347 44.9231 63.8844 44.9231C64.7341 44.9231 65.4229 45.6119 65.4229 46.4616V60.3077Z" fill="#FFE591"/>
<path d="M96.1924 30.7692C96.1924 30.0895 95.6413 29.5384 94.9616 29.5384H81.1154C80.2658 29.5384 79.577 28.8496 79.577 28C79.577 27.1503 80.2658 26.4615 81.1154 26.4615H96.1924C97.8917 26.4615 99.2693 27.8391 99.2693 29.5384V44.6153C99.2693 45.465 98.5805 46.1538 97.7308 46.1538C96.8812 46.1538 96.1924 45.465 96.1924 44.6153V30.7692Z" fill="#FFE591"/>
</svg>
