<svg width="20" height="21" viewBox="0 0 20 21" fill="none" xmlns="http://www.w3.org/2000/svg">
<path d="M10 20.5C15.5228 20.5 20 16.0228 20 10.5C20 4.97715 15.5228 0.5 10 0.5C4.47715 0.5 0 4.97715 0 10.5C0 16.0228 4.47715 20.5 10 20.5Z" fill="white"/>
<path d="M10 19.75C15.1086 19.75 19.25 15.6086 19.25 10.5C19.25 5.39137 15.1086 1.25 10 1.25C4.89137 1.25 0.75 5.39137 0.75 10.5C0.75 15.6086 4.89137 19.75 10 19.75Z" stroke="#CC3333" stroke-width="1.5"/>
<path d="M9.36018 12.2298H10.6372L10.9172 7.60984L10.9842 5.75684H9.01318L9.08018 7.60984L9.36018 12.2298ZM9.03718 15.2438H10.9862V13.3498H9.03718V15.2438Z" fill="#BF3A39"/>
</svg>
