<svg width="21" height="20" viewBox="0 0 21 20" fill="none" xmlns="http://www.w3.org/2000/svg">
<path d="M10.168 20C15.6908 20 20.168 15.5228 20.168 10C20.168 4.47715 15.6908 0 10.168 0C4.64512 0 0.167969 4.47715 0.167969 10C0.167969 15.5228 4.64512 20 10.168 20Z" fill="#CC3333"/>
<path d="M11.168 13.9C11.168 14.4523 10.7202 14.9 10.168 14.9C9.61568 14.9 9.16797 14.4523 9.16797 13.9C9.16797 13.3477 9.61568 12.9 10.168 12.9C10.7202 12.9 11.168 13.3477 11.168 13.9Z" fill="white"/>
<path d="M11.0681 5.9C11.0681 5.40294 10.6651 5 10.1681 5C9.67103 5 9.26809 5.40294 9.26809 5.9V10.4C9.26809 10.8971 9.67103 11.3 10.1681 11.3C10.6651 11.3 11.0681 10.8971 11.0681 10.4V5.9Z" fill="white"/>
</svg>
