<svg width="20" height="21" viewBox="0 0 20 21" fill="none" xmlns="http://www.w3.org/2000/svg">
<circle cx="10" cy="10.5" r="9" fill="#FF4040"/>
<path d="M8.49235 6.66985L12.2197 12.3616V6.62486C12.2197 6.25366 12.2976 5.97244 12.4534 5.78121C12.6092 5.58999 12.8206 5.5 13.0987 5.5C13.3769 5.5 13.5994 5.58999 13.7552 5.78121C13.911 5.97244 14 6.25366 14 6.62486V14.2289C14 15.0726 13.6551 15.5 12.9541 15.5C12.7761 15.5 12.6203 15.4775 12.4868 15.4213C12.3533 15.365 12.2197 15.2863 12.0974 15.185C11.975 15.0838 11.8637 14.9488 11.7636 14.8026C11.6634 14.6564 11.5522 14.5101 11.452 14.3526L7.81363 8.70585V14.3639C7.81363 14.7351 7.72462 15.0163 7.55772 15.1963C7.39082 15.3763 7.16829 15.4775 6.90125 15.4775C6.63421 15.4775 6.41168 15.3875 6.24478 15.1963C6.07789 15.0051 6 14.7238 6 14.3639V6.91732C6 6.60236 6.03338 6.35489 6.10014 6.17492C6.17803 5.97244 6.32267 5.81496 6.51182 5.69123C6.70097 5.56749 6.91238 5.5 7.13491 5.5C7.31293 5.5 7.45758 5.53375 7.57997 5.58999C7.70236 5.64623 7.81363 5.72497 7.90264 5.82621C7.99166 5.92745 8.09179 6.05118 8.19193 6.19741C8.29207 6.34364 8.39221 6.51237 8.49235 6.6811V6.66985Z" fill="white"/>
</svg>
