<svg width="118" height="28" viewBox="0 0 118 28" fill="none" xmlns="http://www.w3.org/2000/svg">
<g clip-path="url(#clip0_1528_6366)">
<path d="M83.2693 9.87988H80.9397V18.24H83.2693V14.543H85.6624V12.8766H83.2693V9.87988ZM78.6102 14.0039C78.6102 11.7914 76.6336 10.0059 74.1982 10.0059C71.7627 10.0059 69.7861 11.7984 69.7861 14.0039C69.7861 16.2095 71.7627 18.0019 74.1982 18.0019C76.6336 18.0019 78.6102 16.2095 78.6102 14.0039ZM71.9745 14.0039C71.9745 12.6736 72.9769 11.5953 74.2052 11.5953C75.4335 11.5953 76.4359 12.6736 76.4359 14.0039C76.4359 15.3342 75.4335 16.4125 74.2052 16.4125C72.9769 16.4125 71.9745 15.3342 71.9745 14.0039ZM75.0735 23.8764V23.6733H83.2693V19.2272H72.6663V20.8026H80.9045V22.1469H72.7087V23.2672C72.7087 25.8859 74.1417 26.6981 76.2948 26.6981H83.3822V25.1227H76.3018C75.3135 25.1227 75.0806 24.7516 75.0806 23.8834L75.0735 23.8764ZM110.772 25.0597C109.749 25.0597 109.198 24.5345 109.198 23.5403V21.1527H106.826V23.0082C106.826 25.6128 108.344 26.6911 111.203 26.6911H117.507V25.0597H110.779H110.772ZM115.064 17.9669V21.9649H117.373V9.87988H115.064V16.3285C113.935 17.4488 111.535 17.8759 109.883 17.8759C108.372 17.8759 107.144 17.3157 107.144 15.6773V12.3445H112.657V10.7201H104.793V15.4533C104.793 18.7791 106.861 19.5003 109.741 19.5003C111.415 19.5003 113.61 19.0872 115.064 17.9669ZM100.148 9.87988H97.8184V19.1572C96.5548 20.1725 94.797 20.7396 92.5734 20.6906C91.0627 20.6556 89.8344 20.0604 89.8344 18.163V17.2037H95.2347V10.8881H87.4695V12.5125H92.9052V15.5933H87.4695V17.5538C87.4695 21.1457 89.432 22.308 92.411 22.315C94.5076 22.315 96.7595 21.6778 97.8184 20.7886V26.6911H100.148V16.5596H102.534V14.8231H100.148V9.87988Z" fill="#426AB3"/>
<path d="M0.5 11.8956C8.29341 10.7753 15.4585 13.2539 20.7318 15.8586C19.7294 13.8491 18.5364 11.9166 17.2304 10.0751C12.8396 9.38896 3.03427 7.52649 0.5 11.8956Z" fill="#FCAF17"/>
<path d="M36.4671 26.123C36.3824 25.857 36.2977 25.5979 36.213 25.3318C36.1424 25.1288 36.0789 24.9257 36.0083 24.7297C35.9306 24.4916 35.8459 24.2535 35.7612 24.0155C35.6906 23.8194 35.62 23.6304 35.5494 23.4343C35.4435 23.1333 35.3306 22.8322 35.2176 22.5381C35.1823 22.4471 35.14 22.3561 35.1047 22.2581C34.4482 22.216 33.7776 22.104 33.0716 21.894C31.3633 21.3968 29.8032 20.4236 28.0031 19.3103L26.9513 18.6662C25.2076 17.6089 23.3158 16.4816 20.9933 15.3333C20.7603 15.2143 20.5203 15.1093 20.2803 14.9902C20.4356 15.2773 20.5909 15.5574 20.7321 15.8514C23.1393 17.0347 25.1512 18.2531 26.6407 19.1633C28.4972 20.2976 30.1067 21.3688 31.808 22.062C30.4527 23.2663 28.9843 25.1848 28.709 25.857C28.6384 25.955 28.5961 26.06 28.5961 26.165C28.5961 27.1523 32.2457 27.9855 35.733 27.9855C36.1636 27.9855 36.6013 27.9715 37.0319 27.9505C36.9048 27.5094 36.7777 27.0753 36.6366 26.6411C36.5801 26.4661 36.5236 26.2911 36.4671 26.116V26.123Z" fill="#426AB3"/>
<path d="M27.2619 10.4668L27.7702 10.3617L27.7207 10.3757C27.8196 10.3547 27.9255 10.3337 28.0384 10.3057C27.8972 10.1377 27.756 9.96963 27.6078 9.80859L27.1419 9.89962C23.6264 10.6138 22.0451 10.7398 19.0237 10.2917C18.6637 10.2917 18.0354 10.2077 17.2236 10.0747C17.3719 10.2917 17.5201 10.5088 17.6754 10.7258C18.2331 10.8098 18.6637 10.8589 18.9673 10.8659C22.0733 11.328 23.7676 11.1669 27.2619 10.4668Z" fill="#426AB3"/>
<path d="M42.0793 19.8851C39.9332 21.1524 37.9072 22.3497 35.3518 22.2797C35.2671 22.2797 35.1824 22.2657 35.0977 22.2657C35.133 22.3567 35.1682 22.4547 35.2106 22.5458C35.2459 22.6508 35.2953 22.7558 35.3377 22.8608C35.4153 23.0499 35.4789 23.2459 35.5495 23.442C35.6271 23.638 35.6977 23.8271 35.7612 24.0231C35.8459 24.2612 35.9306 24.4992 36.0083 24.7373C36.0789 24.9404 36.1495 25.1364 36.213 25.3395C36.2977 25.5985 36.3824 25.8646 36.4672 26.1307C36.5236 26.3057 36.5801 26.4807 36.6366 26.6558C36.7707 27.0899 36.9048 27.531 37.0319 27.9651C40.0674 27.7901 42.8699 27.0409 42.8699 26.1797C42.8699 26.0746 42.8275 25.9696 42.7569 25.8716C42.4675 25.1714 40.9215 23.1479 39.5097 21.9506C40.4839 21.5095 41.4227 20.9564 42.3828 20.3892C42.8558 20.1162 44.3806 19.2969 46.0677 18.4357C45.9195 18.2957 45.7712 18.1557 45.623 18.0156C43.9994 18.8488 42.5593 19.612 42.0793 19.8921V19.8851Z" fill="#EE3D96"/>
<path d="M33.3113 8.66039C33.3113 8.66039 33.4878 8.59738 33.7419 8.50636C33.5301 8.38032 33.3254 8.24029 33.1136 8.11426C31.1512 8.80043 28.8498 9.55662 27.6074 9.80868C27.7557 9.96972 27.8968 10.1378 28.038 10.3058C29.1322 10.0537 30.897 9.50761 33.3042 8.66039H33.3113Z" fill="#EE3D96"/>
<path d="M59.1837 0.993988C56.6424 -0.385356 53.1622 -0.5604 50.9103 1.96723C49.2796 3.80169 49.096 6.31532 50.2749 8.12877C51.4538 9.94923 53.5151 10.7614 55.7882 10.1453C57.7648 9.61314 58.859 7.19054 57.5813 5.55913C56.8965 4.68391 55.4494 4.28481 54.5034 4.96398C54.0587 5.28606 53.7834 5.8532 54.0587 6.37833C54.214 6.67941 54.5246 6.87546 54.8776 6.87546C55.054 6.87546 55.1882 6.80544 55.3505 6.74943C56.1765 6.45535 56.5577 7.72967 55.8659 8.10077C55.7317 8.18479 55.5694 8.2408 55.4282 8.28281C53.9881 8.67491 52.5904 8.14278 51.8774 7.0435C51.1362 5.90222 51.4821 4.26381 52.3504 3.29756C53.734 1.75018 56.2682 1.8272 57.9695 2.86346C59.6779 3.89271 61.0332 6.06326 59.7414 9.032C58.7037 11.4196 55.6117 12.1128 52.5762 12.1198C52.075 12.1198 51.5456 12.0848 50.995 12.0287C51.3268 12.2458 51.6585 12.4699 51.9833 12.6869C52.188 12.6939 52.3856 12.7009 52.5762 12.7009C56.6424 12.6939 59.3037 11.5036 60.2779 9.26306C61.718 5.94423 60.1861 3.52862 58.2731 2.36633C56.4235 1.24605 53.5645 1.057 51.9056 2.91247C50.9456 3.98374 50.4373 5.90922 51.3832 7.35158C52.2515 8.68191 53.9316 9.27706 55.5764 8.83595C55.7953 8.77293 55.9929 8.69591 56.1482 8.59789C56.6071 8.34583 56.7977 7.89771 56.7977 7.46361C56.7977 7.24655 56.7483 7.0435 56.6636 6.85445C56.3882 6.2523 55.76 5.97923 55.1388 6.20329L55.0258 6.2453C54.9411 6.27331 54.8917 6.29431 54.8634 6.29431C54.7364 6.29431 54.6234 6.2243 54.567 6.11227C54.4187 5.8322 54.6799 5.54513 54.8352 5.4331C55.52 4.94298 56.6212 5.28606 57.1083 5.90922C57.6942 6.66541 57.546 7.47761 57.4048 7.89071C57.1224 8.70992 56.4447 9.36108 55.6188 9.58514C53.6351 10.1173 51.8139 9.4591 50.7479 7.81369C49.682 6.18229 49.922 3.92772 51.3338 2.34533C53.3881 0.0417504 56.6071 0.258805 58.8943 1.49811C60.8426 2.55538 63.2781 5.75518 61.5133 9.8232C60.8638 11.3076 59.4802 12.6379 57.8848 13.2821C56.9036 13.6812 55.8659 13.9682 54.8846 14.2133L54.4893 14.3183C54.4893 14.3183 54.4399 14.3323 54.4117 14.3393C54.6164 14.4864 54.8281 14.6264 55.0329 14.7734C56.0706 14.5074 57.1083 14.2273 58.1036 13.8142C59.7767 13.135 61.3156 11.7207 62.0427 10.0473C63.8499 5.88821 61.5556 2.28231 59.1696 0.979985L59.1837 0.993988Z" fill="#426AB3"/>
<path d="M53.8188 14.5076C52.8376 14.7666 51.8352 15.0467 50.8681 15.4528C49.5903 15.9849 46.9008 17.3503 45.7995 17.9174C45.7431 17.9454 45.6795 17.9804 45.623 18.0084C45.7713 18.1485 45.9195 18.2885 46.0678 18.4285C47.9667 17.4553 50.0704 16.412 51.094 15.9849C52.3717 15.4458 53.7129 15.1307 55.0401 14.7876C54.8354 14.6406 54.6236 14.5006 54.4189 14.3535C54.2142 14.4025 54.0165 14.4585 53.8118 14.5146L53.8188 14.5076Z" fill="#FCAF17"/>
<path d="M35.5699 7.85574C38.5348 9.07405 45.8058 12.0358 50.9379 12.5959C51.185 12.6239 51.4179 12.6449 51.6509 12.6589C51.7638 12.6589 51.8768 12.6659 51.9897 12.6729C51.665 12.4559 51.3332 12.2318 51.0014 12.0148C46.0599 11.4756 39.1278 8.68895 35.584 7.22559C34.9557 7.45664 34.0733 7.77172 33.1133 8.10781C33.3251 8.23384 33.5298 8.37387 33.7416 8.4999C34.3275 8.28985 35.3158 7.93976 35.5699 7.84874V7.85574Z" fill="#FCAF17"/>
<path d="M26.9436 18.6729L27.9954 19.3171C29.7955 20.4374 31.3556 21.4036 33.064 21.9007C33.7699 22.1108 34.4335 22.2228 35.097 22.2648C35.0194 22.0548 34.9276 21.8517 34.8429 21.6417C34.6805 21.2426 34.5111 20.8365 34.3417 20.4374C34.264 20.2763 34.1934 20.1083 34.1229 19.9472C33.9464 19.5621 33.7699 19.177 33.5864 18.792C33.5016 18.6099 33.4099 18.4349 33.3181 18.2528C33.1346 17.8957 32.9581 17.5316 32.7675 17.1815C32.6616 16.9785 32.5416 16.7824 32.4357 16.5794C32.2592 16.2503 32.0757 15.9212 31.8851 15.6062C31.7509 15.3821 31.6098 15.158 31.4686 14.934C31.2921 14.6469 31.1156 14.3598 30.925 14.0728C30.7556 13.8137 30.5791 13.5686 30.4026 13.3166C30.2332 13.0715 30.0708 12.8265 29.8944 12.5884C29.6755 12.2873 29.4426 11.9933 29.2096 11.6992C29.0684 11.5241 28.9343 11.3351 28.7931 11.167C28.5531 10.873 28.2919 10.5859 28.0378 10.2988C27.9248 10.3268 27.8119 10.3478 27.7201 10.3688L27.7695 10.3548L27.2613 10.4599C23.7669 11.16 22.0798 11.3211 18.9666 10.859C18.6631 10.859 18.2254 10.803 17.6748 10.7189C18.6137 12.0983 19.4961 13.5196 20.2726 14.99C20.5126 15.102 20.7456 15.2141 20.9856 15.3331C23.3081 16.4814 25.2 17.6087 26.9436 18.6659V18.6729Z" fill="url(#paint0_linear_1528_6366)"/>
<path d="M33.3111 8.66071C30.8969 9.50092 29.1391 10.0541 28.0449 10.3061C28.2991 10.5932 28.5602 10.8733 28.8003 11.1743C28.9485 11.3494 29.0756 11.5314 29.2168 11.7065C29.4497 12.0005 29.6827 12.2946 29.9015 12.5957C30.078 12.8338 30.2403 13.0788 30.4098 13.3239C30.5863 13.5759 30.7627 13.828 30.9322 14.0801C31.1228 14.3601 31.2922 14.6542 31.4757 14.9413C31.6098 15.1653 31.7581 15.3894 31.8922 15.6134C32.0828 15.9355 32.2593 16.2646 32.4428 16.5867C32.5558 16.7897 32.6687 16.9858 32.7746 17.1888C32.9652 17.5459 33.1417 17.903 33.3252 18.2601C33.417 18.4422 33.5088 18.6172 33.5935 18.7992C33.777 19.1773 33.9535 19.5694 34.13 19.9545C34.2006 20.1156 34.2782 20.2836 34.3488 20.4447C34.5253 20.8438 34.6877 21.2429 34.85 21.649C34.8924 21.754 34.9347 21.859 34.9842 21.964H34.9912C35.0336 22.0691 35.0689 22.1671 35.1042 22.2721C35.1889 22.2721 35.2736 22.2861 35.3583 22.2861C37.9067 22.3561 39.9398 21.1588 42.0858 19.8915C42.5658 19.6114 44.0059 18.8483 45.6295 18.015C41.8881 14.5002 38.0973 11.1813 33.7488 8.51367C33.4876 8.60469 33.3182 8.66771 33.3182 8.66771L33.3111 8.66071Z" fill="url(#paint1_linear_1528_6366)"/>
<path d="M54.5037 14.3257L54.899 14.2206C55.8802 13.9686 56.9179 13.6885 57.8992 13.2894C59.4875 12.6452 60.8782 11.3149 61.5276 9.83054C63.2995 5.75553 60.8641 2.56273 58.9086 1.50546C56.6285 0.266154 53.4024 0.0490993 51.3482 2.35267C49.9434 3.93507 49.7034 6.18263 50.7623 7.82104C51.8353 9.46645 53.6566 10.1246 55.6332 9.59248C56.452 9.36843 57.1368 8.71727 57.4191 7.89806C57.5603 7.48496 57.7086 6.67275 57.1227 5.91656C56.6356 5.29341 55.5343 4.95032 54.8496 5.44045C54.6943 5.55247 54.4331 5.83955 54.5813 6.11962C54.6378 6.23164 54.7507 6.30166 54.8778 6.30166C54.906 6.30166 54.9555 6.28066 55.0402 6.25265L55.1531 6.21064C55.7743 5.98658 56.4026 6.25965 56.6779 6.8618C56.7626 7.05085 56.812 7.2539 56.812 7.47095C56.812 7.90506 56.6144 8.35317 56.1626 8.60524C56.0002 8.70326 55.8096 8.78028 55.5908 8.8433C53.946 9.28441 52.2659 8.68926 51.3976 7.35893C50.4587 5.90956 50.967 3.99108 51.92 2.91982C53.5718 1.06435 56.4379 1.2534 58.2874 2.37368C60.2005 3.53597 61.7323 5.95157 60.2923 9.2704C59.3181 11.511 56.6567 12.6943 52.5906 12.7083C52.4 12.7083 52.2024 12.7013 51.9976 12.6943C52.8165 13.2334 53.6283 13.7935 54.426 14.3607C54.4543 14.3607 54.4825 14.3467 54.5037 14.3397V14.3257Z" fill="url(#paint2_linear_1528_6366)"/>
<path d="M53.8183 14.5072C54.023 14.4512 54.2278 14.4022 54.4254 14.3462C53.6277 13.772 52.8159 13.2189 51.997 12.6798C51.8841 12.6798 51.7712 12.6658 51.6582 12.6658C52.3712 13.2889 53.0912 13.9051 53.8183 14.5072Z" fill="#FCAF17"/>
<path d="M51.9903 12.6795C51.8774 12.6795 51.7645 12.6655 51.6515 12.6655C51.4185 12.6445 51.1856 12.6305 50.9385 12.6025C45.8135 12.0423 38.5354 9.08061 35.5705 7.8623C35.3164 7.95333 34.3281 8.30342 33.7422 8.51347C38.0836 11.1881 41.8815 14.5 45.6229 18.0148C45.6794 17.9868 45.7429 17.9518 45.7994 17.9238C46.8936 17.3637 49.5902 15.9983 50.8679 15.4592C51.835 15.0531 52.8304 14.773 53.8187 14.514C54.0234 14.458 54.2281 14.4089 54.4258 14.3529C53.6281 13.7788 52.8163 13.2256 51.9974 12.6865L51.9903 12.6795Z" fill="url(#paint3_linear_1528_6366)"/>
<path d="M35.5842 2.53418C34.7583 2.53418 34.0947 3.19935 34.0947 4.01155C34.0947 5.62195 35.2666 6.92428 35.5842 7.23235C35.8948 6.92428 37.0737 5.62195 37.0737 4.01155C37.0737 3.19935 36.4031 2.53418 35.5842 2.53418Z" fill="#FCAF17"/>
</g>
<defs>
<linearGradient id="paint0_linear_1528_6366" x1="29.0826" y1="10.7609" x2="25.8021" y2="17.8603" gradientUnits="userSpaceOnUse">
<stop stop-color="#778AC5"/>
<stop offset="0.03" stop-color="#7387C3"/>
<stop offset="0.25" stop-color="#5877BA"/>
<stop offset="0.45" stop-color="#476DB4"/>
<stop offset="0.6" stop-color="#426AB3"/>
</linearGradient>
<linearGradient id="paint1_linear_1528_6366" x1="30.4662" y1="10.3201" x2="41.1085" y2="21.0568" gradientUnits="userSpaceOnUse">
<stop stop-color="#F392BD"/>
<stop offset="0.14" stop-color="#F06EAC"/>
<stop offset="0.28" stop-color="#EF53A0"/>
<stop offset="0.41" stop-color="#EE4298"/>
<stop offset="0.5" stop-color="#EE3D96"/>
</linearGradient>
<linearGradient id="paint2_linear_1528_6366" x1="61.2453" y1="3.90706" x2="52.4644" y2="9.01751" gradientUnits="userSpaceOnUse">
<stop stop-color="#778AC5"/>
<stop offset="0.02" stop-color="#7387C3"/>
<stop offset="0.15" stop-color="#5877BA"/>
<stop offset="0.26" stop-color="#476DB4"/>
<stop offset="0.35" stop-color="#426AB3"/>
</linearGradient>
<linearGradient id="paint3_linear_1528_6366" x1="36.5659" y1="5.17363" x2="48.0788" y2="14.9078" gradientUnits="userSpaceOnUse">
<stop stop-color="#FFD48E"/>
<stop offset="0.09" stop-color="#FEC96D"/>
<stop offset="0.21" stop-color="#FDBE48"/>
<stop offset="0.32" stop-color="#FCB52D"/>
<stop offset="0.42" stop-color="#FCB01C"/>
<stop offset="0.5" stop-color="#FCAF17"/>
</linearGradient>
<clipPath id="clip0_1528_6366">
<rect width="117" height="28" fill="white" transform="translate(0.5)"/>
</clipPath>
</defs>
</svg>
