<svg width="90" height="32" viewBox="0 0 90 32" fill="none" xmlns="http://www.w3.org/2000/svg">
<path d="M16.2613 6.38076C16.2613 6.38076 14.6518 12.6643 14.355 13.8169C13.3048 17.8933 11.106 20.1719 8.04252 20.1917C6.00279 20.2046 5.22966 18.6167 5.87365 15.656C5.87365 15.656 7.64741 8.24819 8.02627 6.66805C8.06134 6.52096 7.95016 6.38162 7.80049 6.38162H2.95047C2.95047 6.38162 1.76939 11.2855 1.00054 14.2436C-0.422567 19.7212 1.17928 24.004 5.92924 24.3334C8.4881 24.5106 10.7134 23.2504 12.4034 21.6049L12.4872 21.6135C11.5113 24.9329 9.86331 26.7737 6.62113 27.3973C5.3819 27.6356 3.60814 27.4274 2.31931 26.7513C2.20471 26.6911 2.0653 26.7496 2.03366 26.8761L0.861136 31.5632C2.11234 31.9468 4.41292 32.1937 6.88283 31.8014C11.2206 31.1124 16.4383 27.8248 18.2035 20.2209L21.5124 6.67752C21.5492 6.52785 21.4363 6.38334 21.2824 6.38248H16.263L16.2613 6.38076Z" fill="#060000"/>
<path d="M89.2691 18.7371H85.1067L88.3172 6.67321C88.3565 6.52526 88.2462 6.38076 88.094 6.38076H83.7605L80.4089 18.7371H76.7493L79.9915 6.6758C80.0326 6.52785 79.9222 6.38076 79.7692 6.38076H75.5238C75.5238 6.38076 72.3757 17.8572 71.8865 19.6007C70.117 25.9084 66.1752 23.2565 64.0141 22.7171C67.3212 20.6975 69.7963 18.2313 71.0099 14.7339C71.9848 11.9228 71.6342 8.84601 69.6261 7.06975C67.6796 5.34769 65.3243 5.00878 63.0921 5.3193C60.535 5.67541 58.1258 7.302 56.9062 9.29846L59.3796 12.4097C59.4694 12.5224 59.6464 12.5052 59.7088 12.3744C60.281 11.1754 61.368 10.0614 62.4601 9.68726C63.7293 9.25287 65.1199 9.28728 66.0564 10.2042C66.968 11.0962 67.0407 13.0738 66.0187 14.9851C64.2971 18.203 59.4642 21.4802 55.4771 22.952L57.2894 27.289C57.339 27.4068 57.4861 27.4498 57.587 27.3715C58.6261 26.5656 60.3494 26.1922 61.6399 26.3006C64.4254 26.5354 65.0549 27.3965 67.624 27.707C71.411 28.1646 74.2734 26.0383 75.4648 22.583L79.3467 22.6062L77.3035 30.1103C77.2625 30.2583 77.3728 30.4054 77.5259 30.4054H81.9876L84.0607 22.6311L88.549 22.6552L89.4923 19.027C89.5308 18.8799 89.4204 18.7354 89.2691 18.7354V18.7371Z" fill="#060000"/>
<path d="M48.9226 14.3546C46.7281 13.2733 45.2101 12.2841 45.3905 10.9078C45.512 9.98144 46.6374 9.29932 48.3419 9.45587C49.4033 9.55393 50.3158 10.0546 51.1727 10.8382C51.6645 11.288 52.2016 11.9314 52.524 12.494C52.5882 12.6058 52.7404 12.6239 52.831 12.5327L55.9569 9.4077C53.7906 6.38076 51.3412 5.29006 48.0246 5.21522C45.3084 5.15415 42.2835 6.07453 40.9741 8.93031C40.2129 10.5913 40.1633 12.8682 41.9149 14.9403C42.8069 15.9958 44.2839 17.0985 46.1312 18.0017C48.5711 19.1939 49.6333 20.0885 49.4589 21.3572C49.2023 23.2255 47.3251 23.7717 45.7061 23.5567C43.249 23.2315 41.6147 21.838 41.8832 19.316L37.188 18.0326C37.0734 18.0017 36.9614 18.0791 36.9417 18.1969C36.8468 18.7629 36.6013 19.3771 36.2806 19.9164C34.9071 22.2251 32.1096 23.8698 29.0419 23.2169C25.1993 22.3997 24.4707 18.5272 25.7595 14.3322C27.0518 10.1277 31.7376 8.30324 33.407 9.47565C34.6514 10.3487 34.2323 12.2867 32.9999 13.632C31.7461 14.9997 29.3866 15.7867 26.9355 15.834C26.7499 15.8375 26.6438 16.0491 26.7456 16.2048L28.7203 19.1638C33.939 19.1836 38.3785 15.5476 38.9412 12.2488C39.4603 9.20814 38.062 6.62849 35.1209 5.64617C33.0512 4.95545 30.205 5.24275 27.9284 6.14421C24.7367 7.40866 22.0718 10.2102 20.9899 13.5468C19.5882 17.8709 20.0406 21.5783 21.9674 24.1235C23.4658 26.1036 25.7091 27.5892 29.1599 27.7319C32.6972 27.8782 36.1643 26.6344 38.3477 24.0375C39.2594 25.6374 42.1133 27.5625 45.636 27.7276C51.136 27.984 54.3944 24.9527 54.722 21.3925C55.0119 18.2399 52.5608 16.1463 48.9226 14.3537V14.3546Z" fill="#060000"/>
<path d="M9.46477 5.39414C10.8349 5.39414 11.366 4.34473 11.7149 2.69664C12.0536 1.09328 11.9757 0 10.6048 0C9.23472 0 8.69421 1.09328 8.35468 2.6975C8.0066 4.34473 8.09469 5.395 9.46477 5.395V5.39414Z" fill="#0080FF"/>
<path d="M14.7125 5.39414C16.0826 5.39414 16.6137 4.34473 16.9626 2.69664C17.3013 1.09328 17.2226 0 15.8525 0C14.4824 0 13.9419 1.09328 13.6024 2.6975C13.2543 4.34473 13.3424 5.395 14.7125 5.395V5.39414Z" fill="#0080FF"/>
</svg>
