<svg width="40" height="40" viewBox="0 0 40 40" fill="none" xmlns="http://www.w3.org/2000/svg">
<path d="M5.58301 30.9272H8.80887" stroke="#323232" stroke-linecap="round"/>
<path d="M7.19531 29.3142V32.5401" stroke="#323232" stroke-linecap="round"/>
<path d="M34.8525 15.106H38.0784" stroke="#323232" stroke-linecap="round"/>
<path d="M36.4648 13.4932V16.719" stroke="#323232" stroke-linecap="round"/>
<path d="M4 6.37329H8.74643" stroke="#323232" stroke-linecap="round"/>
<path d="M6.37402 4L6.37402 8.74643" stroke="#323232" stroke-linecap="round"/>
<circle cx="19.822" cy="19.2092" r="11.2536" fill="#FFE591" stroke="#323232"/>
<path d="M15.1318 29.5249H24.5099V35.0273C24.5099 36.1319 23.6144 37.0273 22.5099 37.0273H17.1318C16.0273 37.0273 15.1318 36.1319 15.1318 35.0273V29.5249Z" fill="white" stroke="#323232"/>
<path d="M15 19.6668C15 18.7462 15.7462 18 16.6668 18V18C17.5873 18 18.3336 18.7462 18.3336 19.6668V21.3336H16.6668C15.7462 21.3336 15 20.5873 15 19.6668V19.6668Z" stroke="#323232"/>
<path d="M21.666 19.6668C21.666 18.7462 22.4123 18 23.3328 18V18C24.2533 18 24.9996 18.7462 24.9996 19.6668V19.6668C24.9996 20.5873 24.2533 21.3336 23.3328 21.3336H21.666V19.6668Z" stroke="#323232"/>
<path d="M18.334 25.5005V21.3335H21.6676C21.6676 22.9608 21.6676 23.8732 21.6676 25.5005" stroke="#323232" stroke-linecap="round" stroke-linejoin="round"/>
</svg>
