<svg width="36" height="31" viewBox="0 0 36 31" fill="none" xmlns="http://www.w3.org/2000/svg">
<path d="M33.7703 1.00107H22.079C20.6377 1.00308 19.2258 1.38426 18.0035 2.10136C16.7766 1.38406 15.3605 1.00296 13.9151 1.00107H2.22463C1.97002 1.00107 1.72585 1.09602 1.54582 1.26503C1.36579 1.43404 1.26465 1.66326 1.26465 1.90228L1.26465 23.1748C1.26759 23.4129 1.36968 23.6406 1.54907 23.809C1.72847 23.9774 1.97094 24.0732 2.22463 24.076H13.9151C15.179 24.0748 16.4087 24.4609 17.4175 25.1755C17.5831 25.2968 17.7871 25.3626 17.9971 25.3626C18.2071 25.3626 18.411 25.2968 18.5766 25.1755C19.5864 24.4625 20.8155 24.0766 22.079 24.076H33.7703C34.0249 24.076 34.2691 23.981 34.4491 23.812C34.6292 23.643 34.7303 23.4138 34.7303 23.1748C34.7303 23.1748 34.7303 2.87415 34.7303 1.90304C34.7303 0.931927 34.8728 1.00107 33.7703 1.00107Z" fill="white" stroke="#323232" stroke-linecap="round"/>
<path d="M17.9971 1.58618V24.9878" stroke="#323232"/>
<path d="M23.1191 7.83862H29.8123" stroke="#323232" stroke-linecap="round"/>
<path d="M23.1191 12.5515H29.8123" stroke="#323232" stroke-linecap="round"/>
<path d="M23.1191 17.2642H29.8123" stroke="#323232" stroke-linecap="round"/>
<path d="M6.12109 7.83862H12.8142" stroke="#323232" stroke-linecap="round"/>
<path d="M6.12109 12.5515H12.8142" stroke="#323232" stroke-linecap="round"/>
<path d="M6.12109 17.2642H12.8142" stroke="#323232" stroke-linecap="round"/>
<circle cx="26.7038" cy="21.0006" r="5.88248" fill="#FFE591" stroke="#323232"/>
<path d="M28.7705 26.6741L30.8083 25.4976L32.5555 28.5238C32.8316 29.0021 32.6677 29.6137 32.1894 29.8898L31.8837 30.0663C31.4054 30.3425 30.7939 30.1786 30.5177 29.7003L28.7705 26.6741Z" fill="white" stroke="#323232" stroke-linejoin="round"/>
<path d="M26.8998 24.1377C27.2247 24.1377 27.488 23.8743 27.488 23.5494C27.488 23.2245 27.2247 22.9612 26.8998 22.9612C26.5749 22.9612 26.3115 23.2245 26.3115 23.5494C26.3115 23.8743 26.5749 24.1377 26.8998 24.1377Z" fill="#323232"/>
<rect x="26.3115" y="18.2554" width="1.1765" height="3.92165" rx="0.588248" fill="#323232"/>
</svg>
