<svg width="40" height="40" viewBox="0 0 40 40" fill="none" xmlns="http://www.w3.org/2000/svg">
<path d="M16.7129 5L25.2852 13.5713V33.5713H7.42773C5.45529 33.5713 3.85645 31.9724 3.85645 30V8.57129C3.85652 6.59891 5.45534 5 7.42773 5H16.7129Z" fill="white"/>
<path d="M16.7129 5L17.0664 4.64643C16.9727 4.55267 16.8455 4.5 16.7129 4.5V5ZM25.2852 13.5713H25.7852C25.7852 13.4387 25.7325 13.3115 25.6387 13.2177L25.2852 13.5713ZM25.2852 33.5713V34.0713C25.5613 34.0713 25.7852 33.8474 25.7852 33.5713H25.2852ZM3.85645 30H3.35645H3.85645ZM3.85645 8.57129L3.35645 8.57127V8.57129H3.85645ZM16.7129 5L16.3594 5.35357L24.9316 13.9249L25.2852 13.5713L25.6387 13.2177L17.0664 4.64643L16.7129 5ZM25.2852 13.5713H24.7852V33.5713H25.2852H25.7852V13.5713H25.2852ZM25.2852 33.5713V33.0713H7.42773V33.5713V34.0713H25.2852V33.5713ZM7.42773 33.5713V33.0713C5.73143 33.0713 4.35645 31.6963 4.35645 30H3.85645H3.35645C3.35645 32.2486 5.17915 34.0713 7.42773 34.0713V33.5713ZM3.85645 30H4.35645V8.57129H3.85645H3.35645V30H3.85645ZM3.85645 8.57129L4.35645 8.57131C4.35651 6.87504 5.7315 5.5 7.42773 5.5V5V4.5C5.17917 4.5 3.35653 6.32278 3.35645 8.57127L3.85645 8.57129ZM7.42773 5V5.5H16.7129V5V4.5H7.42773V5Z" fill="#323232"/>
<path d="M32.5985 18.5042H21.7589C18.5784 18.5042 16 21.0825 16 24.2631C16 27.4437 18.5784 30.022 21.7589 30.022H32.5985C35.7791 30.022 38.3575 27.4437 38.3575 24.2631C38.3575 21.0825 35.7791 18.5042 32.5985 18.5042Z" fill="#FFE591"/>
<path d="M32.599 18.9832H21.7594C18.8434 18.9832 16.4795 21.3471 16.4795 24.2631C16.4795 27.1791 18.8434 29.543 21.7594 29.543H32.599C35.515 29.543 37.8789 27.1791 37.8789 24.2631C37.8789 21.3471 35.515 18.9832 32.599 18.9832Z" stroke="#323232"/>
<g clip-path="url(#clip0_3241_55567)">
<path d="M23.5916 22V27H22.3733V25.0536H20.7129V27H19.5V22H20.7183V23.875H22.3787V22H23.597H23.5916Z" fill="#323232"/>
<path d="M31.1875 22L29.7913 27H28.4867L27.6619 23.9583L26.7994 27H25.4948L24.1094 22H25.3654L26.2334 25.1905L27.1444 22H28.2603L29.1282 25.2202L30.0339 22H31.1929H31.1875Z" fill="#323232"/>
<path d="M35.5 23.8512C35.5 24.9881 34.7615 25.6905 33.5917 25.6905H32.8424V26.994H31.624V22H33.5917C34.7669 22 35.5 22.7083 35.5 23.8512ZM34.2709 23.8512C34.2709 23.3869 34.0176 23.1131 33.5162 23.1131H32.8424V24.5774H33.5162C34.0176 24.5774 34.2709 24.3036 34.2709 23.8512Z" fill="#323232"/>
</g>
<path d="M8 22H13" stroke="#323232" stroke-miterlimit="10" stroke-linecap="round"/>
<path d="M8 24.9961H12" stroke="#323232" stroke-miterlimit="10" stroke-linecap="round"/>
<path d="M8 18.9961H14" stroke="#323232" stroke-miterlimit="10" stroke-linecap="round"/>
<path d="M8 28H11" stroke="#323232" stroke-miterlimit="10" stroke-linecap="round"/>
<path d="M16.7147 13.5715L25.2861 13.5715L16.7147 5.0001L16.7147 13.5715Z" fill="white" stroke="#323232" stroke-linejoin="round"/>
<defs>
<clipPath id="clip0_3241_55567">
<rect width="16" height="5" fill="white" transform="translate(19.5 22)"/>
</clipPath>
</defs>
</svg>
