<svg width="40" height="40" viewBox="0 0 40 40" fill="none" xmlns="http://www.w3.org/2000/svg">
<path d="M20 40C31.0457 40 40 31.0457 40 20C40 8.9543 31.0457 0 20 0C8.9543 0 0 8.9543 0 20C0 31.0457 8.9543 40 20 40Z" fill="#EEEEEE"/>
<path d="M25.001 13H15.001C12.7918 13 11.001 14.7909 11.001 17V23C11.001 25.2091 12.7918 27 15.001 27H25.001C27.2101 27 29.001 25.2091 29.001 23V17C29.001 14.7909 27.2101 13 25.001 13Z" fill="#191919"/>
<path d="M23.559 20.0002L18.023 23.1632V16.8372L23.559 20.0002Z" fill="white"/>
</svg>
