<svg width="44" height="44" viewBox="0 0 44 44" fill="none" xmlns="http://www.w3.org/2000/svg">
<path d="M22 44C34.1503 44 44 34.1503 44 22C44 9.84974 34.1503 0 22 0C9.84974 0 0 9.84974 0 22C0 34.1503 9.84974 44 22 44Z" fill="#E7E9ED"/>
<path d="M22.0232 12C16.4949 12 12.0087 16.0904 12.0087 21.1386C11.9424 22.5547 12.2565 23.9628 12.9183 25.2165C13.5801 26.4703 14.5655 27.524 15.7721 28.2682V32.6468C15.771 32.695 15.784 32.7426 15.8095 32.7836C15.8351 32.8246 15.872 32.8572 15.9159 32.8774C15.9597 32.8977 16.0085 32.9047 16.0563 32.8976C16.1041 32.8905 16.1487 32.8697 16.1848 32.8375L19.9923 30.063L20.0649 30.0863C20.7132 30.2035 21.371 30.2596 22.0297 30.2538C27.558 30.2538 32.0442 26.1633 32.0442 21.1152C32.0442 16.0917 27.558 12 22.0297 12" fill="black"/>
<path d="M18.505 25.0232C17.981 25.035 17.4601 24.9406 16.9737 24.7456C16.4872 24.5506 16.0453 24.259 15.6747 23.8885C15.3041 23.518 15.0123 23.0762 14.8172 22.5898C14.622 22.1035 14.5274 21.5826 14.5391 21.0586C14.5271 20.5345 14.6214 20.0133 14.8164 19.5266C15.0114 19.0399 15.3031 18.5978 15.6737 18.227C16.0444 17.8562 16.4864 17.5644 16.973 17.3693C17.4597 17.1741 17.9808 17.0796 18.505 17.0915C19.3991 17.0646 20.272 17.367 20.9581 17.9411C21.6442 18.5152 22.0956 19.3211 22.2268 20.206H20.6942C20.5736 19.7214 20.2905 19.2928 19.8921 18.9917C19.4937 18.6906 19.0041 18.5352 18.505 18.5514C18.1731 18.5376 17.8421 18.5932 17.533 18.7147C17.2239 18.8361 16.9436 19.0207 16.7099 19.2567C16.4763 19.4927 16.2944 19.7749 16.176 20.0851C16.0577 20.3954 16.0053 20.727 16.0224 21.0586C16.0134 21.3882 16.0713 21.7161 16.1926 22.0227C16.3139 22.3292 16.496 22.608 16.728 22.8422C16.96 23.0764 17.2371 23.2612 17.5425 23.3853C17.8479 23.5095 18.1753 23.5704 18.505 23.5645C18.9945 23.5848 19.4765 23.4398 19.8736 23.1528C20.2707 22.8659 20.5598 22.4537 20.6942 21.9826H22.2268C22.0735 22.8473 21.6216 23.6308 20.9499 24.1965C20.2565 24.7492 19.3915 25.0416 18.505 25.0232ZM24.9274 24.8778H23.5168V17.1408H24.9274V20.0594C25.1093 19.802 25.3556 19.5969 25.6416 19.4646C25.9276 19.3323 26.2434 19.2774 26.5573 19.3054C26.8309 19.291 27.1042 19.3382 27.3572 19.4435C27.6101 19.5489 27.8361 19.7097 28.0185 19.914C28.4245 20.3666 28.6345 20.9616 28.6025 21.5686V24.8778H27.1906V21.714C27.209 21.5668 27.1944 21.4174 27.1478 21.2766C27.1013 21.1358 27.0239 21.0072 26.9213 20.9C26.8188 20.7929 26.6937 20.71 26.555 20.6572C26.4164 20.6045 26.2678 20.5834 26.12 20.5953C25.3517 20.5953 24.9287 21.0703 24.9287 21.9346L24.9274 24.8778Z" fill="white"/>
</svg>
