<svg width="17" height="16" viewBox="0 0 17 16" fill="none" xmlns="http://www.w3.org/2000/svg">
<path d="M15.5 9.75C15.9142 9.75 16.25 9.41421 16.25 9C16.25 8.58579 15.9142 8.25 15.5 8.25V9V9.75ZM15.5 15.75C15.9142 15.75 16.25 15.4142 16.25 15C16.25 14.5858 15.9142 14.25 15.5 14.25V15V15.75ZM15.5 9V8.25C13.4289 8.25 11.75 9.92893 11.75 12H12.5H13.25C13.25 10.7574 14.2574 9.75 15.5 9.75V9ZM12.5 12H11.75C11.75 14.0711 13.4289 15.75 15.5 15.75V15V14.25C14.2574 14.25 13.25 13.2426 13.25 12H12.5ZM15.5 15V14.25H4.5V15V15.75H15.5V15ZM4.5 9V9.75H15.5V9V8.25H4.5V9ZM1.5 12H2.25C2.25 10.7574 3.25736 9.75 4.5 9.75V9V8.25C2.42893 8.25 0.75 9.92893 0.75 12H1.5ZM4.5 15V14.25C3.25736 14.25 2.25 13.2426 2.25 12H1.5H0.75C0.75 14.0711 2.42893 15.75 4.5 15.75V15Z" fill="white"/>
<circle cx="4.5" cy="12" r="1" fill="white"/>
<path d="M1.5 1.75C1.08579 1.75 0.75 1.41421 0.75 1C0.75 0.585786 1.08579 0.25 1.5 0.25V1V1.75ZM1.5 7.75C1.08579 7.75 0.75 7.41421 0.75 7C0.75 6.58579 1.08579 6.25 1.5 6.25V7V7.75ZM1.5 1V0.25C3.57107 0.25 5.25 1.92893 5.25 4H4.5H3.75C3.75 2.75736 2.74264 1.75 1.5 1.75V1ZM4.5 4H5.25C5.25 6.07107 3.57107 7.75 1.5 7.75V7V6.25C2.74264 6.25 3.75 5.24264 3.75 4H4.5ZM1.5 7V6.25H12.5V7V7.75H1.5V7ZM12.5 1V1.75H1.5V1V0.25H12.5V1ZM15.5 4H14.75C14.75 2.75736 13.7426 1.75 12.5 1.75V1V0.25C14.5711 0.25 16.25 1.92893 16.25 4H15.5ZM12.5 7V6.25C13.7426 6.25 14.75 5.24264 14.75 4H15.5H16.25C16.25 6.07107 14.5711 7.75 12.5 7.75V7Z" fill="white"/>
<circle cx="12.5" cy="4" r="1" fill="white"/>
</svg>
