<svg width="44" height="44" viewBox="0 0 44 44" fill="none" xmlns="http://www.w3.org/2000/svg">
<path d="M22 44C34.1503 44 44 34.1503 44 22C44 9.84974 34.1503 0 22 0C9.84974 0 0 9.84974 0 22C0 34.1503 9.84974 44 22 44Z" fill="#E7E9ED"/>
<path d="M27.6998 14H15.7714C13.1362 14 11 16.1362 11 18.7714V25.9284C11 28.5636 13.1362 30.6998 15.7714 30.6998H27.6998C30.335 30.6998 32.4712 28.5636 32.4712 25.9284V18.7714C32.4712 16.1362 30.335 14 27.6998 14Z" fill="black"/>
<path d="M25.98 22.3501L19.3764 26.1231V18.5771L25.98 22.3501Z" fill="white"/>
</svg>
