<svg width="40" height="29" viewBox="0 0 40 29" fill="none" xmlns="http://www.w3.org/2000/svg">
<path d="M17.19 26.34V2.1C17.19 0.94 16.25 0 15.1 0C13.95 0 13 0.94 13 2.1V26.34C13 26.7 13.09 27.04 13.25 27.33C13.25 27.35 13.27 27.36 13.28 27.38C13.28 27.38 13.28 27.4 13.3 27.41C13.3 27.41 13.3 27.43 13.32 27.43C13.69 28.03 14.35 28.43 15.11 28.43C15.92 28.43 16.63 27.97 16.97 27.29C16.97 27.29 16.97 27.29 16.97 27.28C16.97 27.28 16.97 27.26 16.99 27.25V27.23C16.99 27.23 16.99 27.22 16.99 27.21C16.99 27.21 16.99 27.19 17.01 27.18C17.01 27.18 17.01 27.18 17.01 27.17C17.01 27.16 17.02 27.14 17.03 27.13C17.05 27.07 17.08 27.01 17.1 26.94C17.1 26.92 17.1 26.91 17.11 26.89C17.11 26.89 17.11 26.86 17.12 26.85C17.12 26.85 17.12 26.84 17.12 26.83C17.12 26.83 17.12 26.81 17.12 26.8C17.12 26.8 17.12 26.78 17.12 26.77C17.12 26.77 17.12 26.76 17.12 26.75C17.15 26.61 17.16 26.47 17.16 26.33" fill="white"/>
<path d="M27.3499 14.215C27.3499 13.055 26.4099 12.125 25.2599 12.125C24.1099 12.125 23.1699 13.065 23.1699 14.215V28.425H27.3599V14.215H27.3499Z" fill="white"/>
<path d="M17.1792 26.34V26.29C17.1792 25.97 17.0892 25.65 16.9292 25.35L12.9892 18L3.94922 1.11C3.56922 0.400001 2.84922 0 2.09922 0C1.76922 0 1.42922 0.08 1.10922 0.25C0.0892228 0.8 -0.290777 2.07 0.249223 3.09L13.2392 27.33C13.2392 27.35 13.2592 27.36 13.2692 27.38C13.2692 27.38 13.2692 27.4 13.2892 27.41C13.2892 27.41 13.2892 27.43 13.3092 27.43C13.3592 27.51 13.4092 27.58 13.4592 27.65C13.5092 27.71 13.5492 27.76 13.5992 27.81C13.6092 27.82 13.6192 27.83 13.6292 27.85C13.6792 27.9 13.7392 27.95 13.7992 28C13.7992 28 13.8192 28.02 13.8292 28.02C13.8892 28.07 13.9592 28.11 14.0192 28.15C14.0192 28.15 14.0392 28.16 14.0492 28.17C14.1192 28.21 14.1892 28.25 14.2692 28.28C14.2692 28.28 14.2792 28.28 14.2892 28.28C14.5392 28.38 14.8092 28.44 15.0892 28.44C15.2792 28.44 15.4692 28.41 15.6592 28.36C15.6792 28.36 15.6892 28.36 15.7092 28.34C15.7792 28.32 15.8492 28.29 15.9192 28.26C15.9392 28.26 15.9692 28.24 15.9892 28.23C16.0192 28.21 16.0492 28.2 16.0892 28.19C16.1092 28.18 16.1292 28.16 16.1492 28.15C16.1992 28.12 16.2392 28.1 16.2792 28.07C16.3192 28.04 16.3592 28.01 16.3992 27.98C16.4392 27.95 16.4792 27.92 16.5092 27.88C16.5492 27.85 16.5892 27.81 16.6192 27.78C16.6592 27.74 16.6892 27.7 16.7192 27.66C16.7492 27.63 16.7792 27.59 16.7992 27.55C16.8592 27.47 16.9092 27.39 16.9492 27.3C16.9492 27.3 16.9492 27.3 16.9492 27.29C16.9492 27.29 16.9492 27.27 16.9692 27.26V27.24C16.9692 27.24 16.9692 27.23 16.9692 27.22C16.9692 27.22 16.9692 27.2 16.9892 27.19C16.9892 27.19 16.9892 27.19 16.9892 27.18C16.9892 27.17 16.9992 27.15 17.0092 27.14C17.0292 27.08 17.0592 27.02 17.0792 26.95C17.0792 26.93 17.0792 26.92 17.0892 26.9C17.0892 26.9 17.0892 26.87 17.0992 26.86C17.0992 26.86 17.0992 26.85 17.0992 26.84C17.0992 26.84 17.0992 26.82 17.0992 26.81C17.0992 26.81 17.0992 26.79 17.0992 26.78C17.0992 26.78 17.0992 26.77 17.0992 26.76C17.1192 26.62 17.1392 26.48 17.1392 26.34" fill="white"/>
<path d="M4.19 13.9763L0 6.15625V28.4363H4.19V13.9763Z" fill="white"/>
<path d="M35.6795 12.125H29.0195V16.315H35.6795C36.8395 16.315 37.7795 15.375 37.7795 14.215C37.7795 13.055 36.8395 12.125 35.6795 12.125Z" fill="white"/>
<path d="M36.9798 24.25H29.0098V28.44H36.9798C38.1398 28.44 39.0798 27.5 39.0798 26.35C39.0798 25.2 38.1398 24.25 36.9798 24.25Z" fill="white"/>
<path d="M23.1602 14.22V6.92C23.1602 3.1 26.2602 0.01 30.0802 0H36.9902C38.1502 0 39.0902 0.94 39.0902 2.09C39.0902 3.24 38.1502 4.19 36.9902 4.19H30.0802C28.5802 4.19 27.3602 5.41 27.3602 6.91V14.21C27.3602 15.37 26.4202 16.3 25.2702 16.3C24.1202 16.3 23.1702 15.36 23.1702 14.21" fill="white"/>
</svg>
