<svg width="70" height="52" viewBox="0 0 70 52" fill="none" xmlns="http://www.w3.org/2000/svg">
<path d="M17.185 49.9031V25.6661C17.2027 25.3799 17.1616 25.0932 17.0643 24.8235C16.9669 24.5539 16.8154 24.307 16.6191 24.0981C16.4227 23.8893 16.1856 23.7228 15.9225 23.609C15.6594 23.4952 15.3757 23.4365 15.089 23.4365C14.8023 23.4365 14.5187 23.4952 14.2555 23.609C13.9924 23.7228 13.7553 23.8893 13.559 24.0981C13.3626 24.307 13.2111 24.5539 13.1137 24.8235C13.0164 25.0932 12.9753 25.3799 12.993 25.6661V49.9031C12.9924 50.2504 13.0783 50.5924 13.243 50.8981C13.2519 50.9157 13.2619 50.9327 13.273 50.9491C13.279 50.9581 13.282 50.9671 13.288 50.9761C13.2919 50.9847 13.297 50.9928 13.303 51.0001C13.4984 51.3157 13.774 51.5739 14.1017 51.7484C14.4294 51.9229 14.7975 52.0073 15.1685 51.9932C15.5394 51.9791 15.9001 51.8669 16.2135 51.668C16.527 51.4691 16.7822 51.1907 16.953 50.8611C16.953 50.8611 16.953 50.8551 16.959 50.8491C16.9629 50.8395 16.9679 50.8304 16.974 50.8221C16.9765 50.8149 16.9795 50.8078 16.983 50.8011C16.9866 50.7943 16.9896 50.7873 16.992 50.7801C16.998 50.7711 17.001 50.7591 17.007 50.7501C17.013 50.7411 17.007 50.7411 17.007 50.7381C17.007 50.7351 17.019 50.7111 17.025 50.6991C17.0243 50.6971 17.0243 50.695 17.025 50.6931C17.0501 50.6319 17.0722 50.5695 17.091 50.5061C17.0964 50.4915 17.1004 50.4764 17.103 50.4611C17.103 50.4611 17.103 50.4611 17.103 50.4551C17.1057 50.4417 17.1097 50.4286 17.115 50.4161C17.1147 50.4111 17.1147 50.4061 17.115 50.4011C17.115 50.3921 17.115 50.3801 17.121 50.3711C17.127 50.3621 17.121 50.3501 17.127 50.3411C17.1267 50.3361 17.1267 50.3311 17.127 50.3261C17.1547 50.1871 17.1688 50.0458 17.169 49.9041" fill="#4B4B4B"/>
<path d="M27.35 37.7856C27.338 37.238 27.1121 36.7169 26.7206 36.3338C26.3292 35.9508 25.8032 35.7363 25.2555 35.7363C24.7078 35.7363 24.1819 35.9508 23.7904 36.3338C23.3989 36.7169 23.173 37.238 23.161 37.7856V51.9955H27.353V37.7856H27.35Z" fill="#4B4B4B"/>
<path d="M17.185 49.9031V49.8491C17.1768 49.5218 17.0923 49.2009 16.938 48.9121L12.996 41.5581L3.945 24.6751C3.76536 24.3408 3.49847 24.0614 3.17272 23.8666C2.84697 23.6719 2.47452 23.5691 2.09499 23.5691C1.7509 23.5682 1.41201 23.6531 1.109 23.8161C0.866513 23.946 0.652012 24.1225 0.477744 24.3354C0.303477 24.5482 0.17287 24.7934 0.0933753 25.0567C0.0138808 25.3201 -0.0129344 25.5966 0.0144569 25.8703C0.0418481 26.144 0.122909 26.4097 0.253013 26.6521L13.246 50.8921C13.246 50.8921 13.246 50.8921 13.246 50.8981C13.2549 50.9157 13.2649 50.9328 13.276 50.9491C13.282 50.9581 13.285 50.9671 13.291 50.9761C13.2949 50.9847 13.2999 50.9928 13.306 51.0001C13.3518 51.0762 13.4033 51.1487 13.46 51.2171C13.5044 51.273 13.5528 51.3254 13.605 51.3741C13.617 51.3861 13.626 51.3981 13.638 51.4101C13.692 51.4641 13.753 51.5101 13.81 51.5581C13.819 51.5641 13.828 51.5731 13.837 51.5791C13.9 51.6241 13.964 51.6661 14.03 51.7061L14.057 51.7241C14.129 51.7631 14.202 51.7991 14.277 51.8321C14.2824 51.8344 14.2874 51.8375 14.292 51.8411C14.7247 52.0225 15.2065 52.0501 15.657 51.9191C15.6733 51.915 15.6893 51.91 15.705 51.9041C15.774 51.8831 15.844 51.8561 15.913 51.8291C15.9366 51.8193 15.9596 51.8083 15.982 51.7961L16.082 51.7541C16.106 51.7421 16.124 51.7271 16.145 51.7151C16.1903 51.6878 16.2327 51.6608 16.272 51.6341C16.314 51.6041 16.356 51.5771 16.396 51.5441C16.4355 51.5133 16.4729 51.4799 16.508 51.4441C16.544 51.4111 16.583 51.3781 16.617 51.3441C16.651 51.3101 16.686 51.2631 16.717 51.2231C16.748 51.1831 16.777 51.1541 16.801 51.1181C16.8587 51.0388 16.9101 50.9552 16.955 50.8681C16.955 50.8681 16.955 50.8621 16.961 50.8561C16.9648 50.8465 16.9699 50.8374 16.976 50.8291C16.9785 50.8219 16.9815 50.8149 16.985 50.8081C16.9886 50.8013 16.9916 50.7943 16.994 50.7871C17 50.7781 17.003 50.7661 17.009 50.7571C17.015 50.7481 17.009 50.7481 17.009 50.7451C17.009 50.7421 17.021 50.7181 17.027 50.7061C17.0263 50.7042 17.0263 50.702 17.027 50.7001C17.0521 50.6389 17.0742 50.5765 17.093 50.5131C17.0984 50.4985 17.1024 50.4834 17.105 50.4681C17.105 50.4681 17.105 50.4681 17.105 50.4621C17.1077 50.4487 17.1117 50.4357 17.117 50.4231C17.1167 50.4181 17.1167 50.4131 17.117 50.4081C17.117 50.3991 17.117 50.3871 17.123 50.3781C17.129 50.3691 17.123 50.3571 17.129 50.3481C17.1287 50.3431 17.1287 50.3381 17.129 50.3331C17.1541 50.1928 17.1671 50.0506 17.168 49.9081" fill="#4B4B4B"/>
<path d="M4.19202 37.5282L0 29.7102V51.9942H4.19202V37.5282Z" fill="#4B4B4B"/>
<path d="M35.678 35.6876H29.017V39.8796H35.678C35.9641 39.8973 36.2508 39.8562 36.5205 39.7589C36.7902 39.6615 37.037 39.51 37.2459 39.3137C37.4548 39.1173 37.6213 38.8802 37.735 38.6171C37.8488 38.354 37.9075 38.0703 37.9075 37.7836C37.9075 37.4969 37.8488 37.2133 37.735 36.9501C37.6213 36.687 37.4548 36.4499 37.2459 36.2536C37.037 36.0572 36.7902 35.9057 36.5205 35.8084C36.2508 35.711 35.9641 35.6699 35.678 35.6876Z" fill="#4B4B4B"/>
<path d="M36.986 47.8077H29.017V51.9997H36.986C37.2721 52.0174 37.5589 51.9763 37.8285 51.879C38.0982 51.7816 38.345 51.6301 38.5539 51.4337C38.7628 51.2374 38.9292 51.0004 39.043 50.7372C39.1568 50.4741 39.2155 50.1904 39.2155 49.9037C39.2155 49.617 39.1568 49.3334 39.043 49.0703C38.9292 48.8071 38.7628 48.5701 38.5539 48.3737C38.345 48.1773 38.0982 48.0258 37.8285 47.9285C37.5589 47.8311 37.2721 47.79 36.986 47.8077Z" fill="#4B4B4B"/>
<path d="M12.996 41.5586V49.9036C12.995 50.2509 13.0809 50.593 13.246 50.8986C13.2542 50.9166 13.2643 50.9337 13.276 50.9496C13.282 50.9586 13.285 50.9676 13.291 50.9766C13.2949 50.9852 13.2999 50.9933 13.306 51.0006C13.3518 51.0767 13.4033 51.1492 13.46 51.2176C13.4785 51.24 13.4985 51.261 13.52 51.2806C13.55 51.3136 13.577 51.3466 13.607 51.3806C13.6154 51.393 13.6255 51.4041 13.637 51.4136C13.655 51.4316 13.676 51.4466 13.694 51.4646C13.736 51.5006 13.775 51.5396 13.821 51.5726C13.827 51.5726 13.83 51.5816 13.836 51.5846C13.9003 51.6305 13.9671 51.673 14.036 51.7116L14.063 51.7296C14.105 51.7536 14.153 51.7746 14.199 51.7956C14.245 51.8166 14.256 51.8256 14.286 51.8376C14.286 51.8376 14.292 51.8376 14.298 51.8436C14.3775 51.8765 14.459 51.9046 14.542 51.9276L14.578 51.9366C14.7493 51.98 14.9253 52.0022 15.102 52.0026C15.2947 52.0031 15.4865 51.9769 15.672 51.9246L15.711 51.9126C15.783 51.8886 15.856 51.8646 15.925 51.8346C15.946 51.8256 15.967 51.8136 15.988 51.8046C16.045 51.7776 16.1 51.7476 16.154 51.7176C16.208 51.6876 16.238 51.6666 16.278 51.6396C16.318 51.6126 16.362 51.5826 16.405 51.5496C16.4442 51.5187 16.4812 51.4853 16.516 51.4496C16.525 51.4436 16.531 51.4346 16.54 51.4286C16.567 51.4016 16.6 51.3746 16.627 51.3476C16.654 51.3206 16.696 51.2666 16.727 51.2266C16.758 51.1866 16.787 51.1576 16.811 51.1216C16.8687 51.0423 16.9202 50.9587 16.965 50.8716C16.965 50.8716 16.965 50.8656 16.971 50.8596C16.9748 50.85 16.9798 50.8409 16.986 50.8326C16.986 50.8236 16.992 50.8176 16.995 50.8086L17.004 50.7906C17.01 50.7816 17.013 50.7696 17.019 50.7606C17.025 50.7516 17.019 50.7516 17.019 50.7486L17.037 50.7096C17.037 50.7096 17.037 50.7096 17.037 50.7036C17.0621 50.6424 17.0841 50.58 17.103 50.5166C17.1087 50.5011 17.1128 50.485 17.115 50.4686C17.115 50.4686 17.115 50.4686 17.115 50.4626C17.1176 50.4492 17.1216 50.4361 17.127 50.4236C17.127 50.4176 17.127 50.4146 17.127 50.4086C17.127 50.4026 17.127 50.3876 17.133 50.3786C17.139 50.3696 17.133 50.3576 17.139 50.3486C17.145 50.3396 17.139 50.3396 17.139 50.3336C17.1667 50.1956 17.1808 50.0553 17.181 49.9146V49.8586C17.1728 49.5313 17.0883 49.2104 16.934 48.9216L12.996 41.5586Z" fill="#4B4B4B"/>
<path d="M17.185 49.9036C17.185 50.3179 17.0621 50.723 16.8319 51.0675C16.6017 51.4121 16.2745 51.6806 15.8917 51.8391C15.5089 51.9977 15.0877 52.0392 14.6813 51.9583C14.2749 51.8775 13.9016 51.678 13.6086 51.385C13.3156 51.092 13.1161 50.7187 13.0353 50.3123C12.9544 49.9059 12.9959 49.4847 13.1545 49.1019C13.313 48.7191 13.5815 48.3919 13.9261 48.1617C14.2706 47.9315 14.6757 47.8086 15.09 47.8086C15.3652 47.8085 15.6376 47.8626 15.8919 47.9678C16.1461 48.073 16.3771 48.2274 16.5717 48.4219C16.7662 48.6165 16.9206 48.8475 17.0258 49.1017C17.131 49.356 17.1851 49.6284 17.185 49.9036Z" fill="#4B4B4B"/>
<path d="M23.161 37.7845V30.4845C23.161 28.65 23.8898 26.8906 25.187 25.5934C26.4841 24.2962 28.2435 23.5675 30.078 23.5675H36.986C37.2722 23.5498 37.5589 23.5909 37.8286 23.6882C38.0982 23.7855 38.3451 23.9371 38.554 24.1334C38.7628 24.3298 38.9293 24.5668 39.0431 24.83C39.1569 25.0931 39.2156 25.3768 39.2156 25.6635C39.2156 25.9502 39.1569 26.2338 39.0431 26.497C38.9293 26.7601 38.7628 26.9971 38.554 27.1935C38.3451 27.3899 38.0982 27.5414 37.8286 27.6387C37.5589 27.7361 37.2722 27.7772 36.986 27.7595H30.078C29.3555 27.7603 28.6629 28.0476 28.152 28.5585C27.6411 29.0694 27.3538 29.762 27.353 30.4845V37.7845C27.32 38.318 27.0849 38.8188 26.6954 39.185C26.306 39.5511 25.7915 39.7549 25.257 39.7549C24.7225 39.7549 24.2081 39.5511 23.8186 39.185C23.4292 38.8188 23.194 38.318 23.161 37.7845Z" fill="#4B4B4B"/>
<path d="M27.35 37.7854C27.35 38.1998 27.2271 38.6048 26.9969 38.9493C26.7667 39.2939 26.4395 39.5624 26.0567 39.7209C25.6739 39.8795 25.2526 39.921 24.8463 39.8402C24.4399 39.7593 24.0666 39.5598 23.7736 39.2668C23.4806 38.9738 23.2811 38.6005 23.2002 38.1942C23.1194 37.7878 23.1609 37.3665 23.3195 36.9837C23.478 36.6009 23.7465 36.2737 24.0911 36.0435C24.4356 35.8133 24.8406 35.6904 25.255 35.6904C25.5301 35.6903 25.8026 35.7444 26.0569 35.8496C26.3111 35.9549 26.5421 36.1092 26.7367 36.3037C26.9312 36.4983 27.0855 36.7293 27.1908 36.9836C27.296 37.2378 27.3501 37.5103 27.35 37.7854Z" fill="#4B4B4B"/>
<path d="M27.35 37.7854C27.35 38.1998 27.2271 38.6048 26.9969 38.9493C26.7667 39.2939 26.4395 39.5624 26.0567 39.7209C25.6739 39.8795 25.2526 39.921 24.8463 39.8402C24.4399 39.7593 24.0666 39.5598 23.7736 39.2668C23.4806 38.9738 23.2811 38.6005 23.2002 38.1942C23.1194 37.7878 23.1609 37.3665 23.3195 36.9837C23.478 36.6009 23.7465 36.2737 24.0911 36.0435C24.4356 35.8133 24.8406 35.6904 25.255 35.6904C25.5301 35.6903 25.8026 35.7444 26.0569 35.8496C26.3111 35.9549 26.5421 36.1092 26.7367 36.3037C26.9312 36.4983 27.0855 36.7293 27.1908 36.9836C27.296 37.2378 27.3501 37.5103 27.35 37.7854Z" fill="#4B4B4B"/>
<path d="M67.76 4.94H59.76V0H58.56V5.95799H67.76V4.94ZM55.684 8.332V9.355H70V8.332H55.684ZM67.86 47.77H56.537V52.005H67.86C68.4136 51.993 68.9405 51.7646 69.3278 51.3688C69.7151 50.973 69.932 50.4413 69.932 49.8875C69.932 49.3337 69.7151 48.802 69.3278 48.4062C68.9405 48.0104 68.4136 47.782 67.86 47.77ZM67.486 14.814C67.486 12.719 65.5 11.023 63.05 11.023C60.6 11.023 58.611 12.723 58.611 14.814C58.611 16.905 60.597 18.605 63.05 18.605C65.503 18.605 67.486 16.904 67.486 14.809V14.814ZM59.807 14.814C59.7023 14.1516 59.8032 13.473 60.096 12.8697C60.3889 12.2664 60.8596 11.7674 61.4448 11.4398C62.03 11.1123 62.7015 10.972 63.3689 11.0379C64.0363 11.1037 64.6675 11.3726 65.1773 11.8082C65.6872 12.2438 66.0513 12.8252 66.2206 13.4741C66.3899 14.123 66.3562 14.8082 66.124 15.4374C65.8919 16.0665 65.4725 16.6094 64.9223 16.9929C64.3721 17.3764 63.7176 17.582 63.047 17.582C62.2508 17.6387 61.4643 17.3795 60.8579 16.8605C60.2514 16.3414 59.8739 15.6044 59.807 14.809V14.814ZM55.684 32.504H60.148V34.465H57.707V35.488H66.727V37.382H57.782V39.711C57.8264 40.2162 58.0671 40.6838 58.4525 41.0134C58.8378 41.343 59.337 41.5084 59.843 41.474H68.686V40.451H59.843C59.6309 40.4644 59.4219 40.3946 59.2604 40.2564C59.0989 40.1183 58.9976 39.9226 58.978 39.711V38.405H67.923V34.465H65.693V32.504H69.993V31.481H55.681V32.504H55.684ZM61.347 32.504H64.499V34.465H61.347V32.504ZM58.195 26.052V28.366C58.2391 28.8718 58.4802 29.34 58.8663 29.6698C59.2523 29.9996 59.7525 30.1645 60.259 30.129H67.685V29.106H60.259C60.0469 29.1194 59.8379 29.0496 59.6764 28.9114C59.5149 28.7733 59.4136 28.5776 59.394 28.366V27.07H67.513V23.151H58.197V24.174H66.316V26.046L58.195 26.052Z" fill="#4B4B4B"/>
</svg>
