<svg width="312" height="65" viewBox="0 0 312 65" fill="none" xmlns="http://www.w3.org/2000/svg">
<path d="M102.755 62.9676H127.799C129.031 62.9676 130.213 62.4781 131.084 61.6068C131.955 60.7355 132.445 59.5538 132.445 58.3216C132.445 57.0894 131.955 55.9078 131.084 55.0365C130.213 54.1653 129.031 53.6758 127.799 53.6758H102.755V62.9676Z" fill="#191919"/>
<path d="M37.9251 58.2429V4.64109C37.9251 3.41436 37.4378 2.23787 36.5704 1.37044C35.7029 0.503009 34.5264 0.015625 33.2997 0.015625C32.073 0.015625 30.8965 0.503009 30.0291 1.37044C29.1616 2.23787 28.6743 3.41436 28.6743 4.64109V58.2429C28.673 59.0111 28.8634 59.7673 29.2283 60.4433L29.295 60.5587C29.3039 60.5795 29.3151 60.5993 29.3283 60.6177C29.3368 60.6358 29.3471 60.653 29.3591 60.669C29.7867 61.3701 30.3935 61.9443 31.1171 62.3327C31.8406 62.721 32.6546 62.9095 33.4752 62.8784C34.2958 62.8473 35.0931 62.5978 35.7852 62.1558C36.4772 61.7138 37.0389 61.0952 37.4122 60.3638L37.425 60.3381L37.4558 60.2766L37.4789 60.2279L37.4994 60.1842L37.5327 60.1151V60.0919L37.5686 60.0074C37.6237 59.8715 37.6716 59.7328 37.7122 59.5919C37.7122 59.5586 37.7328 59.5251 37.743 59.4892L37.7661 59.3995V59.3635L37.7815 59.2943L37.7943 59.2277V59.1943C37.8575 58.8889 37.8893 58.5778 37.8892 58.2659" fill="#191919"/>
<path d="M60.3635 31.43C60.3635 30.2033 59.8762 29.0268 59.0088 28.1593C58.1413 27.2919 56.9648 26.8047 55.7381 26.8047C54.5114 26.8047 53.3349 27.2919 52.4675 28.1593C51.6 29.0268 51.1127 30.2033 51.1127 31.43V62.8678H60.3635V31.43Z" fill="#191919"/>
<path d="M37.9246 58.2386V58.1206C37.9055 57.3949 37.7176 56.6836 37.3758 56.0432L28.6738 39.7754L8.70014 2.43373C8.41286 1.89856 8.02296 1.42522 7.55274 1.04072C7.08252 0.656229 6.54117 0.368207 5.9596 0.192927C5.37803 0.0176472 4.76765 -0.0414457 4.16328 0.019173C3.5589 0.0797917 2.97233 0.258782 2.43716 0.546071C1.90199 0.83336 1.42865 1.22325 1.04415 1.69348C0.65966 2.1637 0.37156 2.70513 0.19628 3.28669C0.0209996 3.86826 -0.0380152 4.47872 0.0226036 5.08309C0.0832224 5.68747 0.262291 6.27388 0.54958 6.80905L29.2226 60.4237L29.2893 60.5391C29.2983 60.5599 29.3095 60.5797 29.3227 60.5981C29.3312 60.6161 29.3415 60.6334 29.3534 60.6494C29.4563 60.8161 29.5694 60.9762 29.692 61.1289C29.7907 61.2516 29.8969 61.3682 30.01 61.4778C30.0382 61.506 30.0587 61.5341 30.087 61.5572C30.2075 61.6751 30.3434 61.7804 30.4691 61.8856L30.5281 61.9343C30.6642 62.0359 30.8064 62.1293 30.9538 62.2138L31.0179 62.2523C31.1739 62.342 31.3358 62.4208 31.5027 62.4882L31.5386 62.5062C32.0967 62.7365 32.6943 62.8557 33.298 62.8575C33.7224 62.8553 34.1445 62.7941 34.552 62.6754L34.6572 62.6421C34.8086 62.5959 34.9624 62.5395 35.1163 62.4754L35.2676 62.4035C35.3394 62.3702 35.4087 62.3447 35.4754 62.3062C35.5421 62.2677 35.5703 62.2445 35.619 62.2163C35.7164 62.1599 35.8087 62.0958 35.9011 62.0368C35.9934 61.9778 36.0883 61.9085 36.1755 61.8367C36.2627 61.7649 36.3396 61.6931 36.4191 61.6213C36.4986 61.5495 36.5858 61.4752 36.6602 61.3931C36.7346 61.311 36.8141 61.2136 36.8859 61.1239C36.9577 61.0341 37.0167 60.9725 37.0731 60.8905C37.1978 60.7147 37.3101 60.5304 37.4091 60.339L37.422 60.3133L37.4527 60.2518L37.4758 60.2031L37.4963 60.1595L37.5297 60.0903V60.0671L37.5656 59.9826C37.6207 59.8467 37.6686 59.7079 37.7092 59.567C37.7092 59.5336 37.7297 59.5003 37.74 59.4644L37.7631 59.3747V59.3387L37.7784 59.2696L37.7912 59.2029V59.1695C37.8544 58.8641 37.8863 58.553 37.8862 58.2411" fill="#191919"/>
<path d="M9.25415 30.8756L0.0032959 13.582V62.8777H9.25415V30.8756Z" fill="#191919"/>
<path d="M78.7357 26.8047H64.035V36.0761H78.7357C79.9652 36.0761 81.1443 35.5877 82.0137 34.7183C82.883 33.849 83.3714 32.6699 83.3714 31.4405C83.3714 30.211 82.883 29.0318 82.0137 28.1625C81.1443 27.2931 79.9652 26.8047 78.7357 26.8047Z" fill="#191919"/>
<path d="M81.6248 53.6152H64.0388V62.889H81.6248C82.8546 62.889 84.034 62.4005 84.9036 61.5309C85.7732 60.6613 86.2617 59.4819 86.2617 58.2521C86.2617 57.0223 85.7732 55.8429 84.9036 54.9733C84.034 54.1037 82.8546 53.6152 81.6248 53.6152Z" fill="#191919"/>
<path d="M28.6793 39.7891V58.2546C28.6774 59.022 28.8678 59.7777 29.2332 60.4525C29.2563 60.4936 29.2768 60.5321 29.2999 60.5705C29.3088 60.5914 29.32 60.6112 29.3333 60.6296L29.3641 60.6834C29.468 60.8486 29.581 61.0078 29.7026 61.1604C29.7436 61.2117 29.7924 61.2579 29.8334 61.3041C29.8744 61.3502 29.9591 61.4503 30.0284 61.517L30.095 61.5913C30.1335 61.6298 30.1822 61.6656 30.2232 61.7015C30.3156 61.7836 30.4053 61.8657 30.5002 61.9401L30.5336 61.9657C30.6709 62.0671 30.8138 62.1604 30.9619 62.2453C30.981 62.2595 31.0017 62.2714 31.0235 62.2812C31.1198 62.3354 31.2191 62.3842 31.3209 62.4274C31.3817 62.4613 31.4442 62.4922 31.5082 62.5197H31.5338C31.7095 62.5919 31.8894 62.6536 32.0724 62.7044L32.1493 62.7274C32.5273 62.8242 32.9158 62.8733 33.306 62.8737C33.7319 62.873 34.1556 62.8134 34.5652 62.6966L34.655 62.6684C34.8166 62.6171 34.9756 62.5608 35.1295 62.4967L35.2731 62.43C35.3987 62.3736 35.5295 62.3069 35.6373 62.2377C35.745 62.1684 35.8219 62.1223 35.9117 62.0633C36.0014 62.0043 36.0989 61.9325 36.1861 61.8632C36.2733 61.794 36.3502 61.7195 36.4297 61.6452C36.4493 61.6309 36.4675 61.6146 36.4836 61.5965C36.5478 61.5401 36.6118 61.4811 36.6734 61.4169C36.7349 61.3528 36.8247 61.2424 36.8965 61.1604C36.9683 61.0783 37.0273 61.0065 37.0837 60.9245C37.2088 60.749 37.3211 60.5648 37.4197 60.3732L37.4326 60.35L37.4633 60.2858L37.4864 60.2371L37.5069 60.1961L37.5403 60.1269V60.1013L37.5762 60.0166C37.6326 59.8832 37.6788 59.7421 37.7198 59.6036C37.7198 59.5677 37.7403 59.5344 37.7506 59.5011V59.4883L37.7737 59.3986V59.3652L37.7891 59.2985L37.8018 59.2292V59.1959C37.8649 58.8904 37.8967 58.5793 37.8968 58.2674V58.1496C37.8782 57.4238 37.6902 56.7124 37.3479 56.0722L28.6793 39.7891Z" fill="#191919"/>
<g style="mix-blend-mode:color">
<path d="M37.9246 58.2496C37.9211 59.1619 37.6473 60.0526 37.1379 60.8094C36.6285 61.5662 35.9063 62.1551 35.0624 62.5018C34.2186 62.8484 33.2909 62.9372 32.3966 62.7571C31.5023 62.5769 30.6815 62.1359 30.0376 61.4896C29.3938 60.8433 28.9559 60.0206 28.7793 59.1256C28.6026 58.2306 28.695 57.3034 29.0449 56.4609C29.3948 55.6184 29.9866 54.8984 30.7453 54.392C31.5041 53.8855 32.3959 53.6152 33.3082 53.6152C34.5344 53.6193 35.7089 54.1094 36.5743 54.9782C37.4397 55.8469 37.9253 57.0234 37.9246 58.2496Z" fill="#191919"/>
</g>
<path d="M51.1102 31.4364V15.2968C51.1075 13.2897 51.5003 11.3019 52.266 9.44661C53.0318 7.59134 54.1555 5.90516 55.5731 4.48428C56.9906 3.06339 58.6742 1.93567 60.5276 1.16557C62.3811 0.395473 64.3682 -0.00188684 66.3753 -0.00390625H81.63C82.8594 -0.00390625 84.0385 0.484372 84.9078 1.35373C85.7772 2.22308 86.2656 3.40228 86.2656 4.63173C86.2656 5.86119 85.7772 7.04023 84.9078 7.90959C84.0385 8.77894 82.8594 9.26737 81.63 9.26737H66.3829C64.7862 9.27145 63.2563 9.90833 62.1285 11.0386C61.0006 12.1688 60.3669 13.7001 60.3662 15.2968V31.4364C60.3662 32.6631 59.8789 33.8396 59.0114 34.707C58.144 35.5745 56.9675 36.0619 55.7408 36.0619C54.5141 36.0619 53.3376 35.5745 52.4701 34.707C51.6027 33.8396 51.1154 32.6631 51.1154 31.4364" fill="#191919"/>
<path d="M60.363 31.4391C60.3594 32.3513 60.0857 33.2421 59.5763 33.9989C59.0669 34.7557 58.3447 35.3447 57.5008 35.6914C56.657 36.038 55.7293 36.1268 54.835 35.9467C53.9407 35.7665 53.1199 35.3255 52.476 34.6792C51.8322 34.0329 51.3943 33.2102 51.2176 32.3152C51.041 31.4202 51.1334 30.493 51.4834 29.6505C51.8333 28.808 52.425 28.088 53.1837 27.5816C53.9425 27.0751 54.8343 26.8047 55.7466 26.8047C56.9728 26.8088 58.1473 27.2989 59.0127 28.1676C59.8781 29.0364 60.3637 30.2129 60.363 31.4391Z" fill="#191919"/>
<g style="mix-blend-mode:color">
<path d="M60.363 31.4366C60.36 32.349 60.0867 33.24 59.5776 33.9972C59.0685 34.7543 58.3465 35.3435 57.5027 35.6906C56.6589 36.0376 55.7311 36.1268 54.8366 35.947C53.9421 35.7671 53.121 35.3262 52.4769 34.68C51.8329 34.0338 51.3947 33.2112 51.2178 32.3161C51.041 31.4211 51.1332 30.4936 51.4831 29.651C51.8329 28.8083 52.4247 28.0883 53.1835 27.5817C53.9424 27.0751 54.8343 26.8047 55.7466 26.8047C56.9724 26.8088 58.1466 27.2987 59.0119 28.1669C59.8772 29.035 60.363 30.2108 60.363 31.4366Z" fill="#191919"/>
</g>
<path d="M241.707 62.1647C241.707 62.8341 241.335 63.1213 240.681 63.1213C238.667 63.0493 236.688 62.5805 234.856 61.7416C233.024 60.9028 231.375 59.7105 230.005 58.2332C228.635 56.7559 227.57 55.0225 226.872 53.1327C226.173 51.2428 225.854 49.2336 225.934 47.2203V27.003C225.934 26.3336 225.657 26.0464 225.008 26.0464H219.815C219.166 26.0464 218.889 25.7592 218.889 25.0898V22.502L229.458 11.0021L230.107 10.7148H232.335C232.984 10.7148 233.264 11.002 233.264 11.6739V18.5729C233.264 19.2423 233.541 19.5295 234.192 19.5295H240.773C241.422 19.5295 241.704 19.8194 241.704 20.4863V25.0873C241.704 25.7567 241.424 26.0439 240.773 26.0439H234.192C233.543 26.0439 233.264 26.3311 233.264 27.0005V47.2203C233.254 49.4151 234.022 51.5425 235.43 53.2261C236.838 54.9097 238.796 56.041 240.958 56.4199C241.183 56.4506 241.386 56.5682 241.525 56.7475C241.665 56.9269 241.728 57.1536 241.701 57.379L241.707 62.1647Z" fill="#191919"/>
<path d="M212.792 25.9333C212.792 27.0493 212.461 28.1401 211.841 29.068C211.221 29.9958 210.34 30.7191 209.309 31.1461C208.278 31.5732 207.143 31.6849 206.049 31.4672C204.954 31.2495 203.949 30.712 203.16 29.923C202.371 29.1339 201.833 28.1286 201.616 27.0341C201.398 25.9396 201.51 24.8051 201.937 23.7741C202.364 22.7431 203.087 21.862 204.015 21.242C204.943 20.622 206.033 20.291 207.149 20.291C207.89 20.291 208.624 20.437 209.309 20.7205C209.993 21.0041 210.615 21.4196 211.139 21.9436C211.663 22.4675 212.079 23.0895 212.362 23.7741C212.646 24.4586 212.792 25.1924 212.792 25.9333Z" fill="#191919"/>
<path d="M187.289 25.9333C187.289 27.0493 186.958 28.1401 186.338 29.068C185.718 29.9958 184.837 30.7191 183.806 31.1461C182.775 31.5732 181.64 31.6849 180.546 31.4672C179.451 31.2495 178.446 30.712 177.657 29.923C176.868 29.1339 176.33 28.1286 176.113 27.0341C175.895 25.9396 176.007 24.8051 176.434 23.7741C176.861 22.7431 177.584 21.862 178.512 21.242C179.44 20.622 180.531 20.291 181.647 20.291C182.387 20.291 183.121 20.437 183.806 20.7205C184.49 21.0041 185.112 21.4196 185.636 21.9436C186.16 22.4675 186.576 23.0895 186.859 23.7741C187.143 24.4586 187.289 25.1924 187.289 25.9333Z" fill="#191919"/>
<path d="M203.497 36.4805V48.1806C203.529 49.3742 203.325 50.5623 202.897 51.6771C202.47 52.7919 201.826 53.8116 201.005 54.6779C200.183 55.5441 199.199 56.2401 198.108 56.726C197.017 57.2118 195.841 57.4781 194.648 57.5096C193.454 57.5411 192.266 57.3371 191.151 56.9094C190.037 56.4818 189.017 55.8387 188.151 55.0169C187.284 54.1952 186.588 53.2109 186.103 52.1202C185.617 51.0295 185.35 49.8538 185.319 48.6602V36.4805H177.992V48.1806C177.992 52.5338 179.721 56.7088 182.799 59.787C185.877 62.8652 190.052 64.5945 194.406 64.5945C198.759 64.5945 202.934 62.8652 206.012 59.787C209.09 56.7088 210.819 52.5338 210.819 48.1806V36.4805H203.497Z" fill="#191919"/>
<path d="M275.281 34.8666C275.217 32.4559 274.199 30.1692 272.45 28.5093C270.701 26.8495 268.364 25.9526 265.953 26.0159C263.542 26.0791 261.256 27.0974 259.596 28.8467C257.936 30.596 257.039 32.9329 257.102 35.3435V48.667C257.166 51.0776 258.185 53.3641 259.935 55.0235C261.685 56.6828 264.022 57.5791 266.433 57.5152C268.843 57.4513 271.13 56.4323 272.789 54.6825C274.448 52.9328 275.345 50.5955 275.281 48.1849V34.8666ZM249.775 35.3435C249.775 30.9903 251.504 26.8154 254.583 23.7372C257.661 20.659 261.836 18.9297 266.189 18.9297C270.542 18.9297 274.717 20.659 277.795 23.7372C280.874 26.8154 282.603 30.9903 282.603 35.3435V48.1849C282.603 52.5381 280.874 56.7132 277.795 59.7914C274.717 62.8696 270.542 64.5989 266.189 64.5989C261.836 64.5989 257.661 62.8696 254.583 59.7914C251.504 56.7132 249.775 52.5381 249.775 48.1849V35.3435Z" fill="#191919"/>
<path d="M293.187 63.1329C292.541 63.1329 292.261 62.8456 292.261 62.1763V21.3517C292.261 20.6849 292.541 20.3951 293.187 20.3951H297.732C298.381 20.3951 298.658 20.6849 298.658 21.3517V25.2807C298.658 25.9501 299.029 26.4323 299.494 26.4323C299.771 26.4323 299.958 26.2426 300.235 25.9502C301.098 24.4205 302.314 23.1184 303.781 22.1519C305.248 21.1854 306.924 20.5824 308.67 20.3926H310.722C311.371 20.3926 311.558 20.7746 311.558 21.4465V27.4838C311.558 28.0583 311.281 28.443 310.814 28.443C310.347 28.443 309.422 28.0583 308.68 28.0583C307.464 28.0107 306.252 28.2171 305.12 28.6642C303.989 29.1114 302.963 29.7895 302.108 30.6554C301.253 31.5212 300.587 32.5557 300.155 33.6929C299.722 34.8302 299.531 36.0452 299.594 37.2604V62.1736C299.594 62.843 299.317 63.1302 298.665 63.1302L293.187 63.1329Z" fill="#191919"/>
<path d="M155.212 63.1281C154.566 63.1281 154.287 62.8408 154.287 62.1714V9.50333C154.287 8.83395 154.01 8.54658 153.358 8.54658H142.417C141.768 8.54658 141.491 8.25943 141.491 7.58749V2.89409C141.491 2.22471 141.766 1.9375 142.417 1.9375H173.486C174.135 1.9375 174.412 2.22471 174.412 2.89409V7.58749C174.412 8.25943 174.135 8.54658 173.486 8.54658H162.542C161.893 8.54658 161.616 8.83395 161.616 9.50333V62.1637C161.616 62.8331 161.339 63.1203 160.685 63.1203L155.212 63.1281Z" fill="#191919"/>
</svg>
