<svg width="185" height="27" viewBox="0 0 185 27" fill="none" xmlns="http://www.w3.org/2000/svg">
<path d="M40.0649 25.0529H49.83C50.3104 25.0529 50.7711 24.8621 51.1109 24.5223C51.4506 24.1826 51.6414 23.7218 51.6414 23.2414C51.6414 22.761 51.4506 22.3002 51.1109 21.9605C50.7711 21.6208 50.3104 21.4299 49.83 21.4299H40.0649V25.0529Z" fill="white"/>
<path d="M14.7872 23.213V2.31293C14.7872 1.83461 14.5972 1.37588 14.2589 1.03766C13.9207 0.699437 13.462 0.509399 12.9837 0.509399C12.5054 0.509399 12.0466 0.699437 11.7084 1.03766C11.3702 1.37588 11.1802 1.83461 11.1802 2.31293V23.213C11.1797 23.5125 11.2539 23.8073 11.3962 24.0709L11.4222 24.1159C11.4257 24.124 11.43 24.1317 11.4352 24.1389C11.4385 24.146 11.4425 24.1527 11.4472 24.1589C11.6139 24.4323 11.8505 24.6562 12.1326 24.8076C12.4147 24.959 12.7321 25.0325 13.0521 25.0204C13.372 25.0083 13.683 24.911 13.9528 24.7386C14.2226 24.5663 14.4416 24.3251 14.5872 24.0399L14.5922 24.0299L14.6042 24.0059L14.6132 23.9869L14.6212 23.9699L14.6342 23.9429V23.9339L14.6482 23.9009C14.6696 23.848 14.6883 23.7939 14.7042 23.739C14.7042 23.726 14.7122 23.7129 14.7162 23.6989L14.7252 23.6639V23.6499L14.7312 23.6229L14.7362 23.5969V23.5839C14.7608 23.4648 14.7732 23.3435 14.7732 23.2219" fill="white"/>
<path d="M23.5362 12.7599C23.5362 12.2816 23.3462 11.8228 23.008 11.4846C22.6697 11.1464 22.211 10.9564 21.7327 10.9564C21.2544 10.9564 20.7956 11.1464 20.4574 11.4846C20.1192 11.8228 19.9292 12.2816 19.9292 12.7599V25.0179H23.5362V12.7599Z" fill="white"/>
<path d="M14.787 23.213V23.167C14.7795 22.8841 14.7063 22.6067 14.573 22.357L11.18 16.014L3.392 1.45401C3.27998 1.24534 3.12796 1.06077 2.94461 0.910854C2.76127 0.760935 2.55019 0.648632 2.32343 0.580288C2.09667 0.511944 1.85867 0.488903 1.62302 0.512539C1.38736 0.536175 1.15865 0.605966 0.949983 0.717983C0.741312 0.830001 0.55675 0.982025 0.406831 1.16537C0.256912 1.34872 0.144578 1.55983 0.076234 1.78659C0.00789014 2.01335 -0.0151205 2.25137 0.00851554 2.48703C0.0321516 2.72268 0.101973 2.95133 0.21399 3.16L11.394 24.065L11.42 24.11C11.4235 24.1181 11.4278 24.1258 11.433 24.133C11.4363 24.1401 11.4403 24.1468 11.445 24.153C11.4851 24.218 11.5292 24.2804 11.577 24.34C11.6155 24.3878 11.6569 24.4333 11.701 24.476C11.712 24.487 11.72 24.498 11.731 24.507C11.778 24.553 11.831 24.594 11.88 24.635L11.903 24.654C11.9561 24.6937 12.0115 24.7301 12.069 24.763L12.094 24.778C12.1548 24.813 12.2179 24.8437 12.283 24.87L12.297 24.877C12.5146 24.9668 12.7476 25.0133 12.983 25.014C13.1485 25.0132 13.3131 24.9893 13.472 24.943L13.513 24.93C13.572 24.912 13.632 24.89 13.692 24.865L13.751 24.837C13.779 24.824 13.806 24.814 13.832 24.799C13.858 24.784 13.869 24.775 13.888 24.764C13.926 24.742 13.962 24.717 13.998 24.694C14.034 24.671 14.071 24.644 14.105 24.616C14.139 24.588 14.169 24.56 14.2 24.532C14.231 24.504 14.265 24.475 14.294 24.443C14.323 24.411 14.354 24.373 14.382 24.338C14.41 24.303 14.433 24.279 14.455 24.247C14.5036 24.1785 14.5474 24.1066 14.586 24.032L14.591 24.022L14.603 23.998L14.612 23.979L14.62 23.962L14.633 23.935V23.926L14.647 23.893C14.6685 23.84 14.6872 23.7859 14.703 23.731C14.703 23.718 14.711 23.705 14.715 23.691L14.724 23.656V23.642L14.73 23.615L14.735 23.589V23.576C14.7596 23.4569 14.772 23.3356 14.772 23.214" fill="white"/>
<path d="M3.608 12.54L0.000976562 5.797V25.018H3.608V12.54Z" fill="white"/>
<path d="M30.6998 10.9529H24.9678V14.5679H30.6998C31.1791 14.5679 31.6389 14.3775 31.9779 14.0385C32.3168 13.6995 32.5073 13.2398 32.5073 12.7604C32.5073 12.2811 32.3168 11.8213 31.9779 11.4823C31.6389 11.1433 31.1791 10.9529 30.6998 10.9529Z" fill="white"/>
<path d="M31.8262 21.4039H24.9692V25.0199H31.8262C32.3057 25.0199 32.7656 24.8294 33.1047 24.4904C33.4437 24.1513 33.6342 23.6914 33.6342 23.2119C33.6342 22.7324 33.4437 22.2725 33.1047 21.9335C32.7656 21.5944 32.3057 21.4039 31.8262 21.4039Z" fill="white"/>
<path d="M11.1821 16.015V23.215C11.1814 23.5142 11.2556 23.8088 11.3981 24.072C11.4071 24.088 11.4151 24.103 11.4241 24.118C11.4276 24.1261 11.4319 24.1338 11.4371 24.141L11.4491 24.162C11.4896 24.2264 11.5337 24.2885 11.5811 24.348C11.5971 24.368 11.6161 24.386 11.6321 24.404C11.6481 24.422 11.6811 24.461 11.7081 24.487L11.7341 24.516C11.7491 24.531 11.7681 24.545 11.7841 24.559C11.8201 24.591 11.8551 24.623 11.8921 24.652L11.9051 24.662C11.9587 24.7015 12.0144 24.7379 12.0721 24.771C12.0796 24.7765 12.0877 24.7812 12.0961 24.785C12.1337 24.8061 12.1724 24.8252 12.2121 24.842C12.2358 24.8552 12.2602 24.8672 12.2851 24.878H12.2951C12.3636 24.9061 12.4338 24.9302 12.5051 24.95L12.5351 24.959C12.6825 24.9967 12.834 25.0159 12.9861 25.016C13.1522 25.0158 13.3174 24.9925 13.4771 24.947L13.5121 24.936C13.5751 24.916 13.6371 24.894 13.6971 24.869L13.7531 24.843C13.8021 24.821 13.8531 24.795 13.8951 24.768C13.9371 24.741 13.9671 24.723 14.0021 24.7C14.0371 24.677 14.0751 24.649 14.1091 24.622C14.1431 24.595 14.1731 24.566 14.2041 24.537C14.2118 24.5314 14.2188 24.5251 14.2251 24.518C14.2501 24.496 14.2751 24.473 14.2991 24.448C14.3231 24.423 14.3581 24.38 14.3861 24.348C14.4141 24.316 14.4371 24.288 14.4591 24.256C14.5079 24.1876 14.5517 24.1157 14.5901 24.041L14.5951 24.032L14.6071 24.007L14.6161 23.988L14.6241 23.972L14.6371 23.945V23.935L14.6511 23.902C14.6731 23.85 14.6911 23.795 14.7071 23.741C14.7071 23.727 14.7151 23.714 14.7191 23.701V23.696L14.7281 23.661V23.648L14.7341 23.622L14.7391 23.595V23.582C14.7637 23.4629 14.7761 23.3416 14.7761 23.22V23.174C14.7689 22.891 14.6956 22.6136 14.5621 22.364L11.1821 16.015Z" fill="white"/>
<g style="mix-blend-mode:color">
<path d="M14.787 23.213C14.7856 23.5687 14.6789 23.916 14.4803 24.2111C14.2816 24.5062 14 24.7358 13.671 24.871C13.342 25.0061 12.9803 25.0408 12.6316 24.9705C12.2829 24.9003 11.9628 24.7283 11.7118 24.4763C11.4607 24.2243 11.29 23.9035 11.2211 23.5546C11.1522 23.2056 11.1882 22.8441 11.3247 22.5156C11.4611 22.1871 11.6918 21.9063 11.9877 21.7089C12.2836 21.5114 12.6313 21.406 12.987 21.406C13.4651 21.4076 13.9231 21.5987 14.2605 21.9374C14.5979 22.2762 14.7873 22.7349 14.787 23.213Z" fill="white"/>
</g>
<path d="M19.9282 12.7599V6.46692C19.9272 5.68433 20.0803 4.90924 20.3789 4.18585C20.6775 3.46246 21.1156 2.805 21.6683 2.25098C22.2211 1.69696 22.8775 1.25724 23.6002 0.95697C24.3229 0.6567 25.0977 0.501764 25.8803 0.500977H31.8283C32.3076 0.500977 32.7674 0.691362 33.1063 1.03033C33.4453 1.36931 33.6357 1.82909 33.6357 2.30847C33.6357 2.78785 33.4453 3.24758 33.1063 3.58655C32.7674 3.92552 32.3076 4.11597 31.8283 4.11597H25.8832C25.2607 4.11755 24.6641 4.36588 24.2244 4.80658C23.7846 5.24728 23.5375 5.84434 23.5372 6.46692V12.7599C23.5372 13.2383 23.3472 13.697 23.009 14.0352C22.6708 14.3734 22.2121 14.5635 21.7337 14.5635C21.2554 14.5635 20.7967 14.3734 20.4585 14.0352C20.1202 13.697 19.9302 13.2383 19.9302 12.7599" fill="white"/>
<path d="M23.536 12.7599C23.5346 13.1156 23.4279 13.4629 23.2293 13.758C23.0306 14.0531 22.749 14.2827 22.42 14.4179C22.091 14.5531 21.7293 14.5877 21.3806 14.5175C21.0319 14.4472 20.7118 14.2753 20.4608 14.0233C20.2097 13.7712 20.039 13.4505 19.9701 13.1015C19.9012 12.7525 19.9373 12.391 20.0737 12.0625C20.2102 11.734 20.4409 11.4533 20.7367 11.2558C21.0326 11.0583 21.3803 10.9529 21.736 10.9529C22.2141 10.9545 22.6721 11.1456 23.0095 11.4843C23.3469 11.823 23.5363 12.2818 23.536 12.7599Z" fill="white"/>
<g style="mix-blend-mode:color">
<path d="M23.536 12.7589C23.5348 13.1147 23.4283 13.4621 23.2298 13.7573C23.0313 14.0525 22.7497 14.2823 22.4207 14.4176C22.0917 14.5529 21.73 14.5877 21.3812 14.5176C21.0324 14.4474 20.7123 14.2755 20.4611 14.0236C20.21 13.7716 20.0392 13.4509 19.9702 13.1019C19.9012 12.7529 19.9372 12.3912 20.0736 12.0627C20.21 11.7341 20.4408 11.4534 20.7366 11.2559C21.0325 11.0583 21.3803 10.9529 21.736 10.9529C22.214 10.9545 22.6718 11.1455 23.0092 11.484C23.3466 11.8225 23.536 12.281 23.536 12.7589Z" fill="white"/>
</g>
<path d="M94.2442 24.7429C94.2442 25.0039 94.0991 25.1158 93.8441 25.1158C93.059 25.0878 92.2872 24.905 91.5729 24.5779C90.8586 24.2508 90.2159 23.7859 89.6817 23.2099C89.1475 22.6339 88.7322 21.958 88.4598 21.2211C88.1874 20.4843 88.0631 19.7008 88.0941 18.9158V11.0328C88.0941 10.7718 87.9862 10.6599 87.7332 10.6599H85.7082C85.4552 10.6599 85.3472 10.5479 85.3472 10.2869V9.27783L89.4682 4.79388L89.7212 4.68188H90.5901C90.8431 4.68188 90.9521 4.79385 90.9521 5.05585V7.74585C90.9521 8.00685 91.0601 8.11884 91.3141 8.11884H93.8802C94.1332 8.11884 94.2432 8.23188 94.2432 8.49188V10.2859C94.2432 10.5469 94.1342 10.6589 93.8802 10.6589H91.3141C91.0611 10.6589 90.9521 10.7709 90.9521 11.0319V18.9158C90.9485 19.7716 91.2477 20.6011 91.7967 21.2576C92.3457 21.914 93.1092 22.3551 93.9521 22.5029C94.0398 22.5148 94.1193 22.5607 94.1736 22.6306C94.2278 22.7005 94.2524 22.7889 94.2422 22.8768L94.2442 24.7429Z" fill="white"/>
<path d="M82.9698 10.618C82.9698 11.0531 82.8408 11.4784 82.599 11.8402C82.3573 12.202 82.0137 12.484 81.6117 12.6505C81.2097 12.817 80.7674 12.8606 80.3406 12.7757C79.9139 12.6908 79.5219 12.4813 79.2142 12.1736C78.9065 11.8659 78.697 11.4739 78.6121 11.0472C78.5272 10.6204 78.5708 10.1781 78.7373 9.77606C78.9038 9.37406 79.1858 9.0305 79.5476 8.78876C79.9093 8.54702 80.3347 8.41797 80.7698 8.41797C81.0587 8.41797 81.3448 8.47489 81.6117 8.58545C81.8786 8.69601 82.1212 8.85803 82.3254 9.06232C82.5297 9.26661 82.6918 9.50915 82.8023 9.77606C82.9129 10.043 82.9698 10.3291 82.9698 10.618Z" fill="white"/>
<path d="M73.026 10.618C73.026 11.0531 72.897 11.4784 72.6552 11.8402C72.4135 12.202 72.0699 12.484 71.6679 12.6505C71.2659 12.817 70.8235 12.8606 70.3968 12.7757C69.97 12.6908 69.578 12.4813 69.2703 12.1736C68.9627 11.8659 68.7531 11.4739 68.6683 11.0472C68.5834 10.6204 68.6269 10.1781 68.7934 9.77606C68.9599 9.37406 69.242 9.0305 69.6037 8.78876C69.9655 8.54702 70.3908 8.41797 70.826 8.41797C71.1149 8.41797 71.401 8.47489 71.6679 8.58545C71.9348 8.69601 72.1773 8.85803 72.3816 9.06232C72.5859 9.26661 72.7479 9.50915 72.8585 9.77606C72.9691 10.043 73.026 10.3291 73.026 10.618Z" fill="white"/>
<path d="M79.3459 14.7258V19.2878C79.3581 19.7532 79.2786 20.2165 79.1119 20.6512C78.9451 21.0859 78.6944 21.4835 78.374 21.8212C78.0536 22.159 77.6698 22.4304 77.2445 22.6198C76.8192 22.8093 76.3608 22.9131 75.8954 22.9254C75.43 22.9376 74.9667 22.8581 74.532 22.6913C74.0973 22.5246 73.6998 22.2738 73.362 21.9534C73.0242 21.633 72.7529 21.2493 72.5634 20.824C72.374 20.3987 72.2702 19.9403 72.2579 19.4749V14.7258H69.4009V19.2878C69.4009 20.9852 70.0752 22.6131 71.2754 23.8134C72.4756 25.0136 74.1035 25.6879 75.8009 25.6879C77.4983 25.6879 79.1261 25.0136 80.3264 23.8134C81.5266 22.6131 82.2009 20.9852 82.2009 19.2878V14.7258H79.3459Z" fill="white"/>
<path d="M107.335 14.0939C107.31 13.1539 106.913 12.2623 106.231 11.6151C105.549 10.9679 104.638 10.6182 103.698 10.6429C102.758 10.6675 101.867 11.0646 101.219 11.7466C100.572 12.4287 100.222 13.3399 100.247 14.2798V19.4749C100.272 20.4148 100.669 21.3063 101.352 21.9533C102.034 22.6003 102.945 22.9498 103.885 22.9249C104.825 22.8999 105.717 22.5026 106.364 21.8204C107.011 21.1381 107.36 20.2268 107.335 19.2869V14.0939ZM97.3901 14.2798C97.3901 12.5825 98.0644 10.9546 99.2646 9.75439C100.465 8.55416 102.093 7.87988 103.79 7.87988C105.488 7.87988 107.115 8.55416 108.316 9.75439C109.516 10.9546 110.19 12.5825 110.19 14.2798V19.2869C110.19 20.9843 109.516 22.6121 108.316 23.8124C107.115 25.0126 105.488 25.6869 103.79 25.6869C102.093 25.6869 100.465 25.0126 99.2646 23.8124C98.0644 22.6121 97.3901 20.9843 97.3901 19.2869V14.2798Z" fill="white"/>
<path d="M114.317 25.1159C114.065 25.1159 113.956 25.0039 113.956 24.7429V8.82489C113.956 8.56489 114.065 8.4519 114.317 8.4519H116.089C116.342 8.4519 116.45 8.56489 116.45 8.82489V10.3569C116.45 10.6179 116.595 10.8059 116.776 10.8059C116.884 10.8059 116.957 10.7319 117.065 10.6179C117.402 10.0215 117.876 9.51374 118.448 9.1369C119.02 8.76006 119.673 8.52495 120.354 8.45093H121.154C121.407 8.45093 121.48 8.59988 121.48 8.86188V11.2159C121.48 11.4399 121.372 11.5899 121.19 11.5899C121.008 11.5899 120.647 11.4399 120.358 11.4399C119.884 11.4213 119.411 11.5018 118.97 11.6761C118.529 11.8505 118.129 12.1149 117.795 12.4525C117.462 12.7901 117.203 13.1935 117.034 13.6369C116.865 14.0803 116.791 14.5541 116.815 15.0279V24.7419C116.815 25.0029 116.707 25.1149 116.453 25.1149L114.317 25.1159Z" fill="white"/>
<path d="M60.519 25.1169C60.267 25.1169 60.158 25.0049 60.158 24.7439V4.20795C60.158 3.94695 60.05 3.8349 59.796 3.8349H55.5299C55.2769 3.8349 55.1689 3.72294 55.1689 3.46094V1.63092C55.1689 1.36992 55.2759 1.25793 55.5299 1.25793H67.644C67.897 1.25793 68.0049 1.36992 68.0049 1.63092V3.46094C68.0049 3.72294 67.897 3.8349 67.644 3.8349H63.377C63.124 3.8349 63.0159 3.94695 63.0159 4.20795V24.7409C63.0159 25.0019 62.908 25.1139 62.653 25.1139L60.519 25.1169Z" fill="white"/>
<path d="M175.5 26.5H132.5C129.98 26.5 127.565 25.4994 125.783 23.7178C124.002 21.9362 123 19.5196 123 17C123 14.4804 124.002 12.0638 125.783 10.2822C127.565 8.50063 129.98 7.5 132.5 7.5H175.5C178.02 7.5 180.435 8.50063 182.217 10.2822C183.998 12.0638 185 14.4804 185 17C185 19.5196 183.998 21.9362 182.217 23.7178C180.435 25.4994 178.02 26.5 175.5 26.5ZM162.92 18.5996L162.342 19.9785C162.706 20.2415 163.117 20.4339 163.553 20.5449C164.054 20.6892 164.572 20.7623 165.094 20.7627C165.642 20.7776 166.187 20.6756 166.693 20.4629C167.095 20.298 167.441 20.0203 167.688 19.6631C167.904 19.327 168.019 18.9352 168.018 18.5352C168.038 18.1238 167.91 17.7182 167.656 17.3936C167.422 17.1208 167.124 16.9109 166.789 16.7812C166.377 16.6278 165.954 16.5052 165.523 16.415C165.177 16.3473 164.839 16.2441 164.514 16.1064C164.421 16.0737 164.34 16.0128 164.283 15.9326C164.226 15.8524 164.196 15.7565 164.195 15.6582C164.194 15.5582 164.219 15.4597 164.268 15.3721C164.316 15.2844 164.385 15.2106 164.471 15.1582C164.734 15.0118 165.035 14.945 165.336 14.9668C165.992 14.9828 166.633 15.1689 167.195 15.5068L167.717 14.1182C167.382 13.9079 167.014 13.7547 166.629 13.665C166.212 13.56 165.783 13.5074 165.354 13.5088C164.809 13.494 164.267 13.5961 163.766 13.8086C163.369 13.9741 163.028 14.253 162.787 14.6094C162.574 14.9515 162.464 15.3468 162.467 15.75C162.443 16.1623 162.569 16.5687 162.822 16.8945C163.05 17.1685 163.344 17.3825 163.674 17.5176C164.085 17.675 164.506 17.8038 164.936 17.9014C165.288 17.9721 165.632 18.0777 165.963 18.2178C166.057 18.2527 166.138 18.3158 166.195 18.3984C166.253 18.481 166.283 18.579 166.283 18.6797C166.283 18.775 166.257 18.8689 166.207 18.9502C166.157 19.0315 166.087 19.097 166.002 19.1406C165.725 19.2714 165.417 19.3298 165.111 19.3105C164.719 19.3064 164.332 19.2396 163.961 19.1113C163.591 18.9917 163.239 18.8189 162.918 18.5996H162.92ZM150.771 13.5C150.109 13.4906 149.454 13.6508 148.871 13.9658C148.319 14.2639 147.862 14.7099 147.549 15.2539C147.237 15.8287 147.074 16.4722 147.074 17.126C147.074 17.7797 147.237 18.4233 147.549 18.998C147.858 19.5436 148.311 19.9932 148.859 20.2979C149.435 20.6111 150.081 20.7714 150.736 20.7637C151.236 20.7625 151.731 20.6854 152.207 20.5342C152.67 20.3931 153.104 20.1686 153.486 19.8721V16.9951H151.898V18.9844C151.564 19.1311 151.201 19.2052 150.836 19.2021C150.472 19.2088 150.112 19.1187 149.795 18.9404C149.497 18.7682 149.255 18.5142 149.096 18.209C148.932 17.871 148.848 17.5004 148.848 17.125C148.848 16.7496 148.932 16.379 149.096 16.041C149.257 15.7366 149.501 15.4849 149.801 15.3145C150.243 15.0756 150.754 14.9969 151.248 15.0928C151.742 15.1887 152.187 15.4527 152.508 15.8398L153.627 14.752C153.304 14.3473 152.885 14.0278 152.41 13.8203C151.892 13.6 151.333 13.4906 150.77 13.5H150.771ZM141.805 16.7285L144.871 20.6289H146.312V13.6289H144.588V17.5166L141.52 13.6289H140.078V20.6289H141.803V16.7285H141.805ZM170.412 17.8477H173.164V20.6289H174.904V13.6289H173.164V16.2979H170.412V13.6289H168.672V20.6289H170.412V17.8477ZM159.951 13.6289V20.6289H161.693V13.6289H159.951ZM154.471 13.6289V20.6289H159.451V19.1357H156.213V13.6289H154.471ZM134.004 13.6289V20.6289H139.262V19.1572H135.74V17.7861H138.74V16.3672H135.74V15.0879H139.133V13.6289H134.004Z" fill="white"/>
</svg>
