<svg width="185" height="26" viewBox="0 0 185 26" fill="none" xmlns="http://www.w3.org/2000/svg">
<path d="M40.0654 25.0529H49.8304C50.3109 25.0529 50.7716 24.8621 51.1114 24.5223C51.4511 24.1826 51.6419 23.7218 51.6419 23.2414C51.6419 22.761 51.4511 22.3002 51.1114 21.9605C50.7716 21.6208 50.3109 21.4299 49.8304 21.4299H40.0654V25.0529Z" fill="#191919"/>
<path d="M14.7877 23.213V2.31293C14.7877 1.83461 14.5977 1.37588 14.2594 1.03766C13.9212 0.699437 13.4625 0.509399 12.9842 0.509399C12.5058 0.509399 12.0471 0.699437 11.7089 1.03766C11.3707 1.37588 11.1807 1.83461 11.1807 2.31293V23.213C11.1802 23.5125 11.2544 23.8073 11.3967 24.0709L11.4227 24.1159C11.4262 24.124 11.4305 24.1317 11.4357 24.1389C11.439 24.146 11.443 24.1527 11.4477 24.1589C11.6144 24.4323 11.851 24.6562 12.1331 24.8076C12.4152 24.959 12.7326 25.0325 13.0526 25.0204C13.3725 25.0083 13.6834 24.911 13.9533 24.7386C14.2231 24.5663 14.4421 24.3251 14.5877 24.0399L14.5927 24.0299L14.6047 24.0059L14.6137 23.9869L14.6217 23.9699L14.6347 23.9429V23.9339L14.6487 23.9009C14.6701 23.848 14.6888 23.7939 14.7047 23.739C14.7047 23.726 14.7127 23.7129 14.7167 23.6989L14.7257 23.6639V23.6499L14.7317 23.6229L14.7367 23.5969V23.5839C14.7613 23.4648 14.7737 23.3435 14.7737 23.2219" fill="#191919"/>
<path d="M23.5367 12.7599C23.5367 12.2816 23.3467 11.8228 23.0085 11.4846C22.6702 11.1464 22.2115 10.9564 21.7332 10.9564C21.2549 10.9564 20.7961 11.1464 20.4579 11.4846C20.1197 11.8228 19.9297 12.2816 19.9297 12.7599V25.0179H23.5367V12.7599Z" fill="#191919"/>
<path d="M14.7875 23.213V23.167C14.78 22.8841 14.7068 22.6067 14.5735 22.357L11.1805 16.014L3.39249 1.45401C3.28047 1.24534 3.12845 1.06077 2.9451 0.910854C2.76175 0.760935 2.55068 0.648632 2.32391 0.580288C2.09715 0.511944 1.85916 0.488903 1.62351 0.512539C1.38785 0.536175 1.15914 0.605966 0.950471 0.717983C0.741801 0.830001 0.557238 0.982025 0.407319 1.16537C0.2574 1.34872 0.145066 1.55983 0.0767223 1.78659C0.00837842 2.01335 -0.0146322 2.25137 0.00900382 2.48703C0.0326399 2.72268 0.102461 2.95133 0.214479 3.16L11.3945 24.065L11.4205 24.11C11.424 24.1181 11.4283 24.1258 11.4335 24.133C11.4368 24.1401 11.4408 24.1468 11.4455 24.153C11.4856 24.218 11.5297 24.2804 11.5775 24.34C11.616 24.3878 11.6574 24.4333 11.7015 24.476C11.7125 24.487 11.7205 24.498 11.7315 24.507C11.7785 24.553 11.8315 24.594 11.8805 24.635L11.9035 24.654C11.9566 24.6937 12.012 24.7301 12.0695 24.763L12.0945 24.778C12.1553 24.813 12.2184 24.8437 12.2835 24.87L12.2975 24.877C12.5151 24.9668 12.7481 25.0133 12.9835 25.014C13.149 25.0132 13.3136 24.9893 13.4725 24.943L13.5135 24.93C13.5725 24.912 13.6325 24.89 13.6925 24.865L13.7515 24.837C13.7795 24.824 13.8065 24.814 13.8325 24.799C13.8585 24.784 13.8695 24.775 13.8885 24.764C13.9265 24.742 13.9625 24.717 13.9985 24.694C14.0345 24.671 14.0715 24.644 14.1055 24.616C14.1395 24.588 14.1695 24.56 14.2005 24.532C14.2315 24.504 14.2655 24.475 14.2945 24.443C14.3235 24.411 14.3545 24.373 14.3825 24.338C14.4105 24.303 14.4335 24.279 14.4555 24.247C14.5041 24.1785 14.5479 24.1066 14.5865 24.032L14.5915 24.022L14.6035 23.998L14.6125 23.979L14.6205 23.962L14.6335 23.935V23.926L14.6475 23.893C14.669 23.84 14.6877 23.7859 14.7035 23.731C14.7035 23.718 14.7115 23.705 14.7155 23.691L14.7245 23.656V23.642L14.7305 23.615L14.7355 23.589V23.576C14.7601 23.4569 14.7725 23.3356 14.7725 23.214" fill="#191919"/>
<path d="M3.60898 12.54L0.00195312 5.797V25.018H3.60898V12.54Z" fill="#191919"/>
<path d="M30.7007 10.9529H24.9688V14.5679H30.7007C31.1801 14.5679 31.6399 14.3775 31.9789 14.0385C32.3178 13.6995 32.5082 13.2398 32.5082 12.7604C32.5082 12.2811 32.3178 11.8213 31.9789 11.4823C31.6399 11.1433 31.1801 10.9529 30.7007 10.9529Z" fill="#191919"/>
<path d="M31.8267 21.4039H24.9697V25.0199H31.8267C32.3062 25.0199 32.7661 24.8294 33.1052 24.4904C33.4442 24.1513 33.6347 23.6914 33.6347 23.2119C33.6347 22.7324 33.4442 22.2725 33.1052 21.9335C32.7661 21.5944 32.3062 21.4039 31.8267 21.4039Z" fill="#191919"/>
<path d="M11.1826 16.015V23.215C11.1819 23.5142 11.2561 23.8088 11.3986 24.072C11.4076 24.088 11.4156 24.103 11.4246 24.118C11.4281 24.1261 11.4324 24.1338 11.4376 24.141L11.4496 24.162C11.4901 24.2264 11.5342 24.2885 11.5816 24.348C11.5976 24.368 11.6166 24.386 11.6326 24.404C11.6486 24.422 11.6816 24.461 11.7086 24.487L11.7346 24.516C11.7496 24.531 11.7686 24.545 11.7846 24.559C11.8206 24.591 11.8556 24.623 11.8926 24.652L11.9056 24.662C11.9591 24.7015 12.0149 24.7379 12.0726 24.771C12.0801 24.7765 12.0881 24.7812 12.0966 24.785C12.1342 24.8061 12.1729 24.8252 12.2126 24.842C12.2363 24.8552 12.2607 24.8672 12.2856 24.878H12.2956C12.3641 24.9061 12.4343 24.9302 12.5056 24.95L12.5356 24.959C12.683 24.9967 12.8345 25.0159 12.9866 25.016C13.1527 25.0158 13.3179 24.9925 13.4776 24.947L13.5126 24.936C13.5756 24.916 13.6376 24.894 13.6976 24.869L13.7536 24.843C13.8026 24.821 13.8536 24.795 13.8956 24.768C13.9376 24.741 13.9676 24.723 14.0026 24.7C14.0376 24.677 14.0756 24.649 14.1096 24.622C14.1436 24.595 14.1736 24.566 14.2046 24.537C14.2122 24.5314 14.2193 24.5251 14.2256 24.518C14.2506 24.496 14.2756 24.473 14.2996 24.448C14.3236 24.423 14.3586 24.38 14.3866 24.348C14.4146 24.316 14.4376 24.288 14.4596 24.256C14.5084 24.1876 14.5522 24.1157 14.5906 24.041L14.5956 24.032L14.6076 24.007L14.6166 23.988L14.6246 23.972L14.6376 23.945V23.935L14.6516 23.902C14.6736 23.85 14.6916 23.795 14.7076 23.741C14.7076 23.727 14.7156 23.714 14.7196 23.701V23.696L14.7286 23.661V23.648L14.7346 23.622L14.7396 23.595V23.582C14.7642 23.4629 14.7766 23.3416 14.7766 23.22V23.174C14.7694 22.891 14.6961 22.6136 14.5626 22.364L11.1826 16.015Z" fill="#191919"/>
<g style="mix-blend-mode:color">
<path d="M14.7875 23.213C14.7861 23.5687 14.6794 23.916 14.4807 24.2111C14.2821 24.5062 14.0005 24.7358 13.6715 24.871C13.3424 25.0061 12.9808 25.0408 12.632 24.9705C12.2833 24.9003 11.9633 24.7283 11.7122 24.4763C11.4612 24.2243 11.2905 23.9035 11.2216 23.5546C11.1527 23.2056 11.1887 22.8441 11.3252 22.5156C11.4616 22.1871 11.6923 21.9063 11.9882 21.7089C12.284 21.5114 12.6318 21.406 12.9875 21.406C13.4656 21.4076 13.9236 21.5987 14.261 21.9374C14.5984 22.2762 14.7877 22.7349 14.7875 23.213Z" fill="#191919"/>
</g>
<path d="M19.9287 12.7599V6.46692C19.9277 5.68433 20.0808 4.90924 20.3794 4.18585C20.6779 3.46246 21.1161 2.805 21.6688 2.25098C22.2215 1.69696 22.878 1.25724 23.6007 0.95697C24.3234 0.6567 25.0982 0.501764 25.8807 0.500977H31.8287C32.3081 0.500977 32.7678 0.691362 33.1068 1.03033C33.4458 1.36931 33.6362 1.82909 33.6362 2.30847C33.6362 2.78785 33.4458 3.24758 33.1068 3.58655C32.7678 3.92552 32.3081 4.11597 31.8287 4.11597H25.8837C25.2612 4.11755 24.6646 4.36588 24.2249 4.80658C23.7851 5.24728 23.538 5.84434 23.5377 6.46692V12.7599C23.5377 13.2383 23.3477 13.697 23.0095 14.0352C22.6713 14.3734 22.2125 14.5635 21.7342 14.5635C21.2559 14.5635 20.7972 14.3734 20.459 14.0352C20.1207 13.697 19.9307 13.2383 19.9307 12.7599" fill="#191919"/>
<path d="M23.5365 12.7599C23.5351 13.1156 23.4284 13.4629 23.2298 13.758C23.0311 14.0531 22.7495 14.2827 22.4205 14.4179C22.0915 14.5531 21.7298 14.5877 21.3811 14.5175C21.0324 14.4472 20.7123 14.2753 20.4613 14.0233C20.2102 13.7712 20.0395 13.4505 19.9706 13.1015C19.9017 12.7525 19.9378 12.391 20.0742 12.0625C20.2106 11.734 20.4413 11.4533 20.7372 11.2558C21.0331 11.0583 21.3808 10.9529 21.7365 10.9529C22.2146 10.9545 22.6726 11.1456 23.01 11.4843C23.3474 11.823 23.5368 12.2818 23.5365 12.7599Z" fill="#191919"/>
<g style="mix-blend-mode:color">
<path d="M23.5365 12.7589C23.5353 13.1147 23.4288 13.4621 23.2303 13.7573C23.0318 14.0525 22.7502 14.2823 22.4212 14.4176C22.0922 14.5529 21.7305 14.5877 21.3817 14.5176C21.0329 14.4474 20.7127 14.2755 20.4616 14.0236C20.2105 13.7716 20.0396 13.4509 19.9707 13.1019C19.9017 12.7529 19.9377 12.3912 20.0741 12.0627C20.2105 11.7341 20.4413 11.4534 20.7371 11.2559C21.033 11.0583 21.3808 10.9529 21.7365 10.9529C22.2145 10.9545 22.6723 11.1455 23.0097 11.484C23.3471 11.8225 23.5365 12.281 23.5365 12.7589Z" fill="#191919"/>
</g>
<path d="M94.2447 24.7429C94.2447 25.0039 94.0996 25.1158 93.8446 25.1158C93.0595 25.0878 92.2877 24.905 91.5734 24.5779C90.8591 24.2508 90.2164 23.7859 89.6822 23.2099C89.1479 22.6339 88.7327 21.958 88.4603 21.2211C88.1879 20.4843 88.0636 19.7008 88.0946 18.9158V11.0328C88.0946 10.7718 87.9866 10.6599 87.7336 10.6599H85.7086C85.4556 10.6599 85.3477 10.5479 85.3477 10.2869V9.27783L89.4687 4.79388L89.7216 4.68188H90.5906C90.8436 4.68188 90.9526 4.79385 90.9526 5.05585V7.74585C90.9526 8.00685 91.0606 8.11884 91.3146 8.11884H93.8806C94.1336 8.11884 94.2437 8.23188 94.2437 8.49188V10.2859C94.2437 10.5469 94.1346 10.6589 93.8806 10.6589H91.3146C91.0616 10.6589 90.9526 10.7709 90.9526 11.0319V18.9158C90.949 19.7716 91.2482 20.6011 91.7972 21.2576C92.3462 21.914 93.1097 22.3551 93.9526 22.5029C94.0403 22.5148 94.1198 22.5607 94.174 22.6306C94.2283 22.7005 94.2529 22.7889 94.2426 22.8768L94.2447 24.7429Z" fill="#191919"/>
<path d="M82.9713 10.618C82.9713 11.0531 82.8422 11.4784 82.6005 11.8402C82.3588 12.202 82.0152 12.484 81.6132 12.6505C81.2112 12.817 80.7688 12.8606 80.3421 12.7757C79.9153 12.6908 79.5233 12.4813 79.2156 12.1736C78.908 11.8659 78.6985 11.4739 78.6136 11.0472C78.5287 10.6204 78.5722 10.1781 78.7387 9.77606C78.9053 9.37406 79.1872 9.0305 79.549 8.78876C79.9108 8.54702 80.3362 8.41797 80.7713 8.41797C81.0602 8.41797 81.3463 8.47489 81.6132 8.58545C81.8801 8.69601 82.1226 8.85803 82.3269 9.06232C82.5312 9.26661 82.6933 9.50915 82.8038 9.77606C82.9144 10.043 82.9713 10.3291 82.9713 10.618Z" fill="#191919"/>
<path d="M73.027 10.618C73.027 11.0531 72.8979 11.4784 72.6562 11.8402C72.4145 12.202 72.0709 12.484 71.6689 12.6505C71.2669 12.817 70.8245 12.8606 70.3977 12.7757C69.971 12.6908 69.579 12.4813 69.2713 12.1736C68.9636 11.8659 68.7541 11.4739 68.6692 11.0472C68.5843 10.6204 68.6279 10.1781 68.7944 9.77606C68.9609 9.37406 69.2429 9.0305 69.6047 8.78876C69.9665 8.54702 70.3918 8.41797 70.8269 8.41797C71.1159 8.41797 71.4019 8.47489 71.6689 8.58545C71.9358 8.69601 72.1783 8.85803 72.3826 9.06232C72.5869 9.26661 72.7489 9.50915 72.8595 9.77606C72.97 10.043 73.027 10.3291 73.027 10.618Z" fill="#191919"/>
<path d="M79.3473 14.7258V19.2878C79.3596 19.7532 79.2801 20.2165 79.1133 20.6512C78.9466 21.0859 78.6958 21.4835 78.3754 21.8212C78.055 22.159 77.6712 22.4304 77.2459 22.6198C76.8207 22.8093 76.3622 22.9131 75.8968 22.9254C75.4314 22.9376 74.9682 22.8581 74.5335 22.6913C74.0988 22.5246 73.7012 22.2738 73.3635 21.9534C73.0257 21.633 72.7543 21.2493 72.5649 20.824C72.3754 20.3987 72.2716 19.9403 72.2593 19.4749V14.7258H69.4023V19.2878C69.4023 20.9852 70.0766 22.6131 71.2769 23.8134C72.4771 25.0136 74.105 25.6879 75.8023 25.6879C77.4997 25.6879 79.1276 25.0136 80.3278 23.8134C81.5281 22.6131 82.2023 20.9852 82.2023 19.2878V14.7258H79.3473Z" fill="#191919"/>
<path d="M107.336 14.0939C107.311 13.1539 106.914 12.2623 106.232 11.6151C105.55 10.9679 104.639 10.6182 103.699 10.6429C102.759 10.6675 101.867 11.0646 101.22 11.7466C100.573 12.4287 100.223 13.3399 100.248 14.2798V19.4749C100.273 20.4148 100.67 21.3063 101.352 21.9533C102.034 22.6003 102.946 22.9498 103.886 22.9249C104.826 22.8999 105.717 22.5026 106.364 21.8204C107.011 21.1381 107.361 20.2268 107.336 19.2869V14.0939ZM97.3906 14.2798C97.3906 12.5825 98.0649 10.9546 99.2651 9.75439C100.465 8.55416 102.093 7.87988 103.791 7.87988C105.488 7.87988 107.116 8.55416 108.316 9.75439C109.516 10.9546 110.191 12.5825 110.191 14.2798V19.2869C110.191 20.9843 109.516 22.6121 108.316 23.8124C107.116 25.0126 105.488 25.6869 103.791 25.6869C102.093 25.6869 100.465 25.0126 99.2651 23.8124C98.0649 22.6121 97.3906 20.9843 97.3906 19.2869V14.2798Z" fill="#191919"/>
<path d="M114.318 25.1159C114.066 25.1159 113.957 25.0039 113.957 24.7429V8.82489C113.957 8.56489 114.066 8.4519 114.318 8.4519H116.09C116.343 8.4519 116.451 8.56489 116.451 8.82489V10.3569C116.451 10.6179 116.596 10.8059 116.777 10.8059C116.885 10.8059 116.958 10.7319 117.066 10.6179C117.403 10.0215 117.877 9.51374 118.449 9.1369C119.021 8.76006 119.674 8.52495 120.355 8.45093H121.155C121.408 8.45093 121.481 8.59988 121.481 8.86188V11.2159C121.481 11.4399 121.373 11.5899 121.191 11.5899C121.009 11.5899 120.648 11.4399 120.359 11.4399C119.885 11.4213 119.412 11.5018 118.971 11.6761C118.53 11.8505 118.13 12.1149 117.796 12.4525C117.463 12.7901 117.204 13.1935 117.035 13.6369C116.866 14.0803 116.791 14.5541 116.816 15.0279V24.7419C116.816 25.0029 116.708 25.1149 116.454 25.1149L114.318 25.1159Z" fill="#191919"/>
<path d="M60.5199 25.1169C60.2679 25.1169 60.1589 25.0049 60.1589 24.7439V4.20795C60.1589 3.94695 60.0509 3.8349 59.7969 3.8349H55.5309C55.2779 3.8349 55.1699 3.72294 55.1699 3.46094V1.63092C55.1699 1.36992 55.2769 1.25793 55.5309 1.25793H67.6449C67.8979 1.25793 68.0059 1.36992 68.0059 1.63092V3.46094C68.0059 3.72294 67.8979 3.8349 67.6449 3.8349H63.3779C63.1249 3.8349 63.0169 3.94695 63.0169 4.20795V24.7409C63.0169 25.0019 62.9089 25.1139 62.6539 25.1139L60.5199 25.1169Z" fill="#191919"/>
<path d="M175.501 7C180.747 7.00026 185.001 11.2535 185.001 16.5C185.001 21.7467 180.747 26 175.5 26H132.5C127.254 25.9997 123.001 21.7465 123.001 16.5C123.001 11.2533 127.254 7 132.501 7H175.501ZM139.001 20.2598H140.749V15.7314H140.814L142.671 20.2295H143.805L145.661 15.752H145.727V20.2598H147.476V13H145.251L143.286 17.5693H143.2L141.225 13H139.001V20.2598ZM148.166 20.2598H150.109L150.628 18.709H153.283L153.802 20.2598H155.734L153.153 13H150.768L148.166 20.2598ZM155.216 14.3965H157.537V20.2598H159.318V14.3965H161.64V13H155.216V14.3965ZM162.428 13V20.2598H164.22V17.3232H167.285V20.2598H169.077V13H167.285V15.9268H164.22V13H162.428ZM152.852 17.4053H151.06L151.923 14.7969H151.988L152.852 17.4053Z" fill="#191919"/>
</svg>
