<svg width="185" height="26" viewBox="0 0 185 26" fill="none" xmlns="http://www.w3.org/2000/svg">
<path d="M40.0649 25.0529H49.83C50.3104 25.0529 50.7711 24.8621 51.1109 24.5223C51.4506 24.1826 51.6414 23.7218 51.6414 23.2414C51.6414 22.761 51.4506 22.3002 51.1109 21.9605C50.7711 21.6208 50.3104 21.4299 49.83 21.4299H40.0649V25.0529Z" fill="white"/>
<path d="M14.7872 23.2131V2.31305C14.7872 1.83473 14.5972 1.376 14.2589 1.03778C13.9207 0.699559 13.462 0.509521 12.9837 0.509521C12.5054 0.509521 12.0466 0.699559 11.7084 1.03778C11.3702 1.376 11.1802 1.83473 11.1802 2.31305V23.2131C11.1797 23.5126 11.2539 23.8075 11.3962 24.071L11.4222 24.116C11.4257 24.1241 11.43 24.1319 11.4352 24.139C11.4385 24.1461 11.4425 24.1528 11.4472 24.1591C11.6139 24.4324 11.8505 24.6563 12.1326 24.8077C12.4147 24.9592 12.7321 25.0326 13.0521 25.0205C13.372 25.0084 13.683 24.9111 13.9528 24.7388C14.2226 24.5664 14.4416 24.3252 14.5872 24.04L14.5922 24.03L14.6042 24.006L14.6132 23.9871L14.6212 23.97L14.6342 23.9431V23.934L14.6482 23.9011C14.6696 23.8481 14.6883 23.794 14.7042 23.7391C14.7042 23.7261 14.7122 23.713 14.7162 23.699L14.7252 23.6641V23.65L14.7312 23.623L14.7362 23.597V23.584C14.7608 23.465 14.7732 23.3437 14.7732 23.222" fill="white"/>
<path d="M23.5362 12.76C23.5362 12.2817 23.3462 11.823 23.008 11.4847C22.6697 11.1465 22.211 10.9565 21.7327 10.9565C21.2544 10.9565 20.7956 11.1465 20.4574 11.4847C20.1192 11.823 19.9292 12.2817 19.9292 12.76V25.018H23.5362V12.76Z" fill="white"/>
<path d="M14.787 23.2129V23.1669C14.7795 22.8839 14.7063 22.6066 14.573 22.3569L11.18 16.0139L3.392 1.45388C3.27998 1.24521 3.12796 1.06065 2.94461 0.910732C2.76127 0.760813 2.55019 0.64851 2.32343 0.580166C2.09667 0.511822 1.85867 0.488781 1.62302 0.512417C1.38736 0.536053 1.15865 0.605844 0.949983 0.717861C0.741312 0.829879 0.55675 0.981903 0.406831 1.16525C0.256912 1.34859 0.144578 1.5597 0.076234 1.78646C0.00789014 2.01323 -0.0151205 2.25125 0.00851554 2.4869C0.0321516 2.72256 0.101973 2.95121 0.21399 3.15988L11.394 24.0649L11.42 24.1099C11.4235 24.118 11.4278 24.1257 11.433 24.1329C11.4363 24.1399 11.4403 24.1467 11.445 24.1529C11.4851 24.2179 11.5292 24.2803 11.577 24.3399C11.6155 24.3877 11.6569 24.4332 11.701 24.4759C11.712 24.4869 11.72 24.4979 11.731 24.5069C11.778 24.5529 11.831 24.5939 11.88 24.6349L11.903 24.6539C11.9561 24.6935 12.0115 24.7299 12.069 24.7629L12.094 24.7779C12.1548 24.8129 12.2179 24.8436 12.283 24.8699L12.297 24.8769C12.5146 24.9667 12.7476 25.0132 12.983 25.0139C13.1485 25.013 13.3131 24.9892 13.472 24.9429L13.513 24.9299C13.572 24.9119 13.632 24.8899 13.692 24.8649L13.751 24.8369C13.779 24.8239 13.806 24.8139 13.832 24.7989C13.858 24.7839 13.869 24.7749 13.888 24.7639C13.926 24.7419 13.962 24.7169 13.998 24.6939C14.034 24.6709 14.071 24.6439 14.105 24.6159C14.139 24.5879 14.169 24.5599 14.2 24.5319C14.231 24.5039 14.265 24.4749 14.294 24.4429C14.323 24.4109 14.354 24.3729 14.382 24.3379C14.41 24.3029 14.433 24.2789 14.455 24.2469C14.5036 24.1784 14.5474 24.1065 14.586 24.0319L14.591 24.0219L14.603 23.9979L14.612 23.9789L14.62 23.9619L14.633 23.9349V23.9259L14.647 23.8929C14.6685 23.8399 14.6872 23.7858 14.703 23.7309C14.703 23.7179 14.711 23.7049 14.715 23.6909L14.724 23.6559V23.6419L14.73 23.6149L14.735 23.5889V23.5759C14.7596 23.4568 14.772 23.3355 14.772 23.2139" fill="white"/>
<path d="M3.608 12.5399L0.000976562 5.79688V25.0179H3.608V12.5399Z" fill="white"/>
<path d="M30.6998 10.9529H24.9678V14.5679H30.6998C31.1791 14.5679 31.6389 14.3775 31.9779 14.0385C32.3168 13.6995 32.5073 13.2398 32.5073 12.7604C32.5073 12.2811 32.3168 11.8213 31.9779 11.4823C31.6389 11.1433 31.1791 10.9529 30.6998 10.9529Z" fill="white"/>
<path d="M31.8262 21.4041H24.9692V25.02H31.8262C32.3057 25.02 32.7656 24.8295 33.1047 24.4905C33.4437 24.1514 33.6342 23.6915 33.6342 23.212C33.6342 22.7325 33.4437 22.2727 33.1047 21.9336C32.7656 21.5945 32.3057 21.4041 31.8262 21.4041Z" fill="white"/>
<path d="M11.1821 16.0149V23.2148C11.1814 23.5141 11.2556 23.8087 11.3981 24.0718C11.4071 24.0878 11.4151 24.1029 11.4241 24.1179C11.4276 24.126 11.4319 24.1337 11.4371 24.1409L11.4491 24.1619C11.4896 24.2263 11.5337 24.2883 11.5811 24.3478C11.5971 24.3678 11.6161 24.3859 11.6321 24.4039C11.6481 24.4219 11.6811 24.4609 11.7081 24.4869L11.7341 24.5159C11.7491 24.5309 11.7681 24.5448 11.7841 24.5588C11.8201 24.5908 11.8551 24.6229 11.8921 24.6519L11.9051 24.6619C11.9587 24.7014 12.0144 24.7378 12.0721 24.7709C12.0796 24.7764 12.0877 24.7811 12.0961 24.7849C12.1337 24.806 12.1724 24.825 12.2121 24.8419C12.2358 24.8551 12.2602 24.8671 12.2851 24.8779H12.2951C12.3636 24.906 12.4338 24.9301 12.5051 24.9499L12.5351 24.9589C12.6825 24.9966 12.834 25.0157 12.9861 25.0159C13.1522 25.0156 13.3174 24.9924 13.4771 24.9468L13.5121 24.9359C13.5751 24.9159 13.6371 24.8939 13.6971 24.8689L13.7531 24.8429C13.8021 24.8209 13.8531 24.7949 13.8951 24.7679C13.9371 24.7409 13.9671 24.7229 14.0021 24.6999C14.0371 24.6769 14.0751 24.6489 14.1091 24.6219C14.1431 24.5949 14.1731 24.5659 14.2041 24.5369C14.2118 24.5313 14.2188 24.5249 14.2251 24.5179C14.2501 24.4959 14.2751 24.4729 14.2991 24.4479C14.3231 24.4229 14.3581 24.3798 14.3861 24.3478C14.4141 24.3158 14.4371 24.2879 14.4591 24.2559C14.5079 24.1874 14.5517 24.1156 14.5901 24.0409L14.5951 24.0319L14.6071 24.0068L14.6161 23.9879L14.6241 23.9719L14.6371 23.9449V23.9349L14.6511 23.9019C14.6731 23.8499 14.6911 23.7948 14.7071 23.7408C14.7071 23.7268 14.7151 23.7139 14.7191 23.7009V23.6959L14.7281 23.6609V23.6479L14.7341 23.6219L14.7391 23.5948V23.5818C14.7637 23.4628 14.7761 23.3415 14.7761 23.2198V23.1739C14.7689 22.8909 14.6956 22.6135 14.5621 22.3639L11.1821 16.0149Z" fill="white"/>
<g style="mix-blend-mode:color">
<path d="M14.787 23.213C14.7856 23.5687 14.6789 23.916 14.4803 24.2111C14.2816 24.5062 14 24.7358 13.671 24.871C13.342 25.0061 12.9803 25.0408 12.6316 24.9705C12.2829 24.9003 11.9628 24.7283 11.7118 24.4763C11.4607 24.2243 11.29 23.9035 11.2211 23.5546C11.1522 23.2056 11.1882 22.8441 11.3247 22.5156C11.4611 22.1871 11.6918 21.9063 11.9877 21.7089C12.2836 21.5114 12.6313 21.406 12.987 21.406C13.4651 21.4076 13.9231 21.5987 14.2605 21.9374C14.5979 22.2762 14.7873 22.7349 14.787 23.213Z" fill="white"/>
</g>
<path d="M19.9282 12.7599V6.46692C19.9272 5.68433 20.0803 4.90924 20.3789 4.18585C20.6775 3.46246 21.1156 2.805 21.6683 2.25098C22.2211 1.69696 22.8775 1.25724 23.6002 0.95697C24.3229 0.6567 25.0977 0.501764 25.8803 0.500977H31.8283C32.3076 0.500977 32.7674 0.691362 33.1063 1.03033C33.4453 1.36931 33.6357 1.82909 33.6357 2.30847C33.6357 2.78785 33.4453 3.24758 33.1063 3.58655C32.7674 3.92552 32.3076 4.11597 31.8283 4.11597H25.8832C25.2607 4.11755 24.6641 4.36588 24.2244 4.80658C23.7846 5.24728 23.5375 5.84434 23.5372 6.46692V12.7599C23.5372 13.2383 23.3472 13.697 23.009 14.0352C22.6708 14.3734 22.2121 14.5635 21.7337 14.5635C21.2554 14.5635 20.7967 14.3734 20.4585 14.0352C20.1202 13.697 19.9302 13.2383 19.9302 12.7599" fill="white"/>
<path d="M23.536 12.7599C23.5346 13.1156 23.4279 13.4629 23.2293 13.758C23.0306 14.0531 22.749 14.2827 22.42 14.4179C22.091 14.5531 21.7293 14.5877 21.3806 14.5175C21.0319 14.4472 20.7118 14.2753 20.4608 14.0233C20.2097 13.7712 20.039 13.4505 19.9701 13.1015C19.9012 12.7525 19.9373 12.391 20.0737 12.0625C20.2102 11.734 20.4409 11.4533 20.7367 11.2558C21.0326 11.0583 21.3803 10.9529 21.736 10.9529C22.2141 10.9545 22.6721 11.1456 23.0095 11.4843C23.3469 11.823 23.5363 12.2818 23.536 12.7599Z" fill="white"/>
<g style="mix-blend-mode:color">
<path d="M23.536 12.7589C23.5348 13.1147 23.4283 13.4621 23.2298 13.7573C23.0313 14.0525 22.7497 14.2823 22.4207 14.4176C22.0917 14.5529 21.73 14.5877 21.3812 14.5176C21.0324 14.4474 20.7123 14.2755 20.4611 14.0236C20.21 13.7716 20.0392 13.4509 19.9702 13.1019C19.9012 12.7529 19.9372 12.3912 20.0736 12.0627C20.21 11.7341 20.4408 11.4534 20.7366 11.2559C21.0325 11.0583 21.3803 10.9529 21.736 10.9529C22.214 10.9545 22.6718 11.1455 23.0092 11.484C23.3466 11.8225 23.536 12.281 23.536 12.7589Z" fill="white"/>
</g>
<path d="M94.2442 24.7429C94.2442 25.0039 94.0991 25.1158 93.8441 25.1158C93.059 25.0878 92.2872 24.905 91.5729 24.5779C90.8586 24.2508 90.2159 23.7859 89.6817 23.2099C89.1475 22.6339 88.7322 21.958 88.4598 21.2211C88.1874 20.4843 88.0631 19.7008 88.0941 18.9158V11.0328C88.0941 10.7718 87.9862 10.6599 87.7332 10.6599H85.7082C85.4552 10.6599 85.3472 10.5479 85.3472 10.2869V9.27783L89.4682 4.79388L89.7212 4.68188H90.5901C90.8431 4.68188 90.9521 4.79385 90.9521 5.05585V7.74585C90.9521 8.00685 91.0601 8.11884 91.3141 8.11884H93.8802C94.1332 8.11884 94.2432 8.23188 94.2432 8.49188V10.2859C94.2432 10.5469 94.1342 10.6589 93.8802 10.6589H91.3141C91.0611 10.6589 90.9521 10.7709 90.9521 11.0319V18.9158C90.9485 19.7716 91.2477 20.6011 91.7967 21.2576C92.3457 21.914 93.1092 22.3551 93.9521 22.5029C94.0398 22.5148 94.1193 22.5607 94.1736 22.6306C94.2278 22.7005 94.2524 22.7889 94.2422 22.8768L94.2442 24.7429Z" fill="white"/>
<path d="M82.9698 10.6177C82.9698 11.0529 82.8408 11.4782 82.599 11.84C82.3573 12.2018 82.0137 12.4838 81.6117 12.6503C81.2097 12.8168 80.7674 12.8603 80.3406 12.7755C79.9139 12.6906 79.5219 12.481 79.2142 12.1733C78.9065 11.8657 78.697 11.4737 78.6121 11.0469C78.5272 10.6202 78.5708 10.1778 78.7373 9.77582C78.9038 9.37382 79.1858 9.03025 79.5476 8.78851C79.9093 8.54677 80.3347 8.41772 80.7698 8.41772C81.0587 8.41772 81.3448 8.47464 81.6117 8.58521C81.8786 8.69577 82.1212 8.85778 82.3254 9.06207C82.5297 9.26636 82.6918 9.5089 82.8023 9.77582C82.9129 10.0427 82.9698 10.3288 82.9698 10.6177Z" fill="white"/>
<path d="M73.026 10.6177C73.026 11.0529 72.897 11.4782 72.6552 11.84C72.4135 12.2018 72.0699 12.4838 71.6679 12.6503C71.2659 12.8168 70.8235 12.8603 70.3968 12.7755C69.97 12.6906 69.578 12.481 69.2703 12.1733C68.9627 11.8657 68.7531 11.4737 68.6683 11.0469C68.5834 10.6202 68.6269 10.1778 68.7934 9.77582C68.9599 9.37382 69.242 9.03025 69.6037 8.78851C69.9655 8.54677 70.3908 8.41772 70.826 8.41772C71.1149 8.41772 71.401 8.47464 71.6679 8.58521C71.9348 8.69577 72.1773 8.85778 72.3816 9.06207C72.5859 9.26636 72.7479 9.5089 72.8585 9.77582C72.9691 10.0427 73.026 10.3288 73.026 10.6177Z" fill="white"/>
<path d="M79.3459 14.7258V19.2878C79.3581 19.7532 79.2786 20.2165 79.1119 20.6512C78.9451 21.0859 78.6944 21.4835 78.374 21.8212C78.0536 22.159 77.6698 22.4304 77.2445 22.6198C76.8192 22.8093 76.3608 22.9131 75.8954 22.9254C75.43 22.9376 74.9667 22.8581 74.532 22.6913C74.0973 22.5246 73.6998 22.2738 73.362 21.9534C73.0242 21.633 72.7529 21.2493 72.5634 20.824C72.374 20.3987 72.2702 19.9403 72.2579 19.4749V14.7258H69.4009V19.2878C69.4009 20.9852 70.0752 22.6131 71.2754 23.8134C72.4756 25.0136 74.1035 25.6879 75.8009 25.6879C77.4983 25.6879 79.1261 25.0136 80.3264 23.8134C81.5266 22.6131 82.2009 20.9852 82.2009 19.2878V14.7258H79.3459Z" fill="white"/>
<path d="M107.335 14.0939C107.31 13.1539 106.913 12.2623 106.231 11.6151C105.549 10.9679 104.638 10.6182 103.698 10.6429C102.758 10.6675 101.867 11.0646 101.219 11.7466C100.572 12.4287 100.222 13.3399 100.247 14.2798V19.4749C100.272 20.4148 100.669 21.3063 101.352 21.9533C102.034 22.6003 102.945 22.9498 103.885 22.9249C104.825 22.8999 105.717 22.5026 106.364 21.8204C107.011 21.1381 107.36 20.2268 107.335 19.2869V14.0939ZM97.3901 14.2798C97.3901 12.5825 98.0644 10.9546 99.2646 9.75439C100.465 8.55416 102.093 7.87988 103.79 7.87988C105.488 7.87988 107.115 8.55416 108.316 9.75439C109.516 10.9546 110.19 12.5825 110.19 14.2798V19.2869C110.19 20.9843 109.516 22.6121 108.316 23.8124C107.115 25.0126 105.488 25.6869 103.79 25.6869C102.093 25.6869 100.465 25.0126 99.2646 23.8124C98.0644 22.6121 97.3901 20.9843 97.3901 19.2869V14.2798Z" fill="white"/>
<path d="M114.317 25.1159C114.065 25.1159 113.956 25.0039 113.956 24.7429V8.82489C113.956 8.56489 114.065 8.4519 114.317 8.4519H116.089C116.342 8.4519 116.45 8.56489 116.45 8.82489V10.3569C116.45 10.6179 116.595 10.8059 116.776 10.8059C116.884 10.8059 116.957 10.7319 117.065 10.6179C117.402 10.0215 117.876 9.51374 118.448 9.1369C119.02 8.76006 119.673 8.52495 120.354 8.45093H121.154C121.407 8.45093 121.48 8.59988 121.48 8.86188V11.2159C121.48 11.4399 121.372 11.5899 121.19 11.5899C121.008 11.5899 120.647 11.4399 120.358 11.4399C119.884 11.4213 119.411 11.5018 118.97 11.6761C118.529 11.8505 118.129 12.1149 117.795 12.4525C117.462 12.7901 117.203 13.1935 117.034 13.6369C116.865 14.0803 116.791 14.5541 116.815 15.0279V24.7419C116.815 25.0029 116.707 25.1149 116.453 25.1149L114.317 25.1159Z" fill="white"/>
<path d="M60.519 25.1168C60.267 25.1168 60.158 25.0048 60.158 24.7438V4.20782C60.158 3.94682 60.05 3.83478 59.796 3.83478H55.5299C55.2769 3.83478 55.1689 3.72282 55.1689 3.46082V1.6308C55.1689 1.3698 55.2759 1.25781 55.5299 1.25781H67.644C67.897 1.25781 68.0049 1.3698 68.0049 1.6308V3.46082C68.0049 3.72282 67.897 3.83478 67.644 3.83478H63.377C63.124 3.83478 63.0159 3.94682 63.0159 4.20782V24.7408C63.0159 25.0018 62.908 25.1138 62.653 25.1138L60.519 25.1168Z" fill="white"/>
<path d="M175.5 7C180.747 7.00026 185 11.2535 185 16.5C185 21.7467 180.746 26 175.5 26H132.5C127.253 25.9997 123 21.7465 123 16.5C123 11.2533 127.254 7 132.5 7H175.5ZM139 20.2598H140.749V15.7314H140.814L142.67 20.2295H143.804L145.661 15.752H145.726V20.2598H147.475V13H145.25L143.286 17.5693H143.2L141.224 13H139V20.2598ZM148.166 20.2598H150.109L150.627 18.709H153.283L153.801 20.2598H155.734L153.153 13H150.767L148.166 20.2598ZM155.215 14.3965H157.537V20.2598H159.318V14.3965H161.639V13H155.215V14.3965ZM162.427 13V20.2598H164.219V17.3232H167.285V20.2598H169.077V13H167.285V15.9268H164.219V13H162.427ZM152.851 17.4053H151.059L151.922 14.7969H151.988L152.851 17.4053Z" fill="white"/>
</svg>
