<svg width="190" height="26" viewBox="0 0 190 26" fill="none" xmlns="http://www.w3.org/2000/svg">
<path d="M40.0654 24.5519H49.8304C50.3109 24.5519 50.7716 24.3611 51.1114 24.0214C51.4511 23.6816 51.6419 23.2209 51.6419 22.7404C51.6419 22.26 51.4511 21.7993 51.1114 21.4595C50.7716 21.1198 50.3109 20.929 49.8304 20.929H40.0654V24.5519Z" fill="white"/>
<path d="M14.7875 22.712V1.81198C14.7875 1.33366 14.5975 0.874934 14.2592 0.536713C13.921 0.198491 13.4623 0.00845337 12.984 0.00845337C12.5057 0.00845337 12.0469 0.198491 11.7087 0.536713C11.3705 0.874934 11.1805 1.33366 11.1805 1.81198V22.712C11.18 23.0115 11.2542 23.3064 11.3965 23.57L11.4225 23.615C11.426 23.6231 11.4303 23.6308 11.4355 23.638C11.4388 23.645 11.4428 23.6517 11.4475 23.658C11.6142 23.9313 11.8508 24.1552 12.1329 24.3067C12.415 24.4581 12.7324 24.5316 13.0524 24.5194C13.3724 24.5073 13.6833 24.41 13.9531 24.2377C14.2229 24.0654 14.4419 23.8242 14.5875 23.539L14.5925 23.529L14.6045 23.505L14.6135 23.486L14.6215 23.469L14.6345 23.442V23.433L14.6485 23.4C14.6699 23.347 14.6886 23.2929 14.7045 23.238C14.7045 23.225 14.7125 23.212 14.7165 23.198L14.7255 23.163V23.149L14.7315 23.122L14.7365 23.096V23.083C14.7611 22.9639 14.7735 22.8426 14.7735 22.721" fill="white"/>
<path d="M23.5365 12.2589C23.5365 11.7806 23.3465 11.3219 23.0083 10.9837C22.67 10.6455 22.2113 10.4555 21.733 10.4555C21.2547 10.4555 20.796 10.6455 20.4577 10.9837C20.1195 11.3219 19.9295 11.7806 19.9295 12.2589V24.5169H23.5365V12.2589Z" fill="white"/>
<path d="M14.7875 22.712V22.666C14.78 22.3831 14.7068 22.1057 14.5735 21.856L11.1805 15.513L3.39249 0.952999C3.28047 0.744329 3.12845 0.559766 2.9451 0.409847C2.76175 0.259928 2.55068 0.147625 2.32391 0.0792809C2.09715 0.0109369 1.85916 -0.0121041 1.62351 0.0115319C1.38785 0.0351678 1.15914 0.104959 0.950471 0.216976C0.741801 0.328994 0.557238 0.481018 0.407319 0.664364C0.2574 0.847709 0.145066 1.05882 0.0767223 1.28558C0.00837842 1.51234 -0.0146322 1.75037 0.00900382 1.98602C0.0326399 2.22167 0.102461 2.45032 0.214479 2.65899L11.3945 23.564L11.4205 23.609C11.424 23.6171 11.4283 23.6248 11.4335 23.632C11.4368 23.6391 11.4408 23.6458 11.4455 23.652C11.4856 23.717 11.5297 23.7794 11.5775 23.839C11.616 23.8868 11.6574 23.9323 11.7015 23.975C11.7125 23.986 11.7205 23.997 11.7315 24.006C11.7785 24.052 11.8315 24.093 11.8805 24.134L11.9035 24.153C11.9566 24.1927 12.012 24.2291 12.0695 24.262L12.0945 24.277C12.1553 24.312 12.2184 24.3427 12.2835 24.369L12.2975 24.376C12.5151 24.4658 12.7481 24.5123 12.9835 24.513C13.149 24.5122 13.3136 24.4883 13.4725 24.442L13.5135 24.429C13.5725 24.411 13.6325 24.389 13.6925 24.364L13.7515 24.336C13.7795 24.323 13.8065 24.313 13.8325 24.298C13.8585 24.283 13.8695 24.274 13.8885 24.263C13.9265 24.241 13.9625 24.216 13.9985 24.193C14.0345 24.17 14.0715 24.143 14.1055 24.115C14.1395 24.087 14.1695 24.059 14.2005 24.031C14.2315 24.003 14.2655 23.974 14.2945 23.942C14.3235 23.91 14.3545 23.872 14.3825 23.837C14.4105 23.802 14.4335 23.778 14.4555 23.746C14.5041 23.6775 14.5479 23.6056 14.5865 23.531L14.5915 23.521L14.6035 23.497L14.6125 23.478L14.6205 23.461L14.6335 23.434V23.425L14.6475 23.392C14.669 23.339 14.6877 23.2849 14.7035 23.23C14.7035 23.217 14.7115 23.204 14.7155 23.19L14.7245 23.155V23.141L14.7305 23.114L14.7355 23.088V23.075C14.7601 22.9559 14.7725 22.8346 14.7725 22.713" fill="white"/>
<path d="M3.60849 12.0389L0.00146484 5.29596V24.517H3.60849V12.0389Z" fill="white"/>
<path d="M30.7005 10.4519H24.9685V14.067H30.7005C31.1799 14.067 31.6396 13.8765 31.9786 13.5376C32.3176 13.1986 32.508 12.7389 32.508 12.2595C32.508 11.7801 32.3176 11.3203 31.9786 10.9814C31.6396 10.6424 31.1799 10.4519 30.7005 10.4519Z" fill="white"/>
<path d="M31.8265 20.903H24.9695V24.519H31.8265C32.306 24.519 32.7659 24.3285 33.1049 23.9894C33.444 23.6503 33.6345 23.1905 33.6345 22.711C33.6345 22.2315 33.444 21.7716 33.1049 21.4325C32.7659 21.0935 32.306 20.903 31.8265 20.903Z" fill="white"/>
<path d="M11.1825 15.514V22.714C11.1817 23.0132 11.256 23.3078 11.3985 23.571C11.4075 23.587 11.4155 23.602 11.4245 23.617C11.4279 23.6251 11.4323 23.6328 11.4375 23.64L11.4495 23.661C11.49 23.7254 11.5341 23.7875 11.5815 23.847C11.5975 23.867 11.6165 23.885 11.6325 23.903C11.6485 23.921 11.6815 23.96 11.7085 23.986L11.7345 24.015C11.7495 24.03 11.7685 24.044 11.7845 24.058C11.8205 24.09 11.8555 24.122 11.8925 24.151L11.9055 24.161C11.959 24.2005 12.0148 24.2369 12.0725 24.27C12.08 24.2755 12.088 24.2802 12.0965 24.284C12.1341 24.3051 12.1728 24.3242 12.2125 24.341C12.2362 24.3542 12.2606 24.3662 12.2855 24.377H12.2955C12.364 24.4051 12.4341 24.4292 12.5055 24.449L12.5355 24.458C12.6829 24.4957 12.8344 24.5149 12.9865 24.515C13.1526 24.5147 13.3178 24.4915 13.4775 24.446L13.5125 24.435C13.5755 24.415 13.6375 24.393 13.6975 24.368L13.7535 24.342C13.8025 24.32 13.8535 24.294 13.8955 24.267C13.9375 24.24 13.9675 24.222 14.0025 24.199C14.0375 24.176 14.0755 24.148 14.1095 24.121C14.1435 24.094 14.1735 24.065 14.2045 24.036C14.2121 24.0304 14.2192 24.0241 14.2255 24.017C14.2505 23.995 14.2755 23.972 14.2995 23.947C14.3235 23.922 14.3585 23.879 14.3865 23.847C14.4145 23.815 14.4375 23.787 14.4595 23.755C14.5083 23.6866 14.5521 23.6147 14.5905 23.54L14.5955 23.531L14.6075 23.506L14.6165 23.487L14.6245 23.471L14.6375 23.444V23.434L14.6515 23.401C14.6735 23.349 14.6915 23.294 14.7075 23.24C14.7075 23.226 14.7155 23.213 14.7195 23.2V23.195L14.7285 23.16V23.147L14.7345 23.121L14.7395 23.094V23.081C14.7641 22.9619 14.7765 22.8406 14.7765 22.719V22.673C14.7693 22.39 14.696 22.1126 14.5625 21.863L11.1825 15.514Z" fill="white"/>
<g style="mix-blend-mode:color">
<path d="M14.7875 22.712C14.7861 23.0677 14.6794 23.415 14.4807 23.7101C14.2821 24.0052 14.0005 24.2348 13.6715 24.37C13.3424 24.5051 12.9808 24.5398 12.632 24.4695C12.2833 24.3993 11.9633 24.2273 11.7122 23.9753C11.4612 23.7233 11.2905 23.4025 11.2216 23.0536C11.1527 22.7046 11.1887 22.3431 11.3252 22.0146C11.4616 21.6861 11.6923 21.4053 11.9882 21.2079C12.284 21.0104 12.6318 20.905 12.9875 20.905C13.4656 20.9066 13.9236 21.0977 14.261 21.4364C14.5984 21.7752 14.7877 22.2339 14.7875 22.712Z" fill="white"/>
</g>
<path d="M19.9285 12.259V5.96594C19.9274 5.18336 20.0806 4.40827 20.3791 3.68488C20.6777 2.96149 21.1159 2.30402 21.6686 1.75C22.2213 1.19598 22.8778 0.756264 23.6004 0.455994C24.3231 0.155723 25.0979 0.000787395 25.8805 0H31.8285C32.3079 0 32.7676 0.190386 33.1066 0.529358C33.4455 0.86833 33.636 1.32812 33.636 1.8075C33.636 2.28687 33.4455 2.7466 33.1066 3.08557C32.7676 3.42454 32.3079 3.61499 31.8285 3.61499H25.8835C25.2609 3.61658 24.6644 3.86491 24.2246 4.3056C23.7849 4.7463 23.5377 5.34336 23.5375 5.96594V12.259C23.5375 12.7373 23.3475 13.196 23.0093 13.5342C22.671 13.8725 22.2123 14.0625 21.734 14.0625C21.2557 14.0625 20.7969 13.8725 20.4587 13.5342C20.1205 13.196 19.9305 12.7373 19.9305 12.259" fill="white"/>
<path d="M23.5365 12.2589C23.5351 12.6146 23.4284 12.962 23.2298 13.257C23.0311 13.5521 22.7495 13.7818 22.4205 13.917C22.0915 14.0521 21.7298 14.0868 21.3811 14.0165C21.0324 13.9463 20.7123 13.7743 20.4613 13.5223C20.2102 13.2703 20.0395 12.9495 19.9706 12.6006C19.9017 12.2516 19.9378 11.8901 20.0742 11.5616C20.2106 11.2331 20.4413 10.9523 20.7372 10.7549C21.0331 10.5574 21.3808 10.4519 21.7365 10.4519C22.2146 10.4535 22.6726 10.6446 23.01 10.9834C23.3474 11.3221 23.5368 11.7808 23.5365 12.2589Z" fill="white"/>
<g style="mix-blend-mode:color">
<path d="M23.5365 12.258C23.5353 12.6137 23.4288 12.9612 23.2303 13.2564C23.0318 13.5516 22.7502 13.7813 22.4212 13.9167C22.0922 14.052 21.7305 14.0868 21.3817 14.0166C21.0329 13.9465 20.7127 13.7746 20.4616 13.5226C20.2105 13.2706 20.0396 12.9499 19.9707 12.6009C19.9017 12.2519 19.9377 11.8903 20.0741 11.5617C20.2105 11.2332 20.4413 10.9524 20.7371 10.7549C21.033 10.5574 21.3808 10.4519 21.7365 10.4519C22.2145 10.4535 22.6723 10.6445 23.0097 10.9831C23.3471 11.3216 23.5365 11.78 23.5365 12.258Z" fill="white"/>
</g>
<path d="M94.2444 24.2419C94.2444 24.5029 94.0994 24.6149 93.8444 24.6149C93.0593 24.5868 92.2875 24.404 91.5732 24.077C90.8589 23.7499 90.2161 23.285 89.6819 22.709C89.1477 22.133 88.7325 21.4571 88.4601 20.7202C88.1876 19.9833 88.0633 19.1999 88.0944 18.4149V10.5319C88.0944 10.2709 87.9864 10.1589 87.7334 10.1589H85.7084C85.4554 10.1589 85.3474 10.0469 85.3474 9.78595V8.77692L89.4684 4.29297L89.7214 4.18097H90.5904C90.8434 4.18097 90.9524 4.29293 90.9524 4.55493V7.24493C90.9524 7.50593 91.0604 7.61792 91.3144 7.61792H93.8804C94.1334 7.61792 94.2434 7.73097 94.2434 7.99097V9.78497C94.2434 10.046 94.1344 10.158 93.8804 10.158H91.3144C91.0614 10.158 90.9524 10.2699 90.9524 10.5309V18.4149C90.9487 19.2707 91.2479 20.1002 91.7969 20.7567C92.346 21.4131 93.1095 21.8542 93.9524 22.002C94.0401 22.0139 94.1196 22.0598 94.1738 22.1297C94.228 22.1996 94.2526 22.288 94.2424 22.3759L94.2444 24.2419Z" fill="white"/>
<path d="M82.9704 10.1169C82.9704 10.5521 82.8414 10.9774 82.5996 11.3392C82.3579 11.701 82.0143 11.983 81.6123 12.1495C81.2103 12.316 80.768 12.3595 80.3412 12.2747C79.9145 12.1898 79.5225 11.9802 79.2148 11.6725C78.9071 11.3649 78.6976 10.9729 78.6127 10.5461C78.5278 10.1194 78.5714 9.67702 78.7379 9.27502C78.9044 8.87303 79.1864 8.52946 79.5482 8.28772C79.91 8.04598 80.3353 7.91693 80.7704 7.91693C81.0593 7.91693 81.3454 7.97385 81.6123 8.08441C81.8792 8.19497 82.1218 8.35699 82.3261 8.56128C82.5303 8.76557 82.6924 9.00811 82.803 9.27502C82.9135 9.54194 82.9704 9.82804 82.9704 10.1169Z" fill="white"/>
<path d="M73.0265 10.1169C73.0265 10.5521 72.8974 10.9774 72.6557 11.3392C72.414 11.701 72.0704 11.983 71.6684 12.1495C71.2664 12.316 70.824 12.3595 70.3973 12.2747C69.9705 12.1898 69.5785 11.9802 69.2708 11.6725C68.9631 11.3649 68.7536 10.9729 68.6687 10.5461C68.5839 10.1194 68.6274 9.67702 68.7939 9.27502C68.9604 8.87303 69.2424 8.52946 69.6042 8.28772C69.966 8.04598 70.3913 7.91693 70.8265 7.91693C71.1154 7.91693 71.4015 7.97385 71.6684 8.08441C71.9353 8.19497 72.1778 8.35699 72.3821 8.56128C72.5864 8.76557 72.7484 9.00811 72.859 9.27502C72.9695 9.54194 73.0265 9.82804 73.0265 10.1169Z" fill="white"/>
<path d="M79.3465 14.2249V18.7869C79.3587 19.2523 79.2792 19.7156 79.1125 20.1503C78.9457 20.5849 78.695 20.9825 78.3746 21.3203C78.0542 21.6581 77.6704 21.9294 77.2451 22.1189C76.8198 22.3083 76.3614 22.4122 75.896 22.4244C75.4306 22.4367 74.9673 22.3572 74.5326 22.1904C74.0979 22.0237 73.7004 21.7729 73.3626 21.4525C73.0248 21.1321 72.7535 20.7483 72.564 20.3231C72.3746 19.8978 72.2708 19.4393 72.2585 18.9739V14.2249H69.4015V18.7869C69.4015 20.4843 70.0758 22.1122 71.276 23.3124C72.4762 24.5127 74.1041 25.187 75.8015 25.187C77.4989 25.187 79.1267 24.5127 80.327 23.3124C81.5272 22.1122 82.2015 20.4843 82.2015 18.7869V14.2249H79.3465Z" fill="white"/>
<path d="M107.335 13.5929C107.311 12.653 106.914 11.7614 106.232 11.1142C105.55 10.467 104.638 10.1173 103.698 10.1419C102.758 10.1666 101.867 10.5636 101.22 11.2457C100.572 11.9278 100.223 12.839 100.247 13.7789V18.9739C100.272 19.9138 100.67 20.8054 101.352 21.4524C102.034 22.0994 102.945 22.4489 103.885 22.4239C104.825 22.399 105.717 22.0017 106.364 21.3194C107.011 20.6372 107.36 19.7258 107.335 18.7859V13.5929ZM97.3904 13.7789C97.3904 12.0815 98.0647 10.4537 99.2649 9.25345C100.465 8.05322 102.093 7.37894 103.79 7.37894C105.488 7.37894 107.116 8.05322 108.316 9.25345C109.516 10.4537 110.19 12.0815 110.19 13.7789V18.7859C110.19 20.4833 109.516 22.1112 108.316 23.3114C107.116 24.5117 105.488 25.1859 103.79 25.1859C102.093 25.1859 100.465 24.5117 99.2649 23.3114C98.0647 22.1112 97.3904 20.4833 97.3904 18.7859V13.7789Z" fill="white"/>
<path d="M114.317 24.615C114.065 24.615 113.956 24.503 113.956 24.242V8.32394C113.956 8.06394 114.065 7.95096 114.317 7.95096H116.089C116.342 7.95096 116.45 8.06394 116.45 8.32394V9.85593C116.45 10.1169 116.595 10.305 116.776 10.305C116.884 10.305 116.957 10.231 117.065 10.117C117.402 9.52051 117.876 9.0128 118.448 8.63596C119.02 8.25912 119.674 8.024 120.354 7.94998H121.154C121.407 7.94998 121.48 8.09893 121.48 8.36093V10.7149C121.48 10.9389 121.372 11.089 121.19 11.089C121.008 11.089 120.647 10.9389 120.358 10.9389C119.884 10.9204 119.412 11.0009 118.97 11.1752C118.529 11.3495 118.129 11.614 117.796 11.9516C117.462 12.2892 117.203 12.6925 117.034 13.136C116.865 13.5794 116.791 14.0531 116.815 14.5269V24.2409C116.815 24.5019 116.707 24.6139 116.453 24.6139L114.317 24.615Z" fill="white"/>
<path d="M60.5194 24.616C60.2674 24.616 60.1584 24.5039 60.1584 24.2429V3.70697C60.1584 3.44597 60.0504 3.33392 59.7964 3.33392H55.5304C55.2774 3.33392 55.1694 3.22196 55.1694 2.95996V1.12994C55.1694 0.868944 55.2764 0.756958 55.5304 0.756958H67.6444C67.8974 0.756958 68.0054 0.868944 68.0054 1.12994V2.95996C68.0054 3.22196 67.8974 3.33392 67.6444 3.33392H63.3774C63.1244 3.33392 63.0164 3.44597 63.0164 3.70697V24.2399C63.0164 24.5009 62.9084 24.6129 62.6534 24.6129L60.5194 24.616Z" fill="white"/>
<rect x="127.481" y="6.18689" width="62" height="19" rx="9.5" fill="#9EE56F"/>
<path d="M145.705 12.1869L147.68 16.7565H147.767L149.731 12.1869H151.955V19.4469H150.206V14.9389H150.142L148.285 19.4161H147.151L145.294 14.9184H145.23V19.4469H143.481V12.1869H145.705Z" fill="#191919"/>
<path d="M152.646 19.4469L155.248 12.1869H157.634L160.214 19.4469H158.282L157.763 17.8963H155.108L154.589 19.4469H152.646ZM157.332 16.5922L156.468 13.9839H156.403L155.539 16.5922H157.332Z" fill="#191919"/>
<path d="M159.696 12.1869H166.119V13.5834H163.798V19.4469H162.017V13.5834H159.696V12.1869Z" fill="#191919"/>
<path d="M166.907 12.1869H168.699V15.1135H171.765V12.1869H173.558V19.4469H171.765V16.51H168.699V19.4469H166.907V12.1869Z" fill="#191919"/>
</svg>
