<svg id="벡터_고급_개체" data-name="벡터 고급 개체" xmlns="http://www.w3.org/2000/svg" width="120.533" height="28.402" viewBox="0 0 120.533 28.402">
  <path id="패스_47" data-name="패스 47" d="M232.86,173.37c-.277,0-.4-.121-.4-.4V148.516c0-.277.12-.4.4-.4h2.317c.277,0,.4.121.4.4v10.263c0,.281.121.4.4.4h8.913c.277,0,.4-.12.4-.4V148.515c0-.277.12-.4.4-.4h2.355c.277,0,.4.121.4.4v24.453c0,.277-.121.4-.4.4h-2.355c-.277,0-.4-.121-.4-.4V162.346c0-.281-.121-.4-.4-.4h-8.912c-.277,0-.4.121-.4.4v10.624c0,.277-.12.4-.4.4Z" transform="translate(-169.469 -145.369)" fill="#fff"/>
  <path id="패스_48" data-name="패스 48" d="M270.655,173.718c-4.315,0-7.071-2.725-7.071-6.7V148.459c0-.277.12-.4.4-.4h2.355c.277,0,.4.121.4.4V167.02a3.929,3.929,0,0,0,3.916,3.929h1.237a3.955,3.955,0,0,0,3.915-3.929v-12.27c0-.277.119-.4.4-.4h2.355c.277,0,.4.121.4.4V167.02c0,3.929-2.755,6.7-7.071,6.7Z" transform="translate(-179.032 -145.351)" fill="#fff"/>
  <path id="패스_49" data-name="패스 49" d="M300.338,173.589c-4.314,0-7.071-2.725-7.071-6.7V154.226c0-3.929,2.756-6.7,7.071-6.7H302.3a7.07,7.07,0,0,1,4.793,1.564c.56.481,1.6,1.6,1.6,2.165a.385.385,0,0,1-.239.36l-2.117,1.043c-.08.039-.12.08-.2.08-.121,0-.2-.08-.277-.24a4.209,4.209,0,0,0-3.556-2.2h-1.958a3.9,3.9,0,0,0-3.915,3.929v12.666a3.929,3.929,0,0,0,3.915,3.929h1.239a3.954,3.954,0,0,0,3.915-3.929v-2.925c0-.281-.119-.4-.4-.4h-4.074c-.277,0-.4-.121-.4-.4V161.2c0-.281.12-.4.4-.4h7.231c.277,0,.4.119.4.4v5.691c0,3.929-2.756,6.7-7.071,6.7Z" transform="translate(-188.153 -145.187)" fill="#fff"/>
  <path id="패스_50" data-name="패스 50" d="M282.861,147.418l-2.781-2.707a2,2,0,0,0-2.781,0,1.878,1.878,0,0,0,0,2.707l2.781,2.707a2.009,2.009,0,0,0,2.781,0,1.878,1.878,0,0,0,0-2.707" transform="translate(-183.07 -144.151)" fill="#fff"/>
  <path id="패스_51" data-name="패스 51" d="M281.314,147.418l2.781-2.707a2,2,0,0,1,2.781,0,1.879,1.879,0,0,1,0,2.707l-2.781,2.707a2.009,2.009,0,0,1-2.781,0,1.879,1.879,0,0,1,0-2.707" transform="translate(-184.303 -144.15)" fill="#fff"/>
  <path id="패스_52" data-name="패스 52" d="M284.67,149.973a1.967,1.967,0,1,1-1.967-1.915,1.94,1.94,0,0,1,1.967,1.915" transform="translate(-184.303 -145.351)" fill="#fff"/>
  <path id="패스_53" data-name="패스 53" d="M282.957,147.707a1.987,1.987,0,0,1,1.4.567l-.006-.007-1.391-1.354-1.391,1.354-.006.007a1.987,1.987,0,0,1,1.4-.567" transform="translate(-184.556 -145)" fill="#fff"/>
  <path id="패스_54" data-name="패스 54" d="M204.541,183.072h10.64a1.918,1.918,0,1,0,0-3.834h-10.64Z" transform="translate(-160.89 -154.932)" fill="#fff"/>
  <path id="패스_55" data-name="패스 55" d="M163.041,171.264V149.146a1.965,1.965,0,0,0-3.929,0v22.118a1.871,1.871,0,0,0,.235.909l.028.047.015.025.012.02a1.994,1.994,0,0,0,3.421-.126l.006-.011.012-.025.01-.019.008-.019.013-.028,0-.01.016-.035v0l.062-.17.013-.043v0l.01-.037,0-.014.007-.03.006-.027v-.015a1.887,1.887,0,0,0,.039-.383" transform="translate(-146.93 -145.098)" fill="#fff"/>
  <path id="패스_56" data-name="패스 56" d="M176.8,165.116a1.965,1.965,0,0,0-3.928,0v12.971H176.8Z" transform="translate(-151.159 -150.008)" fill="#fff"/>
  <path id="패스_57" data-name="패스 57" d="M157.64,171.263v-.048a1.885,1.885,0,0,0-.233-.858l-3.7-6.711-8.484-15.405a1.974,1.974,0,0,0-1.732-1.009,2,2,0,0,0-.925.226,1.888,1.888,0,0,0-.8,2.589l12.181,22.12v.006l.028.047.015.025.012.02.143.2.134.144.033.035.161.134.025.019.181.116.027.017.208.1.015.008a1.969,1.969,0,0,0,1.281.069l.045-.013.195-.069.064-.03.089-.04.061-.036.119-.075.116-.082.1-.089.1-.094.095-.112.08-.1.143-.227.006-.011.012-.025.01-.019.008-.019.013-.028,0-.01.016-.035v0l.062-.17.013-.043v0l.01-.037,0-.014.007-.03.006-.027v-.015a1.885,1.885,0,0,0,.039-.383" transform="translate(-141.53 -145.097)" fill="#fff"/>
  <path id="패스_58" data-name="패스 58" d="M141.527,175.66h3.93v-13.2l-3.93-7.135Z" transform="translate(-141.527 -147.583)" fill="#fff"/>
  <path id="패스_59" data-name="패스 59" d="M187.042,163.2H180.8v3.824h6.245a1.913,1.913,0,1,0,0-3.824" transform="translate(-153.595 -150.004)" fill="#fff"/>
  <path id="패스_60" data-name="패스 60" d="M188.27,179.162H180.8v3.825h7.47a1.913,1.913,0,1,0,0-3.825" transform="translate(-153.595 -154.908)" fill="#fff"/>
  <path id="패스_62" data-name="패스 62" d="M163.065,182.732l-.055.152c.02-.05.039-.1.055-.152m-.069.19-.006.015.006-.015m-.069.139h0a1.9,1.9,0,0,1-.128.208h0a1.964,1.964,0,0,0,.13-.208m-3.458.043.028.049-.012-.021Zm.048.079a1.915,1.915,0,0,0,.139.19l-.007-.009a2.01,2.01,0,0,1-.126-.174Zm3.265.108h0a1.924,1.924,0,0,1-.159.188v0a1.986,1.986,0,0,0,.164-.193m-3.124.085a2.028,2.028,0,0,0,.162.172l-.009-.01a2.092,2.092,0,0,1-.145-.154Zm2.959.111h0a1.955,1.955,0,0,1-.485.362l-.015.009a1.974,1.974,0,0,0,.5-.374m-2.787.069a1.936,1.936,0,0,0,.172.143l-.006,0-.009-.008c-.05-.037-.1-.078-.145-.119Zm.188.154a1.984,1.984,0,0,0,.416.229l-.01,0-.008,0a2.013,2.013,0,0,1-.184-.088l-.013-.006-.016-.01a1.986,1.986,0,0,1-.168-.106Zm2.094.15-.017.008q-.057.028-.116.054l-.017.008-.01,0q-.088.036-.181.064l-.01,0-.037.011a2.075,2.075,0,0,1-.33.062h-.019a2,2,0,0,0,.738-.216m-1.674.081a2.011,2.011,0,0,0,.468.125l-.1-.017c-.036-.007-.069-.015-.107-.024l-.034-.008-.021-.007c-.049-.014-.1-.03-.144-.047h0l-.029-.011Z" transform="translate(-147.04 -156.006)" fill="#fff"/>
  <path id="패스_63" data-name="패스 63" d="M162.95,183.205l-.128.208a1.962,1.962,0,0,0,.128-.208m-3.4.129a1.924,1.924,0,0,0,.126.174Zm3.256.1-.069.084-.09.1a1.93,1.93,0,0,0,.159-.188m-3.117.092a2.007,2.007,0,0,0,.145.154l-.015-.017-.083-.088Zm2.947.105-.077.069-.022.021-.1.089-.116.082-.116.073-.022.011-.025.015a1.979,1.979,0,0,0,.485-.362m-2.771.079a1.862,1.862,0,0,0,.145.119l-.109-.09Zm.191.154a1.923,1.923,0,0,0,.168.106l-.01-.006Zm.2.123q.09.049.185.088l-.069-.034Zm1.863.026-.046.021-.026.013-.044.02c.039-.017.078-.035.116-.054m-.143.066-.181.064a1.9,1.9,0,0,0,.181-.064m-1.485.017.029.011-.028-.01Zm.029.011h0" transform="translate(-147.064 -156.151)" fill="#fff"/>
  <path id="패스_64" data-name="패스 64" d="M162.8,180.6l.008.015a1.912,1.912,0,0,1,.189.5,1.883,1.883,0,0,0-.2-.515m.2.52h0m-3.887.407h0m2.934,1.653-.107.054.046-.021L162,183.2h0l.015-.009Zm-1.688.116.028.01h0c.047.017.1.033.144.047Zm.337.1c.033.007.069.012.1.017a2.033,2.033,0,0,0,.281.019h0a2,2,0,0,1-.383-.037m.589.026c-.044,0-.089.008-.134.009.038,0,.077,0,.115-.007h.019m-.139.01h0" transform="translate(-146.93 -155.351)" fill="#fff"/>
  <path id="패스_66" data-name="패스 66" d="M172.871,160.2v-6.659a6.4,6.4,0,0,1,6.485-6.313h6.477a1.913,1.913,0,1,1,0,3.825h-6.477a2.527,2.527,0,0,0-2.556,2.488V160.2a1.965,1.965,0,0,1-3.928,0" transform="translate(-151.158 -145.097)" fill="#fff"/>
  <path id="패스_68" data-name="패스 68" d="M174.835,163.2a1.94,1.94,0,0,0-1.963,1.911h0a1.965,1.965,0,0,1,3.928,0h0a1.94,1.94,0,0,0-1.965-1.911" transform="translate(-151.159 -150.004)" fill="#fff"/>
</svg>
