<svg width="25" height="24" viewBox="0 0 25 24" fill="none" xmlns="http://www.w3.org/2000/svg">
<path d="M11.8937 3C13.5057 2.99928 15.0837 3.46298 16.4391 4.33562C17.7944 5.20826 18.8697 6.4529 19.5362 7.92062C20.2027 9.38835 20.4323 11.017 20.1974 12.6118C19.9625 14.2066 19.2732 15.6999 18.2119 16.9132L20.7018 19.3982C20.7801 19.4762 20.8422 19.569 20.8846 19.6711C20.927 19.7732 20.9488 19.8826 20.9488 19.9932C20.9488 20.1038 20.927 20.2132 20.8846 20.3153C20.8422 20.4174 20.7801 20.5102 20.7018 20.5882C20.6237 20.6665 20.531 20.7286 20.4289 20.771C20.3268 20.8134 20.2173 20.8353 20.1068 20.8353C19.9962 20.8353 19.8868 20.8134 19.7847 20.771C19.6826 20.7286 19.5898 20.6665 19.5118 20.5882L16.9834 18.064C15.9238 18.8725 14.687 19.4171 13.3752 19.6526C12.0634 19.8881 10.7143 19.8077 9.43971 19.4182C8.16511 19.0287 7.0016 18.3413 6.04549 17.4127C5.08939 16.4842 4.36818 15.3413 3.94156 14.0786C3.51494 12.816 3.39518 11.4699 3.5922 10.1517C3.78922 8.83357 4.29735 7.58131 5.07452 6.49857C5.8517 5.41584 6.87557 4.53377 8.0614 3.92538C9.24722 3.31699 10.5609 2.99978 11.8937 3ZM11.8937 18.1067C13.2213 18.1066 14.5191 17.7128 15.623 16.9751C16.7268 16.2374 17.5871 15.1889 18.0951 13.9623C18.6031 12.7357 18.736 11.386 18.477 10.0839C18.2179 8.78176 17.5786 7.58568 16.6398 6.64689C15.701 5.70811 14.5049 5.06877 13.2028 4.80972C11.9007 4.55068 10.551 4.68356 9.32435 5.19156C8.09774 5.69957 7.04931 6.55988 6.31162 7.66372C5.57393 8.76756 5.18012 10.0654 5.17998 11.393C5.18165 13.1731 5.88952 14.8798 7.14822 16.1385C8.40692 17.3972 10.1136 18.105 11.8937 18.1067Z" fill="white"/>
</svg>
